<svg width="35" height="13" viewBox="0 0 35 13" fill="none" xmlns="http://www.w3.org/2000/svg">
<path d="M1 5.9H0.5V6.9H1V5.9ZM33.5 6.4L33.7864 6.80981L34.3908 6.38738L33.7747 5.98225L33.5 6.4ZM28.5685 0.825477L28.394 0.356924L27.4569 0.70597L27.6314 1.17452L28.5685 0.825477ZM27.661 11.5606L27.4216 11.9996L28.2996 12.4784L28.5389 12.0394L27.661 11.5606ZM1 6.9H33.5V5.9H1V6.9ZM27.6314 1.17452C27.8907 1.87058 28.3884 2.56817 28.9539 3.20784C29.5244 3.85326 30.1905 4.46899 30.8193 5.00014C31.4493 5.53225 32.0492 5.98548 32.4912 6.30555C32.7125 6.46575 32.8948 6.59301 33.0223 6.68057C33.0861 6.72436 33.1362 6.75825 33.1707 6.78139C33.1879 6.79296 33.2012 6.80185 33.2104 6.80794C33.215 6.81099 33.2186 6.81334 33.221 6.81498C33.2223 6.8158 33.2232 6.81644 33.2239 6.8169C33.2243 6.81714 33.2246 6.81732 33.2248 6.81746C33.2249 6.81753 33.225 6.81761 33.2251 6.81764C33.2252 6.8177 33.2252 6.81775 33.5 6.4C33.7747 5.98225 33.7748 5.98227 33.7748 5.98229C33.7748 5.98228 33.7748 5.98228 33.7747 5.98226C33.7747 5.98223 33.7746 5.98214 33.7744 5.98202C33.774 5.98176 33.7733 5.98133 33.7724 5.98072C33.7706 5.97951 33.7677 5.97759 33.7637 5.97497C33.7559 5.96975 33.7439 5.96176 33.728 5.95112C33.6963 5.92983 33.6491 5.89791 33.5884 5.85621C33.4669 5.77279 33.2915 5.65034 33.0777 5.49557C32.6497 5.1857 32.0706 4.74801 31.4646 4.23618C30.8575 3.72338 30.2305 3.14213 29.7031 2.54551C29.1706 1.94315 28.7653 1.35363 28.5685 0.825477L27.6314 1.17452ZM33.5 6.4C33.2135 5.99019 33.2134 5.99024 33.2134 5.9903C33.2133 5.99034 33.2132 5.99041 33.2131 5.99047C33.2129 5.99061 33.2127 5.99079 33.2124 5.99101C33.2117 5.99145 33.2109 5.99206 33.2097 5.99284C33.2075 5.99439 33.2044 5.99661 33.2003 5.99949C33.1921 6.00525 33.1803 6.01364 33.1649 6.02458C33.1342 6.04644 33.0896 6.07848 33.0325 6.11998C32.9185 6.20297 32.7548 6.32386 32.5543 6.47695C32.1535 6.7829 31.604 7.21862 31.0084 7.73827C29.8304 8.76613 28.4223 10.1647 27.661 11.5606L28.5389 12.0394C29.2101 10.8087 30.502 9.50725 31.6659 8.49177C32.2412 7.98974 32.7731 7.56795 33.1611 7.27181C33.3549 7.12385 33.5123 7.00756 33.6209 6.92862C33.6751 6.88915 33.7171 6.85904 33.7452 6.839C33.7593 6.82898 33.7699 6.82147 33.7768 6.81658C33.7803 6.81413 33.7828 6.81233 33.7844 6.8112C33.7853 6.81064 33.7858 6.81024 33.7862 6.81C33.7863 6.80989 33.7864 6.80981 33.7865 6.80978C33.7865 6.80976 33.7865 6.80977 33.7865 6.80976C33.7865 6.80978 33.7864 6.80981 33.5 6.4Z" fill="#4299C8"/>
</svg>
