<svg width="107" height="52" viewBox="0 0 107 52" fill="none" xmlns="http://www.w3.org/2000/svg">
<g clip-path="url(#clip0_1578_12272)">
<path d="M100.417 2.22266H6.58088C4.16608 2.22266 2.2085 4.1929 2.2085 6.62332V45.3743C2.2085 47.8047 4.16608 49.7749 6.58088 49.7749H100.417C102.832 49.7749 104.789 47.8047 104.789 45.3743V6.62332C104.789 4.1929 102.832 2.22266 100.417 2.22266Z" fill="white"/>
<path d="M100.417 52H6.58325C4.8379 51.9979 3.16462 51.2992 1.93047 50.057C0.696315 48.8149 0.00206266 47.1308 0 45.3741V6.62583C0.00206266 4.86918 0.696315 3.18509 1.93047 1.94295C3.16462 0.700815 4.8379 0.002076 6.58325 0H100.417C102.162 0.002076 103.835 0.700815 105.07 1.94295C106.304 3.18509 106.998 4.86918 107 6.62583V45.3741C106.998 47.1308 106.304 48.8149 105.07 50.057C103.835 51.2992 102.162 51.9979 100.417 52ZM6.58325 4.4477C6.00951 4.44839 5.45946 4.6781 5.05376 5.08642C4.64806 5.49475 4.41984 6.04837 4.41915 6.62583V45.3741C4.41915 45.9518 4.64715 46.5058 5.053 46.9143C5.45885 47.3228 6.0093 47.5523 6.58325 47.5523H100.417C100.99 47.5516 101.541 47.3219 101.946 46.9135C102.352 46.5052 102.58 45.9516 102.581 45.3741V6.62583C102.58 6.04837 102.352 5.49475 101.946 5.08642C101.541 4.6781 100.99 4.44839 100.417 4.4477H6.58325Z" fill="white"/>
<path d="M84.8602 2.45115C71.9716 13.8071 65.5469 28.3008 64.3362 45.5008C60.9848 40.0934 57.6854 35.0704 52.7674 31.5353C52.168 31.4151 51.5518 31.4054 50.9489 31.5065C49.72 32.4165 48.5457 33.4101 47.9014 34.856C47.9482 35.5176 48.3145 35.9333 48.7068 36.3464C50.6787 38.4383 52.6531 40.4987 54.6094 42.5905C56.6878 44.8052 58.735 47.0356 60.7978 49.266C60.8698 49.3241 60.9266 49.399 60.9632 49.4843C60.9999 49.5695 61.0154 49.6624 61.0082 49.755H7.10811C4.93881 49.755 3.33326 48.7562 2.60063 46.9154C2.34364 46.2738 2.21135 45.5885 2.21094 44.8968C2.21094 32.304 2.21094 19.7104 2.21094 7.1159C2.21094 4.25534 3.91261 2.45636 6.96522 2.23934C7.22502 2.22103 7.48481 2.23934 7.74461 2.23934C32.9865 2.23934 58.2275 2.23934 83.4677 2.23934C83.8911 2.23934 84.3302 2.10862 84.8602 2.45115ZM19.5836 30.1442C19.5836 27.6288 19.5836 25.2363 19.5836 22.8438C19.6041 22.0404 19.343 21.2553 18.8462 20.6262C18.3493 19.997 17.6484 19.5639 16.8661 19.4027C14.7314 18.8873 12.5059 18.8873 10.3712 19.4027C9.7017 19.5545 9.06581 19.8293 8.49543 20.2133C8.02634 20.5117 7.65372 20.9411 7.42304 21.4491C7.19237 21.957 7.11364 22.5216 7.19644 23.0739H11.5273C11.852 22.8516 11.7377 22.3783 12.0339 22.2397C12.4306 21.9695 12.9011 21.83 13.38 21.8408C13.859 21.8516 14.3228 22.012 14.7072 22.2999C14.8071 22.4141 14.8742 22.5536 14.9012 22.7033C14.9282 22.8531 14.9141 23.0074 14.8605 23.1497C14.7647 23.331 14.6273 23.4866 14.4596 23.6035C14.2919 23.7204 14.0989 23.7952 13.8966 23.8217C13.1172 23.8923 12.3924 24.1485 11.6078 24.1877C10.4056 24.2268 9.22536 24.5218 8.1447 25.0532C6.88469 25.6939 6.3521 26.8025 6.36769 28.1256C6.38588 29.3938 6.90027 30.4789 8.11353 31.0855C8.87362 31.4939 9.71771 31.7186 10.579 31.7418C12.1783 31.7922 13.7434 31.2696 14.9955 30.2671C15.432 30.607 15.2553 31.1692 15.6554 31.4463C16.3933 31.4463 17.1285 31.4647 17.8611 31.4463C18.5937 31.428 19.3627 31.5588 20.1603 31.3339L19.5836 30.1442ZM32.5163 22.7653C32.7085 21.96 32.4201 21.356 31.9707 20.8042C31.3984 20.1516 30.6559 19.6733 29.8274 19.4236C29.1597 19.1883 28.4686 19.238 27.7957 19.1099C26.1384 18.8126 24.4299 19.1136 22.9713 19.9597C22.3818 20.2457 21.8924 20.705 21.5677 21.2769C21.243 21.8488 21.0983 22.5064 21.1527 23.1628C21.2307 24.5591 21.9997 25.4664 23.2597 26.0103C24.1399 26.3418 25.0464 26.598 25.9694 26.7764C26.7825 26.9777 27.7022 26.9254 28.3231 27.6262C28.3595 28.5335 28.3595 28.5335 27.6295 29.08C26.4032 29.2656 25.4991 28.8943 25.138 27.6314H21.028C20.9423 27.7407 20.8871 27.8709 20.8679 28.0087C20.8487 28.1466 20.8663 28.2871 20.9189 28.4158C21.0857 29.0683 21.4166 29.6666 21.8798 30.153C22.3431 30.6394 22.923 30.9975 23.5637 31.1927C24.986 31.7115 26.5119 31.8766 28.0114 31.6738C29.1805 31.5013 30.3729 31.3653 31.4433 30.6829C32.7813 29.8331 33.1917 28.6459 33.1242 27.1477C33.0644 25.7697 32.2123 25.0742 31.0952 24.5617C30.746 24.3986 30.3888 24.2537 30.0248 24.1276C28.9674 23.7589 27.8581 23.6308 26.7825 23.3432C26.531 23.2929 26.2953 23.1823 26.0954 23.0207C25.8955 22.8591 25.7373 22.6513 25.6342 22.4149L25.9304 21.8475L26.9878 21.5521C27.3306 21.5979 27.6558 21.7323 27.9317 21.9422C28.2076 22.152 28.4248 22.4302 28.5622 22.7496L32.5163 22.7653ZM42.5964 26.7842C42.5376 26.8987 42.4855 27.0166 42.4405 27.1372C42.3332 27.5386 42.1 27.8944 41.7756 28.1516C41.4512 28.4089 41.053 28.5538 40.6401 28.5649C39.8373 28.6172 39.1593 27.9818 38.8008 26.996C38.3409 25.7436 38.5254 24.5329 38.9592 23.3353C39.0532 23.0679 39.2185 22.8317 39.4372 22.6527C39.6558 22.4738 39.9192 22.3589 40.1985 22.3208C40.6189 22.2285 41.0565 22.2538 41.4637 22.394C42.1521 22.6555 42.2249 23.4033 42.5808 23.8505H46.9688C47.0464 23.7594 47.0989 23.6493 47.1208 23.5313C47.1426 23.4133 47.1332 23.2916 47.0935 23.1784C46.6856 21.5651 45.7399 20.3702 44.2071 19.7426C42.4717 19.0288 40.6583 18.7412 38.8085 19.2197C37.7252 19.5021 36.6808 19.9126 35.8365 20.7049C34.1894 22.2502 33.6152 24.2244 33.9062 26.3763C34.2101 28.5963 35.3506 30.3142 37.5641 31.1378C39.5 31.9043 41.6455 31.9424 43.607 31.245C46.0153 30.39 46.9844 29.1218 47.135 26.779L42.5964 26.7842ZM19.8693 6.1615V10.183C20.2573 10.3273 20.685 10.3189 21.067 10.1595C21.106 9.63654 21.1423 9.11359 21.1995 8.3004L21.81 10.1019C21.9385 10.1976 22.0882 10.2604 22.2461 10.285C22.404 10.3096 22.5655 10.2952 22.7167 10.2432C23.3558 9.78034 22.9557 8.89917 23.6468 8.54617C23.8053 9.1345 23.5533 9.72019 23.8286 10.2327C24.2547 10.2588 24.6366 10.3922 24.9588 10.1229V6.16673H23.2909C22.6648 6.79689 22.9116 7.77481 22.301 8.44419L21.5216 6.1615H19.8693ZM30.2041 12.5468C30.2041 13.8542 30.1235 15.1772 30.2612 16.4951C30.7185 16.584 31.0874 16.6572 31.5602 16.3983V14.4634C32.1915 15.2478 32.5474 15.9983 33.2541 16.5787C33.6542 16.5082 34.1244 16.699 34.5323 16.4768V12.4291C34.0127 12.4134 33.5892 12.301 33.1372 12.5258C33.1086 13.1377 33.08 13.7444 33.0463 14.4765L31.4875 12.4527C31.0328 12.3899 30.6561 12.3219 30.2119 12.5468H30.2041ZM46.0803 13.4149L45.662 12.7167C44.3942 12.2225 43.1783 12.4134 41.9261 12.4343C41.9261 13.2371 41.9027 13.8855 41.9261 14.5262C41.9495 15.1668 41.7858 15.8911 42.1028 16.6337C43.4147 16.3356 44.867 17.052 45.966 16.0061C46.2387 15.2609 46.0439 14.7353 45.5893 14.351L46.0803 13.4149ZM30.2534 10.2772C31.5706 10.2379 32.7787 10.4968 33.9451 9.79866C34.0828 9.53718 34.2673 9.25217 34.4024 8.94362C34.9662 7.63624 34.2777 6.30007 32.9034 6.15103C32.0227 6.01893 31.1259 6.04283 30.2534 6.22163V10.2772ZM17.9131 10.2562C18.3459 10.3301 18.7896 10.3059 19.2121 10.1856C18.9523 9.54241 19.3108 8.76058 18.5184 8.34221C19.1237 7.86894 19.1783 7.2963 18.9393 6.60338C17.7182 5.72482 16.3413 6.22949 14.8864 6.13536C14.9722 7.56825 14.8059 8.89131 14.9878 10.2353C15.5073 10.2667 15.9802 10.4105 16.3829 10.1386C16.5258 9.67836 16.3153 9.22077 16.5855 8.79456C17.0479 8.65075 17.3831 8.89133 17.6845 9.17111C17.8299 9.51887 17.6481 9.8954 17.9209 10.2536L17.9131 10.2562ZM24.8211 13.6554C24.4781 15.8911 25.2965 16.4742 27.0657 16.7932C28.0711 16.6337 28.9934 16.3486 29.4195 15.2034C29.4892 14.6752 29.4822 14.1397 29.3987 13.6136C27.9646 11.799 26.159 11.8251 24.8289 13.6659L24.8211 13.6554ZM6.53656 12.3245C6.61709 13.8672 6.46382 15.2008 6.63788 16.5081C7.09253 16.5892 7.46403 16.6572 7.80956 16.4716C8.06936 16.0218 7.6303 15.3603 8.30317 15.0726C8.61233 15.036 8.84615 15.2374 9.09556 15.3812C9.32678 15.7237 9.041 16.1656 9.37354 16.55C9.78402 16.5683 10.2387 16.665 10.6725 16.4794C10.7495 16.1573 10.7503 15.8217 10.675 15.4992C10.5996 15.1768 10.4502 14.8767 10.2387 14.6229C10.4699 14.2359 10.7349 13.8856 10.6985 13.3312C9.6775 11.8016 8.09534 12.6174 6.53656 12.3245ZM29.2896 6.08304C28.1257 6.20071 26.9722 5.97322 25.8629 6.21378V10.2144H29.6897C29.6065 9.8614 29.8222 9.5581 29.5468 9.34631C28.8297 9.05345 28.014 9.54764 27.2943 8.98547C27.8841 8.43898 28.5622 8.91226 29.0766 8.59587C29.1619 8.47389 29.2062 8.32757 29.2029 8.17841C29.1997 8.02924 29.149 7.88504 29.0584 7.76697C28.5206 7.52119 27.8711 7.90295 27.2658 7.41137C27.9802 6.85181 28.796 7.41135 29.3987 6.99821C29.4512 6.84742 29.4686 6.68653 29.4497 6.52789C29.4308 6.36925 29.376 6.21706 29.2896 6.08304V6.08304ZM16.5206 35.1646V39.7404C16.8661 39.879 17.1467 39.9208 17.4169 39.7247C17.6637 39.2018 17.3181 38.5978 17.6507 38.0696H18.9886C19.8044 38.5167 19.3835 39.2724 19.6667 39.7613C20.0096 39.8685 20.2954 39.9339 20.615 39.6567C20.5734 38.956 20.8176 38.1768 20.1291 37.6042C20.789 37.0132 20.6721 36.3804 20.5292 35.698C19.2874 34.7462 17.8975 35.2692 16.5206 35.1646ZM35.187 13.9849C35.7949 15.1276 37.0056 14.7876 37.7278 15.4073C37.0679 15.7996 37.016 15.8623 36.7094 15.6087C36.2054 15.1903 35.7222 15.2295 35.1376 15.423C35.3169 16.7513 36.4366 16.4899 37.1225 16.8193C38.8345 16.3251 38.8345 16.3251 39.2294 15.2243C38.9255 13.8829 37.4732 14.2647 36.6314 13.5142C37.5122 13.054 38.2448 14.147 39.0372 13.4802C38.8969 12.9573 38.4994 12.6697 37.998 12.3899C37.0731 12.4317 36.0365 12.1284 35.2182 13.0854C35.1497 13.3768 35.1391 13.6789 35.187 13.9744V13.9849ZM19.755 15.1982C19.5134 14.3144 18.7444 14.1522 17.9884 13.9744C17.6091 13.8908 17.2506 13.8463 17.2636 13.2188C18.0586 13.3103 18.7158 14.0215 19.5628 13.496C19.4715 13.2535 19.3323 13.0321 19.1537 12.8451C18.9751 12.6582 18.7608 12.5096 18.5236 12.4082C17.5857 12.4082 16.5621 12.1258 15.7957 13.007C15.7155 13.1866 15.674 13.3813 15.674 13.5783C15.674 13.7753 15.7155 13.97 15.7957 14.1496C16.3153 15.172 17.526 14.7615 18.2508 15.3315C18.1313 15.6766 17.9183 15.7839 17.5286 15.7786C17.009 15.3838 16.3517 15.0962 15.5723 15.3681C15.7697 16.5212 16.7154 16.6101 17.5156 16.8193C18.521 16.5761 19.6018 16.5422 19.755 15.1825V15.1982ZM14.7877 14.1026C14.133 13.7496 13.3614 14.3327 12.8081 13.5927C13.5875 13.2632 14.3513 13.5927 15.0371 13.3626C15.1243 13.23 15.1707 13.0745 15.1707 12.9154C15.1707 12.7564 15.1243 12.601 15.0371 12.4683H11.561V16.5291H15.0475C15.1395 16.3901 15.186 16.2255 15.1804 16.0586C15.1748 15.8917 15.1174 15.7307 15.0163 15.5982C14.3409 15.4099 13.5459 15.7473 12.6626 15.2949C13.442 14.772 14.2032 15.2034 14.7747 14.8818C14.8424 14.7618 14.8791 14.6266 14.8814 14.4886C14.8837 14.3506 14.8514 14.2143 14.7877 14.0921V14.1026ZM39.1021 39.8529C39.9958 39.8529 40.809 39.8764 41.617 39.8529C41.9422 39.8451 42.2578 39.74 42.5234 39.5509C42.789 39.3618 42.9926 39.0974 43.1082 38.7913C43.3685 38.2761 43.4685 37.694 43.3953 37.1208C43.3221 36.5476 43.079 36.0098 42.6977 35.5777C41.5234 34.9685 40.3362 35.1672 39.1021 35.1933V39.8529ZM20.1369 12.4527C20.1369 13.1796 20.1369 13.8228 20.1369 14.466C20.1369 15.1093 20.0616 15.8414 20.2123 16.5421C20.6424 16.6128 21.0811 16.6128 21.5113 16.5421C21.862 16.163 21.4463 15.6139 21.901 15.3054C22.7323 15.2714 23.6442 15.4257 24.2391 14.5079C24.2391 14.3248 24.2755 14.1104 24.2755 13.896C24.2755 13.6816 24.2469 13.4672 24.2365 13.3208C23.4234 12.2147 22.6855 12.3559 20.1265 12.4422L20.1369 12.4527ZM11.4727 6.20858C10.9323 7.47936 10.3712 8.78675 9.94769 10.1307C10.7842 10.4785 11.322 10.1752 11.7663 9.70453C12.1923 9.80912 12.5872 9.63916 12.9639 9.83003C13.099 9.98431 13.1406 10.2379 13.4705 10.2641C13.7953 10.2301 14.224 10.3974 14.6136 10.1281C14.0629 8.75537 13.5407 7.45319 13.0211 6.15365C12.5065 6.06746 11.98 6.08615 11.4727 6.20858V6.20858ZM10.114 38.3023L9.33457 39.0292C8.55518 39.1913 7.96804 39.0711 7.62251 38.2736C7.62251 37.7506 7.54197 37.1335 7.66668 36.6184C8.07196 35.9176 8.62793 35.834 9.34756 35.9752L10.127 36.6942C10.4335 36.6445 10.7635 36.8459 10.9583 36.4903C10.8139 36.1703 10.6038 35.8848 10.3418 35.6525C10.0798 35.4202 9.77198 35.2463 9.43847 35.1423C9.10496 35.0383 8.75335 35.0066 8.40677 35.0492C8.0602 35.0918 7.72651 35.2077 7.42766 35.3894C6.3573 36.0013 6.00397 37.7427 6.70023 38.956C7.35492 40.1039 8.96566 40.3967 10.1945 39.5888C10.7141 39.2515 11.0622 38.6108 10.8648 38.352C10.6362 38.2134 10.3816 38.2762 10.101 38.3023H10.114ZM15.232 36.9714H12.9795C12.7951 36.5635 12.7691 36.2863 13.0445 35.9255H15.3177C15.4762 35.6169 15.5048 35.4208 15.2969 35.2195H11.839V39.8058H15.5567C15.6398 39.6928 15.6762 39.5518 15.6583 39.4124C15.6404 39.273 15.5695 39.146 15.4606 39.058H12.9068C12.8081 38.5769 12.7275 38.2082 12.9561 37.8421C13.7485 37.6486 14.5825 37.9414 15.3359 37.6538C15.3771 37.5397 15.3879 37.4167 15.3674 37.297C15.3469 37.1773 15.2958 37.0651 15.219 36.9714H15.232ZM37.9512 37.0943C37.1588 36.7517 36.2573 37.1701 35.4598 36.8485C35.4234 36.5138 35.3143 36.2079 35.626 35.9699C36.4054 35.8261 37.2368 36.0876 38.0032 35.8104C38.0266 35.5829 38.0733 35.4104 37.9226 35.2326H34.405V39.7875H38.2656C38.1798 39.5391 38.3461 39.3377 37.9746 39.0344H35.4676C35.4104 38.5402 35.2831 38.1585 35.6442 37.727H37.7772C37.8572 37.6453 37.9143 37.5437 37.9426 37.4326C37.9709 37.3214 37.9694 37.2047 37.9382 37.0943H37.9512ZM6.62749 10.2536C7.17306 10.2536 7.6303 10.3661 8.03558 10.1778C8.22524 9.70451 7.99142 9.24431 8.22524 8.8704C8.6617 8.58801 9.18129 8.91225 9.59697 8.65339C9.64322 8.58837 9.6753 8.51426 9.6911 8.43589C9.7069 8.35753 9.70606 8.27666 9.68864 8.19864C9.67123 8.12062 9.63762 8.04722 9.59004 7.98319C9.54245 7.91916 9.48195 7.86596 9.41251 7.82711C9.08517 7.53425 8.4071 8.03369 8.11353 7.35385C8.76562 6.91195 9.51383 7.35383 10.1088 7.04006C10.2075 6.70798 10.2776 6.42036 10.0256 6.18764H6.64827L6.62749 10.2536ZM31.7109 35.141C30.4119 35.1724 29.1857 35.0548 27.9984 35.2195V39.7953C28.4167 39.8398 28.7596 39.9496 29.0999 39.6698C29.1285 39.1469 29.1597 38.6004 29.1935 37.9598H31.1004C31.329 37.5649 31.3602 37.2982 31.0848 37.0629C30.4093 36.8982 29.7079 37.1544 29.0246 36.8929C29.0973 36.5818 29.1649 36.2994 29.2584 35.9124H31.5628C31.7914 35.6509 31.7369 35.4783 31.7109 35.141V35.141ZM49.7044 12.4213C50.3591 13.4462 50.9151 14.3196 51.4633 15.1825C51.5698 15.6113 51.3931 16.0584 51.6139 16.5212C52.0192 16.5788 52.4271 16.6833 52.874 16.3853C52.4687 14.7615 53.9911 13.8777 54.4016 12.5154C53.9576 12.3718 53.4845 12.3448 53.0272 12.437C52.6272 12.7978 52.609 13.3547 52.1933 13.6397C51.6971 13.3783 51.7309 12.7246 51.2892 12.4213H49.7044ZM46.8467 12.5076C46.8467 13.8777 46.735 15.1982 46.9142 16.5578C48.1327 16.5578 49.2732 16.6886 50.4656 16.4663C50.3799 16.1447 50.5384 15.8806 50.2448 15.5773L48.3457 15.4858V12.437C47.8287 12.403 47.4156 12.3193 46.8571 12.5076H46.8467ZM46.3505 43.6835C47.1636 42.8363 47.2857 42.7788 48.0807 43.2913C48.2197 43.3999 48.3849 43.4692 48.5593 43.4922C48.7337 43.5152 48.9111 43.491 49.0731 43.422C48.8653 42.3996 48.0339 42.4232 47.3585 42.1748L46.0829 42.6193C45.7188 43.078 45.4534 43.6078 45.3035 44.1751C45.345 44.3006 45.3814 44.4366 45.423 44.5438C45.8984 45.9584 46.5479 46.3741 47.917 45.9322C48.3691 45.7858 48.712 46.1937 49.1121 45.9871V44.0286C48.5068 44.1202 47.9378 43.8639 47.4286 44.1856C47.4286 44.753 48.5743 44.4235 47.9898 45.2942C47.597 45.4031 47.1823 45.4031 46.7895 45.2942C46.2855 44.8837 46.2855 44.3267 46.3505 43.6835ZM27.6581 46.1806C27.0839 45.3962 27.6581 44.8732 27.6373 44.2823C27.5983 43.103 26.7436 42.1905 25.6238 42.2219C25.1045 42.2463 24.6155 42.4757 24.263 42.8604C23.9104 43.2451 23.7227 43.754 23.7403 44.2771C23.8053 45.4197 24.8081 46.3323 25.9382 46.0708C26.4708 45.9348 26.9098 46.0839 27.6581 46.1675V46.1806ZM10.6076 43.8691C11.0362 44.9151 12.4573 44.0574 12.8314 45.1033C11.9819 46.0342 11.309 44.5516 10.4933 44.9857C10.9583 46.293 12.065 46.4892 13.4991 45.5452C13.5914 45.3563 13.6377 45.1479 13.6341 44.9374C13.6305 44.7268 13.5771 44.5202 13.4783 44.3346C12.86 43.741 11.8806 44.0234 11.3012 43.3933C12.065 42.1931 12.8029 43.8979 13.5537 43.3724C13.0912 42.5304 13.0912 42.5304 11.9481 42.2009L10.8622 42.567C10.5686 42.988 10.3945 43.3724 10.6076 43.8561V43.8691ZM38.45 46.0368C40.0582 46.1702 40.9181 45.6629 41.1103 44.4679C41.3026 43.273 40.6661 42.6114 39.045 42.2061C38.0603 42.363 37.3927 42.9095 37.2654 43.9371C37.1458 44.9098 37.6525 45.5818 38.45 46.0368ZM29.222 45.2079C29.0012 44.3607 29.2584 43.4403 29.0817 42.5931C28.7466 42.3944 28.4764 42.35 28.1932 42.635V45.0772C28.2811 45.2988 28.4124 45.5003 28.5793 45.6696C28.7463 45.839 28.9454 45.9728 29.1649 46.0629C30.3158 46.1179 30.3158 46.1179 31.1783 45.5217C31.5654 44.5385 31.555 43.5292 31.3887 42.4624C31.09 42.4912 30.838 42.35 30.4872 42.6533V45.2681C30.0092 45.3361 29.6585 45.4668 29.222 45.2027V45.2079ZM23.7663 36.2026C24.4106 35.7581 24.9899 36.1373 25.4394 35.7764L25.2368 35.2273H21.2359C21.1631 35.5202 21.119 35.7294 21.4567 35.9673H22.7063V39.6829C22.8618 39.7945 23.048 39.8545 23.2389 39.8545C23.4299 39.8545 23.616 39.7945 23.7715 39.6829L23.7663 36.2026ZM41.7079 46.008C42.0482 46.076 42.2613 46.1048 42.3392 45.9767C42.5626 45.4772 42.295 45.0092 42.599 44.6144C43.0173 44.5412 43.4355 44.4496 43.7421 44.6745C44.137 45.051 43.8694 45.5138 44.098 45.8433C44.3396 46.0551 44.5968 46.1806 44.9086 45.9714C44.68 45.4145 44.9086 44.7686 44.5449 44.2718C44.6774 43.9241 45.0411 43.7254 44.9839 43.2704C44.9415 43.1068 44.8639 42.9546 44.7566 42.8244C44.6493 42.6943 44.5149 42.5895 44.363 42.5173H41.7131L41.7079 46.008ZM7.80697 42.6088C7.39909 43.6312 6.83013 44.7189 6.59111 45.9322C7.3705 46.348 7.47702 45.6054 7.81735 45.3465H8.98904C9.28521 45.7492 9.47486 46.3427 10.2075 45.9165L8.87473 42.4284C8.51361 42.4728 8.22004 42.35 7.81216 42.6062L7.80697 42.6088ZM35.4364 45.9688L34.1374 42.5382C33.9564 42.4636 33.7613 42.4301 33.566 42.44C33.3706 42.45 33.1799 42.5031 33.0073 42.5957L31.7369 45.9165C32.5552 46.327 32.6851 45.6106 33.0125 45.3439H34.2595C34.4388 45.7753 34.657 46.2146 35.4416 45.9662L35.4364 45.9688ZM21.1216 45.3334C21.6048 45.3334 22.0776 45.2445 22.4699 45.3753C22.7531 45.5792 22.6076 45.9636 22.9557 46.0525C23.0633 46.0708 23.1737 46.0573 23.2738 46.0137C23.3739 45.9701 23.4592 45.8982 23.5195 45.8067C23.1781 44.6776 22.7713 43.5697 22.301 42.4886C21.8698 42.4415 21.5216 42.3421 21.2281 42.5775C20.8332 43.741 20.1707 44.8 19.9837 45.995C20.7163 46.2773 20.789 45.5871 21.1268 45.3308L21.1216 45.3334ZM17.6715 43.4037L17.0973 42.5487C16.6557 42.4729 16.3049 42.1643 15.7723 42.2219C15.4116 42.2844 15.0728 42.4392 14.7885 42.6713C14.5042 42.9034 14.2839 43.2051 14.1486 43.5475C14.0447 44.332 14.0837 45.0641 14.6292 45.6577C16.1594 46.4421 17.0142 46.2303 17.5805 44.8732C16.7648 44.447 16.2296 45.961 15.2917 45.1033C15.0682 44.8069 14.9307 44.4539 14.8942 44.0836C15.0579 43.7672 15.1021 43.2991 15.5437 43.0377C15.9022 42.9278 16.2945 42.886 16.5829 43.2154C16.8713 43.5449 17.2454 43.5789 17.6767 43.4011L17.6715 43.4037ZM41.1415 16.4899C41.1415 15.0936 41.248 13.7705 41.074 12.3742C40.5544 12.4526 40.0842 12.2539 39.6711 12.4997V16.5605C40.1615 16.6247 40.6594 16.6008 41.1415 16.4899V16.4899ZM27.0034 39.7613V35.1855C26.5799 35.1541 26.2396 35.0417 25.9044 35.2744V39.7483C26.0761 39.8291 26.263 39.8721 26.4525 39.8744C26.642 39.8766 26.8298 39.8381 27.0034 39.7613ZM32.376 35.243V39.8895C32.7319 39.7823 33.0411 40.0097 33.2619 39.7143V35.2195C32.9746 35.1142 32.6587 35.1207 32.376 35.2378V35.243ZM36.9328 45.5426C36.8211 45.3465 36.699 45.1373 36.3846 45.153C35.956 45.3622 35.8521 45.6524 36.1248 46.0447C36.5535 46.1414 36.8159 46.0106 36.9328 45.5426ZM19.5654 44.2352C19.1159 43.9737 18.6665 43.7986 18.1651 44.3189C18.721 44.6196 19.1471 44.6327 19.5602 44.2405L19.5654 44.2352Z" fill="#16ACA9"/>
<path d="M104.755 45.5834C104.68 47.8504 102.867 49.6232 100.484 49.7671C100.313 49.7671 100.139 49.7671 99.9647 49.7671C89.843 49.7671 79.7196 49.7671 69.5944 49.7671C69.2229 49.7671 68.815 49.8926 68.4409 49.6128C69.2333 47.3327 69.4801 44.9271 69.9244 42.5686C71.0104 36.6244 72.9865 30.8805 75.7854 25.5333C77.622 22.0451 79.8209 18.7626 82.3453 15.741C83.793 13.9585 85.3359 12.2564 86.9671 10.6422C89.301 8.38324 91.7656 6.26507 94.3479 4.29875C94.9688 3.8307 95.6079 3.38358 96.1872 2.86847C96.4214 2.64494 96.6991 2.47262 97.0026 2.36237C97.3062 2.25212 97.6292 2.2063 97.9513 2.22783C99.1074 2.29059 100.271 2.1494 101.425 2.43179C103.28 2.88153 104.685 4.52361 104.753 6.3801C104.29 6.70694 104.542 7.18285 104.54 7.57768C104.522 12.2843 104.54 16.9752 104.54 21.6739C104.54 29.2428 104.54 36.8126 104.54 44.3832C104.542 44.7807 104.296 45.254 104.755 45.5834ZM100.227 12.1352C99.385 12.0566 98.5358 12.1454 97.7278 12.3967C93.7036 13.4844 90.347 15.5763 87.7386 18.9023C85.1303 22.2282 84.3223 26.072 84.0028 30.1301C83.8547 32.0494 84.2626 33.932 84.2859 35.8408C84.3015 37.0749 83.8079 37.8881 82.7272 38.4215C81.6047 38.9586 80.4528 39.4309 79.2771 39.8361C77.5026 40.4637 75.7152 41.0572 73.9434 41.6926C73.3953 41.8887 72.8107 42.0901 72.5665 42.7856C73.4628 43.4445 74.4708 43.387 75.4243 43.3504C77.2688 43.2798 79.1082 43.0889 80.9527 42.9373C82.6025 42.8091 83.9066 43.3792 84.7146 44.8905C85.0238 45.4657 85.4498 45.8344 86.0759 45.8658C86.954 45.4997 86.9151 44.6891 87.0891 44.1296C86.9437 42.3332 86.4423 40.7304 86.05 39.0752C87.6477 38.432 89.1675 37.8594 90.6484 37.2214C94.2232 35.6891 96.9432 33.2391 98.6605 29.6856C100.378 26.1321 100.999 22.3145 101.113 18.4054C101.159 17.0633 101.06 15.7201 100.817 14.3996C100.677 13.6675 100.91 12.7968 100.227 12.1352ZM100.565 45.7063V42.5006C100.113 42.5189 99.7387 42.3855 99.5256 42.5006C98.8138 43 98.993 43.8315 98.4215 44.2551C98.1461 43.6511 97.9746 43.034 97.5512 42.4823C97.1979 42.5529 96.8082 42.3594 96.3223 42.7228C96.2013 43.7533 96.2075 44.795 96.3405 45.824C96.686 45.7978 96.99 45.9678 97.2784 45.5625V44.0852C97.8915 44.561 97.7019 45.4396 98.2968 45.8606C99.2451 45.7481 99.0762 44.8147 99.5023 44.3362C99.827 44.7728 99.4139 45.3585 99.7854 45.7821C99.9111 45.8368 100.049 45.8585 100.185 45.8452C100.321 45.832 100.452 45.7842 100.565 45.7063V45.7063ZM93.6464 43.4236V45.7194C94.0413 45.871 94.3557 45.9416 94.6986 45.5677V43.3739C95.0052 43.1125 95.3741 43.3425 95.5975 43.0811C95.6444 42.9956 95.6666 42.8986 95.6615 42.8011C95.6565 42.7036 95.6244 42.6095 95.5689 42.5293H92.7345C92.6721 42.602 92.6321 42.6915 92.6197 42.7868C92.6072 42.8821 92.6228 42.9789 92.6644 43.0654C92.8878 43.3452 93.2515 43.1229 93.6464 43.4236Z" fill="#10ACA9"/>
<path d="M104.755 45.5822C104.296 45.2554 104.542 44.7795 104.542 44.3821C104.527 36.8114 104.527 29.2416 104.542 21.6727C104.542 16.9661 104.542 12.2752 104.542 7.57649C104.542 7.18166 104.283 6.70575 104.755 6.37891C104.768 6.98815 104.789 7.59739 104.789 8.20925V44.2931C104.789 44.7115 104.768 45.1456 104.755 45.5822Z" fill="#02A1A1"/>
<path d="M35.1869 13.9757C35.1359 13.6771 35.1448 13.3713 35.2129 13.0762C36.0312 12.1061 37.0678 12.4225 37.9927 12.3807C38.4941 12.6605 38.8916 12.9611 39.0319 13.471C38.2395 14.1378 37.5069 13.0448 36.6262 13.505C37.4731 14.2554 38.9254 13.8737 39.2241 15.2151C38.8292 16.3159 38.8292 16.3159 37.1172 16.8101C36.4391 16.4806 35.2986 16.7421 35.1323 15.4138C35.7169 15.2203 36.2001 15.1811 36.7041 15.5994C37.0107 15.8609 37.0626 15.7903 37.7225 15.3981C36.9925 14.7784 35.7948 15.1183 35.1869 13.9757Z" fill="#F3F9FA"/>
<path d="M19.7548 15.1818C19.6015 16.5363 18.5208 16.5703 17.5024 16.803C16.7022 16.5938 15.7565 16.5049 15.5591 15.3518C16.3385 15.0903 16.9906 15.3675 17.5154 15.7623C17.905 15.7623 18.1181 15.6604 18.2376 15.3152C17.5128 14.7452 16.2943 15.1557 15.7825 14.1333C15.7023 13.9537 15.6608 13.759 15.6608 13.562C15.6608 13.3651 15.7023 13.1703 15.7825 12.9907C16.5489 12.1095 17.5725 12.3893 18.5104 12.3919C18.7475 12.4932 18.9619 12.6419 19.1405 12.8288C19.3191 13.0157 19.4582 13.2371 19.5496 13.4796C18.7026 14.0026 18.0453 13.294 17.2504 13.2025C17.2374 13.83 17.5959 13.8744 17.9752 13.9581C18.7468 14.1359 19.5262 14.3033 19.7548 15.1818Z" fill="#F3F9FA"/>
<path d="M39.1021 39.8414V35.1766C40.3361 35.1505 41.5234 34.9518 42.6976 35.561C43.0789 35.9931 43.322 36.5309 43.3952 37.1041C43.4684 37.6773 43.3684 38.2594 43.1081 38.7746C42.9925 39.0807 42.7889 39.3451 42.5233 39.5342C42.2577 39.7233 41.9421 39.8284 41.6169 39.8362C40.8089 39.865 39.9958 39.8414 39.1021 39.8414ZM42.3417 37.5927C42.2274 36.7821 42.0949 36.1807 41.3623 35.9454C40.996 35.9768 40.5621 35.8199 40.1101 36.0944C40.0518 37.0819 40.0709 38.0725 40.1672 39.057C40.705 39.0413 41.17 39.1485 41.4818 39.0204C42.1806 38.6334 42.1832 38.0241 42.3417 37.5927V37.5927Z" fill="#F3F9FA"/>
<path d="M20.1264 12.4406C22.6854 12.3543 23.4181 12.2131 24.226 13.3034C24.226 13.4499 24.265 13.6643 24.265 13.8787C24.265 14.0931 24.239 14.3075 24.2286 14.4906C23.6285 15.4084 22.7166 15.2541 21.8905 15.2881C21.4358 15.5966 21.8515 16.1457 21.5008 16.5249C21.0706 16.5955 20.6319 16.5955 20.2018 16.5249C20.0511 15.8241 20.142 15.1312 20.1264 14.4487C20.1108 13.7663 20.1264 13.1675 20.1264 12.4406ZM21.8541 14.4487C22.3737 14.3546 22.9764 14.4069 22.8933 13.5675C22.4594 13.3767 22.0697 13.3061 21.6878 13.5675C21.6618 13.8473 21.5787 14.101 21.8645 14.4487H21.8541Z" fill="#F3F9FA"/>
<path d="M11.4726 6.20766C11.9836 6.08556 12.5138 6.06864 13.0314 6.15797C13.551 7.46535 14.0706 8.77273 14.624 10.1324C14.2343 10.3939 13.8056 10.2344 13.4809 10.2684C13.1509 10.2422 13.1093 9.98862 12.9742 9.83435C12.5975 9.64347 12.1949 9.81341 11.7766 9.70882C11.3219 10.1795 10.7842 10.4932 9.95801 10.135C10.3581 8.7858 10.9193 7.47844 11.4726 6.20766ZM12.5846 8.79106C12.5534 8.3204 12.6859 7.83404 12.065 7.43398C12.2208 7.98046 11.7038 8.3073 11.8753 8.79364C12.0416 8.97929 12.2338 8.97148 12.5716 8.79106H12.5846Z" fill="#F3F9FA"/>
<path d="M10.1012 38.3028C10.3818 38.2766 10.6364 38.2138 10.865 38.3524C11.0624 38.6139 10.7091 39.2519 10.1947 39.5892C8.96586 40.3972 7.35512 40.1122 6.70043 38.9565C6.00418 37.7301 6.3575 36.0018 7.42786 35.3899C7.72671 35.2082 8.0604 35.0922 8.40697 35.0496C8.75355 35.007 9.10516 35.0387 9.43867 35.1427C9.77218 35.2467 10.08 35.4206 10.342 35.6529C10.604 35.8853 10.8141 36.1708 10.9585 36.4907C10.7637 36.8463 10.4389 36.645 10.1272 36.6947L9.34776 35.9756C8.62813 35.8213 8.07216 35.9181 7.66688 36.6188C7.54217 37.1418 7.61491 37.738 7.62271 38.274C7.96824 39.0584 8.55278 39.1918 9.33477 39.0296L10.1012 38.3028Z" fill="#F1F8F8"/>
<path d="M31.711 35.1424C31.7422 35.4797 31.7916 35.6653 31.563 35.9268H29.2586C29.165 36.3138 29.0975 36.5962 29.0247 36.9073C29.708 37.1688 30.4095 36.9073 31.0849 37.0773C31.3447 37.3126 31.3291 37.5793 31.1005 37.9742H29.1936C29.1598 38.6148 29.1287 39.1613 29.1001 39.6842C28.7597 39.964 28.4168 39.8542 27.9985 39.8097V35.2339C29.1858 35.0561 30.4069 35.1737 31.711 35.1424Z" fill="#F1F8F8"/>
<path d="M46.8569 12.5093C47.4155 12.3211 47.8286 12.4047 48.3559 12.4387V15.4876L50.2551 15.5791C50.5486 15.8824 50.3902 16.1465 50.4759 16.4681C49.2834 16.6904 48.1377 16.5465 46.9245 16.5596C46.7452 15.1999 46.8621 13.8769 46.8569 12.5093Z" fill="#F3F9FA"/>
<path d="M46.3506 43.6845C46.283 44.3408 46.2856 44.8977 46.8 45.303C47.1928 45.4119 47.6075 45.4119 48.0003 45.303C48.5848 44.4323 47.4391 44.7617 47.4391 44.1943C47.9587 43.8727 48.5173 44.129 49.1226 44.0375V45.9959C48.7225 46.192 48.3796 45.7946 47.9275 45.941C46.5584 46.3855 45.9089 45.9672 45.4335 44.5526C45.3919 44.4323 45.3555 44.3094 45.314 44.1839C45.4639 43.6166 45.7293 43.0868 46.0934 42.6281L47.369 42.1836C48.0496 42.4451 48.8758 42.4085 49.0836 43.4308C48.9216 43.4998 48.7442 43.524 48.5698 43.501C48.3953 43.4781 48.2301 43.4087 48.0912 43.3001C47.2858 42.7667 47.1637 42.8242 46.3506 43.6845Z" fill="#E8F4F5"/>
<path d="M27.6581 46.1673C26.9099 46.0837 26.4709 45.9346 25.9383 46.0575C24.8082 46.319 23.8053 45.4064 23.7404 44.2638C23.7227 43.7407 23.9105 43.2318 24.2631 42.8471C24.6156 42.4624 25.1045 42.233 25.6239 42.2086C26.7437 42.1641 27.5984 43.0897 27.6374 44.269C27.6555 44.8599 27.084 45.3855 27.6581 46.1673ZM26.302 43.0479C25.8058 42.959 25.4291 42.9067 25.0602 43.0976C24.7633 43.3988 24.5797 43.7944 24.5406 44.2167C24.9978 45.2914 24.9978 45.2914 25.9383 45.2626C25.7746 44.6272 26.1721 44.6299 26.6241 44.6743C27.0892 44.0415 26.6319 43.5813 26.302 43.0479Z" fill="#EDF6F7"/>
<path d="M10.6077 43.8571C10.3946 43.3733 10.5687 42.989 10.8675 42.5497L11.9534 42.1836C13.0965 42.5131 13.0965 42.5131 13.5589 43.355C12.8081 43.878 12.0703 42.1757 11.3065 43.3759C11.8858 44.0061 12.8653 43.7237 13.4836 44.3173C13.5823 44.5029 13.6357 44.7095 13.6393 44.92C13.643 45.1306 13.5967 45.3389 13.5044 45.5279C12.0703 46.4718 10.9636 46.281 10.4985 44.9683C11.3013 44.5343 11.9742 46.0142 12.8367 45.086C12.4574 44.0453 11.0363 44.9108 10.6077 43.8571Z" fill="#E8F4F5"/>
<path d="M38.4499 46.0376C37.6523 45.5879 37.1509 44.9159 37.2652 43.9458C37.3925 42.9182 38.0602 42.377 39.0448 42.2148C40.6659 42.6201 41.2998 43.3183 41.1102 44.4766C40.9205 45.635 40.0502 46.1658 38.4499 46.0376ZM39.8995 43.1274C39.6829 43.0266 39.4471 42.9744 39.2085 42.9744C38.9698 42.9744 38.734 43.0266 38.5174 43.1274C38.307 43.4569 38.0368 43.7889 38.042 44.2753C38.1383 44.6701 38.3469 45.0281 38.6421 45.3055C39.0509 45.4324 39.4921 45.4007 39.8788 45.2166C40.1321 44.864 40.2905 44.4515 40.3386 44.019C40.2191 43.7706 40.071 43.4673 39.8995 43.1222V43.1274Z" fill="#F1F8F8"/>
<path d="M29.2222 45.201C29.6534 45.4625 30.0015 45.3344 30.4874 45.2664V42.6516C30.8381 42.3483 31.0901 42.4895 31.3889 42.4607C31.5551 43.5275 31.5655 44.5369 31.1784 45.52C30.3159 46.1162 30.3159 46.1162 29.165 46.0613C28.9456 45.9711 28.7464 45.8373 28.5795 45.668C28.4125 45.4986 28.2812 45.2971 28.1934 45.0755V42.6359C28.4765 42.3509 28.7467 42.3953 29.0819 42.5941C29.2585 43.4334 29.0013 44.3538 29.2222 45.201Z" fill="#F1F8F8"/>
<path d="M41.7129 46.0024V42.5117H44.368C44.5199 42.5839 44.6543 42.6887 44.7616 42.8188C44.8689 42.949 44.9465 43.1012 44.9889 43.2648C45.0461 43.7197 44.6824 43.9185 44.5499 44.2662C44.9188 44.763 44.685 45.4089 44.9136 45.9658C44.6018 46.175 44.3446 46.0495 44.1056 45.8377C43.8744 45.5082 44.142 45.0533 43.7471 44.6689C43.4405 44.444 43.0223 44.5356 42.604 44.6088C42.3 45.0036 42.5676 45.4716 42.3442 45.9711C42.2663 46.0992 42.0532 46.0704 41.7129 46.0024ZM44.2095 43.304C43.5912 42.8072 43.0664 42.9902 42.5806 43.0164C42.4857 43.1649 42.4394 43.3396 42.4483 43.5159C42.4571 43.6923 42.5207 43.8614 42.63 43.9995C43.0301 43.9838 43.4769 44.1303 43.929 43.908C44.0147 43.7197 44.1004 43.5341 44.2069 43.304H44.2095Z" fill="#F3F9FA"/>
<path d="M7.81224 42.6075C8.22012 42.346 8.51369 42.4741 8.8852 42.4297L10.2128 45.9152C9.48013 46.3414 9.29048 45.7478 8.99431 45.3452H7.83562C7.49528 45.6066 7.38097 46.3466 6.60938 45.9309C6.8354 44.7307 7.40435 43.6299 7.81224 42.6075ZM8.2435 43.5253C8.14997 43.8521 8.06683 44.1581 7.96291 44.5294C8.2357 44.545 8.48251 44.6366 8.66177 44.3829C8.69212 44.2138 8.6679 44.0393 8.59264 43.885C8.51738 43.7306 8.39504 43.6046 8.2435 43.5253V43.5253Z" fill="#EDF6F7"/>
<path d="M35.4414 45.968C34.662 46.2295 34.4385 45.7719 34.2619 45.3457H33.0149C32.6875 45.6072 32.5576 46.3289 31.7393 45.9183L33.0019 42.5949C33.1745 42.5023 33.3652 42.4492 33.5605 42.4392C33.7559 42.4293 33.951 42.4628 34.132 42.5374L35.4414 45.968ZM33.537 43.4657C33.3396 43.8108 33.1214 44.0723 33.1733 44.5116C33.4565 44.5456 33.7293 44.6685 34.0125 44.4358C33.815 44.169 33.9631 43.7585 33.537 43.4657Z" fill="#EDF6F7"/>
<path d="M21.1267 45.3321C20.7889 45.5936 20.7162 46.2787 19.9888 45.9937C20.1758 44.7987 20.8383 43.7397 21.2332 42.5762C21.5346 42.3408 21.8749 42.4402 22.3062 42.4873C22.7764 43.5684 23.1832 44.6763 23.5246 45.8054C23.4643 45.8969 23.379 45.9688 23.2789 46.0124C23.1789 46.056 23.0684 46.0695 22.9608 46.0512C22.6127 45.9623 22.7582 45.5779 22.475 45.374C22.0827 45.2537 21.6047 45.34 21.1267 45.3321ZM21.7918 43.3161C21.6047 43.7083 21.2722 44.0064 21.454 44.4562C21.7138 44.6 21.9372 44.634 22.1451 44.3987C22.166 44.2767 22.166 44.152 22.1451 44.03C22.049 43.7972 21.9217 43.5802 21.7918 43.3161Z" fill="#F1F8F8"/>
<path d="M17.6765 43.4023C17.2453 43.5801 16.8972 43.5644 16.5958 43.2192C16.2944 42.8741 15.9073 42.9316 15.5566 43.0415C15.1149 43.3029 15.0708 43.7579 14.9071 44.0874C14.9435 44.4577 15.0811 44.8106 15.3046 45.1071C16.2425 45.9648 16.7776 44.4508 17.5934 44.877C17.027 46.242 16.1723 46.4668 14.6421 45.6615C14.0965 45.0679 14.0576 44.3541 14.1615 43.5513C14.2967 43.2089 14.5171 42.9072 14.8014 42.6751C15.0857 42.443 15.4244 42.2882 15.7852 42.2257C16.3178 42.1681 16.6685 42.4871 17.1102 42.5525L17.6765 43.4023Z" fill="#EDF6F7"/>
<path d="M27.0032 39.7621C26.8306 39.8409 26.6433 39.8816 26.4538 39.8816C26.2642 39.8816 26.0769 39.8409 25.9043 39.7621V35.2882C26.2394 35.0555 26.5798 35.1679 27.0032 35.1993V39.7621Z" fill="#E8F4F5"/>
<path d="M36.9327 45.5428C36.821 46.0108 36.5586 46.1416 36.1299 46.0448C35.852 45.6526 35.9559 45.3624 36.3897 45.1532C36.6937 45.1375 36.8158 45.3467 36.9327 45.5428Z" fill="#E8F4F5"/>
<path d="M100.565 45.7028C100.452 45.7819 100.322 45.8311 100.186 45.8457C100.049 45.8604 99.9117 45.84 99.7854 45.7865C99.4138 45.3629 99.8269 44.7772 99.5022 44.3405C99.0631 44.8059 99.2424 45.7525 98.2967 45.8649C97.7018 45.4439 97.8914 44.5575 97.2783 44.0895V45.5668C96.9899 45.959 96.686 45.7891 96.3404 45.8283C96.2074 44.7993 96.2012 43.7577 96.3222 42.7272C96.8081 42.3637 97.1978 42.5572 97.5511 42.4866C97.9746 43.0383 98.146 43.6554 98.4214 44.2594C98.993 43.8358 98.8137 43.0043 99.5256 42.5049C99.7282 42.3951 100.102 42.5285 100.565 42.5049V45.7028Z" fill="#F3F9FA"/>
<path d="M93.6467 43.4216C93.2518 43.1131 92.8881 43.3353 92.6646 43.0634C92.623 42.9769 92.6074 42.8801 92.6199 42.7848C92.6324 42.6895 92.6723 42.6 92.7348 42.5273H95.5692C95.6246 42.6075 95.6567 42.7016 95.6618 42.7991C95.6668 42.8966 95.6446 42.9936 95.5977 43.0791C95.3743 43.3405 95.0054 43.0974 94.6988 43.3719V45.5657C94.3559 45.9396 94.0416 45.869 93.6467 45.7174V43.4216Z" fill="#EDF6F7"/>
<path d="M14.7773 26.1289C14.9696 27.771 14.5695 28.5241 13.3952 28.9529C12.5015 29.2797 11.9845 29.0601 11.2285 27.9802C11.7637 26.1995 13.5277 26.7852 14.7773 26.1289Z" fill="#28ADAA"/>
<path d="M44.828 15.306C44.3967 15.6694 43.994 15.5282 43.6381 15.5073C43.4095 15.2824 43.4666 15.089 43.6017 14.8275C44.0771 14.7072 44.5084 14.7333 44.828 15.306Z" fill="#51B4B0"/>
<path d="M44.5239 13.5376L44.4875 13.9612C44.2537 14.2671 43.9679 14.1756 43.6796 14.1443C43.5908 14.0818 43.5255 13.9911 43.4944 13.8866C43.4633 13.7822 43.4681 13.6703 43.5081 13.569C43.7991 13.352 44.1082 13.3833 44.5239 13.5376Z" fill="#51B4B0"/>
<path d="M32.8773 7.31497C33.0533 7.5974 33.1304 7.9309 33.0965 8.26251C33.0627 8.59412 32.9197 8.90484 32.6903 9.14531C32.5562 9.22565 32.4021 9.26584 32.2461 9.26121C32.0902 9.25658 31.9387 9.20732 31.8096 9.11917V7.27312C31.9746 7.18213 32.1611 7.13795 32.3492 7.14532C32.5373 7.15269 32.7198 7.21134 32.8773 7.31497Z" fill="#28ADAA"/>
<path d="M17.7674 7.33915C17.5466 8.01376 17.0737 7.95624 16.6217 7.89348C16.5298 7.80558 16.4729 7.68686 16.4619 7.55971C16.4509 7.43256 16.4865 7.30576 16.5619 7.20318C16.7602 7.13399 16.9714 7.11029 17.18 7.13382C17.3885 7.15734 17.5892 7.2275 17.7674 7.33915V7.33915Z" fill="#28ADAA"/>
<path d="M27.7021 13.5308C28.0528 14.174 27.884 14.7284 27.9047 15.1912C27.7151 15.5729 27.367 15.5546 27.2111 15.7481C26.879 15.6827 26.5854 15.4894 26.3927 15.2095C26.2317 14.707 26.252 14.1635 26.4499 13.6746C26.8604 13.285 27.2552 13.387 27.7021 13.5308Z" fill="#28ADAA"/>
<path d="M9.0906 14.1348C8.75633 14.2569 8.39183 14.267 8.05141 14.1636C7.83838 13.9884 7.87475 13.7897 7.95529 13.5648C8.29042 13.3216 8.65934 13.4131 8.99447 13.4811C9.24128 13.6511 9.22829 13.8446 9.0906 14.1348Z" fill="#51B4B0"/>
<path d="M17.6323 37.2216C17.4843 36.8452 17.4598 36.4311 17.5622 36.0397C18.1233 35.8017 18.7001 35.9691 19.1391 35.9456C19.6743 36.3221 19.6795 36.6568 19.4119 37.0647C18.8638 37.3837 18.2636 37.1902 17.6323 37.2216Z" fill="#28ADAA"/>
<path d="M42.3418 37.5927C42.1833 38.0241 42.1807 38.6386 41.4818 39.0204C41.1701 39.1485 40.7024 39.0413 40.1673 39.057C40.0709 38.0725 40.0518 37.0819 40.1101 36.0944C40.5621 35.8329 40.996 35.9768 41.3623 35.9454C42.0949 36.1807 42.2274 36.7821 42.3418 37.5927Z" fill="#28ADAA"/>
<path d="M21.8645 14.449C21.5891 14.1013 21.6722 13.8477 21.6956 13.5757C22.0775 13.3142 22.475 13.377 22.9011 13.5757C22.9764 14.3968 22.3841 14.3549 21.8645 14.449Z" fill="#51B4B0"/>
<path d="M12.5719 8.79329C12.2341 8.97371 12.0523 8.98156 11.8522 8.79329C11.6807 8.30695 12.1977 7.98008 12.0419 7.43359C12.6732 7.83627 12.5407 8.32264 12.5719 8.79329Z" fill="#51B4B0"/>
<path d="M26.302 43.0462C26.6319 43.5692 27.0813 44.0398 26.6241 44.6857C26.1721 44.6412 25.7746 44.6386 25.9382 45.274C24.9978 45.2897 24.9978 45.2897 24.5405 44.2281C24.5796 43.8057 24.7633 43.4102 25.0601 43.109C25.429 42.8972 25.8057 42.9573 26.302 43.0462Z" fill="#28ADAA"/>
<path d="M39.8995 43.1204C40.071 43.4656 40.2191 43.7689 40.3386 44.0068C40.2905 44.4393 40.1321 44.8518 39.8788 45.2044C39.4921 45.3885 39.0509 45.4202 38.6421 45.2933C38.3469 45.0159 38.1383 44.6579 38.042 44.2631C38.042 43.7767 38.3018 43.4447 38.5174 43.1152C38.7344 43.0152 38.9704 42.964 39.2091 42.9649C39.4477 42.9658 39.6833 43.0188 39.8995 43.1204V43.1204Z" fill="#28ADAA"/>
<path d="M44.2073 43.303C44.0982 43.5331 44.0125 43.7187 43.9242 43.907C43.4747 44.1292 43.0279 43.9828 42.6252 43.9985C42.5159 43.8603 42.4523 43.6912 42.4435 43.5149C42.4346 43.3385 42.4809 43.1638 42.5758 43.0153C43.0668 42.9892 43.5916 42.8061 44.2073 43.303Z" fill="#51B4B0"/>
<path d="M8.24348 43.5234C8.39501 43.6027 8.51736 43.7288 8.59262 43.8831C8.66788 44.0374 8.6921 44.2119 8.66175 44.3811C8.47209 44.6426 8.23568 44.5432 7.96289 44.5275C8.06681 44.1562 8.14995 43.8503 8.24348 43.5234Z" fill="#16ACA9"/>
<path d="M33.537 43.4648C33.9631 43.7577 33.8124 44.1682 34.0125 44.4297C33.7293 44.6624 33.4565 44.5395 33.1733 44.5055C33.1213 44.0715 33.3396 43.81 33.537 43.4648Z" fill="#51B4B0"/>
<path d="M21.7919 43.3164C21.9218 43.5779 22.0517 43.7975 22.1374 44.0302C22.1583 44.1522 22.1583 44.2769 22.1374 44.3989C21.9296 44.6342 21.7035 44.6002 21.4463 44.4564C21.2723 44.0067 21.6048 43.7086 21.7919 43.3164Z" fill="#51B4B0"/>
<path d="M85.9304 38.6544C85.4705 37.7732 85.2497 36.9888 85.325 36.1678C85.5103 33.8499 85.8689 31.5493 86.398 29.2857C87.0007 26.8226 87.697 24.3752 89.0843 22.0898C89.5519 23.3972 90.5626 23.9202 91.8667 24.132C92.5417 23.9899 93.1881 23.7344 93.7788 23.3763C94.1893 24.2026 94.2984 25.1752 95.1142 25.7897C95.93 26.4042 96.8341 26.1976 97.894 26.3127C95.4649 32.005 91.529 36.024 85.9304 38.6544Z" fill="#16ACA9"/>
<path d="M94.5638 21.9366C92.2854 23.4087 90.9786 22.8832 89.7056 20.9692C91.9009 17.0941 95.273 14.6649 99.3389 13.1641C99.5158 13.2182 99.6679 13.334 99.7678 13.4907C99.8678 13.6473 99.9091 13.8346 99.8844 14.0191C99.8844 16.1423 99.8688 18.2472 99.4454 20.3547C99.1466 21.832 98.8063 23.2858 98.4503 24.6952C96.3304 25.5607 94.7976 24.4416 94.5638 21.9366ZM95.2808 19.1101C95.6809 18.5871 95.9693 18.0641 95.3847 17.4471C95.1787 17.3398 94.9479 17.29 94.7162 17.3029C94.4846 17.3157 94.2606 17.3908 94.0676 17.5203C93.8078 18.0432 93.7142 18.5662 94.2053 19.063C94.5458 19.2127 94.9299 19.2277 95.2808 19.1048V19.1101Z" fill="#16ACA9"/>
</g>
<defs>
<clipPath id="clip0_1578_12272">
<rect width="107" height="52" fill="white"/>
</clipPath>
</defs>
</svg>
