<svg width="127" height="51" viewBox="0 0 127 51" fill="none" xmlns="http://www.w3.org/2000/svg">
<g clip-path="url(#clip0_1578_12320)">
<rect x="3" y="3" width="121" height="45" rx="3" fill="white"/>
<path d="M74.9602 47.9952H73.9116C51.3488 47.9952 28.7864 47.9952 6.22414 47.9952C4.86385 47.9952 3.87239 47.4388 3.27018 46.2283C3.08042 45.8241 2.98797 45.3818 3.00008 44.9362C3.00008 31.9763 3.00008 19.0156 3.00008 6.05411C3.00008 4.23392 4.31712 3.00404 6.22578 3.00404H73.5085C80.1862 3.00404 86.8639 3.00269 93.5416 3H94.0443C93.7505 3.15343 93.5179 3.16151 93.296 3.20108C86.7809 4.4568 80.6951 6.79704 75.0703 10.2888C71.3167 12.621 67.9335 15.3965 65.1019 18.793C62.6694 21.7114 60.7534 24.9125 59.8525 28.628C58.879 32.6415 59.318 36.4611 61.6037 39.9868C63.1941 42.4401 65.4112 44.207 67.9939 45.5491C70.0527 46.6199 72.2371 47.3524 74.5089 47.8288C74.6019 47.8482 74.6942 47.8716 74.7847 47.8983C74.8454 47.9265 74.904 47.9589 74.9602 47.9952ZM13.3683 30.1365H13.4679C13.4679 30.298 13.4679 30.4595 13.4679 30.621C13.5315 32.4888 13.6017 34.3575 13.6539 36.2261C13.6613 36.4781 13.7355 36.5491 13.9803 36.537C14.3606 36.5071 14.7426 36.5071 15.1228 36.537C15.5251 36.5798 15.565 36.4062 15.5308 36.0759C15.4696 35.4299 15.4418 34.7839 15.4051 34.1435C15.2974 32.2498 15.188 30.3561 15.0934 28.4617C15.0803 28.2145 15.0004 28.1386 14.7556 28.1483C14.1305 28.1634 13.5049 28.1634 12.8787 28.1483C12.6462 28.1427 12.5409 28.2226 12.4707 28.439C12.0464 29.7876 11.569 31.1193 11.2279 32.4921C11.1186 32.9338 10.9962 33.3715 10.8615 33.8794C10.8249 33.8216 10.7937 33.7605 10.7685 33.6969C10.4421 31.9203 9.87662 30.2051 9.3813 28.4713C9.30541 28.2065 9.17729 28.1427 8.9227 28.1483C8.32456 28.1645 7.72561 28.1709 7.12747 28.1483C6.81494 28.1354 6.70641 28.2291 6.6909 28.5424C6.63378 29.6972 6.54728 30.8512 6.47303 32.0059C6.38245 33.4022 6.29922 34.7992 6.1964 36.1938C6.17681 36.4652 6.25352 36.5499 6.5228 36.5354C6.90225 36.5144 7.28414 36.5193 7.66522 36.5354C7.88963 36.5435 7.96878 36.4748 7.97776 36.2415C8.05201 34.3195 8.14096 32.3984 8.22256 30.4765C8.22256 30.3812 8.24051 30.2867 8.26091 30.0888C8.30341 30.1668 8.33996 30.2478 8.37026 30.3311C8.6885 32.0269 9.19198 33.6759 9.65303 35.3378C9.95903 36.4377 9.95659 36.4288 11.1112 36.4256C11.3846 36.4256 11.4866 36.3206 11.5584 36.08C11.7885 35.3063 12.0415 34.5384 12.2847 33.7688C12.6764 32.5607 13.0729 31.3631 13.3683 30.1365ZM19.4999 28.0369C19.1241 28.0203 18.7481 28.06 18.3844 28.1548C17.4378 28.4035 16.6903 28.8985 16.3974 29.8756C16.0457 31.049 16.5842 32.098 17.836 32.6948C18.3493 32.937 18.8968 33.1211 19.406 33.3658C19.9152 33.6105 20.1037 33.9473 20.027 34.3429C19.9503 34.7386 19.619 34.9938 19.1025 35.0697C18.6129 35.1424 18.1298 35.0649 17.6459 34.9769C17.273 34.9082 16.8397 34.4996 16.5908 34.7176C16.3419 34.9357 16.3704 35.4654 16.2538 35.8482C16.1852 36.0735 16.2309 36.1987 16.4594 36.2802C17.752 36.7438 19.0592 36.8584 20.3632 36.361C21.3302 35.9919 21.9136 35.2829 21.9952 34.2388C22.0768 33.1946 21.5856 32.4557 20.6855 31.9672C20.3656 31.7936 20.0221 31.6603 19.6851 31.5182C19.3481 31.3761 19.0005 31.259 18.6879 31.0635C18.404 30.8867 18.2057 30.6638 18.2522 30.3085C18.3003 29.9362 18.5647 29.7602 18.8952 29.6625C19.3375 29.5284 19.7798 29.614 20.2269 29.6455C20.5901 29.6713 20.9793 30.0961 21.2437 29.8264C21.4885 29.5801 21.4762 29.0996 21.5954 28.7289C21.6623 28.5198 21.6182 28.4213 21.3987 28.3421C20.7911 28.126 20.1487 28.0214 19.5031 28.0337L19.4999 28.0369ZM27.0994 28.0369C26.0851 28.0369 25.2544 28.2234 24.5469 28.6191C22.839 29.5744 22.0319 31.6005 22.546 33.6493C22.9336 35.1941 23.9259 36.1429 25.478 36.5201C26.4751 36.7623 27.4748 36.7187 28.4678 36.4902C29.039 36.3578 29.039 36.3505 28.924 35.7691C28.8816 35.5575 28.8228 35.3483 28.7991 35.1351C28.7722 34.8929 28.7012 34.8218 28.4368 34.9042C27.9155 35.0637 27.3681 35.1224 26.8244 35.077C25.5645 34.9817 24.7166 34.2598 24.4914 33.0331C24.347 32.2498 24.3804 31.4617 24.8178 30.7664C25.4812 29.7166 26.5053 29.5163 27.6649 29.6261C28.0329 29.6608 28.4736 30.0049 28.7167 29.7715C28.9599 29.5381 28.9281 29.0447 29.0537 28.674C29.1394 28.4229 29.0439 28.3413 28.8244 28.2703C28.2662 28.1046 27.6854 28.0251 27.1027 28.0345L27.0994 28.0369ZM34.6663 17.4267C34.5716 17.3459 34.5316 17.3233 34.5178 17.2926C34.0233 16.1798 33.2888 15.1987 32.7307 14.1246C32.4312 13.5472 32.0461 13.3801 31.4447 13.4431C31.2064 13.4681 31.1542 13.5408 31.155 13.7572C31.1623 15.3723 31.168 16.9874 31.1509 18.6024C31.1509 18.9408 31.3255 18.9472 31.5589 18.9158C31.7735 18.8867 32.1048 19.0773 32.095 18.6081C32.0762 17.6794 32.0885 16.7507 32.0885 15.8229V14.7424C32.7201 16.0587 33.4814 17.1892 34.1408 18.3682C34.3741 18.7865 34.6255 18.9707 35.12 18.9335C35.4611 18.9077 35.5435 18.8221 35.5402 18.495C35.5231 16.9478 35.5157 15.3997 35.5402 13.8525C35.5476 13.4334 35.3403 13.4536 35.0457 13.4447C34.7511 13.4358 34.579 13.4649 34.5912 13.842C34.6328 15.0089 34.5643 16.1814 34.6663 17.4267ZM35.4962 23.1917C35.4962 23.9992 35.4962 24.8067 35.4962 25.6143C35.4962 25.7887 35.4962 25.93 35.7369 25.9373C36.5782 25.9761 37.4162 26.035 38.2461 25.8113C39.351 25.5133 39.972 24.7946 40.1703 23.6996C40.4779 22.0038 39.6807 20.7804 38.0723 20.4961C37.302 20.3604 36.5284 20.425 35.7557 20.4921C35.506 20.5131 35.4937 20.6576 35.4953 20.8514C35.5035 21.6307 35.5002 22.4116 35.4994 23.1917H35.4962ZM44.6739 15.9779C44.9766 15.7979 45.2353 15.6291 45.3854 15.3424C45.7118 14.7117 45.4531 13.9696 44.7489 13.6651C43.8766 13.288 42.9627 13.4277 42.0561 13.5214C41.8888 13.5392 41.8929 13.6684 41.8929 13.7944C41.8929 15.4213 41.8929 17.0485 41.8929 18.6759C41.8929 18.8318 41.9321 18.9238 42.1148 18.94C42.8754 19.007 43.6351 19.0409 44.385 18.8592C45.1814 18.6678 45.627 18.2067 45.7053 17.5147C45.7787 16.8363 45.5021 16.4043 44.6739 15.9779ZM37.9907 11.9645C38.2886 11.9645 38.5888 11.9863 38.8883 11.9645C40.4306 11.8345 41.3421 11.0253 41.5608 9.6105C41.8301 7.86622 40.9349 6.70337 39.1731 6.48049C38.5203 6.39973 37.8732 6.46514 37.2228 6.49987C36.9421 6.51521 36.8646 6.62584 36.8679 6.89718C36.8809 8.228 36.8736 9.56205 36.8736 10.8888C36.8695 11.9814 36.8695 11.9814 37.9907 11.9629V11.9645ZM32.0967 20.3742C31.106 20.3742 30.321 20.7682 29.8477 21.6404C29.3206 22.6094 29.3026 23.6302 29.7571 24.6347C29.8999 24.9722 30.1259 25.2688 30.4144 25.4975C30.7029 25.7262 31.0448 25.8796 31.4087 25.9437C33.2227 26.3007 34.6043 25.1306 34.6402 23.2159C34.672 21.5338 33.6405 20.383 32.0967 20.3742ZM28.8661 23.3621C28.871 21.881 28.2761 20.9079 27.2675 20.5357C25.5122 19.8816 23.8517 21.0121 23.695 22.968C23.5155 25.2008 25.4192 26.6568 27.3801 25.7677C28.4988 25.2646 28.8342 24.2826 28.8661 23.3661V23.3621ZM17.938 9.36016C17.9593 9.33107 17.9834 9.30404 18.0098 9.27941C18.7442 8.80458 18.989 8.29341 18.8258 7.56097C18.6896 6.96582 18.2008 6.60081 17.4084 6.47726C16.7825 6.38035 16.1624 6.45303 15.5389 6.48614C15.2411 6.50229 15.1546 6.60889 15.1579 6.90364C15.1734 8.3572 15.1652 9.81077 15.1652 11.2643C15.1652 11.9524 15.1652 11.9402 15.8531 11.9435C16.1028 11.9435 16.1795 11.8805 16.1705 11.6261C16.1493 11.0891 16.1632 10.5505 16.1656 10.011C16.1656 9.8673 16.1403 9.72356 16.368 9.68802C17.0306 9.59274 17.4517 9.84954 17.6198 10.4891C17.7193 10.8662 17.8099 11.2458 17.9135 11.6197C17.9445 11.7319 17.9609 11.8878 18.102 11.9071C18.3958 11.9475 18.7304 12.0194 18.9768 11.8797C19.1245 11.7989 18.9074 11.5244 18.8772 11.3322C18.8495 11.161 18.7916 10.9938 18.7491 10.8242C18.6063 10.2711 18.4986 9.69448 17.938 9.36016ZM14.6658 15.3682H14.6756C14.6756 14.8167 14.6699 14.2651 14.6756 13.7136C14.6756 13.5279 14.6225 13.4358 14.4226 13.4512C14.3008 13.4641 14.178 13.4641 14.0562 13.4512C13.751 13.4084 13.6621 13.523 13.6686 13.8283C13.6898 14.7424 13.6768 15.6573 13.6768 16.5739C13.6921 16.9107 13.6365 17.247 13.5136 17.5615C13.3128 18.0202 12.962 18.2302 12.4471 18.2075C12.0048 18.189 11.6669 17.9362 11.5054 17.4977C11.4109 17.2163 11.368 16.9204 11.3789 16.624C11.3789 15.7906 11.3871 14.9564 11.3789 14.1206C11.3699 13.3696 11.5421 13.4746 10.6804 13.4479C10.4201 13.4415 10.3621 13.5367 10.3646 13.775C10.376 14.7699 10.3646 15.7655 10.3728 16.7629C10.3703 17.1814 10.4571 17.5958 10.6273 17.979C10.7969 18.3663 11.1108 18.674 11.5037 18.8382C13.0631 19.5053 14.5622 18.6145 14.665 16.9429C14.6952 16.4188 14.6682 15.8923 14.6682 15.3682H14.6658ZM25.682 41.1069C25.6469 41.0617 25.6167 41.0407 25.6183 41.0261C25.6657 40.5416 25.305 40.6805 25.0471 40.6619C24.6791 40.6353 24.8023 40.9042 24.8023 41.0778C24.7958 41.9661 24.8023 42.8544 24.8023 43.7427C24.8023 44.3483 24.8023 44.3354 25.4225 44.3338C25.6787 44.3338 25.7489 44.2466 25.7407 44.0051C25.7269 43.414 25.7407 42.8221 25.7358 42.2285C25.726 42.0391 25.7725 41.851 25.8697 41.6875C26.0182 41.4557 26.2214 41.3168 26.5135 41.3451C26.8187 41.375 26.9615 41.5785 27.0308 41.8417C27.0614 41.9722 27.0756 42.1059 27.0733 42.2399C27.0774 42.8318 27.0733 43.4237 27.0782 44.0164C27.0782 44.1246 27.0235 44.2587 27.1932 44.3201C27.6624 44.4945 27.9897 44.2862 27.9888 43.8016C27.9888 43.7071 27.9888 43.6135 27.9888 43.519C27.9888 43.0215 27.9742 42.5225 28.006 42.0267C28.0321 41.6229 28.3324 41.3483 28.6784 41.3419C29.0244 41.3354 29.2422 41.551 29.3124 41.9944C29.3336 42.1407 29.3443 42.2883 29.3442 42.4361C29.3442 42.9739 29.3557 43.5125 29.3393 44.0512C29.3328 44.2644 29.3956 44.3508 29.6111 44.3306C29.7196 44.3192 29.829 44.3192 29.9375 44.3306C30.1823 44.3572 30.2729 44.2757 30.2639 44.0189C30.2451 43.3333 30.268 42.646 30.2484 41.9613C30.2321 41.4073 30.0501 40.9115 29.4928 40.6789C28.9354 40.4463 28.4205 40.6022 28.0076 41.0253C27.8387 41.1989 27.7816 41.1456 27.6494 40.9882C27.2903 40.5578 26.7281 40.4608 26.2075 40.6975C26.0002 40.7879 25.8533 40.9615 25.6812 41.1069H25.682ZM16.683 20.4622C15.9486 20.4622 15.9486 20.4622 15.7421 21.101L15.2966 22.4851C14.9577 23.5354 14.6196 24.5852 14.2823 25.6345C14.248 25.7419 14.1191 25.8816 14.3851 25.9203C15.0779 26.0213 15.2199 25.9446 15.4255 25.288C15.441 25.2363 15.4581 25.1855 15.4745 25.1338C15.7119 24.3634 15.7119 24.3634 16.5296 24.3626C17.4411 24.3626 17.4411 24.3626 17.7226 25.2267C17.9519 25.93 17.9519 25.9179 18.6838 25.9211C18.9735 25.9211 19.029 25.8614 18.9335 25.5787C18.426 24.0735 17.9241 22.5658 17.4525 21.0493C17.3138 20.6067 17.144 20.312 16.683 20.4622ZM25.7938 13.4536C25.0324 13.4705 25.194 13.3195 24.9492 14.0697C24.724 14.7599 24.4985 15.4503 24.2727 16.1411C24.0034 16.9728 23.7431 17.8078 23.4657 18.6363C23.3971 18.8415 23.4053 18.9158 23.655 18.9238C24.4212 18.9472 24.4204 18.9577 24.6342 18.2221L24.6562 18.1413C24.8864 17.3685 24.8864 17.3685 25.7081 17.3685C26.6392 17.3685 26.6392 17.3685 26.9223 18.2568C27.1353 18.923 27.1361 18.9028 27.8575 18.9222C28.1839 18.9287 28.2051 18.8366 28.1121 18.5604C27.6061 17.056 27.1198 15.5451 26.6196 14.0382C26.3829 13.3276 26.5551 13.4746 25.7938 13.4536ZM38.7072 13.46C38.4819 13.5497 38.1221 13.2525 37.9858 13.67C37.4391 15.3448 36.8981 17.0213 36.3481 18.6945C36.2812 18.8996 36.3717 18.9117 36.5374 18.9214C37.3077 18.9674 37.3077 18.9715 37.5329 18.2423L37.5696 18.1268C37.8055 17.3717 37.8055 17.3717 38.5897 17.3717C39.5297 17.3717 39.5297 17.3717 39.8194 18.2398C40.0503 18.9311 40.0503 18.9174 40.7831 18.9246C41.081 18.9246 41.1169 18.8552 41.0279 18.5839C40.5163 17.0673 40.0054 15.5499 39.5338 14.0213C39.3943 13.5779 39.2213 13.3219 38.7072 13.46ZM10.3776 23.1957C10.3776 24.0032 10.3866 24.8108 10.3728 25.6183C10.3687 25.8654 10.4454 25.9413 10.6992 25.9413C11.6082 25.9276 12.5189 25.9219 13.4279 25.9413C13.7951 25.9494 13.7282 25.7257 13.7282 25.5182C13.7282 25.3106 13.7959 25.0805 13.4295 25.095C12.8461 25.1185 12.2618 25.095 11.6776 25.1055C11.4703 25.1055 11.3838 25.0433 11.3911 24.8293C11.4034 24.4805 11.4066 24.13 11.3911 23.7796C11.3789 23.5324 11.4956 23.4888 11.7094 23.4937C12.1851 23.5042 12.6609 23.4832 13.135 23.5026C13.401 23.5131 13.4679 23.4363 13.4793 23.1666C13.4956 22.7911 13.4051 22.6183 12.9987 22.6821C12.8227 22.6954 12.6459 22.6954 12.4699 22.6821C11.3536 22.6821 11.3626 22.6821 11.3895 21.5766C11.3952 21.3222 11.4833 21.2536 11.7241 21.2641C12.2528 21.2786 12.7849 21.2528 13.3128 21.2738C13.689 21.2891 13.5903 21.0396 13.6001 20.8425C13.6099 20.6455 13.6393 20.4485 13.3088 20.4557C12.4397 20.4743 11.5707 20.4695 10.7016 20.4557C10.4519 20.4517 10.3752 20.5276 10.3752 20.7787C10.3866 21.5831 10.3776 22.3898 10.3776 23.1957ZM10.944 9.20754C10.944 9.98762 10.9562 10.7685 10.9382 11.5494C10.9317 11.8369 10.9921 11.9532 11.3152 11.9467C12.1851 11.9249 13.0558 11.9209 13.9265 11.9467C14.2839 11.9572 14.2872 11.7852 14.2757 11.53C14.266 11.3007 14.3223 11.0762 13.942 11.0972C13.3863 11.1279 12.8281 11.0972 12.2708 11.1093C12.0497 11.1141 11.9444 11.0584 11.9599 10.8186C11.977 10.4834 11.9762 10.1459 11.9599 9.80996C11.9493 9.58062 12.0309 9.5031 12.2626 9.51037C12.7522 9.52409 13.2419 9.49583 13.7315 9.52086C14.1027 9.53944 14.0244 9.30121 14.0269 9.09691C14.0293 8.8926 14.0881 8.66084 13.7209 8.68184C13.2312 8.71091 12.7416 8.68184 12.252 8.69233C12.0521 8.69233 11.9485 8.64711 11.9607 8.42423C11.9762 8.14207 11.9762 7.85928 11.9607 7.57712C11.9468 7.33486 12.0546 7.28318 12.2741 7.28883C12.7906 7.30095 13.3088 7.27188 13.8245 7.29933C14.1509 7.31629 14.1811 7.16205 14.1623 6.91333C14.146 6.6961 14.2341 6.45626 13.8408 6.46757C12.9856 6.4926 12.1272 6.48695 11.272 6.46757C10.9791 6.46111 10.9399 6.58385 10.9456 6.82692C10.9513 7.62073 10.9448 8.41373 10.944 9.20754V9.20754ZM32.6548 9.18251C32.6548 9.97631 32.6695 10.7701 32.6475 11.5631C32.6393 11.8732 32.7421 11.9507 33.0424 11.9443C33.9123 11.9257 34.7821 11.9209 35.6537 11.9443C35.9907 11.954 35.998 11.7828 35.9801 11.5494C35.9637 11.3402 36.0723 11.0649 35.67 11.0996C35.4122 11.119 35.1533 11.119 34.8956 11.0996C34.4941 11.0762 33.9474 11.2813 33.7319 11.0108C33.5312 10.758 33.6846 10.2388 33.6552 9.83903C33.634 9.55801 33.7572 9.49987 34.0094 9.50714C34.4851 9.52248 34.9609 9.51521 35.4366 9.50714C35.5484 9.50714 35.6814 9.55075 35.7344 9.37793C35.8781 8.92329 35.7091 8.68506 35.2293 8.68426H34.6989C33.6381 8.68426 33.6479 8.68426 33.6536 7.62961C33.6536 7.37443 33.7124 7.27026 33.9922 7.28156C34.508 7.30337 35.0261 7.26864 35.5427 7.29529C35.8805 7.31225 35.8781 7.13378 35.8691 6.89637C35.8601 6.65895 35.9131 6.45061 35.5353 6.46191C34.6932 6.48856 33.8494 6.48291 33.0057 6.46191C32.7038 6.45464 32.6458 6.5677 32.6507 6.8358C32.6662 7.62234 32.6564 8.40242 32.6548 9.18251ZM48.8935 43.8428C49.0069 44.7368 48.5728 45.2156 47.7363 45.1736C47.4919 45.1602 47.2515 45.1055 47.0256 45.0121C46.9016 44.9613 46.7473 44.8635 46.7278 45.0929C46.7114 45.2883 46.4152 45.5007 46.7465 45.6888C48.1191 46.4705 49.7813 45.6024 49.8343 44.0576C49.871 42.9973 49.858 41.9354 49.8694 40.8743C49.8694 40.7936 49.8768 40.7176 49.7878 40.6716C49.5047 40.5303 49.0779 40.7128 48.984 41.0463C48.5564 40.5949 48.0432 40.4617 47.4646 40.6539C46.7237 40.8961 46.3655 41.4614 46.2765 42.1954C46.1843 42.961 46.3581 43.6425 47.0582 44.0996C47.2311 44.2055 47.4268 44.2695 47.6295 44.2862C47.8609 44.3207 48.0973 44.2983 48.3179 44.221C48.5385 44.1436 48.7364 44.0138 48.8943 43.8428H48.8935ZM50.6601 16.1742C50.6601 16.9542 50.6732 17.7351 50.6536 18.516C50.6463 18.8213 50.7132 18.9384 51.051 18.9279C51.907 18.9028 52.7646 18.9053 53.6206 18.9279C53.9323 18.9351 54.0066 18.8398 54.0082 18.5419C54.0082 18.2188 53.9454 18.0654 53.5863 18.1098C53.3562 18.1304 53.1248 18.1321 52.8944 18.1147C52.5027 18.1001 51.9968 18.2762 51.752 18.0493C51.4867 17.7981 51.7071 17.2829 51.6573 16.8872C51.6149 16.5472 51.7699 16.4794 52.0759 16.494C52.537 16.5158 52.9996 16.5012 53.4631 16.4988C53.579 16.4988 53.703 16.5303 53.7504 16.3567C53.8768 15.8948 53.7324 15.6929 53.2542 15.6929H52.7238C51.6279 15.6929 51.6353 15.6929 51.6565 14.614C51.6606 14.3717 51.7193 14.2797 51.9772 14.291C52.5068 14.3088 53.038 14.2781 53.5676 14.3023C53.9438 14.3193 53.8573 14.0754 53.8597 13.8759C53.8622 13.6764 53.9364 13.4431 53.5651 13.452C52.6961 13.473 51.8254 13.4657 50.9539 13.452C50.7156 13.452 50.6544 13.5327 50.6577 13.7556C50.6642 14.5599 50.6601 15.3666 50.6601 16.1742ZM13.0827 43.2848C12.9946 43.2598 12.9807 43.1952 12.966 43.1281C12.8311 42.5112 12.6951 41.894 12.558 41.2765C12.4169 40.6304 12.4177 40.6425 11.7502 40.653C11.4744 40.6579 11.4736 40.7532 11.5397 40.968C11.8563 41.9968 12.1696 43.0264 12.4634 44.0617C12.5327 44.3039 12.6715 44.3532 12.8787 44.3217C13.1064 44.2878 13.4075 44.4622 13.5136 44.0754C13.6939 43.4148 13.8971 42.7599 14.0913 42.1026C14.115 42.0218 14.0913 41.9055 14.2358 41.895C14.381 42.6355 14.6356 43.3486 14.8266 44.0754C14.8935 44.329 15.0542 44.3524 15.2525 44.3233C15.4679 44.2926 15.7486 44.4582 15.8596 44.0964C16.186 43.0296 16.5337 41.9685 16.869 40.9034C16.8902 40.8355 16.9563 40.7588 16.869 40.6853C16.665 40.5141 16.0016 40.716 15.938 40.9744C15.7495 41.7424 15.565 42.5088 15.379 43.2832C15.2582 43.2347 15.2721 43.129 15.2484 43.0409C15.0624 42.3537 14.8576 41.6681 14.6968 40.9769C14.6258 40.6684 14.452 40.6539 14.1982 40.6539C13.9444 40.6539 13.809 40.6878 13.738 40.9688C13.5438 41.7456 13.3047 42.5136 13.0827 43.2848ZM20.0033 41.8458C20.2253 42.6137 20.4391 43.3333 20.6382 44.056C20.6945 44.2595 20.7965 44.3693 21.0087 44.3209C21.2331 44.27 21.5464 44.4872 21.6656 44.1117C22.0066 43.035 22.3486 41.9583 22.6913 40.8816C22.7182 40.796 22.777 40.7136 22.6276 40.6619C22.187 40.5093 21.8116 40.7015 21.7039 41.1529C21.5317 41.8627 21.3612 42.5734 21.1678 43.3793C20.9279 42.5201 20.6969 41.7642 20.515 40.9946C20.4375 40.6716 20.2539 40.6611 19.9886 40.653C19.7234 40.645 19.6125 40.7338 19.5456 40.993C19.3456 41.765 19.1114 42.5273 18.8593 43.4059C18.6594 42.5233 18.4766 41.7553 18.3142 40.9833C18.2644 40.7475 18.1771 40.6207 17.9152 40.6603C17.7934 40.6736 17.6705 40.6736 17.5488 40.6603C17.3097 40.6401 17.2787 40.7306 17.344 40.9446C17.6655 41.9855 17.9715 43.0312 18.2848 44.0746C18.3191 44.1868 18.3395 44.2967 18.5011 44.329C19.0413 44.4355 19.2477 44.3249 19.4109 43.7968C19.6059 43.1596 19.7969 42.5225 20.0033 41.8458ZM7.27354 43.2832L7.20254 43.2792C7.05076 42.6 6.91286 41.9176 6.74231 41.2434C6.57176 40.5691 6.76516 40.6781 5.9875 40.6547C5.71006 40.6458 5.63417 40.6975 5.72638 40.9849C6.04054 41.9718 6.33594 42.9642 6.62399 43.9599C6.6958 44.2127 6.78719 44.3637 7.0883 44.329C7.35922 44.2983 7.6334 44.3952 7.74111 43.9817C7.92308 43.2808 8.17931 42.5992 8.36291 41.7779C8.60772 42.6186 8.82151 43.3349 9.01572 44.0568C9.07284 44.2643 9.17893 44.3669 9.38701 44.3201C9.6106 44.27 9.92231 44.4816 10.0398 44.1069C10.3801 43.0296 10.7253 41.9532 11.0664 40.8767C11.0892 40.8049 11.1406 40.7273 11.0386 40.6668C10.7571 40.4996 10.1867 40.7233 10.11 41.035L9.54776 43.3534C9.48901 43.175 9.46208 43.1063 9.44331 43.0361C9.254 42.3489 9.05489 41.6633 8.88516 40.9728C8.81988 40.7055 8.68279 40.6434 8.42819 40.6498C8.1736 40.6563 8.00142 40.6619 7.92553 40.9664C7.72969 41.7456 7.49304 42.512 7.2768 43.2832H7.27354ZM17.0657 19.0062C17.4199 19.0175 17.7732 18.9627 18.1069 18.8447C18.8617 18.5758 19.264 17.9168 19.1596 17.1343C19.0845 16.5691 18.7328 16.2162 18.2481 15.9755C17.8605 15.7833 17.4508 15.6315 17.0681 15.4312C16.8168 15.2996 16.6422 15.0816 16.7042 14.7707C16.7662 14.4598 17.0078 14.295 17.304 14.2393C17.6809 14.1647 18.0717 14.2015 18.4276 14.3451C18.6292 14.4258 18.7736 14.4485 18.7932 14.1949C18.8103 13.976 19.1669 13.6974 18.6953 13.5489C18.167 13.3641 17.5977 13.3267 17.0494 13.4407C16.2782 13.6102 15.7927 14.0867 15.6964 14.7666C15.6034 15.4191 15.9355 15.9674 16.6699 16.3324C16.9727 16.4835 17.2983 16.5876 17.6034 16.7362C17.9576 16.9058 18.2089 17.1537 18.1298 17.5914C18.0694 17.9217 17.7601 18.1518 17.3064 18.189C16.8698 18.2208 16.4324 18.1372 16.0391 17.9467C15.8825 17.874 15.8074 17.8789 15.7454 18.0638C15.5414 18.6695 15.5822 18.7502 16.2203 18.9044C16.4967 18.9758 16.7816 19.0101 17.0673 19.0062H17.0657ZM7.45061 19.0062C7.75602 19.0081 8.05953 18.9586 8.34822 18.86C9.13976 18.5976 9.54858 17.9717 9.45963 17.1505C9.39599 16.565 9.0247 16.2097 8.52938 15.9626C8.15401 15.7752 7.75662 15.6299 7.38696 15.4393C7.11686 15.3012 6.93734 15.0743 7.00915 14.7481C7.08096 14.4218 7.32739 14.2861 7.62442 14.2337C8.00196 14.167 8.39084 14.207 8.74644 14.3491C8.89251 14.4057 9.05897 14.4945 9.07284 14.2546C9.0859 14.0277 9.47595 13.7386 9.04673 13.5747C8.26744 13.2775 7.47264 13.2517 6.72436 13.6813C5.80308 14.2086 5.7223 15.3981 6.54239 16.0587C6.79035 16.246 7.06545 16.3952 7.3584 16.5012C7.59854 16.5945 7.83263 16.7024 8.05936 16.8242C8.32946 16.9736 8.48123 17.2127 8.4388 17.526C8.39392 17.8555 8.17115 18.0436 7.85699 18.1292C7.36085 18.2657 6.88919 18.1486 6.4208 17.9879C6.29514 17.9451 6.08705 17.7456 6.0642 18.046C6.04544 18.2883 5.64314 18.6008 6.14581 18.7857C6.56338 18.94 7.00659 19.0151 7.45224 19.007L7.45061 19.0062ZM7.95001 20.3661C7.77457 20.3806 7.59586 20.379 7.42287 20.4105C6.40122 20.6003 5.80961 21.3884 6.02422 22.2767C6.15723 22.825 6.56034 23.1327 7.04342 23.358C7.35024 23.501 7.67257 23.6124 7.97531 23.7618C8.27805 23.9112 8.50571 24.1656 8.4388 24.5346C8.36618 24.9384 8.06833 25.1104 7.68317 25.1532C7.24843 25.1961 6.80965 25.1341 6.40448 24.9723C6.29677 24.9319 6.10419 24.7203 6.07808 25.007C6.05604 25.2493 5.65783 25.5723 6.12785 25.7596C6.92673 26.0721 7.74927 26.1206 8.54978 25.7669C9.1471 25.502 9.46127 25.0304 9.47187 24.3658C9.4833 23.6875 9.12262 23.2538 8.5506 22.9631C8.16462 22.7677 7.7558 22.6159 7.36983 22.4197C7.11197 22.2888 6.94713 22.0692 7.00262 21.7607C7.05811 21.4522 7.2768 21.3133 7.55751 21.2374C7.93003 21.1423 8.32396 21.1727 8.67708 21.3238C8.94473 21.4304 9.04836 21.3925 9.12589 21.1106C9.26869 20.5954 9.28909 20.6011 8.76031 20.4646C8.49612 20.3977 8.22432 20.3649 7.95164 20.3669L7.95001 20.3661ZM8.82233 6.38762C7.94511 6.38762 7.16174 6.62988 6.54892 7.28964C5.68476 8.21831 5.59826 9.97066 6.36531 11.0043C7.04587 11.9233 8.80846 12.3384 9.90436 11.8441C10.0374 11.7844 10.0749 11.723 10.0521 11.5696C9.97046 11.0116 9.98107 11.0221 9.42536 11.1206C8.60935 11.2651 7.83822 11.2014 7.28414 10.4891C6.78882 9.85519 6.76516 8.74805 7.20254 8.04226C7.61055 7.38654 8.3621 7.09583 9.26787 7.24684C9.38967 7.25895 9.50947 7.28608 9.62447 7.32759C9.96638 7.48183 9.96638 7.22584 10.0325 7.02315C10.1018 6.79704 10.1957 6.58708 9.83582 6.51037C9.50338 6.43704 9.16447 6.3962 8.82396 6.38843L8.82233 6.38762ZM26.3217 9.21885C26.3217 9.91871 26.3217 10.6186 26.3217 11.3184C26.3217 11.9596 26.3217 11.9475 26.99 11.9451C27.2601 11.9451 27.3393 11.8563 27.3295 11.5938C27.3107 11.0431 27.3344 10.4907 27.3197 9.93998C27.3124 9.69771 27.3834 9.60485 27.6396 9.61696C28.1015 9.63553 28.5649 9.60243 29.0268 9.62908C29.3597 9.64846 29.3728 9.47403 29.3532 9.23419C29.3385 9.01858 29.4299 8.75936 29.0366 8.78197C28.5625 8.80943 28.0859 8.79085 27.6102 8.80377C27.407 8.80942 27.3091 8.75128 27.3189 8.53083C27.3356 8.22176 27.3356 7.91203 27.3189 7.60296C27.3018 7.34536 27.4087 7.27995 27.6502 7.29125C28.1667 7.3066 28.6841 7.27672 29.2006 7.30256C29.5588 7.32113 29.5115 7.10471 29.5091 6.8891C29.5066 6.67349 29.5621 6.46192 29.2023 6.47161C28.3463 6.49341 27.4886 6.48695 26.6326 6.47161C26.3731 6.46676 26.3136 6.56205 26.3176 6.79947C26.3307 7.60458 26.3234 8.41212 26.3234 9.21965L26.3217 9.21885ZM19.8067 23.1812C19.8067 23.8797 19.7985 24.5782 19.8067 25.2767C19.8173 25.9946 19.6435 25.901 20.4872 25.9228C20.7369 25.9292 20.8177 25.846 20.8136 25.5997C20.7973 25.0894 20.8365 24.5774 20.8006 24.0654C20.7712 23.6617 20.923 23.5583 21.3041 23.5874C21.7227 23.6197 22.1454 23.5962 22.5664 23.5946C22.6839 23.5946 22.8014 23.6156 22.8414 23.4388C22.9524 22.9462 22.8374 22.7927 22.3314 22.7927H21.965C20.7484 22.7927 20.7541 22.7927 20.803 21.5677C20.812 21.3448 20.8757 21.2584 21.109 21.2641C21.6378 21.2778 22.1699 21.252 22.697 21.2746C23.0234 21.2883 23.0054 21.1001 22.9908 20.891C22.9777 20.6964 23.0871 20.4485 22.7076 20.4565C21.8386 20.4743 20.9695 20.4687 20.1013 20.4565C19.8638 20.4565 19.801 20.5373 19.8042 20.7626C19.8148 21.5693 19.8083 22.3761 19.8083 23.182L19.8067 23.1812ZM21.136 16.6167C21.136 17.1949 21.1319 17.7731 21.136 18.3513C21.1417 19.0094 21.0438 18.8899 21.7259 18.9246C22.0711 18.9424 22.1552 18.8302 22.1495 18.4991C22.1291 17.2619 22.1633 16.0248 22.1291 14.7844C22.1176 14.3548 22.2572 14.2458 22.6537 14.291C22.9222 14.3217 23.1972 14.2861 23.4698 14.2999C23.828 14.3184 23.7317 14.0576 23.7244 13.8848C23.717 13.712 23.8525 13.4552 23.4853 13.4568C22.2618 13.4649 21.0378 13.4649 19.8132 13.4568C19.4501 13.4568 19.5741 13.712 19.5684 13.8824C19.5627 14.0528 19.4582 14.3152 19.8189 14.2999C20.1584 14.2861 20.4987 14.3096 20.8373 14.2926C21.0748 14.2813 21.1384 14.3734 21.1343 14.597C21.1303 15.273 21.1376 15.9448 21.1376 16.6175L21.136 16.6167ZM20.9116 9.62423C20.9116 10.2557 20.9377 10.8888 20.9018 11.5187C20.8789 11.9096 21.0438 11.9725 21.3734 11.9402C21.6533 11.9128 21.9552 12.0436 21.9381 11.5276C21.8957 10.2355 21.9316 8.94751 21.9185 7.65787C21.9185 7.38008 21.9903 7.27188 22.2816 7.29368C22.5925 7.31629 22.9075 7.27914 23.2176 7.30256C23.5554 7.32679 23.5163 7.10956 23.5024 6.91171C23.4885 6.71386 23.615 6.46514 23.229 6.46918C22.0205 6.48291 20.812 6.47403 19.6035 6.47484C19.5113 6.47484 19.4142 6.45788 19.3587 6.56609C19.1783 6.90848 19.3962 7.29287 19.7724 7.29772C20.0303 7.29772 20.2898 7.31387 20.546 7.29287C20.8251 7.27107 20.9287 7.35909 20.9197 7.64899C20.9001 8.30633 20.914 8.9669 20.9132 9.62504L20.9116 9.62423ZM43.0859 42.5047C43.0981 41.3483 42.3727 40.5796 41.2646 40.5731C40.1099 40.5666 39.329 41.3419 39.3216 42.4999C39.3151 43.6304 40.0699 44.4081 41.1781 44.4146C42.3131 44.421 43.0712 43.6603 43.0859 42.5047ZM46.6094 16.2057C46.6094 16.9995 46.6151 17.7933 46.6054 18.5871C46.6054 18.8132 46.6404 18.9287 46.913 18.9238C47.8106 18.9077 48.7082 18.9044 49.6058 18.9238C49.9812 18.9319 49.8882 18.6937 49.8988 18.495C49.9102 18.273 49.9371 18.0686 49.5846 18.0913C49.0689 18.1187 48.5507 18.08 48.0342 18.105C47.7168 18.1203 47.6123 18.0331 47.618 17.7053C47.6376 16.5077 47.6262 15.3101 47.6262 14.1125C47.6262 13.4423 47.6262 13.4592 46.9595 13.4487C46.656 13.4439 46.5996 13.561 46.6037 13.8267C46.6176 14.6172 46.6086 15.4127 46.6094 16.2057V16.2057ZM32.144 44.4146C32.96 44.4146 33.5116 44.0746 33.6348 43.4956C33.7687 42.8673 33.4553 42.4401 32.6246 42.1139C32.497 42.0685 32.3734 42.0129 32.255 41.9475C32.1113 41.8619 31.9938 41.7408 32.0403 41.5534C32.0869 41.3661 32.2182 41.2918 32.3912 41.2595C32.6206 41.2229 32.8559 41.2538 33.0677 41.3483C33.2227 41.4113 33.3655 41.459 33.3892 41.2296C33.4072 41.0495 33.6544 40.821 33.2946 40.7023C32.8727 40.5634 32.4475 40.5174 32.015 40.6417C31.4944 40.7927 31.1786 41.1464 31.1338 41.6326C31.0872 42.1349 31.3786 42.4353 31.7866 42.6485C32.0126 42.768 32.2615 42.8455 32.4908 42.9602C32.6744 43.0522 32.7805 43.2089 32.7291 43.4237C32.6817 43.6207 32.5202 43.6942 32.3357 43.7209C32.0239 43.7615 31.707 43.7087 31.4259 43.5691C31.2627 43.494 31.2007 43.5214 31.1435 43.7015C31.0007 44.1561 31.0081 44.1925 31.461 44.3185C31.6825 44.384 31.9127 44.4164 32.144 44.4146V44.4146ZM36.3367 40.5707C35.5468 40.5707 34.9494 40.8428 34.5904 41.3096C34.0894 41.9613 34.0543 43.0054 34.5088 43.6587C34.9633 44.312 35.8691 44.5607 36.8165 44.3306C37.1347 44.2498 37.1363 44.1061 37.0931 43.846C37.0441 43.5521 36.9168 43.5771 36.6786 43.6256C35.7891 43.8057 35.1812 43.3607 35.1485 42.5386C35.1143 41.6665 35.7744 41.1497 36.699 41.3637C36.956 41.4234 37.0074 41.3564 37.0784 41.1368C37.1829 40.8137 37.0931 40.6563 36.7585 40.6224C36.5847 40.6022 36.4101 40.5796 36.3367 40.5707V40.5707ZM30.0011 16.1734C30.0011 15.4337 29.9766 14.6931 30.0109 13.9551C30.0297 13.5513 29.9293 13.4261 29.505 13.4374C29.1117 13.4471 28.9697 13.5117 28.9795 13.9429C29.0113 15.3812 28.9917 16.8202 28.9909 18.2592C28.9909 18.9279 28.9909 18.9109 29.6535 18.9254C29.9571 18.9327 30.0126 18.8213 30.0068 18.5532C29.9913 17.7602 30.0011 16.9664 30.0011 16.1734ZM25.1801 9.19462C25.1801 8.38708 25.1728 7.57955 25.1842 6.77201C25.1842 6.54186 25.1116 6.44899 24.8798 6.47484C24.7715 6.48863 24.6618 6.48863 24.5534 6.47484C24.2229 6.42477 24.1454 6.56528 24.1454 6.8786C24.1617 8.34509 24.1454 9.81158 24.1552 11.2781C24.1593 12.0194 24.0051 11.9184 24.8194 11.9443C25.1124 11.954 25.1875 11.8514 25.1818 11.5744C25.1695 10.7806 25.1801 9.98601 25.1801 9.19462ZM30.4997 9.19058V11.249C30.4997 11.9516 30.4997 11.9427 31.2137 11.9346C31.4218 11.9346 31.5026 11.8845 31.501 11.6657C31.4939 10.0248 31.4939 8.38277 31.501 6.7397C31.501 6.51763 31.4112 6.45464 31.2088 6.47241C31.1004 6.48499 30.9909 6.48499 30.8824 6.47241C30.5797 6.428 30.4834 6.54105 30.4916 6.84792C30.5144 7.628 30.4997 8.40808 30.4997 9.18816V9.19058ZM44.6983 41.2498C44.6757 41.1677 44.6612 41.0836 44.6551 40.9987C44.6943 40.5141 44.3287 40.7023 44.0978 40.6668C43.7885 40.6191 43.8277 40.8283 43.8293 41.0189C43.8374 41.9322 43.835 42.8455 43.844 43.7588C43.8505 44.3879 43.7248 44.3104 44.4323 44.3362C44.7285 44.3475 44.7987 44.2393 44.7881 43.9672C44.7685 43.4576 44.7726 42.9456 44.7881 42.4329C44.8028 41.8918 45.0541 41.4888 45.4809 41.4824C45.9525 41.4759 45.924 41.2401 45.9321 40.9115C45.9419 40.5569 45.7689 40.5376 45.5021 40.5965C45.1529 40.6716 44.9333 40.9244 44.7032 41.2434L44.6983 41.2498ZM38.2804 43.2323C38.2029 43.2244 38.1246 43.2324 38.0504 43.2559C37.9762 43.2794 37.9078 43.3179 37.8494 43.3688C37.7909 43.4198 37.7438 43.4822 37.711 43.5521C37.6782 43.622 37.6603 43.6979 37.6586 43.775C37.6374 44.1206 37.8593 44.3928 38.1833 44.421C38.2606 44.4273 38.3385 44.4179 38.412 44.3935C38.4856 44.369 38.5533 44.3299 38.6111 44.2787C38.6689 44.2275 38.7156 44.1651 38.7482 44.0955C38.7809 44.0258 38.7988 43.9503 38.801 43.8735C38.8279 43.515 38.6166 43.2509 38.2837 43.2259L38.2804 43.2323ZM24.0581 43.8081C24.0581 43.4544 23.8239 43.2226 23.4796 43.2259C23.1352 43.2291 22.9132 43.473 22.9165 43.8259C22.9165 44.1666 23.1711 44.4226 23.4967 44.4137C23.8223 44.4049 24.0581 44.1553 24.0581 43.8081Z" fill="#3460AA"/>
<path d="M81.144 47.9972C78.3263 47.9883 74.3572 47.4594 70.5579 45.9784C67.7834 44.8995 65.3044 43.3854 63.3451 41.1243C60.7983 38.1848 59.7816 34.7617 60.1708 30.9331C60.5601 27.1046 62.2174 23.763 64.4745 20.696C67.5753 16.4879 71.5142 13.1996 75.9745 10.4968C81.7165 7.01115 88.0925 4.67185 94.7428 3.61095C99.8837 2.77677 105.03 2.72266 110.138 3.91378C113.186 4.62603 116.057 5.75739 118.539 7.69063C122.985 11.1558 124.71 15.6852 123.733 21.1894C123.102 24.7547 121.421 27.8621 119.245 30.7183C116.012 34.9595 111.949 38.2712 107.358 40.9684C102.049 44.0881 96.2138 46.2314 90.134 47.2946C87.5701 47.7549 84.9874 47.998 81.144 47.9972ZM75.7118 42.0949C75.7431 42.0455 75.7704 41.9936 75.7934 41.9399C76.354 39.9792 77.1284 38.1 78.0284 36.2702C81.645 28.9264 86.8463 22.9278 93.6322 18.2742C99.8437 13.9991 106.744 11.3447 114.131 9.8629C114.803 9.72804 115.477 9.60126 116.149 9.47044C115.95 9.42289 115.744 9.40466 115.54 9.41633C112.834 9.48813 110.138 9.7556 107.472 10.2166C101.888 11.1856 96.5552 12.8928 91.5718 15.6013C87.9716 17.5587 84.7246 19.9749 81.8841 22.9192C79.3447 25.5502 77.2071 28.534 75.5388 31.7762C75.396 32.0516 75.294 32.1606 75.0492 31.8642C74.8744 31.6748 74.6833 31.5008 74.478 31.3442C72.5293 29.6669 70.4322 28.2101 67.9597 27.3671C66.7944 26.969 65.5998 26.8018 64.379 26.9512C64.3586 27.0545 64.4174 27.0723 64.4606 27.1006C66.6044 28.5568 68.5674 30.2579 70.309 32.1687C72.3776 34.4354 74.0838 36.9283 75.103 39.8403C75.3548 40.5781 75.5582 41.3312 75.7118 42.0949V42.0949ZM82.2113 38.0266C86.6945 37.9902 91.141 37.6034 95.5229 36.6198C99.4398 35.7396 103.193 34.4257 106.663 32.3794C110.779 29.948 114.1 26.7533 116.266 22.4694C116.94 21.1659 117.43 19.7768 117.721 18.3412C117.354 18.6198 117.049 18.8572 116.742 19.0866C114.68 20.6088 112.49 21.8895 109.987 22.5768C108.609 22.9547 107.234 23.0669 105.859 22.5638C104.549 22.0842 103.786 21.1797 103.674 19.7786C103.588 18.6941 103.853 17.6718 104.24 16.6696C104.298 16.5219 104.436 16.3708 104.305 16.1681C104.256 16.1901 104.21 16.2172 104.167 16.2489C103.2 17.1437 102.437 18.17 101.996 19.4233C100.996 22.2683 103.057 24.7854 105.408 25.1778C106.16 25.3022 106.928 25.3022 107.681 25.1778C109.589 24.8702 111.318 24.1046 112.975 23.1541C113.057 23.1073 113.124 22.983 113.277 23.0831C113.195 23.222 113.114 23.3601 113.032 23.4957C112.176 24.8879 111.085 26.0799 109.85 27.1531C107.565 29.1412 104.962 30.6449 102.226 31.9296C97.5401 34.1318 92.6187 35.6605 87.5905 36.8758C85.8067 37.3054 84.0139 37.6777 82.2113 38.0266ZM110.219 16.8933C110.447 16.8973 110.674 16.8565 110.886 16.7732C111.099 16.69 111.292 16.566 111.456 16.4083C111.62 16.2507 111.751 16.0626 111.84 15.8547C111.93 15.6469 111.978 15.4236 111.98 15.1975C111.984 14.7412 111.805 14.3021 111.483 13.976C111.16 13.6499 110.72 13.4634 110.259 13.4572C109.805 13.4567 109.369 13.6322 109.044 13.9462C108.719 14.2601 108.531 14.6876 108.52 15.1369C108.515 15.3629 108.554 15.5877 108.636 15.7986C108.718 16.0094 108.842 16.2021 109 16.3655C109.158 16.5289 109.347 16.6598 109.556 16.7506C109.765 16.8415 109.99 16.8905 110.219 16.8949V16.8933Z" fill="#3460AA"/>
<path d="M36.5218 23.1856C36.5218 22.6478 36.5308 22.11 36.5161 21.5705C36.5095 21.3404 36.5724 21.2193 36.8213 21.208C37.6218 21.1716 38.4141 21.216 38.8678 21.988C39.3354 22.7835 39.2758 23.6217 38.8017 24.4026C38.4411 24.9961 37.3672 25.3555 36.6989 25.1802C36.5071 25.1294 36.5226 25.0098 36.5226 24.8774C36.5221 24.3143 36.5218 23.7504 36.5218 23.1856Z" fill="#3460AA"/>
<path d="M42.9079 17.4024C42.9079 17.2481 42.9079 17.1544 42.9079 17.0608C42.9079 16.359 42.9079 16.3574 43.6333 16.4373C43.8781 16.464 44.1148 16.5181 44.318 16.6667C44.4199 16.7446 44.5029 16.8442 44.5605 16.9582C44.6182 17.0722 44.6491 17.1975 44.651 17.325C44.6529 17.4525 44.6256 17.5787 44.5714 17.6943C44.5171 17.8099 44.4372 17.9119 44.3375 17.9927C44.2852 18.035 44.228 18.0711 44.167 18.1001C43.8365 18.2478 43.4701 18.3238 43.1355 18.2293C42.6149 18.0839 43.0711 17.6204 42.9079 17.4024Z" fill="#3460AA"/>
<path d="M42.908 14.9597C42.9064 14.9463 42.9064 14.9327 42.908 14.9193C42.9782 14.677 42.7448 14.3605 43.0557 14.1925C43.3495 14.0391 44.1051 14.2046 44.3238 14.4259C44.6502 14.7594 44.5458 15.3142 44.1076 15.5443C43.7812 15.7163 43.4295 15.6961 43.0786 15.6929C42.9309 15.6929 42.9064 15.5944 42.9072 15.4765C42.908 15.3069 42.908 15.1333 42.908 14.9597Z" fill="#3460AA"/>
<path d="M37.8699 9.2027C37.8699 8.65196 37.8797 8.10122 37.865 7.55048C37.8593 7.32195 37.9547 7.23635 38.1685 7.22747C38.9527 7.18144 39.7288 7.22747 40.202 7.95425C40.6998 8.72141 40.6443 9.54913 40.2273 10.3333C39.8699 11.0051 38.7194 11.417 38.0127 11.19C37.8454 11.1368 37.8715 11.0164 37.8707 10.9001C37.8691 10.3316 37.8699 9.76717 37.8699 9.2027Z" fill="#3460AA"/>
<path d="M33.5555 23.2336C33.5555 23.7124 33.4665 24.1711 33.194 24.5789C32.6481 25.3954 31.5489 25.4325 30.9524 24.6597C30.3559 23.8869 30.3738 22.4527 30.9769 21.6968C31.1045 21.5296 31.2705 21.3949 31.4611 21.3037C31.6518 21.2125 31.8616 21.1674 32.0733 21.1722C32.285 21.177 32.4925 21.2316 32.6787 21.3314C32.8649 21.4311 33.0244 21.5733 33.1442 21.7461C33.4681 22.1886 33.5669 22.6966 33.5555 23.2336Z" fill="#3460AA"/>
<path d="M27.8119 23.2185C27.7768 23.8152 27.6699 24.3781 27.2268 24.8182C27.0958 24.9512 26.9378 25.0551 26.7632 25.1232C26.5886 25.1912 26.4015 25.2218 26.214 25.213C26.0266 25.2041 25.8432 25.156 25.676 25.0718C25.5087 24.9876 25.3615 24.8692 25.2439 24.7245C24.6025 23.9582 24.5976 22.4327 25.2341 21.6631C25.3578 21.5102 25.5144 21.3864 25.6924 21.3008C25.8705 21.2152 26.0656 21.1698 26.2635 21.168C26.4615 21.1662 26.6574 21.2081 26.837 21.2905C27.0165 21.3729 27.1754 21.4939 27.3019 21.6446C27.6887 22.1008 27.7972 22.6492 27.8119 23.2185Z" fill="#3460AA"/>
<path d="M16.163 8.1235C16.1553 8.0648 16.1553 8.00535 16.163 7.94665C16.2626 7.70439 15.9092 7.28043 16.4307 7.20614C17.2075 7.0947 17.7273 7.341 17.8416 7.83925C17.9477 8.30439 17.7069 8.72754 17.2345 8.88905C16.9195 8.99564 16.54 9.06913 16.2814 8.9262C15.9851 8.75984 16.2397 8.35608 16.163 8.1235Z" fill="#3460AA"/>
<path d="M16.5583 21.3125C16.79 22.0603 16.9867 22.712 17.1988 23.3596C17.2609 23.5502 17.2396 23.6116 17.0185 23.6245C15.8508 23.6923 15.8541 23.6996 16.187 22.6256C16.3118 22.2218 16.4171 21.8116 16.5583 21.3125Z" fill="#3460AA"/>
<path d="M25.7258 14.3984C25.9609 15.0889 26.1828 15.7712 26.4146 16.4544C26.4472 16.5497 26.4097 16.6095 26.3069 16.6232C26.2799 16.6232 26.2522 16.6232 26.2253 16.6232C25.0331 16.7548 25.0184 16.7346 25.3709 15.6219C25.4998 15.2197 25.6083 14.8071 25.7258 14.3984Z" fill="#3460AA"/>
<path d="M38.6566 14.3594C38.8908 15.0999 39.103 15.7718 39.316 16.4428C39.3666 16.6043 39.2735 16.6269 39.1462 16.6261C38.8329 16.6261 38.5204 16.6261 38.2078 16.6261C38.0569 16.6261 37.9728 16.589 38.0275 16.4129C38.2339 15.7524 38.4339 15.091 38.6566 14.3594Z" fill="#3460AA"/>
<path d="M48.9279 42.4459C48.9279 42.5266 48.9279 42.6074 48.9279 42.6881C48.9018 43.2381 48.6137 43.5821 48.1559 43.6136C47.6981 43.6451 47.304 43.2817 47.233 42.7665C47.189 42.4435 47.1963 42.1204 47.3464 41.8184C47.5358 41.4324 47.894 41.2322 48.2677 41.3032C48.6219 41.3711 48.874 41.6666 48.9205 42.0833C48.9275 42.2041 48.9275 42.3251 48.9205 42.4459H48.9279Z" fill="#3460AA"/>
<path d="M42.1115 42.4739C42.1347 42.7837 42.0557 43.0925 41.8863 43.3541C41.5534 43.8507 40.9144 43.8652 40.5554 43.3856C40.207 42.9204 40.2053 42.0628 40.5554 41.5969C40.633 41.4858 40.7378 41.3961 40.8602 41.3362C40.9825 41.2764 41.1182 41.2484 41.2545 41.2548C41.3908 41.2613 41.5232 41.302 41.6391 41.3732C41.7551 41.4443 41.8508 41.5436 41.9173 41.6615C42.0632 41.9067 42.1309 42.1899 42.1115 42.4739V42.4739Z" fill="#3460AA"/>
</g>
<rect x="1.5" y="1.5" width="124" height="48" rx="4.5" stroke="white" stroke-width="3"/>
<defs>
<clipPath id="clip0_1578_12320">
<rect x="3" y="3" width="121" height="45" rx="3" fill="white"/>
</clipPath>
</defs>
</svg>
