<svg width="259" height="56" viewBox="0 0 259 56" fill="none" xmlns="http://www.w3.org/2000/svg">
<path d="M119.579 19.4579C120.885 19.4579 121.939 18.3997 121.939 17.0883C121.939 15.7769 120.885 14.7188 119.579 14.7188C118.273 14.7188 117.213 15.7834 117.213 17.0883C117.213 18.3997 118.273 19.4579 119.579 19.4579Z" fill="white"/>
<path d="M117.808 0.759564C117.329 0.279156 116.651 0 115.952 0C115.254 0 114.575 0.272664 114.097 0.753072L101.923 12.971L90.8094 1.81127L90.7642 11.0624L97.3004 17.6258L90.7642 24.1892V32.5639L101.923 22.2741L114.09 34.492C114.575 34.9854 115.254 35.2645 115.946 35.2645C116.638 35.2645 117.31 34.9854 117.801 34.492L130.609 21.6313V13.6202L117.808 0.759564ZM115.952 26.9483L106.662 17.6193L115.952 8.29029L125.243 17.6193L115.952 26.9483Z" fill="white"/>
<path d="M162.443 17.4712C162.443 21.1132 162.521 25.8914 162.521 30.9032H153.515C153.515 30.9811 153.709 22.561 153.709 16.8869C151.957 20.1394 148.756 25.5018 147.082 28.2025C146.183 27.1054 142.796 20.3732 140.416 16.5753C140.416 20.6848 140.494 25.4629 140.494 30.9097H134.1C134.1 30.9097 134.294 23.2751 134.294 17.3609C134.294 13.0956 133.984 3.65625 133.984 3.65625H142.602C143.772 5.45453 147.205 13.7189 148.841 16.5364C149.856 14.381 153.793 6.04531 155.002 3.65625H162.915C162.915 3.65625 162.45 13.1735 162.45 17.4777L162.443 17.4712Z" fill="white"/>
<path d="M192.726 30.9044C192.726 30.9044 187.03 30.8265 182.472 31.0213L181.03 25.3797H173.815C173.544 27.2624 173.305 29.1386 173.195 30.898H166.684C167.428 21.5365 174.016 3.64453 174.016 3.64453H183.882L192.732 30.898L192.726 30.9044ZM179.737 20.3679L177.281 10.8896C177.281 10.8896 175.917 15.1159 174.785 20.3679H179.737Z" fill="white"/>
<path d="M221.354 24.3644L220.533 31.4537C220.533 31.4537 219.556 31.6095 217.533 31.6095C212.07 31.6095 208.915 26.7924 207.434 22.248C206.225 22.4428 205.404 22.4817 205.404 22.4817C205.443 25.3772 205.482 27.4936 205.482 30.9019H196.476C196.476 30.9019 196.67 23.2673 196.67 17.3531C196.67 13.0878 196.359 3.64844 196.359 3.64844H205.876C212.386 3.76529 219.252 5.13511 219.252 12.1465C219.252 16.2559 216.718 18.9241 214.61 19.9369C215.819 22.3259 217.455 24.5202 219.796 24.5202C220.888 24.5202 221.354 24.3644 221.354 24.3644ZM210.434 12.6528C210.434 9.01083 207.195 9.24454 205.404 9.32245C205.327 11.9452 205.404 15.1588 205.404 17.2297C207.156 17.1908 210.434 16.8012 210.434 12.6464V12.6528Z" fill="white"/>
<path d="M233.999 17.4699C233.999 21.1119 234.116 25.89 234.116 30.9019H225.071C225.071 30.9019 225.265 23.2673 225.265 17.3531C225.265 13.0878 224.993 3.64844 224.993 3.64844H234.471C234.471 3.64844 234.006 13.1657 234.006 17.4699H233.999Z" fill="white"/>
<path d="M259 23.3081C259 28.7095 253.893 31.6114 247.809 31.6114C242.346 31.6114 239.074 29.2223 239.074 29.2223L240.949 23.782C240.949 23.782 244.499 25.8984 247.692 25.8984C249.684 25.8984 250.382 25.1129 250.382 23.9379C250.382 20.2569 239.152 20.179 239.152 11.4472C239.152 6.51333 244.104 2.94922 250.188 2.94922C254.908 2.94922 258.457 5.26037 258.457 5.26037L256.66 10.5059C256.66 10.5059 253.304 8.66218 250.382 8.66218C248.824 8.66218 247.731 9.25295 247.731 11.0512C247.731 13.9467 259 14.8101 259 23.3081Z" fill="white"/>
<path d="M24.5287 17.3141C24.5287 26.4743 20.0031 30.9019 9.12231 30.9019H0.116373C0.116373 30.9019 0.271536 23.2673 0.271536 17.3531C0.271536 13.0878 0 3.64844 0 3.64844H9.4779C19.3825 3.64844 24.5287 7.71892 24.5287 17.3141ZM15.4064 17.5868C15.4064 12.536 14.275 9.51721 11.3528 9.51721H9.0512C9.08999 12.4516 9.01241 15.4704 9.01241 17.4634V24.9032H11.5855C14.5078 24.9032 15.4064 22.67 15.4064 17.5803V17.5868Z" fill="white"/>
<path d="M72.4677 24.171C72.4677 24.171 71.9247 28.0467 71.8471 30.9097H52.8137C52.8137 30.9097 53.124 21.4703 53.124 17.244C53.124 11.2908 52.9301 3.65625 52.9301 3.65625H62.1365L62.0589 24.4891L72.4742 24.1775L72.4677 24.171Z" fill="white"/>
<path d="M85.3011 17.4699C85.3011 21.1119 85.4175 25.89 85.4175 30.9019H76.3727C76.3727 30.9019 76.5667 23.2673 76.5667 17.3531C76.5667 13.0878 76.2952 3.64844 76.2952 3.64844H85.7731C85.7731 3.64844 85.3076 13.1657 85.3076 17.4699H85.3011Z" fill="white"/>
<path d="M37.2458 24.5592C37.2458 24.4034 37.2587 22.631 37.2716 20.3459H45.4371V14.1071H37.3169C37.3363 11.8478 37.3557 9.97814 37.3686 9.48475H47.0017V3.64844H28.1687C28.1687 3.64844 28.4402 13.0878 28.4402 17.3531C28.4402 23.2673 28.2851 30.9019 28.2851 30.9019H47.7839C47.8227 28.0454 48.4046 24.1632 48.4046 24.1632L37.2522 24.5527L37.2458 24.5592Z" fill="white"/>
<path d="M170.712 49.6035C170.712 49.6035 170.719 49.4022 170.732 49.0776C170.744 48.753 170.777 48.331 170.822 47.7922C170.867 47.2599 170.926 46.6431 170.99 45.942C171.055 45.2408 171.139 44.5007 171.255 43.7217C171.372 42.9427 171.501 42.1506 171.656 41.3327C171.811 40.5147 171.999 39.7226 172.212 38.9436C172.425 38.171 172.671 37.4375 172.943 36.7558C173.221 36.0676 173.524 35.4704 173.867 34.9575C174.21 34.4446 174.591 34.0356 175.011 33.737C175.432 33.4384 175.897 33.2891 176.401 33.2891C176.595 33.2891 176.802 33.3215 177.016 33.3929C177.229 33.4579 177.429 33.5682 177.604 33.724C177.779 33.8733 177.927 34.0746 178.044 34.3278C178.16 34.5745 178.218 34.8861 178.218 35.2496C178.218 35.5872 178.166 35.9768 178.057 36.4182C177.947 36.8597 177.791 37.3271 177.598 37.827C177.404 38.3269 177.164 38.8462 176.899 39.3851C176.628 39.9239 176.337 40.4627 176.02 41.0016C175.703 41.5404 175.367 42.0662 175.018 42.5856C174.669 43.105 174.307 43.5919 173.945 44.0463L173.925 44.1826C174.048 44.1307 174.139 44.0982 174.197 44.0853C174.255 44.0723 174.32 44.0593 174.384 44.0593C174.462 44.0593 174.527 44.0593 174.578 44.0788C174.63 44.0918 174.669 44.1047 174.714 44.1177C174.753 44.1307 174.798 44.1437 174.837 44.1567C174.882 44.1697 174.934 44.1762 174.992 44.1762C175.561 44.1762 176.059 44.1112 176.498 43.9749C176.932 43.8386 177.3 43.6892 177.598 43.5205C177.947 43.3322 178.251 43.1115 178.509 42.8583L178.322 44.9617C177.94 45.1694 177.546 45.3317 177.132 45.4486C176.718 45.5654 176.337 45.6498 175.988 45.7083C175.58 45.7732 175.173 45.8121 174.759 45.8316C174.979 46.2081 175.18 46.6042 175.361 47.0132C175.516 47.3637 175.652 47.7532 175.781 48.1882C175.904 48.6232 175.968 49.0581 175.968 49.5061C175.968 49.558 175.962 49.6684 175.942 49.8307C175.93 49.9995 175.904 50.2007 175.865 50.4409C175.826 50.6811 175.781 50.9473 175.71 51.2459C175.645 51.5381 175.561 51.8367 175.451 52.1353C175.348 52.434 175.218 52.7261 175.07 53.0053C174.921 53.2844 174.746 53.5311 174.54 53.7454C174.339 53.9596 174.106 54.1349 173.848 54.2647C173.589 54.3946 173.292 54.466 172.962 54.466C172.652 54.466 172.374 54.3946 172.141 54.2517C171.908 54.1089 171.708 53.9142 171.546 53.6675C171.378 53.4208 171.242 53.1416 171.132 52.817C171.022 52.4924 170.932 52.1483 170.874 51.7848C170.809 51.4212 170.764 51.0512 170.738 50.6746C170.712 50.2981 170.699 49.9346 170.699 49.584L170.712 49.6035ZM172.988 45.0591C172.988 45.0591 172.936 45.124 172.91 45.2538C172.884 45.3837 172.859 45.5525 172.846 45.7472C172.826 45.9485 172.807 46.2276 172.781 46.5977C172.749 46.9677 172.729 47.2663 172.71 47.5001C172.69 47.7338 172.678 47.9545 172.665 48.1687C172.652 48.3765 172.645 48.5453 172.645 48.6686C172.645 49.5126 172.665 50.1877 172.69 50.6876C172.716 51.1875 172.762 51.5705 172.813 51.8302C172.865 52.0899 172.917 52.2587 172.975 52.3366C173.033 52.4145 173.098 52.4535 173.162 52.4535C173.356 52.4535 173.518 52.3626 173.634 52.1873C173.751 52.012 173.841 51.7848 173.899 51.5056C173.958 51.233 174.003 50.9343 174.022 50.6097C174.042 50.2851 174.055 49.9735 174.055 49.6749C174.055 49.4736 174.055 49.2269 174.035 48.9348C174.022 48.6426 174.009 48.3245 173.984 47.9805C173.958 47.6429 173.912 47.2534 173.841 46.8249C173.77 46.3964 173.667 46.0718 173.537 45.8576C173.408 45.6433 173.298 45.4551 173.221 45.2993C173.137 45.1435 173.065 45.0656 172.994 45.0656L172.988 45.0591ZM175.167 36.0287C174.83 36.7947 174.552 37.5218 174.333 38.21C174.132 38.8397 173.984 39.4045 173.887 39.8914C173.79 40.3783 173.718 40.8068 173.673 41.1833C173.634 41.5534 173.589 41.8975 173.55 42.2156C173.919 41.5534 174.3 40.9107 174.688 40.2809C175.083 39.6512 175.425 39.0669 175.716 38.5151C176.007 37.9633 176.259 37.4375 176.473 36.9246C176.679 36.4117 176.783 36.0482 176.783 35.8274C176.783 35.5223 176.738 35.3016 176.654 35.1588C176.57 35.0159 176.427 34.9445 176.227 34.9445C175.91 34.9445 175.703 35.0159 175.593 35.1523C175.509 35.2691 175.367 35.5548 175.16 36.0222L175.167 36.0287Z" fill="white"/>
<path d="M182.951 47.4363C182.744 47.6245 182.485 47.8323 182.181 48.0465C181.871 48.2608 181.541 48.462 181.186 48.6438C180.83 48.8256 180.468 48.9749 180.1 49.0982C179.731 49.2216 179.375 49.28 179.046 49.28C178.748 49.28 178.496 49.2411 178.296 49.1567C178.089 49.0723 177.927 48.9554 177.798 48.8061C177.669 48.6568 177.585 48.475 177.526 48.2543C177.475 48.04 177.442 47.7998 177.442 47.5402C177.442 47.1766 177.481 46.7546 177.565 46.2677C177.733 45.2679 177.837 44.7031 177.882 44.5798C177.96 44.3331 178.115 43.7878 178.354 42.9438C178.574 42.2557 178.703 41.8077 178.755 41.6C178.781 41.4571 178.865 41.3208 178.994 41.204C179.11 41.1001 179.246 41.0157 179.395 40.9443C179.544 40.8794 179.699 40.8274 179.86 40.795C180.022 40.7625 180.164 40.7495 180.294 40.7495C180.533 40.7495 180.688 40.795 180.778 40.8858C180.862 40.9767 180.908 41.0936 180.908 41.2429C180.908 41.3727 180.875 41.548 180.817 41.7817C180.759 42.0155 180.688 42.2751 180.617 42.5738C180.539 42.8724 180.429 43.2489 180.281 43.7164C180.132 44.1838 180.035 44.5798 179.977 44.9044C179.925 45.2355 179.854 45.5601 179.77 45.8847C179.686 46.2093 179.647 46.5014 179.647 46.7676C179.647 47.0338 179.673 47.235 179.731 47.3843C179.789 47.5337 179.906 47.6116 180.087 47.6116C180.294 47.6116 180.52 47.5401 180.772 47.3973C181.024 47.2545 181.283 47.0792 181.535 46.8715C181.793 46.6702 182.046 46.456 182.291 46.2353C182.537 46.0145 182.757 45.8263 182.944 45.6705V47.4233L182.951 47.4363ZM179.104 38.367C179.104 38.2306 179.13 38.0813 179.188 37.9125C179.246 37.7437 179.337 37.5879 179.466 37.4386C179.595 37.2893 179.77 37.1659 179.983 37.0621C180.197 36.9582 180.468 36.9062 180.791 36.9062C180.992 36.9062 181.179 36.9322 181.36 36.9777C181.541 37.0231 181.69 37.0945 181.826 37.1919C181.955 37.2893 182.065 37.4126 182.143 37.5684C182.22 37.7242 182.259 37.9125 182.259 38.1267C182.259 38.3215 182.227 38.5163 182.162 38.7045C182.097 38.8928 182 39.0551 181.858 39.2044C181.722 39.3472 181.548 39.4706 181.334 39.555C181.128 39.6459 180.875 39.6913 180.584 39.6913C180.08 39.6913 179.705 39.568 179.466 39.3278C179.227 39.0876 179.104 38.763 179.104 38.367Z" fill="white"/>
<path d="M182.097 46.0201C182.42 45.7409 182.679 45.5072 182.879 45.3189C183.08 45.1307 183.28 44.9164 183.481 44.6697C183.681 44.423 183.843 44.2218 183.959 44.0595C184.076 43.9037 184.218 43.7154 184.379 43.5012C184.541 43.2869 184.735 43.0208 184.968 42.7092C185.2 42.3975 185.498 42.008 185.86 41.5406C185.938 41.4367 186.015 41.3328 186.112 41.2355C186.203 41.1381 186.306 41.0472 186.416 40.9693C186.526 40.8914 186.649 40.8265 186.784 40.7745C186.92 40.7226 187.069 40.7031 187.237 40.7031C187.515 40.7031 187.722 40.7356 187.877 40.794C188.026 40.8524 188.136 40.9303 188.207 41.0147C188.278 41.0991 188.317 41.1965 188.33 41.2874C188.343 41.3848 188.349 41.4692 188.349 41.5341C188.349 41.6769 188.297 41.8262 188.187 41.995C188.077 42.1638 187.961 42.3261 187.825 42.4819C187.69 42.6377 187.567 42.7806 187.45 42.9169C187.334 43.0467 187.263 43.1441 187.25 43.209C187.25 43.3908 187.263 43.5531 187.289 43.7024C187.315 43.8517 187.353 43.9946 187.392 44.1374C187.437 44.2802 187.483 44.4295 187.528 44.5918C187.573 44.7541 187.618 44.9359 187.664 45.1437C187.709 45.3514 187.715 45.6435 187.683 46.0071C187.651 46.3771 187.638 46.7407 187.638 47.1172C187.845 46.9744 188.065 46.851 188.304 46.7342C188.543 46.6238 188.789 46.5005 189.047 46.3836C189.306 46.2603 189.571 46.1239 189.842 45.9746C190.114 45.8253 190.386 45.65 190.664 45.4358V47.3899C190.314 47.6561 189.907 47.9092 189.435 48.143C188.97 48.3767 188.478 48.5844 187.961 48.7597C187.444 48.935 186.927 49.0778 186.403 49.1817C185.879 49.2856 185.381 49.3375 184.91 49.3375C184.573 49.3375 184.257 49.305 183.966 49.2466C183.675 49.1882 183.416 49.0908 183.196 48.9609C182.976 48.8311 182.795 48.6623 182.66 48.4546C182.524 48.2468 182.44 47.9936 182.408 47.695C182.33 47.7145 182.246 47.7275 182.168 47.7275C182.091 47.7275 182.013 47.734 181.942 47.734C181.852 47.734 181.767 47.734 181.683 47.7275C181.606 47.7275 181.535 47.7015 181.477 47.6625C181.418 47.6236 181.373 47.5652 181.341 47.4808C181.308 47.3964 181.289 47.273 181.289 47.1172C181.289 46.9744 181.321 46.8511 181.393 46.7277C181.464 46.6108 181.541 46.5005 181.632 46.4096C181.722 46.3187 181.813 46.2343 181.91 46.1629C182 46.0915 182.071 46.0395 182.117 45.9941L182.097 46.0201ZM183.17 47.1367C183.242 47.1367 183.313 47.1821 183.397 47.2665C183.481 47.3509 183.578 47.4483 183.688 47.5522C183.798 47.6561 183.92 47.7534 184.069 47.8378C184.211 47.9222 184.373 47.9677 184.56 47.9677C184.787 47.9677 184.968 47.9287 185.116 47.8573C185.265 47.7794 185.381 47.682 185.466 47.5587C185.55 47.4353 185.614 47.286 185.647 47.1237C185.679 46.9549 185.698 46.7861 185.698 46.6044C185.698 46.4485 185.685 46.2862 185.666 46.1239C185.647 45.9616 185.647 45.7604 185.672 45.5137C185.698 45.2735 185.692 45.0852 185.653 44.9554C185.614 44.8255 185.582 44.7152 185.556 44.6178L183.17 47.1302V47.1367Z" fill="white"/>
<path d="M192.732 44.0017C192.965 43.6836 193.23 43.3396 193.521 42.9695C193.812 42.606 194.206 42.1775 194.698 41.6971C195.189 41.2167 195.59 40.8726 195.9 40.6648C196.211 40.4571 196.508 40.3467 196.78 40.3467C196.851 40.3467 196.928 40.3597 197.012 40.3857C197.096 40.4117 197.18 40.4636 197.258 40.5285C197.336 40.5999 197.4 40.6973 197.452 40.8207C197.504 40.944 197.53 41.1128 197.53 41.3076C197.53 41.7036 197.478 42.0931 197.368 42.4761C197.258 42.8527 197.051 43.3136 196.747 43.8524C196.443 44.3913 196.237 44.8587 196.133 45.2547C196.03 45.6507 195.971 46.0597 195.971 46.4882C195.971 46.7219 196.004 46.9102 196.075 47.053C196.146 47.1958 196.23 47.2672 196.34 47.2672C196.476 47.2672 196.624 47.2412 196.78 47.1828C196.935 47.1244 197.09 47.0465 197.245 46.9556C197.4 46.8647 197.549 46.7543 197.704 46.6375C197.853 46.5206 197.995 46.3973 198.124 46.2674C198.441 45.9688 198.752 45.6312 199.055 45.2547L199.204 47.5529C199.101 47.6308 198.971 47.7217 198.81 47.8385C198.655 47.9489 198.48 48.0722 198.286 48.2021C198.092 48.3319 197.885 48.4552 197.665 48.5851C197.446 48.7149 197.219 48.8318 196.993 48.9292C196.767 49.0265 196.54 49.1109 196.314 49.1759C196.088 49.2408 195.868 49.2732 195.668 49.2732C195.344 49.2732 195.066 49.1953 194.827 49.033C194.588 48.8707 194.394 48.663 194.239 48.4163C194.084 48.1696 193.974 47.8904 193.896 47.5983C193.819 47.2997 193.78 47.0205 193.78 46.7608C193.78 46.5726 193.806 46.3648 193.857 46.1376C193.909 45.9104 193.967 45.6767 194.045 45.443C194.122 45.2092 194.207 44.982 194.297 44.7613C194.388 44.5406 194.478 44.3393 194.556 44.1705C194.633 43.9952 194.704 43.8524 194.769 43.7421C194.827 43.6317 194.866 43.5668 194.885 43.5473L194.704 43.5213C194.607 43.5862 194.439 43.7421 194.213 44.0017C193.98 44.2549 193.715 44.5795 193.424 44.969C193.133 45.3586 192.829 45.8 192.519 46.2869C192.209 46.7738 191.924 47.2737 191.672 47.7931C191.543 48.0527 191.439 48.2735 191.362 48.4617C191.284 48.65 191.2 48.8058 191.123 48.9227C191.045 49.0395 190.961 49.1239 190.87 49.1888C190.78 49.2473 190.664 49.2797 190.515 49.2797C190.327 49.2797 190.179 49.2278 190.069 49.1239C189.959 49.0201 189.875 48.8837 189.817 48.7149C189.758 48.5461 189.72 48.3514 189.707 48.1371C189.687 47.9229 189.681 47.6957 189.681 47.4685C189.681 47.0725 189.681 46.5531 189.694 45.9169C189.7 45.2742 189.733 44.5665 189.778 43.7875C189.823 43.0085 189.907 42.2035 190.03 41.366C190.153 40.5285 190.276 39.6975 190.392 38.8731C190.515 38.0486 190.689 37.2565 190.929 36.51C191.168 35.7634 191.459 35.1077 191.801 34.5364C192.144 33.9651 192.545 33.5172 193.004 33.1796C193.463 32.842 193.993 32.6797 194.588 32.6797C194.898 32.6797 195.15 32.7251 195.351 32.816C195.551 32.9069 195.706 33.0367 195.823 33.2055C195.939 33.3743 196.023 33.5756 196.068 33.8093C196.114 34.043 196.14 34.3092 196.14 34.5948C196.14 35.0233 196.081 35.5037 195.959 36.0231C195.836 36.5489 195.681 37.0878 195.48 37.6526C195.28 38.2174 195.06 38.7887 194.808 39.3664C194.556 39.9442 194.297 40.509 194.032 41.0479C193.767 41.5932 193.508 42.1061 193.256 42.5865C193.004 43.0669 192.778 43.4954 192.584 43.8589L192.758 43.9823L192.732 44.0017ZM193.495 38.5679C193.832 37.685 194.077 36.9449 194.232 36.3412C194.388 35.7374 194.459 35.2895 194.459 35.0038C194.459 34.5689 194.4 34.3481 194.278 34.3481C194.129 34.3481 193.909 34.5948 193.612 35.0817C193.321 35.5686 192.972 36.2827 192.577 37.2176C192.48 37.5357 192.39 37.8603 192.306 38.2044C192.222 38.542 192.157 38.886 192.105 39.2236C192.054 39.5612 192.008 39.8988 191.963 40.2234C191.918 40.548 191.873 40.8596 191.827 41.1517C191.698 41.8334 191.608 42.5021 191.536 43.1578C191.692 42.7942 191.86 42.3982 192.047 41.9762C192.235 41.5478 192.416 41.1258 192.59 40.7103C192.771 40.2948 192.939 39.8988 193.095 39.5287C193.256 39.1587 193.385 38.8406 193.489 38.5809L193.495 38.5679Z" fill="white"/>
<path d="M207.376 41.9176C207.273 41.7164 207.156 41.4762 207.04 41.2035C206.924 40.9308 206.82 40.6452 206.717 40.3401C206.62 40.0349 206.536 39.7363 206.471 39.4312C206.406 39.1261 206.374 38.8404 206.374 38.5612C206.374 38.0808 206.471 37.6199 206.671 37.1785C206.872 36.737 207.137 36.3475 207.473 36.0099C207.809 35.6723 208.197 35.3996 208.637 35.2049C209.076 35.0036 209.542 34.9062 210.027 34.9062C210.447 34.9062 210.835 34.9712 211.184 35.1075C211.54 35.2438 211.843 35.4321 212.096 35.6723C212.348 35.9125 212.548 36.1917 212.684 36.5163C212.826 36.8409 212.897 37.1979 212.897 37.581C212.897 37.9056 212.846 38.2496 212.736 38.6067C212.626 38.9638 212.445 39.3273 212.199 39.6973C211.953 40.0674 211.637 40.4309 211.242 40.801C210.854 41.1645 210.376 41.5216 209.82 41.8657C209.891 42.002 210.007 42.2097 210.169 42.4694C210.331 42.7356 210.518 43.0277 210.725 43.3523C210.932 43.6769 211.139 44.021 211.365 44.3781C211.585 44.7351 211.792 45.0792 211.979 45.4103C212.102 45.3259 212.193 45.235 212.27 45.1376C212.341 45.0468 212.393 44.9494 212.432 44.8585C212.464 44.7676 212.49 44.6702 212.496 44.5728C212.503 44.4755 212.509 44.3781 212.509 44.2807C212.509 44.06 212.484 43.8717 212.432 43.7159C212.38 43.5601 212.309 43.4043 212.212 43.255C212.115 43.1056 212.005 42.9433 211.869 42.7746C211.74 42.6058 211.591 42.3915 211.436 42.1448C211.436 42.1448 211.449 42.1189 211.481 42.0929C211.507 42.0669 211.546 42.0345 211.578 41.9955C211.611 41.9566 211.65 41.9306 211.688 41.9046C211.721 41.8787 211.747 41.8657 211.759 41.8657C211.85 41.8657 211.979 41.9046 212.147 41.976C212.315 42.0475 212.496 42.1513 212.69 42.2812C212.884 42.411 213.091 42.5668 213.298 42.7486C213.505 42.9304 213.693 43.1381 213.861 43.3653C214.029 43.5925 214.164 43.8392 214.274 44.0989C214.384 44.3651 214.436 44.6378 214.436 44.9234C214.436 45.2805 214.333 45.644 214.126 46.027C213.919 46.4101 213.57 46.7866 213.078 47.1631C213.098 47.1631 213.156 47.2021 213.259 47.2735C213.363 47.3514 213.479 47.4358 213.615 47.5397C213.751 47.6436 213.88 47.7409 214.009 47.8448C214.139 47.9487 214.236 48.0266 214.3 48.0785C214.391 48.1629 214.436 48.2798 214.436 48.4226C214.436 48.5524 214.397 48.6888 214.32 48.8381C214.242 48.9874 214.145 49.1237 214.022 49.2471C213.899 49.3704 213.77 49.4743 213.621 49.5587C213.473 49.6431 213.33 49.682 213.195 49.682C213.059 49.682 212.943 49.6431 212.839 49.5587C212.762 49.5003 212.652 49.3964 212.509 49.2536C212.367 49.1107 212.225 48.9679 212.089 48.8186C211.947 48.6693 211.831 48.5394 211.721 48.4226C211.617 48.3057 211.565 48.2473 211.565 48.2408C211.294 48.4356 210.984 48.6109 210.634 48.7667C210.331 48.8965 209.969 49.0199 209.548 49.1302C209.128 49.2406 208.65 49.2925 208.107 49.2925C207.415 49.2925 206.801 49.2146 206.277 49.0653C205.753 48.916 205.314 48.7082 204.958 48.4421C204.603 48.1759 204.337 47.8708 204.163 47.5202C203.982 47.1696 203.891 46.7931 203.891 46.3906C203.891 46.027 203.962 45.644 204.111 45.261C204.253 44.8715 204.473 44.4819 204.764 44.0924C205.055 43.7029 205.417 43.3264 205.85 42.9628C206.283 42.5993 206.788 42.2552 207.37 41.9371L207.376 41.9176ZM208.178 47.6241C208.546 47.6241 208.915 47.5592 209.264 47.4293C209.619 47.2995 209.949 47.1307 210.26 46.9294C210.014 46.6308 209.8 46.3646 209.607 46.1179C209.419 45.8712 209.232 45.6116 209.057 45.3454C208.876 45.0727 208.688 44.7741 208.495 44.4495C208.301 44.1184 208.081 43.7224 207.829 43.2615C207.557 43.4692 207.311 43.6899 207.098 43.9301C206.885 44.1638 206.697 44.404 206.555 44.6507C206.406 44.8974 206.296 45.1376 206.219 45.3778C206.141 45.6181 206.102 45.8518 206.102 46.079C206.102 46.3062 206.141 46.5075 206.225 46.6957C206.309 46.884 206.432 47.0463 206.607 47.1891C206.775 47.3254 206.995 47.4358 207.253 47.5202C207.512 47.6046 207.822 47.6436 208.184 47.6436L208.178 47.6241ZM210.13 36.8409C210.007 36.8409 209.872 36.8798 209.723 36.9577C209.574 37.0356 209.432 37.146 209.303 37.2823C209.173 37.4187 209.063 37.5874 208.979 37.7757C208.895 37.964 208.85 38.1717 208.85 38.3925C208.85 38.5872 208.876 38.8144 208.934 39.0806C208.986 39.3468 209.051 39.6065 209.122 39.8532C209.193 40.0998 209.251 40.3076 209.309 40.4829C209.367 40.6517 209.4 40.7426 209.413 40.7426C209.697 40.4829 209.949 40.2297 210.188 39.9895C210.421 39.7493 210.622 39.5091 210.777 39.2689C210.938 39.0287 211.061 38.7885 211.152 38.5483C211.242 38.3016 211.287 38.0549 211.287 37.7887C211.287 37.6459 211.268 37.516 211.229 37.3992C211.191 37.2823 211.132 37.1849 211.042 37.1005C210.958 37.0162 210.835 36.9577 210.686 36.9123C210.538 36.8668 210.35 36.8474 210.124 36.8474L210.13 36.8409Z" fill="white"/>
<path d="M221.961 49.2803C221.431 49.2803 220.966 49.1829 220.565 48.9881C220.164 48.7934 219.828 48.5272 219.556 48.2026C219.285 47.8715 219.078 47.495 218.942 47.06C218.806 46.625 218.735 46.1771 218.735 45.7097C218.735 45.3786 218.793 44.9761 218.91 44.5086C219.026 44.0412 219.149 43.6322 219.285 43.2882C219.42 42.9376 219.589 42.6065 219.789 42.2884C219.989 41.9703 220.216 41.6911 220.481 41.4574C220.746 41.2172 221.037 41.0289 221.36 40.8861C221.683 40.7433 222.039 40.6719 222.427 40.6719C222.776 40.6719 223.099 40.7238 223.39 40.8212C223.687 40.9251 223.94 41.0614 224.153 41.2432C224.366 41.4185 224.528 41.6327 224.644 41.8794C224.761 42.1261 224.825 42.3858 224.825 42.6714C224.825 42.8662 224.799 43.0609 224.741 43.2492C224.683 43.4375 224.58 43.6647 224.418 43.9179C224.256 44.1776 224.101 44.3463 223.946 44.4437C223.791 44.5346 223.623 44.5801 223.429 44.5801C223.138 44.5801 222.95 44.5086 222.866 44.3658C222.731 44.1386 222.685 43.9438 222.737 43.7686C222.756 43.6777 222.808 43.4634 222.892 43.1323C222.905 43.0869 222.905 42.983 222.899 42.8207C222.899 42.6844 222.886 42.5675 222.853 42.4767C222.828 42.3858 222.763 42.3403 222.666 42.3403C222.433 42.3403 222.233 42.3987 222.065 42.5091C221.897 42.6195 221.761 42.7688 221.638 42.9506C221.522 43.1323 221.405 43.3855 221.289 43.7166C221.172 44.0477 221.095 44.3269 221.043 44.5476C220.991 44.7748 220.966 44.9891 220.953 45.1903C220.94 45.3916 220.933 45.5668 220.933 45.7032C220.933 45.9109 220.953 46.1252 220.991 46.3524C221.03 46.5796 221.101 46.7808 221.211 46.9691C221.321 47.1574 221.47 47.3132 221.644 47.4365C221.819 47.5599 222.052 47.6248 222.33 47.6248C222.608 47.6248 222.912 47.5404 223.241 47.3716C223.571 47.2028 223.907 46.9886 224.243 46.7289C224.58 46.4692 224.896 46.1836 225.2 45.872C225.504 45.5604 225.763 45.2682 225.983 44.9891L226.577 45.9888C226.144 46.6056 225.685 47.1574 225.181 47.6378C224.967 47.8455 224.735 48.0468 224.489 48.2415C224.237 48.4363 223.978 48.6116 223.707 48.7674C223.435 48.9232 223.151 49.0466 222.853 49.1374C222.556 49.2348 222.259 49.2803 221.955 49.2803H221.961Z" fill="white"/>
<path d="M228.737 44.0017C228.969 43.6836 229.235 43.3396 229.525 42.9695C229.816 42.606 230.211 42.1775 230.702 41.6971C231.193 41.2167 231.594 40.8726 231.905 40.6648C232.215 40.4571 232.512 40.3467 232.784 40.3467C232.855 40.3467 232.933 40.3597 233.017 40.3857C233.101 40.4117 233.185 40.4636 233.262 40.5285C233.34 40.5999 233.405 40.6973 233.456 40.8207C233.508 40.944 233.534 41.1128 233.534 41.3076C233.534 41.7036 233.482 42.0931 233.372 42.4761C233.262 42.8527 233.055 43.3136 232.752 43.8524C232.448 44.3913 232.241 44.8587 232.137 45.2547C232.034 45.6507 231.976 46.0597 231.976 46.4882C231.976 46.7219 232.008 46.9102 232.079 47.053C232.15 47.1958 232.234 47.2672 232.344 47.2672C232.48 47.2672 232.629 47.2412 232.784 47.1828C232.939 47.1244 233.094 47.0465 233.249 46.9556C233.405 46.8647 233.553 46.7543 233.702 46.6375C233.851 46.5206 233.993 46.3973 234.122 46.2674C234.439 45.9688 234.749 45.6312 235.053 45.2547L235.202 47.5529C235.098 47.6308 234.969 47.7217 234.807 47.8385C234.652 47.9489 234.478 48.0722 234.284 48.2021C234.09 48.3319 233.883 48.4552 233.663 48.5851C233.437 48.7149 233.217 48.8318 232.991 48.9292C232.764 49.0265 232.538 49.1109 232.312 49.1759C232.086 49.2408 231.866 49.2732 231.665 49.2732C231.342 49.2732 231.064 49.1953 230.825 49.033C230.586 48.8707 230.392 48.663 230.237 48.4163C230.081 48.1696 229.972 47.8904 229.894 47.5983C229.816 47.2997 229.778 47.0205 229.778 46.7608C229.778 46.5726 229.803 46.3648 229.855 46.1376C229.907 45.9104 229.965 45.6767 230.043 45.443C230.12 45.2092 230.204 44.982 230.295 44.7613C230.385 44.5406 230.476 44.3393 230.553 44.1705C230.631 43.9952 230.702 43.8524 230.767 43.7421C230.825 43.6317 230.864 43.5668 230.883 43.5473L230.702 43.5213C230.605 43.5862 230.437 43.7421 230.211 44.0017C229.978 44.2549 229.713 44.5795 229.422 44.969C229.131 45.3586 228.827 45.8 228.517 46.2869C228.207 46.7738 227.922 47.2737 227.67 47.7931C227.541 48.0527 227.437 48.2735 227.36 48.4617C227.282 48.65 227.198 48.8058 227.12 48.9227C227.043 49.0395 226.959 49.1239 226.868 49.1888C226.778 49.2473 226.661 49.2797 226.513 49.2797C226.325 49.2797 226.177 49.2278 226.067 49.1239C225.957 49.0201 225.873 48.8837 225.814 48.7149C225.756 48.5461 225.717 48.3514 225.705 48.1371C225.685 47.9229 225.679 47.6957 225.679 47.4685C225.679 47.0725 225.679 46.5531 225.692 45.9169C225.698 45.2742 225.73 44.5665 225.776 43.7875C225.821 43.0085 225.905 42.2035 226.028 41.366C226.151 40.5285 226.274 39.6975 226.39 38.8731C226.513 38.0486 226.687 37.2565 226.926 36.51C227.166 35.7634 227.457 35.1077 227.799 34.5364C228.142 33.9651 228.543 33.5172 229.002 33.1796C229.461 32.842 229.991 32.6797 230.586 32.6797C230.896 32.6797 231.148 32.7251 231.349 32.816C231.549 32.9069 231.704 33.0367 231.821 33.2055C231.937 33.3743 232.021 33.5756 232.066 33.8093C232.112 34.043 232.137 34.3092 232.137 34.5948C232.137 35.0233 232.079 35.5037 231.956 36.0231C231.834 36.5489 231.678 37.0878 231.478 37.6526C231.278 38.2174 231.058 38.7887 230.806 39.3664C230.553 39.9442 230.295 40.509 230.03 41.0479C229.765 41.5932 229.506 42.1061 229.247 42.5865C228.995 43.0669 228.769 43.4954 228.575 43.8589L228.75 43.9823L228.737 44.0017ZM229.5 38.5679C229.836 37.685 230.081 36.9449 230.237 36.3412C230.392 35.7374 230.463 35.2895 230.463 35.0038C230.463 34.5689 230.405 34.3481 230.282 34.3481C230.133 34.3481 229.913 34.5948 229.616 35.0817C229.325 35.5686 228.976 36.2827 228.582 37.2176C228.485 37.5357 228.394 37.8603 228.31 38.2044C228.226 38.542 228.161 38.886 228.11 39.2236C228.058 39.5612 228.013 39.8988 227.967 40.2234C227.922 40.548 227.877 40.8596 227.832 41.1517C227.702 41.8334 227.612 42.5021 227.541 43.1578C227.696 42.7942 227.864 42.3982 228.051 41.9762C228.239 41.5478 228.42 41.1258 228.594 40.7103C228.775 40.2948 228.944 39.8988 229.099 39.5287C229.26 39.1587 229.39 38.8406 229.493 38.5809L229.5 38.5679Z" fill="white"/>
<path d="M240.264 47.4363C240.057 47.6245 239.799 47.8323 239.495 48.0465C239.184 48.2608 238.855 48.462 238.499 48.6438C238.144 48.8256 237.782 48.9749 237.413 49.0982C237.045 49.2216 236.689 49.28 236.359 49.28C236.062 49.28 235.81 49.2411 235.609 49.1567C235.402 49.0723 235.241 48.9554 235.111 48.8061C234.982 48.6568 234.898 48.475 234.84 48.2543C234.788 48.04 234.756 47.7998 234.756 47.5402C234.756 47.1766 234.795 46.7546 234.879 46.2677C235.047 45.2679 235.15 44.7031 235.196 44.5798C235.273 44.3331 235.428 43.7878 235.667 42.9438C235.887 42.2557 236.023 41.8077 236.068 41.6C236.094 41.4571 236.172 41.3208 236.308 41.204C236.424 41.1001 236.56 41.0157 236.708 40.9443C236.857 40.8794 237.012 40.8274 237.174 40.795C237.335 40.7625 237.478 40.7495 237.607 40.7495C237.846 40.7495 238.001 40.795 238.092 40.8858C238.176 40.9767 238.221 41.0936 238.221 41.2429C238.221 41.3727 238.189 41.548 238.131 41.7817C238.072 42.0155 238.001 42.2751 237.93 42.5738C237.853 42.8724 237.743 43.2489 237.594 43.7164C237.445 44.1838 237.348 44.5798 237.29 44.9044C237.238 45.2355 237.167 45.5601 237.083 45.8847C236.999 46.2093 236.96 46.5014 236.96 46.7676C236.96 47.0338 236.986 47.235 237.045 47.3843C237.103 47.5337 237.219 47.6116 237.4 47.6116C237.607 47.6116 237.833 47.5401 238.085 47.3973C238.338 47.2545 238.596 47.0792 238.848 46.8715C239.107 46.6702 239.359 46.456 239.605 46.2353C239.85 46.0145 240.07 45.8263 240.258 45.6705V47.4233L240.264 47.4363ZM236.417 38.367C236.417 38.2306 236.443 38.0813 236.501 37.9125C236.56 37.7437 236.65 37.5879 236.779 37.4386C236.909 37.2893 237.083 37.1659 237.297 37.0621C237.51 36.9582 237.782 36.9062 238.105 36.9062C238.305 36.9062 238.493 36.9322 238.674 36.9777C238.855 37.0231 239.003 37.0945 239.139 37.1919C239.269 37.2893 239.378 37.4126 239.456 37.5684C239.534 37.7242 239.572 37.9125 239.572 38.1267C239.572 38.3215 239.54 38.5163 239.475 38.7045C239.411 38.8928 239.314 39.0551 239.172 39.2044C239.036 39.3472 238.861 39.4706 238.648 39.555C238.441 39.6459 238.189 39.6913 237.898 39.6913C237.394 39.6913 237.019 39.568 236.779 39.3278C236.54 39.0876 236.417 38.763 236.417 38.367Z" fill="white"/>
<path d="M243.264 47.6171C243.839 47.6171 244.369 47.5587 244.841 47.4483C245.32 47.3379 245.747 47.1886 246.134 46.9939C246.522 46.8056 246.871 46.5849 247.182 46.3317C247.492 46.0785 247.777 45.8058 248.029 45.5137L248.126 47.4288C247.945 47.669 247.718 47.9028 247.46 48.1235C247.201 48.3507 246.91 48.5455 246.606 48.7143C246.296 48.883 245.973 49.0194 245.63 49.1168C245.288 49.2206 244.951 49.2661 244.622 49.2661C244.583 49.2661 244.531 49.2661 244.473 49.2466C244.415 49.2336 244.311 49.2141 244.163 49.1817C244.014 49.1492 243.801 49.1103 243.523 49.0583C243.245 49.0064 242.87 48.9415 242.398 48.8701V49.0259C242.398 50.0776 242.307 51.0319 242.126 51.8953C241.945 52.7523 241.706 53.4859 241.402 54.0961C241.098 54.7064 240.755 55.1738 240.368 55.4984C239.98 55.8295 239.572 55.9918 239.152 55.9918C238.822 55.9918 238.551 55.9139 238.338 55.7451C238.124 55.5763 237.943 55.3621 237.82 55.0894C237.691 54.8167 237.6 54.4921 237.542 54.1221C237.491 53.752 237.458 53.3625 237.458 52.9535C237.458 52.7133 237.497 52.4472 237.568 52.142C237.646 51.8434 237.743 51.5253 237.872 51.1942C238.001 50.8631 238.144 50.532 238.299 50.1879C238.454 49.8439 238.616 49.5128 238.784 49.1947C239.172 48.4481 239.618 47.6755 240.115 46.8835C240.18 46.4485 240.245 46.0006 240.309 45.5462C240.374 45.0917 240.458 44.6373 240.562 44.2023C240.665 43.7609 240.82 43.2999 241.04 42.8195C241.253 42.3391 241.486 41.9496 241.732 41.6574C241.977 41.3653 242.268 41.1316 242.611 40.9628C242.954 40.794 243.367 40.7031 243.846 40.7031C244.195 40.7031 244.525 40.7486 244.829 40.8459C245.132 40.9433 245.397 41.0991 245.63 41.3134C245.856 41.5276 246.037 41.8068 246.173 42.1443C246.303 42.4819 246.367 42.8974 246.367 43.3908C246.367 43.9167 246.309 44.3257 246.193 44.6178C246.018 45.0593 245.798 45.4423 245.527 45.7669C245.255 46.0915 244.932 46.3901 244.557 46.6758C244.182 46.9549 243.736 47.2081 243.219 47.4353L243.27 47.6106L243.264 47.6171ZM239.094 53.0639C239.094 53.1093 239.107 53.1872 239.126 53.2846C239.146 53.3885 239.178 53.4924 239.223 53.5962C239.268 53.7001 239.327 53.791 239.404 53.8689C239.482 53.9468 239.572 53.9922 239.682 53.9922C239.779 53.9922 239.857 53.9403 239.921 53.8364C239.986 53.7326 240.038 53.5897 240.077 53.408C240.115 53.2327 240.148 53.0314 240.161 52.8042C240.18 52.5835 240.193 52.3498 240.199 52.1161C240.206 51.8823 240.219 51.6551 240.219 51.4279C240.219 51.2072 240.232 51.0059 240.245 50.8242C240.264 50.5125 240.277 50.2529 240.284 50.0386C240.29 49.8244 240.303 49.6426 240.309 49.4998C240.309 49.3375 240.322 49.2012 240.329 49.0843C240.219 49.2726 240.115 49.4933 240.012 49.7465C239.909 49.9997 239.812 50.2594 239.721 50.5255C239.631 50.7982 239.546 51.0644 239.469 51.337C239.391 51.6097 239.333 51.8564 239.275 52.0901C239.223 52.3238 239.178 52.5251 239.146 52.6938C239.113 52.8626 239.1 52.986 239.1 53.0574L239.094 53.0639ZM242.171 46.7731C242.514 46.6044 242.811 46.4161 243.064 46.2148C243.303 46.0071 243.516 45.7864 243.704 45.5526C243.781 45.5397 243.956 45.2865 244.24 44.7801C244.428 44.3516 244.551 44.0205 244.602 43.7933C244.628 43.67 244.647 43.5271 244.66 43.3648C244.667 43.2025 244.654 43.0467 244.609 42.8974C244.563 42.7546 244.492 42.6313 244.389 42.5274C244.285 42.4235 244.137 42.3716 243.949 42.3716C243.736 42.3716 243.548 42.43 243.387 42.5404C243.225 42.6572 243.089 42.8065 242.967 43.0078C242.85 43.2025 242.753 43.4363 242.676 43.7024C242.598 43.9686 242.508 44.2997 242.398 44.6957C242.294 45.0917 242.23 45.4488 242.21 45.7864C242.191 46.1175 242.178 46.4485 242.178 46.7796L242.171 46.7731Z" fill="white"/>
<path d="M246.833 46.0201C247.156 45.7409 247.415 45.5072 247.615 45.3189C247.815 45.1307 248.016 44.9164 248.216 44.6697C248.417 44.423 248.578 44.2218 248.695 44.0595C248.811 43.9037 248.953 43.7154 249.115 43.5012C249.277 43.2869 249.47 43.0208 249.697 42.7092C249.929 42.3975 250.227 42.008 250.589 41.5406C250.667 41.4367 250.744 41.3328 250.841 41.2355C250.932 41.1381 251.035 41.0472 251.145 40.9693C251.255 40.8914 251.384 40.8265 251.513 40.7745C251.649 40.7226 251.798 40.7031 251.966 40.7031C252.244 40.7031 252.457 40.7356 252.606 40.794C252.755 40.8524 252.865 40.9303 252.936 41.0147C253.007 41.0991 253.046 41.1965 253.059 41.2874C253.072 41.3848 253.078 41.4692 253.078 41.5341C253.078 41.6769 253.026 41.8262 252.916 41.995C252.806 42.1638 252.69 42.3261 252.554 42.4819C252.425 42.6377 252.296 42.7806 252.179 42.9169C252.063 43.0467 251.992 43.1441 251.979 43.209C251.979 43.3908 251.992 43.5531 252.018 43.7024C252.044 43.8517 252.082 43.9946 252.121 44.1374C252.166 44.2802 252.212 44.4295 252.257 44.5918C252.302 44.7541 252.347 44.9359 252.393 45.1437C252.438 45.3514 252.444 45.6435 252.412 46.0071C252.38 46.3771 252.367 46.7407 252.367 47.1172C252.574 46.9744 252.794 46.851 253.033 46.7342C253.272 46.6238 253.518 46.5005 253.776 46.3836C254.035 46.2603 254.3 46.1239 254.571 45.9746C254.843 45.8253 255.121 45.65 255.393 45.4358V47.3899C255.043 47.6561 254.636 47.9092 254.164 48.143C253.699 48.3767 253.207 48.5844 252.69 48.7597C252.173 48.935 251.656 49.0778 251.132 49.1817C250.608 49.2856 250.111 49.3375 249.639 49.3375C249.302 49.3375 248.986 49.305 248.695 49.2466C248.404 49.1882 248.145 49.0908 247.925 48.9609C247.705 48.8311 247.524 48.6623 247.389 48.4546C247.253 48.2468 247.169 47.9936 247.137 47.695C247.059 47.7145 246.975 47.7275 246.897 47.7275C246.82 47.7275 246.742 47.734 246.671 47.734C246.581 47.734 246.49 47.734 246.412 47.7275C246.335 47.7275 246.264 47.7015 246.206 47.6625C246.147 47.6236 246.102 47.5652 246.07 47.4808C246.037 47.3964 246.018 47.273 246.018 47.1172C246.018 46.9744 246.05 46.8511 246.122 46.7277C246.193 46.6108 246.27 46.5005 246.361 46.4096C246.451 46.3187 246.542 46.2343 246.639 46.1629C246.729 46.0915 246.8 46.0395 246.846 45.9941L246.833 46.0201ZM247.906 47.1367C247.977 47.1367 248.048 47.1821 248.132 47.2665C248.216 47.3509 248.313 47.4483 248.423 47.5522C248.533 47.6561 248.662 47.7534 248.805 47.8378C248.947 47.9222 249.108 47.9677 249.296 47.9677C249.522 47.9677 249.703 47.9287 249.852 47.8573C250.001 47.7794 250.117 47.682 250.201 47.5587C250.285 47.4353 250.35 47.286 250.382 47.1237C250.414 46.9549 250.434 46.7861 250.434 46.6044C250.434 46.4485 250.421 46.2862 250.401 46.1239C250.382 45.9616 250.382 45.7604 250.408 45.5137C250.434 45.2735 250.427 45.0852 250.389 44.9554C250.35 44.8255 250.317 44.7152 250.292 44.6178L247.906 47.1302V47.1367Z" fill="white"/>
</svg>
