<svg width="234" height="50" viewBox="0 0 234 50" fill="none" xmlns="http://www.w3.org/2000/svg">
<path d="M108.037 17.372C109.217 17.372 110.169 16.4272 110.169 15.2563C110.169 14.0854 109.217 13.1406 108.037 13.1406C106.857 13.1406 105.899 14.0912 105.899 15.2563C105.899 16.4272 106.857 17.372 108.037 17.372Z" fill="white"/>
<path d="M106.436 0.678182C106.004 0.249246 105.391 0 104.76 0C104.129 0 103.516 0.24345 103.084 0.672386L92.0848 11.5813L82.044 1.6172L82.0031 9.87712L87.9085 15.7373L82.0031 21.5975V29.0749L92.0848 19.8876L103.078 30.7964C103.516 31.237 104.129 31.4862 104.754 31.4862C105.379 31.4862 105.987 31.237 106.431 30.7964L118.002 19.3137V12.1609L106.436 0.678182ZM104.76 24.061L96.3664 15.7315L104.76 7.40204L113.154 15.7315L104.76 24.061Z" fill="white"/>
<path d="M146.763 15.6004C146.763 18.8522 146.833 23.1184 146.833 27.5932H138.697C138.697 27.6628 138.872 20.1448 138.872 15.0787C137.289 17.9828 134.398 22.7706 132.885 25.1819C132.073 24.2023 129.012 18.1914 126.863 14.8005C126.863 18.4697 126.933 22.7358 126.933 27.599H121.156C121.156 27.599 121.331 20.7824 121.331 15.5019C121.331 11.6936 121.051 3.26562 121.051 3.26562H128.837C129.894 4.87124 132.996 12.2501 134.474 14.7657C135.391 12.8413 138.948 5.39871 140.04 3.26562H147.19C147.19 3.26562 146.769 11.7632 146.769 15.6062L146.763 15.6004Z" fill="white"/>
<path d="M174.123 27.5931C174.123 27.5931 168.977 27.5236 164.859 27.6974L163.556 22.6604H157.038C156.792 24.3413 156.576 26.0165 156.477 27.5873H150.595C151.267 19.2289 157.219 3.25391 157.219 3.25391H166.132L174.129 27.5873L174.123 27.5931ZM162.388 18.1855L160.169 9.72272C160.169 9.72272 158.936 13.4962 157.914 18.1855H162.388Z" fill="white"/>
<path d="M199.987 21.7542L199.246 28.0839C199.246 28.0839 198.364 28.223 196.535 28.223C191.6 28.223 188.749 23.9221 187.411 19.8646C186.319 20.0385 185.577 20.0733 185.577 20.0733C185.612 22.6585 185.647 24.5481 185.647 27.5912H177.511C177.511 27.5912 177.686 20.7746 177.686 15.4941C177.686 11.6858 177.406 3.25781 177.406 3.25781H186.004C191.886 3.36215 198.089 4.58519 198.089 10.8453C198.089 14.5145 195.799 16.8968 193.895 17.8011C194.987 19.9341 196.465 21.8933 198.58 21.8933C199.567 21.8933 199.987 21.7542 199.987 21.7542ZM190.122 11.2975C190.122 8.04566 187.195 8.25433 185.577 8.32389C185.507 10.6656 185.577 13.5349 185.577 15.3839C187.16 15.3492 190.122 15.0014 190.122 11.2917V11.2975Z" fill="white"/>
<path d="M211.413 15.5984C211.413 18.8502 211.518 23.1164 211.518 27.5912H203.346C203.346 27.5912 203.521 20.7746 203.521 15.4941C203.521 11.6858 203.276 3.25781 203.276 3.25781H211.839C211.839 3.25781 211.418 11.7554 211.418 15.5984H211.413Z" fill="white"/>
<path d="M234 20.8104C234 25.633 229.386 28.224 223.889 28.224C218.953 28.224 215.998 26.091 215.998 26.091L217.692 21.2336C217.692 21.2336 220.898 23.1232 223.784 23.1232C225.583 23.1232 226.214 22.4218 226.214 21.3727C226.214 18.0861 216.068 18.0165 216.068 10.2203C216.068 5.81505 220.542 2.63281 226.039 2.63281C230.303 2.63281 233.509 4.69634 233.509 4.69634L231.886 9.37986C231.886 9.37986 228.854 7.73367 226.214 7.73367C224.806 7.73367 223.819 8.26115 223.819 9.86676C223.819 12.452 234 13.2229 234 20.8104Z" fill="white"/>
<path d="M22.1611 15.4593C22.1611 23.6381 18.0723 27.5912 8.24178 27.5912H0.10514C0.10514 27.5912 0.245326 20.7746 0.245326 15.4941C0.245326 11.6858 0 3.25781 0 3.25781H8.56304C17.5116 3.25781 22.1611 6.89217 22.1611 15.4593ZM13.9193 15.7027C13.9193 11.1931 12.8971 8.49778 10.257 8.49778H8.17753C8.21258 11.1178 8.14248 13.8131 8.14248 15.5926V22.2353H10.4672C13.1074 22.2353 13.9193 20.2414 13.9193 15.6969V15.7027Z" fill="white"/>
<path d="M65.4728 21.5784C65.4728 21.5784 64.9821 25.0389 64.9121 27.5951H47.7159C47.7159 27.5951 47.9963 19.1671 47.9963 15.3936C47.9963 10.0783 47.821 3.26172 47.821 3.26172H56.1387L56.0686 21.8625L65.4786 21.5842L65.4728 21.5784Z" fill="white"/>
<path d="M77.0674 15.5984C77.0674 18.8502 77.1725 23.1164 77.1725 27.5912H69.0008C69.0008 27.5912 69.176 20.7746 69.176 15.4941C69.176 11.6858 68.9307 3.25781 68.9307 3.25781H77.4938C77.4938 3.25781 77.0732 11.7554 77.0732 15.5984H77.0674Z" fill="white"/>
<path d="M33.6505 21.9281C33.6505 21.789 33.6622 20.2066 33.6739 18.1662H41.0512V12.5959H33.7148C33.7323 10.5787 33.7498 8.90933 33.7615 8.4688H42.4647V3.25781H25.4496C25.4496 3.25781 25.695 11.6858 25.695 15.4941C25.695 20.7746 25.5548 27.5912 25.5548 27.5912H43.1715C43.2066 25.0408 43.7323 21.5745 43.7323 21.5745L33.6564 21.9223L33.6505 21.9281Z" fill="white"/>
<path d="M154.234 44.2891C154.234 44.2891 154.24 44.1094 154.252 43.8196C154.263 43.5297 154.292 43.153 154.333 42.6719C154.374 42.1966 154.427 41.6459 154.485 41.0199C154.544 40.3939 154.62 39.7331 154.725 39.0375C154.83 38.3419 154.947 37.6348 155.087 36.9044C155.227 36.1741 155.396 35.4669 155.589 34.7713C155.782 34.0816 156.004 33.4266 156.249 32.8179C156.5 32.2035 156.775 31.6703 157.084 31.2123C157.394 30.7544 157.739 30.3892 158.118 30.1226C158.498 29.856 158.919 29.7227 159.374 29.7227C159.549 29.7227 159.736 29.7516 159.929 29.8154C160.122 29.8734 160.303 29.9719 160.461 30.111C160.618 30.2443 160.753 30.424 160.858 30.6501C160.963 30.8704 161.016 31.1486 161.016 31.4732C161.016 31.7746 160.969 32.1224 160.87 32.5165C160.77 32.9107 160.63 33.328 160.455 33.7744C160.28 34.2207 160.063 34.6844 159.824 35.1655C159.579 35.6466 159.316 36.1277 159.03 36.6088C158.743 37.0899 158.44 37.5594 158.124 38.0231C157.809 38.4869 157.482 38.9216 157.155 39.3273L157.137 39.4491C157.248 39.4027 157.33 39.3737 157.382 39.3621C157.435 39.3505 157.493 39.3389 157.552 39.3389C157.622 39.3389 157.68 39.3389 157.727 39.3563C157.774 39.3679 157.809 39.3795 157.85 39.3911C157.885 39.4027 157.926 39.4143 157.961 39.4259C158.002 39.4375 158.048 39.4433 158.101 39.4433C158.615 39.4433 159.065 39.3853 159.462 39.2636C159.853 39.1419 160.186 39.0085 160.455 38.8578C160.77 38.6897 161.045 38.4927 161.278 38.2666L161.109 40.1446C160.764 40.3301 160.408 40.475 160.034 40.5794C159.66 40.6837 159.316 40.7591 159 40.8112C158.632 40.8692 158.264 40.904 157.891 40.9214C158.089 41.2575 158.27 41.6111 158.434 41.9763C158.574 42.2893 158.697 42.6371 158.813 43.0255C158.924 43.4138 158.983 43.8022 158.983 44.2021C158.983 44.2485 158.977 44.347 158.959 44.492C158.948 44.6427 158.924 44.8224 158.889 45.0368C158.854 45.2513 158.813 45.4889 158.749 45.7556C158.691 46.0164 158.615 46.2831 158.516 46.5497C158.422 46.8163 158.305 47.0772 158.171 47.3264C158.037 47.5757 157.879 47.7959 157.692 47.9872C157.511 48.1785 157.301 48.335 157.067 48.4509C156.833 48.5668 156.565 48.6306 156.267 48.6306C155.986 48.6306 155.735 48.5668 155.525 48.4393C155.315 48.3118 155.134 48.1379 154.988 47.9176C154.836 47.6974 154.713 47.4481 154.614 47.1583C154.514 46.8685 154.433 46.5613 154.38 46.2367C154.322 45.9121 154.281 45.5817 154.257 45.2455C154.234 44.9093 154.222 44.5847 154.222 44.2717L154.234 44.2891ZM156.29 40.2316C156.29 40.2316 156.243 40.2895 156.22 40.4055C156.197 40.5214 156.173 40.6721 156.162 40.846C156.144 41.0257 156.127 41.2749 156.103 41.6053C156.074 41.9357 156.056 42.2024 156.039 42.411C156.021 42.6197 156.01 42.8168 155.998 43.0081C155.986 43.1936 155.981 43.3443 155.981 43.4544C155.981 44.2079 155.998 44.8108 156.021 45.2571C156.045 45.7034 156.086 46.0454 156.132 46.2773C156.179 46.5091 156.226 46.6598 156.278 46.7294C156.331 46.7989 156.389 46.8337 156.448 46.8337C156.623 46.8337 156.769 46.7526 156.874 46.5961C156.979 46.4396 157.061 46.2367 157.114 45.9874C157.166 45.744 157.207 45.4774 157.225 45.1875C157.242 44.8977 157.254 44.6195 157.254 44.3528C157.254 44.1732 157.254 43.9529 157.236 43.692C157.225 43.4312 157.213 43.1472 157.19 42.84C157.166 42.5386 157.125 42.1908 157.061 41.8082C156.997 41.4256 156.903 41.1358 156.787 40.9445C156.67 40.7533 156.57 40.5852 156.5 40.446C156.424 40.3069 156.36 40.2374 156.296 40.2374L156.29 40.2316ZM158.259 32.1688C157.955 32.8527 157.704 33.5019 157.505 34.1164C157.324 34.6786 157.19 35.1829 157.102 35.6176C157.014 36.0524 156.95 36.4349 156.909 36.7711C156.874 37.1015 156.833 37.4087 156.798 37.6927C157.131 37.1015 157.476 36.5277 157.826 35.9654C158.183 35.4032 158.492 34.8815 158.755 34.3888C159.018 33.8961 159.246 33.4266 159.438 32.9687C159.625 32.5107 159.719 32.1861 159.719 31.9891C159.719 31.7166 159.678 31.5195 159.602 31.392C159.526 31.2645 159.398 31.2007 159.216 31.2007C158.93 31.2007 158.743 31.2645 158.644 31.3862C158.568 31.4906 158.44 31.7456 158.253 32.163L158.259 32.1688Z" fill="#E1251B"/>
<path d="M165.291 42.3549C165.104 42.523 164.871 42.7085 164.596 42.8998C164.316 43.0911 164.018 43.2708 163.697 43.4331C163.375 43.5954 163.048 43.7287 162.715 43.8388C162.382 43.949 162.061 44.0011 161.763 44.0011C161.495 44.0011 161.267 43.9663 161.086 43.891C160.899 43.8156 160.753 43.7113 160.636 43.578C160.519 43.4447 160.443 43.2824 160.391 43.0853C160.344 42.894 160.315 42.6795 160.315 42.4477C160.315 42.1231 160.35 41.7463 160.426 41.3116C160.577 40.4189 160.671 39.9146 160.712 39.8045C160.782 39.5842 160.922 39.0973 161.138 38.3438C161.337 37.7294 161.454 37.3294 161.5 37.1439C161.524 37.0164 161.6 36.8947 161.716 36.7904C161.822 36.6976 161.944 36.6223 162.079 36.5585C162.213 36.5005 162.353 36.4542 162.499 36.4252C162.645 36.3962 162.774 36.3846 162.891 36.3846C163.107 36.3846 163.247 36.4252 163.329 36.5063C163.405 36.5875 163.445 36.6918 163.445 36.8251C163.445 36.9411 163.416 37.0976 163.364 37.3062C163.311 37.5149 163.247 37.7468 163.183 38.0134C163.112 38.28 163.013 38.6162 162.879 39.0336C162.745 39.4509 162.657 39.8045 162.604 40.0943C162.558 40.3899 162.493 40.6798 162.417 40.9696C162.341 41.2594 162.306 41.5203 162.306 41.7579C162.306 41.9956 162.33 42.1752 162.382 42.3086C162.435 42.4419 162.54 42.5114 162.704 42.5114C162.891 42.5114 163.095 42.4477 163.323 42.3202C163.551 42.1926 163.784 42.0361 164.012 41.8506C164.246 41.671 164.473 41.4797 164.695 41.2826C164.917 41.0855 165.116 40.9174 165.285 40.7783V42.3433L165.291 42.3549ZM161.816 34.2573C161.816 34.1356 161.839 34.0023 161.892 33.8516C161.944 33.7009 162.026 33.5618 162.143 33.4284C162.26 33.2951 162.417 33.185 162.61 33.0922C162.803 32.9995 163.048 32.9531 163.34 32.9531C163.521 32.9531 163.691 32.9763 163.854 33.0169C164.018 33.0575 164.152 33.1212 164.275 33.2082C164.392 33.2951 164.491 33.4052 164.561 33.5444C164.631 33.6835 164.666 33.8516 164.666 34.0429C164.666 34.2167 164.637 34.3906 164.579 34.5587C164.52 34.7268 164.433 34.8717 164.304 35.0051C164.181 35.1326 164.024 35.2427 163.831 35.3181C163.644 35.3992 163.416 35.4398 163.153 35.4398C162.698 35.4398 162.359 35.3297 162.143 35.1152C161.927 34.9007 161.816 34.6109 161.816 34.2573Z" fill="#E1251B"/>
<path d="M164.52 41.091C164.812 40.8418 165.046 40.6331 165.227 40.465C165.408 40.2969 165.589 40.1056 165.77 39.8854C165.951 39.6651 166.097 39.4854 166.202 39.3405C166.308 39.2014 166.436 39.0333 166.582 38.842C166.728 38.6507 166.903 38.4131 167.114 38.1348C167.324 37.8566 167.593 37.5088 167.92 37.0915C167.99 36.9987 168.06 36.906 168.148 36.8191C168.229 36.7321 168.323 36.651 168.422 36.5814C168.521 36.5118 168.632 36.4539 168.755 36.4075C168.878 36.3611 169.012 36.3438 169.164 36.3438C169.415 36.3438 169.602 36.3727 169.742 36.4249C169.876 36.4771 169.976 36.5466 170.04 36.622C170.104 36.6973 170.139 36.7843 170.151 36.8654C170.163 36.9524 170.169 37.0277 170.169 37.0857C170.169 37.2132 170.122 37.3465 170.022 37.4972C169.923 37.6479 169.818 37.7929 169.695 37.932C169.573 38.0711 169.462 38.1986 169.357 38.3203C169.251 38.4363 169.187 38.5232 169.176 38.5812C169.176 38.7435 169.187 38.8884 169.211 39.0217C169.234 39.155 169.269 39.2825 169.304 39.4101C169.345 39.5376 169.386 39.6709 169.427 39.8158C169.468 39.9607 169.508 40.123 169.549 40.3085C169.59 40.494 169.596 40.7548 169.567 41.0794C169.538 41.4098 169.526 41.7344 169.526 42.0706C169.713 41.9431 169.912 41.833 170.128 41.7286C170.344 41.6301 170.566 41.52 170.799 41.4156C171.033 41.3055 171.273 41.1838 171.518 41.0505C171.763 40.9171 172.008 40.7606 172.26 40.5693V42.3141C171.944 42.5517 171.576 42.7778 171.15 42.9865C170.729 43.1951 170.285 43.3806 169.818 43.5371C169.351 43.6936 168.883 43.8211 168.41 43.9139C167.937 44.0066 167.487 44.053 167.061 44.053C166.757 44.053 166.471 44.024 166.208 43.9719C165.945 43.9197 165.712 43.8327 165.513 43.7168C165.315 43.6009 165.151 43.4502 165.028 43.2647C164.906 43.0792 164.83 42.8531 164.801 42.5865C164.73 42.6039 164.655 42.6155 164.584 42.6155C164.514 42.6155 164.444 42.6213 164.38 42.6213C164.298 42.6213 164.222 42.6213 164.146 42.6155C164.076 42.6155 164.012 42.5923 163.959 42.5575C163.907 42.5227 163.866 42.4706 163.837 42.3952C163.808 42.3199 163.79 42.2097 163.79 42.0706C163.79 41.9431 163.819 41.833 163.884 41.7228C163.948 41.6185 164.018 41.52 164.1 41.4388C164.181 41.3577 164.263 41.2823 164.351 41.2185C164.433 41.1548 164.497 41.1084 164.538 41.0678L164.52 41.091ZM165.49 42.088C165.554 42.088 165.618 42.1286 165.694 42.2039C165.77 42.2793 165.858 42.3662 165.957 42.459C166.056 42.5517 166.167 42.6387 166.302 42.714C166.43 42.7894 166.576 42.83 166.746 42.83C166.95 42.83 167.114 42.7952 167.248 42.7314C167.382 42.6619 167.487 42.5749 167.563 42.4648C167.639 42.3546 167.698 42.2213 167.727 42.0764C167.756 41.9257 167.774 41.775 167.774 41.6127C167.774 41.4736 167.762 41.3287 167.744 41.1838C167.727 41.0389 167.727 40.8592 167.75 40.6389C167.774 40.4244 167.768 40.2563 167.733 40.1404C167.698 40.0245 167.669 39.9259 167.645 39.839L165.49 42.0822V42.088Z" fill="#E1251B"/>
<path d="M174.129 39.2887C174.339 39.0046 174.579 38.6974 174.841 38.367C175.104 38.0424 175.461 37.6599 175.904 37.2309C176.348 36.802 176.711 36.4948 176.991 36.3093C177.271 36.1238 177.54 36.0253 177.785 36.0253C177.85 36.0253 177.92 36.0369 177.996 36.06C178.072 36.0832 178.147 36.1296 178.218 36.1876C178.288 36.2513 178.346 36.3383 178.393 36.4484C178.44 36.5585 178.463 36.7093 178.463 36.8831C178.463 37.2367 178.416 37.5845 178.317 37.9265C178.218 38.2627 178.031 38.6742 177.756 39.1553C177.482 39.6364 177.295 40.0538 177.201 40.4074C177.108 40.761 177.055 41.1261 177.055 41.5087C177.055 41.7174 177.084 41.8855 177.149 42.013C177.213 42.1405 177.289 42.2043 177.388 42.2043C177.511 42.2043 177.645 42.1811 177.785 42.1289C177.926 42.0767 178.066 42.0072 178.206 41.926C178.346 41.8449 178.48 41.7463 178.621 41.642C178.755 41.5377 178.883 41.4275 179 41.3116C179.286 41.045 179.567 40.7436 179.841 40.4074L179.976 42.4593C179.882 42.5289 179.765 42.61 179.619 42.7144C179.479 42.8129 179.322 42.923 179.146 43.039C178.971 43.1549 178.784 43.265 178.586 43.3809C178.387 43.4969 178.183 43.6012 177.978 43.6882C177.774 43.7751 177.569 43.8505 177.365 43.9084C177.16 43.9664 176.962 43.9954 176.781 43.9954C176.489 43.9954 176.237 43.9258 176.021 43.7809C175.805 43.636 175.63 43.4505 175.49 43.2302C175.35 43.01 175.25 42.7607 175.18 42.4999C175.11 42.2332 175.075 41.984 175.075 41.7521C175.075 41.584 175.098 41.3986 175.145 41.1957C175.192 40.9928 175.244 40.7841 175.315 40.5755C175.385 40.3668 175.461 40.1639 175.542 39.9668C175.624 39.7698 175.706 39.5901 175.776 39.4394C175.846 39.2829 175.91 39.1553 175.969 39.0568C176.021 38.9583 176.056 38.9003 176.074 38.8829L175.91 38.8597C175.823 38.9177 175.671 39.0568 175.466 39.2887C175.256 39.5147 175.017 39.8045 174.754 40.1523C174.491 40.5001 174.216 40.8943 173.936 41.329C173.656 41.7637 173.399 42.2101 173.171 42.6738C173.054 42.9056 172.961 43.1027 172.89 43.2708C172.82 43.4389 172.744 43.578 172.674 43.6824C172.604 43.7867 172.528 43.862 172.447 43.92C172.365 43.9722 172.26 44.0012 172.125 44.0012C171.956 44.0012 171.822 43.9548 171.722 43.862C171.623 43.7693 171.547 43.6476 171.494 43.4969C171.442 43.3462 171.407 43.1723 171.395 42.981C171.378 42.7897 171.372 42.5868 171.372 42.384C171.372 42.0304 171.372 41.5667 171.384 40.9986C171.389 40.4248 171.419 39.7929 171.459 39.0974C171.5 38.4018 171.576 37.6831 171.687 36.9353C171.798 36.1876 171.909 35.4456 172.014 34.7095C172.125 33.9733 172.283 33.2662 172.499 32.5996C172.715 31.933 172.978 31.3476 173.288 30.8375C173.597 30.3274 173.959 29.9274 174.374 29.626C174.789 29.3246 175.268 29.1797 175.805 29.1797C176.086 29.1797 176.313 29.2203 176.494 29.3014C176.676 29.3826 176.816 29.4985 176.921 29.6492C177.026 29.7999 177.102 29.9796 177.143 30.1883C177.184 30.3969 177.207 30.6346 177.207 30.8896C177.207 31.2722 177.154 31.7011 177.044 32.1648C176.933 32.6344 176.792 33.1155 176.611 33.6198C176.43 34.124 176.232 34.6341 176.004 35.15C175.776 35.6659 175.542 36.1702 175.303 36.6513C175.063 37.1382 174.83 37.5961 174.602 38.025C174.374 38.454 174.17 38.8365 173.994 39.1611L174.152 39.2713L174.129 39.2887ZM174.818 34.437C175.122 33.6487 175.344 32.9879 175.484 32.4489C175.624 31.9098 175.688 31.5099 175.688 31.2548C175.688 30.8664 175.636 30.6694 175.525 30.6694C175.39 30.6694 175.192 30.8896 174.923 31.3244C174.66 31.7591 174.345 32.3967 173.989 33.2314C173.901 33.5154 173.819 33.8052 173.743 34.1124C173.667 34.4139 173.609 34.7211 173.562 35.0225C173.516 35.3239 173.475 35.6253 173.434 35.9151C173.393 36.205 173.352 36.4832 173.311 36.744C173.194 37.3527 173.112 37.9497 173.048 38.5351C173.188 38.2105 173.34 37.8569 173.51 37.4802C173.679 37.0976 173.843 36.7208 174 36.3499C174.164 35.9789 174.316 35.6253 174.456 35.2949C174.602 34.9645 174.719 34.6805 174.812 34.4486L174.818 34.437Z" fill="#E1251B"/>
<path d="M187.359 37.4281C187.265 37.2484 187.16 37.034 187.055 36.7905C186.95 36.5471 186.857 36.292 186.763 36.0196C186.675 35.7471 186.6 35.4805 186.541 35.2081C186.483 34.9356 186.453 34.6806 186.453 34.4314C186.453 34.0024 186.541 33.5909 186.722 33.1967C186.903 32.8026 187.143 32.4548 187.446 32.1534C187.75 31.8519 188.101 31.6085 188.498 31.4346C188.895 31.2549 189.316 31.168 189.754 31.168C190.133 31.168 190.484 31.2259 190.799 31.3477C191.121 31.4694 191.395 31.6375 191.623 31.8519C191.851 32.0664 192.032 32.3157 192.154 32.6055C192.283 32.8953 192.347 33.2141 192.347 33.5561C192.347 33.8459 192.3 34.1531 192.201 34.4719C192.102 34.7907 191.938 35.1153 191.716 35.4457C191.494 35.7761 191.208 36.1007 190.852 36.4311C190.501 36.7557 190.069 37.0745 189.567 37.3817C189.631 37.5035 189.736 37.689 189.882 37.9208C190.028 38.1585 190.198 38.4193 190.385 38.7091C190.571 38.9989 190.758 39.3062 190.963 39.625C191.161 39.9438 191.348 40.251 191.518 40.5466C191.629 40.4712 191.71 40.3901 191.781 40.3031C191.845 40.222 191.892 40.135 191.927 40.0539C191.956 39.9727 191.979 39.8858 191.985 39.7989C191.991 39.7119 191.997 39.625 191.997 39.538C191.997 39.3409 191.973 39.1728 191.927 39.0337C191.88 38.8946 191.816 38.7555 191.728 38.6222C191.64 38.4889 191.541 38.3439 191.418 38.1932C191.302 38.0425 191.167 37.8513 191.027 37.631C191.027 37.631 191.039 37.6078 191.068 37.5846C191.091 37.5614 191.126 37.5324 191.156 37.4977C191.185 37.4629 191.22 37.4397 191.255 37.4165C191.284 37.3933 191.307 37.3817 191.319 37.3817C191.401 37.3817 191.518 37.4165 191.67 37.4803C191.821 37.544 191.985 37.6368 192.16 37.7527C192.335 37.8686 192.522 38.0078 192.709 38.1701C192.896 38.3324 193.066 38.5178 193.217 38.7207C193.369 38.9236 193.492 39.1439 193.591 39.3757C193.691 39.6134 193.737 39.8568 193.737 40.1119C193.737 40.4307 193.644 40.7553 193.457 41.0973C193.27 41.4392 192.955 41.7754 192.511 42.1116C192.528 42.1116 192.581 42.1464 192.674 42.2102C192.768 42.2797 192.873 42.3551 192.996 42.4478C193.118 42.5406 193.235 42.6275 193.352 42.7203C193.469 42.813 193.556 42.8826 193.615 42.9289C193.696 43.0043 193.737 43.1086 193.737 43.2361C193.737 43.3521 193.702 43.4738 193.632 43.6071C193.562 43.7404 193.474 43.8621 193.364 43.9723C193.253 44.0824 193.136 44.1752 193.001 44.2505C192.867 44.3259 192.739 44.3606 192.616 44.3606C192.493 44.3606 192.388 44.3259 192.295 44.2505C192.224 44.1983 192.125 44.1056 191.997 43.9781C191.868 43.8506 191.74 43.723 191.617 43.5897C191.489 43.4564 191.383 43.3405 191.284 43.2361C191.191 43.1318 191.144 43.0796 191.144 43.0738C190.899 43.2477 190.618 43.4042 190.303 43.5433C190.028 43.6593 189.701 43.7694 189.321 43.8679C188.942 43.9665 188.51 44.0129 188.019 44.0129C187.394 44.0129 186.839 43.9433 186.366 43.81C185.893 43.6767 185.496 43.4912 185.174 43.2535C184.853 43.0159 184.614 42.7434 184.456 42.4304C184.292 42.1174 184.211 41.7812 184.211 41.4219C184.211 41.0973 184.275 40.7553 184.409 40.4133C184.538 40.0655 184.736 39.7177 184.999 39.3699C185.262 39.0221 185.589 38.6859 185.98 38.3613C186.372 38.0367 186.827 37.7295 187.353 37.4455L187.359 37.4281ZM188.083 42.5232C188.416 42.5232 188.749 42.4652 189.064 42.3493C189.386 42.2334 189.684 42.0826 189.964 41.903C189.742 41.6363 189.549 41.3987 189.374 41.1784C189.205 40.9581 189.035 40.7263 188.878 40.4886C188.714 40.2452 188.545 39.9785 188.369 39.6887C188.194 39.3931 187.996 39.0395 187.768 38.628C187.522 38.8135 187.3 39.0105 187.108 39.225C186.915 39.4337 186.746 39.6481 186.617 39.8684C186.483 40.0887 186.383 40.3031 186.313 40.5176C186.243 40.7321 186.208 40.9408 186.208 41.1436C186.208 41.3465 186.243 41.5262 186.319 41.6943C186.395 41.8624 186.506 42.0073 186.664 42.1348C186.816 42.2565 187.014 42.3551 187.248 42.4304C187.482 42.5058 187.762 42.5406 188.089 42.5406L188.083 42.5232ZM189.847 32.8953C189.736 32.8953 189.614 32.9301 189.479 32.9996C189.345 33.0692 189.216 33.1677 189.1 33.2895C188.983 33.4112 188.883 33.5619 188.807 33.73C188.732 33.8981 188.691 34.0836 188.691 34.2807C188.691 34.4545 188.714 34.6574 188.767 34.8951C188.813 35.1327 188.872 35.3646 188.936 35.5848C189 35.8051 189.053 35.9906 189.105 36.1471C189.158 36.2978 189.187 36.379 189.199 36.379C189.456 36.1471 189.684 35.921 189.9 35.7066C190.11 35.4921 190.291 35.2776 190.431 35.0632C190.577 34.8487 190.688 34.6342 190.77 34.4198C190.852 34.1995 190.893 33.9792 190.893 33.7416C190.893 33.6141 190.875 33.4981 190.84 33.3938C190.805 33.2895 190.753 33.2025 190.671 33.1272C190.595 33.0518 190.484 32.9996 190.35 32.9591C190.215 32.9185 190.046 32.9011 189.841 32.9011L189.847 32.8953Z" fill="#E1251B"/>
<path d="M200.536 44.0025C200.057 44.0025 199.637 43.9155 199.275 43.7416C198.913 43.5677 198.609 43.3301 198.363 43.0403C198.118 42.7446 197.931 42.4085 197.809 42.0201C197.686 41.6317 197.622 41.2318 197.622 40.8144C197.622 40.5188 197.674 40.1594 197.779 39.7421C197.885 39.3248 197.995 38.9596 198.118 38.6524C198.241 38.3394 198.393 38.0437 198.574 37.7597C198.755 37.4757 198.959 37.2264 199.199 37.0178C199.438 36.8033 199.701 36.6352 199.993 36.5077C200.285 36.3802 200.606 36.3164 200.957 36.3164C201.272 36.3164 201.564 36.3628 201.827 36.4497C202.096 36.5425 202.324 36.6642 202.516 36.8265C202.709 36.983 202.855 37.1743 202.96 37.3945C203.066 37.6148 203.124 37.8467 203.124 38.1017C203.124 38.2756 203.101 38.4495 203.048 38.6176C202.995 38.7857 202.902 38.9886 202.756 39.2146C202.61 39.4465 202.47 39.5972 202.33 39.6841C202.189 39.7653 202.038 39.8059 201.862 39.8059C201.599 39.8059 201.43 39.7421 201.354 39.6146C201.231 39.4117 201.191 39.2378 201.237 39.0813C201.255 39.0002 201.302 38.8089 201.377 38.5133C201.389 38.4727 201.389 38.3799 201.383 38.235C201.383 38.1133 201.372 38.009 201.342 37.9278C201.319 37.8467 201.261 37.8061 201.173 37.8061C200.963 37.8061 200.782 37.8583 200.63 37.9568C200.478 38.0553 200.355 38.1887 200.244 38.351C200.139 38.5133 200.034 38.7393 199.929 39.0349C199.824 39.3305 199.754 39.5798 199.707 39.7769C199.66 39.9798 199.637 40.171 199.625 40.3507C199.613 40.5304 199.608 40.6869 199.608 40.8086C199.608 40.9941 199.625 41.1854 199.66 41.3883C199.695 41.5912 199.759 41.7708 199.859 41.9389C199.958 42.107 200.092 42.2462 200.25 42.3563C200.408 42.4664 200.618 42.5244 200.869 42.5244C201.12 42.5244 201.395 42.449 201.693 42.2983C201.991 42.1476 202.295 41.9563 202.598 41.7245C202.902 41.4926 203.188 41.2376 203.463 40.9593C203.737 40.6811 203.971 40.4203 204.17 40.171L204.707 41.0637C204.316 41.6143 203.901 42.107 203.445 42.536C203.252 42.7215 203.042 42.9011 202.82 43.075C202.592 43.2489 202.359 43.4054 202.113 43.5446C201.868 43.6837 201.611 43.7938 201.342 43.875C201.074 43.9619 200.805 44.0025 200.531 44.0025H200.536Z" fill="#E1251B"/>
<path d="M206.658 39.2887C206.868 39.0046 207.108 38.6974 207.37 38.367C207.633 38.0424 207.99 37.6599 208.434 37.2309C208.877 36.802 209.24 36.4948 209.52 36.3093C209.8 36.1238 210.069 36.0253 210.314 36.0253C210.379 36.0253 210.449 36.0369 210.525 36.06C210.601 36.0832 210.677 36.1296 210.747 36.1876C210.817 36.2513 210.875 36.3383 210.922 36.4484C210.969 36.5585 210.992 36.7093 210.992 36.8831C210.992 37.2367 210.945 37.5845 210.846 37.9265C210.747 38.2627 210.56 38.6742 210.285 39.1553C210.011 39.6364 209.824 40.0538 209.73 40.4074C209.637 40.761 209.584 41.1261 209.584 41.5087C209.584 41.7174 209.613 41.8855 209.678 42.013C209.742 42.1405 209.818 42.2043 209.917 42.2043C210.04 42.2043 210.174 42.1811 210.314 42.1289C210.455 42.0767 210.595 42.0072 210.735 41.926C210.875 41.8449 211.009 41.7463 211.144 41.642C211.278 41.5377 211.407 41.4275 211.523 41.3116C211.81 41.045 212.09 40.7436 212.365 40.4074L212.499 42.4593C212.405 42.5289 212.289 42.61 212.143 42.7144C212.002 42.8129 211.845 42.923 211.67 43.039C211.494 43.1549 211.307 43.265 211.109 43.3809C210.904 43.4969 210.706 43.6012 210.501 43.6882C210.297 43.7751 210.092 43.8505 209.888 43.9084C209.684 43.9664 209.485 43.9954 209.304 43.9954C209.012 43.9954 208.761 43.9258 208.545 43.7809C208.328 43.636 208.153 43.4505 208.013 43.2302C207.873 43.01 207.774 42.7607 207.703 42.4999C207.633 42.2332 207.598 41.984 207.598 41.7521C207.598 41.584 207.622 41.3986 207.668 41.1957C207.715 40.9928 207.768 40.7841 207.838 40.5755C207.908 40.3668 207.984 40.1639 208.066 39.9668C208.147 39.7698 208.229 39.5901 208.299 39.4394C208.369 39.2829 208.434 39.1553 208.492 39.0568C208.545 38.9583 208.58 38.9003 208.597 38.8829L208.434 38.8597C208.346 38.9177 208.194 39.0568 207.99 39.2887C207.779 39.5147 207.54 39.8045 207.277 40.1523C207.014 40.5001 206.74 40.8943 206.459 41.329C206.179 41.7637 205.922 42.2101 205.694 42.6738C205.577 42.9056 205.484 43.1027 205.414 43.2708C205.344 43.4389 205.268 43.578 205.198 43.6824C205.127 43.7867 205.052 43.862 204.97 43.92C204.888 43.9722 204.783 44.0012 204.649 44.0012C204.479 44.0012 204.345 43.9548 204.245 43.862C204.146 43.7693 204.07 43.6476 204.018 43.4969C203.965 43.3462 203.93 43.1723 203.918 42.981C203.901 42.7897 203.895 42.5868 203.895 42.384C203.895 42.0304 203.895 41.5667 203.907 40.9986C203.913 40.4248 203.942 39.7929 203.983 39.0974C204.024 38.4018 204.099 37.6831 204.21 36.9353C204.321 36.1876 204.432 35.4456 204.538 34.7095C204.649 33.9733 204.806 33.2662 205.022 32.5996C205.238 31.933 205.501 31.3476 205.811 30.8375C206.12 30.3274 206.483 29.9274 206.897 29.626C207.312 29.3246 207.791 29.1797 208.328 29.1797C208.609 29.1797 208.837 29.2203 209.018 29.3014C209.199 29.3826 209.339 29.4985 209.444 29.6492C209.549 29.7999 209.625 29.9796 209.666 30.1883C209.707 30.3969 209.73 30.6346 209.73 30.8896C209.73 31.2722 209.678 31.7011 209.567 32.1648C209.456 32.6344 209.316 33.1155 209.134 33.6198C208.953 34.124 208.755 34.6341 208.527 35.15C208.299 35.6659 208.066 36.1702 207.826 36.6513C207.587 37.1382 207.353 37.5961 207.119 38.025C206.891 38.454 206.687 38.8365 206.512 39.1611L206.67 39.2713L206.658 39.2887ZM207.347 34.437C207.651 33.6487 207.873 32.9879 208.013 32.4489C208.153 31.9098 208.217 31.5099 208.217 31.2548C208.217 30.8664 208.165 30.6694 208.054 30.6694C207.92 30.6694 207.721 30.8896 207.452 31.3244C207.189 31.7591 206.874 32.3967 206.518 33.2314C206.43 33.5154 206.348 33.8052 206.272 34.1124C206.196 34.4139 206.138 34.7211 206.091 35.0225C206.045 35.3239 206.004 35.6253 205.963 35.9151C205.922 36.205 205.881 36.4832 205.84 36.744C205.723 37.3527 205.642 37.9497 205.577 38.5351C205.717 38.2105 205.869 37.8569 206.039 37.4802C206.208 37.0976 206.372 36.7208 206.529 36.3499C206.693 35.9789 206.845 35.6253 206.985 35.2949C207.131 34.9645 207.248 34.6805 207.341 34.4486L207.347 34.437Z" fill="#E1251B"/>
<path d="M217.073 42.3549C216.886 42.523 216.652 42.7085 216.377 42.8998C216.097 43.0911 215.799 43.2708 215.478 43.4331C215.157 43.5954 214.83 43.7287 214.497 43.8388C214.164 43.949 213.842 44.0011 213.544 44.0011C213.276 44.0011 213.048 43.9663 212.867 43.891C212.68 43.8156 212.534 43.7113 212.417 43.578C212.3 43.4447 212.224 43.2824 212.172 43.0853C212.125 42.894 212.096 42.6795 212.096 42.4477C212.096 42.1231 212.131 41.7463 212.207 41.3116C212.359 40.4189 212.452 39.9146 212.493 39.8045C212.563 39.5842 212.703 39.0973 212.919 38.3438C213.118 37.7294 213.241 37.3294 213.282 37.1439C213.305 37.0164 213.375 36.8947 213.498 36.7904C213.603 36.6976 213.726 36.6223 213.86 36.5585C213.994 36.5005 214.134 36.4542 214.28 36.4252C214.426 36.3962 214.555 36.3846 214.672 36.3846C214.888 36.3846 215.028 36.4252 215.11 36.5063C215.186 36.5875 215.227 36.6918 215.227 36.8251C215.227 36.9411 215.198 37.0976 215.145 37.3062C215.092 37.5149 215.028 37.7468 214.964 38.0134C214.894 38.28 214.794 38.6162 214.66 39.0336C214.526 39.4509 214.438 39.8045 214.386 40.0943C214.339 40.3899 214.275 40.6798 214.199 40.9696C214.123 41.2594 214.088 41.5203 214.088 41.7579C214.088 41.9956 214.111 42.1752 214.164 42.3086C214.216 42.4419 214.321 42.5114 214.485 42.5114C214.672 42.5114 214.876 42.4477 215.104 42.3202C215.332 42.1926 215.566 42.0361 215.793 41.8506C216.027 41.671 216.255 41.4797 216.477 41.2826C216.699 41.0855 216.897 40.9174 217.067 40.7783V42.3433L217.073 42.3549ZM213.597 34.2573C213.597 34.1356 213.62 34.0023 213.673 33.8516C213.726 33.7009 213.807 33.5618 213.924 33.4284C214.041 33.2951 214.199 33.185 214.391 33.0922C214.584 32.9995 214.83 32.9531 215.122 32.9531C215.303 32.9531 215.472 32.9763 215.636 33.0169C215.799 33.0575 215.934 33.1212 216.056 33.2082C216.173 33.2951 216.272 33.4052 216.342 33.5444C216.412 33.6835 216.448 33.8516 216.448 34.0429C216.448 34.2167 216.418 34.3906 216.36 34.5587C216.301 34.7268 216.214 34.8717 216.085 35.0051C215.963 35.1326 215.805 35.2427 215.612 35.3181C215.425 35.3992 215.198 35.4398 214.935 35.4398C214.479 35.4398 214.14 35.3297 213.924 35.1152C213.708 34.9007 213.597 34.6109 213.597 34.2573Z" fill="#E1251B"/>
<path d="M219.783 42.5169C220.303 42.5169 220.782 42.4648 221.208 42.3662C221.64 42.2677 222.026 42.1344 222.376 41.9605C222.727 41.7924 223.042 41.5953 223.322 41.3693C223.603 41.1432 223.86 40.8997 224.088 40.6389L224.175 42.3488C224.012 42.5633 223.807 42.772 223.574 42.9691C223.34 43.1719 223.077 43.3458 222.803 43.4965C222.522 43.6473 222.23 43.769 221.921 43.8559C221.611 43.9487 221.307 43.9892 221.009 43.9892C220.974 43.9892 220.928 43.9892 220.875 43.9719C220.822 43.9603 220.729 43.9429 220.595 43.9139C220.46 43.8849 220.268 43.8501 220.016 43.8038C219.765 43.7574 219.426 43.6994 219 43.6357V43.7748C219 44.7138 218.918 45.5659 218.755 46.3368C218.591 47.1019 218.375 47.7569 218.101 48.3018C217.826 48.8466 217.516 49.264 217.166 49.5538C216.816 49.8494 216.448 49.9943 216.068 49.9943C215.77 49.9943 215.525 49.9248 215.332 49.7741C215.139 49.6234 214.976 49.4321 214.865 49.1886C214.748 48.9452 214.666 48.6554 214.613 48.325C214.567 47.9946 214.537 47.6468 214.537 47.2816C214.537 47.0671 214.573 46.8295 214.637 46.5571C214.707 46.2904 214.794 46.0064 214.911 45.7108C215.028 45.4152 215.157 45.1195 215.297 44.8123C215.437 44.5051 215.583 44.2095 215.735 43.9255C216.085 43.2589 216.488 42.5691 216.938 41.862C216.997 41.4736 217.055 41.0736 217.113 40.6679C217.172 40.2621 217.248 39.8564 217.341 39.468C217.435 39.0739 217.575 38.6623 217.773 38.2334C217.966 37.8044 218.176 37.4567 218.398 37.1958C218.62 36.935 218.883 36.7263 219.193 36.5756C219.502 36.4249 219.876 36.3438 220.308 36.3438C220.624 36.3438 220.922 36.3843 221.196 36.4713C221.471 36.5582 221.71 36.6973 221.921 36.8886C222.125 37.0799 222.289 37.3291 222.411 37.6306C222.528 37.932 222.587 38.3029 222.587 38.7435C222.587 39.213 222.534 39.5782 222.429 39.839C222.271 40.2332 222.072 40.5751 221.827 40.865C221.582 41.1548 221.29 41.4214 220.951 41.6765C220.612 41.9257 220.209 42.1518 219.742 42.3546L219.789 42.5111L219.783 42.5169ZM216.015 47.3801C216.015 47.4207 216.027 47.4903 216.044 47.5772C216.062 47.67 216.091 47.7627 216.132 47.8555C216.173 47.9482 216.226 48.0294 216.296 48.0989C216.366 48.1685 216.448 48.209 216.547 48.209C216.634 48.209 216.705 48.1627 216.763 48.0699C216.821 47.9772 216.868 47.8497 216.903 47.6874C216.938 47.5309 216.967 47.3512 216.979 47.1483C216.997 46.9512 217.008 46.7425 217.014 46.5339C217.02 46.3252 217.032 46.1223 217.032 45.9195C217.032 45.7224 217.043 45.5427 217.055 45.3804C217.073 45.1022 217.084 44.8703 217.09 44.679C217.096 44.4877 217.108 44.3254 217.113 44.1979C217.113 44.053 217.125 43.9313 217.131 43.8269C217.032 43.995 216.938 44.1921 216.845 44.4182C216.751 44.6442 216.664 44.8761 216.582 45.1137C216.5 45.3572 216.424 45.5949 216.354 45.8383C216.284 46.0818 216.231 46.302 216.179 46.5107C216.132 46.7194 216.091 46.899 216.062 47.0498C216.033 47.2005 216.021 47.3106 216.021 47.3744L216.015 47.3801ZM218.796 41.7634C219.105 41.6127 219.374 41.4446 219.602 41.2649C219.818 41.0794 220.011 40.8824 220.18 40.6737C220.25 40.6621 220.408 40.436 220.665 39.9839C220.834 39.6013 220.945 39.3057 220.992 39.1028C221.015 38.9927 221.033 38.8652 221.044 38.7203C221.05 38.5754 221.039 38.4363 220.998 38.3029C220.957 38.1754 220.893 38.0653 220.799 37.9725C220.706 37.8798 220.571 37.8334 220.402 37.8334C220.209 37.8334 220.04 37.8856 219.894 37.9841C219.748 38.0885 219.625 38.2218 219.514 38.4015C219.409 38.5754 219.321 38.784 219.251 39.0217C219.181 39.2594 219.099 39.555 219 39.9086C218.907 40.2621 218.848 40.5809 218.831 40.8824C218.813 41.178 218.801 41.4736 218.801 41.7692L218.796 41.7634Z" fill="#E1251B"/>
<path d="M223.007 41.091C223.299 40.8418 223.533 40.6331 223.714 40.465C223.895 40.2969 224.076 40.1056 224.257 39.8854C224.438 39.6651 224.584 39.4854 224.689 39.3405C224.794 39.2014 224.923 39.0333 225.069 38.842C225.215 38.6507 225.39 38.4131 225.595 38.1348C225.805 37.8566 226.074 37.5088 226.401 37.0915C226.471 36.9987 226.541 36.906 226.629 36.8191C226.71 36.7321 226.804 36.651 226.903 36.5814C227.002 36.5118 227.119 36.4539 227.236 36.4075C227.359 36.3611 227.493 36.3438 227.645 36.3438C227.896 36.3438 228.089 36.3727 228.223 36.4249C228.357 36.4771 228.457 36.5466 228.521 36.622C228.585 36.6973 228.62 36.7843 228.632 36.8654C228.644 36.9524 228.65 37.0277 228.65 37.0857C228.65 37.2132 228.603 37.3465 228.504 37.4972C228.404 37.6479 228.299 37.7929 228.176 37.932C228.06 38.0711 227.943 38.1986 227.838 38.3203C227.732 38.4363 227.668 38.5232 227.657 38.5812C227.657 38.7435 227.668 38.8884 227.692 39.0217C227.715 39.155 227.75 39.2825 227.785 39.4101C227.826 39.5376 227.867 39.6709 227.908 39.8158C227.949 39.9607 227.989 40.123 228.03 40.3085C228.071 40.494 228.077 40.7548 228.048 41.0794C228.019 41.4098 228.007 41.7344 228.007 42.0706C228.194 41.9431 228.393 41.833 228.609 41.7286C228.825 41.6301 229.047 41.52 229.28 41.4156C229.514 41.3055 229.754 41.1838 229.999 41.0505C230.244 40.9171 230.495 40.7606 230.741 40.5693V42.3141C230.425 42.5517 230.057 42.7778 229.631 42.9865C229.21 43.1951 228.766 43.3806 228.299 43.5371C227.832 43.6936 227.364 43.8211 226.891 43.9139C226.418 44.0066 225.968 44.053 225.542 44.053C225.238 44.053 224.952 44.024 224.689 43.9719C224.426 43.9197 224.193 43.8327 223.994 43.7168C223.796 43.6009 223.632 43.4502 223.509 43.2647C223.387 43.0792 223.311 42.8531 223.282 42.5865C223.211 42.6039 223.136 42.6155 223.065 42.6155C222.995 42.6155 222.925 42.6213 222.861 42.6213C222.779 42.6213 222.697 42.6213 222.627 42.6155C222.557 42.6155 222.493 42.5923 222.44 42.5575C222.388 42.5227 222.347 42.4706 222.318 42.3952C222.289 42.3199 222.271 42.2097 222.271 42.0706C222.271 41.9431 222.3 41.833 222.365 41.7228C222.429 41.6185 222.499 41.52 222.581 41.4388C222.662 41.3577 222.744 41.2823 222.832 41.2185C222.914 41.1548 222.978 41.1084 223.019 41.0678L223.007 41.091ZM223.977 42.088C224.041 42.088 224.105 42.1286 224.181 42.2039C224.257 42.2793 224.345 42.3662 224.444 42.459C224.543 42.5517 224.66 42.6387 224.789 42.714C224.917 42.7894 225.063 42.83 225.232 42.83C225.437 42.83 225.6 42.7952 225.735 42.7314C225.869 42.6619 225.974 42.5749 226.05 42.4648C226.126 42.3546 226.185 42.2213 226.214 42.0764C226.243 41.9257 226.261 41.775 226.261 41.6127C226.261 41.4736 226.249 41.3287 226.231 41.1838C226.214 41.0389 226.214 40.8592 226.237 40.6389C226.261 40.4244 226.255 40.2563 226.22 40.1404C226.185 40.0245 226.155 39.9259 226.132 39.839L223.977 42.0822V42.088Z" fill="#E1251B"/>
</svg>
