<svg width="198" height="49" viewBox="0 0 198 49" fill="none" xmlns="http://www.w3.org/2000/svg">
<path d="M101.956 16.8452C102.637 19.0945 101.017 20.3943 99.4796 21.8405C97.6489 23.5147 95.9348 25.3122 94.3493 27.2203C92.536 29.4798 90.6649 29.4083 88.6101 27.0536C86.625 24.8573 84.5288 22.7642 82.3298 20.7823C80.8534 19.4212 80.2206 21.3063 79.4449 21.8814C77.6928 23.1778 76.1585 24.7601 74.5561 26.2505C73.9336 26.829 73.6818 26.5908 73.5968 25.8932C73.2361 23.0111 73.4981 20.425 76.1551 18.482C78.2576 16.9439 77.982 15.4195 75.706 14.038C74.3146 13.1873 73.4096 12.0303 73.5525 10.2473C73.6444 9.10052 73.5525 7.94018 73.5968 6.78664C73.6616 6.49982 73.7768 6.22677 73.937 5.98018C74.1858 6.08957 74.4211 6.22776 74.6378 6.39191C76.6552 8.32809 78.6862 10.2405 80.6288 12.2481C81.3092 12.9729 81.84 12.847 82.4081 12.2889C84.7895 9.93761 87.2152 7.5999 89.5524 5.18393C90.6411 4.05761 92.087 3.86365 93.1858 4.95594C95.7714 7.51483 98.3059 10.1248 100.926 12.6496C102.103 13.8066 102.062 15.1915 101.956 16.8452ZM85.3679 16.3314C85.3561 16.5553 85.396 16.7788 85.4845 16.9848C85.573 17.1907 85.7077 17.3735 85.8782 17.519C87.3071 18.9516 88.6849 20.4386 90.1852 21.7929C90.6513 22.2114 91.1514 23.3786 92.0155 22.5857C93.8526 20.8843 95.5503 19.0673 97.3091 17.3012C97.8535 16.7534 97.7174 16.2021 97.2513 15.7359C95.5979 14.0788 93.8969 12.4557 92.2367 10.8223C91.7434 10.3391 91.2637 10.3425 90.7602 10.8223C89.0591 12.4591 87.3581 14.0822 85.6843 15.7257C85.5435 15.9071 85.4363 16.1123 85.3679 16.3314Z" fill="#E2E2E2"/>
<path d="M118.147 16.7469C116.898 18.826 115.837 20.6295 114.745 22.4125C114.432 22.9229 114.149 23.7362 113.547 23.6784C112.945 23.6205 112.761 22.8141 112.459 22.273C111.547 20.6261 110.608 18.9927 109.662 17.3662C109.532 17.2058 109.378 17.0658 109.206 16.9511C109.12 17.1509 109.062 17.3615 109.033 17.5772C109.033 19.9591 109.033 22.3172 109.101 24.6856C109.138 25.8051 108.682 26.1692 107.641 26.0467C107.28 25.9718 106.909 25.9557 106.542 25.9991C104.678 26.3768 104.205 25.5533 104.317 23.8111C104.658 18.4619 104.464 13.1059 104.287 7.75336C104.256 6.83121 104.559 6.43989 105.501 6.55218C105.954 6.59492 106.408 6.60516 106.862 6.5828C110.781 6.48753 110.771 6.49093 112.343 10.1149C112.948 11.5679 113.629 12.9766 114.309 14.4058C114.459 14.6731 114.629 14.928 114.82 15.168C115.036 14.9341 115.229 14.6787 115.394 14.4058C116.493 12.1566 117.592 9.90732 118.647 7.63426C119.014 6.83801 119.514 6.47732 120.416 6.55218C121.235 6.62708 122.059 6.61682 122.876 6.52155C124.577 6.30037 125.077 6.96732 124.937 8.64148C124.495 13.9872 124.669 19.3534 124.686 24.7094C124.686 25.7302 124.345 26.0705 123.366 26.0263C121.981 25.9718 120.593 25.982 119.205 26.0263C118.382 26.0263 118.137 25.686 118.15 24.8897C118.167 22.2934 118.147 19.7107 118.147 16.7469Z" fill="#E2E2E2"/>
<path d="M148.615 19.7365C148.615 15.7076 148.636 11.6787 148.615 7.64984C148.615 6.79234 148.894 6.53033 149.742 6.56096C153.46 6.69026 157.226 6.22068 160.863 7.34019C165.163 8.64005 166.47 13.7034 163.394 17.0279C162.925 17.5383 161.785 17.7085 162.2 18.8042C162.693 20.1108 163.649 21.0942 165.02 21.1861C166.548 21.295 166.667 21.9823 166.316 23.1461C166.316 23.1733 166.316 23.2039 166.299 23.2312C165.901 24.252 166.687 25.9534 165.432 26.3277C163.537 26.9164 161.56 26.4638 159.91 25.1946C158.41 24.0444 157.457 22.4962 156.78 20.771C156.617 20.3558 156.44 19.9032 155.824 20.0155C155.209 20.1278 155.192 20.6417 155.188 21.1248C155.188 22.5064 155.171 23.8879 155.188 25.2694C155.188 25.8105 154.96 26.0248 154.423 26.0214C152.783 26.0033 151.142 26.0033 149.5 26.0214C148.884 26.0214 148.65 25.773 148.66 25.1605C148.68 23.3571 148.66 21.5502 148.66 19.7467L148.615 19.7365ZM155.134 13.4686C155.109 13.6948 155.109 13.923 155.134 14.1492C155.27 14.7923 154.749 15.8029 155.552 16.0139C156.525 16.2725 157.468 15.7689 158.056 14.8331C158.303 14.4531 158.461 14.0227 158.52 13.5735C158.579 13.1243 158.537 12.6675 158.396 12.2368C158.029 10.9982 157.036 10.7362 155.92 10.8178C154.804 10.8995 155.239 11.8387 155.141 12.4614C155.115 12.7965 155.113 13.1331 155.134 13.4686Z" fill="#E2E2E2"/>
<path d="M9.11056 16.188C9.11056 13.341 9.11056 10.4917 9.11056 7.64019C9.11056 7.1638 9.07995 6.54109 9.75355 6.56151C13.4958 6.6738 17.2993 6.17359 20.9804 7.2795C24.2259 8.25269 26.0324 10.5802 26.4509 13.8196C26.7911 16.5419 26.8897 19.3151 25.4303 21.8978C24.0694 24.2798 21.9091 25.2155 19.429 25.6715C16.3195 26.2432 13.1658 25.9471 10.0291 26.0118C9.34871 26.0118 9.19562 25.5796 9.19562 24.9909C9.19562 22.0578 9.19562 19.1246 9.19562 16.1914L9.11056 16.188ZM15.6936 16.188H15.6119C15.6119 17.3449 15.5541 18.5053 15.6323 19.6554C15.6765 20.2815 15.2003 21.2343 16.1903 21.4589C17.3333 21.7141 18.5479 21.7175 19.3031 20.5367C20.385 18.8353 20.1911 13.4215 18.9936 11.8562C18.6742 11.431 18.2269 11.1196 17.7173 10.9677C17.2078 10.8158 16.663 10.8314 16.163 11.0123C15.3397 11.2539 15.7446 12.1285 15.7106 12.7137C15.6493 13.8775 15.6936 15.0344 15.6936 16.1914V16.188Z" fill="#E2E2E2"/>
<path d="M136.341 6.54684C140.029 6.57406 139.944 6.59788 141.039 10.1572C142.468 14.7884 144.036 19.3753 145.567 23.9759C146.217 25.9257 146.132 26.0584 144.036 26.0175C142.82 25.9636 141.601 25.9727 140.386 26.0448C139.154 26.1502 138.43 25.7759 138.3 24.4965C138.127 22.7373 137.416 21.907 135.385 22.0567C132.68 22.2575 132.612 22.0567 132.384 24.7449C132.299 25.7657 131.918 26.106 130.969 26.0107C130.657 25.9937 130.345 25.9937 130.033 26.0107C127.21 26.0277 127.189 26.0107 127.778 23.2443C128.867 18.1401 130.459 13.1857 132.058 8.22781C132.48 6.92455 133.116 6.35288 134.477 6.52643C135.097 6.57239 135.72 6.57921 136.341 6.54684ZM135.188 12.4813C134.47 13.7641 134.272 15.0096 133.963 16.2243C133.398 18.4293 133.711 18.7424 136.004 18.3749C136.504 18.2932 136.62 18.0891 136.504 17.6365C136.082 15.993 135.657 14.3154 135.188 12.4813Z" fill="#E2E2E2"/>
<path d="M36.242 25.984C34.2347 25.984 32.2241 25.984 30.2169 25.984C29.4753 25.984 29.1112 25.7186 29.1453 24.9632C29.4072 19.1785 29.1861 13.4108 29.0908 7.63627C29.0908 6.89446 29.3664 6.5712 30.1421 6.5746C33.9626 6.5746 37.7831 6.5746 41.6002 6.55078C42.3316 6.55078 42.6004 6.89106 42.5936 7.57161C42.5698 11.3147 43.274 10.7872 39.4671 10.8383C38.761 10.8831 38.0525 10.8752 37.3476 10.8145C35.9562 10.6239 35.6466 11.25 35.6874 12.5158C35.7146 13.5843 35.98 14.1049 37.1129 13.9518C37.3961 13.9348 37.6801 13.9348 37.9634 13.9518C41.5696 13.9518 41.5492 13.9518 41.5049 17.5656C41.5049 18.2938 41.2022 18.5047 40.5524 18.4979C39.2494 18.4979 37.9464 18.5286 36.6468 18.4979C35.8609 18.4707 35.5071 18.7736 35.6262 19.5188C35.7453 20.1993 35.0682 21.3597 36.6196 21.2984C38.5417 21.2202 40.4673 21.2065 42.4031 21.1215C43.2502 21.084 43.6074 21.3767 43.4952 22.2478C43.3693 23.221 43.2808 24.2044 43.2128 25.1844C43.1652 25.8649 42.7671 26.0147 42.1922 26.0079C41.2022 26.0079 40.2122 26.0079 39.2188 26.0079H36.2488L36.242 25.984Z" fill="#E2E2E2"/>
<path d="M185.388 26.5404C183.272 26.343 181.51 26.2001 179.88 25.346C179.149 24.9649 178.955 24.5089 179.2 23.7841C179.445 23.0594 179.717 22.3584 179.972 21.6404C180.166 21.0925 180.445 20.919 181.061 21.1776C182.422 21.7425 183.783 22.3482 185.29 22.2597C186.011 22.2155 186.688 21.9943 186.868 21.2389C187.049 20.4835 186.528 19.973 185.902 19.6191C184.657 18.9114 183.354 18.2955 182.16 17.5128C179.363 15.6855 178.489 13.5928 179.197 10.7073C179.71 8.62817 182.469 6.56609 185.075 6.23942C187.244 5.9733 189.444 6.24681 191.482 7.03567C192.577 7.44401 192.781 7.93401 192.502 9.11477C191.999 11.119 191.213 11.837 189.223 10.7481C188.36 10.2861 187.351 10.1764 186.409 10.4419C186.143 10.49 185.898 10.6175 185.706 10.8076C185.514 10.9978 185.385 11.2416 185.334 11.5069C185.277 11.7584 185.307 12.0219 185.418 12.2543C185.53 12.4866 185.718 12.6742 185.95 12.7864C187.283 13.5792 188.648 14.3142 189.954 15.1479C192.659 16.8731 193.679 18.9964 193.067 21.8446C192.478 24.5668 190.366 25.6387 187.909 26.2035C187.076 26.3609 186.234 26.4733 185.388 26.5404Z" fill="#E2E2E2"/>
<path d="M46.6864 17.4265C46.6864 14.2142 46.7034 11.0054 46.6864 7.7966C46.6864 6.86084 47.0266 6.47292 47.9792 6.52396C49.2502 6.60277 50.5246 6.60845 51.7963 6.54098C53.038 6.46271 53.4531 6.88125 53.4259 8.15389C53.3408 12.1011 53.4259 16.0483 53.3578 19.9922C53.3408 21.0402 53.7253 21.3022 54.6914 21.2512C56.3244 21.1627 57.9642 21.1627 59.604 21.1355C59.8286 21.1355 60.1994 21.1083 60.2538 21.2172C60.9342 22.5783 60.3117 23.9904 60.2538 25.3788C60.2334 26.0865 59.638 26.0083 59.172 26.0117C55.4671 26.0321 51.7657 26.0117 48.0608 26.0627C46.979 26.0627 46.5435 25.7429 46.5775 24.6063C46.649 22.2244 46.6013 19.8186 46.6013 17.4231L46.6864 17.4265Z" fill="#E2E2E2"/>
<path d="M168.97 16.3576C168.97 13.4006 168.97 10.4401 168.97 7.48313C168.97 6.80257 169.229 6.53375 169.916 6.54737C171.61 6.58139 173.305 6.59047 175.002 6.57459C175.58 6.57459 175.815 6.76174 175.784 7.36063C175.468 13.2713 175.505 19.1853 175.55 25.0993C175.55 25.6846 175.352 26.001 174.723 25.9976C173.056 25.9976 171.392 25.9976 169.725 25.9976C169.045 25.9976 168.98 25.5927 168.98 25.0415C168.997 22.1423 168.98 19.2567 168.98 16.3372L168.97 16.3576Z" fill="#E2E2E2"/>
<path d="M182.83 37.4288C184.589 36.7891 185.586 35.7036 186.406 34.4377C186.698 33.9852 186.916 33.4884 187.402 33.2093C187.726 33.0188 188.083 32.8929 188.423 33.1583C188.566 33.2795 188.658 33.4496 188.682 33.6352C188.706 33.8208 188.66 34.0087 188.552 34.1621C188.287 34.7933 188.251 35.4977 188.45 36.1527C188.556 36.6495 188.76 37.0919 189.44 36.704C189.733 36.5373 190.155 36.4692 190.366 36.8061C190.453 36.9734 190.471 37.1683 190.417 37.349C190.362 37.5297 190.239 37.6817 190.073 37.7725C189.097 38.47 188.069 39.1336 186.794 38.875C185.269 38.5789 183.766 38.7559 182.252 38.875C181.571 38.926 181.384 39.3616 181.347 39.8958C181.259 40.9925 180.889 42.0477 180.272 42.9583C180.133 43.1909 179.925 43.3739 179.676 43.4814C179.428 43.5889 179.152 43.6154 178.887 43.5572C178.646 43.5235 178.423 43.409 178.255 43.2322C178.086 43.0555 177.983 42.827 177.962 42.584C177.815 41.6325 177.932 40.6589 178.302 39.7699C178.54 39.1438 178.479 38.7695 177.622 38.7967C176.373 38.8307 175.148 38.5177 173.879 38.8341C172.791 39.0995 172.518 38.1059 172.287 37.2552C172.216 36.9762 172.287 36.5747 171.828 36.5747C171.67 36.5765 171.519 36.6349 171.401 36.7392C171.283 36.8436 171.206 36.9868 171.185 37.143C170.906 38.2318 170.525 38.8648 169.116 38.3509C168.276 38.0447 167.388 39.154 166.293 38.8648C164.728 38.4462 164.173 37.2178 164.758 35.1217C165.224 33.4611 166.629 32.5424 167.966 33.0392C168.211 33.1193 168.426 33.2712 168.583 33.4751C168.74 33.679 168.832 33.9255 168.848 34.1825C168.852 34.394 168.796 34.6023 168.687 34.7831C168.577 34.9638 168.418 35.1096 168.228 35.2034C167.773 35.4722 167.521 35.1217 167.252 34.8086C166.912 34.3935 166.68 34.7882 166.572 35.0264C166.231 35.6832 165.929 36.3399 166.48 37.0681C166.82 37.5343 167.269 37.7486 167.718 37.4866C168.48 37.0715 169.419 36.6904 169.463 35.6423C169.582 33.0392 169.902 30.5041 171.164 28.1562C171.668 27.217 172.484 27.2919 173.281 27.3429C174.077 27.394 174.056 28.0235 174.053 28.6156C174.035 29.8264 173.731 31.0158 173.165 32.0864C173.029 32.3518 172.869 32.6445 173.093 32.8589C173.3 32.9764 173.542 33.0139 173.774 32.9643C174.883 32.8248 175.189 33.2808 174.794 34.288C174.573 34.8665 174.332 35.4416 174.165 36.0336C174.063 36.3739 173.872 36.8707 174.386 37.0545C174.605 37.1673 174.86 37.1891 175.095 37.1152C175.33 37.0413 175.526 36.8776 175.642 36.6598C176.067 35.775 176.397 34.8461 176.757 33.9375C176.945 33.4714 177.179 32.9677 177.758 33.1004C178.39 33.2468 178.275 33.8252 178.166 34.2948C177.999 35.0264 177.826 35.758 177.598 36.476C177.527 36.6142 177.508 36.7729 177.543 36.9241C177.577 37.0753 177.664 37.2094 177.788 37.3029C178.128 37.5615 178.418 37.422 178.734 37.2654C179.724 36.772 179.911 35.8023 180.153 34.8835C180.438 33.8048 180.976 33.0222 182.194 32.9609C182.987 32.9167 183.837 32.9984 184.011 33.9511C184.211 35.0332 184.47 36.2242 183.133 36.8945C183.075 36.932 183.051 37.0375 182.83 37.4288ZM181.391 35.935C181.391 36.3535 181.503 36.6155 181.922 36.5373C182.687 36.3909 182.711 35.7342 182.776 35.1761C182.81 34.8359 182.742 34.3595 182.296 34.4548C181.517 34.5943 181.476 35.3225 181.391 35.9179V35.935ZM171.44 32.4403C172.219 31.7598 172.226 30.9397 172.25 30.1162C172.25 30.1162 172.032 30.055 171.978 30.0992C171.222 30.7151 171.26 31.5148 171.44 32.4403ZM186.385 36.4828C186.113 36.5679 185.65 36.459 185.674 36.9558C185.665 37.1266 185.72 37.2947 185.83 37.4265C185.939 37.5583 186.093 37.6441 186.263 37.667C186.698 37.701 186.923 37.3709 186.994 36.9864C187.076 36.5611 186.736 36.51 186.385 36.4828Z" fill="#E2E2E2"/>
<path d="M63.302 16.3325C63.302 13.4299 63.3224 10.5273 63.302 7.62476C63.302 6.80469 63.6422 6.51885 64.4111 6.53587C65.9987 6.56536 67.5863 6.57443 69.174 6.56309C69.8544 6.56309 70.1674 6.79448 70.1265 7.50226C69.7863 13.3584 69.8102 19.2214 69.9224 25.081C69.9224 25.7173 69.6469 26.01 69.0107 26.0134C67.4253 26.0134 65.8433 26.0134 64.2478 26.044C63.4891 26.044 63.319 25.6391 63.3258 24.9517C63.353 22.0798 63.3258 19.2044 63.3258 16.3325H63.302Z" fill="#E2E2E2"/>
<path d="M130.452 38.4848C130.632 35.5448 130.938 32.4653 132.231 29.5798C132.571 28.7903 133.051 27.9975 133.932 27.6844C134.183 27.5695 134.466 27.544 134.733 27.6121C135.001 27.6802 135.237 27.8378 135.402 28.0587C135.95 28.9162 135.797 29.8826 135.426 30.7367C134.96 31.8086 134.327 32.8124 133.755 33.8366C133.534 34.2348 133.201 34.6941 133.66 35.0412C133.875 35.2133 134.148 35.2955 134.422 35.2708C134.696 35.246 134.949 35.1162 135.13 34.9085C135.513 34.4629 135.872 33.9972 136.205 33.5134C136.433 33.1969 136.688 32.9179 137.11 33.037C137.532 33.1561 137.572 33.5848 137.508 33.9455C137.372 34.7214 137.168 35.487 137.028 36.2628C136.96 36.6439 136.902 37.0999 137.368 37.2836C137.834 37.4674 138.066 37.1475 138.304 36.8685C139.273 35.7354 140.233 34.5886 141.196 33.4657C141.509 33.0914 141.876 32.8158 142.369 33.0778C142.863 33.3398 142.676 33.7924 142.587 34.2109C142.417 34.997 142.09 35.8171 142.628 36.5589C142.747 36.6476 142.888 36.7045 143.035 36.7241C143.183 36.7438 143.333 36.7255 143.472 36.6711C144.274 36.1131 144.033 35.2046 144.043 34.4219C144.116 32.6764 144.431 30.9495 144.979 29.2905C145.125 28.9246 145.322 28.581 145.564 28.2697C145.8 27.8538 146.191 27.5485 146.651 27.4209C147.112 27.2933 147.604 27.3538 148.02 27.5891C148.847 27.9975 148.633 28.9911 148.36 29.6308C147.962 30.5393 148.214 31.6725 147.306 32.4075C147.259 32.5004 147.235 32.6032 147.235 32.7073C147.236 32.8115 147.261 32.9139 147.309 33.0064C147.542 33.0685 147.786 33.0789 148.024 33.037C148.418 33.037 148.891 32.5878 149.187 33.0778C149.483 33.5678 149.35 34.0306 149.143 34.5342C148.92 35.109 148.753 35.7038 148.643 36.3105C148.623 36.4436 148.63 36.5796 148.666 36.7096C148.701 36.8396 148.762 36.9609 148.847 37.0659C149.088 37.3177 149.35 36.991 149.612 36.9298C149.874 36.8685 150.106 36.2696 150.439 36.7732C150.563 36.9499 150.621 37.1651 150.601 37.3803C150.581 37.5954 150.485 37.7964 150.33 37.9472C150.025 38.2857 149.638 38.5398 149.205 38.6846C148.773 38.8295 148.311 38.8603 147.864 38.7741C146.976 38.6243 146.955 37.8077 146.863 37.1067C146.829 36.8515 146.823 36.5623 146.499 36.5146C146.343 36.4864 146.182 36.5184 146.048 36.6043C145.914 36.6901 145.818 36.8234 145.778 36.9774C145.438 38.0391 144.846 38.2534 143.628 38.5869C141.247 39.2368 139.011 37.9982 136.749 38.8251C135.848 39.1654 135.086 38.6482 135.171 37.464C135.191 37.1441 135.324 36.7188 134.895 36.5861C134.604 36.4977 134.291 36.5258 134.021 36.6643C133.68 36.8889 133.905 37.2802 133.976 37.5967C134.32 38.9195 134.152 40.3235 133.504 41.5269C133.191 42.1054 132.793 42.4933 132.143 42.4865C131.435 42.4865 131.02 42.0271 130.765 41.4044C130.374 40.5197 130.551 39.5771 130.452 38.4848ZM132.731 38.8489C132.568 38.1684 132.959 36.9944 132.282 36.9059C131.687 36.8311 131.748 38.0357 131.714 38.6822C131.68 39.3287 131.602 40.5571 132.262 40.5707C132.976 40.5877 132.524 39.4478 132.731 38.8489ZM146.853 29.2327C146.135 30.0834 145.751 30.8728 145.782 31.8256C145.782 31.8902 146.105 32.04 146.18 31.9957C147.02 31.4717 146.772 30.5768 146.897 29.8043C146.9 29.6128 146.885 29.4215 146.853 29.2327ZM134.446 30.2297C134.419 29.8894 134.405 29.4198 134.085 29.5219C133.204 29.7975 133.34 30.7333 133.065 31.4036C132.976 31.6282 133.092 31.9617 133.364 31.8426C134.082 31.5398 134.255 30.832 134.446 30.2297ZM140.91 36.8889C140.902 36.8294 140.882 36.7722 140.85 36.721C140.819 36.6698 140.777 36.6256 140.728 36.5914C140.679 36.5571 140.623 36.5335 140.564 36.522C140.505 36.5106 140.444 36.5115 140.386 36.5248C140.046 36.5657 139.706 36.6235 139.706 37.0863C139.699 37.1492 139.707 37.2128 139.729 37.2721C139.751 37.3314 139.786 37.3848 139.833 37.428C139.879 37.4712 139.934 37.5031 139.995 37.5212C140.056 37.5392 140.12 37.543 140.182 37.5321C140.359 37.5245 140.528 37.4566 140.661 37.3396C140.794 37.2226 140.883 37.0636 140.913 36.8889H140.91Z" fill="#E2E2E2"/>
<path d="M160.353 30.6846C160.57 31.7259 159.727 32.386 159.07 33.0666C158.277 33.8934 158.73 34.4855 159.24 35.1082C159.386 35.2852 159.682 35.4928 159.87 35.1491C160.057 34.8054 160.21 34.3358 160.717 34.6012C160.983 34.7446 161.191 34.976 161.306 35.2559C161.421 35.5357 161.435 35.8467 161.346 36.1359C161.193 36.796 161.006 37.4187 161.118 38.1163C161.183 38.477 160.88 38.933 160.57 38.8207C159.084 38.2864 157.621 39.0929 156.148 38.8207C155.239 38.6437 154.382 38.4532 154.164 37.4085C153.947 36.3639 154.195 35.3668 155.045 34.7407C156.018 34.0159 156.243 33.2707 155.841 32.1342C155.44 30.9977 155.841 30.0211 156.78 29.2793C157.621 28.5987 158.55 28.5987 159.502 29.0649C159.809 29.1955 160.061 29.428 160.216 29.7231C160.371 30.0183 160.419 30.358 160.353 30.6846ZM156.951 37.7454C157.543 37.7454 158.077 37.3677 157.971 36.9389C157.774 36.2312 157.512 35.2716 156.61 35.1967C155.824 35.1287 155.855 35.9759 155.804 36.5306C155.719 37.3439 156.263 37.6535 156.947 37.7454H156.951ZM157.672 31.4162C157.767 31.7565 157.604 32.3962 158.138 32.3146C158.419 32.2541 158.669 32.0969 158.846 31.8706C159.022 31.6442 159.114 31.3629 159.104 31.0759C159.124 30.5723 158.818 30.3682 158.356 30.3716C157.597 30.375 157.777 30.9841 157.668 31.4162H157.672Z" fill="#E2E2E2"/>
<path d="M138.579 31.513C138.579 32.0166 138.011 32.0575 137.474 32.1221C136.817 32.2004 136.514 31.8159 136.474 31.2476C136.426 30.5875 136.865 30.271 137.47 30.2472C138.124 30.2234 138.525 30.5807 138.579 31.513Z" fill="#E2E2E2"/>
<path d="M178.268 30.2852C178.948 30.3158 179.21 30.6629 179.237 31.2175C179.275 31.9934 178.734 32.0614 178.173 32.0784C177.71 32.0784 177.312 31.9559 177.332 31.3979C177.316 31.1278 177.404 30.8617 177.578 30.6546C177.752 30.4475 177.999 30.3152 178.268 30.2852Z" fill="#E2E2E2"/>
<path d="M95.5977 16.2148C95.5705 17.1301 95.1555 17.729 94.1723 17.7256C93.1891 17.7222 92.4985 17.2696 92.4712 16.2386C92.444 15.2075 93.1278 14.6971 94.094 14.6801C95.0602 14.6631 95.6454 15.1769 95.5977 16.2148Z" fill="#E2E2E2"/>
</svg>
