<svg width="31" height="31" viewBox="0 0 31 31" fill="none" xmlns="http://www.w3.org/2000/svg">
<g clip-path="url(#clip0_1307_19758)">
<path d="M4.63994e-07 3.875C5.5384e-07 2.84729 0.408259 1.86166 1.13496 1.13496C1.86167 0.408258 2.84729 -5.5384e-07 3.875 -4.63994e-07L27.125 1.56859e-06C28.1527 1.65843e-06 29.1383 0.40826 29.865 1.13496C30.5917 1.86167 31 2.84729 31 3.875L31 27.125C31 28.1527 30.5917 29.1383 29.865 29.865C29.1383 30.5917 28.1527 31 27.125 31L3.875 31C2.84728 31 1.86166 30.5917 1.13496 29.865C0.408257 29.1383 -1.65843e-06 28.1527 -1.56859e-06 27.125L4.63994e-07 3.875ZM8.71875 16.4687L19.9427 16.4687L15.7829 20.6266C15.601 20.8085 15.4988 21.0552 15.4988 21.3125C15.4988 21.5698 15.601 21.8165 15.7829 21.9984C15.9648 22.1803 16.2115 22.2825 16.4687 22.2825C16.726 22.2825 16.9727 22.1803 17.1546 21.9984L22.9671 16.1859C23.0573 16.0959 23.1289 15.989 23.1778 15.8713C23.2266 15.7536 23.2517 15.6274 23.2517 15.5C23.2517 15.3726 23.2266 15.2464 23.1778 15.1287C23.1289 15.011 23.0573 14.9041 22.9671 14.8141L17.1546 9.00163C16.9727 8.81972 16.726 8.71753 16.4688 8.71753C16.2115 8.71753 15.9648 8.81972 15.7829 9.00163C15.601 9.18353 15.4988 9.43025 15.4988 9.6875C15.4988 9.94475 15.601 10.1915 15.7829 10.3734L19.9427 14.5313L8.71875 14.5312C8.46182 14.5312 8.21542 14.6333 8.03374 14.815C7.85206 14.9967 7.75 15.2431 7.75 15.5C7.75 15.7569 7.85206 16.0033 8.03374 16.185C8.21542 16.3667 8.46182 16.4687 8.71875 16.4687Z" fill="white" fill-opacity="0.8"/>
</g>
<defs>
<clipPath id="clip0_1307_19758">
<rect width="31" height="31" fill="white" transform="translate(31 31) rotate(-180)"/>
</clipPath>
</defs>
</svg>
