<svg width="198" height="117" viewBox="0 0 198 117" fill="none" xmlns="http://www.w3.org/2000/svg">
<path d="M1.3953 20.5382L13.9572 33.6138C19.3625 28.1438 24.5824 22.9057 29.7584 17.6034C31.617 15.6995 33.8318 15.3839 35.7149 17.2384C40.9836 22.4322 46.1498 27.7295 51.3258 33.0219C51.5758 33.2899 51.7214 33.6403 51.7356 34.0084C51.7649 37.2489 51.9844 40.5092 51.6527 43.7152C51.4527 45.6882 49.4281 46.7831 48.111 48.1198C44.0277 52.2531 39.7591 56.2434 35.5734 60.3076C34.9053 61.002 33.9923 61.4006 33.0343 61.4163C32.0762 61.432 31.151 61.0635 30.4609 60.3915C26.3435 56.3223 22.3139 52.2038 18.2307 48.1149C17.1721 47.0741 16.0159 46.0877 14.9768 44.9927C14.1475 44.1147 13.484 44.3219 12.7327 45.1012C9.14872 48.7183 5.55496 52.3353 1.95144 55.9524C1.73679 56.1694 1.61483 56.5788 1.19528 56.3963C0.775741 56.2138 0.761106 55.8192 0.761106 55.4591C0.761106 52.7957 0.59524 50.1125 0.834282 47.4687C0.990391 45.772 2.78565 45.0026 3.82475 43.804C5.06386 42.4131 6.46397 41.1701 7.77626 39.8581C8.50802 39.1183 8.50802 38.3784 7.69333 37.6731C5.54683 35.7298 3.80035 33.377 1.4636 31.6507C1.26828 31.474 1.11016 31.2594 0.998687 31.0195C0.887212 30.7797 0.824662 30.5197 0.814768 30.2549C0.756227 27.4286 0.775741 24.5975 0.814768 21.7712C0.805012 21.5296 1.01966 21.2928 1.3953 20.5382ZM46.5255 38.7878C46.4037 38.4677 46.2396 38.1657 46.0376 37.8901C41.9495 33.77 37.8565 29.6531 33.7587 25.5395C33.1001 24.8688 32.4708 25.1203 31.9537 25.6431C27.8607 29.7567 23.8018 33.9048 19.6991 38.0134C19.1527 38.5609 19.2113 38.9456 19.6991 39.4438C23.8035 43.6166 27.9208 47.7926 32.0512 51.972C32.7098 52.6378 33.2416 52.6378 33.9587 51.898C37.8614 47.8732 41.8373 43.9076 45.7742 39.9074C46.0568 39.5609 46.3082 39.1895 46.5255 38.7977V38.7878Z" fill="#E2E2E2"/>
<path d="M57.2775 20.5825C59.3899 22.9796 61.4779 25.3915 63.6195 27.7541C65.1611 29.4558 66.7807 31.0834 68.3613 32.7456C68.9662 33.377 69.4492 33.4657 70.1614 32.7456C75.1277 27.6801 80.1231 22.6639 85.1138 17.6477C87.2164 15.5367 89.3872 15.517 91.4557 17.5984C96.4252 22.6097 101.39 27.6275 106.349 32.6519C106.549 32.8541 106.837 33.0416 106.91 33.2832C107.398 35.4683 107.081 37.6878 107.12 39.8926C107.159 42.0973 107.413 44.0752 105.442 45.9199C100.466 50.5612 95.8365 55.5675 90.9435 60.3026C89.1628 62.024 87.1237 61.7132 85.3723 59.9228C80.1329 54.5761 74.8886 49.2394 69.1418 43.3847C66.0001 46.7633 62.995 50.0039 59.9753 53.2247C59.0826 54.1766 58.1557 55.0891 57.2239 55.9967C57.0133 56.1565 56.7818 56.286 56.536 56.3814C56.3945 56.1101 56.1311 55.8438 56.1311 55.5725C56.1067 52.8646 56.0238 50.1469 56.1604 47.4539C56.2531 45.6683 58.0678 45.0814 59.0874 43.9322C60.4241 42.413 61.8096 40.9382 63.1804 39.4487C63.8829 38.6842 63.5756 38.0824 62.9463 37.4757C61.0388 35.5768 59.185 33.6236 57.2434 31.7592C56.8464 31.4165 56.5342 30.9846 56.3318 30.4982C56.1293 30.0117 56.0422 29.4841 56.0775 28.9576C56.1604 26.9107 56.0775 24.8588 56.0775 22.807C56.1018 22.22 56.0335 21.6281 57.2775 20.5825ZM74.8398 38.1071L88.6018 52.5933L101.217 39.7693C101.944 39.0344 101.808 38.3586 101.115 37.6632C97.1764 33.6976 93.2493 29.7221 89.3336 25.7368C88.5823 24.9723 87.9237 25.0709 87.2554 25.7368C82.9868 29.9786 78.7328 34.25 74.8398 38.1071Z" fill="#E2E2E2"/>
<path d="M69.8685 79.4242C70.9662 82.788 68.4782 85.264 65.6341 87.8584C61.5752 91.5676 57.8286 95.6367 53.9503 99.5382C51.5989 101.906 49.4914 101.782 47.1205 99.3656C42.7299 94.8525 38.2808 90.4134 33.8561 85.9348C33.6652 85.727 33.4906 85.5044 33.3341 85.269C32.4121 83.9471 31.5779 83.6364 30.2754 85.0224C26.9532 88.549 23.4846 91.9276 20.0795 95.3803C19.7624 95.7058 19.5185 96.0905 18.9672 95.8982C18.4159 95.7058 18.3964 95.178 18.4013 94.6848C18.4112 94.6029 18.4112 94.5201 18.4013 94.4382C16.6841 87.4836 21.1869 83.587 25.5238 79.5918C26.3482 78.8323 26.4702 78.2207 25.5774 77.3723C23.7285 75.6065 22.0845 73.604 20.138 71.9467C17.6403 69.8406 18.5184 67.0933 18.4501 64.5482C18.4208 63.4434 17.7232 61.796 18.8989 61.283C20.2014 60.7158 20.8503 62.4618 21.6503 63.2559C24.7286 66.2154 27.7142 69.2783 30.6851 72.3512C31.4364 73.1305 31.9486 73.1157 32.6902 72.3512C37.51 67.4188 42.3689 62.5704 47.1937 57.6676C49.8475 54.9696 51.6233 54.9499 54.2527 57.6676C58.6921 62.2695 62.8582 67.1821 67.6586 71.3548C70.249 73.6188 69.6051 75.9863 69.8685 79.4242ZM50.5744 64.7307C50.3652 64.8336 50.1687 64.9611 49.989 65.1105C45.8359 69.2997 41.6941 73.4922 37.5637 77.688C37.4356 77.791 37.3322 77.9219 37.2612 78.0709C37.1901 78.2199 37.1532 78.3832 37.1532 78.5487C37.1532 78.7141 37.1901 78.8774 37.2612 79.0264C37.3322 79.1755 37.4356 79.3063 37.5637 79.4094C41.6908 83.5722 45.857 87.6661 50.0232 91.8092C50.6037 92.3913 51.0769 92.4258 51.6574 91.8388C55.7488 87.6825 59.8466 83.5328 63.951 79.3896C64.5706 78.7632 64.7267 78.2453 64.0193 77.54C60.1995 73.7125 56.4236 69.8406 52.599 66.0181C52.0721 65.4854 51.5355 64.8738 50.5744 64.7307Z" fill="#E2E2E2"/>
<path d="M126.663 80.4356C127.854 77.2937 128.834 74.6747 129.839 72.0507C130.395 70.6154 130.815 68.7707 132.542 68.598C134.4 68.4155 136.479 67.6116 138.186 69.3231C138.772 69.9002 138.728 70.566 138.733 71.2516C138.733 76.3763 138.523 81.5207 138.859 86.6257C139.025 89.2349 137.942 89.5851 135.932 89.7035C133.922 89.8219 133.103 88.9932 133.225 86.8871C133.38 84.2505 133.254 81.6047 132.849 78.9954C131.844 81.7279 130.786 84.421 129.854 87.1929C129.337 88.7269 128.663 89.7775 126.815 89.7232C125.044 89.6739 123.79 89.4421 123.244 87.2965C122.48 84.5616 121.379 81.935 119.965 79.4788V86.6356C119.965 89.3533 117.985 90.611 115.492 89.4667C114.731 89.1165 114.516 88.4507 114.516 87.6516C114.516 82.0732 114.516 76.4947 114.516 70.9162C114.516 69.3576 115.345 68.4994 116.907 68.4501C122.009 68.2281 122.868 68.9433 124.385 74.1962C124.956 76.1297 125.766 77.9892 126.663 80.4356Z" fill="#E2E2E2"/>
<path d="M80.3621 79.2367C80.3621 76.5733 80.3621 73.9098 80.3621 71.2463C80.3621 69.4115 81.0451 68.2869 83.1233 68.4349C85.9723 68.6667 88.8261 68.1488 91.6751 69.0662C94.8851 70.0971 96.9877 72.1588 97.6756 75.3352C98.5829 79.5277 98.461 83.7202 95.1681 87.015C93.5338 88.6421 91.3295 89.5499 89.0359 89.5404C86.9284 89.57 84.8161 89.4565 82.694 89.57C80.9378 89.6686 80.367 88.7512 80.3524 87.2271C80.3475 84.5587 80.367 81.9002 80.3621 79.2367ZM85.9772 78.9506C85.9772 80.5043 86.0162 82.058 85.9772 83.6117C85.9479 84.5242 86.3577 84.8694 87.187 84.904C89.7579 85.0075 91.2653 83.735 92.1093 81.3231C93.2411 78.0677 91.9873 73.4609 87.5041 73.0861C86.4747 72.9973 85.9089 73.3426 85.9772 74.5362C86.0455 76.006 85.982 77.4808 85.9772 78.9506Z" fill="#E2E2E2"/>
<path d="M155.739 89.7138C153.787 90.1182 152.812 88.8901 152.48 86.8678C152.275 85.5904 151.548 84.8949 150.299 85.1366C148.806 85.4029 147.011 84.229 145.835 86.0195C145.582 86.4349 145.399 86.8899 145.294 87.366C144.806 89.477 141.791 90.7397 140.108 89.3735C138.776 88.2982 139.689 86.8185 140.084 85.6298C141.757 80.5347 143.552 75.4791 145.318 70.4135C145.718 69.2742 146.338 68.4406 147.758 68.4406C153.226 68.4406 151.855 67.8635 154.143 73.9106C155.763 78.2017 156.958 82.6556 158.773 86.8826C159.578 88.7767 158.671 89.699 155.739 89.7138ZM149.397 77.1314C149.117 77.21 148.855 77.3453 148.629 77.5291C148.402 77.7129 148.214 77.9412 148.078 78.2004C147.941 78.4596 147.857 78.7442 147.833 79.0369C147.808 79.3296 147.842 79.6244 147.933 79.9034C148.192 80.7665 149.348 80.3966 150.167 79.9872C149.889 79.0254 149.645 78.1031 149.387 77.1314H149.397Z" fill="#E2E2E2"/>
<path d="M165.49 81.6995C164.91 83.6329 165.154 85.527 165.237 87.3618C165.334 89.6208 163.959 89.6553 162.412 89.6751C160.866 89.6948 159.553 89.6159 159.597 87.3815C159.709 82.0151 159.67 76.6438 159.597 71.2725C159.597 69.2256 160.446 68.3131 162.451 68.4463C165.178 68.6436 167.959 67.9925 170.632 69.1171C174.481 70.7349 175.999 75.2184 173.306 78.3751C171.496 80.4763 173.101 81.6699 173.657 83.189C174.174 84.5898 174.911 85.8969 175.291 87.3667C175.725 89.0635 174.998 89.4778 173.486 89.7096C170.608 90.1486 169.515 88.6245 168.7 86.1632C168.169 84.501 167.881 82.4147 165.49 81.6995ZM165.173 75.031C165.32 75.8053 164.788 76.9694 166.266 76.8806C167.456 76.8115 168.788 76.7869 168.778 75.0901C168.778 73.5315 167.622 73.2405 166.339 73.1665C164.793 73.0778 165.378 74.2911 165.173 75.031Z" fill="#E2E2E2"/>
<path d="M191.775 68.284C193.073 68.2493 194.359 68.5426 195.517 69.1373C197.434 70.2273 197.303 71.9931 196.629 73.3939C195.956 74.7947 194.512 74.0992 193.429 73.4383C192.773 73.1065 192.036 72.9746 191.307 73.0585C191 73.0174 190.688 73.0828 190.422 73.244C190.156 73.4053 189.952 73.6528 189.843 73.9463C189.551 74.7355 190.161 75.0068 190.595 75.2928C192.439 76.5062 194.658 77.034 196.298 78.6518C198.215 80.5507 198.22 82.9084 197.644 85.1674C197.068 87.4264 195.302 88.9899 192.897 89.5818C190.117 90.2625 187.443 90.1293 184.892 88.7137C183.38 87.8752 183.062 84.8221 184.404 83.7814C185.38 83.0366 186.126 84.0675 186.98 84.2746C187.56 84.4127 188.092 84.8172 188.673 84.8961C190.004 85.0885 191.741 85.3055 192.009 83.6482C192.219 82.3855 190.575 81.8874 189.482 81.404C186.931 80.2794 184.463 78.9822 184.116 75.8305C183.653 70.7502 186.082 68.284 191.775 68.284Z" fill="#E2E2E2"/>
<path d="M99.6466 79.1353C99.6466 76.1759 99.6759 73.2165 99.6466 70.2867C99.6466 68.807 100.349 68.3138 101.691 68.4519C103.154 68.5999 105.252 67.7811 105.306 70.3065C105.423 76.1611 105.393 82.0208 105.306 87.8754C105.281 90.0457 103.505 89.7201 102.144 89.7497C100.881 89.7793 99.5685 89.8336 99.6222 87.8606C99.7051 84.9358 99.6466 82.0257 99.6466 79.1353Z" fill="#E2E2E2"/>
<path d="M176.886 79.0881C176.886 76.1781 176.915 73.268 176.886 70.3579C176.886 68.7006 177.808 68.385 179.174 68.4392C180.54 68.4935 182.394 68.1827 182.423 70.3776C182.501 76.1583 182.477 81.939 182.423 87.7197C182.423 89.7913 180.808 89.6532 179.428 89.6581C178.047 89.6631 176.779 89.7568 176.857 87.6852C176.964 84.8294 176.886 81.9588 176.886 79.0881Z" fill="#E2E2E2"/>
<path d="M41.847 37.8946C41.9153 39.7541 40.8713 40.7702 39.0224 40.854C37.1735 40.9379 36.1783 39.8675 36.0661 38.0229C35.9344 35.9167 37.193 34.8218 39.0468 34.8168C40.7396 34.7922 41.9007 35.8329 41.847 37.8946Z" fill="#E2E2E2"/>
<path d="M97.1144 37.7751C97.1827 39.748 95.9094 40.6802 94.3483 40.6704C92.7043 40.6704 91.5383 39.6395 91.5823 37.6468C91.6262 35.6542 92.8506 35.1807 94.4751 35.1807C96.1923 35.1461 97.0802 36.029 97.1144 37.7751Z" fill="#E2E2E2"/>
<path d="M56.9065 80.4305C54.7112 80.613 53.7697 79.444 53.7014 77.4711C53.6282 75.3256 55.0917 74.5117 56.8967 74.5117C58.7749 74.5117 59.9652 75.6905 59.9165 77.5796C59.8677 79.4687 58.9115 80.6525 56.9065 80.4305Z" fill="#E2E2E2"/>
</svg>
