<svg width="202" height="87" viewBox="0 0 202 87" fill="none" xmlns="http://www.w3.org/2000/svg">
<g clip-path="url(#clip0_1307_16151)">
<path d="M96.7735 56.5009C95.855 55.6105 94.719 54.9305 93.3877 54.4786C92.0875 54.0401 90.5033 53.8164 88.6662 53.8164H83.6074C83.0882 53.8164 82.6223 53.9864 82.254 54.3086C81.8502 54.662 81.6416 55.19 81.6416 55.8745V73.2029C81.6416 73.8875 81.8457 74.4154 82.254 74.7689C82.6223 75.091 83.0882 75.261 83.6074 75.261H88.3156C90.1306 75.261 91.7236 75.0552 93.0593 74.6526C94.4305 74.2365 95.6198 73.5698 96.5827 72.675C97.5545 71.7757 98.3089 70.6034 98.8192 69.1986C99.3207 67.8205 99.5736 66.1561 99.5736 64.2501C99.5736 62.5858 99.3384 61.0959 98.8725 59.8163C98.3977 58.5098 97.6921 57.3957 96.7691 56.5054L96.7735 56.5009ZM88.502 70.5005H87.1885V58.5456H88.4399C89.5537 58.5456 90.4545 58.6932 91.1068 58.9796C91.7458 59.2615 92.2739 59.6552 92.6777 60.1473C93.086 60.6529 93.3921 61.2614 93.583 61.9594C93.7826 62.6976 93.8847 63.5119 93.8847 64.3799C93.8847 65.4492 93.7693 66.3888 93.543 67.1718C93.3256 67.919 93.0016 68.5453 92.5756 69.033C92.1541 69.5162 91.6393 69.8742 91.0048 70.1158C90.3436 70.3663 89.5049 70.4961 88.5064 70.4961L88.502 70.5005Z" fill="white"/>
<path d="M105.932 53.9329C105.728 53.8658 105.48 53.8121 105.169 53.7763C104.885 53.7406 104.535 53.7227 104.1 53.7227C103.665 53.7227 103.332 53.7406 103.048 53.7763C102.742 53.8121 102.493 53.8658 102.285 53.9329C101.979 54.0314 101.748 54.179 101.584 54.3848C101.406 54.6085 101.313 54.8725 101.313 55.1544V73.928C101.313 74.2098 101.406 74.4783 101.584 74.6975C101.743 74.8988 101.974 75.051 102.267 75.1494C102.471 75.2165 102.724 75.2702 103.039 75.306C103.332 75.3418 103.678 75.3597 104.1 75.3597C104.521 75.3597 104.881 75.3418 105.165 75.306C105.475 75.2702 105.724 75.2165 105.928 75.1494C106.221 75.051 106.452 74.8988 106.611 74.702C106.789 74.4828 106.882 74.2143 106.882 73.9324V55.1589C106.882 54.877 106.789 54.613 106.607 54.3848C106.447 54.188 106.216 54.0358 105.924 53.9374L105.932 53.9329Z" fill="white"/>
<path d="M140.625 54.4875C140.412 54.2593 140.146 54.0849 139.831 53.9685C139.547 53.8656 139.223 53.8164 138.863 53.8164H136.165C135.721 53.8164 135.322 53.8656 134.972 53.9596C134.572 54.067 134.217 54.2549 133.924 54.5188C133.645 54.7649 133.405 55.0826 133.201 55.4629C133.023 55.7985 132.859 56.2011 132.717 56.6709L129.016 66.5678L125.444 56.653C125.307 56.1788 125.142 55.7671 124.956 55.4271C124.739 55.0379 124.459 54.7157 124.126 54.4741C123.798 54.2325 123.412 54.058 122.972 53.9596C122.582 53.8701 122.12 53.8254 121.597 53.8254H118.974C118.318 53.8254 117.745 54.0491 117.328 54.4696C116.902 54.8947 116.689 55.4853 116.689 56.2235V73.9367C116.689 74.1962 116.764 74.4467 116.911 74.657C117.062 74.8807 117.297 75.0463 117.603 75.1537C117.803 75.2253 118.047 75.2745 118.349 75.3147C118.628 75.3505 118.957 75.3684 119.36 75.3684C119.764 75.3684 120.11 75.3505 120.381 75.3147C120.674 75.2745 120.913 75.2252 121.113 75.1581C121.428 75.0508 121.663 74.8852 121.819 74.657C121.961 74.4467 122.036 74.1962 122.036 73.9367V62.3486L126.065 74.1559C126.136 74.402 126.278 74.6212 126.474 74.7957C126.642 74.9479 126.846 75.0642 127.104 75.1537C127.321 75.2297 127.574 75.2834 127.885 75.3192C128.156 75.3461 128.479 75.364 128.848 75.364C129.216 75.364 129.522 75.355 129.78 75.3371C130.09 75.3192 130.348 75.2745 130.57 75.2029C130.836 75.1179 131.062 74.9881 131.235 74.8181C131.426 74.6391 131.564 74.411 131.63 74.1828L135.868 62.1965V73.9367C135.868 74.2096 135.952 74.4691 136.116 74.6839C136.272 74.8897 136.494 75.0463 136.778 75.1492C136.973 75.2208 137.217 75.2745 137.523 75.3147C137.803 75.3505 138.131 75.3684 138.535 75.3684C138.939 75.3684 139.285 75.3505 139.56 75.3147C139.862 75.2745 140.106 75.2253 140.301 75.1537C140.607 75.0463 140.842 74.8807 140.993 74.657C141.135 74.4467 141.211 74.1962 141.211 73.9367V56.2235C141.211 55.8835 141.162 55.5703 141.073 55.2929C140.971 54.9886 140.82 54.7247 140.616 54.501L140.625 54.4875Z" fill="white"/>
<path d="M161.628 72.711L155.539 55.1141C155.451 54.8278 155.335 54.5996 155.193 54.4072C155.002 54.1611 154.723 53.9822 154.363 53.8793C154.102 53.8077 153.773 53.7629 153.356 53.745C152.988 53.7271 152.495 53.7227 151.892 53.7227C151.368 53.7227 150.933 53.7316 150.605 53.745C150.223 53.7629 149.917 53.8121 149.673 53.8882C149.34 53.9956 149.083 54.1656 148.901 54.4072C148.768 54.5817 148.661 54.7875 148.573 55.047L142.493 72.6841C142.356 73.0913 142.267 73.4179 142.231 73.6908C142.151 74.2501 142.347 74.608 142.52 74.8138C142.751 75.0823 143.106 75.2478 143.563 75.3015C143.86 75.3373 144.246 75.3552 144.747 75.3552C145.196 75.3552 145.573 75.3418 145.866 75.3239C146.212 75.297 146.487 75.2434 146.704 75.1583C147.002 75.0465 147.232 74.8675 147.388 74.6393C147.499 74.4738 147.592 74.2769 147.645 74.0756L148.719 70.7289H155.002L156.147 74.1696C156.214 74.3933 156.303 74.5767 156.422 74.7333C156.587 74.9525 156.826 75.1091 157.141 75.2031C157.354 75.2657 157.634 75.306 157.989 75.3284C158.295 75.3463 158.712 75.3507 159.24 75.3507C159.768 75.3507 160.172 75.3373 160.483 75.3105C160.953 75.2657 161.299 75.1315 161.543 74.8988C161.712 74.7333 161.987 74.3664 161.898 73.74C161.863 73.4761 161.774 73.145 161.637 72.7155L161.628 72.711ZM153.556 66.0579H150.117L151.839 60.8455L153.56 66.0579H153.556Z" fill="white"/>
<path d="M178.61 72.3713L176.95 68.4609C176.746 67.9643 176.533 67.5124 176.32 67.1142C176.098 66.7026 175.854 66.3312 175.601 66.0091C175.424 65.7809 175.233 65.5751 175.033 65.3871C175.189 65.2977 175.34 65.2082 175.486 65.1098C176.036 64.7429 176.502 64.3089 176.879 63.8078C177.257 63.3067 177.549 62.7295 177.745 62.0986C177.935 61.4767 178.029 60.7877 178.029 60.0495C178.029 59.1681 177.891 58.3672 177.625 57.6692C177.354 56.9623 176.955 56.3359 176.436 55.8169C175.925 55.3024 175.3 54.8818 174.581 54.5686C173.884 54.2644 173.099 54.0496 172.22 53.9244C171.936 53.893 171.616 53.8662 171.266 53.8438C170.915 53.8214 170.467 53.8125 169.939 53.8125H164.836C164.317 53.8125 163.851 53.9825 163.482 54.3047C163.079 54.6581 162.87 55.1861 162.87 55.8706V73.9238C162.87 74.1968 162.954 74.4563 163.114 74.6666C163.269 74.8768 163.505 75.0379 163.811 75.1408C164.015 75.2079 164.268 75.2616 164.583 75.2974C164.876 75.3332 165.222 75.3511 165.644 75.3511C166.065 75.3511 166.425 75.3332 166.709 75.2974C167.019 75.2616 167.268 75.2079 167.472 75.1408C167.765 75.0424 167.995 74.8903 168.155 74.6934C168.333 74.4742 168.426 74.2057 168.426 73.9238V67.1321H168.901C169.225 67.1321 169.504 67.1813 169.735 67.2752C169.961 67.3692 170.157 67.5034 170.33 67.6824C170.525 67.8882 170.711 68.1567 170.88 68.4788C171.075 68.8501 171.275 69.2797 171.47 69.745L173.232 74.1654C173.294 74.3489 173.378 74.5189 173.476 74.6576C173.627 74.8768 173.853 75.0424 174.15 75.1542C174.368 75.2392 174.634 75.2885 174.967 75.3198C175.242 75.3421 175.606 75.3511 176.05 75.3511C176.569 75.3511 176.99 75.3377 177.31 75.3198C177.678 75.2929 177.953 75.2482 178.171 75.1721C178.517 75.0558 178.761 74.8634 178.898 74.6039C179 74.4115 179.049 74.1923 179.049 73.9552C179.049 73.7762 179.014 73.5749 178.943 73.3154C178.885 73.1095 178.779 72.8053 178.606 72.3713H178.61ZM172.335 60.4656C172.335 60.7922 172.282 61.083 172.18 61.3336C172.082 61.5707 171.94 61.772 171.745 61.942C171.541 62.121 171.275 62.2642 170.951 62.3716C170.605 62.4834 170.183 62.5416 169.695 62.5416H168.43V58.4701H169.451C169.877 58.4701 170.205 58.4835 170.436 58.5104C170.658 58.5372 170.862 58.573 171.017 58.6088C171.506 58.743 171.834 58.9488 172.02 59.2352C172.233 59.5573 172.335 59.96 172.335 60.4656V60.4656Z" fill="white"/>
<path d="M185.062 53.9329C184.858 53.8658 184.61 53.8121 184.299 53.7763C184.015 53.7406 183.665 53.7227 183.23 53.7227C182.795 53.7227 182.462 53.7406 182.178 53.7763C181.872 53.8121 181.623 53.8658 181.415 53.9329C181.108 54.0314 180.878 54.179 180.714 54.3848C180.536 54.6085 180.443 54.8725 180.443 55.1544V73.928C180.443 74.2098 180.536 74.4783 180.714 74.6975C180.873 74.8988 181.104 75.051 181.397 75.1494C181.601 75.2165 181.854 75.2702 182.169 75.306C182.462 75.3418 182.808 75.3597 183.23 75.3597C183.651 75.3597 184.011 75.3418 184.295 75.306C184.605 75.2702 184.854 75.2165 185.058 75.1494C185.351 75.051 185.582 74.8988 185.741 74.702C185.919 74.4828 186.012 74.2143 186.012 73.9324V55.1589C186.012 54.877 185.919 54.613 185.737 54.3848C185.577 54.188 185.346 54.0358 185.053 53.9374L185.062 53.9329Z" fill="white"/>
<path d="M201.574 66.1334C201.295 65.4623 200.927 64.8672 200.469 64.3706C200.026 63.8829 199.515 63.4579 198.947 63.1089C198.415 62.7823 197.865 62.487 197.314 62.2275C196.777 61.9769 196.254 61.7443 195.739 61.5206C195.269 61.3148 194.843 61.0955 194.479 60.8673C194.164 60.6705 193.911 60.4468 193.733 60.2052C193.596 60.0217 193.529 59.798 193.529 59.5296C193.529 59.3327 193.565 59.1537 193.631 58.9793C193.693 58.8271 193.782 58.7019 193.906 58.5945C194.048 58.4737 194.23 58.3752 194.457 58.2992C194.701 58.2186 195.007 58.1784 195.357 58.1784C195.841 58.1784 196.285 58.2365 196.68 58.3529C197.106 58.4781 197.487 58.6213 197.803 58.769C198.135 58.9256 198.419 59.0732 198.641 59.203C199.018 59.4267 199.307 59.5251 199.564 59.5251C199.955 59.5251 200.208 59.364 200.359 59.2253C200.532 59.0643 200.656 58.8406 200.731 58.5632C200.78 58.3797 200.811 58.165 200.833 57.9099C200.851 57.6862 200.86 57.4222 200.86 57.1001C200.86 56.8182 200.856 56.5811 200.842 56.3887C200.829 56.174 200.807 55.9816 200.771 55.8205C200.731 55.6371 200.682 55.4849 200.616 55.3552C200.54 55.2075 200.43 55.0599 200.265 54.8899C200.097 54.7199 199.839 54.5543 199.431 54.3574C199.081 54.1874 198.677 54.0308 198.233 53.8966C197.798 53.7669 197.319 53.6595 196.817 53.5834C195.331 53.3552 193.844 53.4626 192.513 53.8519C191.612 54.1158 190.813 54.523 190.143 55.0599C189.46 55.6057 188.91 56.3037 188.51 57.127C188.111 57.9547 187.907 58.9121 187.907 59.9815C187.907 60.9121 188.049 61.7309 188.333 62.4154C188.608 63.091 188.976 63.6861 189.429 64.1872C189.868 64.6749 190.37 65.0999 190.929 65.4489C191.448 65.7755 191.994 66.0708 192.553 66.3303C193.085 66.5764 193.605 66.8135 194.106 67.0372C194.563 67.2386 194.976 67.4578 195.335 67.686C195.646 67.8873 195.903 68.1155 196.09 68.3616C196.227 68.545 196.298 68.7732 196.298 69.0506C196.298 69.328 196.249 69.5696 196.152 69.7888C196.059 69.9902 195.934 70.1557 195.761 70.2944C195.57 70.4465 195.326 70.5718 195.038 70.6568C194.727 70.7508 194.363 70.8 193.951 70.8C193.29 70.8 192.704 70.7239 192.216 70.5807C191.701 70.4242 191.253 70.2541 190.889 70.0707C190.512 69.8783 190.201 69.7083 189.966 69.5517C189.22 69.064 188.666 69.0774 188.218 69.4085C188.013 69.5606 187.858 69.7799 187.76 70.0662C187.694 70.2631 187.65 70.4913 187.623 70.7687C187.601 71.0103 187.587 71.2966 187.587 71.6411C187.587 72.178 187.623 72.5896 187.689 72.8939C187.778 73.2921 187.942 73.6142 188.182 73.8514C188.364 74.0348 188.63 74.2272 188.99 74.4375C189.331 74.6343 189.748 74.8222 190.241 74.9967C190.72 75.1668 191.279 75.3144 191.901 75.4352C192.531 75.556 193.219 75.6186 193.942 75.6186C195.016 75.6186 196.045 75.471 196.999 75.1847C197.976 74.8894 198.841 74.4464 199.578 73.8558C200.327 73.2563 200.927 72.5046 201.361 71.6143C201.801 70.7194 202.023 69.6814 202.023 68.5182C202.023 67.6189 201.881 66.818 201.597 66.1334H201.574Z" fill="white"/>
<path d="M39.0857 25.0361C40.6565 25.0361 41.9257 23.7565 41.9257 22.1726C41.9257 20.5888 40.6521 19.3047 39.0857 19.3047C37.5192 19.3047 36.2412 20.5932 36.2412 22.1726C36.2412 23.752 37.5148 25.0361 39.0857 25.0361Z" fill="#ED1C24"/>
<path d="M35.3359 0.993263C34.7147 0.362407 33.8272 0 32.9086 0C31.99 0 31.107 0.362407 30.4857 0.988789L13.388 18.2277L0 4.72918V14.5142L8.53777 23.1224L0 31.7307V41.5112L13.3835 28.0082L30.4813 45.2472C31.1158 45.8914 32.0033 46.2628 32.9086 46.2628C33.8138 46.2628 34.6969 45.8959 35.3315 45.2516L52.0653 28.3796V17.8653L35.3359 0.993263ZM32.913 37.914L18.2382 23.1224L32.913 8.32641L47.5834 23.1224L32.913 37.914V37.914Z" fill="#ED1C24"/>
<path d="M95.8547 25.0361C97.4256 25.0361 98.6947 23.7565 98.6947 22.1726C98.6947 20.5888 97.4211 19.3047 95.8547 19.3047C94.2883 19.3047 93.0103 20.5932 93.0103 22.1726C93.0103 23.752 94.2838 25.0361 95.8547 25.0361Z" fill="#ED1C24"/>
<path d="M92.105 0.993263C91.4837 0.362407 90.5962 0 89.6776 0C88.7591 0 87.876 0.362407 87.2548 0.988789L70.157 18.2277L56.769 4.72918V14.5142L65.3068 23.1224L56.769 31.7307V41.5112L70.1526 28.0082L87.2503 45.2472C87.8849 45.8914 88.7724 46.2628 89.6776 46.2628C90.5829 46.2628 91.466 45.8959 92.1005 45.2516L108.834 28.3796V17.8653L92.105 0.993263ZM89.6821 37.914L75.0072 23.1224L89.6821 8.32641L104.352 23.1224L89.6821 37.914Z" fill="#ED1C24"/>
<path d="M57.3772 65.7783C58.948 65.7783 60.2172 64.4987 60.2172 62.9148C60.2172 61.331 58.9436 60.0469 57.3772 60.0469C55.8107 60.0469 54.5327 61.3354 54.5327 62.9148C54.5327 64.4942 55.8063 65.7783 57.3772 65.7783Z" fill="#ED1C24"/>
<path d="M53.6274 41.7315C53.0062 41.1007 52.1187 40.7383 51.2001 40.7383C50.2815 40.7383 49.3985 41.1007 48.7772 41.7271L31.6795 58.966L18.2915 45.4675V55.2524L26.8293 63.8607L18.2915 72.469V82.2495L31.675 68.7465L48.7728 85.9854C49.4073 86.6297 50.2948 87.0011 51.2001 87.0011C52.1053 87.0011 52.9884 86.6342 53.623 85.9899L70.3568 69.1179V58.6036L53.623 41.736L53.6274 41.7315ZM51.2045 78.6523L36.5297 63.8607L51.2045 49.0647L65.875 63.8607L51.2045 78.6523V78.6523Z" fill="#ED1C24"/>
</g>
<defs>
<clipPath id="clip0_1307_16151">
<rect width="202" height="87" fill="white"/>
</clipPath>
</defs>
</svg>
