<svg width="24" height="25" viewBox="0 0 24 25" fill="none" xmlns="http://www.w3.org/2000/svg">
<path d="M16.8725 8.9845C16.7684 8.7113 16.6089 8.46322 16.4044 8.25625C16.1999 8.04928 15.9548 7.888 15.685 7.7828C15.3135 7.64342 14.9211 7.56975 14.525 7.56501C13.8663 7.53461 13.6688 7.52702 12 7.52702C10.3313 7.52702 10.1338 7.53461 9.475 7.56501C9.07845 7.5696 8.68564 7.64328 8.31375 7.7828C8.04407 7.88829 7.79918 8.04983 7.59487 8.25702C7.39055 8.46421 7.23135 8.71245 7.1275 8.98577C6.98991 9.3621 6.91719 9.75958 6.9125 10.1609C6.8825 10.8282 6.875 11.0283 6.875 12.7187C6.875 14.4092 6.8825 14.6093 6.9125 15.2766C6.91704 15.6783 6.98977 16.0763 7.1275 16.453C7.23163 16.7262 7.3911 16.9743 7.59562 17.1812C7.80015 17.3882 8.04521 17.5495 8.315 17.6547C8.6865 17.7941 9.07887 17.8677 9.475 17.8725C10.1338 17.9029 10.3313 17.9092 12 17.9092C13.6688 17.9092 13.8663 17.9029 14.525 17.8712C14.9215 17.867 15.3143 17.7938 15.6863 17.6547C15.9559 17.5492 16.2008 17.3877 16.4051 17.1805C16.6095 16.9733 16.7687 16.725 16.8725 16.4517C17.0101 16.0754 17.0828 15.6779 17.0875 15.2766C17.1175 14.6093 17.1238 14.4092 17.1238 12.7187C17.1238 11.0283 17.1175 10.8282 17.0863 10.1609C17.0821 9.75923 17.0098 9.36131 16.8725 8.9845ZM12 15.9705C11.3651 15.9705 10.7445 15.7798 10.2166 15.4225C9.68874 15.0652 9.27731 14.5573 9.03435 13.9632C8.79139 13.369 8.72782 12.7151 8.85168 12.0844C8.97554 11.4536 9.28126 10.8742 9.73019 10.4194C10.1791 9.96461 10.7511 9.6549 11.3738 9.52943C11.9964 9.40396 12.6419 9.46836 13.2284 9.71448C13.815 9.9606 14.3163 10.3774 14.669 10.9121C15.0217 11.4469 15.21 12.0756 15.21 12.7187C15.21 13.5812 14.8718 14.4083 14.2698 15.0181C13.6678 15.6279 12.8513 15.9705 12 15.9705ZM15.3363 10.0988C15.1879 10.0988 15.0429 10.0543 14.9196 9.97078C14.7962 9.88729 14.7001 9.76864 14.6433 9.62981C14.5866 9.49098 14.5717 9.33821 14.6007 9.19083C14.6296 9.04345 14.701 8.90808 14.8059 8.80182C14.9108 8.69557 15.0444 8.62321 15.1899 8.59389C15.3354 8.56458 15.4862 8.57962 15.6233 8.63713C15.7603 8.69463 15.8774 8.79201 15.9599 8.91695C16.0423 9.0419 16.0863 9.18879 16.0863 9.33906C16.0863 9.54056 16.0072 9.73381 15.8666 9.87629C15.7259 10.0188 15.5352 10.0988 15.3363 10.0988ZM14.0838 12.7187C14.0838 13.1362 13.9615 13.5444 13.7326 13.8915C13.5036 14.2386 13.1782 14.5092 12.7974 14.6689C12.4167 14.8287 11.9977 14.8705 11.5935 14.7891C11.1893 14.7076 10.818 14.5066 10.5266 14.2114C10.2352 13.9162 10.0367 13.54 9.95629 13.1306C9.87589 12.7211 9.91716 12.2967 10.0749 11.9109C10.2326 11.5252 10.4997 11.1956 10.8423 10.9636C11.185 10.7317 11.5879 10.6079 12 10.6079C12.5526 10.6079 13.0827 10.8303 13.4734 11.2261C13.8642 11.622 14.0838 12.1589 14.0838 12.7187ZM12 0.5625C9.62663 0.5625 7.30655 1.27545 5.33316 2.6112C3.35977 3.94694 1.8217 5.84549 0.913451 8.06675C0.00519939 10.288 -0.232441 12.7322 0.230582 15.0903C0.693605 17.4484 1.83649 19.6144 3.51472 21.3145C5.19295 23.0146 7.33115 24.1724 9.65892 24.6414C11.9867 25.1105 14.3995 24.8697 16.5922 23.9497C18.7849 23.0296 20.6591 21.4715 21.9776 19.4724C23.2962 17.4733 24 15.123 24 12.7187C24 9.49471 22.7357 6.40272 20.4853 4.12298C18.2348 1.84324 15.1826 0.5625 12 0.5625V0.5625ZM18.2125 15.3285C18.2019 15.854 18.1034 16.3737 17.9213 16.8658C17.7607 17.2863 17.5152 17.6682 17.2005 17.987C16.8858 18.3058 16.5089 18.5545 16.0938 18.7171C15.6084 18.9015 15.0957 19.0013 14.5775 19.0121C13.91 19.0425 13.6975 19.0501 12 19.0501C10.3025 19.0501 10.09 19.0425 9.4225 19.0121C8.90426 19.0013 8.39159 18.9015 7.90625 18.7171C7.49116 18.5545 7.11417 18.3058 6.79947 17.987C6.48477 17.6682 6.23928 17.2863 6.07875 16.8658C5.89671 16.3741 5.79823 15.8548 5.7875 15.3298C5.7575 14.6536 5.75 14.4384 5.75 12.7187C5.75 10.9991 5.7575 10.7839 5.7875 10.1077C5.79783 9.58277 5.89588 9.06342 6.0775 8.57169C6.23803 8.15083 6.48364 7.76862 6.79857 7.44959C7.1135 7.13055 7.4908 6.88175 7.90625 6.71913C8.39166 6.53515 8.90433 6.43581 9.4225 6.42536C10.09 6.39497 10.3025 6.38737 12 6.38737C13.6975 6.38737 13.91 6.39497 14.5775 6.42536C15.0957 6.43581 15.6083 6.53515 16.0938 6.71913C16.509 6.88189 16.886 7.13077 17.2007 7.44979C17.5155 7.76882 17.7609 8.15096 17.9213 8.57169C18.1033 9.06335 18.2018 9.5827 18.2125 10.1077C18.2425 10.7839 18.25 10.9991 18.25 12.7187C18.25 14.4384 18.2425 14.6536 18.2125 15.3298V15.3285Z" fill="#F5FAFF"/>
</svg>
