<svg width="24" height="25" viewBox="0 0 24 25" fill="none" xmlns="http://www.w3.org/2000/svg">
<path d="M12 0.5625C5.3725 0.5625 0 6.00495 0 12.7188C0 19.4325 5.3725 24.875 12 24.875C18.6275 24.875 24 19.4325 24 12.7188C24 6.00495 18.6275 0.5625 12 0.5625ZM9.0625 17.7573H6.6325V9.83544H9.0625V17.7573ZM7.8325 8.86294C7.065 8.86294 6.56875 8.31211 6.56875 7.63085C6.56875 6.93567 7.08 6.4013 7.86375 6.4013C8.6475 6.4013 9.1275 6.93567 9.1425 7.63085C9.1425 8.31211 8.6475 8.86294 7.8325 8.86294ZM17.9375 17.7573H15.5075V13.3671C15.5075 12.3452 15.155 11.6513 14.2763 11.6513C13.605 11.6513 13.2063 12.1211 13.03 12.5731C12.965 12.7339 12.9488 12.9619 12.9488 13.1885V17.756H10.5175V12.3617C10.5175 11.3727 10.4862 10.5458 10.4537 9.83417H12.565L12.6763 10.9346H12.725C13.045 10.4179 13.8288 9.65563 15.14 9.65563C16.7388 9.65563 17.9375 10.7408 17.9375 13.0733V17.7573Z" fill="#F5FAFF"/>
</svg>
