<svg width="31" height="31" viewBox="0 0 31 31" fill="none" xmlns="http://www.w3.org/2000/svg">
<g clip-path="url(#clip0_1307_19761)">
<path d="M31 27.125C31 28.1527 30.5917 29.1383 29.865 29.865C29.1383 30.5917 28.1527 31 27.125 31L3.875 31C2.84729 31 1.86166 30.5917 1.13496 29.865C0.408258 29.1383 0 28.1527 0 27.125L0 3.875C0 2.84729 0.408258 1.86166 1.13496 1.13496C1.86166 0.408258 2.84729 0 3.875 0L27.125 0C28.1527 0 29.1383 0.408258 29.865 1.13496C30.5917 1.86166 31 2.84729 31 3.875L31 27.125ZM22.2813 14.5312L11.0573 14.5312L15.2171 10.3734C15.399 10.1915 15.5012 9.94475 15.5012 9.6875C15.5012 9.43025 15.399 9.18353 15.2171 9.00162C15.0352 8.81972 14.7885 8.71753 14.5313 8.71753C14.274 8.71753 14.0273 8.81972 13.8454 9.00162L8.03288 14.8141C7.94266 14.9041 7.87108 15.011 7.82224 15.1287C7.77341 15.2464 7.74827 15.3726 7.74827 15.5C7.74827 15.6274 7.77341 15.7536 7.82224 15.8713C7.87108 15.989 7.94266 16.0959 8.03288 16.1859L13.8454 21.9984C14.0273 22.1803 14.274 22.2825 14.5313 22.2825C14.7885 22.2825 15.0352 22.1803 15.2171 21.9984C15.399 21.8165 15.5012 21.5698 15.5012 21.3125C15.5012 21.0552 15.399 20.8085 15.2171 20.6266L11.0573 16.4687L22.2813 16.4687C22.5382 16.4687 22.7846 16.3667 22.9663 16.185C23.1479 16.0033 23.25 15.7569 23.25 15.5C23.25 15.2431 23.1479 14.9967 22.9663 14.815C22.7846 14.6333 22.5382 14.5312 22.2813 14.5312Z" fill="white" fill-opacity="0.8"/>
</g>
<defs>
<clipPath id="clip0_1307_19761">
<rect width="31" height="31" fill="white"/>
</clipPath>
</defs>
</svg>
