<svg width="24" height="25" viewBox="0 0 24 25" fill="none" xmlns="http://www.w3.org/2000/svg">
<path d="M12 0.5625C5.37258 0.5625 0 6.00504 0 12.7188C0 19.4325 5.37258 24.875 12 24.875C18.6274 24.875 24 19.4325 24 12.7188C24 6.00504 18.6274 0.5625 12 0.5625ZM12 4.68037C15.3037 4.68037 17.9824 7.39399 17.9824 10.7407C17.9824 11.7545 17.7082 13.0927 17.1445 13.8495L12 20.7571L6.85546 13.8495C6.23488 13.0163 6.01756 11.86 6.01756 10.7407C6.01758 7.39399 8.6963 4.68037 12 4.68037ZM12 8.19132C10.6099 8.19132 9.4834 9.33253 9.4834 10.7407C9.4834 12.1488 10.6099 13.2901 12 13.2901C13.3901 13.2901 14.5166 12.1488 14.5166 10.7407C14.5166 9.33253 13.3901 8.19132 12 8.19132Z" fill="#F5FAFF"/>
</svg>
