<svg width="515" height="201" viewBox="0 0 515 201" fill="none" xmlns="http://www.w3.org/2000/svg">
<g opacity="0.2" clip-path="url(#clip0_806_7842)">
<path fill-rule="evenodd" clip-rule="evenodd" d="M191.859 77.4163C162.224 65.3872 134.168 37.0953 115.9 0C110.51 9.40822 108.48 20.3397 110.127 36.8937C92.2871 35.3032 78.8905 33.668 42.4673 24.3494C53.7438 35.124 79.4318 55.1501 117.84 66.9104C140.212 72.5105 172.441 75.9602 191.859 77.4163Z" fill="#E2E2E2"/>
<path fill-rule="evenodd" clip-rule="evenodd" d="M342.807 39.9185C361.165 26.4782 377.855 12.6347 400.408 6.90016C433.02 0.650408 462.835 19.6461 429.794 57.0998C404.061 83.2412 352.257 109.181 278.689 109.181H278.553C234.394 109.181 182.432 99.7952 123.546 75.5802C207.195 95.0015 275.464 95.0015 342.694 39.9185H342.807Z" fill="#E2E2E2"/>
<path d="M53.9245 138.168L37.0998 174.726C37.0202 174.932 36.9299 175.134 36.8292 175.33L36.4007 176.271C35.3407 178.511 34.5062 180.527 33.965 182.095L32.1833 177.615L32.048 177.302C31.5743 176.137 31.236 175.263 30.9654 174.77L13.9829 138.638L13.7799 138.168L0 198.493H9.02124L15.1557 170.246C15.5022 168.881 15.7658 167.497 15.945 166.101C15.945 165.183 16.148 164.242 16.2157 163.346C16.4638 164.197 16.7795 165.071 17.0952 165.922C17.5689 167.154 18.1101 168.364 18.7191 169.641L33.8296 200.688L33.9875 201.001L49.1883 170.246C49.8347 168.951 50.3849 167.61 50.8347 166.236C51.1504 165.273 51.4211 164.287 51.6466 163.301C51.7594 164.287 51.9172 165.385 52.0526 166.437C52.3006 168.543 52.4585 169.708 52.5713 170.134L58.9312 198.381V198.515H67.9525L54.1274 138.661L53.9245 138.168Z" fill="#E2E2E2"/>
<path d="M99.0307 138.434L70.9521 198.265L70.8394 198.489H81.1912L87.9572 183.772H110.51L117.006 198.377H127.245L99.2337 138.882L99.0307 138.434ZM97.1814 162.873C97.5648 161.909 97.9256 160.924 98.2639 159.871C98.6022 158.818 98.8277 158.079 99.0984 156.981C99.4141 158.034 99.7073 159.042 100.023 159.983C100.339 160.924 100.722 161.954 101.106 162.873L106.902 175.663H91.3627L97.1814 162.873Z" fill="#E2E2E2"/>
<path d="M159.27 167.736C161.687 164.616 162.889 160.734 162.653 156.805C162.689 154.309 162.189 151.835 161.187 149.547C160.277 147.42 158.842 145.555 157.014 144.126C155.388 142.917 153.519 142.07 151.534 141.639C148.564 141.06 145.538 140.812 142.513 140.9H129.342V198.492H138.363V172.911H139.152L158.255 198.425H169.283L149.594 172.485C153.309 172.177 156.767 170.48 159.27 167.736ZM138.972 149.256H140.483C145.152 149.256 148.377 149.905 150.068 151.182C151.001 151.977 151.723 152.987 152.171 154.123C152.62 155.26 152.78 156.488 152.639 157.701C152.768 158.809 152.617 159.933 152.2 160.969C151.783 162.006 151.112 162.922 150.249 163.637C148.647 164.757 145.377 165.317 140.483 165.317H138.972V149.256Z" fill="#E2E2E2"/>
<path d="M182.5 140.965H172.779V198.512H182.5V140.965Z" fill="#E2E2E2"/>
<path d="M231.846 141.256L232.116 140.965H220.208L199.753 164.329V140.965H190.055V198.489H199.753V169.615L222.215 198.422L222.283 198.489H234.8L209.157 166.569L231.846 141.256Z" fill="#E2E2E2"/>
<path d="M283.763 148.405C277.879 142.772 270.025 139.625 261.853 139.625C253.681 139.625 245.827 142.772 239.942 148.405C237.056 151.185 234.768 154.519 233.218 158.204C231.667 161.889 230.886 165.848 230.921 169.842C230.872 173.829 231.639 177.784 233.176 181.468C234.754 185.126 237.055 188.432 239.942 191.19C242.826 193.994 246.236 196.209 249.979 197.708C253.772 199.215 257.824 199.975 261.909 199.948C265.944 199.978 269.944 199.217 273.682 197.708C277.434 196.19 280.856 193.97 283.763 191.167C286.655 188.404 288.956 185.09 290.529 181.423C292.865 175.877 293.469 169.761 292.263 163.869C291.056 157.977 288.095 152.582 283.763 148.382V148.405ZM261.909 190.966C259.15 190.972 256.417 190.426 253.875 189.36C251.333 188.294 249.034 186.73 247.114 184.761C245.168 182.796 243.634 180.466 242.604 177.906C241.549 175.324 241.012 172.562 241.025 169.775C241.008 166.958 241.544 164.166 242.604 161.554C243.636 158.989 245.169 156.652 247.114 154.677C249.038 152.715 251.339 151.157 253.88 150.095C256.422 149.033 259.152 148.488 261.909 148.494C264.661 148.479 267.387 149.028 269.915 150.107C272.452 151.132 274.753 152.656 276.681 154.587C278.632 156.574 280.166 158.927 281.192 161.509C283.297 166.736 283.297 172.567 281.192 177.794C279.094 182.939 275.044 187.058 269.915 189.263C267.402 190.406 264.674 191.009 261.909 191.033V190.966Z" fill="#E2E2E2"/>
<path d="M346.935 138.168L330.132 174.726L329.907 175.218L329.433 176.271C328.514 178.17 327.694 180.114 326.975 182.095L325.193 177.615L325.013 177.167C324.562 176.047 324.224 175.241 323.998 174.77L306.722 138.168L292.942 198.493H301.964L308.188 170.246C308.528 168.881 308.784 167.497 308.955 166.101C309.09 165.25 309.158 164.354 309.226 163.324C309.496 164.197 309.79 165.071 310.128 165.922C310.624 167.177 311.143 168.386 311.752 169.641L326.817 200.733L326.975 201.046L342.198 170.246C342.837 168.947 343.387 167.608 343.845 166.236C344.167 165.28 344.438 164.308 344.657 163.324C344.792 164.354 344.927 165.385 345.04 166.437C345.311 168.678 345.469 169.708 345.581 170.134L351.941 198.381V198.515H360.963L346.98 138.683L346.935 138.168Z" fill="#E2E2E2"/>
<path d="M365.338 198.489H397.837V189.82H375.035V171.676H397.837V163.164H375.035V149.186H397.837V140.965H365.338V198.489Z" fill="#E2E2E2"/>
<path d="M433.516 167.737C435.954 164.627 437.165 160.739 436.921 156.805C436.954 154.308 436.446 151.833 435.433 149.547C434.6 147.544 433.284 145.775 431.6 144.396C429.917 143.018 427.918 142.071 425.78 141.64C422.81 141.059 419.784 140.811 416.759 140.901H403.7V198.493H412.722V172.911H413.511L432.614 198.425H443.642L423.863 172.486C427.565 172.155 431.008 170.461 433.516 167.737ZM413.218 149.256H414.729C419.375 149.256 422.6 149.906 424.314 151.183C425.243 151.98 425.961 152.991 426.405 154.127C426.849 155.263 427.006 156.491 426.863 157.701C426.994 158.808 426.847 159.93 426.434 160.966C426.02 162.003 425.354 162.921 424.494 163.637C422.893 164.757 419.623 165.317 414.729 165.317H413.218V149.256Z" fill="#E2E2E2"/>
<path d="M490.169 145.603C487.39 143.694 484.353 142.185 481.148 141.123C477.996 140.134 474.71 139.635 471.405 139.645C467.284 139.628 463.197 140.388 459.361 141.885C455.658 143.331 452.289 145.511 449.461 148.291C446.601 151.066 444.351 154.399 442.853 158.08C441.333 161.855 440.567 165.888 440.597 169.953C440.574 174.032 441.34 178.078 442.853 181.87C444.345 185.522 446.573 188.833 449.4 191.599C452.228 194.364 455.594 196.527 459.294 197.953C463.208 199.449 467.369 200.209 471.563 200.193C474.845 200.229 478.114 199.776 481.26 198.849C484.222 197.97 487.013 196.599 489.515 194.795V183.684L489.222 183.931C486.603 186.213 483.614 188.038 480.381 189.329C477.305 190.523 474.03 191.131 470.728 191.121C468.04 191.183 465.369 190.685 462.887 189.659C460.404 188.633 458.166 187.101 456.317 185.163C452.637 180.886 450.642 175.43 450.7 169.804C450.758 164.179 452.865 158.765 456.633 154.564C458.615 152.569 460.995 151.006 463.621 149.977C466.246 148.947 469.058 148.472 471.878 148.583C475.031 148.574 478.158 149.144 481.103 150.263C484.151 151.442 486.974 153.131 489.447 155.258L489.718 155.504L490.259 145.76L490.169 145.603Z" fill="#E2E2E2"/>
<path fill-rule="evenodd" clip-rule="evenodd" d="M507.174 156.491C508.722 156.491 510.235 156.035 511.522 155.181C512.809 154.327 513.812 153.113 514.404 151.693C514.996 150.273 515.151 148.71 514.849 147.202C514.547 145.694 513.802 144.309 512.708 143.222C511.613 142.135 510.219 141.395 508.701 141.095C507.183 140.795 505.609 140.949 504.179 141.537C502.749 142.125 501.527 143.122 500.667 144.4C499.807 145.678 499.348 147.181 499.348 148.718C499.342 149.741 499.54 150.754 499.932 151.7C500.323 152.646 500.899 153.505 501.627 154.228C502.355 154.951 503.22 155.523 504.172 155.912C505.124 156.3 506.145 156.497 507.174 156.491ZM507.174 154.475C506.028 154.475 504.907 154.138 503.954 153.505C503.001 152.872 502.258 151.973 501.819 150.921C501.38 149.869 501.266 148.712 501.489 147.595C501.713 146.478 502.265 145.453 503.075 144.648C503.886 143.842 504.919 143.294 506.043 143.072C507.167 142.85 508.333 142.964 509.392 143.4C510.451 143.835 511.356 144.573 511.993 145.52C512.63 146.467 512.97 147.58 512.97 148.718C513.022 149.492 512.908 150.267 512.637 150.994C512.365 151.721 511.942 152.382 511.394 152.934C510.846 153.487 510.187 153.918 509.46 154.199C508.732 154.48 507.953 154.605 507.174 154.565V154.475ZM508.843 149.345C509.113 149.323 509.376 149.247 509.616 149.121C509.856 148.996 510.068 148.823 510.238 148.613C510.409 148.404 510.535 148.162 510.609 147.903C510.684 147.644 510.704 147.373 510.67 147.105C510.67 145.201 509.632 144.619 507.896 144.619H503.926V152.773H505.64V149.345H506.971L508.798 152.773H510.805L508.843 149.345ZM505.64 147.845V146.254H507.445C508.302 146.254 509.046 146.254 509.046 146.971C509.046 147.688 508.302 147.845 507.445 147.845H505.64Z" fill="#E2E2E2"/>
</g>
<defs>
<clipPath id="clip0_806_7842">
<rect width="515" height="201" fill="white"/>
</clipPath>
</defs>
</svg>
