<svg width="200" height="78" viewBox="0 0 200 78" fill="none" xmlns="http://www.w3.org/2000/svg">
<g clip-path="url(#clip0_806_7828)">
<path fill-rule="evenodd" clip-rule="evenodd" d="M74.5084 30.0421C62.9997 25.3741 52.1042 14.3952 45.0098 0C42.9165 3.65095 42.1283 7.89301 42.7676 14.3169C35.8397 13.6998 30.6371 13.0652 16.4922 9.44901C20.8714 13.6302 30.8473 21.4015 45.763 25.9652C54.4515 28.1384 66.9673 29.4771 74.5084 30.0421Z" fill="#E2E2E2"/>
<path fill-rule="evenodd" clip-rule="evenodd" d="M133.129 15.4912C140.258 10.2755 146.74 4.90342 155.498 2.67808C168.163 0.252805 179.742 7.62425 166.91 22.1585C156.917 32.303 136.799 42.3692 108.229 42.3692H108.176C91.027 42.3692 70.8474 38.7269 47.979 29.33C80.4642 36.8666 106.976 36.8666 133.085 15.4912H133.129Z" fill="#E2E2E2"/>
<path d="M20.9415 53.6172L14.4077 67.8037C14.3768 67.8837 14.3417 67.9621 14.3026 68.0384L14.1362 68.4035C13.7245 69.2728 13.4005 70.0552 13.1903 70.6637L12.4984 68.9251L12.4458 68.8034C12.2619 68.3514 12.1305 68.0124 12.0254 67.8211L5.43026 53.7997L5.35143 53.6172L0 77.0267H3.50339L5.8857 66.0652C6.02029 65.5357 6.12266 64.9987 6.19225 64.457C6.19225 64.1006 6.27107 63.7355 6.29735 63.3878C6.39369 63.7182 6.51631 64.0572 6.63893 64.3875C6.82286 64.8656 7.03306 65.335 7.26954 65.8305L13.1377 77.8786L13.199 78.0003L19.1023 66.0652C19.3533 65.5627 19.567 65.0426 19.7416 64.5092C19.8642 64.1354 19.9693 63.7529 20.0569 63.3704C20.1007 63.7529 20.162 64.1789 20.2146 64.5874C20.3109 65.4046 20.3722 65.8566 20.416 66.0217L22.8859 76.9833V77.0354H26.3893L21.0204 53.8084L20.9415 53.6172Z" fill="#E2E2E2"/>
<path d="M38.4584 53.7227L27.554 76.941L27.5103 77.0279H31.5304L34.1579 71.3168H42.9164L45.4389 76.9844H49.4152L38.5372 53.8965L38.4584 53.7227ZM37.7402 63.2064C37.8891 62.8327 38.0292 62.4502 38.1606 62.0416C38.2919 61.6331 38.3795 61.3462 38.4846 60.9203C38.6073 61.3288 38.7211 61.72 38.8437 62.0851C38.9663 62.4502 39.1152 62.85 39.2641 63.2064L41.5151 68.17H35.4805L37.7402 63.2064Z" fill="#E2E2E2"/>
<path d="M61.8525 65.0925C62.7913 63.8819 63.2578 62.3754 63.1663 60.8505C63.1803 59.8822 62.9862 58.922 62.597 58.034C62.2438 57.2087 61.6865 56.4851 60.9766 55.9304C60.3449 55.4615 59.6191 55.1324 58.8483 54.9655C57.695 54.7406 56.5199 54.6443 55.3449 54.6786H50.23V77.0277H53.7334V67.1006H54.0399L61.4584 77.0016H65.7413L58.0951 66.9354C59.5376 66.816 60.8806 66.1573 61.8525 65.0925ZM53.9699 57.921H54.5567C56.3697 57.921 57.6221 58.1731 58.279 58.6686C58.6413 58.977 58.9218 59.3689 59.0958 59.8099C59.2699 60.251 59.3323 60.7277 59.2775 61.1982C59.3277 61.6285 59.2691 62.0644 59.107 62.4666C58.9449 62.8688 58.6844 63.2245 58.3491 63.5018C57.7272 63.9364 56.4573 64.1537 54.5567 64.1537H53.9699V57.921Z" fill="#E2E2E2"/>
<path d="M70.8735 54.7031H67.0986V77.0348H70.8735V54.7031Z" fill="#E2E2E2"/>
<path d="M90.0371 54.8161L90.1422 54.7031H85.5177L77.5738 63.7697V54.7031H73.8076V77.0261H77.5738V65.8211L86.2972 77L86.3235 77.0261H91.1845L81.2261 64.6389L90.0371 54.8161Z" fill="#E2E2E2"/>
<path d="M110.199 57.5906C107.914 55.4049 104.864 54.1836 101.69 54.1836C98.5167 54.1836 95.4667 55.4049 93.1815 57.5906C92.0606 58.6697 91.1721 59.9634 90.5699 61.3934C89.9677 62.8233 89.6643 64.3598 89.6781 65.9096C89.6589 67.4568 89.9569 68.9917 90.554 70.4211C91.1666 71.8405 92.0601 73.1234 93.1815 74.1938C94.3012 75.2822 95.6255 76.1417 97.079 76.7234C98.5522 77.3079 100.126 77.6031 101.712 77.5926C103.279 77.6041 104.833 77.3087 106.284 76.7234C107.741 76.1344 109.07 75.2726 110.199 74.1851C111.322 73.1128 112.216 71.8267 112.827 70.4037C113.734 68.2513 113.969 65.878 113.5 63.5917C113.032 61.3054 111.882 59.2116 110.199 57.5819V57.5906ZM101.712 74.1068C100.641 74.1094 99.5795 73.8975 98.5923 73.4838C97.6051 73.0701 96.7121 72.463 95.9667 71.6989C95.2107 70.9365 94.6152 70.0322 94.215 69.039C93.8053 68.0369 93.597 66.9649 93.6019 65.8835C93.5952 64.7906 93.8034 63.7069 94.215 62.6933C94.6161 61.6979 95.2114 60.7909 95.9667 60.0246C96.7138 59.2633 97.6073 58.6586 98.5942 58.2465C99.5812 57.8343 100.642 57.6231 101.712 57.6254C102.781 57.6195 103.84 57.8326 104.822 58.2513C105.807 58.6489 106.7 59.2403 107.449 59.9898C108.207 60.761 108.802 61.6741 109.201 62.6759C110.018 64.7043 110.018 66.967 109.201 68.9955C108.386 70.992 106.813 72.5906 104.822 73.4462C103.845 73.8897 102.786 74.1237 101.712 74.1329V74.1068Z" fill="#E2E2E2"/>
<path d="M134.732 53.6172L128.207 67.8037L128.119 67.995L127.935 68.4035C127.578 69.1402 127.26 69.8946 126.981 70.6637L126.289 68.9251L126.219 68.7513C126.044 68.3166 125.912 68.0037 125.825 67.8211L119.116 53.6172L113.764 77.0268H117.268L119.685 66.0652C119.817 65.5356 119.916 64.9986 119.983 64.457C120.035 64.1267 120.062 63.779 120.088 63.3791C120.193 63.7182 120.307 64.0572 120.438 64.3875C120.631 64.8743 120.832 65.3437 121.069 65.8305L126.919 77.896L126.981 78.0177L132.893 66.0652C133.141 65.5613 133.354 65.0415 133.532 64.5092C133.657 64.1382 133.762 63.761 133.847 63.3791C133.9 63.779 133.952 64.1789 133.996 64.5874C134.101 65.4567 134.163 65.8566 134.206 66.0217L136.676 76.9833V77.0354H140.18L134.749 53.8171L134.732 53.6172Z" fill="#E2E2E2"/>
<path d="M141.879 77.0261H154.5V73.662H145.645V66.6209H154.5V63.3176H145.645V57.8934H154.5V54.7031H141.879V77.0261Z" fill="#E2E2E2"/>
<path d="M168.356 65.0927C169.303 63.8859 169.773 62.3774 169.678 60.8507C169.691 59.8816 169.494 58.9212 169.1 58.0342C168.777 57.2569 168.266 56.5705 167.612 56.0354C166.958 55.5003 166.182 55.1329 165.351 54.9657C164.198 54.7402 163.023 54.644 161.848 54.6788H156.777V77.0279H160.28V67.1008H160.587L168.005 77.0018H172.288L164.607 66.9356C166.044 66.8073 167.382 66.15 168.356 65.0927ZM160.473 57.9212H161.06C162.864 57.9212 164.116 58.1733 164.782 58.6688C165.143 58.9781 165.422 59.3704 165.594 59.8114C165.767 60.2524 165.828 60.7286 165.772 61.1984C165.823 61.6279 165.766 62.0634 165.605 62.4655C165.445 62.8676 165.186 63.2238 164.852 63.502C164.23 63.9366 162.96 64.1539 161.06 64.1539H160.473V57.9212Z" fill="#E2E2E2"/>
<path d="M190.357 56.5038C189.278 55.7627 188.098 55.1774 186.854 54.7652C185.63 54.3814 184.353 54.1878 183.07 54.1915C181.469 54.185 179.882 54.4799 178.393 55.0608C176.954 55.6219 175.646 56.4678 174.548 57.5469C173.437 58.6238 172.564 59.9172 171.982 61.3456C171.392 62.8105 171.094 64.3753 171.106 65.9528C171.097 67.5358 171.394 69.1057 171.982 70.5773C172.561 71.9946 173.427 73.2793 174.524 74.3526C175.622 75.4259 176.93 76.2652 178.367 76.8187C179.887 77.3991 181.502 77.6939 183.131 77.688C184.406 77.7019 185.675 77.5261 186.897 77.1664C188.048 76.8252 189.131 76.2932 190.103 75.5931V71.2815L189.989 71.3771C188.972 72.2628 187.811 72.9711 186.556 73.472C185.361 73.9354 184.09 74.1713 182.807 74.1674C181.763 74.1916 180.726 73.9983 179.762 73.6C178.798 73.2018 177.929 72.6074 177.21 71.8552C175.781 70.1955 175.007 68.0782 175.029 65.8952C175.052 63.7122 175.87 61.6112 177.333 59.9809C178.103 59.2067 179.027 58.6005 180.047 58.2008C181.066 57.8012 182.159 57.617 183.254 57.6599C184.478 57.6566 185.693 57.8777 186.836 58.3119C188.02 58.7695 189.116 59.4251 190.077 60.2504L190.182 60.346L190.392 56.5646L190.357 56.5038Z" fill="#E2E2E2"/>
<path fill-rule="evenodd" clip-rule="evenodd" d="M196.961 60.7281C197.562 60.7281 198.149 60.5512 198.649 60.2197C199.149 59.8883 199.538 59.4172 199.768 58.866C199.998 58.3148 200.059 57.7083 199.941 57.1232C199.824 56.5381 199.535 56.0006 199.11 55.5788C198.685 55.1569 198.143 54.8697 197.554 54.7533C196.964 54.6369 196.353 54.6966 195.798 54.9249C195.242 55.1532 194.768 55.5398 194.434 56.0359C194.1 56.5319 193.921 57.1151 193.921 57.7117C193.919 58.1085 193.996 58.5017 194.148 58.8687C194.3 59.2357 194.524 59.5692 194.806 59.8497C195.089 60.1303 195.425 60.3524 195.795 60.5032C196.165 60.6539 196.561 60.7304 196.961 60.7281ZM196.961 59.9457C196.515 59.9457 196.08 59.8147 195.71 59.5692C195.34 59.3237 195.051 58.9748 194.881 58.5666C194.711 58.1584 194.666 57.7092 194.753 57.2759C194.84 56.8425 195.054 56.4444 195.369 56.132C195.684 55.8196 196.085 55.6068 196.521 55.5206C196.958 55.4344 197.411 55.4786 197.822 55.6477C198.233 55.8168 198.585 56.1031 198.832 56.4705C199.08 56.8379 199.212 57.2698 199.212 57.7117C199.232 58.0118 199.188 58.3128 199.082 58.5948C198.977 58.8769 198.812 59.1335 198.599 59.3478C198.387 59.5622 198.131 59.7294 197.848 59.8384C197.566 59.9475 197.263 59.9959 196.961 59.9805V59.9457ZM197.609 57.9551C197.714 57.9465 197.816 57.917 197.909 57.8681C198.002 57.8193 198.084 57.7522 198.151 57.671C198.217 57.5897 198.266 57.496 198.295 57.3954C198.324 57.2948 198.332 57.1895 198.318 57.0858C198.318 56.3469 197.915 56.1209 197.241 56.1209H195.699V59.2851H196.365V57.9551H196.882L197.591 59.2851H198.371L197.609 57.9551ZM196.365 57.3727V56.7555H197.066C197.399 56.7555 197.688 56.7555 197.688 57.0337C197.688 57.3118 197.399 57.3727 197.066 57.3727H196.365Z" fill="#E2E2E2"/>
</g>
<defs>
<clipPath id="clip0_806_7828">
<rect width="200" height="78" fill="white"/>
</clipPath>
</defs>
</svg>
