<svg width="103" height="32" viewBox="0 0 103 32" fill="none" xmlns="http://www.w3.org/2000/svg">
<path d="M17.0356 7.21496C16.9249 5.76269 17.0766 4.30006 17.4817 2.91658C17.7605 2.0114 18.095 1.12644 18.4341 0.246539C18.5612 -0.0872171 18.7285 -0.0771032 18.8801 0.246539C19.7094 2.16593 20.6451 4.02385 21.6815 5.80914C22.8993 7.91028 24.1595 9.97097 25.6962 11.8066C26.5884 12.8762 27.4002 14.0291 28.3481 15.0228C30.1324 16.8964 32.0082 18.6689 34.1471 20.0367C35.1776 20.6967 36.2392 21.301 37.2697 21.9331C37.4459 22.0418 37.7336 22.2921 37.7158 22.3831C37.6042 22.77 37.3745 22.4413 37.1894 22.416C37.0422 22.3958 36.8928 22.3933 36.7433 22.3756C35.4296 22.2137 34.1159 22.0418 32.8 21.8901C31.8833 21.7839 30.9644 21.7283 30.0499 21.6069C29.1778 21.4931 28.308 21.3288 27.4381 21.1796C26.3497 20.9925 25.2613 20.818 24.1751 20.6031C22.8748 20.3503 21.5678 20.0974 20.2831 19.7586C17.765 19.0911 15.3762 17.9887 13.0098 16.8231C10.2382 15.4282 7.59121 13.7348 5.10527 11.7662C3.70682 10.684 2.42881 9.40207 1.10396 8.20864C0.758251 7.89764 0.412541 7.58411 0.073522 7.263C0.0289142 7.22002 -0.00900239 7.09612 0.0155319 7.0506C0.0395191 7.02103 0.0684109 6.9971 0.100557 6.98018C0.132703 6.96326 0.167474 6.95368 0.202884 6.952C0.313613 6.93553 0.42601 6.94066 0.535212 6.96717C2.35223 7.47286 4.17074 7.98529 5.99074 8.50446C7.80493 9.0214 9.64248 9.42655 11.4953 9.71813C13.0231 9.9558 14.5465 10.2238 16.0721 10.4564C16.2193 10.4792 16.3687 10.4564 16.5182 10.4564C16.8862 10.4868 17.0601 10.3199 17.049 9.87742C17.0222 9.09613 17.0356 8.29461 17.0356 7.21496Z" fill="#F5FAFF"/>
<path d="M60.0955 31.7238C59.1007 31.7238 58.3848 31.8022 57.6889 31.7061C56.0072 31.4785 54.3054 31.5898 52.6259 31.2586C51.649 31.0664 50.6431 31.069 49.6528 30.9653C48.8833 30.8844 48.1094 30.8187 47.351 30.6645C45.0404 30.1967 42.7252 29.7442 40.4368 29.1753C38.3916 28.6697 36.3642 28.0553 34.3457 27.4207C32.5346 26.8494 30.7369 26.2266 28.9526 25.5524C27.2374 24.9026 25.5535 24.1517 23.8584 23.4438C22.993 23.0798 22.1276 22.7182 21.2689 22.339C21.0662 22.2392 20.8746 22.1128 20.6979 21.9623C20.6689 21.9421 20.6979 21.8131 20.7135 21.7398C20.7212 21.7221 20.7329 21.7069 20.7474 21.6958C20.7619 21.6847 20.7786 21.6781 20.7961 21.6766C20.9031 21.6978 21.0089 21.7265 21.1128 21.7626C23.3043 22.4669 25.5343 23.0075 27.7883 23.3806C29.4187 23.6689 31.038 24.0456 32.6684 24.3338C33.5405 24.488 34.4527 24.4096 35.298 24.6574C36.6809 25.067 38.1128 24.6195 39.4755 25.1099C39.6966 25.1532 39.9221 25.1592 40.1447 25.1276C41.3335 25.1276 42.5245 25.163 43.7133 25.1276C45.3749 25.072 47.0589 25.0821 48.6937 24.8521C51.7587 24.4379 54.7907 23.7549 57.7625 22.8093C61.1973 21.6968 64.418 20.0282 67.545 18.1143C70.0964 16.5093 72.5282 14.6711 74.816 12.618C77.4925 10.2642 80.169 7.88766 83.0328 5.81199C85.5063 4.01948 88.1114 2.5531 90.9975 1.81739C91.3537 1.7192 91.7175 1.66077 92.0837 1.64294C92.9758 1.61766 93.868 1.65558 94.7602 1.62777C96.474 1.58085 98.1593 2.13058 99.5889 3.20286C101.322 4.46697 102.435 7.01542 101.851 9.52343C101.344 11.6876 100.394 13.5332 99.2388 15.2726C98.6665 16.1497 98.0212 16.9625 97.3117 17.6997C95.4781 19.5864 93.4841 21.2624 91.3588 22.7031C90.2436 23.4615 89.1284 24.22 87.9775 24.8596C86.6527 25.6004 85.3011 26.278 83.9182 26.8822C81.4526 27.9881 78.9178 28.8847 76.3349 29.5647C74.5841 30.0122 72.8065 30.3459 71.04 30.7175C69.7731 30.983 68.4817 31.0614 67.2149 31.2738C66.0997 31.4583 64.9845 31.2738 63.905 31.5266C62.5311 31.8249 61.1683 31.6201 60.0955 31.7238Z" fill="#F5FAFF"/>
</svg>
