<svg width="200" height="78" viewBox="0 0 200 78" fill="none" xmlns="http://www.w3.org/2000/svg">
<g clip-path="url(#clip0_806_7798)">
<path d="M139.148 58.2169H114.173C113.087 58.2169 113.092 58.1529 113.282 57.094C113.563 55.5476 113.741 53.9815 113.97 52.4154C114.237 50.6154 114.515 48.8178 114.779 47.0177C115.003 45.4992 115.222 43.9799 115.436 42.4598C115.742 40.315 116.035 38.1678 116.351 36.0254C116.844 32.7061 117.36 29.3917 117.846 26.0723C118.3 22.9795 118.712 19.8768 119.171 16.784C119.618 13.7503 120.104 10.7215 120.57 7.69024C120.863 5.77201 121.164 3.85131 121.436 1.92815C121.505 1.43567 121.747 1.26576 122.213 1.26822H136.328C136.767 1.26822 137.021 1.38642 136.93 1.92815C136.661 3.54104 136.436 5.16132 136.189 6.78161C135.943 8.52254 135.696 10.2659 135.449 12.0069C135.274 13.2627 135.109 14.521 134.924 15.7744C134.714 17.21 134.485 18.6431 134.27 20.0787C134.085 21.31 133.915 22.5412 133.727 23.7724C133.367 26.156 132.987 28.5372 132.634 30.9134C132.272 33.3759 131.948 35.8555 131.591 38.3229C131.292 40.3667 130.981 42.4081 130.641 44.4445C130.547 44.9912 130.688 45.0897 131.226 45.0872C134.161 45.0724 137.097 45.1167 140.033 45.1217C147.04 45.1217 154.046 45.1217 161.051 45.1217C161.522 45.1217 161.998 45.1512 162.467 45.1044C163.543 44.9961 164.194 44.25 164.655 43.4004C165.963 41.0291 165.253 39.0469 162.682 38.0274C159.997 36.9661 157.279 35.9959 154.56 35.0232C152.312 34.2205 150.119 33.2995 148.163 31.928C145.695 30.1821 143.823 27.9881 142.885 25.0332C142.231 22.9795 142.128 20.916 142.298 18.7934C142.541 15.7338 143.53 12.7801 145.18 10.1904C146.83 7.6007 149.091 5.45384 151.765 3.9375C154.868 2.15956 158.317 1.06787 161.88 0.736334C165.36 0.387821 168.875 0.646121 172.267 1.49969C176.155 2.46004 179.478 4.40043 181.948 7.63114C182.308 8.10393 182.288 8.41174 181.839 8.81311C178.79 11.5579 175.754 14.3142 172.73 17.082C172.237 17.5203 171.943 17.306 171.61 16.9219C170.545 15.6907 169.321 14.6442 167.764 14.1418C164.878 13.211 161.971 12.8786 159.213 14.5727C157.9 15.3804 157.417 16.651 157.486 18.1507C157.56 19.5469 158.52 20.2733 159.664 20.7091C162.171 21.667 164.712 22.5313 167.241 23.4178C170.537 24.5899 173.767 25.8802 176.485 28.1703C179.305 30.5465 180.855 33.5507 180.909 37.2542C181.015 44.5405 178.116 50.4405 172.452 54.9689C169.642 57.2171 166.38 58.2489 162.736 58.2218C154.866 58.1627 146.998 58.2046 139.128 58.2046L139.148 58.2169Z" fill="#E2E2E2"/>
<path d="M101.282 58.2251H94.4403C93.5373 58.2251 93.4534 58.0798 93.6064 57.218C93.9024 55.4647 94.1344 53.6991 94.4008 51.941C94.6475 50.2838 94.9263 48.6315 95.1706 46.9742C95.4148 45.317 95.6295 43.6081 95.8762 41.9287C96.1229 40.2493 96.3943 38.6192 96.6336 36.962C96.8186 35.6865 96.9741 34.4085 97.127 33.1305C97.1297 32.9939 97.1164 32.8576 97.0875 32.7241C96.9438 32.7739 96.807 32.8418 96.6805 32.9261C95.0768 34.2976 93.4732 35.6791 91.8818 37.0556C88.4163 40.0318 84.9483 43.0073 81.4778 45.9819C80.7624 46.5926 80.6884 46.5729 80.0173 45.7873C77.0024 42.2464 73.9884 38.707 70.9752 35.1693C65.929 29.2677 60.8829 23.3718 55.8367 17.4817C55.6718 17.3158 55.5488 17.1132 55.4776 16.8906C55.4064 16.668 55.3891 16.4318 55.4271 16.2012C55.6985 14.5235 55.9568 12.8449 56.2018 11.1656C56.3647 10.0525 56.4806 8.93213 56.6484 7.81911C56.8951 6.1619 57.1813 4.51207 57.4403 2.85731C57.5514 2.14813 57.6056 1.43156 57.7438 0.732233C57.7981 0.463828 57.9905 0.0452146 58.1583 0.0156654C58.3093 0.0143679 58.459 0.0443323 58.5979 0.103668C58.7367 0.163003 58.8617 0.250421 58.965 0.360406C60.4453 1.96099 61.8714 3.58865 63.3146 5.2114C66.5318 8.82296 69.7473 12.4345 72.9612 16.0461C75.8083 19.2456 78.6579 22.4419 81.5099 25.6348C82.0823 26.275 82.667 26.9079 83.2147 27.5703C83.5651 27.9938 83.834 28.016 84.2682 27.6417C87.5841 24.7902 90.9147 21.9658 94.2454 19.1315L116.223 0.382568C116.323 0.280439 116.441 0.197045 116.571 0.136325C116.788 0.0698389 117.064 -0.0335832 117.242 0.0427522C117.375 0.101851 117.488 0.426892 117.454 0.618961C117.34 1.69504 117.192 2.76866 117.039 3.83982C116.771 5.71127 116.493 7.59093 116.203 9.47879C115.85 11.8206 115.463 14.1574 115.13 16.5041C114.883 18.245 114.673 19.9934 114.419 21.7343C114.099 23.9505 113.746 26.1396 113.415 28.341C113.136 30.1829 112.88 32.0347 112.603 33.8667C112.233 36.3291 111.844 38.7916 111.478 41.254C111.232 42.9531 111.015 44.6571 110.768 46.3562C110.543 47.8927 110.289 49.4244 110.062 50.9609C109.803 52.7019 109.569 54.4453 109.305 56.1862C109.257 56.7347 109.153 57.2768 108.994 57.804C108.92 58.0035 108.501 58.1906 108.239 58.1931C105.917 58.2251 103.596 58.2103 101.274 58.2103L101.282 58.2251Z" fill="#E2E2E2"/>
<path d="M30.9505 28.729C23.7957 28.729 16.641 28.729 9.50102 28.729C8.78829 28.742 8.09231 28.5127 7.52729 28.0789C5.32659 26.4685 3.08641 24.9049 0.865972 23.324C0.743268 23.2487 0.629111 23.1604 0.525504 23.0605C0.340468 22.8733 0.175168 22.6517 0 22.4424C0.266804 22.3342 0.546115 22.2598 0.831432 22.2208C8.00099 22.1986 15.173 22.1986 22.3426 22.174C30.5385 22.1478 38.7343 22.1108 46.9302 22.0632C49.251 22.0501 51.5718 22.0205 53.8926 21.9746C54.1473 21.9621 54.4013 22.0106 54.6335 22.116C54.8656 22.2214 55.0692 22.3806 55.2273 22.5803C58.6961 26.5448 62.169 30.5028 65.6461 34.4542C68.429 37.6274 71.2079 40.8056 73.9826 43.9887C74.2293 44.2793 74.5328 44.5403 74.7647 44.8506C74.8483 45.0261 74.8985 45.2157 74.9127 45.4095C74.7257 45.4226 74.5378 45.4076 74.3551 45.3652C70.0327 43.6563 65.7201 41.9178 61.3952 40.2163C58.6813 39.1377 55.9354 38.0887 53.2141 37.0151C52.7478 36.828 52.6195 36.924 52.5677 37.4189C52.4591 38.4975 52.2667 39.5662 52.1409 40.6447C52.0718 41.2332 51.7856 41.4253 51.2034 41.4229C45.9039 41.4114 40.6036 41.4114 35.3025 41.4229C32.448 41.4229 29.5911 41.4352 26.7366 41.4229C26.3557 41.4257 25.9819 41.3207 25.6584 41.12C23.6847 39.7336 21.7258 38.3079 19.7743 36.8821C19.5866 36.7093 19.4209 36.5141 19.2808 36.301C19.5183 36.2061 19.7671 36.1424 20.021 36.1114C30.5607 36.1015 41.1003 36.1015 51.64 36.1114C52.0126 36.1114 52.4542 36.2296 52.5603 35.6558C52.6244 35.3283 52.5381 35.1313 52.1779 35.1215C51.9731 35.1215 51.7683 35.1215 51.5611 35.1215C40.3849 35.1215 29.2087 35.1141 18.0324 35.0993C17.5284 35.0833 17.0396 34.9235 16.6237 34.6388C14.6845 33.2993 12.7823 31.9056 10.8777 30.5143C10.7306 30.3619 10.6097 30.1864 10.52 29.9947C10.7158 29.9078 10.9224 29.8474 11.1343 29.8149C15.363 29.8051 19.5925 29.8051 23.8229 29.8149H39.6127C43.945 29.8149 48.2781 29.8149 52.6121 29.8149C53.0611 29.8149 53.4287 29.7706 53.5299 29.2363C53.5916 28.9186 53.4953 28.7635 53.1647 28.7635C52.7527 28.7635 52.3432 28.7635 51.9312 28.7635L30.9505 28.729Z" fill="#E2E2E2"/>
<path d="M39.879 42.3984H50.9565C51.6967 42.3984 51.825 42.5683 51.7164 43.2751C51.519 44.5457 51.3315 45.8188 51.1662 47.0943C51.0971 47.636 50.8184 47.801 50.2978 47.7985C45.3881 47.7862 40.481 47.7986 35.5738 47.7764C35.1485 47.7681 34.7347 47.6373 34.3822 47.3996C32.3813 46.0059 30.41 44.5728 28.4413 43.1372C28.2883 43.0239 28.2291 42.7801 28.1279 42.5979C28.3004 42.5072 28.486 42.4441 28.6781 42.4108C30.975 42.4108 33.2719 42.4329 35.5689 42.4428C37.0048 42.4428 38.4406 42.4428 39.879 42.4428V42.3984Z" fill="#E2E2E2"/>
<path d="M43.8314 48.768H49.9993C50.7863 48.768 50.9023 48.9084 50.7937 49.6791C50.4467 52.1268 50.0997 54.5744 49.7526 57.0221C49.5922 58.1573 49.4319 58.2385 48.487 57.5614C44.8586 54.961 41.2401 52.3525 37.6315 49.7357C37.371 49.508 37.1323 49.2566 36.9185 48.9847C37.2512 48.8804 37.5932 48.8087 37.9399 48.7705C39.9136 48.7508 41.8873 48.7705 43.861 48.7705L43.8314 48.768Z" fill="#E2E2E2"/>
<path d="M79.9357 51.1508C79.842 51.7443 79.7754 52.2294 79.689 52.7095C79.388 54.2904 79.087 55.8738 78.7663 57.4522C78.7416 57.5802 78.5862 57.6812 78.49 57.7945C78.374 57.691 78.2013 57.6073 78.152 57.4793C78.0316 57.1752 77.9447 56.859 77.8929 56.5362C77.7992 55.9821 77.4266 55.726 76.9529 55.5142C74.9003 54.5933 72.8525 53.6617 70.8097 52.7194C70.3706 52.5175 70.2941 52.2269 70.6494 51.8575C72.2579 50.1962 73.8665 48.5332 75.4751 46.8686C75.7835 46.5461 76.0648 46.4525 76.3954 46.8391C77.4735 48.0974 78.564 49.3458 79.6372 50.6091C79.7576 50.7774 79.8578 50.9592 79.9357 51.1508Z" fill="#E2E2E2"/>
<path d="M139.147 72.393C139.061 72.4031 138.973 72.4031 138.886 72.393C138.422 72.3389 138.104 72.5285 138.035 72.984C137.956 73.5282 138.407 73.6464 138.775 73.6784C139.532 73.7425 140.295 73.7203 141.055 73.74C141.98 73.7671 142.636 74.1857 142.841 74.8727C143.12 75.7912 142.883 76.658 142.101 77.1579C140.62 78.1059 139.019 78.2856 137.413 77.5962C136.244 77.1037 136.014 75.966 136.774 74.9515C137.043 74.592 137.221 74.3334 136.984 73.8311C136.865 73.576 136.827 73.2911 136.875 73.014C136.923 72.737 137.053 72.4809 137.25 72.2798C137.482 72.0335 137.497 71.8316 137.275 71.541C136.416 70.3566 136.535 69.4652 137.201 68.4876C137.867 67.51 139.33 67.2195 140.477 67.5765C141.05 67.7563 141.711 67.6775 142.33 67.6922C142.68 67.6922 143.07 67.6061 143.105 68.1355C143.139 68.6033 142.92 68.7979 142.451 68.8176C142.333 68.8176 142.106 69.1008 142.133 69.2017C142.636 71.0953 141.242 72.5654 139.147 72.393ZM139.476 71.3933C140.462 71.3933 141 70.8737 140.995 69.9478C141.009 69.7479 140.979 69.5473 140.909 69.3597C140.838 69.172 140.728 69.0017 140.586 68.8601C140.444 68.7185 140.273 68.6089 140.085 68.5387C139.897 68.4685 139.696 68.4393 139.495 68.4531C138.545 68.4531 137.99 69.0072 137.998 69.9306C137.995 70.9156 138.474 71.3884 139.463 71.381L139.476 71.3933ZM139.757 74.789V74.8358C139.327 74.8103 138.896 74.8144 138.467 74.8481C137.855 74.9318 137.633 75.3578 137.638 75.9513C137.643 76.5447 138.022 76.7442 138.508 76.7786C139.059 76.839 139.615 76.8341 140.164 76.7639C140.622 76.6777 141.054 76.49 141.43 76.2147C141.534 76.113 141.613 75.9876 141.658 75.8491C141.704 75.7106 141.715 75.5632 141.691 75.4194C141.629 75.2881 141.539 75.1721 141.427 75.0797C141.314 74.9874 141.183 74.9209 141.042 74.885C140.614 74.8082 140.18 74.7719 139.745 74.7767L139.757 74.789Z" fill="#E2E2E2"/>
<path d="M167.404 71.1261C167.404 70.2076 167.372 69.2842 167.424 68.3682C167.437 68.2186 167.482 68.0736 167.557 67.9432C167.631 67.8127 167.733 67.6998 167.855 67.6122C168.149 67.4522 168.443 67.6393 168.529 68.0284C168.67 68.0641 168.82 68.0511 168.953 67.9914C169.198 67.7703 169.49 67.6073 169.807 67.5147C170.124 67.4222 170.458 67.4025 170.784 67.4571C171.232 67.5669 171.644 67.7899 171.98 68.1047C172.272 68.3657 172.41 68.383 172.669 68.1047C173.271 67.4694 174.04 67.3167 174.874 67.4596C175.359 67.5362 175.799 67.7836 176.116 68.1568C176.433 68.53 176.605 69.0043 176.601 69.4935C176.656 71.0079 176.631 72.5248 176.633 74.0392C176.633 74.4184 176.451 74.7508 176.064 74.6548C175.927 74.5978 175.807 74.5082 175.713 74.394C175.619 74.2799 175.555 74.1445 175.526 73.9998C175.467 72.8991 175.511 71.7836 175.486 70.6853C175.464 70.2781 175.412 69.8731 175.328 69.4738C175.301 69.2361 175.191 69.0153 175.018 68.8494C174.845 68.6836 174.62 68.5831 174.381 68.5652C174.126 68.5133 173.86 68.5435 173.623 68.6515C173.386 68.7594 173.189 68.9395 173.061 69.166C172.851 69.5369 172.727 69.9501 172.698 70.3751C172.649 71.5398 172.671 72.7095 172.676 73.8766C172.676 74.3076 172.607 74.6819 172.069 74.6794C171.531 74.6769 171.452 74.2977 171.45 73.8742C171.45 72.6036 171.465 71.333 171.43 70.0648C171.403 69.0798 171.033 68.5455 170.404 68.4716C169.775 68.3977 168.956 69.0478 168.83 69.8629C168.677 70.8479 168.657 71.855 168.583 72.8523C168.558 73.261 168.583 73.6723 168.563 74.0835C168.544 74.4553 168.378 74.7213 167.952 74.6868C167.525 74.6523 167.404 74.3864 167.406 74.0096C167.406 73.0468 167.406 72.0865 167.406 71.1237L167.404 71.1261Z" fill="#E2E2E2"/>
<path d="M190.765 10.2739C190.185 10.2769 189.61 10.1648 189.073 9.9442C188.537 9.72361 188.05 9.39889 187.64 8.98887C187.23 8.57886 186.905 8.0917 186.686 7.55565C186.466 7.01961 186.355 6.44534 186.359 5.86615C186.334 3.28799 188.182 1.36975 190.741 1.32296C191.332 1.30246 191.921 1.401 192.473 1.61269C193.025 1.82438 193.529 2.1449 193.954 2.55511C194.379 2.96533 194.718 3.45684 194.948 4.00032C195.179 4.5438 195.298 5.12811 195.298 5.71841C195.325 8.31135 193.41 10.237 190.765 10.2739ZM190.923 2.468C188.972 2.38427 187.637 3.63765 187.553 5.63468C187.469 7.63172 188.76 9.20275 190.691 9.21013C192.483 9.21013 193.978 8.2621 194.084 5.94987C194.165 3.96762 192.951 2.46061 190.923 2.46061V2.468Z" fill="#E2E2E2"/>
<path d="M117.93 72.6594C117.93 71.246 117.913 69.8325 117.93 68.4216C117.93 68.1556 118.058 67.7666 118.248 67.6656C118.438 67.5646 118.742 67.8478 119.011 67.9118C119.159 67.9702 119.324 67.9702 119.472 67.9118C119.938 67.5827 120.49 67.3978 121.061 67.3803C121.631 67.3628 122.194 67.5134 122.679 67.8134C123.666 68.3748 124.093 69.3795 124.071 70.522C124.095 71.1118 124.031 71.702 123.881 72.2728C123.264 74.1221 121.976 74.9322 120.03 74.8066C119.144 74.7476 119.144 74.7476 119.144 75.6365C119.144 76.1487 119.144 76.6609 119.144 77.173C119.144 77.6015 118.897 77.7911 118.473 77.7936C118.048 77.796 117.93 77.5276 117.93 77.1484C117.93 75.6562 117.93 74.1615 117.93 72.6668V72.6594ZM122.8 70.9357C122.8 70.6698 122.783 70.4038 122.761 70.1404C122.677 69.1554 122.045 68.5472 121.083 68.5373C120.054 68.525 119.238 69.1874 119.183 70.1551C119.129 71.1229 119.132 72.0807 119.171 73.0386C119.171 73.2627 119.435 73.6419 119.603 73.6592C120.166 73.7472 120.742 73.7204 121.295 73.5804C122.435 73.1864 122.82 72.4107 122.793 70.9283L122.8 70.9357Z" fill="#E2E2E2"/>
<path d="M147.506 72.6397C147.506 71.1869 147.491 69.7365 147.506 68.2837C147.506 68.0596 147.659 67.6878 147.807 67.6508C148.024 67.5991 148.301 67.8035 148.547 67.87C148.705 67.9143 148.927 67.9808 149.041 67.9094C150.59 66.8727 153.057 67.3972 153.541 69.7464C153.968 71.8246 153.311 73.9793 151.291 74.5924C150.637 74.7499 149.964 74.8089 149.292 74.7673C148.838 74.7673 148.663 74.8436 148.695 75.3336C148.737 75.9443 148.695 76.5648 148.671 77.1706C148.671 77.5498 148.496 77.7837 148.074 77.7911C147.652 77.7985 147.496 77.5695 147.499 77.1804C147.499 76.422 147.499 75.666 147.499 74.9101V72.6397H147.506ZM148.584 71.6375H148.656C148.624 72.0854 148.631 72.5352 148.676 72.982C148.723 73.2282 148.949 73.6173 149.149 73.6542C150.245 73.8512 151.577 73.8094 152.08 72.423C152.327 71.7261 152.327 70.9111 152.327 70.1502C152.337 69.7554 152.198 69.3713 151.937 69.0746C151.676 68.7779 151.312 68.5904 150.918 68.5496C149.968 68.4191 149.053 68.9017 148.826 69.7611C148.703 70.3779 148.622 71.0023 148.584 71.6301V71.6375Z" fill="#E2E2E2"/>
<path d="M106.438 71.407C105.863 71.407 105.286 71.407 104.711 71.407C104.235 71.3947 104.104 71.6163 104.166 72.0571C104.214 72.4672 104.398 72.8496 104.687 73.1449C104.976 73.4402 105.355 73.6317 105.764 73.6897C106.374 73.7157 106.985 73.6727 107.585 73.5617C107.923 73.5124 108.256 73.3794 108.404 73.8079C108.552 74.2364 108.323 74.5294 107.911 74.6304C105.153 75.2977 102.745 74.3176 102.843 71.0007C102.888 69.5011 103.337 68.1517 104.965 67.5927C105.434 67.4087 105.943 67.3489 106.443 67.4193C106.942 67.4896 107.415 67.6876 107.815 67.9941C108.752 68.7033 108.967 69.7474 108.962 70.8456C108.962 71.247 108.668 71.3997 108.286 71.3997C107.672 71.407 107.055 71.407 106.438 71.407ZM105.967 70.3974C106.334 70.3974 106.707 70.3974 107.072 70.3974C107.659 70.3827 107.8 70.1832 107.617 69.6316C107.504 69.2882 107.279 68.9923 106.979 68.7911C106.678 68.5898 106.318 68.4948 105.957 68.5211C105.079 68.5679 104.395 69.0998 104.247 69.8483C104.178 70.198 104.274 70.4073 104.674 70.3999C105.074 70.3925 105.535 70.3901 105.967 70.3901V70.3974Z" fill="#E2E2E2"/>
<path d="M113.807 71.4098C113.21 71.4098 112.616 71.4098 112.019 71.4098C111.478 71.4098 111.338 71.6216 111.501 72.1486C111.977 73.658 113.146 73.9905 114.846 73.626C115.054 73.5555 115.275 73.532 115.492 73.5571C115.573 73.5928 115.644 73.6483 115.697 73.7185C115.751 73.7886 115.786 73.8712 115.798 73.9585C115.782 74.1719 115.682 74.3702 115.52 74.51C113.985 75.5911 110.913 74.5273 110.41 72.7125C110.07 71.4813 110.052 70.2377 110.642 69.0582C110.942 68.4556 111.437 67.9712 112.047 67.6831C112.656 67.395 113.345 67.32 114.002 67.47C115.322 67.7482 116.181 68.8169 116.242 70.2574C116.289 71.3901 116.272 71.4074 115.162 71.4123C114.71 71.4123 114.259 71.4123 113.807 71.4123V71.4098ZM113.299 70.3929V70.4052H114.592C114.962 70.4052 115.115 70.2648 115.024 69.8733C114.836 69.0632 114.128 68.4549 113.373 68.4919C112.443 68.5386 111.703 69.1444 111.612 69.9841C111.629 70.0726 111.669 70.155 111.728 70.2236C111.787 70.2921 111.862 70.3445 111.947 70.3756C112.397 70.4007 112.849 70.4023 113.299 70.3806V70.3929Z" fill="#E2E2E2"/>
<path d="M191.451 71.4106C190.876 71.4106 190.302 71.4106 189.724 71.4106C189.246 71.4106 189.051 71.5657 189.167 72.0779C189.413 73.1663 190.06 73.7425 191.192 73.7302C191.718 73.7302 192.241 73.58 192.769 73.5652C193.004 73.606 193.23 73.6894 193.435 73.8115C193.339 74.0454 193.309 74.3975 193.134 74.4985C190.913 75.7863 188.029 74.2178 187.911 71.6888C187.854 70.4576 187.911 69.2584 188.839 68.3079C189.211 67.9198 189.683 67.6416 190.203 67.5039C190.723 67.3662 191.271 67.3743 191.787 67.5273C192.335 67.6424 192.832 67.9297 193.204 68.3472C193.577 68.7646 193.805 69.2903 193.857 69.8469C194.079 71.3663 194.027 71.4204 192.495 71.4081H191.451V71.4106ZM190.891 70.4059C191.385 70.4274 191.879 70.42 192.372 70.3838C192.465 70.3439 192.547 70.2805 192.61 70.1999C192.672 70.1193 192.712 70.024 192.727 69.9233C192.66 69.1846 191.829 68.5025 191.052 68.4926C190.193 68.4926 189.339 69.1501 189.27 69.9405C189.285 70.0391 189.325 70.1322 189.386 70.2107C189.448 70.2893 189.528 70.3506 189.621 70.3887C190.047 70.4198 190.475 70.4215 190.901 70.3936L190.891 70.4059Z" fill="#E2E2E2"/>
<path d="M165.852 71.1127C165.756 72.6246 165.309 73.8804 163.859 74.5601C162.132 75.3801 160.002 74.2818 159.568 72.4178C159.278 71.3235 159.373 70.1632 159.837 69.1304C160.434 67.813 161.53 67.3476 162.889 67.4313C163.459 67.4485 164.009 67.6402 164.466 67.9802C164.923 68.3203 165.264 68.7923 165.443 69.3323C165.621 69.9153 165.758 70.5103 165.852 71.1127ZM160.587 70.9354C160.598 71.2247 160.624 71.5132 160.666 71.7997C160.728 72.0586 160.805 72.3136 160.898 72.563C161.202 73.4274 161.796 73.7943 162.813 73.7278C163.538 73.6859 164.293 73.1195 164.369 72.3833C164.465 71.574 164.476 70.757 164.401 69.9455C164.322 69.1181 163.538 68.5173 162.674 68.468C162.282 68.4377 161.891 68.542 161.566 68.7636C161.241 68.9853 161.002 69.311 160.888 69.6869C160.74 70.1523 160.656 70.6349 160.587 70.9354Z" fill="#E2E2E2"/>
<path d="M129.398 71.1021C129.398 70.1615 129.365 69.2184 129.417 68.2777C129.44 68.1412 129.493 68.0116 129.573 67.8986C129.653 67.7856 129.757 67.6921 129.879 67.6252C130.004 67.5685 130.394 67.8197 130.493 68.0167C130.68 68.391 130.799 68.2063 130.986 68.0561C131.862 67.3592 132.819 67.1967 133.856 67.6621C134.892 68.1275 135.089 69.0706 135.139 70.0113C135.218 71.3164 135.161 72.6313 135.156 73.9512C135.156 74.392 135.01 74.7219 134.485 74.6899C133.959 74.6579 133.93 74.3033 133.93 73.9093C133.93 73.1115 133.93 72.3112 133.93 71.5134C133.93 71.1243 133.93 70.7352 133.93 70.3462C133.898 69.2036 133.513 68.6348 132.733 68.5683C132.268 68.5441 131.81 68.6913 131.446 68.9818C131.082 69.2723 130.838 69.6859 130.759 70.1443C130.616 71.3755 130.601 72.6264 130.562 73.8699C130.547 74.2639 130.574 74.653 130.069 74.6801C129.506 74.7096 129.407 74.3329 129.415 73.865C129.43 72.9441 129.415 72.0231 129.415 71.0997L129.398 71.1021Z" fill="#E2E2E2"/>
<path d="M68.2686 52.5006C66.2135 52.2125 64.2669 51.9367 62.3203 51.6732C61.1632 51.5181 60.0012 51.3949 58.8466 51.2349C58.6286 51.1749 58.4195 51.0863 58.2249 50.9714C58.4444 50.8606 58.6566 50.671 58.8836 50.6562C59.9469 50.5823 61.0152 50.5577 62.0909 50.5158C64.7529 50.41 67.4175 50.2992 70.082 50.2031C70.2704 50.222 70.4554 50.2659 70.6322 50.3336C70.5855 50.5199 70.5115 50.6983 70.4126 50.863C70.0771 51.2718 69.6872 51.6412 69.3542 52.0549C69.0211 52.4685 68.6584 52.6138 68.2686 52.5006Z" fill="#E2E2E2"/>
<path d="M184.617 67.3516C185.093 67.4419 185.563 67.5628 186.024 67.7135C186.113 67.7755 186.185 67.8596 186.232 67.9576C186.279 68.0556 186.3 68.1641 186.292 68.2725C186.248 68.3726 186.179 68.4606 186.094 68.5291C186.008 68.5976 185.907 68.6447 185.799 68.6665C185.461 68.6887 185.113 68.5385 184.768 68.5286C184.426 68.4944 184.08 68.5399 183.759 68.6616C183.624 68.7337 183.508 68.8356 183.419 68.9593C183.33 69.0831 183.271 69.2255 183.246 69.3757C183.276 69.5268 183.339 69.6696 183.43 69.7944C183.52 69.9193 183.637 70.0234 183.771 70.0996C184.194 70.3041 184.632 70.4769 185.081 70.6168C186.3 71.1092 186.695 71.7125 186.591 72.9044C186.517 73.7367 185.757 74.564 184.741 74.7019C183.967 74.7716 183.188 74.7601 182.417 74.6675C182.024 74.6379 181.792 74.3892 181.923 73.9287C182.054 73.4683 182.34 73.4362 182.73 73.5668C183.455 73.7982 184.178 73.8549 184.864 73.4362C185.012 73.3546 185.137 73.2356 185.225 73.0909C185.312 72.9463 185.36 72.7812 185.364 72.6121C185.368 72.443 185.327 72.276 185.246 72.1276C185.165 71.9792 185.046 71.8548 184.901 71.7667C184.486 71.5421 184.051 71.3582 183.601 71.2176C182.476 70.8138 181.847 70.0455 181.972 69.1959C182.125 68.1642 183.041 67.455 184.242 67.4328C184.366 67.4328 184.489 67.4328 184.612 67.4328L184.617 67.3516Z" fill="#E2E2E2"/>
<path d="M198.026 67.3594C198.466 67.425 198.899 67.5272 199.322 67.6647C199.516 67.746 199.613 68.0538 199.753 68.2606C199.507 68.3936 199.277 68.6251 199.028 68.6423C198.67 68.6694 198.288 68.4823 197.94 68.4946C197.574 68.5001 197.214 68.5903 196.889 68.758C196.371 69.0511 196.445 69.743 197.03 70.0385C197.538 70.2971 198.085 70.4719 198.618 70.6812C199.497 71.0284 200 71.6957 200 72.5207C200.004 72.9526 199.877 73.3756 199.636 73.7342C199.394 74.0927 199.05 74.3702 198.648 74.53C197.693 74.9609 196.719 74.8181 195.744 74.6679C195.379 74.6113 195.14 74.365 195.251 73.9636C195.265 73.8766 195.3 73.7941 195.352 73.7227C195.404 73.6514 195.472 73.5932 195.551 73.5527C195.629 73.5123 195.716 73.4908 195.805 73.4899C195.893 73.489 195.981 73.5087 196.06 73.5475C196.8 73.7937 197.54 73.8824 198.246 73.4367C198.951 72.991 198.986 72.2055 198.246 71.7647C197.814 71.532 197.36 71.3423 196.891 71.1983C195.68 70.7625 195.273 70.1592 195.433 68.9994C195.552 68.135 196.358 67.5047 197.439 67.4357C197.624 67.4234 197.809 67.4357 197.994 67.4357L198.026 67.3594Z" fill="#E2E2E2"/>
<path d="M74.3946 46.0698C74.2753 46.2594 74.1417 46.4397 73.9949 46.609C73.5977 46.9932 73.1561 47.3355 72.781 47.7393C72.406 48.1431 72.0409 48.1505 71.6116 47.8033C70.3164 46.7322 69.0137 45.6708 67.711 44.6022C67.188 44.1737 66.6551 43.7575 66.1469 43.3143C66.0393 43.1785 65.9558 43.0252 65.9001 42.8612C66.0839 42.8105 66.2759 42.7962 66.4651 42.8193C68.9504 43.7649 71.4315 44.7228 73.9085 45.693C74.0857 45.7979 74.2489 45.9244 74.3946 46.0698Z" fill="#E2E2E2"/>
<path d="M97.9461 69.6396V73.87C97.9461 74.2862 97.8918 74.6826 97.3465 74.6826C96.8013 74.6826 96.752 74.2739 96.752 73.8651C96.752 71.0628 96.752 68.2622 96.752 65.4633C96.752 65.3599 96.7668 65.2589 96.7742 65.1555C96.8087 64.7541 97.0653 64.5128 97.4255 64.6187C97.5499 64.6721 97.6597 64.7546 97.7455 64.8591C97.8314 64.9637 97.8908 65.0873 97.9189 65.2195C97.9609 66.697 97.9411 68.1744 97.9411 69.6371L97.9461 69.6396Z" fill="#E2E2E2"/>
<path d="M155.312 71.1202C155.312 70.1993 155.285 69.2759 155.33 68.3574C155.337 68.2168 155.375 68.0794 155.44 67.9545C155.505 67.8297 155.596 67.7202 155.707 67.6334C156.028 67.4684 156.336 67.6334 156.447 68.052C156.447 68.089 156.719 68.0988 156.844 68.052C157.286 67.9141 157.713 67.6827 158.162 67.626C158.364 67.6014 158.606 67.9043 158.831 68.057C158.665 68.2737 158.537 68.6233 158.337 68.6824C156.928 69.0813 156.625 69.3793 156.524 70.8814C156.455 71.9205 156.477 72.967 156.457 74.0086C156.457 74.3583 156.408 74.6907 155.942 74.6834C155.475 74.676 155.332 74.4002 155.332 73.9963C155.31 73.0458 155.312 72.083 155.312 71.1202Z" fill="#E2E2E2"/>
<path d="M101.63 74.8032C101.325 74.6411 101.043 74.4417 100.788 74.2097C100.048 73.3454 99.3401 72.4368 98.6048 71.5601C98.3335 71.2376 98.2372 70.9569 98.521 70.5752C99.1624 69.7306 99.7767 68.8515 100.411 68.0118C100.505 67.8837 100.64 67.7237 100.776 67.7015C101.083 67.6732 101.391 67.6682 101.699 67.6868C101.663 67.9471 101.587 68.2004 101.474 68.4378C100.993 69.1248 100.487 69.7995 99.9544 70.4422C99.6484 70.8042 99.6953 71.0529 99.984 71.3902C100.699 72.2324 101.385 73.0967 102.061 73.9684C102.118 74.0449 102.158 74.1323 102.18 74.2251C102.201 74.318 102.203 74.4142 102.185 74.5077C102.14 74.6283 101.894 74.6751 101.63 74.8032Z" fill="#E2E2E2"/>
<path d="M127.396 71.1632C127.396 72.0447 127.396 72.9238 127.396 73.8054C127.396 74.2437 127.382 74.6672 126.804 74.6869C126.227 74.7066 126.185 74.2757 126.185 73.8374C126.185 72.3599 126.185 70.8824 126.185 69.405C126.185 69.0332 126.148 68.7475 125.711 68.5949C125.606 68.5341 125.519 68.4473 125.458 68.3429C125.396 68.2385 125.363 68.12 125.361 67.9989C125.398 67.8216 125.714 67.6911 125.926 67.5705C126.003 67.5262 126.128 67.5705 126.23 67.5705C127.379 67.5926 127.384 67.5976 127.387 68.7598C127.387 69.5609 127.387 70.3596 127.387 71.1558L127.396 71.1632Z" fill="#E2E2E2"/>
<path d="M180.191 71.1986C180.191 72.0974 180.191 72.9962 180.191 73.9073C180.191 74.3481 180.08 74.6953 179.56 74.6928C179.039 74.6904 178.948 74.321 178.948 73.8926C178.948 72.4151 178.948 70.9376 178.948 69.4749C178.948 69.0613 178.933 68.719 178.43 68.5737C178.34 68.5208 178.266 68.446 178.214 68.3563C178.161 68.2667 178.133 68.1652 178.131 68.0615C178.165 67.9628 178.223 67.8736 178.298 67.8013C178.373 67.7289 178.465 67.6755 178.565 67.6454C178.867 67.5876 179.175 67.5718 179.481 67.5986C179.944 67.5986 180.191 67.8325 180.184 68.325C180.181 69.2755 180.189 70.2383 180.191 71.1986Z" fill="#E2E2E2"/>
<path d="M127.155 65.5465C127.204 66.0783 126.908 66.2532 126.415 66.2408C125.921 66.2285 125.712 66.0094 125.719 65.5218C125.726 65.0343 125.909 64.724 126.481 64.7388C127.054 64.7536 127.182 65.0564 127.155 65.5465Z" fill="#E2E2E2"/>
<path d="M179.947 65.5267C180.004 66.0487 179.757 66.2654 179.236 66.2506C178.716 66.2358 178.56 65.9428 178.558 65.4651C178.555 64.9874 178.77 64.7264 179.298 64.7387C179.856 64.7412 179.989 65.0465 179.947 65.5267Z" fill="#E2E2E2"/>
<path d="M189.199 5.70203C189.199 5.15044 189.199 4.59886 189.199 4.04727C189.199 3.55479 189.446 3.26422 189.939 3.28638C190.507 3.27553 191.074 3.33676 191.627 3.4686C192.643 3.79118 192.979 4.85003 192.322 5.68479C191.955 6.15019 192.021 6.46784 192.347 6.85937C192.497 7.02682 192.621 7.21613 192.715 7.42081C192.781 7.58579 192.838 7.84927 192.754 7.95269C192.685 8.01914 192.601 8.06692 192.508 8.09149C192.416 8.11606 192.319 8.1166 192.226 8.09305C191.878 7.87009 191.562 7.60086 191.286 7.29276C191.019 6.96626 190.772 6.6242 190.546 6.26839C190.499 6.66238 190.447 7.0539 190.413 7.44789C190.378 7.84188 190.225 8.14722 189.791 8.12752C189.357 8.10782 189.179 7.85173 189.187 7.42819C189.187 6.85691 189.187 6.28316 189.187 5.70449L189.199 5.70203Z" fill="#E2E2E2"/>
</g>
<defs>
<clipPath id="clip0_806_7798">
<rect width="200" height="78" fill="white"/>
</clipPath>
</defs>
</svg>
