<svg width="503" height="196" viewBox="0 0 503 196" fill="none" xmlns="http://www.w3.org/2000/svg">
<g opacity="0.2" clip-path="url(#clip0_806_7346)">
<path d="M349.956 146.293H287.144C284.414 146.293 284.426 146.132 284.904 143.471C285.611 139.585 286.058 135.65 286.635 131.715C287.305 127.192 288.006 122.675 288.67 118.151C289.233 114.336 289.783 110.518 290.321 106.698C291.09 101.309 291.829 95.9129 292.623 90.5297C293.864 82.1887 295.161 73.8602 296.383 65.5192C297.525 57.7475 298.561 49.9511 299.715 42.1794C300.838 34.5562 302.061 26.9454 303.233 19.3284C303.972 14.5082 304.729 9.68186 305.411 4.84931C305.585 3.61178 306.193 3.18483 307.366 3.19102H342.864C343.968 3.19102 344.608 3.48802 344.378 4.84931C343.702 8.90222 343.137 12.9737 342.517 17.0452C341.896 21.4198 341.276 25.8007 340.655 30.1754C340.214 33.3311 339.799 36.4929 339.333 39.6425C338.806 43.2499 338.229 46.8511 337.689 50.4585C337.224 53.5523 336.796 56.6461 336.324 59.7399C335.418 65.7296 334.463 71.7131 333.575 77.6841C332.663 83.8718 331.85 90.1027 330.951 96.3028C330.2 101.439 329.418 106.568 328.562 111.685C328.326 113.059 328.68 113.306 330.032 113.3C337.416 113.263 344.8 113.374 352.184 113.387C369.806 113.387 387.426 113.387 405.043 113.387C406.228 113.387 407.426 113.461 408.605 113.344C411.31 113.071 412.948 111.196 414.109 109.062C417.397 103.103 415.61 98.1219 409.145 95.5603C402.394 92.8934 395.556 90.4554 388.718 88.0113C383.065 85.9941 377.549 83.68 372.629 80.2334C366.424 75.8464 361.714 70.3332 359.357 62.908C357.712 57.7475 357.452 52.5623 357.88 47.2285C358.489 39.5404 360.978 32.1183 365.128 25.6108C369.279 19.1034 374.964 13.7087 381.688 9.89843C389.492 5.4308 398.168 2.68757 407.128 1.85448C415.881 0.978731 424.721 1.62779 433.251 3.77265C443.03 6.18584 451.388 11.0617 457.599 19.1799C458.505 20.3679 458.455 21.1414 457.326 22.15C449.656 29.0471 442.02 35.9732 434.417 42.9281C433.176 44.0295 432.438 43.4912 431.6 42.5259C428.92 39.4321 425.842 36.8023 421.927 35.5401C414.667 33.2011 407.358 32.3658 400.421 36.6229C397.12 38.6524 395.903 41.8453 396.077 45.6135C396.263 49.1219 398.677 50.9473 401.556 52.0425C407.86 54.4495 414.251 56.6214 420.611 58.8489C428.901 61.7942 437.023 65.0366 443.861 70.7911C450.953 76.7622 454.85 84.3111 454.986 93.6173C455.253 111.927 447.963 126.752 433.716 138.131C426.649 143.781 418.446 146.373 409.281 146.305C389.488 146.157 369.7 146.262 349.907 146.262L349.956 146.293Z" fill="#E2E2E2"/>
<path d="M254.723 146.313H237.517C235.246 146.313 235.035 145.948 235.42 143.782C236.164 139.377 236.748 134.94 237.418 130.522C238.038 126.358 238.74 122.206 239.354 118.042C239.968 113.877 240.508 109.583 241.128 105.363C241.749 101.143 242.431 97.0468 243.033 92.8826C243.499 89.6774 243.89 86.466 244.274 83.2546C244.281 82.9116 244.248 82.5689 244.175 82.2336C243.813 82.3587 243.469 82.5292 243.151 82.741C239.118 86.1875 235.085 89.6588 231.083 93.1177C222.367 100.596 213.645 108.073 204.917 115.548C203.117 117.082 202.931 117.033 201.243 115.059C193.661 106.161 186.081 97.2675 178.502 88.378C165.811 73.5482 153.12 58.7329 140.429 43.9321C140.015 43.5152 139.705 43.0062 139.526 42.4468C139.347 41.8875 139.303 41.2938 139.399 40.7145C140.082 36.4986 140.731 32.2807 141.347 28.0607C141.757 25.2639 142.049 22.4485 142.471 19.6517C143.091 15.4874 143.811 11.3417 144.462 7.18362C144.742 5.40157 144.878 3.60097 145.225 1.84368C145.362 1.16922 145.846 0.117322 146.268 0.0430703C146.648 0.0398098 147.024 0.115105 147.373 0.264204C147.723 0.413304 148.037 0.63297 148.297 0.909341C152.02 4.93131 155.606 9.02135 159.236 13.099C167.327 22.1742 175.414 31.2494 183.497 40.3247C190.658 48.3645 197.824 56.3961 204.997 64.4194C206.437 66.0282 207.907 67.6184 209.285 69.2829C210.166 70.3471 210.842 70.4028 211.934 69.4623C220.274 62.297 228.65 55.1998 237.027 48.0778L292.3 0.96503C292.552 0.708399 292.849 0.498844 293.175 0.346265C293.721 0.179199 294.416 -0.0806827 294.863 0.111134C295.198 0.259638 295.483 1.07641 295.396 1.55904C295.111 4.26305 294.739 6.96086 294.354 9.65249C293.68 14.3551 292.979 19.0783 292.251 23.8222C291.363 29.7067 290.389 35.5787 289.551 41.4756C288.931 45.8502 288.403 50.2435 287.764 54.6181C286.958 60.187 286.07 65.6878 285.239 71.2196C284.538 75.848 283.893 80.5011 283.198 85.1047C282.267 91.2923 281.286 97.48 280.368 103.668C279.748 107.937 279.202 112.219 278.581 116.488C278.016 120.35 277.377 124.198 276.807 128.059C276.155 132.434 275.566 136.815 274.902 141.19C274.781 142.568 274.519 143.93 274.12 145.255C273.934 145.756 272.879 146.226 272.221 146.232C266.382 146.313 260.544 146.276 254.705 146.276L254.723 146.313Z" fill="#E2E2E2"/>
<path d="M77.8404 72.1963C59.8462 72.1963 41.852 72.1963 23.8951 72.1963C22.1025 72.2288 20.3522 71.6528 18.9311 70.5627C13.3964 66.516 7.76233 62.5868 2.17792 58.6144C1.86932 58.4252 1.58221 58.2032 1.32164 57.9523C0.856276 57.482 0.440548 56.9251 0 56.3992C0.671011 56.1274 1.37348 55.9403 2.09105 55.8423C20.1225 55.7866 38.1601 55.7866 56.1915 55.7247C76.8042 55.6587 97.4169 55.5659 118.03 55.4463C123.866 55.4133 129.703 55.339 135.54 55.2235C136.18 55.1923 136.819 55.3142 137.403 55.5789C137.987 55.8437 138.499 56.2437 138.897 56.7457C147.621 66.7078 156.355 76.6534 165.1 86.5825C172.099 94.5564 179.088 102.543 186.066 110.541C186.687 111.271 187.45 111.927 188.033 112.707C188.243 113.148 188.37 113.624 188.406 114.111C187.935 114.144 187.462 114.107 187.003 114C176.132 109.706 165.286 105.337 154.409 101.062C147.583 98.3515 140.677 95.7155 133.833 93.0177C132.661 92.5474 132.338 92.7888 132.208 94.0325C131.935 96.7427 131.451 99.4281 131.134 102.138C130.961 103.617 130.241 104.1 128.776 104.094C115.448 104.065 102.118 104.065 88.7859 104.094C81.6068 104.094 74.4215 104.125 67.2425 104.094C66.2846 104.101 65.3444 103.837 64.5309 103.333C59.567 99.8489 54.6403 96.2662 49.7323 92.6836C49.2603 92.2492 48.8435 91.7588 48.4913 91.2233C49.0885 90.9849 49.7142 90.8248 50.3527 90.7468C76.8601 90.7221 103.367 90.7221 129.875 90.7468C130.812 90.7468 131.922 91.0438 132.189 89.6021C132.35 88.7792 132.133 88.2841 131.227 88.2594C130.712 88.2594 130.197 88.2594 129.676 88.2594C101.568 88.2594 73.4598 88.2408 45.3516 88.2037C44.084 88.1634 42.8545 87.7618 41.8086 87.0466C36.9315 83.6805 32.1476 80.1783 27.3574 76.6823C26.9874 76.2995 26.6834 75.8584 26.4577 75.3767C26.9503 75.1584 27.4699 75.0065 28.0027 74.925C38.6379 74.9003 49.2752 74.9003 59.9145 74.925H99.6258C110.522 74.925 121.419 74.925 132.319 74.925C133.449 74.925 134.373 74.8136 134.628 73.4709C134.783 72.6727 134.541 72.2829 133.709 72.2829C132.673 72.2829 131.643 72.2829 130.607 72.2829L77.8404 72.1963Z" fill="#E2E2E2"/>
<path d="M100.296 106.543H128.156C130.017 106.543 130.34 106.97 130.067 108.746C129.571 111.939 129.099 115.138 128.683 118.343C128.51 119.704 127.808 120.119 126.499 120.112C114.151 120.082 101.81 120.112 89.4683 120.057C88.3987 120.036 87.3579 119.707 86.4714 119.11C81.4392 115.608 76.4815 112.007 71.53 108.399C71.1453 108.115 70.9963 107.502 70.7419 107.044C71.1757 106.816 71.6426 106.658 72.1256 106.574C77.9024 106.574 83.6791 106.63 89.4559 106.654C93.0672 106.654 96.6784 106.654 100.296 106.654V106.543Z" fill="#E2E2E2"/>
<path d="M110.236 122.551H125.748C127.728 122.551 128.019 122.904 127.746 124.84C126.874 130.991 126.001 137.141 125.128 143.292C124.725 146.145 124.321 146.349 121.945 144.647C112.82 138.113 103.719 131.558 94.6433 124.983C93.9882 124.41 93.3879 123.779 92.8501 123.095C93.6869 122.833 94.5472 122.653 95.4189 122.557C100.383 122.508 105.347 122.557 110.311 122.557L110.236 122.551Z" fill="#E2E2E2"/>
<path d="M201.039 128.537C200.803 130.028 200.635 131.247 200.418 132.454C199.661 136.426 198.904 140.405 198.097 144.371C198.035 144.693 197.644 144.947 197.402 145.231C197.111 144.972 196.676 144.761 196.552 144.439C196.25 143.675 196.031 142.881 195.901 142.07C195.665 140.677 194.728 140.034 193.537 139.502C188.374 137.187 183.224 134.846 178.087 132.479C176.982 131.971 176.79 131.241 177.683 130.313C181.729 126.138 185.774 121.96 189.82 117.777C190.596 116.966 191.303 116.731 192.135 117.703C194.846 120.864 197.589 124.002 200.288 127.176C200.59 127.599 200.842 128.056 201.039 128.537Z" fill="#E2E2E2"/>
<path d="M349.956 181.917C349.738 181.943 349.517 181.943 349.298 181.917C348.132 181.781 347.331 182.258 347.158 183.402C346.959 184.77 348.095 185.067 349.019 185.147C350.924 185.308 352.841 185.252 354.752 185.302C357.079 185.37 358.73 186.422 359.245 188.148C359.946 190.456 359.35 192.634 357.383 193.89C353.66 196.273 349.633 196.724 345.594 194.992C342.653 193.754 342.076 190.896 343.987 188.346C344.663 187.443 345.11 186.793 344.514 185.531C344.217 184.89 344.121 184.174 344.241 183.478C344.361 182.782 344.69 182.138 345.185 181.633C345.768 181.014 345.805 180.507 345.247 179.776C343.087 176.8 343.385 174.56 345.06 172.104C346.736 169.647 350.415 168.917 353.301 169.814C354.74 170.266 356.403 170.068 357.96 170.105C358.842 170.105 359.822 169.889 359.909 171.219C359.996 172.395 359.443 172.883 358.264 172.933C357.967 172.933 357.396 173.644 357.464 173.898C358.73 178.656 355.224 182.35 349.956 181.917ZM350.781 179.405C353.263 179.405 354.616 178.1 354.604 175.773C354.638 175.27 354.563 174.766 354.386 174.295C354.208 173.824 353.931 173.395 353.574 173.04C353.216 172.684 352.786 172.408 352.313 172.232C351.84 172.056 351.335 171.982 350.831 172.017C348.442 172.017 347.046 173.409 347.065 175.73C347.058 178.205 348.262 179.393 350.75 179.374L350.781 179.405ZM351.489 187.938V188.055C350.408 187.991 349.323 188.002 348.244 188.086C346.705 188.297 346.146 189.367 346.159 190.858C346.171 192.35 347.127 192.851 348.349 192.938C349.733 193.089 351.131 193.077 352.512 192.9C353.664 192.684 354.752 192.212 355.696 191.521C355.959 191.265 356.156 190.95 356.271 190.602C356.385 190.254 356.413 189.883 356.353 189.522C356.197 189.192 355.97 188.901 355.688 188.669C355.406 188.436 355.076 188.269 354.721 188.179C353.645 187.986 352.552 187.895 351.458 187.907L351.489 187.938Z" fill="#E2E2E2"/>
<path d="M421.021 178.728C421.021 176.42 420.94 174.1 421.07 171.798C421.104 171.422 421.218 171.058 421.405 170.73C421.593 170.402 421.849 170.119 422.156 169.898C422.895 169.496 423.633 169.966 423.85 170.944C424.206 171.034 424.582 171.001 424.917 170.851C425.533 170.295 426.268 169.886 427.065 169.653C427.862 169.421 428.702 169.371 429.521 169.509C430.648 169.784 431.684 170.345 432.531 171.136C433.263 171.792 433.61 171.835 434.262 171.136C435.776 169.539 437.712 169.156 439.809 169.515C441.027 169.707 442.135 170.329 442.932 171.267C443.729 172.205 444.162 173.396 444.153 174.626C444.289 178.431 444.227 182.243 444.233 186.048C444.233 187.001 443.774 187.836 442.8 187.595C442.457 187.452 442.154 187.227 441.918 186.94C441.682 186.653 441.521 186.313 441.447 185.949C441.298 183.183 441.41 180.38 441.348 177.621C441.293 176.597 441.16 175.58 440.951 174.576C440.882 173.979 440.606 173.424 440.171 173.007C439.737 172.591 439.17 172.338 438.568 172.293C437.926 172.163 437.259 172.239 436.662 172.51C436.066 172.781 435.571 173.234 435.249 173.803C434.721 174.735 434.409 175.773 434.336 176.841C434.212 179.768 434.268 182.707 434.281 185.64C434.281 186.723 434.107 187.663 432.754 187.657C431.402 187.651 431.203 186.698 431.197 185.634C431.197 182.441 431.234 179.248 431.147 176.061C431.079 173.586 430.148 172.244 428.566 172.058C426.984 171.872 424.924 173.506 424.607 175.554C424.222 178.029 424.173 180.56 423.987 183.066C423.925 184.093 423.987 185.126 423.937 186.16C423.887 187.094 423.472 187.762 422.398 187.676C421.325 187.589 421.021 186.921 421.027 185.974C421.027 183.555 421.027 181.141 421.027 178.722L421.021 178.728Z" fill="#E2E2E2"/>
<path d="M479.775 25.8191C478.316 25.8265 476.869 25.5449 475.52 24.9906C474.17 24.4363 472.945 23.6203 471.914 22.59C470.883 21.5597 470.067 20.3356 469.515 18.9886C468.962 17.6416 468.683 16.1986 468.693 14.7432C468.631 8.26472 473.279 3.44454 479.713 3.32698C481.2 3.27546 482.681 3.52306 484.07 4.055C485.458 4.58695 486.725 5.39235 487.795 6.42314C488.864 7.45394 489.715 8.68901 490.295 10.0547C490.876 11.4204 491.174 12.8886 491.174 14.3719C491.242 20.8875 486.427 25.7263 479.775 25.8191ZM480.172 6.20423C475.264 5.99385 471.907 9.14337 471.696 14.1616C471.485 19.1797 474.731 23.1275 479.589 23.146C484.094 23.146 487.854 20.7638 488.121 14.9536C488.325 9.97251 485.273 6.18567 480.172 6.18567V6.20423Z" fill="#E2E2E2"/>
<path d="M296.594 182.585C296.594 179.034 296.551 175.482 296.594 171.936C296.594 171.268 296.917 170.291 297.394 170.037C297.872 169.783 298.635 170.495 299.312 170.656C299.685 170.802 300.099 170.802 300.472 170.656C301.643 169.828 303.033 169.364 304.468 169.32C305.903 169.276 307.318 169.654 308.538 170.408C311.02 171.819 312.094 174.343 312.038 177.214C312.1 178.697 311.939 180.179 311.56 181.614C310.009 186.261 306.77 188.297 301.874 187.981C299.647 187.832 299.647 187.833 299.647 190.066C299.647 191.353 299.647 192.64 299.647 193.927C299.647 195.004 299.026 195.48 297.959 195.487C296.892 195.493 296.594 194.818 296.594 193.865C296.594 190.116 296.594 186.36 296.594 182.604V182.585ZM308.843 178.254C308.843 177.586 308.799 176.917 308.743 176.255C308.532 173.78 306.944 172.252 304.524 172.227C301.936 172.196 299.883 173.861 299.746 176.293C299.61 178.724 299.616 181.131 299.715 183.538C299.715 184.101 300.379 185.054 300.801 185.098C302.219 185.319 303.667 185.251 305.058 184.9C307.924 183.91 308.892 181.96 308.824 178.235L308.843 178.254Z" fill="#E2E2E2"/>
<path d="M370.978 182.536C370.978 178.885 370.941 175.24 370.978 171.59C370.978 171.027 371.363 170.092 371.735 169.999C372.281 169.869 372.976 170.383 373.597 170.55C373.994 170.661 374.552 170.829 374.838 170.649C378.735 168.044 384.939 169.362 386.156 175.265C387.229 180.487 385.579 185.902 380.497 187.442C378.853 187.838 377.159 187.986 375.471 187.882C374.329 187.882 373.889 188.074 373.969 189.305C374.075 190.839 373.969 192.399 373.907 193.921C373.907 194.874 373.467 195.462 372.406 195.48C371.345 195.499 370.954 194.923 370.96 193.946C370.96 192.04 370.96 190.14 370.96 188.241V182.536H370.978ZM373.69 180.017H373.87C373.79 181.143 373.806 182.273 373.92 183.396C374.037 184.014 374.608 184.992 375.111 185.085C377.866 185.58 381.216 185.475 382.482 181.991C383.103 180.24 383.103 178.192 383.103 176.28C383.128 175.288 382.778 174.323 382.121 173.577C381.464 172.831 380.55 172.36 379.56 172.258C377.171 171.93 374.869 173.143 374.298 175.302C373.988 176.852 373.785 178.421 373.69 179.999V180.017Z" fill="#E2E2E2"/>
<path d="M267.692 179.44C266.246 179.44 264.794 179.44 263.348 179.44C262.151 179.409 261.822 179.966 261.977 181.074C262.099 182.104 262.56 183.065 263.287 183.807C264.015 184.549 264.968 185.03 265.998 185.176C267.531 185.241 269.068 185.133 270.577 184.854C271.427 184.731 272.265 184.396 272.637 185.473C273.009 186.55 272.432 187.286 271.396 187.54C264.459 189.217 258.403 186.754 258.651 178.419C258.763 174.651 259.892 171.26 263.987 169.856C265.168 169.393 266.448 169.243 267.704 169.42C268.96 169.596 270.148 170.094 271.154 170.864C273.512 172.646 274.052 175.27 274.039 178.029C274.039 179.038 273.301 179.422 272.339 179.422C270.794 179.44 269.243 179.44 267.692 179.44ZM266.507 176.903C267.431 176.903 268.368 176.903 269.286 176.903C270.763 176.866 271.117 176.365 270.658 174.979C270.374 174.116 269.808 173.372 269.051 172.867C268.295 172.361 267.39 172.122 266.482 172.188C264.273 172.306 262.554 173.642 262.182 175.523C262.008 176.402 262.25 176.928 263.255 176.909C264.26 176.891 265.421 176.885 266.507 176.885V176.903Z" fill="#E2E2E2"/>
<path d="M286.226 179.441C284.724 179.441 283.229 179.441 281.727 179.441C280.368 179.441 280.015 179.973 280.424 181.298C281.622 185.091 284.563 185.926 288.838 185.01C289.36 184.833 289.916 184.774 290.464 184.837C290.667 184.927 290.844 185.066 290.979 185.242C291.113 185.419 291.201 185.626 291.233 185.846C291.192 186.382 290.94 186.88 290.532 187.232C286.673 189.948 278.947 187.275 277.682 182.715C276.825 179.621 276.782 176.496 278.265 173.532C279.02 172.018 280.264 170.801 281.797 170.077C283.33 169.353 285.063 169.164 286.716 169.541C290.036 170.24 292.195 172.926 292.35 176.546C292.468 179.392 292.424 179.435 289.632 179.448C288.497 179.448 287.361 179.448 286.226 179.448V179.441ZM284.948 176.886V176.917H288.199C289.13 176.917 289.514 176.564 289.285 175.58C288.813 173.545 287.032 172.016 285.134 172.109C282.794 172.227 280.933 173.749 280.703 175.859C280.748 176.081 280.849 176.288 280.997 176.46C281.144 176.633 281.334 176.764 281.547 176.843C282.68 176.905 283.815 176.91 284.948 176.855V176.886Z" fill="#E2E2E2"/>
<path d="M481.5 179.441C480.054 179.441 478.608 179.441 477.156 179.441C475.953 179.441 475.463 179.831 475.754 181.118C476.375 183.853 478 185.301 480.848 185.27C482.17 185.27 483.485 184.892 484.813 184.855C485.405 184.958 485.973 185.167 486.489 185.474C486.247 186.062 486.172 186.947 485.732 187.2C480.147 190.437 472.894 186.495 472.596 180.14C472.453 177.046 472.596 174.033 474.929 171.645C475.864 170.669 477.052 169.97 478.36 169.624C479.668 169.278 481.046 169.299 482.344 169.683C483.722 169.972 484.972 170.694 485.909 171.743C486.845 172.792 487.421 174.113 487.55 175.512C488.108 179.33 487.978 179.466 484.125 179.435H481.5V179.441ZM480.091 176.917C481.332 176.97 482.575 176.952 483.814 176.861C484.05 176.761 484.256 176.601 484.413 176.399C484.569 176.196 484.671 175.957 484.708 175.704C484.54 173.847 482.449 172.133 480.495 172.109C478.335 172.109 476.189 173.761 476.015 175.747C476.051 175.995 476.152 176.229 476.306 176.426C476.461 176.623 476.664 176.777 476.896 176.873C477.968 176.951 479.044 176.956 480.116 176.886L480.091 176.917Z" fill="#E2E2E2"/>
<path d="M417.118 178.7C416.876 182.499 415.753 185.655 412.104 187.363C407.761 189.423 402.406 186.664 401.314 181.98C400.585 179.23 400.824 176.314 401.99 173.719C403.492 170.409 406.247 169.239 409.666 169.45C411.098 169.493 412.483 169.974 413.632 170.829C414.78 171.683 415.638 172.869 416.088 174.226C416.537 175.691 416.882 177.186 417.118 178.7ZM403.877 178.255C403.904 178.982 403.97 179.707 404.075 180.426C404.23 181.077 404.425 181.718 404.659 182.345C405.422 184.516 406.917 185.438 409.473 185.271C411.298 185.166 413.196 183.743 413.389 181.893C413.63 179.859 413.657 177.806 413.469 175.767C413.271 173.688 411.298 172.178 409.126 172.055C408.139 171.978 407.156 172.24 406.339 172.797C405.522 173.354 404.921 174.173 404.634 175.117C404.261 176.287 404.05 177.5 403.877 178.255Z" fill="#E2E2E2"/>
<path d="M325.434 178.674C325.434 176.31 325.354 173.94 325.484 171.577C325.541 171.234 325.675 170.908 325.876 170.624C326.076 170.34 326.339 170.105 326.644 169.937C326.961 169.795 327.941 170.426 328.189 170.921C328.661 171.861 328.959 171.397 329.43 171.02C331.633 169.269 334.041 168.86 336.647 170.03C339.253 171.199 339.749 173.569 339.873 175.933C340.072 179.212 339.929 182.516 339.917 185.833C339.917 186.941 339.55 187.77 338.229 187.689C336.907 187.609 336.833 186.718 336.833 185.728C336.833 183.723 336.833 181.712 336.833 179.707C336.833 178.73 336.833 177.752 336.833 176.774C336.752 173.903 335.784 172.474 333.823 172.307C332.653 172.246 331.501 172.616 330.586 173.346C329.671 174.076 329.057 175.115 328.859 176.267C328.5 179.361 328.462 182.504 328.363 185.629C328.326 186.619 328.394 187.597 327.122 187.665C325.707 187.739 325.459 186.792 325.478 185.617C325.515 183.302 325.478 180.988 325.478 178.668L325.434 178.674Z" fill="#E2E2E2"/>
<path d="M171.696 131.925C166.527 131.201 161.631 130.508 156.736 129.846C153.826 129.457 150.903 129.147 147.999 128.745C147.451 128.594 146.925 128.372 146.436 128.083C146.988 127.804 147.521 127.328 148.092 127.291C150.767 127.105 153.453 127.043 156.159 126.938C162.854 126.672 169.555 126.394 176.256 126.152C176.73 126.2 177.195 126.31 177.64 126.48C177.523 126.948 177.336 127.397 177.088 127.811C176.244 128.838 175.263 129.766 174.426 130.805C173.588 131.845 172.676 132.21 171.696 131.925Z" fill="#E2E2E2"/>
<path d="M464.313 169.25C465.51 169.477 466.691 169.781 467.849 170.16C468.074 170.315 468.255 170.527 468.373 170.773C468.492 171.019 468.544 171.292 468.526 171.564C468.413 171.816 468.241 172.037 468.025 172.209C467.81 172.381 467.556 172.5 467.285 172.554C466.435 172.61 465.56 172.232 464.691 172.208C463.831 172.122 462.962 172.236 462.153 172.542C461.815 172.723 461.523 172.979 461.3 173.29C461.076 173.601 460.926 173.959 460.863 174.336C460.94 174.716 461.098 175.075 461.326 175.388C461.554 175.702 461.847 175.964 462.184 176.155C463.249 176.669 464.35 177.103 465.479 177.455C468.544 178.692 469.537 180.208 469.276 183.203C469.09 185.295 467.179 187.374 464.623 187.72C462.677 187.895 460.718 187.866 458.778 187.634C457.791 187.559 457.208 186.934 457.537 185.777C457.866 184.62 458.585 184.54 459.566 184.868C461.39 185.449 463.208 185.592 464.933 184.54C465.306 184.335 465.619 184.035 465.84 183.672C466.061 183.309 466.182 182.894 466.191 182.469C466.201 182.044 466.098 181.624 465.893 181.251C465.689 180.878 465.39 180.566 465.026 180.344C463.983 179.78 462.888 179.318 461.756 178.965C458.927 177.95 457.344 176.019 457.661 173.885C458.046 171.292 460.348 169.51 463.369 169.454C463.68 169.454 463.99 169.454 464.3 169.454L464.313 169.25Z" fill="#E2E2E2"/>
<path d="M498.036 169.262C499.142 169.427 500.231 169.683 501.294 170.029C501.784 170.233 502.026 171.007 502.38 171.526C501.759 171.861 501.182 172.442 500.555 172.486C499.656 172.554 498.694 172.083 497.819 172.114C496.898 172.128 495.994 172.355 495.176 172.776C493.873 173.513 494.059 175.251 495.529 175.994C496.808 176.644 498.185 177.083 499.525 177.609C501.734 178.481 503 180.158 503 182.231C503.01 183.316 502.69 184.379 502.083 185.28C501.477 186.181 500.611 186.879 499.6 187.28C497.198 188.363 494.748 188.004 492.297 187.627C491.378 187.484 490.776 186.866 491.056 185.857C491.092 185.638 491.179 185.431 491.31 185.252C491.441 185.072 491.612 184.926 491.81 184.825C492.008 184.723 492.226 184.669 492.449 184.667C492.671 184.664 492.891 184.714 493.091 184.811C494.952 185.43 496.814 185.653 498.588 184.533C500.363 183.413 500.45 181.439 498.588 180.331C497.502 179.747 496.361 179.27 495.182 178.908C492.135 177.813 491.111 176.297 491.515 173.383C491.813 171.211 493.842 169.627 496.559 169.454C497.025 169.423 497.49 169.454 497.955 169.454L498.036 169.262Z" fill="#E2E2E2"/>
<path d="M187.102 115.765C186.803 116.242 186.467 116.695 186.097 117.12C185.098 118.085 183.988 118.945 183.044 119.96C182.101 120.975 181.183 120.994 180.103 120.121C176.846 117.43 173.57 114.763 170.293 112.077C168.978 111.001 167.638 109.955 166.36 108.841C166.089 108.5 165.879 108.115 165.739 107.703C166.201 107.575 166.684 107.539 167.16 107.597C173.41 109.973 179.65 112.38 185.88 114.818C186.326 115.082 186.736 115.4 187.102 115.765Z" fill="#E2E2E2"/>
<path d="M246.334 175V185.63C246.334 186.676 246.198 187.672 244.827 187.672C243.455 187.672 243.331 186.645 243.331 185.618C243.331 178.576 243.331 171.539 243.331 164.505C243.331 164.245 243.369 163.992 243.387 163.732C243.474 162.723 244.119 162.117 245.025 162.383C245.338 162.517 245.614 162.724 245.83 162.987C246.046 163.25 246.196 163.56 246.266 163.893C246.372 167.605 246.322 171.318 246.322 174.993L246.334 175Z" fill="#E2E2E2"/>
<path d="M390.611 178.713C390.611 176.399 390.542 174.079 390.654 171.771C390.673 171.417 390.767 171.072 390.931 170.758C391.095 170.445 391.324 170.17 391.604 169.952C392.41 169.537 393.186 169.952 393.465 171.003C393.465 171.096 394.148 171.121 394.464 171.003C395.575 170.657 396.648 170.075 397.777 169.933C398.286 169.871 398.894 170.632 399.459 171.016C399.043 171.56 398.721 172.439 398.218 172.588C394.675 173.59 393.912 174.339 393.657 178.113C393.484 180.724 393.539 183.354 393.49 185.971C393.49 186.85 393.366 187.685 392.193 187.667C391.02 187.648 390.66 186.955 390.66 185.94C390.604 183.552 390.611 181.133 390.611 178.713Z" fill="#E2E2E2"/>
<path d="M255.598 187.976C254.834 187.569 254.123 187.068 253.482 186.485C251.621 184.313 249.84 182.03 247.991 179.827C247.309 179.017 247.067 178.311 247.78 177.352C249.393 175.23 250.938 173.021 252.533 170.911C252.769 170.589 253.11 170.187 253.451 170.131C254.223 170.06 254.999 170.047 255.772 170.094C255.682 170.748 255.491 171.385 255.207 171.981C253.997 173.708 252.725 175.403 251.385 177.018C250.616 177.928 250.734 178.552 251.46 179.4C253.259 181.516 254.984 183.688 256.684 185.879C256.827 186.071 256.928 186.291 256.982 186.524C257.035 186.757 257.039 186.999 256.994 187.234C256.883 187.537 256.262 187.654 255.598 187.976Z" fill="#E2E2E2"/>
<path d="M320.402 178.823C320.402 181.039 320.402 183.248 320.402 185.463C320.402 186.564 320.365 187.628 318.913 187.678C317.461 187.727 317.356 186.645 317.356 185.543C317.356 181.831 317.356 178.118 317.356 174.405C317.356 173.471 317.263 172.753 316.164 172.37C315.9 172.217 315.681 171.999 315.526 171.737C315.372 171.474 315.288 171.176 315.283 170.872C315.376 170.427 316.17 170.099 316.704 169.796C316.896 169.684 317.213 169.796 317.467 169.796C320.359 169.851 320.371 169.864 320.377 172.784C320.377 174.797 320.377 176.804 320.377 178.805L320.402 178.823Z" fill="#E2E2E2"/>
<path d="M453.181 178.914C453.181 181.173 453.181 183.431 453.181 185.72C453.181 186.828 452.902 187.701 451.592 187.694C450.283 187.688 450.054 186.76 450.054 185.683C450.054 181.971 450.054 178.258 450.054 174.583C450.054 173.543 450.016 172.683 448.751 172.318C448.526 172.185 448.339 171.997 448.207 171.772C448.076 171.547 448.004 171.292 448 171.031C448.086 170.783 448.23 170.559 448.42 170.377C448.609 170.195 448.84 170.061 449.092 169.985C449.85 169.84 450.625 169.801 451.394 169.868C452.56 169.868 453.181 170.456 453.162 171.693C453.156 174.081 453.175 176.501 453.181 178.914Z" fill="#E2E2E2"/>
<path d="M319.794 164.714C319.918 166.051 319.174 166.49 317.933 166.459C316.692 166.428 316.164 165.878 316.183 164.653C316.201 163.427 316.661 162.648 318.1 162.685C319.54 162.722 319.862 163.483 319.794 164.714Z" fill="#E2E2E2"/>
<path d="M452.567 164.661C452.709 165.973 452.089 166.517 450.78 166.48C449.47 166.443 449.079 165.706 449.073 164.506C449.067 163.306 449.607 162.65 450.935 162.681C452.337 162.687 452.672 163.454 452.567 164.661Z" fill="#E2E2E2"/>
<path d="M475.835 14.331C475.835 12.9449 475.835 11.5589 475.835 10.1729C475.835 8.93535 476.455 8.2052 477.696 8.26089C479.125 8.23363 480.551 8.38749 481.941 8.71878C484.497 9.52936 485.341 12.19 483.69 14.2877C482.766 15.4571 482.933 16.2553 483.752 17.2392C484.131 17.6599 484.442 18.1356 484.677 18.65C484.844 19.0645 484.987 19.7266 484.776 19.9865C484.604 20.1535 484.391 20.2735 484.158 20.3353C483.926 20.397 483.681 20.3984 483.448 20.3392C482.572 19.7789 481.777 19.1024 481.084 18.3282C480.413 17.5078 479.791 16.6482 479.223 15.7541C479.105 16.7442 478.975 17.728 478.888 18.718C478.801 19.708 478.416 20.4753 477.324 20.4258C476.232 20.3763 475.785 19.7328 475.804 18.6685C475.804 17.233 475.804 15.7913 475.804 14.3372L475.835 14.331Z" fill="#E2E2E2"/>
</g>
<defs>
<clipPath id="clip0_806_7346">
<rect width="503" height="196" fill="white"/>
</clipPath>
</defs>
</svg>
