<svg width="140" height="69" viewBox="0 0 140 69" fill="none" xmlns="http://www.w3.org/2000/svg">
<g clip-path="url(#clip0_806_8209)">
<path d="M42.8289 47.176C42.792 46.2604 42.7682 44.5801 42.7577 42.1349H43.4334C46.7924 42.1349 49.2312 41.5423 50.7497 40.3569C52.2682 39.1716 53.0266 37.5409 53.0248 35.4649C53.0248 33.4438 52.3975 31.9923 51.1429 31.1104C49.8884 30.2286 47.4443 29.785 43.8108 29.7796H37.0434C36.8248 29.7642 36.6079 29.8274 36.4311 29.958C36.358 30.0327 36.3019 30.1226 36.2668 30.2214C36.2317 30.3203 36.2184 30.4257 36.2279 30.5302C36.2334 30.9385 36.3149 31.342 36.4681 31.72H38.3341C38.3816 32.9283 38.4054 34.9157 38.4054 37.682C38.4054 42.8012 38.3816 45.9641 38.3341 47.1707H37.0302C36.8092 47.155 36.5896 47.2181 36.41 47.349C36.3358 47.4204 36.2784 47.5077 36.2423 47.6045C36.2062 47.7012 36.1923 47.805 36.2015 47.908C36.2117 48.3224 36.3013 48.731 36.4654 49.111H44.6052C44.7119 49.1215 44.8196 49.1094 44.9214 49.0755C45.0232 49.0415 45.1169 48.9866 45.1965 48.9141C45.3383 48.7123 45.403 48.4655 45.3786 48.2194C45.3776 47.8564 45.2965 47.4981 45.141 47.1707L42.8289 47.176ZM42.7577 37.7033C42.7577 34.9263 42.7814 33.2406 42.8289 32.6462C43.2944 32.5439 43.77 32.4966 44.2463 32.5051C45.5959 32.5051 46.5909 32.8405 47.2314 33.5112C47.8719 34.182 48.1921 35.126 48.1921 36.3432C48.1921 37.6261 47.8534 38.5275 47.176 39.0474C46.4985 39.5673 45.4384 39.8273 43.9955 39.8273H42.7577V37.7033Z" fill="#E2E2E2"/>
<path d="M66.0819 47.3035C66.0726 47.0075 66.0031 46.7166 65.8778 46.4488C65.7525 46.1809 65.574 45.9419 65.3534 45.7464C64.1407 46.4584 62.7683 46.8477 61.3653 46.8776C60.0456 46.8776 59.1219 46.529 58.5993 45.813C58.0767 45.097 57.8075 44.1388 57.7679 42.9038H62.9938C64.2581 42.9038 65.0763 42.6989 65.4511 42.2943C65.8259 41.8897 66.0133 41.2084 66.0133 40.2555C66.0133 38.3285 65.5734 36.9187 64.6936 36.0262C63.8138 35.1336 62.4008 34.69 60.4547 34.6954C58.2729 34.6954 56.5335 35.3963 55.2367 36.798C53.9399 38.1998 53.2915 40.1419 53.2915 42.6244C53.2915 45.0145 53.8678 46.7286 55.0203 47.7666C56.1728 48.8047 58.0204 49.3237 60.563 49.3237C61.8665 49.3448 63.1672 49.1945 64.4323 48.8765C65.532 48.5802 66.0819 48.0541 66.0819 47.2982V47.3035ZM58.3037 38.0011C58.4687 37.7299 58.7024 37.5081 58.9808 37.3583C59.2591 37.2086 59.5721 37.1365 59.8873 37.1494C60.1792 37.1357 60.4701 37.192 60.7362 37.3137C61.0023 37.4353 61.236 37.6189 61.4181 37.8494C61.7823 38.3178 61.9645 38.977 61.9645 39.827C61.9845 40.0784 61.9361 40.3305 61.8246 40.5563C61.7322 40.7027 61.4102 40.8065 60.8638 40.8677C60.0741 40.9385 59.2812 40.9687 58.4884 40.9582H57.7441C57.7441 39.5528 57.9315 38.5671 58.3063 38.0011" fill="#E2E2E2"/>
<path d="M76.3545 48.9179C76.4321 48.8214 76.49 48.7103 76.5249 48.5911C76.5598 48.4718 76.5709 48.3468 76.5577 48.2232C76.5637 47.8579 76.4774 47.497 76.3069 47.1746H74.1004C74.0564 45.7887 74.0336 44.1367 74.0318 42.2186C74.0318 40.1212 74.2166 38.8206 74.5861 38.3167C74.7671 38.0679 75.0066 37.8683 75.283 37.7359C75.5594 37.6035 75.8641 37.5424 76.1697 37.5581C76.3992 37.9024 76.6647 38.221 76.9615 38.5083C77.2512 38.5385 77.5438 38.5196 77.8272 38.4524C78.2106 38.4141 78.5814 38.2934 78.9146 38.0984C79.1443 37.936 79.3369 37.5661 79.49 37.0151C79.6406 36.4872 79.7188 35.9409 79.7223 35.3915C79.7223 35.0987 79.6669 34.9124 79.5534 34.8326C79.3439 34.7321 79.1113 34.6907 78.8803 34.7128C78.0257 34.7302 77.1765 34.8536 76.3518 35.0801C75.2253 35.4019 74.148 35.8783 73.1503 36.4961C73.1987 35.9498 73.1987 35.4002 73.1503 34.8539C70.3085 34.939 68.7645 35.0322 68.5182 35.1333C68.3936 35.1894 68.2902 35.2843 68.2232 35.4041C68.1561 35.5239 68.1291 35.6623 68.146 35.7988C68.1524 36.1906 68.2424 36.5764 68.41 36.9299C68.6731 36.908 68.9368 36.965 69.1679 37.0938C69.3989 37.2226 69.587 37.4175 69.7085 37.6539C69.9566 38.1365 70.0807 39.6989 70.0807 42.341C70.0807 44.1722 70.0578 45.7816 70.0121 47.1692H68.9853C68.7584 47.1482 68.5322 47.2169 68.3545 47.3609C68.2812 47.4472 68.2259 47.5476 68.1919 47.656C68.1579 47.7643 68.1459 47.8785 68.1566 47.9917C68.1682 48.3785 68.258 48.7589 68.4205 49.1096H75.5838C75.8626 49.1428 76.144 49.0728 76.3756 48.9126" fill="#E2E2E2"/>
<path d="M86.9647 47.1754C86.9172 45.9671 86.8944 44.0152 86.8961 41.3199V30.4231C86.9043 30.1141 86.8777 29.8052 86.8169 29.5022C86.7668 29.284 86.553 29.1349 86.1941 29.0551C85.5198 28.9539 84.8378 28.9139 84.1565 28.9353C82.5728 28.9353 81.6227 28.9912 81.3271 29.0977C81.1796 29.1558 81.0558 29.2622 80.9754 29.3997C80.895 29.5372 80.8627 29.698 80.8836 29.8562C80.8896 30.2575 80.9796 30.6529 81.1476 31.0167C81.4915 31.0036 81.8343 31.0644 82.1532 31.195C82.2936 31.276 82.4141 31.388 82.5055 31.5226C82.5969 31.6572 82.657 31.8109 82.6811 31.9722C82.8213 32.7127 82.892 33.4648 82.8922 34.2186C82.9309 35.3117 82.9503 38.0026 82.9503 42.2914C82.9503 44.339 82.9221 45.9671 82.8658 47.1754H81.7124C81.4855 47.155 81.2595 47.2236 81.0816 47.3671C81.0083 47.4534 80.953 47.5538 80.919 47.6622C80.885 47.7705 80.8729 47.8847 80.8836 47.9979C80.8952 48.3847 80.9851 48.7651 81.1476 49.1158H88.0099C88.2888 49.1481 88.5698 49.0782 88.8018 48.9188C88.9575 48.7232 89.0305 48.4736 89.005 48.2241C89.0107 47.8601 88.9282 47.5001 88.7648 47.1754H86.9647Z" fill="#E2E2E2"/>
<path d="M102.819 46.6151C102.644 46.1378 102.556 44.8567 102.556 42.7717V39.0188C102.556 37.3739 102.087 36.2667 101.151 35.6971C100.215 35.1275 98.9238 34.8418 97.2768 34.8401C95.967 34.8352 94.658 34.9107 93.3573 35.0663C92.13 35.218 91.4227 35.3591 91.23 35.4922C91.1385 35.5507 91.0638 35.6323 91.0133 35.729C90.9629 35.8256 90.9384 35.934 90.9423 36.0431C90.9693 36.5273 91.096 37.0005 91.3145 37.4325C91.4837 37.8595 91.7338 38.2491 92.0508 38.5797C92.2954 38.7961 92.7098 38.8387 93.294 38.7074C93.6229 38.6427 93.9466 38.5537 94.2626 38.4413C94.4905 38.1315 94.686 37.7988 94.8459 37.4485C95.3066 37.3411 95.7773 37.284 96.2501 37.2781C96.5875 37.2551 96.9254 37.3159 97.2341 37.4551C97.5429 37.5943 97.8131 37.8077 98.0211 38.0766C98.4152 38.6089 98.6537 39.6026 98.7364 41.0576H97.2055C94.8653 41.0576 93.1523 41.4445 92.0667 42.2181C90.981 42.9918 90.4373 44.1788 90.4355 45.7794C90.4355 46.9203 90.7514 47.8075 91.3831 48.441C92.0148 49.0745 93.0089 49.3912 94.3656 49.3912C95.2287 49.3797 96.0853 49.2389 96.9073 48.9733C97.7329 48.723 98.5364 48.4034 99.3091 48.0178C99.7684 48.6486 100.101 49.0132 100.32 49.1064C100.603 49.2128 100.905 49.2608 101.207 49.2475C101.898 49.2759 102.587 49.1636 103.234 48.9174C103.735 48.6939 103.986 48.3851 103.986 47.9459C103.981 47.6724 103.908 47.4044 103.775 47.1661C103.316 47.2699 102.999 47.0836 102.819 46.6071V46.6151ZM98.7337 44.1212C98.7482 44.649 98.6868 45.1761 98.5516 45.6862C98.4917 45.8846 98.3931 46.0689 98.2617 46.2284C98.1302 46.3879 97.9686 46.5194 97.7862 46.6151C97.3741 46.837 96.9125 46.9488 96.4454 46.9398C95.9158 46.978 95.3928 46.8028 94.9911 46.4528C94.8145 46.2588 94.679 46.0307 94.5928 45.7822C94.5066 45.5337 94.4715 45.2701 94.4896 45.0075C94.4896 44.2711 94.6585 43.7707 94.9964 43.5063C95.3342 43.2419 95.8955 43.1098 96.6803 43.1098C97.3693 43.1097 98.0565 43.181 98.7311 43.3227L98.7337 44.1212Z" fill="#E2E2E2"/>
<path d="M41.3378 58.3577C41.9395 58.1075 42.2404 57.7375 42.2404 57.2531C42.2474 57.0874 42.2059 56.9233 42.1209 56.7813C42.0359 56.6393 41.9113 56.5256 41.7627 56.4546C41.3008 56.2518 40.7983 56.1607 40.2952 56.1885H38.7248C38.6741 56.1847 38.6237 56.1988 38.5823 56.2284C38.5654 56.2459 38.5524 56.2668 38.5442 56.2897C38.536 56.3127 38.5328 56.3372 38.5348 56.3615C38.5371 56.4531 38.5568 56.5435 38.5928 56.6276H38.9623C38.9623 56.8938 38.9834 57.482 38.9834 58.3471C38.9834 59.3088 38.9764 59.9298 38.9623 60.2102H38.7248C38.6741 60.2064 38.6237 60.2206 38.5823 60.2501C38.5656 60.2672 38.5527 60.2876 38.5445 60.3101C38.5363 60.3326 38.533 60.3566 38.5348 60.3805C38.5355 60.4767 38.5552 60.5717 38.5928 60.66H40.158C41.0131 60.66 41.6114 60.5385 41.9527 60.2954C42.1121 60.1996 42.2443 60.0641 42.3368 59.9018C42.4292 59.7396 42.4787 59.5562 42.4806 59.3691C42.4806 58.8182 42.1032 58.4748 41.351 58.3311L41.3378 58.3577ZM40.0049 56.8406C40.135 56.8197 40.2664 56.809 40.3981 56.8086C40.5951 56.7934 40.7908 56.8501 40.9498 56.9683C41.0147 57.0337 41.0647 57.1126 41.0961 57.1995C41.1276 57.2864 41.1398 57.3792 41.1319 57.4714C41.1392 57.5562 41.1276 57.6416 41.0979 57.7213C41.0683 57.8009 41.0212 57.8729 40.9603 57.9318C40.7954 58.0449 40.5967 58.0966 40.3981 58.0782C40.2655 58.0802 40.1329 58.0695 40.0022 58.0463C40.0022 57.4501 40.0022 57.0482 40.0022 56.8406H40.0049ZM41.1662 59.8775C40.9895 59.9932 40.7797 60.0465 40.5697 60.0292C40.3058 60.0292 40.1448 59.9893 40.0867 59.9121C40.0129 59.7574 39.9827 59.5852 39.9996 59.4144V58.6478C40.1419 58.6247 40.2857 58.6132 40.4298 58.6132C40.6775 58.5933 40.9243 58.6621 41.1266 58.8075C41.2041 58.8789 41.2646 58.9669 41.3039 59.065C41.3432 59.1631 41.3602 59.2689 41.3536 59.3745C41.3622 59.4671 41.3497 59.5606 41.3173 59.6477C41.2848 59.7349 41.2332 59.8134 41.1662 59.8775Z" fill="#E2E2E2"/>
<path d="M47.2449 56.6535C47.2696 56.6555 47.2945 56.6525 47.318 56.6448C47.3416 56.637 47.3634 56.6246 47.3822 56.6083C47.415 56.561 47.4299 56.5034 47.4244 56.4459C47.4236 56.3621 47.4047 56.2794 47.369 56.2037H45.5874C45.5367 56.2 45.4863 56.2141 45.4448 56.2436C45.427 56.2605 45.4132 56.2813 45.4045 56.3043C45.3959 56.3274 45.3925 56.3522 45.3947 56.3767C45.3983 56.4682 45.4179 56.5583 45.4528 56.6429H45.8856C45.8856 56.9091 45.9041 57.3828 45.9067 58.0243C45.9067 59.2114 45.9067 59.9433 45.8909 60.2254H45.5874C45.5367 60.2217 45.4863 60.2358 45.4448 60.2654C45.4272 60.2818 45.4136 60.3022 45.4049 60.3247C45.3962 60.3473 45.3927 60.3716 45.3947 60.3958C45.3983 60.4873 45.418 60.5774 45.4528 60.662H47.2449C47.2696 60.6639 47.2945 60.661 47.318 60.6532C47.3416 60.6454 47.3634 60.633 47.3822 60.6167C47.4132 60.5686 47.428 60.5116 47.4244 60.4543C47.4243 60.3704 47.4053 60.2876 47.369 60.2121H46.9308C46.9203 59.93 46.915 59.1972 46.915 58.0136C46.915 57.3722 46.915 56.9091 46.9282 56.6296L47.2449 56.6535Z" fill="#E2E2E2"/>
<path d="M53.3969 58.4562C53.0758 58.2401 52.7178 58.0858 52.3411 58.001C52.0851 57.9409 51.8407 57.8384 51.6179 57.6976C51.5565 57.6456 51.5082 57.5796 51.477 57.5051C51.4458 57.4306 51.4326 57.3497 51.4384 57.2691C51.4339 57.2002 51.4442 57.1312 51.4689 57.0669C51.4935 57.0025 51.5317 56.9443 51.581 56.8964C51.7321 56.7961 51.9129 56.751 52.093 56.7687C52.5516 56.7883 53.0011 56.9044 53.4127 57.1094C53.5392 56.9793 53.6103 56.8045 53.6106 56.6223C53.6161 56.5374 53.5931 56.4531 53.5452 56.3831C53.4973 56.313 53.4274 56.2613 53.3467 56.2363C52.9834 56.1523 52.6104 56.1192 52.2382 56.1379C51.7763 56.1062 51.3177 56.2359 50.9396 56.5052C50.7866 56.6267 50.6646 56.7833 50.5838 56.9621C50.503 57.1408 50.4657 57.3364 50.4751 57.5326C50.4619 57.8258 50.5633 58.1125 50.7575 58.3311C51.0158 58.5755 51.3367 58.7423 51.6839 58.8128C51.9872 58.889 52.2792 59.0054 52.5523 59.1588C52.6352 59.207 52.7036 59.2771 52.7501 59.3615C52.7966 59.4459 52.8194 59.5414 52.8162 59.6379C52.8221 59.7098 52.8097 59.782 52.7801 59.8477C52.7505 59.9134 52.7048 59.9704 52.6473 60.0132C52.4621 60.1044 52.2562 60.1439 52.0508 60.1277C51.5618 60.1133 51.0832 59.9819 50.6545 59.7444C50.5837 59.8047 50.5265 59.8796 50.4869 59.9641C50.4473 60.0486 50.4262 60.1407 50.4249 60.2341C50.4226 60.3325 50.455 60.4286 50.5164 60.5051C50.5778 60.5817 50.6642 60.6337 50.7601 60.652C51.0995 60.7344 51.4486 60.7693 51.7974 60.7558C52.3115 60.7882 52.8239 60.6699 53.2728 60.4151C53.4424 60.2981 53.5786 60.1381 53.6675 59.9512C53.7565 59.7643 53.7951 59.5572 53.7796 59.3505C53.7897 59.1805 53.7602 59.0106 53.6932 58.8543C53.6263 58.698 53.5239 58.5598 53.3942 58.4508" fill="#E2E2E2"/>
<path d="M58.5595 60.1533H58.2955C58.2955 59.9776 58.277 59.4692 58.2744 58.6255H59.7815C59.8345 58.6322 59.8881 58.6189 59.9319 58.5882C59.9639 58.5456 59.9781 58.4922 59.9715 58.4392C59.9718 58.3163 59.9531 58.1942 59.9161 58.0772H58.2744C58.2744 57.4198 58.2744 56.9833 58.2955 56.7677H58.4512C59.0468 56.7479 59.6407 56.8428 60.2011 57.0471C60.3016 56.8995 60.3576 56.7257 60.3621 56.5467C60.3696 56.4984 60.3653 56.4489 60.3497 56.4026C60.3341 56.3562 60.3075 56.3144 60.2724 56.2806C60.1814 56.2302 60.0776 56.208 59.9742 56.2167H57.0101C56.9587 56.2134 56.9076 56.2274 56.865 56.2566C56.8481 56.2741 56.8351 56.295 56.8269 56.318C56.8187 56.3409 56.8155 56.3654 56.8175 56.3897C56.8198 56.4814 56.8395 56.5717 56.8755 56.6559H57.2477C57.2609 56.922 57.2662 57.3958 57.2662 58.0373C57.2662 59.2243 57.26 59.959 57.2477 60.2411H57.0101C56.9587 60.2378 56.9076 60.2518 56.865 60.281C56.8483 60.2981 56.8354 60.3185 56.8272 60.341C56.819 60.3635 56.8157 60.3875 56.8175 60.4114C56.8182 60.5076 56.8379 60.6026 56.8755 60.6909H59.7788C59.9585 60.7046 60.1389 60.6773 60.3067 60.6111C60.353 60.5854 60.3906 60.5463 60.4145 60.4988C60.4385 60.4514 60.4479 60.3977 60.4413 60.3449C60.4417 60.177 60.392 60.0129 60.2988 59.8738C59.7403 60.0701 59.1506 60.1604 58.5595 60.1399" fill="#E2E2E2"/>
<path d="M67.2275 60.1326C67.0813 59.9793 66.9665 59.7984 66.8897 59.6003C66.7826 59.368 66.6517 59.1477 66.499 58.9429C66.3801 58.7897 66.2236 58.6705 66.0451 58.5969C66.7489 58.3733 67.1008 57.9723 67.1008 57.3938C67.1142 57.2164 67.0811 57.0387 67.0046 56.8784C66.9281 56.7181 66.8111 56.581 66.6653 56.4809C66.375 56.2928 65.8911 56.1978 65.2137 56.1961H63.5245C63.4746 56.1918 63.4249 56.206 63.3846 56.236C63.3677 56.2534 63.3547 56.2744 63.3465 56.2973C63.3383 56.3203 63.3351 56.3447 63.3371 56.3691C63.3397 56.4604 63.3584 56.5506 63.3925 56.6352H63.8254C63.8359 56.9138 63.8412 57.3743 63.8412 58.0166C63.8412 59.2037 63.8412 59.9357 63.8254 60.2178H63.5218C63.4712 60.214 63.4208 60.2281 63.3793 60.2577C63.3617 60.2742 63.348 60.2945 63.3393 60.3171C63.3306 60.3397 63.3272 60.364 63.3292 60.3881C63.3328 60.4796 63.3524 60.5697 63.3872 60.6543H65.219C65.2429 60.6563 65.2669 60.6533 65.2896 60.6456C65.3123 60.6378 65.3332 60.6253 65.3509 60.609C65.3842 60.5619 65.3992 60.5042 65.3931 60.4467C65.393 60.3628 65.3741 60.28 65.3377 60.2045H64.8758C64.8758 59.9685 64.8706 59.5249 64.86 58.8737C64.9587 58.8511 65.0597 58.8404 65.1609 58.8417C65.2594 58.8388 65.357 58.8618 65.444 58.9085C65.531 58.9552 65.6044 59.0239 65.6571 59.1079C65.8089 59.3668 65.9227 59.6465 65.9949 59.9383C66.0987 60.3145 66.2149 60.5381 66.3433 60.609C66.5659 60.6995 66.8062 60.7368 67.0454 60.7182C67.2336 60.7429 67.4246 60.7045 67.5891 60.609C67.6604 60.5345 67.6656 60.3988 67.6076 60.2045C67.473 60.2136 67.3392 60.1771 67.2275 60.1007V60.1326ZM65.7679 58.1444C65.5744 58.2625 65.3497 58.3182 65.1239 58.3041H64.86V58.006C64.86 57.3645 64.86 56.9733 64.8758 56.8349C64.986 56.8113 65.0985 56.8006 65.211 56.8029C65.4147 56.7945 65.6141 56.8628 65.7706 56.9946C65.8516 57.0787 65.9132 57.1798 65.951 57.2907C65.9889 57.4015 66.0021 57.5194 65.9896 57.636C65.9975 57.7327 65.9814 57.8298 65.9427 57.9185C65.904 58.0073 65.8439 58.0849 65.7679 58.1444Z" fill="#E2E2E2"/>
<path d="M79.564 60.2375C79.5402 59.9554 79.5112 59.3831 79.469 58.5128C79.4267 57.6424 79.4109 57.0249 79.4109 56.6496H79.6564C79.6807 56.6514 79.7051 56.6483 79.7282 56.6406C79.7513 56.6328 79.7726 56.6205 79.791 56.6044C79.8249 56.5576 79.84 56.4996 79.8332 56.442C79.8325 56.3582 79.8136 56.2755 79.7778 56.1998H78.0701C77.983 56.6576 77.8326 57.3124 77.6241 58.1614C77.4155 59.0105 77.3021 59.4364 77.2862 59.4364C77.2025 59.2194 77.1397 58.9948 77.0988 58.7656C76.9906 58.3185 76.8771 57.8846 76.7636 57.4641C76.6501 57.0436 76.5393 56.623 76.4416 56.1998H74.6653C74.6147 56.1961 74.5643 56.2102 74.5228 56.2397C74.505 56.2566 74.4912 56.2774 74.4825 56.3004C74.4738 56.3235 74.4704 56.3483 74.4727 56.3728C74.4752 56.4642 74.494 56.5543 74.5281 56.639H74.8976C74.8976 57.009 74.8791 57.6291 74.8395 58.5021C74.7999 59.3751 74.7683 59.9447 74.7471 60.2269H74.536C74.4853 60.2231 74.4349 60.2372 74.3935 60.2668C74.3758 60.2833 74.3622 60.3036 74.3535 60.3262C74.3448 60.3488 74.3413 60.3731 74.3433 60.3972C74.3457 60.4888 74.3654 60.5792 74.4014 60.6634H75.7633C75.788 60.6654 75.8129 60.6624 75.8364 60.6546C75.86 60.6468 75.8818 60.6344 75.9006 60.6181C75.9316 60.57 75.9464 60.5131 75.9428 60.4558C75.9427 60.3718 75.9237 60.289 75.8873 60.2136H75.6366C75.6261 59.7912 75.6261 58.7532 75.6366 57.0994C75.9006 58.1144 76.117 58.8792 76.2859 59.3938C76.3591 59.6707 76.4627 59.9385 76.5947 60.1923C76.7778 60.2304 76.9652 60.2429 77.1516 60.2295C77.241 60.2393 77.3314 60.2241 77.4129 60.1856C77.4943 60.1472 77.5637 60.0868 77.6135 60.0113C77.7635 59.6847 77.8845 59.3453 77.9751 58.9972C78.1308 58.4649 78.2945 57.8394 78.4607 57.134C78.5162 58.7656 78.5346 59.7957 78.5241 60.2162H78.3895C78.3388 60.2125 78.2884 60.2266 78.2469 60.2561C78.2302 60.2732 78.2174 60.2937 78.2092 60.3162C78.201 60.3387 78.1977 60.3627 78.1994 60.3866C78.2021 60.4779 78.2209 60.568 78.2549 60.6527H79.7408C79.7655 60.6547 79.7904 60.6517 79.814 60.644C79.8375 60.6362 79.8593 60.6238 79.8781 60.6075C79.9092 60.5594 79.924 60.5024 79.9203 60.4451C79.9202 60.3612 79.9012 60.2784 79.8649 60.2029L79.564 60.2375Z" fill="#E2E2E2"/>
<path d="M85.1013 56.1381C84.8048 56.1228 84.5083 56.1697 84.2307 56.276C83.9531 56.3823 83.7004 56.5456 83.4887 56.7556C83.0954 57.1682 82.8975 57.799 82.8975 58.6534C82.8975 59.4518 83.0637 60.0001 83.3963 60.3009C83.8025 60.6262 84.3146 60.7866 84.8321 60.7507C85.1331 60.7683 85.4343 60.7227 85.7169 60.6168C85.9995 60.511 86.2572 60.3472 86.4738 60.1359C86.868 59.7224 87.065 59.0899 87.065 58.2381C87.065 57.4396 86.8988 56.8905 86.5662 56.5906C86.1503 56.262 85.6283 56.1008 85.1013 56.1381ZM85.7269 59.7659C85.6521 59.8851 85.5464 59.9813 85.4213 60.0442C85.2961 60.1071 85.1562 60.1342 85.0169 60.1226C84.8735 60.1281 84.731 60.0974 84.6024 60.0333C84.4738 59.9691 84.3631 59.8736 84.2805 59.7553C84.1063 59.5104 84.0166 59.0393 84.0166 58.3366C83.9864 57.921 84.0608 57.5044 84.233 57.1256C84.3077 57.0064 84.4134 56.9101 84.5386 56.8473C84.6638 56.7844 84.8036 56.7573 84.943 56.7689C85.0849 56.762 85.2263 56.7905 85.3547 56.8518C85.4831 56.913 85.5946 57.0053 85.6794 57.1203C85.8553 57.3545 85.9433 57.8327 85.9433 58.5549C85.9738 58.9702 85.9003 59.3867 85.7295 59.7659" fill="#E2E2E2"/>
<path d="M94.0012 60.1326C93.858 59.9775 93.7443 59.797 93.666 59.6003C93.559 59.368 93.428 59.1477 93.2754 58.9429C93.1564 58.7897 93 58.6705 92.8214 58.5969C93.5253 58.3733 93.8772 57.9723 93.8772 57.3938C93.8906 57.2164 93.8574 57.0387 93.781 56.8784C93.7045 56.7181 93.5875 56.581 93.4417 56.4809C93.1514 56.2928 92.6675 56.1978 91.99 56.1961H90.3008C90.251 56.1918 90.2012 56.206 90.161 56.236C90.144 56.2534 90.1311 56.2744 90.1229 56.2973C90.1147 56.3203 90.1115 56.3447 90.1134 56.3691C90.116 56.4604 90.1348 56.5506 90.1689 56.6352H90.6017C90.6123 56.9138 90.6176 57.3743 90.6176 58.0166C90.6176 59.2037 90.6176 59.9357 90.6017 60.2178H90.2982C90.2475 60.214 90.1972 60.2281 90.1557 60.2577C90.138 60.2742 90.1244 60.2945 90.1157 60.3171C90.107 60.3397 90.1035 60.364 90.1055 60.3881C90.1091 60.4796 90.1288 60.5697 90.1636 60.6543H91.9953C92.0192 60.6562 92.0432 60.6531 92.0659 60.6453C92.0886 60.6376 92.1095 60.6252 92.1273 60.609C92.1605 60.5619 92.1756 60.5042 92.1695 60.4467C92.1694 60.3628 92.1504 60.28 92.1141 60.2045H91.6416C91.6416 59.9685 91.6364 59.5249 91.6258 58.8737C91.7245 58.8511 91.8255 58.8404 91.9267 58.8417C92.0252 58.8388 92.1228 58.8618 92.2098 58.9085C92.2968 58.9552 92.3702 59.0239 92.4229 59.1079C92.5759 59.3659 92.689 59.6459 92.7581 59.9383C92.8637 60.3136 92.9798 60.5372 93.1091 60.609C93.3317 60.6995 93.572 60.7368 93.8112 60.7182C93.9994 60.7429 94.1904 60.7045 94.3549 60.609C94.4262 60.5345 94.4341 60.3988 94.3734 60.2045C94.238 60.2132 94.1035 60.1767 93.9907 60.1007L94.0012 60.1326ZM92.5337 58.1444C92.3403 58.2628 92.1156 58.3185 91.8897 58.3041H91.6258V58.006C91.6258 57.3645 91.6258 56.9733 91.6416 56.8349C91.7518 56.8113 91.8643 56.8006 91.9768 56.8029C92.1805 56.7945 92.3799 56.8628 92.5364 56.9946C92.6174 57.0787 92.679 57.1798 92.7168 57.2907C92.7547 57.4015 92.7679 57.5194 92.7555 57.636C92.7633 57.7327 92.7472 57.8298 92.7085 57.9185C92.6698 58.0073 92.6097 58.0849 92.5337 58.1444Z" fill="#E2E2E2"/>
<path d="M101.291 60.2392C101.115 59.808 100.841 59.0299 100.467 57.9049C100.094 56.78 99.8807 56.2051 99.8261 56.1802C99.6232 56.1445 99.4168 56.1329 99.2111 56.1456C99.0947 56.1323 98.9771 56.1543 98.8732 56.2089C98.7692 56.2634 98.6838 56.3479 98.6278 56.4517C98.5258 56.6575 98.319 57.2342 98.0076 58.1818C97.6961 59.1293 97.4639 59.8151 97.3108 60.2392H97.1287C97.078 60.2354 97.0276 60.2496 96.9861 60.2791C96.9692 60.296 96.9561 60.3164 96.9479 60.3389C96.9396 60.3615 96.9365 60.3856 96.9386 60.4095C96.9413 60.5009 96.9601 60.591 96.9941 60.6757H98.414C98.4386 60.6778 98.4632 60.6745 98.4864 60.6663C98.5096 60.658 98.5308 60.6449 98.5487 60.6278C98.5811 60.5813 98.596 60.5247 98.5909 60.4681C98.5908 60.3842 98.5718 60.3014 98.5355 60.2259H98.2267C98.2557 60.0582 98.3322 59.7415 98.4536 59.2837H99.834C99.9686 59.7521 100.053 60.0689 100.098 60.2259H99.9554C99.904 60.2226 99.8529 60.2366 99.8103 60.2658C99.7933 60.2827 99.7802 60.3031 99.772 60.3256C99.7638 60.3482 99.7606 60.3723 99.7628 60.3962C99.7654 60.4876 99.7842 60.5777 99.8182 60.6624H101.481C101.506 60.6647 101.531 60.6616 101.555 60.6533C101.578 60.645 101.6 60.6318 101.618 60.6145C101.652 60.5685 101.667 60.5115 101.66 60.4548C101.66 60.3709 101.641 60.2881 101.605 60.2126L101.291 60.2392ZM98.6014 58.7487C98.9076 57.645 99.0836 57.0931 99.1293 57.0931C99.1751 57.0931 99.3616 57.645 99.6889 58.7487H98.6014Z" fill="#E2E2E2"/>
<path d="M140 25.7988H115.493C114.026 20.6154 111.732 15.7072 108.702 11.2663L108.46 10.9123H86.0672C85.922 10.6701 85.761 10.4253 85.5789 10.1777L85.5155 10.1138C85.2372 9.74454 84.931 9.39749 84.5997 9.07581C84.2777 8.06439 83.5281 7.08758 82.3694 6.17464L82.3061 6.12673L82.2849 6.1081C81.8581 5.78074 81.4022 5.49384 80.923 5.25105C80.4242 3.89894 79.1784 2.85558 77.2279 2.11299C77.207 2.10224 77.1848 2.0942 77.1619 2.08903H77.1303C76.3256 1.78927 75.4798 1.61688 74.6229 1.578C73.6727 0.558597 72.163 0.0342564 70.1359 0.015625H70.0462C68.0139 0.0342564 66.5042 0.547951 65.5593 1.58066C64.6845 1.62306 63.8216 1.80266 63.0017 2.11299H62.9621C61.0011 2.8476 59.7579 3.90427 59.267 5.25637C58.7713 5.5108 58.2996 5.81013 57.8576 6.15068L57.8338 6.16665C56.6672 7.08491 55.9124 8.06439 55.5904 9.09444C55.2494 9.42412 54.9343 9.78008 54.6481 10.1591L54.6217 10.1964C54.4396 10.4412 54.2812 10.6834 54.1334 10.9256H31.7252L31.485 11.277C28.4531 15.7171 26.1585 20.6255 24.6913 25.8095H0L5.98345 40.3047L0 53.7433H24.6913C26.1585 58.9264 28.4531 63.834 31.485 68.2731L31.7252 68.6271H108.46L108.702 68.2731C111.732 63.8332 114.026 58.9259 115.493 53.7433H140L134.017 39.2454L140 25.7988ZM84.5733 10.8937V10.9097C85.5472 12.2405 85.9062 13.4089 85.629 14.3831C85.3281 15.4824 84.2671 16.1291 83.4331 16.4778C81.3453 17.3482 77.0036 19.0596 73.6674 20.3664C73.6997 20.1827 73.7174 19.9967 73.7202 19.8102C76.6261 17.6409 80.5007 14.6972 82.3483 13.2492C83.4568 12.3709 84.0586 11.3622 84.1035 10.3215C84.2618 10.4971 84.4175 10.6861 84.5759 10.8937H84.5733ZM70.0937 23.422C70.8363 23.4202 71.5607 23.19 72.1701 22.7619C72.7795 22.3338 73.2448 21.7284 73.5038 21.0265L76.7291 19.7596C79.6086 20.3185 81.3532 21.2049 81.3532 22.0353C81.3532 23.3847 76.7291 24.8886 70.0937 24.8886C63.4583 24.8886 58.8342 23.3847 58.8342 22.0353C58.8342 21.2049 60.5788 20.3185 63.4557 19.7596L66.6836 21.0265C66.9426 21.7284 67.4079 22.3338 68.0173 22.7619C68.6266 23.19 69.3511 23.4202 70.0937 23.422ZM80.4638 6.41152C80.8553 6.61904 81.2287 6.85944 81.5802 7.13016C82.8762 8.14424 83.5334 9.17429 83.536 10.1857C83.536 11.3249 82.6914 12.2352 81.9788 12.7968C80.2368 14.2154 76.5417 17.0155 73.6912 19.1634C73.6329 18.7929 73.518 18.4338 73.3507 18.0987C75.5097 15.0538 78.1754 11.277 79.4951 9.32867C80.184 8.31192 80.5086 7.31647 80.4638 6.40087V6.41152ZM74.6572 2.80501C75.379 2.84673 76.0906 2.99654 76.7687 3.2495L76.832 3.27346C78.4895 3.89628 79.4978 4.74268 79.8277 5.78604C80.1998 6.97046 79.6192 8.1815 79.0649 9.00927C77.7743 10.915 75.1956 14.5721 73.063 17.5797C72.7702 17.1747 72.3995 16.8334 71.9729 16.5763C73.0023 12.8793 74.2375 8.40242 74.8234 6.11608C75.156 4.81454 75.0874 3.68601 74.6677 2.80501H74.6572ZM66.3062 2.60805C66.9845 1.71374 68.2514 1.25328 70.1148 1.23731H70.1491C71.9703 1.25328 73.2372 1.71374 73.9181 2.60805C74.6862 3.61681 74.5463 5.00352 74.2956 5.97768C73.7176 8.24006 72.5008 12.6504 71.4767 16.3261C70.6024 15.964 69.6219 15.964 68.7476 16.3261C67.7288 12.6717 66.5042 8.23474 65.9261 5.97768C65.6622 4.9982 65.5382 3.61681 66.3062 2.60805ZM60.3782 5.80201C60.7081 4.75865 61.7137 3.91491 63.366 3.29209L63.4478 3.26015H63.461C64.1266 3.00975 64.8261 2.86258 65.5355 2.82364C65.1079 3.70464 65.0472 4.83317 65.3798 6.13471C65.9657 8.41573 67.2089 12.9219 68.2329 16.5949C67.806 16.8515 67.4351 17.1929 67.1429 17.5984C64.9892 14.5614 62.4184 10.915 61.141 9.0279C60.5867 8.21078 60.0034 6.98909 60.3782 5.80467V5.80201ZM58.594 7.14879L58.6204 7.13016L58.6468 7.10887C58.9882 6.8475 59.3511 6.61599 59.7315 6.41684C59.684 7.32712 60.0087 8.31991 60.6976 9.34464C62.0172 11.2743 64.6566 15.0405 66.842 18.128C66.6755 18.4632 66.5616 18.8223 66.5042 19.1927C63.6484 17.0341 59.9638 14.2314 58.1981 12.834C57.4854 12.2724 56.6382 11.3622 56.6408 10.223C56.6408 9.21155 57.3007 8.18151 58.594 7.16742V7.14879ZM55.6141 10.9469L55.6801 10.8591C55.8226 10.6755 55.9625 10.5051 56.1051 10.3454C56.1473 11.3808 56.7491 12.3869 57.8602 13.2732C59.6893 14.7185 63.5665 17.6649 66.4566 19.8501C66.4616 20.0366 66.4802 20.2226 66.5121 20.4064C63.1865 19.1048 58.8579 17.3987 56.7464 16.5177C55.9097 16.1691 54.8513 15.5223 54.5478 14.423C54.2839 13.4489 54.6376 12.2937 55.6036 10.9629L55.6141 10.9469ZM107.56 67.1233H32.6252C27.2633 59.0354 24.4012 49.5252 24.4012 39.7963C24.4012 30.0675 27.2633 20.5573 32.6252 12.4694H53.4182C53.1737 13.2099 53.148 14.0061 53.3443 14.7611C53.69 16.0173 54.7009 17.0261 56.266 17.6888C57.1687 18.0668 58.5465 18.6231 60.3676 19.347C58.5201 20.0417 57.591 20.96 57.591 22.0885C57.591 25.2851 65.4563 26.1582 70.0937 26.1582C74.7311 26.1582 82.5964 25.2851 82.5964 22.0513C82.5964 20.9227 81.6647 20.0045 79.8198 19.3098C81.6489 18.5805 83.0266 18.0242 83.9213 17.6516C85.4865 16.9995 86.4947 15.9907 86.8405 14.7238C87.0362 13.9689 87.0115 13.1731 86.7692 12.4321H107.562C112.924 20.52 115.786 30.0302 115.786 39.7591C115.786 49.488 112.924 58.9982 107.562 67.086" fill="#E2E2E2"/>
</g>
<defs>
<clipPath id="clip0_806_8209">
<rect width="140" height="68.6274" fill="white"/>
</clipPath>
</defs>
</svg>
