<svg width="260" height="186" viewBox="0 0 260 186" fill="none" xmlns="http://www.w3.org/2000/svg">
<path d="M2.51562 107.787C2.51562 136.166 11.2164 162.438 26.0185 183.921H233.494C248.289 162.438 256.997 136.166 256.997 107.787C256.997 79.4075 248.296 53.135 233.494 31.6523H26.0185C11.2236 53.135 2.51562 79.4075 2.51562 107.787V107.787Z" fill="#051C2C"/>
<path d="M42.8712 85.9815H37.7591C37.3258 84.8561 37.1092 83.7813 37.1092 82.7569C37.1092 82.0428 37.2969 81.5234 37.6652 81.206C38.0334 80.8886 38.5894 80.7227 39.3331 80.7227H57.8539C67.7894 80.7227 74.4756 81.9201 77.9054 84.3079C81.3351 86.7029 83.0536 90.6344 83.0536 96.1096C83.0536 101.585 80.9813 106.158 76.8295 109.369C72.6777 112.579 66.0059 114.187 56.8141 114.187H54.9729C55.0018 120.817 55.0595 125.369 55.1678 127.85H61.4714C61.9046 128.774 62.1212 129.719 62.1212 130.692C62.1212 131.587 61.9552 132.215 61.623 132.575C61.2909 132.936 60.7493 133.116 60.0056 133.116H37.723C37.2608 131.991 37.0298 130.902 37.0298 129.856C37.0298 129.163 37.2247 128.658 37.6074 128.341C37.9901 128.023 38.5533 127.865 39.297 127.865H42.8712C43.0012 124.59 43.0662 116.02 43.0662 102.148C43.0662 94.6525 43.0012 89.2638 42.8712 85.9887V85.9815ZM58.3521 107.94C62.2945 107.94 65.1972 107.24 67.0529 105.827C68.9085 104.42 69.84 101.974 69.84 98.4974C69.84 95.1935 68.9663 92.6398 67.2117 90.8219C65.4571 89.0041 62.735 88.0951 59.0453 88.0951C57.5073 88.0951 56.2148 88.225 55.1678 88.4775C55.0379 90.0933 54.9729 94.6597 54.9729 102.176V107.933H58.3521V107.94Z" fill="white"/>
<path d="M103.379 94.0469C108.708 94.0469 112.571 95.2588 114.983 97.6754C117.387 100.092 118.593 103.915 118.593 109.131C118.593 111.713 118.08 113.56 117.055 114.657C116.03 115.76 113.791 116.309 110.333 116.309H96.0433C96.1227 119.663 96.8737 122.289 98.3106 124.193C99.7475 126.098 102.267 127.05 105.878 127.05C109.488 127.05 113.048 126.026 116.788 123.984C118.117 125.29 118.788 126.696 118.788 128.204C118.788 130.253 117.286 131.681 114.275 132.482C111.264 133.29 107.741 133.694 103.69 133.694C96.7221 133.694 91.6677 132.287 88.5123 129.474C85.3641 126.66 83.79 122.015 83.79 115.544C83.79 109.073 85.5663 103.547 89.1116 99.753C92.6569 95.9513 97.4152 94.0541 103.387 94.0541L103.379 94.0469ZM101.841 100.691C99.9496 100.691 98.4983 101.463 97.5019 102.992C96.5054 104.528 95.9928 107.198 95.9639 111.014H98.0001C100.845 111.014 103.011 110.934 104.513 110.761C106.008 110.595 106.889 110.314 107.141 109.917C107.394 109.52 107.524 108.864 107.524 107.941C107.524 105.639 107.026 103.85 106.029 102.588C105.033 101.318 103.632 100.691 101.841 100.691V100.691Z" fill="white"/>
<path d="M124.428 97.0397C124.428 96.1163 124.767 95.5176 125.446 95.2362C126.124 94.9549 130.356 94.6952 138.139 94.4644C138.269 95.5392 138.269 97.0253 138.139 98.9153C141.367 97.0253 144.284 95.7412 146.898 95.0775C149.512 94.4139 151.815 94.082 153.815 94.082C154.74 94.082 155.353 94.1902 155.657 94.4066C155.967 94.6231 156.119 95.128 156.119 95.9215C156.119 97.3282 155.909 98.7926 155.483 100.315C155.057 101.837 154.537 102.818 153.909 103.251C153.281 103.684 152.292 104.008 150.934 104.21C149.577 104.412 148.79 104.463 148.573 104.362C148.357 104.261 147.635 103.402 146.4 101.794C144.508 101.794 143.049 102.479 142.039 103.849C141.028 105.22 140.522 108.74 140.522 114.425C140.522 119.619 140.587 124.099 140.717 127.857H146.746C147.208 128.701 147.44 129.646 147.44 130.699C147.44 131.594 147.252 132.221 146.884 132.582C146.508 132.943 145.786 133.123 144.71 133.123H125.114C124.651 132.048 124.42 131.038 124.42 130.093C124.42 129.3 124.601 128.73 124.955 128.384C125.309 128.037 125.893 127.864 126.688 127.864H129.489C129.619 124.106 129.684 119.741 129.684 114.778C129.684 107.615 129.345 103.381 128.666 102.075C127.987 100.769 126.803 100.12 125.114 100.12C124.651 99.0956 124.42 98.0713 124.42 97.0469L124.428 97.0397Z" fill="white"/>
<path d="M164.92 114.621C164.92 103.007 164.87 95.7139 164.769 92.7418C164.668 89.777 164.473 87.7499 164.191 86.6606C163.91 85.5713 163.419 84.8716 162.711 84.547C162.003 84.2296 161.094 84.0709 159.967 84.0709C159.505 83.0249 159.274 81.9717 159.274 80.9257C159.274 79.8797 159.678 79.1655 160.487 78.8697C161.296 78.574 163.873 78.4297 168.227 78.4297C170.942 78.4297 172.798 78.5379 173.802 78.7543C174.798 78.9707 175.369 79.3747 175.513 79.9662C175.657 80.5577 175.722 81.3873 175.722 82.4622V111.981C175.722 119.303 175.787 124.598 175.917 127.873H180.834C181.268 128.717 181.484 129.662 181.484 130.715C181.484 131.61 181.297 132.237 180.928 132.598C180.553 132.959 179.831 133.139 178.755 133.139H159.967C159.505 132.064 159.274 131.054 159.274 130.109C159.274 129.316 159.454 128.746 159.815 128.4C160.176 128.053 160.747 127.88 161.541 127.88H164.689C164.841 124.605 164.92 120.19 164.92 114.636V114.621Z" fill="white"/>
<path d="M209.681 130.16C207.76 131.134 205.572 132 203.11 132.75C200.648 133.5 198.33 133.882 196.157 133.882C192.445 133.882 189.723 133.024 187.99 131.314C186.264 129.597 185.398 127.195 185.398 124.101C185.398 119.78 186.885 116.562 189.853 114.463C192.821 112.364 197.514 111.318 203.911 111.318H208.099C207.868 107.379 207.218 104.688 206.143 103.238C205.067 101.788 203.449 101.067 201.305 101.067C200.128 101.067 198.843 101.218 197.463 101.529C196.568 103.217 196.034 104.111 195.868 104.219C195.702 104.328 194.821 104.551 193.218 104.912C191.615 105.273 190.481 105.157 189.817 104.566C189.153 103.981 188.481 102.943 187.802 101.457C187.124 99.9705 186.784 98.7153 186.784 97.6981C186.784 97.0561 187.044 96.5583 187.571 96.2049C188.098 95.8514 190.034 95.4619 193.391 95.0507C196.749 94.6395 200.323 94.4375 204.106 94.4375C208.612 94.4375 212.15 95.2094 214.713 96.7603C217.277 98.3041 218.555 101.305 218.555 105.763V115.935C218.555 121.59 218.8 125.067 219.284 126.358C219.768 127.65 220.641 128.155 221.898 127.873C222.281 128.588 222.475 129.294 222.475 129.987C222.475 131.141 221.79 132.014 220.418 132.62C219.046 133.219 217.197 133.522 214.865 133.522C213.84 133.522 213.031 133.392 212.446 133.139C211.861 132.887 210.937 131.899 209.681 130.182V130.16ZM208.107 117.421C206.265 117.038 204.395 116.843 202.496 116.843C200.344 116.843 198.807 117.204 197.882 117.918C196.958 118.633 196.503 119.989 196.503 121.987C196.503 123.725 196.958 125.038 197.868 125.918C198.778 126.799 200.099 127.246 201.846 127.246C203.233 127.246 204.453 126.95 205.514 126.366C206.576 125.774 207.276 124.937 207.608 123.848C207.941 122.759 208.107 121.345 208.107 119.606V117.421V117.421Z" fill="white"/>
<path d="M43.9399 152.332H48.2361C50.0341 152.332 51.3699 152.563 52.2508 153.032C53.1317 153.501 53.5649 154.215 53.5649 155.167C53.5649 156.487 52.7418 157.483 51.0883 158.168C53.1461 158.55 54.1787 159.488 54.1787 160.981C54.1787 161.998 53.7093 162.835 52.7779 163.492C51.8464 164.148 50.2074 164.48 47.8679 164.48H43.5861C43.4778 164.228 43.4272 163.975 43.4272 163.73C43.4272 163.571 43.4706 163.456 43.5644 163.376C43.6511 163.304 43.7811 163.268 43.9544 163.268H44.6042C44.6403 162.503 44.6547 160.815 44.6547 158.211C44.6547 155.86 44.6403 154.309 44.6042 153.551H43.5861C43.4778 153.291 43.4272 153.039 43.4272 152.801C43.4272 152.635 43.4706 152.512 43.5644 152.44C43.6583 152.368 43.7811 152.332 43.9544 152.332H43.9399ZM47.3986 157.396C47.6946 157.454 48.0556 157.483 48.4816 157.483C49.1965 157.483 49.7091 157.353 50.0196 157.086C50.3301 156.819 50.4889 156.408 50.4889 155.838C50.4889 155.218 50.3229 154.77 49.9907 154.475C49.6586 154.179 49.1532 154.042 48.4889 154.042C48.1351 154.042 47.7812 154.071 47.413 154.128C47.413 154.691 47.4058 155.78 47.4058 157.396H47.3986ZM47.3986 159.026V161.111C47.3986 161.797 47.478 162.244 47.6368 162.453C47.7957 162.662 48.2361 162.77 48.9582 162.77C49.6802 162.77 50.2507 162.633 50.59 162.359C50.9294 162.085 51.1027 161.631 51.1027 161.003C51.1027 160.325 50.8933 159.813 50.4817 159.466C50.0702 159.12 49.4348 158.94 48.5683 158.94C48.1856 158.94 47.7957 158.969 47.3913 159.026H47.3986Z" fill="white"/>
<path d="M62.7205 152.332H67.5944C67.6954 152.548 67.746 152.772 67.746 152.988C67.746 153.205 67.7099 153.349 67.6305 153.429C67.551 153.508 67.4283 153.551 67.255 153.551H66.3885C66.3596 154.309 66.3452 155.564 66.3524 157.31C66.3524 160.52 66.3669 162.503 66.3957 163.261H67.5871C67.6882 163.477 67.7388 163.694 67.7388 163.917C67.7388 164.127 67.7027 164.271 67.6232 164.35C67.5438 164.43 67.4211 164.473 67.2478 164.473H62.3522C62.2439 164.213 62.1934 163.961 62.1934 163.715C62.1934 163.557 62.2367 163.441 62.3306 163.362C62.4244 163.283 62.5472 163.254 62.7205 163.254H63.5508C63.5797 162.496 63.5942 160.505 63.5942 157.295C63.5942 155.557 63.5725 154.309 63.5436 153.551H62.3594C62.2511 153.291 62.2006 153.039 62.2006 152.801C62.2006 152.635 62.2439 152.512 62.3378 152.44C62.4316 152.368 62.5544 152.332 62.7277 152.332H62.7205Z" fill="white"/>
<path d="M80.8584 152.152C82.382 152.152 83.3928 152.239 83.8911 152.419C84.3893 152.6 84.6348 152.946 84.6348 153.458C84.6348 153.97 84.4543 154.396 84.0932 154.785C82.7213 154.165 81.5299 153.862 80.5191 153.862C79.8475 153.862 79.3854 153.977 79.1183 154.208C78.8511 154.439 78.7284 154.778 78.7284 155.211C78.7284 155.73 78.8944 156.12 79.2194 156.38C79.5443 156.639 80.2086 156.906 81.1978 157.195C82.447 157.519 83.4073 157.931 84.0788 158.428C84.7503 158.926 85.1041 159.741 85.133 160.867C85.133 162.151 84.6709 163.096 83.7466 163.716C82.8224 164.336 81.4794 164.647 79.7104 164.647C78.4251 164.647 77.4792 164.553 76.8727 164.365C76.2662 164.178 75.9629 163.795 75.9629 163.233C75.9629 162.735 76.1723 162.295 76.5838 161.905C77.9413 162.591 79.2194 162.937 80.4035 162.937C81.1833 162.937 81.7249 162.836 82.0354 162.634C82.3459 162.425 82.4975 162.086 82.4975 161.617C82.4975 161.061 82.2592 160.629 81.7754 160.318C81.2917 160.008 80.5046 159.698 79.3999 159.381C78.2229 159.063 77.3781 158.63 76.8655 158.075C76.3528 157.519 76.0929 156.805 76.0929 155.932C76.0929 154.742 76.5189 153.812 77.3637 153.148C78.2085 152.484 79.3782 152.152 80.8584 152.152V152.152Z" fill="white"/>
<path d="M93.9568 152.332H102.065C102.448 152.332 102.715 152.39 102.881 152.505C103.047 152.621 103.127 152.859 103.127 153.219C103.127 153.659 102.982 154.107 102.694 154.576C101.445 154.071 99.8488 153.818 97.8992 153.818H97.4732C97.4371 154.402 97.4227 155.585 97.4227 157.367H101.914C102.015 157.685 102.065 158.009 102.065 158.348C102.065 158.55 102.029 158.687 101.957 158.752C101.885 158.824 101.748 158.853 101.546 158.853H97.4227C97.4227 161.14 97.4443 162.518 97.4732 162.994H98.2097C100.21 162.994 101.798 162.763 102.968 162.294C103.228 162.684 103.358 163.109 103.358 163.564C103.358 163.889 103.235 164.127 102.99 164.264C102.744 164.401 102.253 164.48 101.509 164.48H93.5885C93.4802 164.228 93.4297 163.975 93.4297 163.73C93.4297 163.571 93.473 163.456 93.5669 163.376C93.6535 163.304 93.7835 163.268 93.9568 163.268H94.6066C94.6427 162.503 94.6572 160.512 94.6572 157.295C94.6572 155.557 94.6427 154.309 94.6066 153.551H93.5885C93.4802 153.291 93.4297 153.039 93.4297 152.801C93.4297 152.635 93.473 152.512 93.5669 152.44C93.6607 152.368 93.7835 152.332 93.9568 152.332Z" fill="white"/>
<path d="M115.481 163.261H116.774C116.875 163.477 116.925 163.694 116.925 163.917C116.925 164.127 116.889 164.271 116.81 164.35C116.73 164.43 116.608 164.473 116.442 164.473H111.438C111.329 164.213 111.279 163.961 111.279 163.715C111.279 163.557 111.322 163.441 111.416 163.362C111.51 163.283 111.633 163.254 111.806 163.254H112.636C112.665 162.496 112.68 160.505 112.68 157.295C112.68 155.557 112.665 154.309 112.636 153.551H111.452C111.351 153.291 111.3 153.039 111.3 152.801C111.3 152.635 111.344 152.512 111.43 152.44C111.517 152.368 111.647 152.332 111.82 152.332H116.442C118.297 152.332 119.619 152.592 120.413 153.104C121.207 153.623 121.604 154.446 121.604 155.578C121.604 157.144 120.637 158.233 118.694 158.832C119.178 159.034 119.597 159.344 119.929 159.769C120.261 160.195 120.622 160.787 120.998 161.551C121.373 162.316 121.676 162.785 121.922 162.972C122.16 163.16 122.514 163.254 122.969 163.254C123.128 163.78 123.113 164.148 122.918 164.35C122.723 164.552 122.225 164.653 121.431 164.653C120.507 164.653 119.864 164.552 119.51 164.357C119.156 164.163 118.839 163.557 118.55 162.54C118.268 161.53 117.958 160.779 117.626 160.289C117.294 159.798 116.846 159.553 116.268 159.553C115.958 159.553 115.683 159.582 115.452 159.64C115.452 161.407 115.474 162.612 115.496 163.254L115.481 163.261ZM115.438 158.11H116.16C116.925 158.11 117.51 157.966 117.922 157.677C118.333 157.389 118.528 156.934 118.528 156.3C118.528 155.484 118.326 154.907 117.929 154.561C117.525 154.215 117.019 154.042 116.398 154.042C116.023 154.042 115.719 154.071 115.481 154.128C115.452 154.503 115.438 155.564 115.438 157.302V158.103V158.11Z" fill="white"/>
<path d="M142.262 152.334H147.114C147.389 153.481 147.685 154.621 147.995 155.761C148.313 156.9 148.616 158.076 148.912 159.288C149.208 160.5 149.382 161.106 149.425 161.106C149.468 161.106 149.779 159.952 150.349 157.651C150.92 155.349 151.331 153.575 151.577 152.334H156.241C156.342 152.551 156.393 152.774 156.393 152.991C156.393 153.207 156.357 153.351 156.277 153.431C156.198 153.51 156.075 153.553 155.909 153.553H155.23C155.23 154.556 155.288 156.237 155.396 158.588C155.505 160.94 155.591 162.498 155.649 163.263H156.494C156.595 163.479 156.645 163.696 156.645 163.919C156.645 164.129 156.609 164.273 156.53 164.352C156.451 164.432 156.328 164.475 156.155 164.475H152.089C151.988 164.215 151.938 163.963 151.938 163.717C151.938 163.559 151.981 163.443 152.068 163.364C152.154 163.285 152.284 163.256 152.458 163.256H152.79C152.826 162.109 152.768 159.324 152.624 154.902C152.169 156.857 151.721 158.552 151.295 159.995C150.862 161.438 150.537 162.354 150.306 162.744C150.075 163.133 149.656 163.328 149.042 163.328C148.125 163.328 147.62 163.292 147.519 163.227C147.418 163.162 147.136 162.433 146.674 161.034C146.212 159.634 145.62 157.564 144.905 154.816C144.883 159.295 144.883 162.109 144.912 163.249H145.598C145.699 163.465 145.75 163.681 145.75 163.905C145.75 164.114 145.714 164.259 145.634 164.338C145.555 164.417 145.432 164.46 145.259 164.46H141.533C141.425 164.201 141.374 163.948 141.374 163.703C141.374 163.544 141.417 163.429 141.511 163.35C141.605 163.27 141.728 163.241 141.901 163.241H142.479C142.537 162.484 142.623 160.926 142.731 158.567C142.84 156.208 142.89 154.534 142.89 153.532H141.887C141.786 153.272 141.735 153.019 141.735 152.781C141.735 152.615 141.778 152.493 141.872 152.421C141.966 152.349 142.089 152.312 142.262 152.312V152.334Z" fill="white"/>
<path d="M164.783 158.969C164.783 156.654 165.325 154.944 166.401 153.826C167.476 152.708 168.949 152.152 170.812 152.152C172.567 152.152 173.903 152.564 174.812 153.379C175.722 154.194 176.177 155.68 176.177 157.844C176.177 160.16 175.636 161.869 174.56 162.987C173.484 164.106 171.982 164.661 170.069 164.661C168.357 164.661 167.05 164.257 166.141 163.435C165.231 162.62 164.776 161.134 164.776 158.969H164.783ZM167.845 158.104C167.845 160.008 168.083 161.292 168.567 161.949C169.05 162.612 169.722 162.944 170.581 162.944C171.44 162.944 172.134 162.62 172.524 161.978C172.913 161.335 173.108 160.239 173.108 158.695C173.108 156.74 172.87 155.442 172.394 154.807C171.917 154.172 171.245 153.855 170.379 153.855C169.513 153.855 168.827 154.179 168.437 154.821C168.047 155.463 167.852 156.56 167.852 158.104H167.845Z" fill="white"/>
<path d="M188.734 163.261H190.026C190.127 163.477 190.178 163.694 190.178 163.917C190.178 164.127 190.142 164.271 190.062 164.35C189.983 164.43 189.86 164.473 189.694 164.473H184.69C184.582 164.213 184.531 163.961 184.531 163.715C184.531 163.557 184.575 163.441 184.668 163.362C184.762 163.283 184.885 163.254 185.058 163.254H185.889C185.918 162.496 185.932 160.505 185.932 157.295C185.932 155.557 185.918 154.309 185.889 153.551H184.705C184.603 153.291 184.553 153.039 184.553 152.801C184.553 152.635 184.596 152.512 184.683 152.44C184.77 152.368 184.899 152.332 185.073 152.332H189.694C191.55 152.332 192.871 152.592 193.665 153.104C194.46 153.616 194.857 154.446 194.857 155.578C194.857 157.144 193.889 158.233 191.947 158.832C192.431 159.034 192.849 159.344 193.181 159.769C193.514 160.195 193.875 160.787 194.25 161.551C194.626 162.316 194.929 162.785 195.174 162.972C195.413 163.16 195.766 163.254 196.221 163.254C196.38 163.78 196.366 164.148 196.171 164.35C195.976 164.552 195.478 164.653 194.683 164.653C193.759 164.653 193.116 164.552 192.763 164.357C192.409 164.163 192.091 163.557 191.802 162.54C191.521 161.53 191.21 160.779 190.878 160.289C190.546 159.798 190.098 159.553 189.521 159.553C189.21 159.553 188.936 159.582 188.705 159.64C188.705 161.407 188.726 162.612 188.748 163.254L188.734 163.261ZM188.69 158.11H189.412C190.178 158.11 190.763 157.966 191.174 157.677C191.586 157.389 191.781 156.934 191.781 156.3C191.781 155.484 191.579 154.907 191.181 154.561C190.777 154.215 190.272 154.042 189.651 154.042C189.275 154.042 188.972 154.071 188.734 154.128C188.705 154.503 188.69 155.564 188.69 157.302V158.103V158.11Z" fill="white"/>
<path d="M209.413 152.167C210.403 152.167 210.966 152.203 211.096 152.268C211.226 152.333 211.811 153.891 212.85 156.943C213.89 159.994 214.641 162.101 215.103 163.269H215.941C216.042 163.486 216.092 163.702 216.092 163.926C216.092 164.135 216.056 164.279 215.977 164.359C215.897 164.438 215.775 164.481 215.601 164.481H211.052C210.951 164.222 210.901 163.969 210.901 163.724C210.901 163.565 210.944 163.45 211.038 163.37C211.132 163.291 211.255 163.262 211.428 163.262H211.818C211.731 162.837 211.5 161.985 211.132 160.708H207.356C207.023 161.956 206.814 162.808 206.735 163.262H207.579C207.68 163.479 207.731 163.695 207.731 163.919C207.731 164.128 207.695 164.272 207.615 164.351C207.536 164.431 207.413 164.474 207.247 164.474H203.363C203.261 164.214 203.211 163.962 203.211 163.717C203.211 163.558 203.254 163.443 203.341 163.363C203.428 163.284 203.558 163.255 203.731 163.255H204.215C204.633 162.108 205.276 160.254 206.128 157.679C206.98 155.111 207.543 153.545 207.825 152.99C208.106 152.434 208.634 152.16 209.421 152.16L209.413 152.167ZM207.745 159.222H210.691C209.782 156.236 209.276 154.735 209.161 154.735C209.045 154.735 208.576 156.229 207.738 159.222H207.745Z" fill="white"/>
<path d="M169.982 29.1735C169.982 29.1735 169.946 29.123 169.924 29.0941C169.903 29.0653 169.888 29.0436 169.867 29.0148C168.95 27.8173 168.033 26.829 167.13 26.0283C166.596 23.7199 164.899 21.2816 161.693 18.7857C161.693 18.7857 161.642 18.7496 161.614 18.7279C161.585 18.7063 161.563 18.6919 161.541 18.6702C159.996 17.516 158.559 16.6792 157.216 16.131C156.516 13.0218 153.83 10.2229 148.349 8.18862C148.349 8.18862 148.284 8.16698 148.256 8.15255C148.219 8.13812 148.191 8.13091 148.162 8.11648C145.338 7.12819 142.948 6.76029 140.948 6.89735C139.129 4.32925 135.62 2.69893 129.872 2.64844C129.872 2.64844 129.8 2.64844 129.764 2.64844C129.728 2.64844 129.691 2.64844 129.655 2.64844C123.908 2.69893 120.399 4.32925 118.579 6.89735C116.579 6.76029 114.189 7.12819 111.366 8.11648C111.366 8.11648 111.301 8.13812 111.272 8.15255C111.236 8.16698 111.207 8.17419 111.178 8.18862C105.698 10.2157 103.012 13.0218 102.311 16.131C100.968 16.6792 99.5312 17.5088 97.986 18.6702C97.986 18.6702 97.9355 18.7063 97.9138 18.7279C97.8849 18.7496 97.8633 18.764 97.8344 18.7857C94.6212 21.2816 92.9316 23.7199 92.3973 26.0283C91.4947 26.829 90.5777 27.8173 89.6607 29.0148C89.6607 29.0148 89.6246 29.0653 89.6029 29.0869C89.5813 29.1158 89.5668 29.1374 89.5452 29.1591C83.4438 37.3972 86.5342 42.7282 92.9605 45.3828C97.1195 47.0997 104.477 49.9997 111.676 52.813C103.546 54.3496 98.2315 56.8816 98.2315 59.7599C98.2315 64.4416 112.355 68.2433 129.778 68.2433C147.201 68.2433 161.325 64.4489 161.325 59.7599C161.325 56.8888 156.003 54.3496 147.88 52.813C155.072 50.0069 162.429 47.0997 166.596 45.3828C173.022 42.7282 176.105 37.4044 170.011 29.1663L169.982 29.1735Z" fill="#051C2C"/>
<path d="M129.757 62.4154C134.67 62.4154 138.652 58.4364 138.652 53.528C138.652 48.6196 134.67 44.6406 129.757 44.6406C124.844 44.6406 120.861 48.6196 120.861 53.528C120.861 58.4364 124.844 62.4154 129.757 62.4154Z" fill="white"/>
<path d="M172.119 27.5927L172.105 27.5783L171.975 27.4051C171.188 26.3736 170.343 25.4286 169.469 24.5918C168.588 21.8433 166.538 19.2031 163.361 16.7287C163.31 16.6855 163.252 16.6422 163.195 16.5989C163.173 16.5845 163.151 16.57 163.137 16.5484C161.888 15.6106 160.639 14.8243 159.411 14.2184C158.046 10.5538 154.638 7.68989 149.295 5.71331C149.237 5.69167 149.172 5.67003 149.115 5.64839C149.086 5.63396 149.057 5.62675 149.028 5.61232C146.559 4.74666 144.262 4.27777 142.168 4.22727C139.569 1.47161 135.439 0.0504964 129.872 0C129.814 0 129.756 0 129.699 0C129.677 0 129.648 0 129.626 0C124.067 0.0432827 119.936 1.47161 117.33 4.2417C115.221 4.29941 112.875 4.77552 110.326 5.67724L110.217 5.72052C104.853 7.71153 101.452 10.5754 100.087 14.24C98.8379 14.8604 97.5526 15.6683 96.2313 16.6638L96.1663 16.7143C92.9676 19.2031 90.9097 21.8577 90.0288 24.6134C89.1407 25.4646 88.2742 26.4313 87.4511 27.5133L87.3789 27.6143C84.0646 32.1013 82.9021 36.2492 83.9347 39.9427C84.8806 43.3476 87.6388 46.0816 91.9278 47.849C94.4045 48.8733 98.1664 50.381 103.149 52.3432C98.1014 54.2332 95.5525 56.7219 95.5525 59.7733C95.5525 68.5669 117.055 70.9114 129.756 70.9114C142.457 70.9114 163.96 68.5669 163.96 59.7733C163.96 56.7219 161.411 54.2332 156.364 52.3432C161.375 50.3666 165.137 48.8661 167.585 47.849C171.867 46.0816 174.625 43.3476 175.571 39.9427C176.603 36.242 175.441 32.0869 172.112 27.5927H172.119ZM172.3 39.0265C171.469 42.0058 168.574 43.7588 166.285 44.6966C160.321 47.1637 147.627 52.1123 138.37 55.7048C138.204 56.3612 137.966 56.9888 137.67 57.5731C140.76 56.3757 144.313 54.9978 147.916 53.5911C155.794 55.1133 160.559 57.5154 160.559 59.7589C160.559 63.4163 147.909 67.4993 129.756 67.4993C111.604 67.4993 98.9534 63.4235 98.9534 59.7589C98.9534 57.5154 103.726 55.1133 111.597 53.5911C115.207 54.9978 118.759 56.3829 121.843 57.5804C121.539 56.9888 121.301 56.3684 121.135 55.712C111.907 52.134 99.2639 47.1997 93.2203 44.7038C90.9314 43.7588 88.0359 42.0058 87.2056 39.0337C86.4691 36.3935 87.4511 33.2267 90.1155 29.627L90.296 29.3817C90.6787 28.884 91.0686 28.4223 91.4585 27.9895C91.574 30.7884 93.2203 33.5224 96.2602 35.9102C101.509 40.022 112.925 48.6064 120.918 54.5939C120.875 54.2476 120.846 53.8941 120.846 53.5334C120.846 53.2593 120.861 52.9852 120.889 52.7111C112.969 46.7741 102.217 38.6875 97.1772 34.7415C95.2348 33.2194 92.917 30.7523 92.917 27.6576C92.917 24.9164 94.7222 22.1319 98.2602 19.3762L98.3252 19.3257L98.3974 19.268C99.4228 18.4961 100.412 17.883 101.365 17.3924C101.235 19.8523 102.123 22.5431 104.008 25.3059C107.734 30.7451 115.445 41.5802 121.532 50.078C121.749 49.5659 122.016 49.0753 122.319 48.6209C116.304 40.2168 108.867 29.7713 105.235 24.4691C103.719 22.2545 102.13 18.9362 103.149 15.7332C104.051 12.9054 106.802 10.6187 111.322 8.93065L111.546 8.8513L111.582 8.83688C113.691 8.09386 115.582 7.71153 117.265 7.65382C116.088 10.0488 115.929 13.1002 116.839 16.6278C118.492 23.0336 122.088 35.9174 124.94 46.06C125.366 45.7858 125.814 45.5406 126.29 45.3458C123.453 35.2682 119.922 22.5935 118.283 16.2599C117.597 13.598 117.214 9.85402 119.315 7.12721C121.178 4.70338 124.637 3.4554 129.735 3.41212H129.829C134.811 3.4554 138.277 4.70338 140.139 7.12721C142.241 9.86123 141.858 13.6052 141.172 16.2599C139.533 22.6008 136.024 35.196 133.164 45.3458C133.634 45.5406 134.081 45.7858 134.515 46.06C137.388 35.8525 140.955 23.0552 142.616 16.635C143.526 13.1074 143.367 10.0488 142.19 7.66103C143.88 7.72595 145.786 8.1155 147.938 8.87294L148.111 8.93787C152.645 10.6259 155.404 12.9199 156.306 15.7477C157.332 18.9506 155.736 22.2689 154.22 24.4836C150.552 29.8434 143.093 40.325 137.143 48.6353C137.446 49.097 137.713 49.5803 137.93 50.0925C143.952 41.6884 151.692 30.8173 155.454 25.3204C157.339 22.5647 158.227 19.874 158.097 17.4068C159.072 17.9118 160.09 18.5538 161.159 19.3473L161.18 19.3618L161.209 19.3834C164.747 22.1319 166.552 24.9236 166.552 27.6648C166.56 30.7523 164.242 33.2194 162.299 34.7415C157.252 38.6947 146.508 46.7813 138.587 52.7183C138.609 52.9852 138.63 53.2593 138.63 53.5406C138.63 53.9013 138.602 54.2548 138.558 54.6011C146.551 48.6209 157.96 40.0365 163.216 35.9174C166.256 33.5368 167.895 30.81 168.018 28.0111C168.451 28.4872 168.885 29.0066 169.318 29.5693L169.347 29.6126V29.627C172.025 33.2339 173.007 36.4007 172.271 39.041L172.3 39.0265Z" fill="#8A6E4B"/>
<path d="M235.379 30.5376L234.722 29.5781H171.065L173.426 33.726H232.267C246.989 55.5044 254.766 81.0845 254.766 107.79C254.766 134.495 246.989 160.075 232.267 181.854H27.2534C12.5307 160.075 4.75419 134.495 4.75419 107.79C4.75419 81.0845 12.5307 55.5044 27.2534 33.726H86.2382L88.2816 29.5781H24.7912L24.1342 30.5376C8.53054 53.1888 0.284668 79.9014 0.284668 107.79C0.284668 135.678 8.53054 162.384 24.1342 185.042L24.7912 186.002H234.714L235.372 185.042C250.975 162.391 259.221 135.678 259.221 107.79C259.221 79.9014 250.975 53.1888 235.372 30.5376H235.379Z" fill="#8A6E4B"/>
</svg>
