<svg width="272" height="146" viewBox="0 0 272 146" fill="none" xmlns="http://www.w3.org/2000/svg">
<path d="M50.394 78.237C50.394 97.4375 56.2595 115.213 66.238 129.747H206.103C216.077 115.213 221.947 97.4375 221.947 78.237C221.947 59.0365 216.081 41.2612 206.103 26.7266H66.238C56.2643 41.2612 50.394 59.0414 50.394 78.237" fill="#17153A"/>
<path d="M77.5988 63.4838H74.1574C73.8653 62.7224 73.7144 61.9952 73.7144 61.3021C73.7144 60.8189 73.841 60.4675 74.0892 60.2528C74.3375 60.038 74.7172 59.9258 75.2136 59.9258H87.699C94.3968 59.9258 98.9041 60.736 101.216 62.3564C103.528 63.9767 104.687 66.6367 104.687 70.3411C104.687 74.0455 103.29 77.1399 100.491 79.3118C97.6921 81.4836 93.1945 82.572 86.998 82.572H85.7568C85.7714 87.0574 85.8152 90.137 85.8882 91.816H90.1376C90.4297 92.4407 90.5757 93.0801 90.5757 93.739C90.5757 94.3442 90.4638 94.7688 90.2398 95.0128C90.0159 95.2569 89.6509 95.3789 89.1495 95.3789H74.1282C73.8166 94.6175 73.6609 93.8805 73.6609 93.1728C73.6609 92.7043 73.7923 92.3626 74.0503 92.1479C74.3083 91.9331 74.6879 91.8258 75.1893 91.8258H77.5988C77.6864 89.6099 77.7302 83.8117 77.7302 74.4262C77.7302 69.3552 77.6864 65.7094 77.5988 63.4935M88.0348 78.3503C90.6925 78.3503 92.6493 77.872 93.9003 76.9202C95.1512 75.9685 95.7791 74.314 95.7791 71.9615C95.7791 69.7261 95.1902 67.9984 94.0073 66.7685C92.8245 65.5385 90.9895 64.9236 88.5021 64.9236C87.4653 64.9236 86.594 65.0114 85.8882 65.1823C85.8006 66.2755 85.7568 69.365 85.7568 74.4555V78.3503H88.0348V78.3503Z" fill="white"/>
<path d="M118.389 68.9336C121.981 68.9336 124.585 69.7535 126.211 71.3886C127.832 73.0236 128.645 75.6103 128.645 79.139C128.645 80.8912 128.299 82.1358 127.608 82.8776C126.917 83.6244 125.408 83.9953 123.076 83.9953H113.443C113.497 86.2648 114.003 88.0414 114.972 89.3299C115.94 90.6184 117.639 91.2626 120.073 91.2626C122.507 91.2626 124.907 90.5695 127.428 89.1883C128.324 90.0717 128.776 91.0234 128.776 92.0435C128.776 93.4296 127.764 94.396 125.734 94.9377C123.704 95.4844 121.329 95.7577 118.598 95.7577C113.901 95.7577 110.494 94.806 108.367 92.9025C106.244 90.999 105.183 87.8559 105.183 83.4779C105.183 79.1 106.381 75.3614 108.771 72.7893C111.16 70.2172 114.368 68.9336 118.394 68.9336M117.357 73.4287C116.082 73.4287 115.103 73.946 114.431 74.9856C113.76 76.0252 113.414 77.8359 113.395 80.4129H114.767C116.685 80.4129 118.15 80.3592 119.158 80.2421C120.17 80.1298 120.759 79.9395 120.93 79.671C121.1 79.4026 121.188 78.9585 121.188 78.3337C121.188 76.7768 120.852 75.5664 120.175 74.7123C119.504 73.8582 118.559 73.4287 117.352 73.4287" fill="white"/>
<path d="M132.583 70.9581C132.583 70.3334 132.812 69.9283 133.27 69.7379C133.727 69.5476 136.58 69.3719 141.827 69.2206C141.915 69.9478 141.915 70.9532 141.827 72.232C144.003 70.9532 145.969 70.0845 147.731 69.6354C149.493 69.1864 151.046 68.957 152.395 68.957C153.013 68.957 153.431 69.0302 153.636 69.1767C153.845 69.3231 153.947 69.6647 153.947 70.2016C153.947 71.1533 153.806 72.1441 153.519 73.1739C153.232 74.2037 152.881 74.8675 152.458 75.1604C152.034 75.4532 151.367 75.6728 150.452 75.8095C149.537 75.9461 149.007 75.9852 148.861 75.912C148.715 75.8436 148.228 75.2628 147.396 74.1745C146.12 74.1745 145.137 74.6381 144.455 75.5654C143.774 76.4928 143.433 78.8745 143.433 82.7205C143.433 86.2346 143.477 89.2655 143.565 91.8083H147.629C147.941 92.3793 148.096 93.0187 148.096 93.7313C148.096 94.3365 147.97 94.7611 147.722 95.0051C147.473 95.2491 146.982 95.3712 146.257 95.3712H133.046C132.734 94.6439 132.579 93.9606 132.579 93.3213C132.579 92.7844 132.7 92.3988 132.939 92.1646C133.182 91.9303 133.572 91.8132 134.107 91.8132H135.996C136.083 89.2703 136.127 86.3175 136.127 82.9596C136.127 78.1131 135.898 75.2482 135.441 74.3648C134.983 73.4814 134.185 73.0421 133.046 73.0421C132.734 72.3491 132.579 71.656 132.579 70.963" fill="white"/>
<path d="M159.88 82.8534C159.88 74.9956 159.846 70.0612 159.778 68.0504C159.71 66.0445 159.579 64.673 159.389 63.936C159.199 63.199 158.868 62.7256 158.391 62.506C157.914 62.2912 157.296 62.1839 156.541 62.1839C156.23 61.4762 156.074 60.7636 156.074 60.0559C156.074 59.3482 156.347 58.865 156.887 58.6649C157.432 58.4648 159.17 58.3672 162.105 58.3672C163.935 58.3672 165.186 58.4404 165.863 58.5868C166.534 58.7332 166.919 59.0066 167.016 59.4068C167.114 59.807 167.157 60.3683 167.157 61.0955V81.0671C167.157 86.021 167.201 89.6034 167.289 91.8192H170.604C170.896 92.3903 171.047 93.0296 171.047 93.7422C171.047 94.3474 170.92 94.772 170.672 95.016C170.419 95.2601 169.932 95.3821 169.207 95.3821H156.541C156.23 94.6549 156.074 93.9716 156.074 93.3322C156.074 92.7953 156.196 92.4098 156.439 92.1755C156.682 91.9412 157.067 91.8241 157.602 91.8241H159.725C159.827 89.6083 159.88 86.6213 159.88 82.8632" fill="white"/>
<path d="M190.05 93.3731C188.755 94.032 187.28 94.6177 185.62 95.1253C183.96 95.6329 182.398 95.8915 180.933 95.8915C178.431 95.8915 176.596 95.3107 175.428 94.154C174.264 92.9924 173.68 91.3672 173.68 89.2734C173.68 86.3499 174.683 84.1731 176.683 82.7528C178.684 81.3325 181.848 80.6248 186.161 80.6248H188.984C188.828 77.96 188.39 76.1395 187.665 75.1585C186.939 74.1824 185.854 73.6894 184.403 73.6894C183.61 73.6894 182.744 73.7968 181.814 74.0018C181.21 75.1439 180.85 75.7491 180.738 75.8174C180.626 75.8857 180.032 76.0419 178.952 76.2859C177.871 76.53 177.107 76.4519 176.659 76.0517C176.211 75.6563 175.759 74.9535 175.301 73.9481C174.844 72.9427 174.615 72.0935 174.615 71.4053C174.615 70.9709 174.79 70.6341 175.145 70.395C175.501 70.1509 176.805 69.8923 179.069 69.6141C181.332 69.3359 183.737 69.1992 186.292 69.1992C189.329 69.1992 191.715 69.7214 193.443 70.7708C195.171 71.8153 196.032 73.8456 196.032 76.8619V83.7436C196.032 87.57 196.198 89.9176 196.524 90.7961C196.85 91.6698 197.439 92.0114 198.286 91.8211C198.544 92.3043 198.675 92.7826 198.675 93.2462C198.675 94.0271 198.213 94.6177 197.288 95.0277C196.363 95.4328 195.117 95.6377 193.545 95.6377C192.854 95.6377 192.308 95.5499 191.914 95.3791C191.515 95.2034 190.897 94.5396 190.05 93.378M188.989 84.7588C187.743 84.5001 186.482 84.3683 185.207 84.3683C183.756 84.3683 182.719 84.6123 182.101 85.0955C181.478 85.5787 181.171 86.4963 181.171 87.8482C181.171 89.0245 181.478 89.9127 182.091 90.5082C182.705 91.1085 183.595 91.4062 184.773 91.4062C185.708 91.4062 186.531 91.2061 187.246 90.8108C187.962 90.4154 188.434 89.8444 188.658 89.1074C188.882 88.3704 188.994 87.4138 188.994 86.2376V84.7588H188.989Z" fill="white"/>
<path d="M163.288 25.0438C163.288 25.0438 163.263 25.0097 163.249 24.9901L163.21 24.9365C162.587 24.1263 161.973 23.4576 161.365 22.9159C161.005 21.3541 159.861 19.7044 157.7 18.0157C157.7 18.0157 157.666 17.9913 157.646 17.9766C157.627 17.962 157.612 17.9522 157.597 17.9376C156.556 17.1567 155.587 16.5905 154.682 16.2196C154.21 14.116 152.399 12.2175 148.704 10.846C148.704 10.846 148.661 10.8314 148.636 10.8216C148.617 10.8118 148.592 10.807 148.573 10.7972C146.67 10.1285 145.059 9.87963 143.71 9.97236C142.484 8.23485 140.118 7.13182 136.243 7.09766C136.243 7.09766 136.195 7.09766 136.17 7.09766C136.146 7.09766 136.122 7.09766 136.097 7.09766C132.223 7.13182 129.857 8.23485 128.631 9.97236C127.282 9.87963 125.671 10.1285 123.768 10.7972C123.768 10.7972 123.724 10.8118 123.705 10.8216C123.68 10.8314 123.661 10.8362 123.636 10.846C119.942 12.2175 118.131 14.116 117.659 16.2196C116.754 16.5905 115.785 17.1518 114.743 17.9376C114.743 17.9376 114.709 17.962 114.695 17.9766C114.68 17.9913 114.661 18.001 114.646 18.0157C112.485 19.7044 111.341 21.3541 110.981 22.9159C110.372 23.4576 109.754 24.1263 109.136 24.9365C109.136 24.9365 109.112 24.9706 109.097 24.9853C109.082 25.0048 109.073 25.0194 109.058 25.0341C104.945 30.6078 107.028 34.2146 111.36 36.0107C114.164 37.1723 119.124 39.1392 123.977 41.0378C118.496 42.0773 114.914 43.7953 114.914 45.7378C114.914 48.9054 124.435 51.4775 136.18 51.4775C147.926 51.4775 157.447 48.9103 157.447 45.7378C157.447 43.7953 153.864 42.0773 148.383 41.0378C153.231 39.1392 158.196 37.1771 161 36.0107C165.332 34.2146 167.411 30.6127 163.302 25.039" fill="#17153A"/>
<path d="M142.168 41.5247C142.168 44.8435 139.481 47.5377 136.171 47.5377C132.861 47.5377 130.174 44.8484 130.174 41.5247C130.174 38.201 132.861 35.5117 136.171 35.5117C139.481 35.5117 142.168 38.2058 142.168 41.5247" fill="white"/>
<path d="M164.729 23.9742L164.719 23.9644L164.631 23.8473C164.101 23.1493 163.531 22.51 162.942 21.9438C162.348 20.0843 160.966 18.298 158.829 16.6239C158.795 16.5946 158.756 16.5653 158.717 16.5361C158.702 16.5263 158.688 16.5165 158.678 16.5019C157.836 15.8674 156.994 15.3354 156.166 14.9254C155.247 12.4461 152.949 10.5084 149.347 9.17114C149.308 9.15162 149.269 9.14186 149.225 9.12722C149.206 9.11746 149.186 9.11257 149.167 9.10281C147.502 8.51713 145.954 8.19989 144.543 8.16573C142.786 6.29644 140.001 5.33007 136.253 5.30078C136.214 5.30078 136.175 5.30078 136.136 5.30078C136.117 5.30078 136.102 5.30078 136.088 5.30078C132.34 5.33007 129.555 6.29644 127.798 8.16573C126.377 8.20477 124.795 8.5269 123.077 9.13698L123.004 9.16626C119.387 10.5133 117.094 12.4509 116.175 14.9303C115.332 15.3501 114.466 15.8967 113.575 16.5702L113.531 16.6044C111.375 18.2882 109.988 20.0843 109.394 21.9487C108.795 22.5246 108.211 23.1786 107.656 23.9107L107.608 23.9791C105.373 27.0148 104.59 29.8212 105.286 32.3201C105.923 34.6238 107.783 36.4735 110.674 37.6693C112.344 38.3624 114.88 39.3775 118.238 40.71C114.836 41.9887 113.118 43.6725 113.118 45.737C113.118 51.6866 127.613 53.2728 136.175 53.2728C144.737 53.2728 159.233 51.6866 159.233 45.737C159.233 43.6725 157.515 41.9887 154.112 40.71C157.49 39.3727 160.026 38.3575 161.677 37.6693C164.563 36.4735 166.422 34.6238 167.06 32.3201C167.756 29.8163 166.973 27.0051 164.729 23.9644M164.85 31.7003C164.29 33.716 162.339 34.902 160.796 35.5413C156.775 37.2105 148.218 40.5587 141.978 42.9892C141.866 43.4334 141.705 43.858 141.505 44.2533C143.589 43.4431 145.984 42.5109 148.412 41.5592C153.718 42.589 156.936 44.2143 156.936 45.7321C156.936 48.2066 148.408 50.9691 136.17 50.9691C123.933 50.9691 115.405 48.2115 115.405 45.7321C115.405 44.2143 118.623 42.589 123.929 41.5592C126.362 42.5109 128.757 43.448 130.836 44.2582C130.631 43.858 130.471 43.4382 130.359 42.9892C124.143 40.5684 115.615 37.23 111.541 35.5413C109.998 34.902 108.046 33.716 107.486 31.7003C106.989 29.9139 107.651 27.7713 109.448 25.3359L109.569 25.1748C109.827 24.8381 110.09 24.5257 110.353 24.2329C110.431 26.1265 111.541 27.9763 113.59 29.5918C117.129 32.3738 124.824 38.1818 130.213 42.2327C130.183 41.9984 130.164 41.7593 130.164 41.5153C130.164 41.3298 130.174 41.1443 130.193 40.9589C124.853 36.9421 117.606 31.4709 114.208 28.8011C112.899 27.7713 111.331 26.1021 111.336 24.0083C111.336 22.1537 112.553 20.2698 114.938 18.4053L114.982 18.3712L115.031 18.3321C115.722 17.8099 116.389 17.3951 117.031 17.0632C116.944 18.7275 117.542 20.548 118.818 22.4124C121.324 26.0924 126.528 33.4231 130.631 39.1725C130.777 38.826 130.957 38.4941 131.162 38.1867C127.107 32.5007 122.093 25.4335 119.645 21.8462C118.623 20.3478 117.552 18.1027 118.238 15.9357C118.847 14.0225 120.701 12.4705 123.748 11.3333L123.899 11.2796L123.924 11.2698C125.345 10.7671 126.62 10.5084 127.754 10.4694C126.961 12.0898 126.854 14.1543 127.467 16.5409C128.582 20.875 131.006 29.5918 132.929 36.4491C133.216 36.2637 133.518 36.0977 133.839 35.966C131.926 29.1477 129.546 20.5675 128.441 16.2871C127.978 14.4862 127.72 11.958 129.137 10.1082C130.393 8.46833 132.724 7.62397 136.161 7.59469H136.224C139.583 7.62397 141.919 8.46833 143.175 10.1082C144.591 11.958 144.333 14.4862 143.871 16.2871C142.766 20.5772 140.4 29.0989 138.473 35.966C138.794 36.0977 139.096 36.2637 139.383 36.4491C141.32 29.543 143.725 20.8847 144.845 16.5409C145.458 14.1543 145.351 12.0849 144.557 10.4694C145.696 10.5133 146.981 10.7769 148.432 11.2845L148.549 11.3284C151.606 12.4705 153.465 14.0225 154.073 15.9357C154.765 18.1027 153.689 20.3478 152.667 21.8462C150.194 25.4725 145.166 32.5641 141.15 38.1867C141.354 38.499 141.535 38.826 141.681 39.1725C145.735 33.4866 150.958 26.1314 153.494 22.4124C154.765 20.548 155.363 18.7275 155.281 17.0583C155.938 17.3999 156.624 17.8294 157.344 18.3712L157.359 18.3809L157.379 18.3956C159.764 20.2551 160.981 22.1439 160.981 23.9986C160.981 26.0875 159.423 27.7567 158.114 28.7865C154.711 31.4611 147.468 36.9323 142.128 40.9491C142.143 41.1297 142.158 41.3152 142.158 41.5055C142.158 41.7495 142.138 41.9887 142.109 42.223C147.497 38.1769 155.188 32.3689 158.737 29.5821C160.786 27.9714 161.891 26.1265 161.974 24.2329C162.266 24.555 162.558 24.9015 162.85 25.2871L162.869 25.3164V25.3261C164.675 27.7664 165.337 29.9091 164.84 31.6954" fill="#978368"/>
<path d="M207.373 25.9733L206.93 25.3242H164.018L165.609 28.1306H205.275C215.2 42.8653 220.443 60.1721 220.443 78.2403C220.443 96.3085 215.2 113.61 205.275 128.35H67.0703C57.1453 113.615 51.9029 96.3085 51.9029 78.2403C51.9029 60.1721 57.1453 42.8653 67.0703 28.1306H106.833L108.211 25.3242H65.4153L64.9724 25.9733C54.4535 41.2986 48.8899 59.3717 48.8899 78.2403C48.8899 97.1089 54.4487 115.177 64.9724 130.507L65.4153 131.156H206.93L207.373 130.507C217.892 115.182 223.451 97.1089 223.451 78.2403C223.451 59.3717 217.892 41.2986 207.373 25.9733" fill="#978368"/>
<path d="M110.689 113.61C111.005 114.049 111.103 114.205 111.088 114.425C111.064 114.684 110.893 114.791 110.519 114.791H108.099C107.725 114.791 107.554 114.684 107.53 114.425C107.52 114.205 107.613 114.049 107.929 113.61C108.148 113.307 108.163 112.902 108.163 112.048V111.014H105.193V112.048C105.193 112.902 105.203 113.307 105.427 113.61C105.743 114.049 105.841 114.205 105.826 114.425C105.802 114.684 105.631 114.791 105.257 114.791H102.838C102.463 114.791 102.292 114.684 102.268 114.425C102.258 114.205 102.351 114.049 102.667 113.61C102.886 113.307 102.901 112.902 102.901 112.048V108.998C102.901 108.158 102.886 107.753 102.667 107.436C102.351 106.997 102.253 106.85 102.268 106.631C102.292 106.372 102.463 106.25 102.838 106.25H105.257C105.631 106.25 105.802 106.372 105.826 106.631C105.836 106.85 105.739 106.997 105.427 107.436C105.208 107.753 105.193 108.153 105.193 108.998V109.862H108.163V108.998C108.163 108.158 108.153 107.753 107.929 107.436C107.613 106.997 107.515 106.85 107.53 106.631C107.554 106.372 107.725 106.25 108.099 106.25H110.519C110.893 106.25 111.064 106.372 111.088 106.631C111.098 106.85 111.005 106.997 110.689 107.436C110.47 107.753 110.455 108.153 110.455 108.998V112.048C110.455 112.902 110.465 113.307 110.689 113.61Z" fill="white"/>
<path d="M124.148 110.524C124.148 113.194 122.298 114.902 119.733 114.902C117.168 114.902 115.318 113.194 115.318 110.524C115.318 107.855 117.168 106.156 119.733 106.156C122.298 106.156 124.148 107.864 124.148 110.524ZM121.543 110.524C121.543 108.597 120.872 107.254 119.733 107.254C118.594 107.254 117.922 108.597 117.922 110.524C117.922 112.452 118.589 113.804 119.733 113.804C120.877 113.804 121.543 112.462 121.543 110.524Z" fill="white"/>
<path d="M136.915 114.429C136.891 114.673 136.73 114.795 136.356 114.795H133.654C133.279 114.795 133.036 114.673 133.012 114.429C132.905 113.687 133.766 113.892 132.671 112.052L132.418 111.628H131.313V112.052C131.313 112.906 131.323 113.311 131.547 113.614C131.863 114.053 131.96 114.209 131.936 114.429C131.921 114.673 131.751 114.795 131.376 114.795H128.957C128.582 114.795 128.412 114.673 128.387 114.429C128.378 114.209 128.46 114.053 128.777 113.614C128.996 113.311 129.02 112.906 129.02 112.052V109.002C129.02 108.162 128.996 107.757 128.777 107.44C128.46 107.001 128.378 106.854 128.387 106.635C128.412 106.376 128.582 106.254 128.957 106.254H132.778C135.139 106.254 136.049 107.513 136.049 108.938C136.049 109.841 135.553 110.656 134.735 111.144L135.27 112.047C136.171 113.57 137.008 113.765 136.925 114.424L136.915 114.429ZM133.435 108.938C133.435 107.977 132.866 107.416 132.048 107.416H131.916C131.357 107.416 131.308 107.684 131.308 108.294V109.597C131.308 110.193 131.357 110.476 131.916 110.476H132.048C132.861 110.476 133.435 109.914 133.435 108.938Z" fill="white"/>
<path d="M147.989 112.365C147.906 112.902 147.77 113.571 147.687 114.098C147.605 114.625 147.386 114.791 146.884 114.791H141.471C141.106 114.791 140.926 114.684 140.912 114.425C140.902 114.205 140.985 114.049 141.301 113.61C141.52 113.307 141.535 112.902 141.535 112.048V108.998C141.535 108.158 141.52 107.753 141.301 107.436C140.985 106.997 140.902 106.85 140.912 106.631C140.926 106.372 141.106 106.25 141.471 106.25H146.631C147.142 106.25 147.361 106.435 147.444 106.958C147.527 107.47 147.648 108.153 147.736 108.676C147.794 109.051 147.605 109.271 147.288 109.271C146.728 109.271 146.451 108.676 146.217 108.222C146.032 107.895 145.696 107.407 144.869 107.392C144.08 107.416 143.847 107.661 143.847 108.988V109.852C144.251 109.828 144.553 109.793 144.723 109.647C145.039 109.364 145.103 109.1 145.37 109.1C145.696 109.1 145.696 109.427 145.696 109.793V111.062C145.696 111.428 145.696 111.755 145.37 111.755C145.103 111.755 145.044 111.487 144.723 111.209C144.553 111.062 144.251 111.023 143.847 111.004V112.038C143.847 113.415 144.105 113.634 144.942 113.634H145.103C145.94 113.634 146.295 113.146 146.466 112.805C146.709 112.356 146.977 111.77 147.546 111.77C147.848 111.77 148.057 111.975 147.994 112.356L147.989 112.365Z" fill="white"/>
<path d="M160.411 112.73C160.168 113.375 159.33 114.902 157.067 114.902C154.293 114.902 152.638 113.145 152.297 111.232C151.713 107.913 154.317 105.717 157.417 106.229C159.082 106.512 158.668 105.717 159.204 105.61C159.618 105.536 159.739 105.805 159.827 106.317C159.924 106.854 160.168 108.157 160.265 108.684C160.323 109.06 160.192 109.28 159.876 109.27C159.257 109.246 159.087 107.44 157.344 107.269C155.631 107.098 154.682 108.562 154.828 110.354C154.974 111.989 155.728 113.306 157.466 113.389C159.593 113.497 159.764 111.559 160.445 112.047C160.615 112.169 160.528 112.413 160.406 112.73H160.411Z" fill="white"/>
<path d="M173.3 114.429C173.276 114.673 173.106 114.795 172.731 114.795H170.029C169.65 114.795 169.421 114.673 169.382 114.429C169.285 113.736 170.112 113.721 169.762 112.345L169.703 112.174H166.637C166.028 113.795 166.904 113.77 166.773 114.429C166.715 114.673 166.578 114.795 166.204 114.795H164.802C164.427 114.795 164.159 114.673 164.159 114.429C164.159 113.736 164.831 113.917 165.507 112.052C166.028 110.676 166.651 109.041 166.953 108.27C167.328 107.318 166.671 107.186 166.71 106.635C166.734 106.376 166.904 106.254 167.279 106.254H169.056C169.625 106.254 169.81 106.459 169.971 106.888C170.068 107.123 171.222 110.095 171.991 112.047C172.76 113.96 173.364 113.765 173.305 114.424L173.3 114.429ZM169.251 111.013L168.18 108.206L167.085 111.013H169.251Z" fill="white"/>
</svg>
