<svg width="46" height="46" viewBox="0 0 46 46" fill="none" xmlns="http://www.w3.org/2000/svg">
<g clip-path="url(#clip0_1211_12052)">
<path d="M46 40.25C46 41.775 45.3942 43.2375 44.3159 44.3159C43.2375 45.3942 41.775 46 40.25 46L5.75 46C4.22501 46 2.76247 45.3942 1.68414 44.3159C0.605802 43.2375 0 41.775 0 40.25L0 5.75C0 4.225 0.605802 2.76247 1.68414 1.68414C2.76247 0.605802 4.22501 0 5.75 0L40.25 0C41.775 0 43.2375 0.605802 44.3159 1.68414C45.3942 2.76247 46 4.225 46 5.75L46 40.25ZM33.0625 21.5625H16.4076L22.5803 15.3927C22.8502 15.1228 23.0018 14.7567 23.0018 14.375C23.0018 13.9933 22.8502 13.6272 22.5803 13.3572C22.3103 13.0873 21.9442 12.9357 21.5625 12.9357C21.1808 12.9357 20.8147 13.0873 20.5448 13.3572L11.9198 21.9822C11.7859 22.1158 11.6797 22.2744 11.6072 22.4491C11.5347 22.6237 11.4974 22.8109 11.4974 23C11.4974 23.1891 11.5347 23.3763 11.6072 23.5509C11.6797 23.7256 11.7859 23.8842 11.9198 24.0177L20.5448 32.6427C20.8147 32.9127 21.1808 33.0643 21.5625 33.0643C21.9442 33.0643 22.3103 32.9127 22.5803 32.6427C22.8502 32.3728 23.0018 32.0067 23.0018 31.625C23.0018 31.2433 22.8502 30.8772 22.5803 30.6072L16.4076 24.4375H33.0625C33.4438 24.4375 33.8094 24.286 34.079 24.0165C34.3486 23.7469 34.5 23.3812 34.5 23C34.5 22.6187 34.3486 22.2531 34.079 21.9835C33.8094 21.7139 33.4438 21.5625 33.0625 21.5625Z" fill="white" fill-opacity="0.22"/>
</g>
<defs>
<clipPath id="clip0_1211_12052">
<rect width="46" height="46" fill="white"/>
</clipPath>
</defs>
</svg>
