<svg width="294" height="319" viewBox="0 0 294 319" fill="none" xmlns="http://www.w3.org/2000/svg">
<path d="M226.535 234.407C193.288 273.495 127.813 281.167 79.285 235.375C33.3294 192.007 31.4383 126.066 66.1903 85.5338C102.449 43.2409 168.148 39.6479 214.138 83.1012C261.965 128.283 261.09 196.492 226.535 234.407ZM223.946 232.112C259.359 191.25 254.259 125.642 212.634 86.3132C169.262 45.3421 104.993 46.1836 68.6417 88.19C33.9327 128.298 39.9125 193.876 81.8368 233.036C124.87 273.234 188.659 272.814 223.945 232.097L223.946 232.112Z" fill="black"/>
<path d="M223.945 232.107C188.666 272.816 124.865 273.236 81.8403 233.046C39.917 193.886 33.9437 128.303 68.6454 88.2034C104.994 46.1838 169.262 45.3423 212.633 86.3124C254.263 125.633 259.357 191.246 223.945 232.107ZM221.41 230.781C256.761 190.553 251.863 127.783 210.279 88.2537C168.934 48.9524 107.053 49.3179 71.7765 89.0853C36.8508 128.454 41.9511 192.293 83.1592 231.452C124.21 270.462 186.805 270.161 221.417 230.774L221.41 230.781Z" fill="white"/>
<path d="M221.393 230.787C186.78 270.175 124.191 270.483 83.1318 231.465C41.9227 192.305 36.8149 128.458 71.749 89.095C107.034 49.3336 168.909 48.9609 210.255 88.2632C251.84 127.793 256.738 190.565 221.386 230.794L221.393 230.787ZM133.918 182.478C134.821 183.641 135.739 184.803 135.801 184.888C140.451 183.888 144.309 182.003 147.99 182.557C151.757 183.124 155.357 186.085 159.006 187.989C160.125 186.247 161.634 183.89 163.484 181.005C152.939 178.197 142.726 173.698 133.927 182.593C132.331 180.137 130.743 177.688 128.318 173.954L126.02 187.204C129.468 185.144 131.697 183.815 133.919 182.493L133.918 182.478ZM157.096 216.08L157.762 214.931C159.673 215.121 162.569 214.597 163.317 215.639C165.64 218.864 167.697 217.572 169.998 216.723C190.551 209.137 204.141 188.146 203.548 164.872C202.925 140.333 188.399 118.23 166.288 108.285C163.625 107.09 160.838 106.255 157.928 105.184C157.582 108.643 157.322 111.254 157.062 113.865L155.774 112.764C153.103 115.268 150.434 117.788 147.763 120.293L148.667 122.252C149.438 121.986 150.37 121.927 150.949 121.425C155.537 117.429 160.055 113.34 165.297 108.661C165.042 113.097 164.829 116.843 164.694 119.186C161.885 121.082 159.966 122.372 157.83 123.816C164.066 125.688 170.597 125.833 174.504 129.258C179.896 133.983 183.459 141.069 187.42 147.389C188.325 148.832 188.127 151.435 187.597 153.179C186.627 156.379 185.365 159.581 183.618 162.35C181.087 166.37 178.282 170.262 175.066 173.685C173.226 175.636 170.347 176.548 168.414 177.652C171.317 180.404 174.379 182.882 176.929 185.817C181.616 191.218 180.797 197.843 174.717 200.345C170.849 201.928 166.256 201.879 162.011 202.639C160.347 202.936 158.525 203.083 157.131 203.887C154.588 205.37 152.302 207.296 149.794 209.131L157.109 216.066L157.096 216.08ZM141.217 103.522C117.347 102.022 92.5576 122.404 90.1416 148.646C94.7279 149.578 95.6154 151.948 92.7093 156.316C94.3972 157.916 96.002 159.783 97.9067 161.137C99.4805 162.257 101.815 163.779 103.135 163.342C105.745 162.455 105.535 159.956 104.641 157.062C101.511 146.919 108.543 139.047 118.632 140.558C120.628 140.855 123.331 139.83 124.733 138.408C129.097 133.946 133.051 129.044 137.037 124.198C137.862 123.198 138.893 121.399 138.509 120.476C135.858 114.136 137.809 108.929 141.225 103.529L141.217 103.522ZM174.377 149.018C168.433 144.42 162.614 139.634 156.509 135.282C151.427 131.66 149.16 132.063 144.956 136.17C136.819 144.124 137.682 158.379 146.819 166.761C155.865 175.058 169.059 173.852 176.103 164.09C180.536 157.94 180.085 154.509 174.377 149.018ZM119.75 96.1144L120.579 94.5615C119.857 91.4717 119.143 88.3891 118.421 85.2993L119.339 85.0532C121.131 87.0045 122.923 88.9558 125.163 91.3985L128.014 82.4468C130.476 89.6175 133.489 92.4742 137.054 91.0168C135.244 84.0648 133.409 77.0485 131.592 70.1038C122.473 69.1004 126.853 77.9171 123.758 81.2021C119.466 79.074 118.038 69.9987 110.7 74.8698C112.468 81.1181 114.107 87.3891 116.132 93.5486C116.489 94.6444 118.503 95.2643 119.756 96.1071L119.75 96.1144ZM209.581 140.743C210.585 144.591 210.946 148.123 212.456 151.083C213.734 153.571 216.11 156.408 218.476 157.189C220.301 157.789 222.852 155.437 225.068 154.402C231.638 154.69 233.482 152.797 232.176 145.445C231.669 142.626 230.957 139.838 230.225 136.525C223.302 137.936 216.742 139.279 209.581 140.743ZM87.1022 225.355C88.0658 224.807 88.6508 224.564 89.1424 224.193C92.5683 221.58 96.1004 219.081 99.3192 216.219C100.371 215.289 100.612 213.404 101.22 211.961C99.5382 211.23 97.8237 209.911 96.1916 209.905C93.871 209.884 91.6046 210.819 88.3788 211.562C89.7075 208.237 91.0971 205.952 91.4408 203.434C91.655 201.83 90.5137 199.765 89.509 198.201C89.2156 197.737 86.9832 197.866 86.2108 198.463C82.4437 201.417 78.8172 204.57 75.282 207.824C74.6929 208.368 74.8504 209.754 74.6582 210.754C75.7871 210.894 77.2041 211.52 77.9739 211.067C79.9458 209.92 81.6232 208.294 84.471 206.01C83.3731 209.886 82.6758 212.322 81.8881 215.11C84.8001 214.88 87.202 214.699 90.8599 214.419C87.8371 217.215 85.8882 219.008 83.8298 220.911C84.9969 222.509 85.8912 223.729 87.0819 225.363L87.1022 225.355ZM156.596 90.6181C160.375 86.3205 160.022 76.2575 155.958 72.3381C152.457 68.9665 144.929 68.8602 141.959 72.144C138.318 76.1744 138.755 86.5957 142.716 90.5234C146.299 94.0667 153.517 94.1185 156.596 90.6181ZM180.218 91.3508C181.04 96.5951 181.469 100.284 182.26 103.905C182.499 104.995 183.565 106.285 184.552 106.821C185.154 107.153 186.762 106.498 187.186 105.797C190.361 100.435 193.359 94.9447 196.586 89.1795C189.47 84.8515 191.169 93.7589 187.603 94.3254C184.872 89.8756 188.514 82.8562 181.303 79.7147C178.842 83.9994 176.432 88.1472 174.053 92.3234C173.332 93.5806 172.403 94.8255 172.159 96.229C171.982 97.2438 172.768 98.5079 173.116 99.6613C174.063 99.3503 175.382 99.3375 175.884 98.6572C177.277 96.7755 178.329 94.6097 180.212 91.358L180.218 91.3508ZM125.92 241.237C127.616 244.361 128.709 247.044 130.427 249.205C131.197 250.174 133.227 250.119 134.682 250.514C134.546 248.963 134.952 246.969 134.156 245.949C132.268 243.561 132.695 242.465 134.611 240.599C135.997 239.242 136.903 236.632 136.775 234.571C136.571 231.268 125.896 225.653 123.085 227.081C122.497 227.374 122.061 228.277 121.889 229.004C120.616 234.441 119.427 239.907 118.143 245.653C120.121 246.266 121.794 246.788 123.545 247.332L125.926 241.23L125.92 241.237ZM216.033 176.455C220.209 180.56 229.756 180.92 233.198 177.1C236.296 173.671 235.927 166.583 232.482 163.21C228.247 159.063 219.003 158.765 215.295 162.652C212.165 165.93 212.548 173.018 216.032 176.44L216.033 176.455ZM202.095 124.649C205.388 118.668 208.519 113.356 211.214 107.805C211.794 106.613 211.277 104.183 210.401 102.941C209.504 101.678 207.085 100.142 206.129 100.525C200.134 102.962 194.36 105.914 188.51 108.687L188.857 110.983C190.312 111.299 191.825 112.003 193.195 111.853C196.005 111.553 199.11 113.872 198.089 116.253C196.289 120.474 199.23 121.932 202.095 124.649ZM114.078 97.3552C108.239 92.4184 103.114 87.8914 97.7387 83.726C96.8734 83.0519 94.5942 83.4693 93.5705 84.2265C92.3553 85.1077 90.7875 87.1564 91.1166 88.2525C93.0645 94.7505 95.5092 101.121 97.6914 107.243C104.158 107.446 100.067 103.276 100.796 100.538C102.327 100.236 104.617 98.9778 105.688 99.7146C109.461 102.308 110.959 99.462 114.085 97.3623L114.078 97.3552ZM114.082 236.301C118.802 231.061 118.953 225.476 114.508 221.302C109.957 217.028 104.874 217.02 101.14 221.281C96.8446 226.166 96.6746 232.131 100.719 236.058C105.154 240.369 110.355 240.462 114.084 236.316L114.082 236.301ZM139.814 251.233L141.229 252.548C142.295 251.791 143.72 251.281 144.365 250.219C145.83 247.833 149.278 247.088 150.433 249.592C152.418 253.92 155.086 252.873 158.464 252.395C156.393 246.272 154.559 240.427 152.353 234.707C151.925 233.598 149.952 232.338 148.772 232.349C147.141 232.358 144.545 233.073 144.17 234.219C142.383 239.755 141.213 245.543 139.814 251.233ZM150.761 220.64L151.121 219.918L90.497 162.445L89.2181 163.665C90.3547 165.141 91.3193 166.813 92.6599 168.057C110.415 184.597 128.209 201.107 146.047 217.553C147.417 218.811 149.181 219.62 150.755 220.647L150.761 220.64ZM84.5173 117.984C86.4905 118.885 87.9132 120.114 88.9231 119.888C92.6052 119.034 95.6477 112.602 94.4007 109.014C92.9581 104.883 89.2264 103.604 84.0039 105.178C82.5189 105.631 80.7724 105.317 79.1437 105.355C79.7892 104.026 80.5213 102.74 81.0373 101.356C81.4395 100.288 81.5742 99.0872 81.8256 97.9567C80.5554 97.9619 78.9832 97.4815 78.0559 98.0509C74.1349 100.46 72.6286 105.677 74.8023 109.306C77.4318 113.699 81.0652 112.931 84.8178 111.824C86.1546 111.43 87.7737 111.888 89.2651 111.96C88.4629 113.326 87.6832 114.713 86.8296 116.043C86.5825 116.434 86.115 116.668 84.5109 117.991L84.5173 117.984ZM215.588 222.48C212.295 219.358 209.509 216.863 206.891 214.208C199.718 206.957 199.683 206.871 193.333 214.326C192.424 215.391 192.502 217.352 192.117 218.9C193.552 218.52 194.989 218.168 196.408 217.759C197.786 217.365 199.148 216.928 200.518 216.512C200.3 217.808 200.027 219.104 199.887 220.42C199.777 221.405 199.816 222.425 199.798 223.431C200.672 223.423 201.67 223.665 202.38 223.341C203.291 222.916 203.957 222.018 204.721 221.321C207.222 224.171 207.141 224.107 205.223 227.086C204.666 227.954 204.75 229.282 204.539 230.398C205.691 230.308 207.212 230.659 207.941 230.049C210.363 227.999 212.502 225.614 215.59 222.509L215.588 222.48ZM74.1568 169.387C74.9272 173.094 75.3609 175.167 75.9023 177.726C70.0764 176.217 64.7474 174.846 58.4396 173.212C59.6571 177.396 60.2864 180.544 61.5232 183.471C62.3761 185.489 64.0719 187.189 65.3894 189.023C65.4853 186.975 65.5737 184.919 65.6899 182.863C65.7078 182.561 65.8881 182.293 66.131 181.673C71.4022 183.015 76.7364 184.365 82.9148 185.943C81.3613 180.576 80.257 176.154 78.6985 171.872C78.3615 170.941 76.3648 170.537 74.1632 169.38L74.1568 169.387ZM91.3971 169.039L90.126 170.094C92.3048 172.903 94.2147 176.003 96.7133 178.465C101.862 183.545 107.356 188.262 112.659 193.183C119.248 199.283 125.729 205.507 132.376 211.543C136.04 214.87 139.121 219.359 144.813 219.692L91.3907 169.047L91.3971 169.039ZM213.125 194.762C213.947 192.326 214.664 190.228 215.498 187.762C220.751 189.579 225.726 191.305 231.043 193.143C231.678 190.888 232.184 189.109 232.738 187.149C229.017 185.827 225.874 184.708 222.732 183.603C219.504 182.457 216.269 181.317 213.149 180.219C208.37 190.799 208.337 192.416 213.119 194.769L213.125 194.762ZM206.273 123.919C204.84 126.44 203.452 127.69 203.512 128.982C203.719 133.565 209.014 137.68 213.151 136.246C217.93 134.597 222.412 132.175 227.32 129.958L224.351 123.541C220.848 125.257 217.645 126.646 214.619 128.335C211.18 130.259 208.274 130.732 206.28 123.911L206.273 123.919ZM179.369 227.733C181.935 231.056 180.402 233.112 177.985 234.687C175.766 236.132 173.341 237.262 171.004 238.528C170.811 236.166 170.605 233.804 170.421 231.556C166.904 232.927 166.879 234.551 170.576 244.926C181.19 247.906 183.596 247.595 183.609 242.73C182.366 243.518 181.315 244.808 180.326 244.681C178.86 244.501 177.442 243.329 175.995 242.582C177.85 239.862 179.518 236.964 181.696 234.551C182.271 233.913 184.404 234.819 185.832 234.963C186.091 234.996 186.359 234.785 186.716 234.645L184.977 232.04C186.291 229.936 188.482 227.163 188.171 226.828C183.754 222.043 184.606 228.551 182.657 229.641L179.368 227.719L179.369 227.733ZM222.378 211.787C219.695 209.895 217.315 207.971 214.737 206.444C211.002 204.231 207.789 202.05 211.881 196.693C209.645 196.513 208.083 195.896 207.179 196.408C202.771 198.887 202.663 205.297 206.954 208.646C209.623 210.726 212.758 212.182 215.326 214.378C219.032 217.532 220.768 216.042 222.378 211.787ZM70.9912 127.514C75.6775 131.133 70.6264 132.856 68.6959 134.973C67.302 136.496 64.8405 136.979 62.8527 137.926C62.8305 135.698 62.8221 133.471 62.772 131.244C62.7622 130.943 62.5431 130.629 62.3349 130.099C57.7389 131.164 59.694 135.104 60.0839 137.68C60.9253 143.261 64.7655 146.45 69.9329 146.738C73.4262 146.926 75.436 145.642 75.9738 142.324C74.5939 143.143 73.4658 144.425 72.5064 144.234C70.9478 143.925 68.4079 142.793 68.2081 141.753C67.447 137.723 74.8216 132.435 77.7219 133.47L77.7754 126.73C75.8764 126.949 73.5645 127.216 70.9848 127.521L70.9912 127.514ZM57.4237 165.232L77.6895 164.51L77.0359 158.668C70.967 158.748 65.4659 158.809 59.9532 158.899C59.0033 158.915 58.0646 159.075 56.7618 159.196C56.9806 161.184 57.1696 162.971 57.4237 165.232ZM172.045 186.662C169.151 184.212 166.368 181.839 163.159 185.535C160.467 188.643 160.38 193.638 163.111 196.492C165.349 198.827 171.895 198.361 174.192 195.436C176.912 191.968 174.298 189.277 172.037 186.655L172.045 186.662ZM145.932 127.474L145.036 125.88C143.752 126.59 142.195 127.015 141.235 128.044C137.636 131.902 134.509 136.286 130.664 139.845C127.026 143.2 126.306 146.584 129.28 150.945C129.931 151.894 130.977 152.566 131.838 153.37C132.362 152.524 133.366 151.695 133.339 150.819C133.073 140.281 137.998 132.976 145.939 127.467L145.932 127.474ZM118.779 151.342L119.528 150.458L123.027 152.127C121.329 147.66 117.819 145.675 114.173 146.896C110.533 148.11 108.709 152.467 110.634 156.285C111.515 158.037 113.285 159.356 114.661 160.873L115.294 160.185C114.927 158.959 114.56 157.734 113.881 155.456C116.442 157.127 117.935 158.104 120.021 159.47L116.456 154.123L117.24 153.498L122.104 156.727L122.39 156.121L118.786 151.349L118.779 151.342ZM145.217 188.088C140.93 190.429 139.019 193.415 141.013 197.139C142.154 199.283 145.08 201.353 147.409 201.833C150.536 202.485 153.412 201.013 153.682 196.764C152.367 197.258 151.235 197.686 148.915 198.556C150.565 195.882 151.544 194.284 153.201 191.602C150.613 193.402 149.105 194.444 147.598 195.501L146.857 194.639L149.662 189.869L149.14 189.494C147.633 190.644 146.113 191.794 144.606 192.943L143.848 192.225L145.21 188.08L145.217 188.088ZM153.618 104.938L152.894 103.587C150.351 104.977 147.304 105.876 145.409 107.921C143.669 109.806 143.178 112.929 142.138 115.505L143.674 116.23L153.604 104.938L153.618 104.938ZM93.3669 177.937C95.5941 185.869 98.4059 188.429 104.868 188.84L93.3669 177.937ZM110.188 193.724C111.475 200.035 115.567 203.767 120.751 203.738L110.188 193.724ZM126.991 163.34L125.749 164.94C129.43 168.137 133.097 171.335 136.779 174.532L137.621 173.418L126.998 163.347L126.991 163.34ZM136.527 218.335L126.549 208.876C127.445 215.507 131.277 217.172 136.527 218.335ZM117.469 169.928L116.067 171.177L122.594 177.365L123.637 176.32L117.461 169.921L117.469 169.928ZM137.689 165.707C138.081 171.488 139.329 172.884 143.937 172.587C141.823 170.251 139.833 168.072 137.689 165.707Z" fill="black"/>
<path d="M157.306 215.404L149.981 208.459C152.492 206.621 154.781 204.692 157.328 203.206C158.717 202.394 160.549 202.254 162.215 201.957C166.474 201.203 171.06 201.252 174.94 199.659C181.036 197.161 181.864 190.518 177.155 185.109C174.602 182.17 171.535 179.688 168.628 176.932C170.564 175.826 173.448 174.913 175.29 172.959C178.511 169.531 181.312 165.625 183.855 161.607C185.604 158.834 186.862 155.634 187.84 152.422C188.371 150.675 188.569 148.069 187.663 146.624C183.696 140.294 180.12 133.191 174.729 128.465C170.816 125.035 164.267 124.883 158.03 123.015C160.169 121.57 162.091 120.277 164.904 118.379C165.038 116.017 165.252 112.281 165.508 107.838C160.265 112.531 155.733 116.619 151.139 120.622C150.566 121.117 149.625 121.183 148.853 121.45L147.948 119.487C150.623 116.978 153.296 114.455 155.971 111.947L157.261 113.049C157.521 110.435 157.788 107.813 158.128 104.355C161.042 105.428 163.841 106.271 166.501 107.462C188.65 117.413 203.197 139.55 203.814 164.132C204.408 187.441 190.797 208.464 170.214 216.062C167.91 216.912 165.849 218.206 163.523 214.976C162.774 213.933 159.874 214.457 157.96 214.267L157.293 215.418L157.306 215.404Z" fill="white"/>
<path d="M142.304 104.738C138.832 110.235 136.851 115.518 139.584 121.995C139.982 122.937 138.931 124.767 138.091 125.782C134.024 130.704 129.99 135.685 125.535 140.214C124.112 141.665 121.345 142.699 119.292 142.382C108.948 140.805 101.779 148.806 105.016 159.146C105.943 162.098 106.161 164.651 103.496 165.539C102.147 165.993 99.7479 164.419 98.131 163.273C96.1666 161.879 94.523 159.978 92.7874 158.341C95.7556 153.894 94.8309 151.484 90.1279 150.517C92.5138 123.796 117.839 103.122 142.296 104.731L142.304 104.738Z" fill="white"/>
<path d="M174.673 148.744C180.359 154.211 180.808 157.624 176.397 163.744C169.386 173.457 156.235 174.653 147.238 166.392C138.138 158.047 137.273 143.861 145.373 135.947C149.558 131.861 151.829 131.46 156.877 135.067C162.957 139.4 168.753 144.165 174.673 148.744ZM160.615 158.601C158.293 156.506 155.971 154.411 153.648 152.316L146.135 146.466C142.633 149.481 144.974 152.083 146.001 154.669C151.087 159.448 156.141 164.278 161.322 168.949C161.873 169.444 163.144 169.089 164.08 169.116C165.328 168.818 166.569 168.513 168.686 168.007C165.557 164.354 163.089 161.474 160.629 158.601L160.615 158.601Z" fill="white"/>
<path d="M122.048 97.9636C120.795 97.1211 118.789 96.4942 118.426 95.4061C116.393 89.2419 114.769 82.9731 112.995 76.7346C120.33 71.8654 121.758 80.9372 126.048 83.0645C129.142 79.7808 124.758 70.9748 133.879 71.9706C135.689 78.9199 137.516 85.9264 139.34 92.8755C135.776 94.3323 132.764 91.4767 130.303 84.3087L127.453 93.2569C125.213 90.8152 123.422 88.8646 121.631 86.9141L120.713 87.16C121.435 90.2486 122.149 93.3301 122.871 96.4186L122.042 97.9709L122.048 97.9636Z" fill="white"/>
<path d="M211.416 138.125C218.598 136.66 225.15 135.316 232.079 133.904C232.812 137.219 233.525 140.01 234.031 142.831C235.346 150.183 233.501 152.092 226.918 151.797C224.692 152.84 222.139 155.195 220.319 154.587C217.958 153.811 215.573 150.965 214.294 148.475C212.776 145.52 212.421 141.977 211.416 138.125Z" fill="white"/>
<path d="M84.2571 226.84C83.0745 225.215 82.1732 223.988 81.0067 222.391C83.0639 220.49 85.0117 218.697 88.0327 215.903C84.3769 216.183 81.97 216.371 79.066 216.593C79.8606 213.814 80.5437 211.38 81.6472 207.499C78.8012 209.781 77.1247 211.406 75.1538 212.553C74.377 212.998 72.9608 212.373 71.8401 212.24C72.0321 211.24 71.8747 209.856 72.4634 209.312C75.9903 206.067 79.6146 202.916 83.3859 199.956C84.1504 199.353 86.3891 199.231 86.6823 199.694C87.6864 201.257 88.8208 203.329 88.6132 204.925C88.2761 207.434 86.8873 209.717 85.553 213.048C88.7706 212.313 91.0421 211.371 93.3614 211.392C95 211.405 96.7061 212.717 98.3873 213.447C97.7726 214.896 97.5385 216.773 96.4874 217.702C93.2629 220.556 89.7403 223.06 86.3164 225.671C85.8251 226.042 85.2341 226.292 84.2773 226.833L84.2571 226.84Z" fill="white"/>
<path d="M159.377 91.5669C156.296 95.07 149.081 95.0253 145.487 91.4722C141.517 87.5489 141.093 77.1193 144.73 73.0787C147.695 69.7852 155.228 69.8915 158.739 73.2728C162.806 77.1952 163.152 87.2588 159.377 91.5669ZM153.715 89.6303L155.271 88.4718C154.981 84.606 154.745 80.7254 154.199 76.8693C154.173 76.7114 149.934 76.5226 149.911 76.7673C149.535 80.2944 149.304 83.892 149.659 87.4479C149.741 88.2165 152.295 88.8963 153.714 89.6159L153.715 89.6303Z" fill="white"/>
<path d="M183.185 90.8537C181.295 94.1173 180.246 96.2837 178.841 98.1796C178.337 98.8624 177.014 98.8753 176.063 99.1874C175.707 98.0226 174.925 96.761 175.102 95.7424C175.347 94.3338 176.288 93.0914 177.003 91.8224C179.385 87.6382 181.796 83.4681 184.281 79.1675C191.518 82.3207 187.863 89.3659 190.604 93.8321C194.183 93.2636 192.477 84.3234 199.62 88.6674C196.382 94.4538 193.372 99.9638 190.185 105.346C189.767 106.057 188.146 106.707 187.541 106.374C186.551 105.835 185.474 104.548 185.241 103.447C184.447 99.8126 184.01 96.1173 183.192 90.8464L183.185 90.8537Z" fill="white"/>
<path d="M122.799 240.876L120.421 246.971C118.671 246.428 117 245.906 115.024 245.294C116.307 239.553 117.493 234.094 118.766 228.662C118.938 227.936 119.367 227.041 119.96 226.741C122.769 225.314 133.434 230.925 133.638 234.224C133.766 236.283 132.854 238.898 131.476 240.246C129.57 242.117 129.141 243.197 131.022 245.591C131.823 246.602 131.412 248.602 131.547 250.151C130.093 249.742 128.059 249.804 127.296 248.843C125.586 246.677 124.494 243.996 122.793 240.883L122.799 240.876Z" fill="white"/>
<path d="M217.069 173.433C213.579 170.006 213.204 162.928 216.333 159.651C220.039 155.766 229.285 156.057 233.512 160.21C236.955 163.58 237.311 170.665 234.228 174.092C230.787 177.911 221.251 177.544 217.07 173.448L217.069 173.433ZM232.02 165.69L230.734 163.899C227.125 163.985 223.321 163.447 219.971 164.349C217.626 164.982 218.124 168.137 220.462 168.84C223.52 169.773 226.881 169.797 230.02 169.558C230.861 169.493 231.369 167.039 232.026 165.682L232.02 165.69Z" fill="white"/>
<path d="M204.828 123.311C201.947 120.58 199.007 119.125 200.811 114.893C201.829 112.513 198.722 110.18 195.905 110.481C194.532 110.632 193.008 109.933 191.556 109.609L191.208 107.307C197.066 104.52 202.862 101.567 208.872 99.1245C209.837 98.7333 212.269 100.28 213.156 101.546C214.033 102.791 214.552 105.228 213.97 106.423C211.268 111.989 208.136 117.307 204.828 123.311Z" fill="white"/>
<path d="M115.394 99.9626C112.281 102.052 110.784 104.89 107.033 102.301C105.965 101.567 103.686 102.819 102.161 103.119C101.436 105.844 105.511 109.996 99.0717 109.792C96.8966 103.698 94.46 97.3562 92.5182 90.8881C92.1901 89.797 93.7507 87.7585 94.9605 86.8818C95.9871 86.1355 98.2567 85.7208 99.1112 86.385C104.459 90.5398 109.571 95.04 115.386 99.9556L115.394 99.9626Z" fill="white"/>
<path d="M111.007 236.855C107.263 241.018 102.049 240.91 97.6117 236.597C93.5662 232.668 93.7367 226.689 98.0347 221.786C101.784 217.523 106.872 217.538 111.432 221.807C115.894 225.998 115.735 231.588 111.005 236.84L111.007 236.855ZM106.814 234.066C107.503 230.617 108.155 227.665 108.56 224.665C108.594 224.391 106.476 223.209 106.283 223.413C104.336 225.376 102.586 227.554 100.783 229.667C100.681 229.783 100.592 229.978 100.617 230.122C100.885 231.668 101.173 233.206 101.46 234.744L106.814 234.066Z" fill="white"/>
<path d="M136.874 250.002C138.265 244.308 139.442 238.529 141.228 232.996C141.596 231.843 144.191 231.128 145.829 231.127C147.001 231.122 148.974 232.382 149.408 233.483C151.619 239.193 153.446 245.043 155.517 251.164C152.133 251.65 149.473 252.688 147.489 248.362C146.342 245.867 142.894 246.597 141.423 248.989C140.777 250.036 139.36 250.553 138.289 251.317L136.874 250.002Z" fill="white"/>
<path d="M148.651 219.863C147.106 218.881 145.388 218.09 144.048 216.884C126.509 201.201 108.999 185.472 91.5317 169.71C90.2129 168.524 89.2473 166.949 88.12 165.552L89.3261 164.445L148.981 219.186L148.649 219.849L148.651 219.863Z" fill="white"/>
<path d="M85.2011 120.893C86.7834 119.577 87.2544 119.352 87.4991 118.966C88.3445 117.649 89.1165 116.276 89.9109 114.924C88.4314 114.852 86.8186 114.403 85.4993 114.785C81.7781 115.878 78.1674 116.628 75.5621 112.281C73.4023 108.685 74.8976 103.513 78.7783 101.138C79.6975 100.575 81.2575 101.053 82.5174 101.049C82.2629 102.175 82.1367 103.358 81.7389 104.414C81.2284 105.785 80.5035 107.058 79.8646 108.373C81.4801 108.337 83.2128 108.65 84.6853 108.203C89.8641 106.649 93.5733 107.912 95.002 112.012C96.2426 115.567 93.2311 121.933 89.5795 122.776C88.5792 123.013 87.1656 121.78 85.2074 120.886L85.2011 120.893Z" fill="white"/>
<path d="M214.403 219.561C211.343 222.633 209.232 224.999 206.825 227.019C206.102 227.623 204.601 227.28 203.451 227.361C203.659 226.257 203.574 224.942 204.126 224.083C206.025 221.135 206.106 221.199 203.622 218.375C202.857 219.057 202.192 219.952 201.303 220.372C200.599 220.706 199.608 220.451 198.741 220.459C198.766 219.47 198.719 218.453 198.827 217.477C198.972 216.181 199.241 214.898 199.448 213.609C198.09 214.019 196.74 214.45 195.374 214.839C193.959 215.236 192.535 215.597 191.119 215.965C191.493 214.439 191.428 212.497 192.321 211.436C198.611 204.061 198.645 204.146 205.767 211.334C208.373 213.972 211.131 216.438 214.401 219.533L214.403 219.561Z" fill="white"/>
<path d="M72.127 171.971C74.3224 173.124 76.3059 173.521 76.6496 174.456C78.2107 178.717 79.3063 183.132 80.8562 188.482C74.6891 186.915 69.3765 185.562 64.1203 184.223C63.8858 184.848 63.706 185.115 63.6807 185.409C63.5578 187.451 63.4764 189.493 63.3823 191.55C62.0683 189.722 60.377 188.026 59.5262 186.014C58.2862 183.104 57.6645 179.959 56.4497 175.787C62.7395 177.418 68.0533 178.785 73.8625 180.291C73.3286 177.732 72.8958 175.666 72.1206 171.978L72.127 171.971Z" fill="white"/>
<path d="M90.0013 170.915L142.566 219.251C137.068 218.825 133.998 214.581 130.402 211.396C123.868 205.63 117.489 199.691 111.008 193.866C105.787 189.174 100.404 184.661 95.3269 179.81C92.8666 177.463 90.9612 174.532 88.8023 171.866L90.0073 170.908L90.0013 170.915Z" fill="white"/>
<path d="M213.44 191.633C208.657 189.289 208.696 187.666 213.47 177.096C216.581 178.2 219.813 179.339 223.045 180.478C226.178 181.589 229.324 182.7 233.042 184.02C232.489 185.978 231.991 187.763 231.349 190.009C226.036 188.173 221.066 186.448 215.817 184.632C214.984 187.096 214.268 189.191 213.447 191.626L213.44 191.633Z" fill="white"/>
<path d="M208.559 121.765C210.557 128.601 213.47 128.126 216.916 126.199C219.949 124.506 223.158 123.099 226.67 121.394L229.645 127.824C224.72 130.054 220.227 132.467 215.444 134.127C211.299 135.565 205.993 131.44 205.785 126.847C205.725 125.552 207.116 124.3 208.552 121.772L208.559 121.765Z" fill="white"/>
<path d="M177.319 225.466L180.634 227.403C182.59 226.299 181.731 219.758 186.19 224.572C186.503 224.909 184.302 227.694 182.973 229.82L184.726 232.445C184.367 232.586 184.103 232.791 183.835 232.764C182.403 232.612 180.246 231.705 179.667 232.348C177.473 234.778 175.793 237.696 173.925 240.435C175.377 241.196 176.807 242.376 178.29 242.551C179.286 242.679 180.345 241.381 181.598 240.587C181.586 245.487 179.168 245.792 168.465 242.795C164.736 232.344 164.754 230.701 168.304 229.329C168.49 231.592 168.699 233.971 168.894 236.35C171.249 235.076 173.692 233.938 175.928 232.484C178.363 230.898 179.907 228.828 177.32 225.48L177.319 225.466Z" fill="white"/>
<path d="M221.862 208.633C220.284 212.819 218.563 214.293 214.892 211.176C212.342 209.013 209.247 207.578 206.601 205.508C202.344 202.19 202.453 195.868 206.802 193.438C207.696 192.935 209.242 193.546 211.453 193.727C207.416 199.003 210.603 201.154 214.296 203.35C216.848 204.86 219.205 206.762 221.862 208.633Z" fill="white"/>
<path d="M133.17 182.209C141.985 173.298 152.208 177.801 162.757 180.618C160.906 183.506 159.395 185.866 158.274 187.61C154.622 185.704 151.018 182.74 147.248 182.172C143.563 181.618 139.701 183.505 135.046 184.507C134.984 184.421 134.073 183.265 133.161 182.094L133.17 182.209Z" fill="white"/>
<path d="M70.4945 130.652C73.0924 130.353 75.4062 130.078 77.3131 129.857L77.2597 136.625C74.3474 135.585 66.9439 140.909 67.7072 144.942C67.9002 145.979 70.4582 147.122 72.0233 147.432C72.9865 147.625 74.1193 146.337 75.5048 145.515C74.9574 148.839 72.947 150.136 69.4392 149.946C64.2366 149.657 60.3944 146.455 59.5493 140.851C59.1577 138.265 57.1943 134.309 61.8091 133.24C62.0183 133.771 62.2383 134.087 62.2482 134.39C62.2985 136.626 62.3071 138.862 62.3295 141.098C64.3254 140.148 66.7906 139.67 68.1966 138.134C70.1349 136.009 75.2067 134.279 70.5009 130.645L70.4945 130.652Z" fill="white"/>
<path d="M55.9395 168.154C55.6929 165.899 55.4963 164.104 55.2774 162.115C56.5808 161.994 57.5199 161.834 58.4703 161.817C63.9781 161.721 69.4893 161.667 75.5611 161.586L76.2149 167.431L55.9395 168.154Z" fill="white"/>
<path d="M171.308 185.463C173.56 188.075 176.179 190.771 173.462 194.236C171.166 197.159 164.618 197.617 162.389 195.291C159.66 192.439 159.753 187.441 162.437 184.343C165.636 180.643 168.424 183.021 171.315 185.47L171.308 185.463ZM165.511 192.116C167.662 191.686 169.452 191.856 170.007 191.068C170.593 190.229 170.005 188.476 169.926 187.127C168.647 187.176 166.933 186.733 166.216 187.407C165.498 188.068 165.785 189.867 165.518 192.124L165.511 192.116Z" fill="white"/>
<path d="M146.677 127.868C138.53 133.456 133.496 140.893 133.824 151.659C133.857 152.555 132.827 153.396 132.292 154.257C131.401 153.432 130.321 152.74 129.646 151.767C126.561 147.296 127.285 143.843 131.014 140.434C134.968 136.819 138.159 132.364 141.837 128.434C142.82 127.387 144.428 126.954 145.74 126.243L146.67 127.876L146.677 127.868Z" fill="white"/>
<path d="M118.459 152.546L122.066 157.323L121.78 157.93L116.911 154.697L116.126 155.324L119.695 160.676C117.607 159.308 116.112 158.33 113.548 156.658C114.235 158.946 114.595 160.165 114.963 161.391L114.329 162.081C112.959 160.569 111.18 159.242 110.298 157.488C108.371 153.666 110.198 149.318 113.841 148.088C117.491 146.866 121.004 148.853 122.704 153.325L119.202 151.654L118.451 152.539L118.459 152.546Z" fill="white"/>
<path d="M144.003 187.588L142.65 191.721L143.407 192.439C144.912 191.29 146.424 190.149 147.929 189L148.451 189.376L145.649 194.14L146.39 195.001C147.896 193.96 149.401 192.905 151.986 191.107C150.331 193.786 149.353 195.381 147.704 198.053C150.016 197.191 151.154 196.756 152.467 196.263C152.198 200.507 149.324 201.978 146.2 201.326C143.874 200.846 140.951 198.779 139.811 196.637C137.819 192.917 139.728 189.934 144.011 187.596L144.003 187.588Z" fill="white"/>
<path d="M155.59 105.529L145.378 117.03L143.779 116.275C144.839 113.643 145.324 110.445 147.115 108.525C149.05 106.443 152.21 105.552 154.844 104.139L155.605 105.529L155.59 105.529Z" fill="white"/>
<path d="M132.866 182.888L124.933 187.62L127.24 174.312C129.676 178.063 131.279 180.53 132.868 182.997L132.859 182.881L132.866 182.888Z" fill="white"/>
<path d="M91.6885 179.625L103.008 190.206C96.6948 189.743 93.9283 187.258 91.6885 179.625Z" fill="white"/>
<path d="M108.264 194.578L118.66 204.288C113.607 204.264 109.582 200.643 108.264 194.578Z" fill="white"/>
<path d="M126.437 163.987L136.887 173.707L136.082 174.758C132.464 171.668 128.86 168.578 125.243 165.488L126.429 163.98L126.437 163.987Z" fill="white"/>
<path d="M134.206 218.105C129.076 216.938 125.324 215.302 124.386 208.93L134.206 218.105Z" fill="white"/>
<path d="M116.522 170.848L122.605 177.057L121.597 178.052L115.173 172.044L116.529 170.855L116.522 170.848Z" fill="white"/>
<path d="M137.215 165.914C139.332 168.228 141.29 170.367 143.383 172.646C138.86 172.898 137.627 171.532 137.215 165.914Z" fill="white"/>
<path d="M145.881 154.904C144.865 152.358 142.539 149.785 145.992 146.814C148.375 148.66 150.912 150.638 153.448 152.603C153.766 154.569 154.077 156.527 154.705 160.36C151.021 158.078 148.454 156.488 145.887 154.897L145.881 154.904Z" fill="white"/>
<path d="M160.335 158.411C162.779 161.253 165.231 164.102 168.341 167.716C166.251 168.218 165.015 168.509 163.779 168.8C162.337 168.09 160.842 167.472 159.452 166.642C156.559 164.925 154.538 162.744 155.638 159.185L160.328 158.404L160.335 158.411Z" fill="white"/>
<path d="M160.326 158.612L155.666 159.372C154.589 162.883 156.598 165.054 159.479 166.761C160.856 167.58 162.344 168.196 163.787 168.909C162.864 168.864 161.614 169.219 161.069 168.732C155.948 164.135 150.945 159.405 145.904 154.703C148.461 156.285 151.019 157.868 154.69 160.137C154.068 156.339 153.746 154.392 153.418 152.451C155.716 154.509 158.015 156.568 160.313 158.626L160.326 158.612Z" fill="black"/>
<path d="M153.706 89.6017C152.288 88.8826 149.728 88.1962 149.654 87.4353C149.291 83.875 149.529 80.2729 149.906 76.7628C149.928 76.5183 154.171 76.6996 154.191 76.8647C154.736 80.7178 154.971 84.5812 155.261 88.4584L153.707 89.616L153.706 89.6017Z" fill="black"/>
<path d="M232.044 165.694C231.386 167.052 230.878 169.508 230.035 169.574C226.893 169.813 223.535 169.781 220.469 168.855C218.12 168.144 217.629 164.979 219.977 164.359C223.33 163.457 227.144 163.987 230.75 163.909L232.037 165.701L232.044 165.694Z" fill="black"/>
<path d="M106.821 234.063L101.408 234.742C101.115 233.189 100.822 231.636 100.55 230.076C100.524 229.931 100.622 229.741 100.717 229.616C102.531 227.478 104.305 225.289 106.272 223.31C106.474 223.112 108.617 224.307 108.575 224.577C108.169 227.604 107.506 230.576 106.821 234.063Z" fill="black"/>
<path d="M165.537 192.118C165.805 189.844 165.523 188.038 166.239 187.366C166.969 186.694 168.689 187.133 169.979 187.085C170.058 188.444 170.652 190.21 170.061 191.055C169.501 191.849 167.698 191.678 165.53 192.11L165.537 192.118Z" fill="black"/>
</svg>
