<svg width="166" height="100" viewBox="0 0 166 100" fill="none" xmlns="http://www.w3.org/2000/svg">
<g clip-path="url(#clip0_4856_17253)">
<path d="M82.5283 99.688C58.6018 99.688 34.676 99.688 10.7509 99.688C8.69145 99.688 6.66306 99.562 4.86879 98.4114C2.10485 96.6392 0.99637 93.8613 0.561268 90.7474C0.429168 89.5625 0.379326 88.3697 0.412096 87.1778C0.403808 61.918 0.403808 36.6581 0.412096 11.3983C0.379979 10.244 0.464673 9.0894 0.664863 7.95261C1.61587 3.2849 5.10498 0.393562 9.9429 0.267578C10.3925 0.267578 10.84 0.267578 11.2896 0.267578H155.567C157.453 0.267578 159.297 0.502745 160.917 1.57571C163.948 3.57676 164.935 6.67178 165.293 10.0881C165.327 10.5071 165.338 10.9276 165.328 11.3479C165.328 37.1341 165.332 62.9195 165.341 88.7043C165.341 91.1253 165.073 93.4833 163.725 95.5327C161.773 98.4954 158.839 99.6586 155.451 99.6628C131.141 99.6936 106.833 99.702 82.5283 99.688ZM131.026 61.2859C132.786 61.3631 134.548 61.2363 136.28 60.908C140.668 60.0366 143.983 57.8445 145.127 53.1957C145.719 50.7005 145.687 48.095 145.034 45.6156C144.298 42.6487 142.492 40.6455 139.709 39.5096C138.419 39.014 137.084 38.6448 135.725 38.4072C133.86 38.0356 131.962 37.8739 130.143 37.3048C127.978 36.6245 127.085 35.3773 127.222 33.328C127.35 31.4067 128.487 30.2623 130.64 29.8802C132.074 29.6546 133.531 29.627 134.973 29.7983C137.314 30.0251 139.599 30.5584 141.882 31.098C143.078 31.3815 143.364 31.1673 143.575 29.9558C143.762 28.8891 143.941 27.821 144.114 26.7516C144.321 25.5148 144.091 25.1201 142.871 24.7526C141.982 24.4817 141.076 24.2529 140.167 24.0639C135.569 23.1022 130.949 22.6508 126.312 23.751C123.558 24.404 121.163 25.729 119.856 28.3894C118.06 32.045 117.888 35.8812 119.392 39.667C120.747 43.0791 123.71 44.4964 126.996 45.3363C129.275 45.9285 131.641 46.0209 133.87 46.8062C135.973 47.539 136.696 48.6959 136.541 50.9447C136.417 52.782 135.331 53.9663 133.354 54.403C131.612 54.7873 129.855 54.7054 128.102 54.5164C125.728 54.2602 123.424 53.6576 121.12 53.0466C119.953 52.7379 119.64 52.9479 119.421 54.1531C119.214 55.2534 119.033 56.3558 118.866 57.4602C118.658 58.8124 118.841 59.14 120.121 59.539C123.674 60.6812 127.327 61.1327 131.026 61.2859ZM90.271 42.1657C90.271 47.9001 90.2834 53.6345 90.2586 59.3689C90.2586 60.3452 90.5797 60.7652 91.5825 60.74C93.5819 60.6917 95.5834 60.74 97.5911 60.7253C98.8342 60.7253 99.0083 60.5468 99.0083 59.2681C99.0083 55.667 99.0373 52.0639 98.9855 48.4628C98.971 47.5495 99.1927 47.2681 100.127 47.2828C103.817 47.3353 107.509 47.2828 111.202 47.3143C112.03 47.3143 112.399 47.0329 112.37 46.151C112.327 44.8912 112.385 43.6314 112.37 42.3715C112.356 40.5531 112.347 40.5531 110.586 40.5531C107.064 40.5531 103.542 40.5342 100.019 40.5699C99.2341 40.5699 98.9482 40.3873 98.9689 39.5201C99.029 36.8639 99.0414 34.2035 98.9689 31.5411C98.942 30.5605 99.2776 30.4072 100.14 30.4156C104.314 30.4597 108.489 30.4156 112.664 30.4534C113.555 30.4534 113.922 30.1132 113.907 29.2209C113.883 27.7888 113.883 26.3561 113.907 24.9227C113.924 23.9757 113.516 23.6629 112.588 23.6629C105.618 23.6923 98.6478 23.6754 91.6779 23.6796C90.4161 23.6796 90.269 23.8497 90.269 25.1495C90.2717 30.83 90.2724 36.502 90.271 42.1657ZM30.6455 30.4807C31.9901 30.4807 33.3389 30.4513 34.6815 30.4807C35.732 30.5101 36.4655 30.0418 36.971 29.1558C38.3157 26.7977 39.6438 24.4292 40.9926 22.0712C41.5313 21.1285 41.4712 20.2214 40.947 19.2996C39.6376 16.9983 38.3378 14.6935 37.0477 12.3852C36.5235 11.4445 35.7714 10.9531 34.7002 10.9552C32.0109 10.9552 29.3174 10.9552 26.6197 10.9552C26.1681 10.9421 25.7221 11.0593 25.3336 11.2931C24.9452 11.527 24.6303 11.8678 24.4256 12.276C23.0885 14.6389 21.7508 17.0011 20.4123 19.3626C20.1645 19.7655 20.0332 20.2306 20.0332 20.7054C20.0332 21.1801 20.1645 21.6453 20.4123 22.0481C21.7618 24.446 23.1133 26.8418 24.467 29.2355C24.6684 29.6258 24.9758 29.9497 25.3528 30.1688C25.7298 30.3879 26.1607 30.4932 26.5949 30.4723C27.954 30.4765 29.3008 30.4807 30.6455 30.4807ZM81.2002 41.8361C81.2002 36.0352 81.2002 30.2322 81.2002 24.4272C81.2002 23.1211 81.0365 22.9804 79.7374 23.1484C77.6842 23.413 75.635 23.7028 73.5817 23.9526C72.8006 24.0492 72.4629 24.3726 72.465 25.2314C72.4926 36.5923 72.4988 47.9533 72.4836 59.3143C72.4836 60.6203 72.5893 60.7211 73.934 60.7232C75.8678 60.7232 77.8016 60.7232 79.7353 60.7232C81.1235 60.7232 81.2126 60.6287 81.2126 59.2534C81.2002 53.4441 81.1946 47.6383 81.196 41.8361H81.2002ZM49.3259 42.5164C50.6022 42.5164 51.8826 42.4744 53.1568 42.529C53.6416 42.5738 54.1285 42.4701 54.5545 42.2313C54.9804 41.9924 55.3257 41.6294 55.5457 41.1894C56.9146 38.7649 58.2793 36.3348 59.6398 33.8991C59.8394 33.5674 59.946 33.1869 59.9482 32.7985C59.9504 32.41 59.8481 32.0283 59.6523 31.6944C58.2807 29.2293 56.8994 26.7698 55.5084 24.3159C55.3059 23.9249 54.999 23.5994 54.6228 23.3767C54.2466 23.1539 53.8161 23.0428 53.3806 23.056C50.6519 23.056 47.9252 23.056 45.1986 23.0455C44.764 23.0282 44.3335 23.1355 43.9564 23.355C43.5792 23.5745 43.2709 23.8974 43.0666 24.2865C41.7012 26.6739 40.3731 29.0844 39.0139 31.476C38.7748 31.8646 38.648 32.3135 38.648 32.7715C38.648 33.2296 38.7748 33.6784 39.0139 34.067C40.3565 36.4691 41.7074 38.8628 43.0604 41.2628C43.2606 41.6536 43.5669 41.9783 43.9432 42.1985C44.3195 42.4188 44.75 42.5254 45.1841 42.5059C46.5626 42.5101 47.9418 42.5136 49.3217 42.5164H49.3259ZM49.2098 64.9647C50.4198 64.9647 51.6319 64.8996 52.8336 64.9836C54.2715 65.0844 55.1583 64.4544 55.8213 63.2072C56.9981 60.992 58.2434 58.8124 59.4969 56.6413C60.0646 55.6565 60.0377 54.7515 59.4803 53.7752C58.1405 51.4501 56.8131 49.1187 55.4981 46.781C55.2918 46.3748 54.9738 46.0378 54.5826 45.8109C54.1914 45.5839 53.7437 45.4767 53.2936 45.5022C50.6001 45.5022 47.9066 45.5253 45.2131 45.5022C44.1917 45.5022 43.5058 45.9767 43.0252 46.8208C41.6991 49.1516 40.4 51.4991 39.0678 53.8277C38.5084 54.804 38.5312 55.7321 39.0885 56.698C40.4076 58.9937 41.7143 61.2957 43.0086 63.604C43.5141 64.5069 44.2351 64.9815 45.2732 64.971C46.5826 64.9521 47.8983 64.9689 49.2057 64.9689L49.2098 64.9647ZM94.3382 80.0534C94.3382 78.7263 94.2968 77.3972 94.3548 76.0744C94.39 75.2681 94.0046 75.0833 93.3582 75.1925C92.7874 75.3029 92.2072 75.3556 91.6261 75.35C88.9098 75.2618 88.0292 76.1458 88.0064 78.9195C87.9774 82.1153 88.802 82.972 91.9804 82.8712C92.8816 82.8418 92.8589 83.2912 92.7408 83.8938C92.633 84.4502 92.1917 84.6518 91.7172 84.8135C91.048 85.0403 90.3518 84.9563 89.6681 85.0067C89.3076 85.0319 88.9699 85.0844 88.9512 85.5673C88.9326 86.0502 89.2724 86.1552 89.6184 86.1972C90.6471 86.3249 91.6909 86.2297 92.6807 85.918C93.8907 85.5505 94.3382 84.8912 94.3382 83.6082C94.3444 82.4261 94.3341 81.2397 94.3341 80.0534H94.3382ZM86.5374 79.1631H86.5934C86.5333 78.6109 86.5084 78.0502 86.4069 77.5043C86.1749 76.2676 85.4911 75.6145 84.2853 75.4046C81.3224 74.9027 79.9591 76.0345 79.9342 79.0455C79.9342 79.3605 79.9342 79.6754 79.955 79.9883C80.0668 81.9243 80.9619 82.8334 82.8556 82.9405C85.3709 83.0812 86.4069 82.1321 86.5271 79.5809C86.5395 79.4424 86.5333 79.3038 86.5333 79.1631H86.5374ZM72.4753 77.5904C72.4753 79.0224 72.4919 80.4544 72.4753 81.8885C72.4753 82.4849 72.6245 82.7915 73.2855 82.7768C74.9741 82.7453 76.6648 82.7558 78.3534 82.7642C78.8465 82.7642 79.1366 82.6403 79.1179 82.0586C79.1013 81.5127 78.8631 81.3237 78.3492 81.33C77.2801 81.3447 76.2089 81.2859 75.144 81.33C74.3732 81.3657 74.1267 81.0907 74.1432 80.3096C74.1888 77.9999 74.1681 75.6901 74.1598 73.3804C74.1598 72.9206 74.3048 72.3473 73.4844 72.4103C72.8483 72.4586 72.4484 72.6014 72.4691 73.3825C72.5002 74.7935 72.4691 76.192 72.4712 77.5904H72.4753ZM102.406 82.9279C102.613 82.9385 102.821 82.9385 103.028 82.9279C104.547 82.781 105.355 82.0062 105.39 80.6728C105.425 79.3395 104.87 78.7978 103.279 78.487C103.071 78.4471 102.864 78.4093 102.671 78.3589C102.141 78.2224 101.486 78.1636 101.559 77.3909C101.631 76.6182 102.296 76.5237 102.881 76.5027C103.426 76.4838 103.975 76.6119 104.524 76.656C104.855 76.6833 105.031 76.5048 105.058 76.1668C105.085 75.8287 105.023 75.6335 104.665 75.5558C103.54 75.3164 102.408 75.1904 101.296 75.5558C100.37 75.8581 99.9179 76.5825 99.9199 77.5547C99.922 78.5269 100.415 79.2135 101.354 79.4949C101.88 79.6524 102.429 79.7321 102.966 79.8581C103.453 79.9694 103.774 80.2466 103.774 80.7904C103.774 81.3342 103.39 81.5946 102.92 81.6723C102.169 81.8023 101.399 81.7497 100.672 81.519C100.336 81.414 100.05 81.4497 99.9386 81.8529C99.8267 82.256 99.9386 82.5206 100.374 82.634C101.03 82.8396 101.715 82.9389 102.402 82.9279H102.406ZM125.935 75.3248C125.556 75.3287 125.177 75.356 124.802 75.4067C123.59 75.6418 122.916 76.4293 122.937 77.5463C122.958 78.6634 123.558 79.3332 124.77 79.6061C125.185 79.6964 125.585 79.7531 125.985 79.8602C126.443 79.9841 126.834 80.1962 126.813 80.7778C126.793 81.3594 126.399 81.6345 125.869 81.6933C125.181 81.7819 124.483 81.7261 123.817 81.5295C123.403 81.4014 123.069 81.4518 122.941 81.96C122.813 82.4681 123.173 82.5689 123.505 82.655C124.541 82.9237 125.603 83.0749 126.677 82.8124C127.82 82.5353 128.461 81.7269 128.442 80.5615C128.425 79.4382 127.905 78.8166 126.724 78.5332C126.389 78.4513 126.045 78.4093 125.705 78.3421C125.158 78.235 124.511 78.1573 124.584 77.393C124.657 76.6287 125.297 76.5006 125.904 76.4943C126.454 76.5145 127.004 76.565 127.549 76.6455C127.901 76.6812 128.042 76.4943 128.09 76.1647C128.137 75.835 128.032 75.6355 127.69 75.5641C127.117 75.4052 126.525 75.3247 125.931 75.3248H125.935ZM119.386 75.3248C116.984 75.3248 116.209 76.0597 115.963 78.3799C115.916 79.0417 115.936 79.7065 116.023 80.3641C116.162 81.834 117.032 82.7347 118.47 82.8838C119.191 82.9836 119.924 82.9415 120.629 82.7599C121.027 82.6466 121.638 82.6886 121.549 82.0187C121.441 81.2082 120.85 81.5988 120.413 81.6282C119.976 81.6576 119.518 81.687 119.073 81.6765C118.809 81.685 118.549 81.6124 118.327 81.468C118.105 81.3237 117.932 81.1145 117.83 80.8681C117.394 79.6208 117.231 78.2707 117.979 77.1285C118.6 76.1794 119.688 76.4377 120.647 76.6308C120.717 76.6398 120.787 76.6546 120.855 76.6749C121.244 76.824 121.445 76.6413 121.534 76.276C121.623 75.9106 121.511 75.6607 121.132 75.5662C120.563 75.3978 119.972 75.3199 119.379 75.3353L119.386 75.3248ZM107.058 77.5715C107.058 78.7264 107.058 79.8812 107.058 81.0319C107.058 81.6618 107.242 82.2182 107.812 82.5458C108.755 83.0875 109.743 82.9468 110.729 82.6886C110.831 82.664 110.919 82.6014 110.977 82.5134C111.035 82.4254 111.058 82.3185 111.042 82.214C111.027 81.9558 110.951 81.7101 110.671 81.6555C110.465 81.632 110.256 81.632 110.05 81.6555C108.794 81.7017 108.622 81.5337 108.612 80.2277C108.612 79.5285 108.612 78.8293 108.612 78.1279C108.612 76.7274 108.612 76.7232 109.969 76.6581C110.383 76.6413 110.843 76.74 110.864 76.0954C110.885 75.4508 110.414 75.5285 110.006 75.5096C108.63 75.4487 108.645 75.4445 108.591 74.0691C108.576 73.6723 108.798 73.0403 108.05 73.0865C107.406 73.1243 106.975 73.3804 107.027 74.1993C107.105 75.3416 107.054 76.4628 107.054 77.582L107.058 77.5715ZM114.152 79.1568C114.152 78.1804 114.133 77.204 114.152 76.2277C114.166 75.6208 113.835 75.5516 113.358 75.5726C112.925 75.5936 112.53 75.5726 112.53 76.2025C112.548 78.1202 112.548 80.0387 112.53 81.9579C112.53 82.5374 112.772 82.7579 113.338 82.762C113.903 82.7663 114.166 82.5836 114.137 81.9768C114.121 81.0508 114.146 80.1101 114.148 79.1673L114.152 79.1568ZM98.0345 79.1736C98.0345 78.2329 98.0138 77.2838 98.0345 76.3515C98.0511 75.7615 97.8273 75.5557 97.243 75.5641C96.6587 75.5725 96.4619 75.7993 96.4702 76.3788C96.493 78.2245 96.4889 80.0723 96.4702 81.9201C96.4702 82.466 96.5945 82.7452 97.2099 82.7599C97.8687 82.7767 98.0511 82.4912 98.0386 81.8907C98.0138 80.9962 98.0386 80.087 98.0386 79.1841L98.0345 79.1736ZM114.164 73.5505C114.164 72.8975 114.258 72.3096 113.389 72.3117C112.677 72.3117 112.521 72.6833 112.544 73.3111C112.567 73.9389 112.517 74.5143 113.406 74.5164C114.2 74.529 114.181 74.023 114.16 73.561L114.164 73.5505ZM98.0283 73.4686C98.0552 72.8996 98.0967 72.3642 97.241 72.3642C96.4288 72.3642 96.5054 72.8786 96.4868 73.414C96.464 74.004 96.4329 74.5038 97.2762 74.5143C98.1194 74.5248 98.0387 74.0229 98.0241 73.4791L98.0283 73.4686Z" fill="#FEFEFE"/>
<path d="M131.025 61.2864C127.327 61.1331 123.674 60.6817 120.129 59.5458C118.849 59.1258 118.667 58.8192 118.874 57.467C119.042 56.3626 119.23 55.2602 119.429 54.1599C119.649 52.9547 119.961 52.7447 121.128 53.0534C123.432 53.6602 125.736 54.2628 128.11 54.5232C129.863 54.7122 131.62 54.794 133.363 54.4098C135.339 53.973 136.425 52.7888 136.549 50.9515C136.705 48.709 135.982 47.5458 133.879 46.813C131.649 46.0339 129.273 45.9416 127.004 45.3431C123.718 44.4864 120.755 43.0775 119.4 39.6738C117.896 35.8943 118.068 32.0518 119.864 28.3961C121.171 25.7358 123.567 24.4066 126.32 23.7578C130.957 22.6576 135.577 23.109 140.175 24.0707C141.085 24.2597 141.99 24.4906 142.879 24.7594C144.091 25.1269 144.317 25.5216 144.122 26.7584C143.948 27.8264 143.768 28.8945 143.583 29.9626C143.376 31.1741 143.086 31.3883 141.891 31.1048C139.612 30.5652 137.332 30.0318 134.981 29.8051C133.54 29.6338 132.082 29.6614 130.648 29.887C128.496 30.2691 127.358 31.4135 127.23 33.3347C127.093 35.3841 127.986 36.6313 130.151 37.3116C131.97 37.8807 133.881 38.0423 135.733 38.414C137.093 38.6516 138.427 39.0208 139.717 39.5164C142.5 40.6523 144.306 42.666 145.042 45.6224C145.695 48.1018 145.727 50.7073 145.135 53.2024C143.992 57.8513 140.676 60.0434 136.288 60.9148C134.554 61.2416 132.788 61.3663 131.025 61.2864Z" fill="#1E365A"/>
<path d="M90.2721 42.1653C90.2721 36.5002 90.2721 30.8358 90.2721 25.1722C90.2721 23.8661 90.4192 23.7023 91.681 23.7023C98.651 23.7023 105.621 23.7149 112.591 23.6855C113.519 23.6855 113.927 24.0005 113.911 24.9454C113.886 26.3774 113.886 27.8101 113.911 29.2435C113.927 30.1359 113.56 30.4824 112.667 30.4761C108.493 30.4446 104.318 30.4761 100.143 30.4383C99.2808 30.4383 98.9452 30.5832 98.9721 31.5638C99.0487 34.2178 99.0363 36.8782 98.9721 39.5428C98.9514 40.4037 99.2373 40.5926 100.023 40.5926C103.545 40.5569 107.067 40.5758 110.589 40.5758C112.35 40.5758 112.359 40.5758 112.373 42.3942C112.373 43.654 112.326 44.9139 112.373 46.1737C112.402 47.0556 112.027 47.3412 111.205 47.337C107.513 47.316 103.82 47.358 100.13 47.3055C99.2021 47.2908 98.9741 47.5722 98.9887 48.4855C99.0405 52.0866 99.0094 55.6897 99.0114 59.2908C99.0114 60.5695 98.8457 60.7438 97.5943 60.748C95.5928 60.748 93.5913 60.7144 91.5857 60.7627C90.5829 60.7879 90.2576 60.3679 90.2618 59.3916C90.2845 53.6299 90.2721 47.8997 90.2721 42.1653Z" fill="#1E365A"/>
<path d="M30.6446 30.4809C29.3 30.4809 27.9512 30.4809 26.6086 30.4809C26.1744 30.5018 25.7435 30.3965 25.3665 30.1774C24.9895 29.9583 24.6821 29.6345 24.4807 29.2442C23.1229 26.8505 21.7713 24.4547 20.426 22.0568C20.1782 21.6539 20.0469 21.1887 20.0469 20.714C20.0469 20.2393 20.1782 19.7741 20.426 19.3712C21.7644 17.0097 23.1022 14.6475 24.4393 12.2846C24.644 11.8764 24.9589 11.5356 25.3474 11.3018C25.7358 11.068 26.1818 10.9508 26.6334 10.9639C29.3228 10.9639 32.0163 10.9639 34.7139 10.9639C35.7851 10.9639 36.5372 11.4531 37.0613 12.3938C38.3473 14.7063 39.6471 17.0111 40.9607 19.3082C41.4849 20.23 41.545 21.1371 41.0063 22.0799C39.6575 24.4379 38.3294 26.8064 36.9847 29.1644C36.4792 30.0505 35.7416 30.5187 34.6952 30.4893C33.3361 30.4515 31.9893 30.4809 30.6446 30.4809Z" fill="#1E365A"/>
<path d="M81.1969 41.8351C81.1969 47.6388 81.1969 53.4418 81.1969 59.2441C81.1969 60.6299 81.1078 60.7139 79.7196 60.7139C77.7858 60.7139 75.852 60.7139 73.9182 60.7139C72.5818 60.7139 72.4679 60.611 72.4679 59.305C72.4679 47.944 72.4617 36.583 72.4492 25.222C72.4492 24.359 72.7849 24.0399 73.566 23.9433C75.6193 23.6934 77.6684 23.4037 79.7216 23.1391C81.0207 22.9711 81.172 23.1118 81.1844 24.4178C81.1955 30.2271 81.1996 36.0329 81.1969 41.8351Z" fill="#1E365A"/>
<path d="M49.3206 42.5149H45.1767C44.7427 42.5344 44.3121 42.4278 43.9358 42.2075C43.5596 41.9873 43.2533 41.6627 43.053 41.2719C41.7063 38.8719 40.3595 36.4782 39.0066 34.0761C38.7674 33.6874 38.6406 33.2385 38.6406 32.7805C38.6406 32.3225 38.7674 31.8736 39.0066 31.485C40.3637 29.0934 41.7001 26.6829 43.0593 24.2955C43.2635 23.9064 43.5719 23.5835 43.949 23.364C44.3261 23.1445 44.7567 23.0373 45.1912 23.0545C47.9179 23.0692 50.6445 23.0545 53.3733 23.065C53.8088 23.0518 54.2392 23.1629 54.6155 23.3857C54.9917 23.6085 55.2986 23.9339 55.5011 24.3249C56.892 26.7788 58.2733 29.2383 59.6449 31.7033C59.8407 32.0373 59.943 32.419 59.9408 32.8075C59.9386 33.1959 59.8321 33.5764 59.6325 33.9081C58.2706 36.341 56.9059 38.7711 55.5384 41.1984C55.3184 41.6385 54.973 42.0014 54.5471 42.2403C54.1212 42.4791 53.6343 42.5829 53.1495 42.538C51.8773 42.475 50.5907 42.517 49.3206 42.5149Z" fill="#B5D3E3"/>
<path d="M49.2069 64.9685C47.8954 64.9685 46.5838 64.9559 45.2702 64.9685C44.2343 64.9685 43.5112 64.5045 43.0056 63.6016C41.7114 61.2919 40.4047 58.9899 39.0856 56.6956C38.5282 55.7297 38.5054 54.8058 39.0648 53.8252C40.3971 51.4966 41.6962 49.1491 43.0222 46.8184C43.5029 45.9785 44.1887 45.4893 45.2101 45.4998C47.9036 45.5271 50.5971 45.5145 53.2906 45.4998C53.7407 45.4743 54.1884 45.5815 54.5796 45.8084C54.9709 46.0354 55.2889 46.3723 55.4951 46.7785C56.8087 49.1176 58.1361 51.449 59.4774 53.7727C60.0347 54.7386 60.0616 55.6625 59.4939 56.6389C58.2508 58.81 56.9952 60.9895 55.8183 63.2047C55.1553 64.452 54.2686 65.0819 52.8307 64.9811C51.6289 64.8993 50.4169 64.9685 49.2069 64.9685Z" fill="#B5D3E3"/>
<path d="M94.3325 80.0525C94.3325 81.2389 94.3429 82.4252 94.3325 83.6221C94.3201 84.9134 93.8808 85.5727 92.675 85.9318C91.6852 86.2435 90.6414 86.3388 89.6127 86.2111C89.2667 86.1628 88.9269 86.0515 88.9455 85.5812C88.9642 85.1108 89.3019 85.0457 89.6624 85.0205C90.3461 84.9701 91.0423 85.0541 91.7115 84.8273C92.186 84.6657 92.6273 84.4641 92.7351 83.9076C92.8532 83.2987 92.8759 82.8578 91.9747 82.8851C88.7963 82.9859 87.9717 82.1292 88.0007 78.9334C88.0235 76.1512 88.9041 75.2672 91.6204 75.3638C92.2015 75.3695 92.7817 75.3167 93.3525 75.2063C93.9989 75.0971 94.3884 75.2819 94.3491 76.0882C94.2911 77.411 94.3325 78.7402 94.3325 80.0672V80.0525ZM92.7806 79.1496C92.7806 78.5575 92.7806 77.9654 92.7806 77.3732C92.7806 77.1003 92.8055 76.8252 92.5051 76.6467C91.4422 76.0168 89.8344 76.7307 89.7038 77.9696C89.6161 78.7655 89.6238 79.5692 89.7266 80.3633C89.8717 81.4132 90.7004 81.8184 92.0348 81.6966C93.1349 81.5979 92.6957 80.7685 92.7744 80.1953C92.8003 79.8473 92.8024 79.4979 92.7806 79.1496Z" fill="#B5D3E3"/>
<path d="M86.5342 79.1635C86.5342 79.3042 86.5342 79.4428 86.5342 79.5835C86.414 82.1326 85.3781 83.0816 82.8628 82.9431C80.967 82.836 80.0719 81.9268 79.9621 79.9908C79.9455 79.6759 79.9414 79.3609 79.9414 79.0481C79.958 76.0475 81.3213 74.9053 84.2924 75.4071C85.4983 75.6171 86.182 76.2659 86.414 77.5068C86.5156 78.0528 86.5404 78.6134 86.6005 79.1656L86.5342 79.1635ZM81.6031 79.0754C81.6031 79.3903 81.5886 79.7053 81.6031 80.0181C81.6652 81.2444 82.0651 81.6979 83.0845 81.742C84.2924 81.7882 84.7876 81.3641 84.8808 80.1105C84.9371 79.4118 84.9371 78.7095 84.8808 78.0108C84.7835 76.8832 84.2883 76.4696 83.1943 76.4864C82.1853 76.5011 81.7253 76.9378 81.6196 78.0234C81.5741 78.374 81.6031 78.7268 81.6031 79.0754Z" fill="#B5D3E3"/>
<path d="M125.93 75.3242C126.518 75.3258 127.103 75.4063 127.67 75.5636C128.012 75.635 128.118 75.8282 128.07 76.1641C128.022 76.5001 127.881 76.6807 127.529 76.645C126.984 76.5644 126.435 76.5139 125.884 76.4938C125.277 76.4938 124.641 76.6429 124.564 77.3925C124.488 78.1421 125.138 78.2324 125.685 78.3415C126.025 78.4087 126.369 78.4507 126.704 78.5326C127.885 78.8161 128.406 79.4376 128.422 80.561C128.441 81.7263 127.801 82.5347 126.657 82.8119C125.584 83.0744 124.529 82.9232 123.485 82.6544C123.153 82.5683 122.793 82.4654 122.921 81.9594C123.05 81.4534 123.381 81.4009 123.798 81.529C124.463 81.7256 125.161 81.7813 125.849 81.6927C126.379 81.6339 126.765 81.3841 126.794 80.7773C126.823 80.1704 126.433 79.9836 125.965 79.8597C125.565 79.7526 125.155 79.6959 124.751 79.6056C123.537 79.3326 122.934 78.6502 122.917 77.5458C122.9 76.4413 123.574 75.6413 124.782 75.4061C125.162 75.3549 125.546 75.3275 125.93 75.3242Z" fill="#B5D3E3"/>
<path d="M119.379 75.3346C119.968 75.326 120.555 75.4096 121.12 75.5824C121.499 75.6769 121.613 75.9288 121.522 76.2921C121.43 76.6553 121.231 76.8401 120.842 76.691C120.774 76.6707 120.705 76.6559 120.635 76.6469C119.675 76.4537 118.59 76.1955 117.966 77.1446C117.218 78.2868 117.382 79.637 117.817 80.8842C117.919 81.1306 118.093 81.3398 118.315 81.4841C118.537 81.6284 118.797 81.7011 119.06 81.6926C119.506 81.6926 119.953 81.6716 120.401 81.6443C120.848 81.617 121.437 81.2244 121.536 82.0349C121.625 82.7047 121.014 82.6648 120.616 82.7761C119.911 82.9576 119.178 82.9997 118.457 82.8999C117.019 82.7446 116.149 81.8501 116.01 80.3803C115.924 79.7226 115.904 79.0578 115.95 78.396C116.205 76.0695 116.98 75.3325 119.379 75.3346Z" fill="#B5D3E3"/>
<path d="M107.054 77.5822C107.054 76.4631 107.106 75.3418 107.035 74.2227C106.984 73.4038 107.415 73.1476 108.059 73.1098C108.817 73.0636 108.585 73.6956 108.6 74.0925C108.654 75.4678 108.639 75.472 110.015 75.5329C110.429 75.5518 110.895 75.4594 110.873 76.1187C110.85 76.778 110.388 76.6647 109.978 76.6815C108.616 76.7361 108.618 76.7403 108.62 78.1513C108.62 78.8505 108.62 79.5497 108.62 80.251C108.631 81.5571 108.803 81.7208 110.058 81.6788C110.265 81.6553 110.473 81.6553 110.68 81.6788C110.96 81.7334 111.036 81.9791 111.051 82.2374C111.067 82.3419 111.044 82.4488 110.986 82.5368C110.928 82.6247 110.84 82.6873 110.738 82.7119C109.752 82.9702 108.763 83.1108 107.821 82.5691C107.251 82.2416 107.069 81.6872 107.067 81.0552C107.067 79.9025 107.067 78.7455 107.067 77.5948L107.054 77.5822Z" fill="#B5D3E3"/>
<path d="M114.147 79.1672C114.147 80.11 114.122 81.057 114.147 81.9914C114.168 82.5982 113.909 82.7809 113.347 82.7767C112.786 82.7725 112.537 82.552 112.539 81.9725C112.549 80.0533 112.549 78.1348 112.539 76.2171C112.539 75.5871 112.931 75.6039 113.368 75.5871C113.844 75.5661 114.176 75.6354 114.161 76.2423C114.13 77.2144 114.149 78.1971 114.147 79.1672Z" fill="#B5D3E3"/>
<path d="M98.0374 79.1839C98.0374 80.0889 98.0208 80.996 98.0374 81.901C98.0519 82.5015 97.8696 82.7871 97.2086 82.7703C96.5871 82.7556 96.4628 82.4763 96.469 81.9304C96.4897 80.0826 96.4938 78.2348 96.469 76.3892C96.469 75.8096 96.6616 75.5829 97.2418 75.5745C97.8219 75.5661 98.0498 75.7718 98.0332 76.3619C98.0084 77.3026 98.0374 78.2432 98.0374 79.1839Z" fill="#B5D3E3"/>
<path d="M114.161 73.5611C114.182 74.0231 114.194 74.5291 113.403 74.527C112.514 74.527 112.562 73.9433 112.541 73.3218C112.52 72.7002 112.673 72.3265 113.386 72.3223C114.254 72.3181 114.169 72.9081 114.161 73.5611Z" fill="#B5D3E3"/>
<path d="M98.0245 73.4792C98.0245 74.023 98.0908 74.5291 97.2724 74.5291C96.454 74.5291 96.4602 74.0188 96.483 73.4288C96.5016 72.8976 96.425 72.3789 97.2372 72.3789C98.0929 72.3747 98.0514 72.9102 98.0245 73.4792Z" fill="#B5D3E3"/>
<path d="M92.7835 79.1507C92.8075 79.5003 92.8075 79.8511 92.7835 80.2006C92.7047 80.7738 93.144 81.6032 92.0438 81.7019C90.7095 81.8237 89.8807 81.4184 89.7357 80.3686C89.6328 79.5745 89.6251 78.7708 89.7129 77.9748C89.8434 76.736 91.4512 76.0158 92.5141 76.652C92.8145 76.8305 92.7876 77.1056 92.7897 77.3785C92.7856 77.9664 92.7835 78.5586 92.7835 79.1507Z" fill="#FEFEFE"/>
<path d="M81.6021 79.0757C81.6021 78.7271 81.5731 78.3744 81.6021 78.0258C81.7078 76.9402 82.1677 76.5035 83.1767 76.4888C84.2707 76.472 84.7659 76.8856 84.8633 78.0132C84.9196 78.7119 84.9196 79.4142 84.8633 80.1129C84.77 81.3728 84.2748 81.7927 83.0669 81.7444C82.0475 81.7066 81.6476 81.2468 81.5855 80.0205C81.5689 79.7077 81.5855 79.3906 81.5855 79.0777L81.6021 79.0757Z" fill="#FEFEFE"/>
<rect x="69.2656" y="70" width="64.3173" height="20" fill="#FEFEFE"/>
<rect x="17.3164" y="7.5" width="47.0011" height="60" fill="#FEFEFE"/>
<path d="M72.8906 83.2163V71.2793H80.4699V73.263H75.4094V76.1451H80.1257V78.1288H75.4094V83.2163H72.8906Z" fill="#00AA8D"/>
<path d="M85.6206 83.4681C82.9583 83.4681 81.3633 81.6828 81.3633 79.069C81.3633 76.4552 82.9583 74.6758 85.6206 74.6758C88.2828 74.6758 89.8835 76.4552 89.8835 79.069C89.8835 81.6828 88.2885 83.4681 85.6206 83.4681ZM85.6206 81.8111C87.1181 81.8111 87.3418 80.3934 87.3418 79.069C87.3418 77.7446 87.1008 76.3269 85.6206 76.3269C84.1403 76.3269 83.8993 77.7446 83.8993 79.069C83.8993 80.3934 84.146 81.8111 85.6206 81.8111Z" fill="#00AA8D"/>
<path d="M95.3997 83.4681C92.7318 83.4681 91.1367 81.6828 91.1367 79.069C91.1367 76.4552 92.7318 74.6758 95.3997 74.6758C98.0677 74.6758 99.657 76.4552 99.657 79.069C99.657 81.6828 98.0619 83.4681 95.3997 83.4681ZM95.3997 81.8111C96.8915 81.8111 97.121 80.3934 97.121 79.069C97.121 77.7446 96.8743 76.3269 95.3997 76.3269C93.9252 76.3269 93.6785 77.7446 93.6785 79.069C93.6785 80.3934 93.9194 81.8111 95.3997 81.8111Z" fill="#00AA8D"/>
<path d="M106.89 71.2793H109.328V81.5652C109.328 82.1078 109.38 82.6737 109.408 83.2163H106.976C106.941 82.8196 106.907 82.4403 106.907 82.0494H106.872C106.627 82.4999 106.263 82.8715 105.821 83.122C105.379 83.3726 104.876 83.4922 104.371 83.4672C101.984 83.4672 100.859 81.2093 100.859 79.0739C100.859 76.8452 102.145 74.6749 104.681 74.6749C105.112 74.689 105.533 74.8056 105.912 75.0153C106.29 75.2251 106.615 75.5221 106.861 75.8826H106.89V71.2851V71.2793ZM105.134 81.8102C106.453 81.8102 106.89 80.2058 106.89 79.0681C106.89 77.9304 106.453 76.326 105.134 76.326C103.579 76.326 103.378 77.7962 103.378 79.0681C103.378 80.34 103.579 81.8102 105.134 81.8102Z" fill="#00AA8D"/>
<path d="M43.5614 24.6973H54.5086L59.9823 34.3414L54.5086 43.9855H43.5614L38.082 34.3414L43.5614 24.6973Z" fill="#00305D"/>
<path d="M43.501 47.166H54.454L59.9276 56.8101L54.454 66.4542H43.501L38.0273 56.8101L43.501 47.166Z" fill="#00305D"/>
<path d="M25.2119 12.5H36.1649L41.6385 22.1383L36.1649 31.7824H25.2119L19.7383 22.1383L25.2119 12.5Z" fill="#00AA8D"/>
</g>
<defs>
<clipPath id="clip0_4856_17253">
<rect width="165.741" height="100" fill="white"/>
</clipPath>
</defs>
</svg>
