<svg width="256" height="102" viewBox="0 0 256 102" fill="none" xmlns="http://www.w3.org/2000/svg">
<g clip-path="url(#clip0_4856_17252)">
<rect x="1" y="1" width="254" height="100" rx="2" fill="white"/>
<path d="M152.055 100.993H149.854C102.491 100.993 55.1282 100.993 7.76618 100.993C4.91069 100.993 2.82945 99.7567 1.56529 97.0667C1.16697 96.1684 0.97289 95.1856 0.998304 94.1955C0.998304 65.3957 0.998304 36.5942 0.998304 7.79081C0.998304 3.74594 3.76301 1.01289 7.76961 1.01289H149.008C163.025 1.01289 177.043 1.00989 191.061 1.00391H192.116C191.499 1.34487 191.011 1.36282 190.545 1.45075C176.869 4.24124 164.094 9.44177 152.286 17.2013C144.407 22.3839 137.305 28.5517 131.361 36.0995C126.255 42.5849 122.233 49.6984 120.341 57.955C118.298 66.8738 119.219 75.3619 124.017 83.1968C127.356 88.6486 132.01 92.575 137.432 95.5575C141.753 97.9371 146.339 99.5647 151.108 100.623C151.303 100.667 151.497 100.719 151.687 100.778C151.814 100.841 151.937 100.913 152.055 100.993ZM22.7631 61.3072H22.9721C22.9721 61.6661 22.9721 62.025 22.9721 62.3839C23.1057 66.5347 23.253 70.6872 23.3626 74.8397C23.378 75.3996 23.5339 75.5575 24.0478 75.5306C24.8459 75.4641 25.6478 75.4641 26.4459 75.5306C27.2904 75.6257 27.3743 75.2399 27.3024 74.5059C27.1739 73.0703 27.1157 71.6347 27.0386 70.2116C26.8125 66.0035 26.583 61.7953 26.3843 57.5853C26.3569 57.0362 26.189 56.8675 25.6751 56.8891C24.363 56.9226 23.0497 56.9226 21.7353 56.8891C21.2471 56.8765 21.0261 57.0542 20.8788 57.5351C19.9881 60.532 18.986 63.4911 18.27 66.5418C18.0405 67.5234 17.7835 68.4961 17.5009 69.6248C17.4239 69.4963 17.3585 69.3605 17.3056 69.2193C16.6204 65.2713 15.4334 61.4597 14.3936 57.6069C14.2343 57.0183 13.9654 56.8765 13.4309 56.8891C12.1753 56.925 10.918 56.9393 9.66242 56.8891C9.00636 56.8604 8.77853 57.0685 8.74599 57.7648C8.62608 60.331 8.44451 62.8953 8.28863 65.4615C8.09849 68.5643 7.92377 71.6688 7.70794 74.7679C7.66683 75.3709 7.82785 75.5593 8.39312 75.527C9.18964 75.4804 9.99131 75.4911 10.7913 75.527C11.2623 75.545 11.4285 75.3924 11.4473 74.8738C11.6032 70.6028 11.7899 66.3337 11.9612 62.0627C11.9612 61.8509 11.9989 61.641 12.0417 61.2013C12.1309 61.3745 12.2076 61.5545 12.2712 61.7397C12.9393 65.5082 13.9962 69.1726 14.964 72.8657C15.6064 75.3099 15.6012 75.2901 18.0251 75.283C18.5989 75.283 18.813 75.0497 18.9638 74.5149C19.4468 72.7958 19.9778 71.0892 20.4883 69.379C21.3105 66.6944 22.143 64.0331 22.7631 61.3072ZM35.6342 56.6414C34.8455 56.6046 34.0561 56.6929 33.2926 56.9034C31.3056 57.4561 29.7365 58.5562 29.1216 60.7276C28.3833 63.335 29.5138 65.6661 32.1415 66.9923C33.2189 67.5306 34.3683 67.9398 35.4372 68.4835C36.5061 69.0272 36.9018 69.7756 36.7408 70.6549C36.5798 71.5342 35.8843 72.1013 34.8 72.27C33.7722 72.4315 32.7582 72.2592 31.7424 72.0636C30.9596 71.911 30.05 71.003 29.5275 71.4875C29.0051 71.9721 29.065 73.1493 28.8201 73.9999C28.6762 74.5005 28.7721 74.7787 29.2517 74.96C31.9651 75.99 34.7092 76.2448 37.4465 75.1394C39.4764 74.3193 40.7011 72.7437 40.8724 70.4234C41.0437 68.1031 40.0125 66.4611 38.1231 65.3754C37.4517 64.9896 36.7305 64.6935 36.023 64.3776C35.3156 64.0618 34.5859 63.8016 33.9298 63.3673C33.3337 62.9743 32.9175 62.479 33.0151 61.6894C33.1162 60.8622 33.6712 60.4709 34.3649 60.2538C35.2933 59.9559 36.2218 60.1461 37.1604 60.2161C37.9227 60.2735 38.7398 61.2175 39.2948 60.6181C39.8087 60.0708 39.783 59.003 40.0331 58.1793C40.1735 57.7146 40.081 57.4956 39.6203 57.3198C38.3447 56.8394 36.9962 56.6071 35.6411 56.6342L35.6342 56.6414ZM51.5869 56.6414C49.4577 56.6414 47.7139 57.056 46.2288 57.9353C42.6436 60.0582 40.9495 64.5607 42.0287 69.1134C42.8423 72.5463 44.9253 74.6549 48.1833 75.4929C50.2765 76.0313 52.3749 75.9344 54.4596 75.4265C55.6586 75.1322 55.6586 75.1161 55.4171 73.824C55.328 73.3539 55.2047 72.8891 55.155 72.4153C55.0985 71.877 54.9495 71.719 54.3945 71.9021C53.3002 72.2565 52.151 72.3869 51.0097 72.2861C48.3649 72.0744 46.5851 70.47 46.1123 67.7442C45.8091 66.0035 45.8794 64.252 46.7975 62.7069C48.1902 60.374 50.3399 59.929 52.774 60.1731C53.5466 60.2502 54.4715 61.0147 54.982 60.4961C55.4925 59.9774 55.4257 58.881 55.6895 58.0573C55.8693 57.4992 55.6689 57.318 55.2081 57.16C54.0362 56.7919 52.8171 56.6151 51.5938 56.636L51.5869 56.6414ZM67.4711 33.0631C67.2724 32.8837 67.1885 32.8334 67.1594 32.7652C66.1213 30.2924 64.5797 28.112 63.408 25.7253C62.7794 24.4422 61.9709 24.0708 60.7084 24.2107C60.2082 24.2664 60.0986 24.4279 60.1003 24.9088C60.1157 28.4979 60.1277 32.0869 60.0918 35.676C60.0918 36.4279 60.4583 36.4422 60.9482 36.3722C61.3987 36.3076 62.0942 36.7311 62.0736 35.6885C62.0342 33.6248 62.0599 31.5611 62.0599 29.4992V27.0981C63.3858 30.0232 64.9839 32.5355 66.368 35.1555C66.8579 36.0851 67.3855 36.4943 68.4235 36.4117C69.1396 36.3543 69.3126 36.1641 69.3057 35.4373C69.2697 31.999 69.2543 28.5589 69.3057 25.1206C69.3211 24.1892 68.886 24.2341 68.2677 24.2143C67.6493 24.1946 67.2879 24.2592 67.3136 25.0972C67.4009 27.6903 67.257 30.296 67.4711 33.0631ZM69.2132 45.8743C69.2132 47.6688 69.2132 49.4633 69.2132 51.2578C69.2132 51.6455 69.2132 51.9595 69.7185 51.9757C71.4846 52.0618 73.2438 52.1928 74.9859 51.6957C77.3052 51.0335 78.6088 49.4364 79.025 47.003C79.6708 43.2345 77.9972 40.5158 74.621 39.8841C73.004 39.5827 71.3801 39.7262 69.7579 39.8752C69.2338 39.9218 69.2081 40.243 69.2115 40.6737C69.2286 42.4054 69.2218 44.1408 69.2201 45.8743H69.2132ZM88.4788 29.8438C89.1143 29.4436 89.6573 29.0685 89.9725 28.4315C90.6577 27.0299 90.1147 25.3808 88.6364 24.7042C86.8052 23.8662 84.8867 24.1766 82.9837 24.3848C82.6325 24.4243 82.6411 24.7114 82.6411 24.9914C82.6411 28.6067 82.6411 32.2227 82.6411 35.8393C82.6411 36.1856 82.7233 36.3902 83.107 36.4261C84.7035 36.575 86.2982 36.6504 87.8724 36.2466C89.5443 35.8213 90.4795 34.7966 90.644 33.2587C90.7981 31.7513 90.2174 30.7913 88.4788 29.8438ZM74.4497 20.925C75.0749 20.925 75.7053 20.9734 76.334 20.925C79.5714 20.636 81.4848 18.8379 81.9439 15.6939C82.5092 11.8177 80.6301 9.23361 76.9318 8.73832C75.5614 8.55887 74.203 8.70423 72.8378 8.78139C72.2486 8.81549 72.0858 9.06133 72.0927 9.66429C72.1201 12.6217 72.1047 15.5862 72.1047 18.5346C72.0961 20.9626 72.0961 20.9626 74.4497 20.9214V20.925ZM62.0771 39.6132C59.9975 39.6132 58.3497 40.4889 57.3562 42.427C56.2496 44.5804 56.2119 46.8487 57.166 49.0811C57.4657 49.831 57.94 50.4902 58.5457 50.9984C59.1514 51.5065 59.8691 51.8475 60.633 51.99C64.4409 52.7832 67.341 50.1829 67.4163 45.9281C67.4831 42.1901 65.318 39.6329 62.0771 39.6132ZM55.2955 46.2529C55.3058 42.9617 54.057 40.7993 51.9398 39.9721C48.2552 38.5185 44.7694 41.0308 44.4405 45.3772C44.0636 50.339 48.06 53.5746 52.1762 51.5988C54.5247 50.4808 55.2287 48.2987 55.2955 46.2619V46.2529ZM32.3556 15.1376C32.4004 15.073 32.4508 15.0129 32.5064 14.9581C34.048 13.903 34.5619 12.767 34.2193 11.1394C33.9332 9.81684 32.9072 9.0057 31.2439 8.73114C29.9301 8.5158 28.6282 8.67731 27.3195 8.75089C26.6943 8.78678 26.5127 9.02365 26.5196 9.67865C26.5521 12.9088 26.535 16.139 26.535 19.3691C26.535 20.898 26.535 20.8711 27.979 20.8783C28.5032 20.8783 28.6642 20.7383 28.6454 20.173C28.6008 18.9797 28.6299 17.7827 28.6351 16.584C28.6351 16.2646 28.582 15.9451 29.0599 15.8662C30.4508 15.6544 31.3347 16.2251 31.6876 17.6464C31.8965 18.4844 32.0867 19.3278 32.3042 20.1587C32.3693 20.4081 32.4036 20.7545 32.6999 20.7975C33.3166 20.8873 34.0189 21.047 34.5362 20.7365C34.8462 20.5571 34.3906 19.9469 34.3272 19.5198C34.269 19.1394 34.1474 18.7679 34.0583 18.3911C33.7585 17.1618 33.5324 15.8805 32.3556 15.1376ZM25.4867 28.4889H25.5072C25.5072 27.2632 25.4952 26.0376 25.5072 24.8119C25.5072 24.3992 25.3959 24.1946 24.9762 24.2287C24.7206 24.2574 24.4627 24.2574 24.2071 24.2287C23.5665 24.1336 23.3797 24.3884 23.3934 25.0667C23.438 27.0981 23.4106 29.1313 23.4106 31.1681C23.4426 31.9166 23.326 32.664 23.068 33.3628C22.6466 34.3821 21.91 34.8487 20.8292 34.7984C19.9007 34.7572 19.1916 34.1955 18.8524 33.2211C18.654 32.5956 18.5641 31.938 18.5869 31.2794C18.5869 29.4274 18.604 27.5737 18.5869 25.7163C18.5681 24.0474 18.9295 24.2807 17.1206 24.2215C16.5742 24.2071 16.4526 24.4189 16.4577 24.9483C16.4817 27.1591 16.4577 29.3718 16.4748 31.588C16.4698 32.5182 16.6519 33.4391 17.0093 34.2906C17.3653 35.1512 18.0242 35.8351 18.849 36.2C22.1224 37.6822 25.2691 35.7029 25.485 31.9882C25.5483 30.8236 25.4918 29.6535 25.4918 28.4889H25.4867ZM48.6115 85.6858C48.5379 85.5853 48.4745 85.5387 48.4779 85.5064C48.5773 84.4297 47.8202 84.7383 47.2789 84.6971C46.5063 84.6378 46.765 85.2354 46.765 85.6212C46.7513 87.5952 46.765 89.5692 46.765 91.5432C46.765 92.8891 46.765 92.8604 48.0668 92.8568C48.6047 92.8568 48.752 92.663 48.7349 92.1264C48.7057 90.8128 48.7349 89.4974 48.7246 88.1784C48.7039 87.7575 48.8016 87.3394 49.0055 86.9761C49.3173 86.4611 49.7438 86.1524 50.357 86.2152C50.9977 86.2816 51.2974 86.7338 51.443 87.3189C51.5071 87.6088 51.537 87.906 51.5321 88.2036C51.5407 89.5189 51.5321 90.8343 51.5424 92.1515C51.5424 92.392 51.4276 92.6899 51.7839 92.8263C52.7689 93.2139 53.4558 92.7509 53.4541 91.6742C53.4541 91.4642 53.4541 91.2561 53.4541 91.0461C53.4541 89.9407 53.4232 88.8316 53.49 87.7298C53.5448 86.8325 54.1752 86.2224 54.9015 86.208C55.6278 86.1937 56.0852 86.6728 56.2325 87.658C56.277 87.9831 56.2994 88.3112 56.2993 88.6396C56.2993 89.8348 56.3232 91.0317 56.289 92.2287C56.2753 92.7024 56.4072 92.8945 56.8594 92.8496C57.0872 92.8243 57.3168 92.8243 57.5446 92.8496C58.0585 92.9088 58.2486 92.7276 58.2298 92.1569C58.1904 90.6333 58.2383 89.1062 58.1972 87.5844C58.163 86.3534 57.781 85.2516 56.611 84.7347C55.4411 84.2179 54.3602 84.5643 53.4935 85.5046C53.1389 85.8904 53.019 85.772 52.7415 85.422C51.9878 84.4656 50.8075 84.2502 49.7147 84.776C49.2796 84.977 48.9713 85.3628 48.6098 85.6858H48.6115ZM29.7211 39.8088C28.1794 39.8088 28.1794 39.8088 27.7461 41.2282L26.8108 44.3041C26.0993 46.6381 25.3896 48.971 24.6816 51.3027C24.6096 51.5414 24.339 51.8518 24.8974 51.938C26.3517 52.1623 26.6498 51.9918 27.0814 50.5328C27.114 50.418 27.15 50.3049 27.1842 50.1901C27.6827 48.4781 27.6827 48.4781 29.3991 48.4763C31.3124 48.4763 31.3124 48.4763 31.9034 50.3965C32.3847 51.9595 32.3847 51.9326 33.9213 51.9398C34.5294 51.9398 34.6458 51.807 34.4454 51.1789C33.38 47.8339 32.3265 44.4835 31.3364 41.1134C31.0452 40.13 30.6889 39.475 29.7211 39.8088ZM48.8462 24.2341C47.248 24.2717 47.5872 23.9362 47.0733 25.6033C46.6005 27.137 46.1272 28.6713 45.6533 30.2062C45.088 32.0546 44.5416 33.9101 43.9592 35.7513C43.8153 36.2071 43.8324 36.3722 44.3566 36.3902C45.965 36.4422 45.9633 36.4656 46.4121 34.8307L46.4584 34.6513C46.9414 32.9339 46.9414 32.9339 48.6664 32.9339C50.6208 32.9339 50.6208 32.9339 51.2152 34.9079C51.6623 36.3884 51.664 36.3435 53.1783 36.3866C53.8634 36.401 53.908 36.1964 53.7127 35.5826C52.6507 32.2394 51.6298 28.8819 50.5797 25.5333C50.083 23.9541 50.4444 24.2807 48.8462 24.2341ZM75.9537 24.2484C75.4809 24.4476 74.7255 23.7872 74.4394 24.715C73.2918 28.4368 72.1561 32.1623 71.0015 35.8805C70.8611 36.3364 71.0512 36.3633 71.3989 36.3848C73.016 36.4871 73.016 36.4961 73.4888 34.8756L73.5658 34.619C74.0609 32.9411 74.0609 32.9411 75.707 32.9411C77.6803 32.9411 77.6803 32.9411 78.2884 34.8702C78.7732 36.4063 78.7732 36.3758 80.3114 36.392C80.9367 36.392 81.012 36.2377 80.8253 35.6347C79.7513 32.2646 78.679 28.8927 77.6889 25.4956C77.396 24.5104 77.0328 23.9416 75.9537 24.2484ZM16.4851 45.8832C16.4851 47.6778 16.504 49.4723 16.4748 51.2668C16.4663 51.8159 16.6273 51.9846 17.16 51.9846C19.0682 51.9541 20.9799 51.9416 22.8881 51.9846C23.659 52.0026 23.5185 51.5055 23.5185 51.0443C23.5185 50.5831 23.6607 50.0717 22.8916 50.104C21.6668 50.156 20.4403 50.104 19.2138 50.1273C18.7788 50.1273 18.5972 49.9891 18.6126 49.5136C18.6383 48.7383 18.6451 47.9595 18.6126 47.1807C18.5869 46.6315 18.8319 46.5346 19.2806 46.5454C20.2793 46.5687 21.278 46.5221 22.2732 46.5652C22.8316 46.5885 22.9721 46.418 22.996 45.8186C23.0303 44.9842 22.8402 44.6002 21.9871 44.7419C21.6177 44.7716 21.2466 44.7716 20.8771 44.7419C18.5338 44.7419 18.5526 44.7419 18.6092 42.2852C18.6212 41.7199 18.8062 41.5674 19.3115 41.5907C20.4215 41.623 21.5383 41.5656 22.6466 41.6123C23.4363 41.6464 23.229 41.0918 23.2496 40.654C23.2701 40.2161 23.3318 39.7783 22.638 39.7944C20.8137 39.8357 18.9894 39.8249 17.1652 39.7944C16.641 39.7854 16.48 39.9541 16.48 40.5122C16.504 42.2996 16.4851 44.0923 16.4851 45.8832ZM17.6739 14.7984C17.6739 16.5319 17.6996 18.2673 17.6619 20.0026C17.6482 20.6414 17.775 20.8998 18.4533 20.8855C20.2793 20.837 22.107 20.8281 23.9347 20.8855C24.685 20.9088 24.6919 20.5266 24.6679 19.9595C24.6473 19.4498 24.7655 18.951 23.9673 18.9976C22.8008 19.0658 21.6291 18.9976 20.4592 19.0246C19.9949 19.0353 19.774 18.9115 19.8065 18.3785C19.8425 17.6338 19.8408 16.8837 19.8065 16.1372C19.7843 15.6275 19.9556 15.4552 20.442 15.4714C21.4698 15.5019 22.4976 15.4391 23.5253 15.4947C24.3047 15.536 24.1403 15.0066 24.1454 14.5526C24.1506 14.0986 24.2739 13.5835 23.5031 13.6302C22.4753 13.6948 21.4475 13.6302 20.4198 13.6535C20.0001 13.6535 19.7825 13.553 19.8082 13.0578C19.8408 12.4307 19.8408 11.8023 19.8082 11.1753C19.7791 10.6369 20.0052 10.5221 20.466 10.5346C21.5503 10.5616 22.638 10.497 23.7206 10.558C24.4058 10.5957 24.4692 10.2529 24.4298 9.70019C24.3955 9.21746 24.5805 8.68448 23.7549 8.70961C21.9597 8.76524 20.1577 8.75267 18.3625 8.70961C17.7476 8.69525 17.6653 8.96802 17.6773 9.50817C17.6893 11.2722 17.6756 13.0344 17.6739 14.7984ZM63.2487 14.7428C63.2487 16.5068 63.2796 18.2709 63.2333 20.0331C63.2162 20.7222 63.432 20.8944 64.0624 20.8801C65.8884 20.8388 67.7144 20.828 69.5438 20.8801C70.2513 20.9016 70.2667 20.5212 70.229 20.0026C70.1947 19.5378 70.4226 18.9259 69.5781 19.003C69.037 19.0461 68.4936 19.0461 67.9525 19.003C67.1097 18.951 65.962 19.4068 65.5098 18.8056C65.0884 18.2439 65.4105 17.09 65.3488 16.2018C65.3043 15.5773 65.5629 15.4481 66.0922 15.4642C67.0909 15.4983 68.0895 15.4822 69.0882 15.4642C69.3229 15.4642 69.6021 15.5611 69.7134 15.1771C70.0149 14.1668 69.6603 13.6374 68.6531 13.6356H67.5397C65.3128 13.6356 65.3334 13.6356 65.3454 11.2919C65.3454 10.7249 65.4687 10.4934 66.0562 10.5185C67.1388 10.5669 68.2266 10.4898 69.3109 10.549C70.02 10.5867 70.0149 10.1901 69.996 9.6625C69.9772 9.13491 70.0885 8.67192 69.2954 8.69704C67.5277 8.75626 65.7565 8.7437 63.9853 8.69704C63.3515 8.68089 63.2299 8.93213 63.2402 9.52791C63.2727 11.2758 63.2521 13.0093 63.2487 14.7428ZM97.3365 91.7657C97.5746 93.7522 96.6633 94.8164 94.9075 94.7231C94.3943 94.6931 93.8898 94.5718 93.4155 94.3642C93.1552 94.2511 92.8314 94.034 92.7903 94.5436C92.756 94.9779 92.1342 95.4499 92.8297 95.868C95.7109 97.6051 99.2002 95.676 99.3115 92.243C99.3886 89.8868 99.3612 87.527 99.3852 85.169C99.3852 84.9896 99.4006 84.8209 99.2139 84.7186C98.6195 84.4045 97.7236 84.8101 97.5266 85.5512C96.629 84.5481 95.5516 84.252 94.3371 84.6791C92.7817 85.2175 92.0297 86.4736 91.843 88.1049C91.6495 89.8061 92.0143 91.3206 93.484 92.3364C93.8469 92.5718 94.2578 92.7138 94.6831 92.7509C95.1689 92.8276 95.6652 92.7778 96.1282 92.606C96.5913 92.4342 97.0068 92.1456 97.3382 91.7657H97.3365ZM101.045 30.2798C101.045 32.0133 101.072 33.7486 101.031 35.4839C101.016 36.1623 101.156 36.4225 101.866 36.3992C103.662 36.3435 105.463 36.3489 107.26 36.3992C107.914 36.4153 108.07 36.2036 108.073 35.5414C108.073 34.8236 107.941 34.4826 107.188 34.5813C106.705 34.6271 106.219 34.6307 105.735 34.5921C104.913 34.5598 103.851 34.951 103.337 34.4467C102.78 33.8886 103.243 32.7437 103.138 31.8644C103.049 31.1089 103.375 30.9582 104.017 30.9905C104.985 31.0389 105.956 31.0066 106.929 31.0012C107.172 31.0012 107.433 31.0712 107.532 30.6854C107.797 29.6589 107.494 29.2103 106.49 29.2103H105.377C103.077 29.2103 103.092 29.2103 103.137 26.8128C103.145 26.2744 103.268 26.0699 103.81 26.095C104.921 26.1345 106.037 26.0663 107.148 26.1201C107.938 26.1578 107.756 25.6158 107.762 25.1726C107.767 24.7293 107.923 24.2107 107.143 24.2305C105.319 24.2771 103.491 24.261 101.662 24.2305C101.161 24.2305 101.033 24.4099 101.04 24.9052C101.054 26.6926 101.045 28.4853 101.045 30.2798ZM22.1635 90.5257C21.9785 90.47 21.9494 90.3265 21.9186 90.1775C21.6354 88.8065 21.3499 87.4349 21.0621 86.0627C20.7658 84.6271 20.7675 84.654 19.3663 84.6773C18.7873 84.6881 18.7856 84.8998 18.9244 85.3772C19.589 87.6634 20.2468 89.9514 20.8634 92.252C21.009 92.7904 21.3002 92.8998 21.7353 92.8298C22.2132 92.7545 22.8453 93.1421 23.068 92.2825C23.4466 90.8146 23.8731 89.3592 24.2808 87.8985C24.3304 87.719 24.2808 87.4606 24.584 87.4373C24.8889 89.0829 25.4233 90.6674 25.8241 92.2825C25.9646 92.846 26.302 92.898 26.7183 92.8334C27.1705 92.7653 27.7598 93.1331 27.9927 92.3292C28.6779 89.9586 29.4076 87.6006 30.1116 85.2336C30.1562 85.0829 30.2949 84.9124 30.1116 84.7491C29.6834 84.3687 28.2908 84.8173 28.1572 85.3915C27.7615 87.0981 27.3743 88.8011 26.9838 90.5221C26.7303 90.4144 26.7594 90.1793 26.7097 89.9837C26.3192 88.4566 25.8892 86.933 25.5518 85.3969C25.4027 84.7114 25.0379 84.6791 24.5052 84.6791C23.9724 84.6791 23.6881 84.7545 23.539 85.379C23.1314 87.1053 22.6295 88.8119 22.1635 90.5257ZM36.6911 87.3278C37.157 89.0344 37.6058 90.6334 38.0238 92.2395C38.142 92.6917 38.3561 92.9357 38.8015 92.8281C39.2725 92.715 39.9303 93.1977 40.1804 92.3633C40.8964 89.9706 41.6141 87.5779 42.3336 85.1852C42.3901 84.9949 42.5134 84.8119 42.2 84.6971C41.275 84.3579 40.487 84.785 40.2609 85.7881C39.8995 87.3655 39.5415 88.9447 39.1355 90.7356C38.6319 88.8263 38.1471 87.1466 37.7651 85.4364C37.6024 84.7186 37.217 84.6953 36.6603 84.6773C36.1036 84.6594 35.8706 84.8568 35.7301 85.4328C35.3105 87.1484 34.8188 88.8424 34.2895 90.7949C33.8699 88.8334 33.4862 87.1268 33.1453 85.4113C33.0408 84.8873 32.8575 84.6055 32.3077 84.6935C32.0521 84.7231 31.7941 84.7231 31.5385 84.6935C31.0366 84.6486 30.9716 84.8496 31.1086 85.3251C31.7835 87.6383 32.4258 89.9622 33.0836 92.2807C33.1556 92.5302 33.1984 92.7742 33.5376 92.846C34.6715 93.0829 35.1049 92.837 35.4475 91.6634C35.8569 90.2475 36.2577 88.8316 36.6911 87.3278ZM9.96904 90.5221L9.82001 90.5131C9.5014 89.0039 9.21191 87.4875 8.8539 85.9891C8.4959 84.4907 8.90187 84.7329 7.26942 84.6809C6.68702 84.6612 6.52772 84.776 6.72128 85.4149C7.38077 87.6078 8.00085 89.8133 8.60553 92.0259C8.75627 92.5876 8.94812 92.9232 9.5802 92.846C10.1489 92.7778 10.7244 92.9931 10.9506 92.0744C11.3325 90.5167 11.8704 89.0021 12.2558 87.1771C12.7697 89.0452 13.2185 90.6369 13.6262 92.2412C13.7461 92.7024 13.9688 92.9303 14.4056 92.8263C14.8749 92.715 15.5293 93.1852 15.7759 92.3525C16.4902 89.9586 17.2148 87.5665 17.9308 85.1744C17.9788 85.0147 18.0867 84.8424 17.8726 84.7078C17.2816 84.3364 16.0843 84.8334 15.9233 85.5261L14.743 90.6782C14.6197 90.2816 14.5632 90.1291 14.5238 89.973C14.1264 88.4458 13.7084 86.9223 13.3521 85.3879C13.2151 84.794 12.9273 84.6558 12.3929 84.6701C11.8584 84.6845 11.497 84.6971 11.3377 85.3736C10.9266 87.1053 10.4298 88.8083 9.97589 90.5221H9.96904ZM30.5245 36.5732C31.2681 36.5984 32.0096 36.4766 32.7102 36.2143C34.2947 35.6167 35.1392 34.1524 34.9199 32.4135C34.7623 31.1573 34.024 30.3731 33.0065 29.8384C32.1929 29.4113 31.333 29.0739 30.5296 28.6289C30.002 28.3363 29.6354 27.8518 29.7656 27.1609C29.8958 26.47 30.4028 26.104 31.0247 25.9801C31.8159 25.8143 32.6362 25.8961 33.3834 26.2152C33.8065 26.3947 34.1097 26.4449 34.1508 25.8814C34.1868 25.3951 34.9353 24.776 33.9452 24.4458C32.8364 24.0353 31.6411 23.9521 30.4902 24.2054C28.8715 24.5822 27.8523 25.641 27.6501 27.152C27.4549 28.6019 28.152 29.8204 29.6937 30.6316C30.3292 30.9671 31.0127 31.1986 31.6533 31.5288C32.3967 31.9057 32.9243 32.4566 32.7582 33.4292C32.6314 34.1632 31.9822 34.6746 31.0298 34.7572C30.1132 34.8279 29.1951 34.6421 28.3696 34.2188C28.0407 34.0573 27.8831 34.0681 27.7529 34.479C27.3247 35.8249 27.4103 36.0044 28.7499 36.3471C29.3302 36.5058 29.9282 36.5818 30.5279 36.5732H30.5245ZM10.3407 36.5732C10.9818 36.5774 11.619 36.4675 12.225 36.2484C13.8866 35.6652 14.7447 34.2744 14.558 32.4494C14.4244 31.1484 13.645 30.3588 12.6053 29.8097C11.8173 29.3933 10.9831 29.0703 10.2071 28.6468C9.64015 28.3399 9.2633 27.8357 9.41404 27.1107C9.56478 26.3857 10.0821 26.0842 10.7056 25.9676C11.4981 25.8195 12.3144 25.9084 13.0609 26.2242C13.3675 26.3498 13.717 26.5472 13.7461 26.0142C13.7735 25.51 14.5923 24.8675 13.6913 24.5032C12.0554 23.8429 10.387 23.7854 8.81622 24.7401C6.8823 25.9119 6.71271 28.5553 8.43423 30.0232C8.95475 30.4394 9.53224 30.7709 10.1472 31.0066C10.6513 31.214 11.1427 31.4537 11.6186 31.7244C12.1856 32.0564 12.5042 32.5876 12.4151 33.2839C12.3209 34.016 11.8533 34.4342 11.1938 34.6244C10.1523 34.9277 9.16224 34.6674 8.179 34.3103C7.91521 34.2152 7.4784 33.772 7.43044 34.4395C7.39104 34.9779 6.54656 35.6724 7.60174 36.0833C8.47831 36.4262 9.40867 36.593 10.3442 36.575L10.3407 36.5732ZM11.3891 39.5952C11.0208 39.6275 10.6457 39.6239 10.2825 39.6939C8.13789 40.1156 6.896 41.8671 7.34651 43.8411C7.62572 45.0595 8.47192 45.7433 9.48598 46.2439C10.1301 46.5616 10.8067 46.8092 11.4422 47.1412C12.0777 47.4732 12.5556 48.0385 12.4151 48.8586C12.2627 49.7558 11.6375 50.1381 10.8289 50.2332C9.91634 50.3286 8.99526 50.1907 8.14474 49.8312C7.91863 49.7415 7.51438 49.2713 7.45956 49.9084C7.41331 50.4467 6.57739 51.1645 7.56405 51.5809C9.24103 52.2753 10.9677 52.383 12.6481 51.597C13.902 51.0084 14.5615 49.9604 14.5837 48.4835C14.6077 46.9761 13.8506 46.0124 12.6498 45.3664C11.8396 44.9321 10.9814 44.5948 10.1712 44.1587C9.62987 43.868 9.28386 43.3799 9.40034 42.6944C9.51682 42.0088 9.97589 41.7002 10.5651 41.5315C11.3471 41.3201 12.1741 41.3876 12.9153 41.7235C13.4772 41.9604 13.6947 41.8761 13.8574 41.2498C14.1572 40.1049 14.2 40.1174 13.09 39.8141C12.5355 39.6656 11.9649 39.5926 11.3925 39.597L11.3891 39.5952ZM13.2202 8.53195C11.3788 8.53195 9.73436 9.0703 8.44794 10.5364C6.63392 12.6001 6.45235 16.4943 8.06252 18.7913C9.49112 20.8334 13.1911 21.7558 15.4916 20.6576C15.7708 20.5248 15.8496 20.3884 15.8016 20.0474C15.6303 18.8074 15.6526 18.8307 14.4861 19.0497C12.7731 19.3709 11.1544 19.2291 9.99131 17.6464C8.95154 16.2377 8.90187 13.7773 9.82001 12.2089C10.6765 10.7518 12.2541 10.1058 14.1555 10.4413C14.4112 10.4682 14.6626 10.5285 14.9041 10.6208C15.6218 10.9635 15.6218 10.3947 15.7605 9.94424C15.9061 9.44177 16.1031 8.9752 15.3477 8.80472C14.6499 8.64177 13.9384 8.55101 13.2236 8.53374L13.2202 8.53195ZM49.9545 14.8236C49.9545 16.3788 49.9545 17.9341 49.9545 19.4893C49.9545 20.9142 49.9545 20.8873 51.3574 20.8819C51.9244 20.8819 52.0905 20.6845 52.07 20.1013C52.0306 18.8774 52.0803 17.6499 52.0494 16.4261C52.034 15.8877 52.183 15.6813 52.7209 15.7083C53.6904 15.7495 54.6634 15.676 55.6329 15.7352C56.3318 15.7783 56.3592 15.3906 56.3181 14.8577C56.2873 14.3785 56.4791 13.8025 55.6535 13.8527C54.6583 13.9137 53.6579 13.8725 52.6592 13.9012C52.2327 13.9137 52.0272 13.7845 52.0477 13.2946C52.0828 12.6078 52.0828 11.9195 52.0477 11.2327C52.0117 10.6603 52.2361 10.5149 52.7432 10.54C53.8275 10.5741 54.9135 10.5077 55.9978 10.5652C56.7498 10.6064 56.6504 10.1255 56.6453 9.64635C56.6401 9.16722 56.7566 8.69705 56.0012 8.71859C54.2043 8.76704 52.404 8.75268 50.6071 8.71859C50.0624 8.70782 49.9374 8.91957 49.9459 9.44716C49.9733 11.2363 49.9579 13.0308 49.9579 14.8254L49.9545 14.8236ZM36.2783 45.8509C36.2783 47.4032 36.2611 48.9555 36.2783 50.5077C36.3005 52.1031 35.9357 51.8949 37.7069 51.9434C38.231 51.9577 38.4006 51.7729 38.3921 51.2255C38.3578 50.0914 38.44 48.9537 38.3647 47.8159C38.303 46.9187 38.6216 46.689 39.4215 46.7536C40.3003 46.8254 41.1876 46.7733 42.0715 46.7697C42.3181 46.7697 42.5648 46.8164 42.6488 46.4234C42.8817 45.3287 42.6402 44.9878 41.5782 44.9878H40.809C38.255 44.9878 38.267 44.9878 38.3698 42.2655C38.3886 41.7702 38.5222 41.5782 39.0121 41.5907C40.1221 41.6212 41.239 41.5638 42.3456 41.6141C43.0307 41.6446 42.9931 41.2264 42.9622 40.7617C42.9348 40.3292 43.1643 39.7783 42.3678 39.7962C40.5435 39.8357 38.7192 39.8231 36.8967 39.7962C36.3982 39.7962 36.2663 39.9757 36.2731 40.4763C36.2954 42.2691 36.2817 44.0618 36.2817 45.8527L36.2783 45.8509ZM39.0687 31.2632C39.0687 32.5481 39.0601 33.833 39.0687 35.1179C39.0807 36.5804 38.8751 36.3148 40.3071 36.392C41.0317 36.4315 41.2082 36.182 41.1962 35.4463C41.1533 32.697 41.2253 29.9478 41.1533 27.1914C41.1294 26.2367 41.4223 25.9945 42.2548 26.095C42.8183 26.1632 43.3956 26.0842 43.9677 26.1147C44.7197 26.156 44.5176 25.5764 44.5022 25.1923C44.4867 24.8083 44.7711 24.2377 44.0003 24.2412C41.432 24.2592 38.8626 24.2592 36.292 24.2412C35.5297 24.2412 35.7901 24.8083 35.7781 25.187C35.7661 25.5656 35.5468 26.1488 36.304 26.1147C37.0166 26.0842 37.7309 26.1363 38.4417 26.0986C38.9402 26.0735 39.0738 26.278 39.0653 26.7751C39.0567 28.2771 39.0721 29.7702 39.0721 31.265L39.0687 31.2632ZM38.5976 15.7244C38.5976 17.1277 38.6524 18.5346 38.5771 19.9344C38.5291 20.8029 38.8751 20.9429 39.5672 20.8711C40.1547 20.8101 40.7885 21.1008 40.7525 19.9541C40.6634 17.0829 40.7388 14.2206 40.7114 11.3547C40.7114 10.7374 40.8621 10.497 41.4737 10.5454C42.1263 10.5957 42.7875 10.5131 43.4384 10.5652C44.1476 10.619 44.0654 10.1363 44.0362 9.6966C44.0071 9.25694 44.2726 8.70423 43.4624 8.7132C40.9255 8.7437 38.3886 8.72397 35.8518 8.72576C35.6582 8.72576 35.4543 8.68808 35.3379 8.92854C34.9593 9.68942 35.4167 10.5436 36.2063 10.5544C36.7476 10.5544 37.2923 10.5903 37.8302 10.5436C38.416 10.4952 38.6336 10.6908 38.6147 11.335C38.5736 12.7957 38.6028 14.2637 38.601 15.7262L38.5976 15.7244ZM85.1454 88.7922C85.1711 86.2224 83.6483 84.514 81.3221 84.4997C78.8983 84.4853 77.259 86.208 77.2435 88.7814C77.2298 91.2937 78.8143 93.0219 81.1405 93.0362C83.5232 93.0506 85.1146 91.3601 85.1454 88.7922ZM92.5419 30.3498C92.5419 32.1138 92.5539 33.8778 92.5334 35.6419C92.5334 36.1443 92.607 36.4009 93.1791 36.3902C95.0634 36.3543 96.9476 36.3471 98.8319 36.3902C99.6198 36.4081 99.4246 35.8787 99.4468 35.4373C99.4708 34.9438 99.5273 34.4898 98.7873 34.54C97.7048 34.601 96.617 34.5149 95.5327 34.5705C94.8664 34.6046 94.6471 34.4108 94.6591 33.6822C94.7002 31.021 94.6763 28.3597 94.6763 25.6984C94.6763 24.2089 94.6763 24.2466 93.2768 24.2233C92.6396 24.2125 92.5214 24.4727 92.5299 25.0631C92.559 26.82 92.5402 28.5876 92.5419 30.3498ZM62.1764 93.0362C63.8894 93.0362 65.0473 92.2807 65.306 90.994C65.5869 89.5979 64.9291 88.6486 63.1853 87.9236C62.9175 87.8228 62.6579 87.6992 62.4094 87.5539C62.1079 87.3637 61.8612 87.0945 61.9589 86.6782C62.0565 86.2619 62.3323 86.0968 62.6954 86.025C63.177 85.9437 63.6708 86.0123 64.1155 86.2224C64.4409 86.3624 64.7407 86.4683 64.7904 85.9586C64.8281 85.5584 65.3471 85.0506 64.5917 84.7868C63.7061 84.4781 62.8136 84.3758 61.9058 84.6522C60.8129 84.9878 60.15 85.7738 60.0558 86.8541C59.9581 87.9703 60.5697 88.6378 61.4261 89.1116C61.9006 89.3772 62.4231 89.5495 62.9044 89.8043C63.2898 90.0089 63.5125 90.357 63.4046 90.8343C63.3052 91.2722 62.9661 91.4355 62.579 91.4947C61.9244 91.5851 61.2591 91.4676 60.669 91.1574C60.3264 90.9905 60.1962 91.0515 60.0763 91.4517C59.7766 92.462 59.792 92.5427 60.7427 92.8227C61.2078 92.9683 61.691 93.0402 62.1764 93.0362ZM70.9776 84.4943C69.3194 84.4943 68.0655 85.099 67.3118 86.1363C66.2601 87.5844 66.1864 89.9048 67.1405 91.3565C68.0947 92.8083 69.996 93.361 71.9848 92.8496C72.6528 92.6701 72.6562 92.3507 72.5655 91.7729C72.4627 91.1197 72.1955 91.1753 71.6953 91.283C69.8282 91.6831 68.552 90.6944 68.4835 88.8675C68.4116 86.9294 69.7973 85.7809 71.7381 86.2565C72.2777 86.3893 72.3856 86.2403 72.5346 85.7522C72.7539 85.0344 72.5655 84.6845 71.8632 84.6091C71.4983 84.5643 71.1317 84.514 70.9776 84.4943ZM57.6782 30.278C57.6782 28.6342 57.6268 26.9887 57.6988 25.3485C57.7382 24.4512 57.5275 24.173 56.6367 24.1982C55.8111 24.2197 55.513 24.3633 55.5336 25.3215C55.6004 28.5176 55.5593 31.7154 55.5576 34.9133C55.5576 36.3992 55.5576 36.3615 56.9485 36.3938C57.5857 36.4099 57.7022 36.1623 57.6902 35.5665C57.6576 33.8043 57.6782 32.0402 57.6782 30.278ZM47.5581 14.7697C47.5581 12.9752 47.5427 11.1807 47.5666 9.38615C47.5666 8.87471 47.4142 8.66834 46.9277 8.72576C46.7003 8.75642 46.47 8.75642 46.2425 8.72576C45.5488 8.6145 45.386 8.92675 45.386 9.62302C45.4203 12.8819 45.386 16.1407 45.4066 19.3996C45.4152 21.047 45.0914 20.8227 46.8009 20.8801C47.4159 20.9016 47.5735 20.6737 47.5615 20.0582C47.5358 18.2942 47.5581 16.5284 47.5581 14.7697ZM58.7248 14.7608V19.335C58.7248 20.8962 58.7248 20.8765 60.2236 20.8586C60.6604 20.8586 60.83 20.7473 60.8266 20.261C60.8118 16.6145 60.8118 12.9656 60.8266 9.31436C60.8266 8.82086 60.6382 8.68089 60.2134 8.72037C59.9858 8.74832 59.7558 8.74832 59.5282 8.72037C58.8927 8.62167 58.6906 8.87291 58.7077 9.55483C58.7556 11.2883 58.7248 13.0219 58.7248 14.7554V14.7608ZM88.5302 86.0035C88.4827 85.821 88.4523 85.634 88.4394 85.4454C88.5216 84.3687 87.7542 84.7868 87.2695 84.7078C86.6202 84.6019 86.7025 85.0667 86.7059 85.4902C86.723 87.5198 86.7179 89.5495 86.7367 91.5791C86.7504 92.977 86.4866 92.8047 87.9718 92.8622C88.5936 92.8873 88.7409 92.6468 88.7186 92.0421C88.6775 90.9097 88.6861 89.772 88.7186 88.6325C88.7494 87.4301 89.277 86.5346 90.1729 86.5203C91.163 86.5059 91.103 85.9819 91.1202 85.2516C91.1407 84.4638 90.7776 84.4207 90.2174 84.5517C89.4843 84.7186 89.0235 85.2803 88.5405 85.9891L88.5302 86.0035ZM75.0578 90.409C74.8952 90.3914 74.7308 90.4092 74.5751 90.4615C74.4193 90.5137 74.2756 90.5991 74.153 90.7124C74.0304 90.8257 73.9315 90.9644 73.8625 91.1198C73.7936 91.2751 73.7562 91.4437 73.7525 91.615C73.708 92.383 74.1739 92.9878 74.854 93.0506C75.0163 93.0645 75.1797 93.0437 75.3341 92.9893C75.4885 92.935 75.6307 92.8482 75.7521 92.7344C75.8734 92.6205 75.9713 92.4819 76.0399 92.3271C76.1084 92.1723 76.1461 92.0045 76.1507 91.8339C76.2072 91.0371 75.7635 90.4503 75.0647 90.3947L75.0578 90.409ZM45.2028 91.6885C45.2028 90.9025 44.7111 90.3875 43.9883 90.3947C43.2654 90.4019 42.7995 90.9438 42.8063 91.728C42.8063 92.4853 43.3408 93.0542 44.0243 93.0344C44.7077 93.0147 45.2028 92.4602 45.2028 91.6885Z" fill="#3460AA"/>
<path d="M165.039 100.992C159.124 100.972 150.792 99.7967 142.817 96.5055C136.993 94.108 131.789 90.7433 127.676 85.7186C122.33 79.1865 120.196 71.5796 121.013 63.0717C121.83 54.5639 125.309 47.1381 130.047 40.3225C136.556 30.9712 144.824 23.6639 154.187 17.6576C166.241 9.91172 179.625 4.71328 193.585 2.35572C204.377 0.501973 215.181 0.38174 225.902 3.02867C232.3 4.61144 238.328 7.12557 243.537 11.4217C252.871 19.122 256.492 29.1875 254.441 41.419C253.116 49.3418 249.587 56.2471 245.02 62.5944C238.233 72.0192 229.705 79.3786 220.066 85.3723C208.922 92.305 196.673 97.0679 183.911 99.4306C178.529 100.453 173.107 100.994 165.039 100.992ZM153.636 87.8756C153.702 87.7657 153.759 87.6505 153.807 87.5311C154.984 83.174 156.61 78.9981 158.499 74.9317C166.091 58.6123 177.009 45.282 191.254 34.9407C204.293 25.4405 218.778 19.5419 234.285 16.2489C235.695 15.9492 237.11 15.6675 238.521 15.3768C238.103 15.2711 237.671 15.2306 237.242 15.2566C231.562 15.4161 225.902 16.0105 220.306 17.0349C208.584 19.1884 197.39 22.982 186.929 29.0008C179.371 33.3508 172.555 38.72 166.593 45.2628C161.262 51.1095 156.775 57.7403 153.273 64.9452C152.973 65.5571 152.759 65.7994 152.245 65.1408C151.878 64.7198 151.477 64.3331 151.046 63.9851C146.955 60.2579 142.553 57.0206 137.363 55.1471C134.917 54.2624 132.409 53.8909 129.846 54.2229C129.804 54.4526 129.927 54.4921 130.018 54.5549C134.518 57.7909 138.639 61.5711 142.294 65.8173C146.637 70.8546 150.219 76.3943 152.358 82.8653C152.887 84.5049 153.313 86.1785 153.636 87.8756ZM167.28 78.8348C176.691 78.7541 186.024 77.8945 195.223 75.7088C203.445 73.7527 211.325 70.833 218.608 66.2857C227.248 60.8824 234.22 53.7832 238.766 44.2633C240.181 41.3668 241.209 38.2799 241.82 35.0897C241.05 35.7088 240.411 36.2364 239.765 36.746C235.436 40.1287 230.84 42.9748 225.585 44.5019C222.694 45.3418 219.806 45.5912 216.921 44.4732C214.17 43.4073 212.568 41.3974 212.334 38.2839C212.154 35.8739 212.709 33.602 213.522 31.375C213.642 31.0466 213.934 30.711 213.658 30.2606C213.555 30.3094 213.458 30.3696 213.368 30.44C211.338 32.4284 209.737 34.7092 208.812 37.4943C206.712 43.8164 211.039 49.41 215.974 50.2821C217.553 50.5585 219.165 50.5585 220.744 50.2821C224.749 49.5984 228.379 47.8972 231.858 45.785C232.029 45.681 232.17 45.4046 232.492 45.6271C232.32 45.9358 232.149 46.2426 231.978 46.5441C230.181 49.6379 227.891 52.2866 225.297 54.6715C220.501 59.0896 215.037 62.4311 209.293 65.2861C199.457 70.1798 189.127 73.5769 178.571 76.2776C174.827 77.2323 171.063 78.0596 167.28 78.8348ZM226.071 31.8721C226.551 31.8809 227.027 31.7902 227.473 31.6052C227.919 31.4202 228.326 31.1447 228.669 30.7944C229.013 30.4441 229.287 30.026 229.476 29.5642C229.665 29.1023 229.765 28.6059 229.77 28.1036C229.778 27.0897 229.402 26.1138 228.725 25.3892C228.048 24.6646 227.125 24.2501 226.157 24.2364C225.204 24.2352 224.288 24.6252 223.605 25.3229C222.923 26.0205 222.529 26.9704 222.507 27.969C222.495 28.4711 222.577 28.9708 222.75 29.4394C222.923 29.9079 223.182 30.336 223.513 30.6991C223.845 31.0622 224.241 31.3531 224.68 31.555C225.119 31.7569 225.592 31.8659 226.071 31.8757V31.8721Z" fill="#3460AA"/>
<path d="M71.3684 45.8537C71.3684 44.6585 71.3872 43.4634 71.3564 42.2646C71.3427 41.7532 71.4746 41.484 71.9971 41.4589C73.6775 41.3781 75.3407 41.4768 76.2931 43.1924C77.2747 44.96 77.1496 46.8227 76.1544 48.558C75.3973 49.877 73.143 50.6756 71.7401 50.2862C71.3376 50.1731 71.3701 49.9075 71.3701 49.6132C71.369 48.3618 71.3684 47.1086 71.3684 45.8537Z" fill="#3460AA"/>
<path d="M84.7748 33.0054C84.7748 32.6627 84.7748 32.4545 84.7748 32.2464C84.7748 30.6869 84.7748 30.6833 86.2977 30.861C86.8115 30.9202 87.3083 31.0404 87.7348 31.3706C87.9489 31.5437 88.123 31.7651 88.244 32.0184C88.365 32.2717 88.4299 32.5503 88.4339 32.8336C88.4379 33.1168 88.3807 33.3973 88.2668 33.6542C88.1529 33.9111 87.9851 34.1377 87.7759 34.3172C87.6661 34.4114 87.5459 34.4916 87.4179 34.5559C86.7242 34.8843 85.9551 35.053 85.2528 34.843C84.1599 34.52 85.1174 33.49 84.7748 33.0054Z" fill="#3460AA"/>
<path d="M84.774 27.5758C84.7705 27.546 84.7705 27.5158 84.774 27.486C84.9213 26.9477 84.4314 26.2442 85.084 25.871C85.7007 25.53 87.2869 25.8979 87.7459 26.3896C88.4311 27.1307 88.2119 28.3635 87.292 28.875C86.6068 29.2572 85.8685 29.2124 85.132 29.2052C84.8219 29.2052 84.7705 28.9863 84.7723 28.7243C84.774 28.3474 84.774 27.9616 84.774 27.5758Z" fill="#3460AA"/>
<path d="M74.1983 14.7846C74.1983 13.5608 74.2188 12.3369 74.188 11.113C74.176 10.6052 74.3764 10.415 74.8252 10.3952C76.4714 10.2929 78.1004 10.3952 79.0939 12.0103C80.1388 13.7151 80.0223 15.5545 79.147 17.297C78.3967 18.79 75.9815 19.7052 74.4981 19.201C74.1469 19.0825 74.2017 18.8151 74.2 18.5567C74.1966 17.2934 74.1983 16.039 74.1983 14.7846Z" fill="#3460AA"/>
<path d="M65.141 45.9624C65.141 47.0266 64.9543 48.0459 64.3822 48.9521C63.2362 50.7664 60.9288 50.8489 59.6767 49.1315C58.4245 47.4142 58.4622 44.2271 59.7281 42.5474C59.996 42.1759 60.3445 41.8765 60.7447 41.6738C61.1448 41.4711 61.5853 41.3709 62.0296 41.3816C62.474 41.3923 62.9096 41.5135 63.3004 41.7353C63.6913 41.957 64.0263 42.2729 64.2777 42.6569C64.9577 43.6403 65.165 44.769 65.141 45.9624Z" fill="#3460AA"/>
<path d="M53.0827 45.9297C53.009 47.2559 52.7846 48.5067 51.8545 49.4847C51.5795 49.7802 51.2479 50.0111 50.8814 50.1624C50.5149 50.3136 50.122 50.3816 49.7285 50.3619C49.3351 50.3423 48.9501 50.2353 48.5991 50.0482C48.248 49.8611 47.9388 49.5981 47.692 49.2765C46.3456 47.5735 46.3354 44.1836 47.6715 42.4734C47.9312 42.1336 48.2598 41.8585 48.6336 41.6682C49.0074 41.4779 49.4169 41.3771 49.8324 41.3732C50.248 41.3692 50.6592 41.4622 51.0362 41.6454C51.4132 41.8285 51.7465 42.0973 52.0121 42.4322C52.824 43.4461 53.0518 44.6646 53.0827 45.9297Z" fill="#3460AA"/>
<path d="M28.6317 12.3845C28.6154 12.254 28.6154 12.1219 28.6317 11.9915C28.8407 11.4531 28.099 10.511 29.1935 10.3459C30.8243 10.0982 31.9154 10.6456 32.1552 11.7528C32.3779 12.7865 31.8726 13.7268 30.8808 14.0857C30.2196 14.3226 29.4231 14.4859 28.8801 14.1682C28.2583 13.7986 28.7927 12.9013 28.6317 12.3845Z" fill="#3460AA"/>
<path d="M29.4605 41.6953C29.947 43.357 30.3598 44.8052 30.8052 46.2444C30.9354 46.6679 30.8908 46.8043 30.4266 46.833C27.9754 46.9838 27.9822 46.9999 28.6811 44.6132C28.9432 43.7159 29.1642 42.8043 29.4605 41.6953Z" fill="#3460AA"/>
<path d="M48.705 26.3262C49.1984 27.8605 49.6643 29.3769 50.1508 30.895C50.2193 31.1068 50.1405 31.2396 49.9247 31.2701C49.8681 31.2701 49.8099 31.2701 49.7534 31.2701C47.2507 31.5626 47.2199 31.5177 47.9599 29.0449C48.2305 28.1512 48.4584 27.2342 48.705 26.3262Z" fill="#3460AA"/>
<path d="M75.848 26.2441C76.3397 27.8897 76.785 29.3828 77.2321 30.874C77.3383 31.2329 77.143 31.2832 76.8758 31.2814C76.218 31.2814 75.562 31.2814 74.9059 31.2814C74.589 31.2814 74.4126 31.1988 74.5274 30.8076C74.9607 29.3397 75.3804 27.87 75.848 26.2441Z" fill="#3460AA"/>
<path d="M97.4119 88.6566C97.4119 88.8361 97.4119 89.0155 97.4119 89.195C97.3571 90.4171 96.7524 91.1815 95.7915 91.2515C94.8305 91.3215 94.0031 90.514 93.8541 89.3691C93.7616 88.6513 93.777 87.9335 94.0922 87.2623C94.4896 86.4045 95.2416 85.9595 96.0261 86.1174C96.7696 86.2681 97.2989 86.9249 97.3965 87.8509C97.4111 88.1193 97.4111 88.3883 97.3965 88.6566H97.4119Z" fill="#3460AA"/>
<path d="M83.1016 88.7227C83.1502 89.4112 82.9844 90.0975 82.6288 90.6788C81.9299 91.7824 80.5887 91.8147 79.835 90.7487C79.1036 89.7151 79.1002 87.8093 79.835 86.7739C79.9978 86.527 80.218 86.3276 80.4748 86.1946C80.7315 86.0616 81.0164 85.9994 81.3025 86.0137C81.5886 86.0281 81.8665 86.1186 82.11 86.2767C82.3534 86.4349 82.5544 86.6554 82.6939 86.9175C83.0002 87.4625 83.1423 88.0917 83.1016 88.7227Z" fill="#3460AA"/>
</g>
<rect x="0.5" y="0.5" width="255" height="101" rx="2.5" stroke="white"/>
<defs>
<clipPath id="clip0_4856_17252">
<rect x="1" y="1" width="254" height="100" rx="2" fill="white"/>
</clipPath>
</defs>
</svg>
