<svg width="200" height="100" viewBox="0 0 200 100" fill="none" xmlns="http://www.w3.org/2000/svg">
<g clip-path="url(#clip0_4856_17251)">
<path d="M187.696 4.27344H12.3016C7.78794 4.27344 4.12891 8.06237 4.12891 12.7363V87.2573C4.12891 91.9312 7.78794 95.7201 12.3016 95.7201H187.696C192.21 95.7201 195.869 91.9312 195.869 87.2573V12.7363C195.869 8.06237 192.21 4.27344 187.696 4.27344Z" fill="white"/>
<path d="M187.695 100H12.3051C9.0428 99.996 5.91518 98.6522 3.60835 96.2635C1.30152 93.8748 0.00385544 90.6361 0 87.258V12.742C0.00385544 9.36382 1.30152 6.12517 3.60835 3.73644C5.91518 1.34772 9.0428 0.00399232 12.3051 0H187.695C190.957 0.00399232 194.085 1.34772 196.392 3.73644C198.698 6.12517 199.996 9.36382 200 12.742V87.258C199.996 90.6361 198.698 93.8748 196.392 96.2635C194.085 98.6522 190.957 99.996 187.695 100ZM12.3051 8.55327C11.2327 8.5546 10.2046 8.99635 9.44628 9.78159C8.68796 10.5668 8.26138 11.6315 8.26009 12.742V87.258C8.26009 88.3689 8.68626 89.4343 9.44486 90.2198C10.2035 91.0054 11.2323 91.4467 12.3051 91.4467H187.695C188.767 91.4454 189.795 91.0036 190.554 90.2184C191.312 89.4331 191.739 88.3685 191.74 87.258V12.742C191.739 11.6315 191.312 10.5668 190.554 9.78159C189.795 8.99635 188.767 8.5546 187.695 8.55327H12.3051Z" fill="white"/>
<path d="M158.617 4.71615C134.527 26.5545 122.518 54.427 120.255 87.5039C113.991 77.1051 107.823 67.4456 98.631 60.6472C97.5104 60.4161 96.3587 60.3974 95.2318 60.5919C92.9349 62.3417 90.7399 64.2525 89.5356 67.0332C89.623 68.3054 90.3077 69.1049 91.041 69.8994C94.7267 73.9221 98.4173 77.8845 102.074 81.9072C105.959 86.1663 109.785 90.4556 113.641 94.7448C113.775 94.8565 113.882 95.0006 113.95 95.1645C114.019 95.3283 114.048 95.507 114.034 95.6851H13.2864C9.23164 95.6851 6.23061 93.7643 4.86122 90.2243C4.38085 88.9904 4.13358 87.6726 4.13281 86.3423C4.13281 62.1255 4.13281 37.907 4.13281 13.6868C4.13281 8.18574 7.3135 4.72618 13.0193 4.30882C13.5049 4.27362 13.9905 4.30882 14.4761 4.30882C61.6572 4.30882 108.837 4.30882 156.015 4.30882C156.806 4.30882 157.627 4.05743 158.617 4.71615ZM36.605 57.972C36.605 53.1347 36.605 48.5337 36.605 43.9327C36.6433 42.3877 36.1554 40.878 35.2267 39.6681C34.298 38.4582 32.9878 37.6253 31.5256 37.3153C27.5356 36.3241 23.3756 36.3241 19.3856 37.3153C18.1342 37.6072 16.9457 38.1356 15.8795 38.8741C15.0027 39.4479 14.3062 40.2737 13.8751 41.2506C13.4439 42.2275 13.2967 43.3132 13.4515 44.3752H21.5465C22.1535 43.9478 21.9398 43.0376 22.4934 42.7711C23.235 42.2514 24.1144 41.9833 25.0097 42.004C25.9049 42.0247 26.7718 42.3332 27.4903 42.8868C27.677 43.1064 27.8024 43.3747 27.8529 43.6627C27.9034 43.9506 27.8771 44.2474 27.7768 44.521C27.5978 44.8696 27.3409 45.1689 27.0275 45.3937C26.7141 45.6185 26.3533 45.7624 25.9752 45.8134C24.5184 45.9491 23.1635 46.4419 21.697 46.5173C19.45 46.5924 17.2439 47.1597 15.224 48.1817C12.8688 49.4137 11.8733 51.5457 11.9024 54.0901C11.9364 56.5289 12.8979 58.6156 15.1657 59.7822C16.5864 60.5675 18.1642 60.9996 19.774 61.0444C22.7633 61.1413 25.6888 60.1363 28.0293 58.2083C28.8451 58.862 28.5149 59.9431 29.2627 60.4762C30.6418 60.4762 32.0161 60.5114 33.3855 60.4762C34.7549 60.441 36.1923 60.6924 37.6831 60.26L36.605 57.972ZM60.7783 43.7819C61.1376 42.2331 60.5986 41.0715 59.7585 40.0105C58.6888 38.7554 57.301 37.8357 55.7523 37.3555C54.5043 36.903 53.2126 36.9985 51.9549 36.7521C48.857 36.1805 45.6636 36.7593 42.9373 38.3864C41.8354 38.9365 40.9206 39.8198 40.3137 40.9196C39.7068 42.0193 39.4363 43.2839 39.5381 44.5462C39.6837 47.2314 41.1211 48.9762 43.4763 50.0221C45.1216 50.6597 46.8159 51.1525 48.5411 51.4954C50.061 51.8826 51.7801 51.782 52.9407 53.1297C53.0086 54.8745 53.0087 54.8745 51.6441 55.9255C49.3521 56.2825 47.6622 55.5684 46.9872 53.1397H39.305C39.1448 53.3498 39.0415 53.6003 39.0056 53.8654C38.9698 54.1305 39.0027 54.4007 39.101 54.6482C39.4127 55.9031 40.0312 57.0536 40.8971 57.989C41.763 58.9243 42.8469 59.6129 44.0444 59.9884C46.7031 60.9861 49.5553 61.3035 52.3579 60.9136C54.5432 60.5817 56.7721 60.3203 58.7727 59.0079C61.2736 57.3737 62.0408 55.0908 61.9146 52.2095C61.8029 49.5595 60.2101 48.2219 58.122 47.2364C57.4694 46.9228 56.8016 46.6442 56.1214 46.4016C54.145 45.6926 52.0714 45.4462 50.061 44.8931C49.5909 44.7965 49.1503 44.5838 48.7766 44.273C48.4029 43.9622 48.1072 43.5626 47.9147 43.1081L48.4683 42.0169L50.4447 41.4487C51.0854 41.5368 51.6933 41.7953 52.209 42.1989C52.7246 42.6025 53.1306 43.1374 53.3874 43.7517L60.7783 43.7819ZM79.6196 51.5105C79.5097 51.7307 79.4125 51.9573 79.3283 52.1893C79.1277 52.9612 78.6918 53.6454 78.0855 54.1401C77.4791 54.6348 76.7347 54.9136 75.9631 54.9349C74.4625 55.0355 73.1951 53.8136 72.525 51.9179C71.6655 49.5092 72.0103 47.1811 72.8212 44.8781C72.9968 44.3638 73.3059 43.9096 73.7145 43.5654C74.1232 43.2212 74.6156 43.0003 75.1375 42.927C75.9235 42.7495 76.7413 42.7981 77.5024 43.0678C78.7893 43.5706 78.9252 45.0088 79.5905 45.8687H87.7923C87.9375 45.6935 88.0355 45.4818 88.0764 45.2549C88.1173 45.028 88.0997 44.7939 88.0254 44.5763C87.263 41.4738 85.4954 39.1758 82.6304 37.969C79.3866 36.5962 75.9971 36.0431 72.5396 36.9633C70.5146 37.5064 68.5625 38.2959 66.9843 39.8195C63.9056 42.7913 62.8324 46.5877 63.3763 50.7261C63.9444 54.9952 66.0762 58.2989 70.2135 59.8828C73.8319 61.3568 77.8423 61.43 81.5086 60.089C86.0102 58.4447 87.8215 56.0059 88.1031 51.5005L79.6196 51.5105ZM37.1392 11.8514V19.5851C37.8643 19.8625 38.6637 19.8464 39.3778 19.5399C39.4506 18.5342 39.5186 17.5285 39.6255 15.9647L40.7666 19.4292C41.0068 19.6132 41.2865 19.734 41.5817 19.7813C41.8769 19.8286 42.1788 19.8009 42.4614 19.7008C43.656 18.8108 42.9081 17.1162 44.1998 16.4373C44.496 17.5687 44.025 18.6951 44.5398 19.6806C45.3361 19.7309 46.05 19.9874 46.6521 19.4695V11.8615H43.5346C42.3643 13.0734 42.8256 14.954 41.6844 16.2412L40.2276 11.8514H37.1392ZM56.4564 24.1308C56.4564 26.645 56.3059 29.1894 56.5633 31.7237C57.4179 31.8947 58.1075 32.0355 58.9913 31.5377V27.8166C60.1713 29.3252 60.8366 30.7683 62.1574 31.8846C62.9052 31.7488 63.7842 32.1159 64.5466 31.6885V23.9045C63.5754 23.8744 62.7838 23.6581 61.9389 24.0906C61.8855 25.2672 61.832 26.4339 61.7689 27.8418L58.8553 23.9498C58.0055 23.8291 57.3014 23.6984 56.471 24.1308H56.4564ZM86.1316 25.8002L85.3498 24.4576C82.98 23.5073 80.7074 23.8744 78.3668 23.9146C78.3668 25.4583 78.3231 26.7054 78.3668 27.9373C78.4105 29.1693 78.1046 30.5622 78.697 31.9903C81.1493 31.417 83.8638 32.7948 85.9179 30.7834C86.4278 29.3503 86.0636 28.3396 85.2138 27.6004L86.1316 25.8002ZM56.5487 19.7662C59.0107 19.6907 61.2687 20.1886 63.4491 18.846C63.7065 18.3431 64.0512 17.795 64.3038 17.2017C65.3575 14.6875 64.0707 12.1179 61.5018 11.8313C59.8558 11.5773 58.1795 11.6232 56.5487 11.9671V19.7662ZM33.4826 19.7259C34.2916 19.8679 35.121 19.8215 35.9106 19.5902C35.425 18.3532 36.0951 16.8497 34.614 16.0451C35.7455 15.135 35.8475 14.0337 35.4007 12.7012C33.1184 11.0117 30.5447 11.9822 27.8253 11.8012C27.9856 14.5567 27.6748 17.1011 28.0147 19.6857C28.9859 19.746 29.8697 20.0226 30.6224 19.4996C30.8895 18.6146 30.4961 17.7347 31.0012 16.915C31.8655 16.6385 32.492 17.1011 33.0553 17.6391C33.3272 18.3079 32.9873 19.032 33.4972 19.7209L33.4826 19.7259ZM46.3948 26.2629C45.7538 30.5622 47.2834 31.6835 50.5904 32.297C52.4696 31.9902 54.1935 31.4421 54.9899 29.2397C55.1203 28.224 55.1072 27.1942 54.9511 26.1824C52.2705 22.6927 48.8956 22.743 46.4093 26.283L46.3948 26.2629ZM12.2181 23.7034C12.3686 26.6701 12.0821 29.2346 12.4075 31.7488C13.2573 31.9047 13.9517 32.0355 14.5975 31.6785C15.0831 30.8136 14.2625 29.5414 15.5202 28.9882C16.098 28.9178 16.5351 29.3051 17.0013 29.5816C17.4335 30.2403 16.8993 31.0901 17.5209 31.8293C18.2881 31.8645 19.1379 32.0505 19.9489 31.6935C20.0927 31.0742 20.0943 30.4287 19.9534 29.8086C19.8126 29.1886 19.5333 28.6114 19.1379 28.1234C19.5701 27.3792 20.0654 26.7054 19.9974 25.6394C18.089 22.6977 15.1317 24.2666 12.2181 23.7034ZM54.7471 11.7006C52.5716 11.9268 50.4155 11.4894 48.342 11.952V19.6455H55.4949C55.3395 18.9666 55.7426 18.3834 55.2279 17.9761C53.8876 17.4129 52.3628 18.3633 51.0177 17.2821C52.12 16.2312 53.3874 17.1414 54.3489 16.5329C54.5085 16.2983 54.5913 16.017 54.5852 15.7301C54.5791 15.4432 54.4843 15.166 54.3149 14.9389C53.3097 14.4662 52.0957 15.2004 50.9643 14.255C52.2997 13.179 53.8245 14.255 54.9511 13.4605C55.0491 13.1705 55.0818 12.8611 55.0464 12.556C55.0111 12.251 54.9087 11.9583 54.7471 11.7006ZM30.8798 67.6266V76.4263C31.5256 76.6928 32.0501 76.7732 32.5551 76.3961C33.0164 75.3904 32.3706 74.2289 32.9921 73.2132H35.493C37.0178 74.073 36.2311 75.5262 36.7604 76.4665C37.4014 76.6727 37.9356 76.7984 38.5329 76.2654C38.4552 74.9178 38.9116 73.4193 37.6248 72.3181C38.8582 71.1817 38.6397 69.9648 38.3726 68.6524C36.0514 66.822 33.4535 67.8277 30.8798 67.6266ZM65.7703 26.8965C66.9066 29.0939 69.1695 28.4402 70.5195 29.6319C69.286 30.3862 69.1889 30.5068 68.6159 30.0191C67.6738 29.2145 66.7706 29.29 65.678 29.6621C66.0131 32.2165 68.106 31.7137 69.388 32.3472C72.5881 31.3969 72.5881 31.3969 73.3262 29.2799C72.7581 26.7004 70.0436 27.4345 68.4702 25.9913C70.1164 25.1063 71.4858 27.2082 72.9669 25.926C72.7047 24.9203 71.9617 24.3671 71.0245 23.8291C69.2957 23.9095 67.3582 23.3263 65.8285 25.1667C65.7007 25.727 65.6809 26.308 65.7703 26.8763V26.8965ZM36.9255 29.2297C36.4739 27.5301 35.0365 27.2183 33.6234 26.8763C32.9144 26.7154 32.2443 26.6299 32.2686 25.4231C33.7545 25.5991 34.9831 26.9669 36.5662 25.9562C36.3955 25.4898 36.1353 25.0641 35.8015 24.7046C35.4677 24.3451 35.0671 24.0592 34.6238 23.8643C32.8707 23.8643 30.9575 23.3213 29.5249 25.0158C29.375 25.3613 29.2975 25.7358 29.2975 26.1145C29.2975 26.4933 29.375 26.8678 29.5249 27.2133C30.4962 29.1794 32.759 28.3899 34.1139 29.4861C33.8905 30.1498 33.4923 30.356 32.7639 30.346C31.7927 29.5867 30.5641 29.0335 29.1073 29.5565C29.4764 31.774 31.244 31.945 32.7396 32.3472C34.6189 31.8796 36.639 31.8142 36.9255 29.1995V29.2297ZM27.6408 27.1227C26.4171 26.4439 24.9749 27.5652 23.9405 26.1422C25.3973 25.5086 26.825 26.1422 28.107 25.6997C28.2699 25.4447 28.3567 25.1456 28.3567 24.8398C28.3567 24.534 28.2699 24.235 28.107 23.98H21.6096V31.7891H28.1264C28.2984 31.5218 28.3852 31.2054 28.3747 30.8843C28.3643 30.5633 28.2571 30.2537 28.0681 29.999C26.8056 29.6369 25.3196 30.2856 23.6686 29.4157C25.1254 28.41 26.5482 29.2397 27.6165 28.6212C27.7431 28.3904 27.8117 28.1305 27.8159 27.8651C27.8201 27.5998 27.7599 27.3376 27.6408 27.1026V27.1227ZM73.0883 76.6425C74.7588 76.6425 76.2787 76.6878 77.7889 76.6425C78.3969 76.6276 78.9867 76.4255 79.4832 76.0618C79.9797 75.6982 80.3602 75.1896 80.5763 74.601C81.0628 73.6103 81.2498 72.4908 81.1129 71.3885C80.9761 70.2862 80.5217 69.2521 79.809 68.4211C77.6141 67.2494 75.3949 67.6316 73.0883 67.6819V76.6425ZM37.6394 23.9498C37.6394 25.3477 37.6394 26.5847 37.6394 27.8217C37.6394 29.0587 37.4985 30.4666 37.7802 31.8142C38.5842 31.95 39.4042 31.95 40.2082 31.8142C40.8638 31.0851 40.0868 30.0291 40.9366 29.4358C42.4905 29.3704 44.195 29.6671 45.307 27.9022C45.307 27.5502 45.375 27.1378 45.375 26.7255C45.375 26.3131 45.3216 25.9008 45.3022 25.6192C43.7822 23.4922 42.4031 23.7638 37.6199 23.9297L37.6394 23.9498ZM21.4445 11.942C20.4345 14.3858 19.3856 16.9 18.594 19.4846C20.1577 20.1534 21.1629 19.5701 21.9933 18.665C22.7896 18.8661 23.5278 18.5392 24.2319 18.9063C24.4844 19.203 24.5621 19.6907 25.1788 19.741C25.7858 19.6756 26.587 19.9975 27.3154 19.4796C26.286 16.8396 25.3099 14.3355 24.3387 11.8363C23.3769 11.6706 22.3927 11.7065 21.4445 11.942ZM18.9048 73.6607L17.448 75.0585C15.9912 75.3703 14.8937 75.1391 14.2479 73.6054C14.2479 72.5997 14.0974 71.413 14.3305 70.4224C15.088 69.0747 16.1272 68.9139 17.4723 69.1854L18.9291 70.5682C19.5021 70.4727 20.1188 70.8598 20.483 70.176C20.213 69.5607 19.8203 69.0117 19.3307 68.5649C18.8411 68.1181 18.2656 67.7837 17.6422 67.5837C17.0188 67.3837 16.3616 67.3227 15.7138 67.4046C15.066 67.4866 14.4423 67.7096 13.8837 68.059C11.883 69.2357 11.2226 72.5846 12.524 74.9178C13.7477 77.1253 16.7585 77.6884 19.0554 76.1346C20.0266 75.486 20.6773 74.254 20.3082 73.7562C19.8809 73.4897 19.405 73.6104 18.8805 73.6607H18.9048ZM28.4712 71.1012H24.261C23.9162 70.3167 23.8677 69.7837 24.3824 69.0898H28.6314C28.9276 68.4965 28.9811 68.1194 28.5926 67.7322H22.1292V76.552H29.0782C29.2335 76.3347 29.3016 76.0636 29.2681 75.7955C29.2346 75.5274 29.1022 75.2831 28.8985 75.1139H24.125C23.9405 74.1887 23.79 73.4797 24.2173 72.7757C25.6984 72.4036 27.2572 72.9667 28.6654 72.4136C28.7424 72.1941 28.7627 71.9576 28.7244 71.7274C28.6861 71.4972 28.5904 71.2814 28.4469 71.1012H28.4712ZM70.9371 71.3376C69.456 70.6788 67.7709 71.4834 66.2802 70.8649C66.2122 70.2212 66.0082 69.6329 66.5909 69.1753C68.0477 68.8988 69.6017 69.4016 71.0342 68.8686C71.0779 68.4311 71.1653 68.0993 70.8837 67.7573H64.3086V76.5168H71.5247C71.3644 76.0391 71.6752 75.6519 70.9808 75.0686H66.2947C66.1879 74.1182 65.95 73.3841 66.6249 72.5544H70.6117C70.7614 72.3973 70.8681 72.2019 70.921 71.9881C70.9739 71.7743 70.9711 71.5498 70.9128 71.3376H70.9371ZM12.388 19.7209C13.4078 19.7209 14.2625 19.9371 15.02 19.5751C15.3745 18.6649 14.9375 17.7799 15.3745 17.0609C16.1903 16.5178 17.1615 17.1413 17.9385 16.6435C18.0249 16.5185 18.0849 16.376 18.1144 16.2253C18.144 16.0746 18.1424 15.9191 18.1098 15.769C18.0773 15.619 18.0145 15.4778 17.9255 15.3547C17.8366 15.2316 17.7235 15.1292 17.5937 15.0545C16.9818 14.4914 15.7144 15.4518 15.1657 14.1444C16.3846 13.2946 17.7831 14.1444 18.8951 13.541C19.0796 12.9024 19.2107 12.3492 18.7397 11.9017H12.4269L12.388 19.7209ZM59.2729 67.5813C56.8449 67.6416 54.5529 67.4154 52.3337 67.7322V76.5319C53.1155 76.6174 53.7565 76.8286 54.3926 76.2905C54.446 75.2849 54.5043 74.2339 54.5674 73.0019H58.1317C58.5591 72.2426 58.6174 71.7298 58.1026 71.2772C56.84 70.9604 55.5289 71.4532 54.2518 70.9504C54.3878 70.352 54.514 69.8089 54.6888 69.0647H58.9961C59.4235 68.5619 59.3215 68.23 59.2729 67.5813ZM92.9057 23.8894C94.1294 25.8606 95.1686 27.5401 96.1932 29.1995C96.3923 30.0241 96.0621 30.884 96.4749 31.774C97.2324 31.8846 97.9948 32.0858 98.8301 31.5125C98.0725 28.3899 100.918 26.6903 101.685 24.0705C100.856 23.7943 99.9713 23.7424 99.1166 23.9196C98.3687 24.6135 98.3347 25.6846 97.5578 26.2327C96.6303 25.7298 96.6934 24.4727 95.8679 23.8894H92.9057ZM87.5641 24.0554C87.5641 26.6903 87.3553 29.2296 87.6904 31.8444C89.9678 31.8444 92.0996 32.0958 94.3285 31.6684C94.1683 31.0499 94.4645 30.542 93.9158 29.9588L90.366 29.7828V23.9196C89.3997 23.8543 88.6276 23.6934 87.5835 24.0554H87.5641ZM86.6366 84.0091C88.1565 82.3799 88.3848 82.2693 89.8707 83.2549C90.1304 83.4637 90.4392 83.5971 90.7653 83.6413C91.0913 83.6855 91.4228 83.6389 91.7257 83.5063C91.3372 81.5402 89.7833 81.5854 88.5207 81.1077L86.1364 81.9626C85.456 82.8447 84.9599 83.8635 84.6796 84.9545C84.7573 85.1958 84.8253 85.4573 84.903 85.6635C85.7916 88.3839 87.0057 89.1834 89.5648 88.3336C90.4097 88.052 91.0507 88.8364 91.7985 88.4392V84.6729C90.6671 84.8489 89.6036 84.3561 88.6518 84.9746C88.6518 86.0658 90.7933 85.4322 89.7007 87.1067C88.9666 87.316 88.1914 87.316 87.4573 87.1067C86.5152 86.3172 86.5152 85.2461 86.6366 84.0091ZM51.6975 88.8113C50.6243 87.3028 51.6975 86.2971 51.6587 85.1607C51.5858 82.8929 49.9882 81.1379 47.8953 81.1983C46.9244 81.2453 46.0106 81.6865 45.3516 82.4262C44.6926 83.166 44.3417 84.1448 44.3746 85.1506C44.4961 87.348 46.3705 89.1029 48.4828 88.6001C49.4783 88.3386 50.299 88.6252 51.6975 88.7861V88.8113ZM19.8275 84.3661C20.6287 86.3775 23.285 84.7282 23.9842 86.7396C22.3963 88.5297 21.1386 85.6786 19.6138 86.5133C20.483 89.0275 22.5517 89.4046 25.2322 87.5894C25.4048 87.226 25.4912 86.8253 25.4845 86.4204C25.4777 86.0155 25.3779 85.6182 25.1934 85.2612C24.0376 84.1198 22.2069 84.6628 21.124 83.451C22.5517 81.143 23.9308 84.4215 25.3342 83.4108C24.4698 81.7916 24.4698 81.7916 22.3332 81.158L20.3034 81.862C19.7546 82.6716 19.4293 83.4108 19.8275 84.341V84.3661ZM71.8694 88.5347C74.8753 88.7912 76.4827 87.8156 76.842 85.5177C77.2013 83.2197 76.0116 81.9475 72.9815 81.1681C71.141 81.4698 69.893 82.5207 69.6551 84.4969C69.4317 86.3674 70.3786 87.6598 71.8694 88.5347ZM54.6209 86.9407C54.2081 85.3115 54.6888 83.5415 54.3586 81.9123C53.7322 81.5301 53.2272 81.4446 52.6979 81.9927V86.6893C52.8621 87.1154 53.1075 87.5029 53.4196 87.8286C53.7316 88.1543 54.1038 88.4116 54.514 88.585C56.6652 88.6906 56.6652 88.6906 58.2774 87.5441C59.001 85.6534 58.9816 83.7124 58.6708 81.6609C58.1123 81.7162 57.6413 81.4447 56.9857 82.028V87.0564C56.0922 87.1871 55.4367 87.4385 54.6209 86.9307V86.9407ZM44.4232 69.6229C45.6275 68.768 46.7104 69.4971 47.5505 68.8032L47.1717 67.7473H39.6934C39.5575 68.3105 39.4749 68.7127 40.1062 69.1703H42.4419V76.3156C42.7325 76.5303 43.0805 76.6456 43.4374 76.6456C43.7944 76.6456 44.1424 76.5303 44.4329 76.3156L44.4232 69.6229ZM77.9589 88.4794C78.595 88.6101 78.9932 88.6655 79.1389 88.4191C79.5565 87.4586 79.0563 86.5586 79.6245 85.7993C80.4063 85.6585 81.1881 85.4825 81.7611 85.9149C82.4993 86.639 81.9991 87.529 82.4264 88.1626C82.878 88.5699 83.3588 88.8113 83.9415 88.409C83.5142 87.3379 83.9415 86.0959 83.2617 85.1405C83.5093 84.4718 84.1892 84.0896 84.0823 83.2147C84.003 82.9001 83.8579 82.6073 83.6574 82.3571C83.4568 82.1069 83.2057 81.9053 82.9217 81.7665H77.9686L77.9589 88.4794ZM14.5927 81.9425C13.8303 83.9086 12.7668 86.0004 12.3201 88.3336C13.7769 89.1331 13.976 87.705 14.6121 87.2072H16.8022C17.3558 87.9816 17.7102 89.1231 19.0796 88.3034L16.5885 81.5955C15.9135 81.681 15.3648 81.4446 14.6024 81.9374L14.5927 81.9425ZM66.2364 88.404L63.8084 81.8067C63.4701 81.6632 63.1054 81.5987 62.7403 81.6178C62.3752 81.6369 62.0187 81.7392 61.6961 81.9173L59.3215 88.3034C60.8511 89.0929 61.0939 87.7151 61.7058 87.2022H64.0367C64.3717 88.0319 64.7797 88.8766 66.2462 88.3989L66.2364 88.404ZM39.4798 87.1821C40.383 87.1821 41.2668 87.0111 42 87.2625C42.5294 87.6547 42.2574 88.3939 42.9081 88.5649C43.1091 88.6001 43.3156 88.5742 43.5026 88.4903C43.6897 88.4064 43.8492 88.2681 43.9619 88.0922C43.3238 85.9209 42.5633 83.7903 41.6844 81.7112C40.8783 81.6207 40.2276 81.4296 39.6789 81.8821C38.9408 84.1198 37.7025 86.1562 37.3528 88.4542C38.7222 88.9973 38.8582 87.6698 39.4895 87.1771L39.4798 87.1821ZM33.031 83.4711L31.9578 81.8268C31.1323 81.681 30.4767 81.0876 29.4812 81.1983C28.8069 81.3186 28.1737 81.6162 27.6423 82.0626C27.1109 82.509 26.699 83.0892 26.4462 83.7477C26.252 85.2562 26.3248 86.6642 27.3446 87.8056C30.2048 89.3141 31.8024 88.9068 32.861 86.2971C31.3362 85.4775 30.3359 88.3889 28.5829 86.7396C28.1652 86.1694 27.908 85.4907 27.8399 84.7785C28.1458 84.1701 28.2284 83.27 29.0539 82.7671C29.724 82.5559 30.4573 82.4755 30.9963 83.109C31.5353 83.7426 32.2346 83.808 33.0407 83.4661L33.031 83.4711ZM76.9003 31.7137C76.9003 29.0285 77.0994 26.4841 76.774 23.799C75.8028 23.9498 74.9239 23.5676 74.1518 24.0403V31.8494C75.0685 31.9729 75.9991 31.9269 76.9003 31.7137ZM50.4738 76.4665V67.6668C49.6823 67.6065 49.0461 67.3902 48.4197 67.8378V76.4414C48.7406 76.5968 49.0899 76.6795 49.4441 76.6839C49.7984 76.6882 50.1495 76.6141 50.4738 76.4665ZM60.5161 67.7774V76.7129C61.1813 76.5067 61.7592 76.9442 62.172 76.376V67.7322C61.6351 67.5298 61.0445 67.5423 60.5161 67.7673V67.7774ZM69.0335 87.5843C68.8247 87.2072 68.5965 86.8049 68.0089 86.8351C67.2077 87.2374 67.0134 87.7955 67.5233 88.5498C68.3245 88.7359 68.815 88.4844 69.0335 87.5843ZM36.571 85.0701C35.7309 84.5673 34.8908 84.2304 33.9536 85.2311C34.9928 85.8093 35.7892 85.8345 36.5613 85.0802L36.571 85.0701Z" fill="#16ACA9"/>
<path d="M195.803 87.6595C195.662 92.0191 192.273 95.4284 187.82 95.705C187.499 95.705 187.174 95.705 186.849 95.705C167.93 95.705 149.007 95.705 130.082 95.705C129.387 95.705 128.625 95.9464 127.926 95.4083C129.407 91.0235 129.868 86.3974 130.699 81.8617C132.728 70.4306 136.422 59.3848 141.654 49.1016C145.087 42.3934 149.197 36.0811 153.915 30.2702C156.621 26.8423 159.505 23.569 162.554 20.4648C166.917 16.1207 171.523 12.0473 176.35 8.26592C177.511 7.36583 178.705 6.50599 179.788 5.51539C180.226 5.08552 180.745 4.75414 181.312 4.54212C181.88 4.33009 182.483 4.24197 183.085 4.28339C185.246 4.40408 187.422 4.13256 189.578 4.67562C193.045 5.54051 195.672 8.69834 195.798 12.2685C194.934 12.8971 195.405 13.8123 195.4 14.5716C195.366 23.6227 195.4 32.6436 195.4 41.6797C195.4 56.2353 195.4 70.7926 195.4 85.3515C195.405 86.1158 194.944 87.0259 195.803 87.6595ZM187.339 23.3361C185.765 23.1848 184.178 23.3557 182.668 23.8389C175.146 25.9307 168.872 29.9534 163.996 36.3496C159.121 42.7457 157.611 50.1375 157.013 57.9416C156.737 61.6325 157.499 65.2529 157.543 68.9236C157.572 71.2971 156.649 72.8609 154.629 73.8867C152.531 74.9194 150.378 75.8277 148.18 76.6071C144.864 77.8139 141.523 78.9553 138.211 80.1772C137.186 80.5544 136.094 80.9416 135.637 82.2791C137.312 83.5463 139.197 83.4356 140.979 83.3652C144.427 83.2295 147.865 82.8624 151.312 82.5708C154.396 82.3244 156.834 83.4205 158.344 86.327C158.922 87.4332 159.718 88.1422 160.888 88.2026C162.53 87.4986 162.457 85.9398 162.782 84.8637C162.51 81.4092 161.573 78.3268 160.84 75.1438C163.826 73.9068 166.667 72.8056 169.435 71.5787C176.117 68.632 181.201 63.9204 184.411 57.0867C187.621 50.2531 188.781 42.9116 188.995 35.3942C189.081 32.8131 188.896 30.2301 188.441 27.6907C188.179 26.2827 188.616 24.6082 187.339 23.3361ZM187.97 87.8958V81.731C187.125 81.7662 186.426 81.5097 186.028 81.731C184.697 82.6914 185.033 84.2905 183.964 85.1051C183.449 83.9435 183.129 82.7568 182.337 81.6958C181.677 81.8316 180.949 81.4594 180.041 82.1584C179.814 84.1401 179.826 86.1433 180.075 88.1221C180.72 88.0719 181.289 88.3987 181.828 87.6193V84.7782C182.974 85.6934 182.619 87.3829 183.731 88.1925C185.504 87.9763 185.188 86.1812 185.984 85.2609C186.591 86.1007 185.819 87.2271 186.514 88.0417C186.749 88.1468 187.005 88.1885 187.26 88.163C187.515 88.1375 187.759 88.0456 187.97 87.8958ZM175.039 83.506V87.921C175.777 88.2126 176.365 88.3484 177.006 87.6293V83.4105C177.579 82.9077 178.268 83.3501 178.686 82.8473C178.773 82.6829 178.815 82.4964 178.805 82.3089C178.796 82.1214 178.736 81.9404 178.632 81.7863H173.334C173.218 81.926 173.143 82.0982 173.12 82.2814C173.096 82.4646 173.125 82.6509 173.203 82.8171C173.621 83.3552 174.301 82.9278 175.039 83.506Z" fill="#10ACA9"/>
<path d="M195.805 87.6605C194.945 87.032 195.407 86.1168 195.407 85.3525C195.377 70.7936 195.377 56.2363 195.407 41.6807C195.407 32.6296 195.407 23.6086 195.407 14.5726C195.407 13.8133 194.921 12.8981 195.805 12.2695C195.829 13.4412 195.868 14.6128 195.868 15.7894V85.1815C195.868 85.986 195.829 86.8208 195.805 87.6605Z" fill="#02A1A1"/>
<path d="M65.7699 26.8762C65.6747 26.302 65.6912 25.7138 65.8185 25.1464C67.3482 23.2808 69.2857 23.8893 71.0144 23.8088C71.9516 24.3469 72.6946 24.9251 72.9568 25.9056C71.4758 27.1879 70.1064 25.086 68.4602 25.971C70.0432 27.4142 72.7578 26.68 73.3162 29.2596C72.5781 31.3766 72.5781 31.3766 69.378 32.3269C68.1105 31.6934 65.9788 32.1962 65.668 29.6418C66.7606 29.2697 67.6638 29.1942 68.6059 29.9988C69.1789 30.5016 69.276 30.3658 70.5094 29.6116C69.1449 28.4199 66.9062 29.0736 65.7699 26.8762Z" fill="#F3F9FA"/>
<path d="M36.9245 29.2004C36.638 31.8051 34.6179 31.8704 32.7143 32.318C31.2187 31.9157 29.4511 31.7448 29.082 29.5272C30.5388 29.0244 31.7577 29.5574 32.7386 30.3167C33.467 30.3167 33.8652 30.1206 34.0886 29.4568C32.7338 28.3606 30.4563 29.1501 29.4996 27.184C29.3497 26.8385 29.2722 26.4641 29.2722 26.0853C29.2722 25.7065 29.3497 25.332 29.4996 24.9866C30.9322 23.292 32.8454 23.83 34.5985 23.835C35.0418 24.03 35.4424 24.3158 35.7762 24.6753C36.11 25.0348 36.3701 25.4605 36.5409 25.9269C34.9578 26.9326 33.7292 25.5699 32.2433 25.3939C32.219 26.6007 32.8891 26.6861 33.5981 26.847C35.0404 27.189 36.4972 27.5108 36.9245 29.2004Z" fill="#F3F9FA"/>
<path d="M73.0898 76.6228V67.652C75.3965 67.6018 77.6156 67.2196 79.8106 68.3912C80.5232 69.2222 80.9776 70.2563 81.1145 71.3587C81.2513 72.461 81.0643 73.5805 80.5778 74.5711C80.3618 75.1598 79.9812 75.6683 79.4847 76.032C78.9883 76.3956 78.3984 76.5978 77.7905 76.6127C76.2802 76.668 74.7603 76.6228 73.0898 76.6228ZM79.1453 72.2983C78.9316 70.7395 78.684 69.583 77.3146 69.1304C76.6299 69.1908 75.8189 68.889 74.974 69.417C74.865 71.316 74.9007 73.221 75.0808 75.1143C76.086 75.0841 76.9552 75.2902 77.538 75.0438C78.8442 74.2996 78.8491 73.128 79.1453 72.2983Z" fill="#F3F9FA"/>
<path d="M37.6183 23.9295C42.4015 23.7635 43.7709 23.492 45.2811 25.5888C45.2811 25.8704 45.354 26.2828 45.354 26.6951C45.354 27.1074 45.3054 27.5197 45.286 27.8717C44.1642 29.6367 42.4598 29.3401 40.9156 29.4054C40.0658 29.9988 40.8427 31.0547 40.1872 31.7838C39.3831 31.9196 38.5632 31.9196 37.7592 31.7838C37.4775 30.4362 37.6475 29.1037 37.6183 27.7913C37.5892 26.4788 37.6183 25.3274 37.6183 23.9295ZM40.8476 27.7913C41.8188 27.6102 42.9454 27.7108 42.79 26.0967C41.979 25.7296 41.2506 25.5938 40.5368 26.0967C40.4882 26.6347 40.3328 27.1225 40.867 27.7913H40.8476Z" fill="#F3F9FA"/>
<path d="M21.4443 11.9423C22.3994 11.7075 23.3904 11.675 24.3579 11.8467C25.3291 14.361 26.3004 16.8751 27.3347 19.4899C26.6063 19.9927 25.805 19.686 25.198 19.7514C24.5813 19.7011 24.5036 19.2134 24.2511 18.9167C23.547 18.5496 22.7943 18.8764 22.0125 18.6753C21.1627 19.5804 20.1575 20.1838 18.6133 19.4949C19.3611 16.9003 20.41 14.3861 21.4443 11.9423ZM23.5227 16.9104C23.4644 16.0053 23.7121 15.07 22.5515 14.3006C22.8429 15.3516 21.8765 15.9801 22.197 16.9154C22.5078 17.2724 22.8672 17.2574 23.4984 16.9104H23.5227Z" fill="#F3F9FA"/>
<path d="M18.8803 73.6605C19.4047 73.6102 19.8806 73.4895 20.3079 73.756C20.677 74.2589 20.0166 75.4858 19.0551 76.1344C16.7582 77.6882 13.7474 77.1402 12.5237 74.9176C11.2223 72.5593 11.8827 69.2355 13.8834 68.0588C14.442 67.7094 15.0657 67.4864 15.7135 67.4045C16.3613 67.3225 17.0185 67.3835 17.6419 67.5835C18.2653 67.7835 18.8408 68.1179 19.3304 68.5647C19.82 69.0115 20.2128 69.5605 20.4827 70.1758C20.1185 70.8597 19.5115 70.4725 18.9288 70.568L17.472 69.1852C16.1269 68.8885 15.0877 69.0746 14.3302 70.4222C14.0971 71.4279 14.233 72.5744 14.2476 73.6052C14.8935 75.1137 15.9861 75.3701 17.4477 75.0584L18.8803 73.6605Z" fill="#F1F8F8"/>
<path d="M59.2713 67.5808C59.3296 68.2295 59.4218 68.5865 58.9945 69.0894H54.6872C54.5124 69.8336 54.3861 70.3766 54.2502 70.975C55.5273 71.4779 56.8384 70.975 58.101 71.3019C58.5866 71.7544 58.5575 72.2674 58.1301 73.0267H54.5658C54.5027 74.2586 54.4444 75.3095 54.391 76.3152C53.7549 76.8532 53.1139 76.6421 52.332 76.5566V67.7569C54.5512 67.415 56.8336 67.6412 59.2713 67.5808Z" fill="#F1F8F8"/>
<path d="M87.5846 24.0545C88.6286 23.6924 89.4007 23.8533 90.3865 23.9187V29.7818L93.9362 29.9578C94.485 30.5411 94.1887 31.049 94.349 31.6675C92.1201 32.0949 89.9786 31.8183 87.7108 31.8435C87.3757 29.2287 87.5943 26.6843 87.5846 24.0545Z" fill="#F3F9FA"/>
<path d="M86.6368 84.0093C86.5105 85.2715 86.5154 86.3425 87.4769 87.1219C88.211 87.3313 88.9862 87.3313 89.7203 87.1219C90.8129 85.4474 88.6714 86.081 88.6714 84.9899C89.6426 84.3714 90.6867 84.8642 91.8181 84.6882V88.4544C91.0703 88.8316 90.4293 88.0673 89.5844 88.3489C87.0252 89.2037 85.8112 88.3991 84.9226 85.6787C84.8449 85.4474 84.7769 85.2111 84.6992 84.9698C84.9795 83.8788 85.4756 82.8599 86.156 81.9778L88.5403 81.123C89.8126 81.6259 91.3568 81.5555 91.7453 83.5216C91.4424 83.6542 91.1109 83.7008 90.7848 83.6566C90.4588 83.6124 90.15 83.479 89.8903 83.2702C88.3849 82.2444 88.1567 82.355 86.6368 84.0093Z" fill="#E8F4F5"/>
<path d="M51.6961 88.7859C50.2976 88.625 49.4769 88.3383 48.4814 88.5747C46.369 89.0775 44.4946 87.3226 44.3732 85.1252C44.3402 84.1194 44.6912 83.1406 45.3502 82.4008C46.0091 81.6611 46.923 81.2199 47.8938 81.1729C49.9868 81.0874 51.5844 82.8675 51.6573 85.1353C51.6913 86.2717 50.6229 87.2824 51.6961 88.7859ZM49.1613 82.787C48.2338 82.616 47.5296 82.5155 46.8401 82.8825C46.2853 83.4617 45.942 84.2225 45.8689 85.0347C46.7235 87.1014 46.7235 87.1014 48.4814 87.0461C48.1755 85.8242 48.9185 85.8292 49.7634 85.9147C50.6326 84.6978 49.778 83.8128 49.1613 82.787Z" fill="#EDF6F7"/>
<path d="M19.829 84.3412C19.4308 83.411 19.7561 82.6718 20.3146 81.827L22.3444 81.123C24.481 81.7566 24.481 81.7566 25.3454 83.3758C23.942 84.3814 22.5629 81.1079 21.1352 83.416C22.2181 84.6278 24.0488 84.0848 25.2046 85.2262C25.3891 85.5832 25.4889 85.9806 25.4957 86.3854C25.5024 86.7903 25.416 87.191 25.2434 87.5544C22.5629 89.3697 20.4942 89.0026 19.625 86.4783C21.1255 85.6436 22.3832 88.4897 23.9954 86.7046C23.2864 84.7033 20.6302 86.3677 19.829 84.3412Z" fill="#E8F4F5"/>
<path d="M71.8696 88.5351C70.3788 87.6703 69.4416 86.3779 69.6552 84.5124C69.8932 82.5362 71.1412 81.4954 72.9816 81.1836C76.0118 81.963 77.1966 83.3056 76.8421 85.5332C76.4876 87.7608 74.8609 88.7815 71.8696 88.5351ZM74.5792 82.9385C74.1743 82.7447 73.7336 82.6444 73.2875 82.6444C72.8415 82.6444 72.4007 82.7447 71.9958 82.9385C71.6025 83.5721 71.0975 84.2107 71.1072 85.146C71.2872 85.9052 71.677 86.5937 72.2289 87.1272C72.993 87.3712 73.8176 87.3102 74.5404 86.9562C75.0139 86.2781 75.3099 85.4848 75.3999 84.6532C75.1765 84.1755 74.8997 83.5922 74.5792 82.9284V82.9385Z" fill="#F1F8F8"/>
<path d="M54.6222 86.9313C55.4283 87.4342 56.079 87.1878 56.9871 87.0571V82.0287C57.6427 81.4454 58.1137 81.7168 58.6721 81.6615C58.9829 83.7131 59.0023 85.6541 58.2788 87.5448C56.6666 88.6913 56.6666 88.6912 54.5154 88.5856C54.1052 88.4122 53.733 88.155 53.4209 87.8293C53.1089 87.5036 52.8634 87.1161 52.6992 86.6899V81.9985C53.2285 81.4504 53.7336 81.5358 54.36 81.918C54.6902 83.5321 54.2095 85.3021 54.6222 86.9313Z" fill="#F1F8F8"/>
<path d="M77.9688 88.4688V81.7559H82.9316C83.2156 81.8946 83.4667 82.0963 83.6672 82.3465C83.8678 82.5967 84.0128 82.8894 84.0922 83.204C84.199 84.079 83.5192 84.4611 83.2715 85.1299C83.9611 86.0853 83.524 87.3273 83.9514 88.3984C83.3686 88.8006 82.8879 88.5593 82.4411 88.152C82.009 87.5184 82.5091 86.6435 81.771 85.9043C81.198 85.4718 80.4162 85.6479 79.6344 85.7886C79.0662 86.5479 79.5664 87.448 79.1488 88.4084C79.0031 88.6548 78.6049 88.5995 77.9688 88.4688ZM82.6354 83.2795C81.4797 82.3241 80.4987 82.676 79.5907 82.7263C79.4132 83.0119 79.3267 83.3479 79.3433 83.6871C79.3598 84.0262 79.4786 84.3514 79.6829 84.617C80.4308 84.5868 81.266 84.8684 82.1109 84.441C82.2712 84.079 82.4314 83.722 82.6305 83.2795H82.6354Z" fill="#F3F9FA"/>
<path d="M14.6038 81.9377C15.3662 81.4348 15.9149 81.6812 16.6093 81.5957L19.0908 88.2986C17.7214 89.1182 17.3669 87.9768 16.8133 87.2024H14.6475C14.0114 87.7052 13.7977 89.1283 12.3555 88.3288C12.7779 86.0207 13.8414 83.9038 14.6038 81.9377ZM15.4099 83.7026C15.2351 84.3312 15.0797 84.9195 14.8854 85.6335C15.3953 85.6637 15.8567 85.8397 16.1917 85.352C16.2485 85.0266 16.2032 84.6911 16.0625 84.3943C15.9218 84.0975 15.6932 83.8552 15.4099 83.7026Z" fill="#EDF6F7"/>
<path d="M66.248 88.3988C64.7911 88.9017 64.3735 88.0217 64.0433 87.202H61.7124C61.1006 87.7049 60.8578 89.0928 59.3281 88.3033L61.6881 81.9121C62.0107 81.734 62.3673 81.6318 62.7324 81.6127C63.0975 81.5935 63.4622 81.658 63.8005 81.8015L66.248 88.3988ZM62.6885 83.5866C62.3194 84.2504 61.9115 84.7532 62.0086 85.598C62.5379 85.6634 63.0478 85.8997 63.5771 85.4522C63.2081 84.9393 63.4849 84.1498 62.6885 83.5866Z" fill="#EDF6F7"/>
<path d="M39.4902 87.1771C38.8589 87.6799 38.723 88.9973 37.3633 88.4492C37.7129 86.1512 38.9512 84.1147 39.6893 81.8771C40.2526 81.4245 40.8888 81.6156 41.6949 81.7061C42.5738 83.7852 43.3343 85.9159 43.9723 88.0872C43.8597 88.263 43.7001 88.4013 43.5131 88.4852C43.3261 88.5691 43.1195 88.5951 42.9186 88.5599C42.2679 88.3889 42.5398 87.6497 42.0105 87.2575C41.2772 87.0262 40.3837 87.1921 39.4902 87.1771ZM40.7334 83.3001C40.3837 84.0544 39.7622 84.6276 40.1021 85.4925C40.5877 85.7691 41.0053 85.8344 41.3938 85.3819C41.4328 85.1473 41.4328 84.9075 41.3938 84.6729C41.2141 84.2253 40.9762 83.808 40.7334 83.3001Z" fill="#F1F8F8"/>
<path d="M33.0424 83.4655C32.2363 83.8075 31.5856 83.7772 31.0223 83.1135C30.459 82.4497 29.7355 82.5604 29.0799 82.7716C28.2544 83.2744 28.1719 84.1494 27.8659 84.783C27.934 85.4951 28.1912 86.1738 28.6089 86.744C30.3619 88.3933 31.3623 85.4819 32.8871 86.3016C31.8284 88.9264 30.2308 89.3588 27.3706 87.8101C26.3509 86.6686 26.278 85.2958 26.4723 83.7521C26.7251 83.0937 27.1369 82.5134 27.6683 82.0671C28.1997 81.6207 28.8329 81.3231 29.5073 81.2027C30.5028 81.0921 31.1583 81.7056 31.9838 81.8313L33.0424 83.4655Z" fill="#EDF6F7"/>
<path d="M50.4721 76.4658C50.1495 76.6174 49.7993 76.6958 49.445 76.6958C49.0908 76.6958 48.7406 76.6174 48.418 76.4658V67.8622C49.0444 67.4147 49.6805 67.6309 50.4721 67.6913V76.4658Z" fill="#E8F4F5"/>
<path d="M69.0351 87.5848C68.8263 88.4849 68.3359 88.7364 67.5346 88.5503C67.015 87.796 67.2093 87.2379 68.0202 86.8356C68.5884 86.8054 68.8166 87.2077 69.0351 87.5848Z" fill="#E8F4F5"/>
<path d="M187.97 87.8964C187.76 88.0486 187.517 88.1432 187.262 88.1713C187.007 88.1995 186.75 88.1603 186.514 88.0574C185.819 87.2428 186.591 86.1164 185.984 85.2766C185.164 86.1717 185.499 87.9919 183.731 88.2082C182.619 87.3986 182.973 85.694 181.827 84.7939V87.6349C181.288 88.3892 180.72 88.0623 180.074 88.1378C179.826 86.1589 179.814 84.1558 180.04 82.1741C180.948 81.4751 181.677 81.8473 182.337 81.7115C183.129 82.7725 183.449 83.9592 183.964 85.1207C185.032 84.3061 184.697 82.7071 186.028 81.7467C186.407 81.5355 187.106 81.7919 187.97 81.7467V87.8964Z" fill="#F3F9FA"/>
<path d="M175.04 83.5069C174.302 82.9135 173.622 83.3409 173.205 82.818C173.127 82.6517 173.098 82.4654 173.121 82.2822C173.144 82.099 173.219 81.9269 173.336 81.7871H178.634C178.737 81.9412 178.797 82.1222 178.807 82.3097C178.816 82.4972 178.775 82.6837 178.687 82.8481C178.269 83.3509 177.58 82.8834 177.007 83.4113V87.6301C176.366 88.3492 175.778 88.2135 175.04 87.9218V83.5069Z" fill="#EDF6F7"/>
<path d="M27.6216 50.2539C27.981 53.4117 27.2331 54.86 25.0382 55.6846C23.3677 56.3132 22.4014 55.8907 20.9883 53.814C21.9886 50.3897 25.2859 51.516 27.6216 50.2539Z" fill="#28ADAA"/>
<path d="M83.7905 29.4359C82.9844 30.1349 82.2318 29.8633 81.5665 29.8231C81.1392 29.3907 81.246 29.0186 81.4985 28.5157C82.3872 28.2844 83.1933 28.3347 83.7905 29.4359Z" fill="#51B4B0"/>
<path d="M83.2239 26.0364L83.1559 26.851C82.7189 27.4393 82.1847 27.2634 81.6457 27.203C81.4797 27.083 81.3578 26.9084 81.2996 26.7076C81.2414 26.5068 81.2505 26.2916 81.3252 26.0968C81.8691 25.6794 82.447 25.7397 83.2239 26.0364Z" fill="#51B4B0"/>
<path d="M61.4529 14.068C61.7817 14.6111 61.9259 15.2525 61.8626 15.8902C61.7993 16.5279 61.532 17.1254 61.1032 17.5879C60.8526 17.7424 60.5646 17.8197 60.2731 17.8108C59.9815 17.8019 59.6984 17.7071 59.457 17.5376V13.9875C59.7656 13.8125 60.1142 13.7276 60.4657 13.7418C60.8172 13.7559 61.1584 13.8687 61.4529 14.068Z" fill="#28ADAA"/>
<path d="M33.2094 14.115C32.7967 15.4123 31.9129 15.3017 31.0679 15.181C30.8961 15.0119 30.7899 14.7836 30.7693 14.5391C30.7487 14.2946 30.8152 14.0507 30.9562 13.8535C31.3269 13.7204 31.7216 13.6748 32.1114 13.7201C32.5013 13.7653 32.8764 13.9002 33.2094 14.115Z" fill="#28ADAA"/>
<path d="M51.7813 26.0263C52.4369 27.2633 52.1212 28.3293 52.1601 29.2194C51.8056 29.9535 51.1549 29.9183 50.8635 30.2904C50.2428 30.1646 49.694 29.7929 49.3339 29.2545C49.033 28.2883 49.0708 27.2431 49.4407 26.3029C50.2079 25.5536 50.9461 25.7497 51.7813 26.0263Z" fill="#28ADAA"/>
<path d="M16.9902 27.1882C16.3654 27.4229 15.6841 27.4423 15.0478 27.2435C14.6496 26.9066 14.7176 26.5244 14.8681 26.092C15.4945 25.6243 16.1841 25.8004 16.8105 25.9311C17.2719 26.2579 17.2476 26.63 16.9902 27.1882Z" fill="#51B4B0"/>
<path d="M32.9583 71.5845C32.6817 70.8607 32.6357 70.0643 32.8272 69.3116C33.8761 68.854 34.9541 69.1758 35.7748 69.1306C36.7751 69.8547 36.7848 70.4983 36.2846 71.2827C35.26 71.8962 34.1383 71.5241 32.9583 71.5845Z" fill="#28ADAA"/>
<path d="M79.1431 72.2979C78.8469 73.1276 78.842 74.3094 77.5357 75.0435C76.953 75.2899 76.0789 75.0837 75.0786 75.1139C74.8985 73.2207 74.8627 71.3157 74.9717 69.4167C75.8167 68.9138 76.6276 69.1904 77.3123 69.1301C78.6817 69.5826 78.9294 70.7391 79.1431 72.2979Z" fill="#28ADAA"/>
<path d="M40.868 27.7922C40.3532 27.1234 40.5086 26.6357 40.5523 26.1127C41.2662 25.6099 42.0091 25.7305 42.8055 26.1127C42.9464 27.6916 41.8392 27.6112 40.868 27.7922Z" fill="#51B4B0"/>
<path d="M23.4971 16.9097C22.8658 17.2567 22.5259 17.2718 22.1519 16.9097C21.8314 15.9744 22.7978 15.3459 22.5064 14.2949C23.6865 15.0693 23.4388 16.0046 23.4971 16.9097Z" fill="#51B4B0"/>
<path d="M49.1635 82.7873C49.7802 83.793 50.6203 84.6982 49.7656 85.9402C48.9207 85.8547 48.1777 85.8497 48.4836 87.0716C46.7258 87.1017 46.7258 87.1017 45.8711 85.0602C45.9442 84.2479 46.2875 83.4873 46.8423 82.9081C47.5319 82.5008 48.236 82.6164 49.1635 82.7873Z" fill="#28ADAA"/>
<path d="M74.5775 82.9281C74.898 83.5919 75.1748 84.1752 75.3982 84.6327C75.3082 85.4643 75.0122 86.2576 74.5387 86.9357C73.8159 87.2897 72.9913 87.3508 72.2272 87.1067C71.6753 86.5732 71.2855 85.8848 71.1055 85.1255C71.1055 84.1902 71.5911 83.5516 71.9941 82.918C72.3997 82.7258 72.8408 82.6272 73.2869 82.6289C73.733 82.6307 74.1733 82.7327 74.5775 82.9281Z" fill="#28ADAA"/>
<path d="M82.631 83.2808C82.427 83.7233 82.2668 84.0803 82.1017 84.4423C81.2616 84.8697 80.4264 84.5881 79.6737 84.6183C79.4694 84.3527 79.3506 84.0275 79.334 83.6883C79.3175 83.3492 79.404 83.0132 79.5814 82.7276C80.4992 82.6773 81.4801 82.3254 82.631 83.2808Z" fill="#51B4B0"/>
<path d="M15.4073 83.7031C15.6905 83.8556 15.9192 84.098 16.0599 84.3948C16.2005 84.6915 16.2458 85.0271 16.1891 85.3525C15.8346 85.8553 15.3927 85.6642 14.8828 85.634C15.0771 84.92 15.2325 84.3317 15.4073 83.7031Z" fill="#16ACA9"/>
<path d="M62.6866 83.5859C63.483 84.1491 63.2013 84.9386 63.5752 85.4414C63.0459 85.8889 62.536 85.6526 62.0067 85.5872C61.9096 84.7525 62.3175 84.2497 62.6866 83.5859Z" fill="#51B4B0"/>
<path d="M40.7333 83.3008C40.9761 83.8036 41.2189 84.226 41.3791 84.6735C41.4182 84.9081 41.4182 85.1479 41.3791 85.3826C40.9906 85.8351 40.5682 85.7697 40.0874 85.4932C39.7621 84.6283 40.3837 84.055 40.7333 83.3008Z" fill="#51B4B0"/>
<path d="M160.619 74.3393C159.76 72.6448 159.347 71.1362 159.488 69.5573C159.834 65.0998 160.505 60.6756 161.494 56.3225C162.62 51.5857 163.922 46.8792 166.515 42.4844C167.389 44.9986 169.278 46.0042 171.716 46.4115C172.977 46.1382 174.185 45.647 175.29 44.9583C176.057 46.5473 176.261 48.4178 177.786 49.5995C179.31 50.7812 181 50.384 182.982 50.6052C178.441 61.5521 171.084 69.2808 160.619 74.3393Z" fill="#16ACA9"/>
<path d="M176.753 42.1886C172.494 45.0196 170.051 44.0089 167.672 40.3282C171.775 32.876 178.078 28.2047 185.678 25.3184C186.009 25.4226 186.293 25.6452 186.48 25.9464C186.667 26.2476 186.744 26.6079 186.698 26.9627C186.698 31.0457 186.669 35.0936 185.877 39.1465C185.319 41.9875 184.683 44.7833 184.017 47.4936C180.055 49.158 177.19 47.0059 176.753 42.1886ZM178.093 36.753C178.841 35.7473 179.38 34.7416 178.287 33.5549C177.902 33.3486 177.471 33.2528 177.038 33.2776C176.605 33.3023 176.186 33.4467 175.825 33.6956C175.34 34.7013 175.165 35.707 176.083 36.6624C176.719 36.9504 177.437 36.9791 178.093 36.7429V36.753Z" fill="#16ACA9"/>
</g>
<defs>
<clipPath id="clip0_4856_17251">
<rect width="200" height="100" fill="white"/>
</clipPath>
</defs>
</svg>
