<svg width="24" height="25" viewBox="0 0 24 25" fill="none" xmlns="http://www.w3.org/2000/svg">
<path d="M15.6328 12.7188L22.1016 6.16577C23.3672 8.17598 24 10.3603 24 12.7188C24 15.0772 23.3672 17.2615 22.1016 19.2717L15.6328 12.7188ZM2.78906 4.93115C3.91406 3.56991 5.27734 2.50149 6.87891 1.72589C8.48047 0.950297 10.1875 0.5625 12 0.5625C13.8125 0.5625 15.5195 0.950297 17.1211 1.72589C18.7227 2.50149 20.0859 3.56991 21.2109 4.93115L12 14.262L2.78906 4.93115ZM1.89844 19.2717C0.632812 17.2615 0 15.0772 0 12.7188C0 10.3603 0.632812 8.17598 1.89844 6.16577L8.36719 12.7188L1.89844 19.2717ZM9.42188 13.7872L11.0859 15.4966C11.1797 15.5758 11.3008 15.6391 11.4492 15.6866C11.5977 15.7341 11.7266 15.7578 11.8359 15.7578H12C12.4062 15.7736 12.7109 15.6866 12.9141 15.4966L14.5781 13.7872L21.2109 20.5063C20.0859 21.8676 18.7227 22.936 17.1211 23.7116C15.5195 24.4872 13.8125 24.875 12 24.875C10.1875 24.875 8.48047 24.4872 6.87891 23.7116C5.27734 22.936 3.91406 21.8676 2.78906 20.5063L9.42188 13.7872Z" fill="#F5FAFF"/>
</svg>
