<svg width="13" height="13" viewBox="0 0 13 13" fill="none" xmlns="http://www.w3.org/2000/svg">
<path d="M12.48 0H0.52C0.232375 0 0 0.232375 0 0.52V12.48C0 12.7676 0.232375 13 0.52 13H12.48C12.7676 13 13 12.7676 13 12.48V0.52C13 0.232375 12.7676 0 12.48 0ZM11.96 11.96H8.96838V7.96575H10.6584L10.9119 6.00437H8.96838V4.7515C8.96838 4.18275 9.126 3.796 9.94012 3.796H10.9785V2.041C10.7981 2.01662 10.1823 1.963 9.464 1.963C7.96575 1.963 6.94037 2.87787 6.94037 4.5565V6.00275H5.24712V7.96412H6.942V11.96H1.04V1.04H11.96V11.96Z" fill="#EFE3CC"/>
</svg>
