<svg width="14" height="14" viewBox="0 0 14 14" fill="none" xmlns="http://www.w3.org/2000/svg">
<path d="M6.51101 3.16406C5.62334 3.16406 4.77204 3.51669 4.14436 4.14436C3.51669 4.77204 3.16406 5.62335 3.16406 6.51101C3.16406 7.39868 3.51669 8.24999 4.14436 8.87766C4.77204 9.50533 5.62334 9.85796 6.51101 9.85796C7.39868 9.85796 8.24999 9.50533 8.87766 8.87766C9.50534 8.24999 9.85796 7.39868 9.85796 6.51101C9.85796 5.62335 9.50534 4.77204 8.87766 4.14436C8.24999 3.51669 7.39868 3.16406 6.51101 3.16406ZM6.51101 8.68465C5.93433 8.68465 5.38128 8.45556 4.97351 8.04779C4.56574 7.64002 4.33665 7.08696 4.33665 6.51029C4.33665 5.93361 4.56574 5.38056 4.97351 4.97278C5.38128 4.56501 5.93433 4.33593 6.51101 4.33593C7.08769 4.33593 7.64074 4.56501 8.04851 4.97278C8.45629 5.38056 8.68537 5.93361 8.68537 6.51029C8.68537 7.08696 8.45629 7.64002 8.04851 8.04779C7.64074 8.45556 7.08769 8.68465 6.51101 8.68465Z" fill="#EFE3CC"/>
<path d="M9.99122 3.82228C10.4222 3.82228 10.7715 3.47293 10.7715 3.042C10.7715 2.61106 10.4222 2.26172 9.99122 2.26172C9.56028 2.26172 9.21094 2.61106 9.21094 3.042C9.21094 3.47293 9.56028 3.82228 9.99122 3.82228Z" fill="#EFE3CC"/>
<path d="M12.6893 2.24819C12.5217 1.81547 12.2657 1.42251 11.9375 1.09446C11.6093 0.766407 11.2163 0.51049 10.7835 0.343091C10.2771 0.152985 9.74204 0.0501906 9.20121 0.0390863C8.50417 0.00868578 8.28341 0 6.51584 0C4.74827 0 4.52171 -7.2804e-08 3.83046 0.0390863C3.29005 0.0496228 2.75541 0.152438 2.24964 0.343091C1.81674 0.510295 1.42359 0.766143 1.09538 1.09422C0.767181 1.4223 0.511183 1.81536 0.343815 2.24819C0.153671 2.75458 0.0511123 3.28965 0.040534 3.83046C0.00940967 4.52678 0 4.74754 0 6.51584C0 8.28341 -5.39289e-09 8.50852 0.040534 9.20121C0.0513913 9.74263 0.15345 10.2768 0.343815 10.7842C0.511653 11.2169 0.767899 11.6098 1.09618 11.9378C1.42446 12.2658 1.81756 12.5218 2.25036 12.6893C2.75518 12.887 3.29004 12.9972 3.83191 13.015C4.52895 13.0454 4.74971 13.0548 6.51728 13.0548C8.28485 13.0548 8.51141 13.0548 9.20266 13.015C9.74343 13.004 10.2784 12.9015 10.7849 12.7117C11.2176 12.544 11.6105 12.2878 11.9387 11.9597C12.2668 11.6315 12.523 11.2386 12.6908 10.8059C12.8811 10.2992 12.9832 9.76507 12.994 9.22365C13.0252 8.52734 13.0346 8.30657 13.0346 6.53827C13.0346 4.76998 13.0346 4.5456 12.994 3.8529C12.9856 3.30444 12.8825 2.76156 12.6893 2.24819ZM11.8077 9.14765C11.803 9.56479 11.7269 9.97804 11.5826 10.3695C11.4739 10.6509 11.3075 10.9065 11.0941 11.1198C10.8806 11.3331 10.6249 11.4994 10.3434 11.6079C9.95632 11.7516 9.54746 11.8277 9.13462 11.833C8.44699 11.8649 8.25301 11.8728 6.48978 11.8728C4.7251 11.8728 4.54487 11.8728 3.84421 11.833C3.43158 11.828 3.02291 11.7518 2.63616 11.6079C2.35364 11.5001 2.09691 11.3341 1.88258 11.1208C1.66825 10.9074 1.50109 10.6515 1.39191 10.3695C1.24964 9.98225 1.17354 9.57386 1.1668 9.1614C1.13567 8.47377 1.12844 8.27979 1.12844 6.51656C1.12844 4.75261 1.12844 4.57238 1.1668 3.87099C1.17148 3.45409 1.24762 3.04108 1.39191 2.64991C1.61267 2.07881 2.06506 1.62932 2.63616 1.41073C3.0231 1.26751 3.43165 1.19138 3.84421 1.18562C4.53257 1.15449 4.72583 1.14581 6.48978 1.14581C8.25373 1.14581 8.43469 1.14581 9.13462 1.18562C9.54749 1.19059 9.95642 1.26674 10.3434 1.41073C10.6249 1.5195 10.8806 1.68593 11.094 1.89933C11.3074 2.11273 11.4738 2.36839 11.5826 2.64991C11.7249 3.03712 11.801 3.4455 11.8077 3.85797C11.8388 4.54632 11.8468 4.73958 11.8468 6.50353C11.8468 8.26676 11.8468 8.4564 11.8157 9.14837H11.8077V9.14765Z" fill="#EFE3CC"/>
</svg>
