<svg width="105" height="100" viewBox="0 0 105 100" fill="none" xmlns="http://www.w3.org/2000/svg">
<g clip-path="url(#clip0_4856_17363)">
<path d="M104.3 99.9999V43.5027C104.3 43.5027 99.961 0.282366 55.3791 -0.000119765C10.7972 -0.282606 0.910156 32.1581 0.910156 42.6552C0.910156 61.4236 5.0062 77.4745 27.3226 99.9999H104.3Z" fill="white"/>
<path fill-rule="evenodd" clip-rule="evenodd" d="M93.4745 70.8367V50.8085C93.4745 28.6842 75.5423 10.752 53.418 10.752C31.2937 10.752 13.3672 28.6842 13.3672 50.8085C13.3672 50.8367 21.3785 50.8367 21.3785 50.8085C21.3785 33.1135 35.7231 18.7633 53.4237 18.7633C71.1242 18.7633 85.4689 33.1135 85.4689 50.8085V70.8367H93.4802H93.4745Z" fill="#77787B"/>
<path d="M53.4501 60.9785L46.6252 54.1536V43.809L53.4501 50.6339L68.9868 35.0971C65.0094 31.1197 59.5179 28.6621 53.4444 28.6621C41.3088 28.6621 31.4727 38.4983 31.4727 50.6395C31.4727 62.7808 41.3088 72.6169 53.4444 72.6169C65.58 72.6169 75.4218 62.7751 75.4218 50.6395C75.4218 47.244 74.6478 44.0237 73.2749 41.1536L53.4444 60.9785H53.4501Z" fill="#F37021"/>
<path d="M66.8263 90.5838C64.8263 89.968 64.4195 88.2448 64.5438 86.3352H67.4308C67.4308 87.6516 67.4873 88.7589 69.0805 88.7589C70.0579 88.7589 70.5325 88.1318 70.5325 87.1939C70.5325 84.7081 64.7133 84.5555 64.7133 80.4538C64.7133 78.2956 65.7472 76.5781 69.2726 76.5781C72.0862 76.5781 73.4816 77.838 73.2896 80.7194H70.476C70.476 79.6855 70.3009 78.6403 69.137 78.6403C68.1992 78.6403 67.6455 79.1544 67.6455 80.1092C67.6455 82.725 73.4647 82.499 73.4647 86.8324C73.4647 89.2222 72.2896 90.1996 70.8545 90.5838H66.8263Z" fill="#77787B"/>
<path d="M80.4988 81.0412C80.5214 79.7587 80.3068 78.6344 78.7757 78.6344C76.9791 78.6344 76.9791 81.0581 76.9791 83.7361C76.9791 88.0468 77.4028 88.8152 79.0469 88.8152C79.5271 88.8152 80.0412 88.7022 80.4819 88.5497V85.4932H78.9113V83.3745H83.3689V90.3632C83.0638 90.4254 82.5779 90.5045 82.0299 90.5836H77.0864C74.4085 89.9169 74.0469 87.7983 74.0469 83.5836C74.0469 80.109 74.222 76.5723 78.9452 76.5723C81.7757 76.5723 83.5384 78.1598 83.3689 81.0412H80.4988Z" fill="#77787B"/>
<path d="M88.8329 76.5723C91.3584 76.5723 92.7369 77.5553 92.929 79.77V80.7135H90.1154C90.1154 79.7079 89.8668 78.6344 88.6974 78.6344C87.7595 78.6344 87.2002 79.1485 87.2002 80.1033C87.2002 82.5214 92.1719 82.5101 92.9233 85.9169V87.9169C92.6183 89.5271 91.607 90.2615 90.4092 90.5836H86.381C84.381 89.9677 83.9742 88.2446 84.0985 86.335H86.9855C86.9855 87.6514 87.042 88.7587 88.6352 88.7587C89.607 88.7587 90.0872 88.1316 90.0872 87.1937C90.0872 84.7079 84.268 84.5553 84.268 80.4536C84.268 78.2954 85.3019 76.5836 88.8273 76.5779L88.8329 76.5723Z" fill="#77787B"/>
<path d="M55.8594 90.5781H98.6051V91.1318H55.8594V90.5781Z" fill="#F37021"/>
<path d="M92.9102 74.0293H93.4638V93.9784H92.9102V74.0293Z" fill="#F37021"/>
<path d="M13.8924 54.0231L13.8359 53.2434L19.9376 52.8027L19.9941 53.5824L13.8924 54.0231Z" fill="#F37021" stroke="#F37021"/>
<path d="M15.9198 55.9158L15.7446 55.9441C14.9254 56.0797 14.7503 56.639 14.835 57.1362C14.9367 57.7463 15.2757 58.1701 15.9932 58.0514C17.3322 57.8311 16.7333 55.1475 18.5469 54.8424C19.6147 54.6672 20.3096 55.3339 20.4791 56.3452C20.6599 57.4469 20.2305 58.1588 18.9932 58.3113L18.8576 57.509C19.5186 57.4073 19.9198 57.1249 19.8011 56.4017C19.722 55.9441 19.4113 55.5147 18.7616 55.622C17.4339 55.8424 18.0723 58.5203 16.157 58.8367C14.8859 59.0458 14.3322 58.2378 14.1627 57.2435C13.852 55.4638 15.2135 55.2378 15.7955 55.1588L15.9198 55.9215V55.9158Z" fill="#F37021" stroke="#F37021"/>
<path d="M17.0638 59.8371L18.9847 59.2496C20.1542 58.8936 21.0807 59.2665 21.4593 60.5038C21.8378 61.7411 21.2728 62.5716 20.109 62.9275L18.1881 63.5151C16.5666 64.0123 15.7418 63.6055 15.3632 62.3682C14.9847 61.1309 15.4423 60.3343 17.0638 59.8371ZM17.9226 62.7637L19.9 62.1592C21.1259 61.7863 20.9056 60.9332 20.8378 60.6959C20.7644 60.4586 20.4706 59.6281 19.2446 60.0066L17.2672 60.6111C15.9847 61.001 15.7757 61.4755 15.9904 62.1818C16.205 62.888 16.6457 63.1592 17.9226 62.7693V62.7637Z" fill="#F37021" stroke="#F37021"/>
<path d="M21.3032 68.6898C19.936 69.3791 18.5914 70.0627 17.8739 68.6446C17.4784 67.8593 17.7496 67.0627 18.5914 66.6616L18.9417 67.3565C18.5575 67.5486 18.2298 67.9045 18.4558 68.3508C18.7948 69.0232 19.5575 68.6955 20.9078 68.0175V68.0006C20.4501 68.0175 20.1563 67.7463 19.953 67.3452C19.7439 66.9271 19.5688 66.0288 21.0038 65.3056C22.1846 64.7124 22.9699 65.1983 23.3202 65.8932C24.0433 67.3339 22.7157 67.9723 21.2976 68.6842L21.3032 68.6898ZM21.371 66.0005C20.8513 66.2661 20.3315 66.6503 20.6366 67.2548C20.9417 67.8593 21.5575 67.6729 22.0829 67.4073C22.5575 67.17 23.1168 66.752 22.8174 66.1531C22.5179 65.5542 21.8513 65.7576 21.371 65.9949V66.0005Z" fill="#F37021" stroke="#F37021"/>
<path d="M23.6286 72.3286C22.3461 73.1704 21.0918 74.0122 20.2161 72.6789C19.3404 71.3455 20.606 70.5263 21.8828 69.6789C23.2048 68.8088 24.4252 67.9727 25.3122 69.3173C26.1992 70.6619 24.9506 71.4529 23.6286 72.3229V72.3286ZM22.1879 70.419C21.3574 70.967 20.2839 71.5998 20.7641 72.3229C21.2387 73.0461 22.25 72.3116 23.0749 71.7636C24.3969 70.8936 25.2048 70.3455 24.7698 69.6845C24.3291 69.0179 23.5156 69.5489 22.1879 70.419Z" fill="#F37021" stroke="#F37021"/>
<path d="M26.3341 75.6447C25.1589 76.6334 24.0121 77.6052 22.9838 76.3848C21.9612 75.1645 23.1194 74.1984 24.2945 73.2153C25.5092 72.1984 26.6222 71.2266 27.6561 72.4639C28.69 73.6955 27.5431 74.6278 26.3341 75.6447ZM24.6787 73.9102C23.9217 74.5487 22.9273 75.3057 23.481 75.9667C24.0347 76.6278 24.9556 75.7803 25.7126 75.1475C26.9273 74.1306 27.6674 73.4978 27.1533 72.8876C26.6392 72.2775 25.8878 72.8989 24.6731 73.9159L24.6787 73.9102Z" fill="#F37021" stroke="#F37021"/>
<path d="M26.5181 79.9217L25.9531 79.385L29.4164 75.7466L28.3712 75.5658L28.8853 75.0234C29.0831 75.0969 29.7836 75.176 30.0887 75.1986L30.5746 75.6619L26.5181 79.9217Z" fill="#F37021" stroke="#F37021"/>
<path d="M28.1003 26.6967L28.185 26.7815C28.5862 27.1656 28.9534 27.0357 29.185 26.7928C29.4732 26.4933 29.5636 26.143 29.2133 25.8097C28.5579 25.1826 27.3658 26.5724 26.4788 25.725C25.959 25.2221 26.0381 24.5894 26.5071 24.0922C27.0212 23.5555 27.5749 23.5046 28.1511 24.1035L27.7783 24.4933C27.4619 24.1826 27.1511 24.0809 26.8122 24.4312C26.5975 24.6572 26.4901 24.9962 26.8122 25.3012C27.4619 25.9227 28.637 24.5103 29.5692 25.4086C30.1907 26.0018 29.976 26.6233 29.5127 27.1092C28.6879 27.9849 28.0212 27.3464 27.75 27.0696L28.1059 26.6967H28.1003Z" fill="white" stroke="white" stroke-width="0.2" stroke-miterlimit="3.86"/>
<path d="M29.5864 21.3407L29.9819 20.9961L30.7954 23.6345L31.8124 24.8097L31.4169 25.1486L30.3999 23.9735L27.9141 22.7871L28.3547 22.4029L30.2474 23.369L29.5751 21.3407H29.5864Z" fill="white" stroke="white" stroke-width="0.2" stroke-miterlimit="3.86"/>
<path d="M32.684 22.5484L32.7517 22.6445C33.0738 23.0964 33.458 23.0343 33.7291 22.8365C34.0625 22.5936 34.2207 22.2716 33.9382 21.8761C33.4128 21.1416 31.9834 22.2942 31.2715 21.2942C30.8478 20.7066 31.0455 20.0964 31.5992 19.6953C32.2037 19.2603 32.7517 19.3111 33.2094 20.006L32.7687 20.3224C32.5145 19.9552 32.2263 19.8027 31.8252 20.0851C31.571 20.2659 31.4071 20.5767 31.667 20.9382C32.1924 21.6671 33.5992 20.4976 34.3563 21.5428C34.8591 22.2377 34.5371 22.8083 33.989 23.2038C33.0173 23.9156 32.4806 23.1642 32.2659 22.8422L32.684 22.5428V22.5484Z" fill="white" stroke="white" stroke-width="0.2" stroke-miterlimit="3.86"/>
<path d="M35.5651 17.3008L35.791 17.6906L34.8645 18.233L36.695 21.3629L36.2487 21.6228L34.4182 18.4929L33.4916 19.0352L33.2656 18.6454L35.5707 17.3008H35.5651Z" fill="white" stroke="white" stroke-width="0.2" stroke-miterlimit="3.86"/>
<path d="M38.1112 20.5837L36.3711 16.8944L38.275 15.9961L38.4671 16.4029L37.0378 17.0808L37.5971 18.2673L38.9248 17.6402L39.1169 18.0469L37.7892 18.6741L38.3937 19.9509L39.857 19.2616L40.0491 19.6684L38.1169 20.578L38.1112 20.5837Z" fill="white" stroke="white" stroke-width="0.2" stroke-miterlimit="3.86"/>
<path d="M41.1243 19.2278L40.661 19.3803L39.3672 15.5102L40.1638 15.2447L42.2259 18.1656H42.2372L42.1356 14.5837L42.9491 14.3125L44.2429 18.1826L43.7514 18.3464L42.5988 14.9057H42.5875L42.6553 18.7136L42.1864 18.8718L39.9717 15.7871H39.9604L41.113 19.2334L41.1243 19.2278Z" fill="white" stroke="white" stroke-width="0.2" stroke-miterlimit="3.86"/>
<path d="M47.6826 14.5143C47.6487 14.2827 47.5979 14.0567 47.4679 13.9494C47.3436 13.8364 47.095 13.8307 46.9877 13.8477C46.564 13.9155 46.4397 14.1979 46.4284 14.2601C46.4171 14.3053 46.338 14.4239 46.4453 15.1132L46.6205 16.1923C46.7786 17.181 47.1233 17.2431 47.5188 17.181C47.677 17.1584 48.1402 17.0228 48.0159 16.2375L48.547 16.1527C48.773 17.4183 47.8803 17.5652 47.6148 17.6104C47.112 17.6895 46.338 17.7855 46.0837 16.2205L45.8973 15.0849C45.7108 13.9494 46.1628 13.5426 46.9538 13.4126C47.7504 13.2827 48.1233 13.6443 48.2024 14.4352L47.6713 14.52L47.6826 14.5143Z" fill="white" stroke="white" stroke-width="0.2" stroke-miterlimit="3.86"/>
<path d="M49.4913 17.2674L49.2031 13.1996L51.2992 13.0527L51.3331 13.5047L49.7568 13.6177L49.8472 14.9284L51.3105 14.8267L51.3444 15.2787L49.8811 15.3804L49.9771 16.7872L51.5873 16.6742L51.6212 17.1262L49.4913 17.2787V17.2674Z" fill="white" stroke="white" stroke-width="0.2" stroke-miterlimit="3.86"/>
<path d="M52.8392 15.2383L52.8166 17.114H52.2969L52.3477 13.0293L53.7545 13.0462C54.4777 13.0575 54.7263 13.566 54.7206 14.0745C54.7206 14.5547 54.4438 14.9163 53.9635 14.9954V15.0067C54.4325 15.0858 54.5963 15.244 54.6189 16.0632C54.6189 16.2383 54.6698 16.8768 54.7489 17.131H54.2065C54.0652 16.8429 54.1048 16.3118 54.0652 15.7694C54.0313 15.2722 53.6302 15.244 53.4551 15.244H52.8449L52.8392 15.2383ZM52.8392 14.7864L53.6189 14.7977C53.9918 14.7977 54.1782 14.4813 54.1782 14.1253C54.1782 13.8316 54.037 13.5039 53.6359 13.4982L52.8505 13.4869L52.8336 14.7864H52.8392Z" fill="white" stroke="white" stroke-width="0.2" stroke-miterlimit="3.86"/>
<path d="M58.0738 13.3119L58.0343 13.7639L56.9665 13.6735L56.6614 17.2893L56.1416 17.2441L56.4467 13.6283L55.3789 13.5379L55.4185 13.0859L58.0738 13.3119Z" fill="white" stroke="white" stroke-width="0.2" stroke-miterlimit="3.86"/>
<path d="M58.8501 17.5427L58.3359 17.4692L58.9066 13.4297L59.4207 13.5031L58.8501 17.5427Z" fill="white" stroke="white" stroke-width="0.2" stroke-miterlimit="3.86"/>
<path d="M59.7734 17.6855L60.57 13.6855L62.5531 14.081L62.4627 14.5274L60.9881 14.2336L60.7339 15.5217L62.1294 15.7985L62.039 16.2392L60.6435 15.9624L60.2819 17.7929L59.7734 17.6912V17.6855Z" fill="white" stroke="white" stroke-width="0.2" stroke-miterlimit="3.86"/>
<path d="M62.8388 18.3742L62.3359 18.2443L63.3698 14.3008L63.8727 14.4307L62.8388 18.3742Z" fill="white" stroke="white" stroke-width="0.2" stroke-miterlimit="3.86"/>
<path d="M66.4465 16.4026C66.5256 16.1823 66.5821 15.962 66.5256 15.8038C66.4635 15.6456 66.2488 15.5269 66.1471 15.493C65.7403 15.3574 65.4974 15.5439 65.4635 15.5947C65.4352 15.6343 65.3053 15.6964 65.0793 16.3574L64.729 17.3913C64.407 18.3405 64.6782 18.5552 65.0567 18.6851C65.2093 18.736 65.6782 18.8377 65.9437 18.0863L66.4522 18.2614C66.0567 19.4874 65.198 19.1993 64.9437 19.1089C64.4635 18.945 63.7347 18.6625 64.2432 17.1654L64.616 16.075C64.9889 14.9846 65.5765 14.8377 66.3335 15.0919C67.1019 15.3518 67.2601 15.849 66.955 16.5834L66.4465 16.4083V16.4026Z" fill="white" stroke="white" stroke-width="0.2" stroke-miterlimit="3.86"/>
<path d="M69.305 16.3574L69.9038 16.6343L69.3954 20.8941L68.8643 20.6512L69.0055 19.6456L67.5762 18.9845L66.8925 19.736L66.418 19.5156L69.305 16.3574ZM69.3897 16.928H69.3784L67.8869 18.6286L69.0733 19.1766L69.3897 16.928Z" fill="white" stroke="white" stroke-width="0.2" stroke-miterlimit="3.86"/>
<path d="M73.5079 18.5892L73.2819 18.979L72.3554 18.4423L70.5418 21.5779L70.0898 21.318L71.9034 18.1824L70.9768 17.6457L71.2028 17.2559L73.5079 18.5892Z" fill="white" stroke="white" stroke-width="0.2" stroke-miterlimit="3.86"/>
<path d="M72.3981 22.7802L71.9688 22.4864L74.2738 19.1191L74.7032 19.4129L72.3981 22.7802Z" fill="white" stroke="white" stroke-width="0.2" stroke-miterlimit="3.86"/>
<path d="M74.1353 22.1654L74.9827 21.1315C75.4969 20.5044 76.1522 20.3631 76.8189 20.9112C77.4856 21.4592 77.4799 22.1259 76.9658 22.753L76.1183 23.7869C75.4008 24.6626 74.7963 24.7417 74.1296 24.1936C73.463 23.6456 73.4178 23.0355 74.1353 22.1597V22.1654ZM75.6946 23.4705L76.5647 22.4027C77.107 21.7417 76.6663 21.3462 76.5421 21.2445C76.4178 21.1428 75.9432 20.7925 75.4008 21.4479L74.5308 22.5157C73.9658 23.2049 74.0223 23.5439 74.4065 23.8547C74.785 24.1654 75.1296 24.1541 75.6946 23.4648V23.4705Z" fill="white" stroke="white" stroke-width="0.2" stroke-miterlimit="3.86"/>
<path d="M80.7425 24.7746L77.7933 27.5938L77.3018 27.0796L78.7481 23.4695H78.7368L76.1775 25.9045L75.8555 25.5712L78.8046 22.752L79.3131 23.283L77.8837 26.8423H77.8894L80.4148 24.4356L80.7368 24.7689L80.7425 24.7746Z" fill="white" stroke="white" stroke-width="0.2" stroke-miterlimit="3.86"/>
</g>
<defs>
<clipPath id="clip0_4856_17363">
<rect width="103.39" height="100" fill="white" transform="translate(0.910156)"/>
</clipPath>
</defs>
</svg>
