<svg width="256" height="102" viewBox="0 0 256 102" fill="none" xmlns="http://www.w3.org/2000/svg">
<g clip-path="url(#clip0_4856_17252)">
<rect x="1" y="1" width="254" height="100" rx="7" fill="white"/>
<g clip-path="url(#clip1_4856_17252)">
<rect x="5" y="4" width="240" height="93" rx="2" fill="white"/>
<path d="M147.729 96.9939H145.649C100.897 96.9939 56.1445 96.9939 11.393 96.9939C8.69492 96.9939 6.7284 95.844 5.53392 93.3423C5.15755 92.5069 4.97417 91.5929 4.99818 90.6721C4.99818 63.8883 4.99818 37.1028 4.99818 10.3157C4.99818 6.554 7.6105 4.01226 11.3963 4.01226H144.85C158.095 4.01226 171.34 4.00947 184.585 4.00391H185.582C184.999 4.321 184.538 4.3377 184.097 4.41947C171.175 7.01463 159.104 11.8511 147.947 19.0675C140.502 23.8873 133.792 29.6233 128.175 36.6428C123.351 42.6742 119.55 49.2898 117.763 56.9684C115.832 65.2629 116.703 73.1569 121.237 80.4433C124.391 85.5135 128.789 89.165 133.911 91.9388C137.995 94.1518 142.328 95.6655 146.834 96.6501C147.018 96.6902 147.201 96.7386 147.381 96.7936C147.501 96.852 147.618 96.9189 147.729 96.9939ZM25.5633 60.086H25.7608C25.7608 60.4197 25.7608 60.7535 25.7608 61.0873C25.887 64.9475 26.0262 68.8094 26.1298 72.6712C26.1444 73.1919 26.2917 73.3388 26.7772 73.3137C27.5314 73.2519 28.2891 73.2519 29.0432 73.3137C29.8411 73.4022 29.9204 73.0434 29.8525 72.3608C29.7311 71.0257 29.676 69.6905 29.6032 68.3671C29.3896 64.4535 29.1727 60.5399 28.9849 56.6246C28.959 56.114 28.8004 55.9571 28.3148 55.9771C27.075 56.0083 25.8342 56.0083 24.5922 55.9771C24.1309 55.9654 23.9221 56.1306 23.7829 56.5779C22.9413 59.365 21.9944 62.117 21.3179 64.9542C21.101 65.8671 20.8582 66.7716 20.5912 67.8214C20.5185 67.7018 20.4567 67.5755 20.4067 67.4442C19.7592 63.7726 18.6376 60.2278 17.6551 56.6447C17.5046 56.0973 17.2505 55.9654 16.7455 55.9771C15.5591 56.0105 14.3711 56.0238 13.1847 55.9771C12.5648 55.9504 12.3496 56.144 12.3188 56.7915C12.2055 59.1781 12.034 61.5629 11.8867 63.9495C11.707 66.835 11.5419 69.7222 11.338 72.6045C11.2992 73.1652 11.4513 73.3404 11.9854 73.3104C12.738 73.267 13.4955 73.277 14.2514 73.3104C14.6965 73.3271 14.8535 73.1852 14.8713 72.7029C15.0186 68.7309 15.195 64.7606 15.3568 60.7886C15.3568 60.5916 15.3924 60.3964 15.4329 59.9875C15.5172 60.1486 15.5897 60.3159 15.6498 60.4882C16.281 63.9929 17.2796 67.4008 18.1941 70.8354C18.8011 73.1085 18.7962 73.0901 21.0864 73.0834C21.6287 73.0834 21.831 72.8665 21.9734 72.3691C22.4298 70.7703 22.9316 69.1832 23.4139 67.5927C24.1908 65.096 24.9774 62.621 25.5633 60.086ZM37.725 55.7468C36.9798 55.7125 36.2339 55.7947 35.5125 55.9905C33.635 56.5045 32.1524 57.5275 31.5713 59.5469C30.8737 61.9718 31.942 64.1397 34.4248 65.3731C35.4429 65.8737 36.5289 66.2543 37.5389 66.7599C38.5489 67.2656 38.9227 67.9615 38.7706 68.7793C38.6185 69.5971 37.9613 70.1245 36.9368 70.2813C35.9657 70.4315 35.0075 70.2713 34.0477 70.0894C33.308 69.9475 32.4486 69.1031 31.9549 69.5537C31.4613 70.0043 31.5179 71.0991 31.2865 71.8902C31.1505 72.3558 31.2412 72.6145 31.6943 72.783C34.2581 73.741 36.851 73.978 39.4374 72.9499C41.3554 72.1872 42.5127 70.7219 42.6745 68.564C42.8364 66.4061 41.862 64.8791 40.0768 63.8694C39.4423 63.5106 38.7609 63.2352 38.0924 62.9415C37.424 62.6477 36.7345 62.4057 36.1146 62.0019C35.5513 61.6364 35.158 61.1758 35.2503 60.4414C35.3458 59.6721 35.8702 59.3083 36.5257 59.1063C37.4029 58.8293 38.2802 59.0062 39.1671 59.0713C39.8874 59.1247 40.6594 60.0025 41.1838 59.4451C41.6694 58.9361 41.6451 57.9431 41.8814 57.1771C42.0141 56.7448 41.9267 56.5412 41.4914 56.3776C40.2862 55.9309 39.012 55.7149 37.7315 55.7401L37.725 55.7468ZM52.7985 55.7468C50.7866 55.7468 49.1389 56.1323 47.7357 56.9501C44.3481 58.9244 42.7473 63.1117 43.767 67.3457C44.5358 70.5383 46.504 72.4993 49.5824 73.2787C51.5603 73.7794 53.543 73.6892 55.5128 73.2169C56.6457 72.9432 56.6457 72.9282 56.4175 71.7266C56.3334 71.2893 56.2168 70.8571 56.1699 70.4165C56.1165 69.9158 55.9757 69.769 55.4512 69.9392C54.4173 70.2688 53.3314 70.3901 52.253 70.2964C49.754 70.0994 48.0723 68.6074 47.6256 66.0723C47.3391 64.4535 47.4055 62.8246 48.273 61.3877C49.5889 59.2181 51.6202 58.8042 53.9201 59.0312C54.6501 59.103 55.5241 59.8139 56.0064 59.3316C56.4887 58.8493 56.4256 57.8296 56.6749 57.0636C56.8448 56.5445 56.6554 56.376 56.2201 56.2291C55.1127 55.8867 53.9608 55.7223 52.8049 55.7418L52.7985 55.7468ZM67.8072 33.819C67.6194 33.6521 67.5401 33.6054 67.5126 33.542C66.5318 31.2422 65.0751 29.2145 63.968 26.9948C63.374 25.8015 62.61 25.4561 61.4172 25.5863C60.9446 25.638 60.841 25.7882 60.8426 26.2355C60.8572 29.5733 60.8685 32.9111 60.8345 36.2489C60.8345 36.9482 61.1809 36.9615 61.6438 36.8965C62.0695 36.8364 62.7266 37.2302 62.7072 36.2606C62.6699 34.3414 62.6942 32.4221 62.6942 30.5045V28.2715C63.947 30.9919 65.4571 33.3283 66.7648 35.7649C67.2277 36.6294 67.7262 37.0099 68.7071 36.9332C69.3836 36.8798 69.5471 36.7029 69.5406 36.027C69.5066 32.8293 69.4921 29.63 69.5406 26.4324C69.5552 25.5662 69.1441 25.608 68.5598 25.5896C67.9755 25.5712 67.634 25.6313 67.6583 26.4107C67.7408 28.8223 67.6048 31.2455 67.8072 33.819ZM69.4532 45.7333C69.4532 47.4022 69.4532 49.0712 69.4532 50.7401C69.4532 51.1006 69.4532 51.3926 69.9307 51.4076C71.5994 51.4877 73.2616 51.6096 74.9077 51.1473C77.0992 50.5315 78.3309 49.0461 78.7242 46.7831C79.3344 43.2784 77.7531 40.75 74.5629 40.1625C73.035 39.8821 71.5007 40.0157 69.9679 40.1542C69.4726 40.1976 69.4484 40.4963 69.4516 40.8968C69.4678 42.5073 69.4613 44.1212 69.4597 45.7333H69.4532ZM87.6569 30.825C88.2574 30.4528 88.7705 30.104 89.0683 29.5115C89.7157 28.2081 89.2026 26.6744 87.8058 26.0452C86.0756 25.2658 84.2628 25.5545 82.4646 25.7481C82.1328 25.7849 82.1409 26.0519 82.1409 26.3122C82.1409 29.6745 82.1409 33.0374 82.1409 36.4008C82.1409 36.7229 82.2186 36.9131 82.5812 36.9465C84.0897 37.085 85.5965 37.1551 87.084 36.7796C88.6636 36.3841 89.5474 35.4312 89.7027 34.0009C89.8484 32.599 89.2997 31.7061 87.6569 30.825ZM74.4011 22.5305C74.9919 22.5305 75.5875 22.5755 76.1815 22.5305C79.2405 22.2618 81.0484 20.5895 81.4822 17.6656C82.0163 14.0608 80.2408 11.6575 76.7464 11.1969C75.4515 11.03 74.168 11.1652 72.878 11.237C72.3213 11.2687 72.1675 11.4973 72.174 12.0581C72.1999 14.8084 72.1853 17.5655 72.1853 20.3075C72.1772 22.5655 72.1772 22.5655 74.4011 22.5271V22.5305ZM62.7104 39.9105C60.7455 39.9105 59.1885 40.7249 58.2497 42.5274C57.2041 44.5301 57.1685 46.6396 58.07 48.7157C58.3532 49.4131 58.8014 50.0261 59.3737 50.4987C59.946 50.9714 60.6241 51.2884 61.346 51.421C64.944 52.1586 67.6842 49.7404 67.7554 45.7834C67.8185 42.3071 65.7727 39.9289 62.7104 39.9105ZM56.3026 46.0855C56.3123 43.0247 55.1324 41.0137 53.1319 40.2443C49.6504 38.8925 46.3567 41.2289 46.0459 45.271C45.6898 49.8856 49.4659 52.8946 53.3552 51.0572C55.5743 50.0174 56.2395 47.988 56.3026 46.0938V46.0855ZM34.6271 17.1482C34.6694 17.0881 34.7171 17.0322 34.7696 16.9814C36.2263 16 36.7118 14.9436 36.3881 13.4299C36.1178 12.1999 35.1483 11.4456 33.5767 11.1902C32.3353 10.99 31.1052 11.1402 29.8686 11.2086C29.2779 11.242 29.1063 11.4623 29.1128 12.0714C29.1435 15.0755 29.1273 18.0795 29.1273 21.0835C29.1273 22.5054 29.1273 22.4804 30.4918 22.4871C30.987 22.4871 31.1392 22.3569 31.1214 21.8312C31.0793 20.7214 31.1068 19.6082 31.1117 18.4934C31.1117 18.1963 31.0615 17.8993 31.5131 17.8258C32.8273 17.6289 33.6625 18.1596 33.9959 19.4814C34.1934 20.2608 34.373 21.0452 34.5786 21.8179C34.6401 22.0498 34.6725 22.3719 34.9525 22.412C35.5351 22.4954 36.1987 22.644 36.6875 22.3552C36.9805 22.1884 36.55 21.6209 36.4901 21.2237C36.435 20.8699 36.3201 20.5244 36.236 20.174C35.9527 19.0308 35.7391 17.8392 34.6271 17.1482ZM28.1368 29.5649H28.1562C28.1562 28.4251 28.1449 27.2852 28.1562 26.1453C28.1562 25.7615 28.051 25.5712 27.6545 25.6029C27.4129 25.6296 27.1693 25.6296 26.9278 25.6029C26.3224 25.5145 26.146 25.7515 26.1589 26.3823C26.201 28.2715 26.1751 30.1624 26.1751 32.0566C26.2054 32.7527 26.0952 33.4478 25.8514 34.0977C25.4533 35.0456 24.7573 35.4795 23.736 35.4328C22.8587 35.3944 22.1887 34.8721 21.8682 33.9659C21.6807 33.3842 21.5958 32.7726 21.6173 32.1601C21.6173 30.4378 21.6335 28.7138 21.6173 26.9865C21.5995 25.4344 21.941 25.6513 20.2319 25.5963C19.7155 25.5829 19.6006 25.7798 19.6055 26.2722C19.6281 28.3283 19.6055 30.386 19.6217 32.4471C19.6169 33.3122 19.7889 34.1686 20.1267 34.9605C20.463 35.7609 21.0856 36.3969 21.865 36.7362C24.958 38.1148 27.9312 36.274 28.1352 32.8193C28.1951 31.7362 28.1417 30.6481 28.1417 29.5649H28.1368ZM49.9871 82.7581C49.9175 82.6646 49.8576 82.6212 49.8608 82.5912C49.9547 81.5899 49.2393 81.8769 48.7278 81.8385C47.9979 81.7835 48.2423 82.3392 48.2423 82.698C48.2293 84.5338 48.2423 86.3696 48.2423 88.2054C48.2423 89.4571 48.2423 89.4304 49.4724 89.4271C49.9806 89.4271 50.1198 89.2468 50.1036 88.7478C50.0761 87.5262 50.1036 86.3029 50.0939 85.0762C50.0743 84.6847 50.1666 84.296 50.3593 83.958C50.6539 83.4791 51.0569 83.192 51.6364 83.2504C52.2417 83.3122 52.5249 83.7327 52.6625 84.2768C52.7231 84.5465 52.7513 84.8228 52.7467 85.0996C52.7548 86.3229 52.7467 87.5462 52.7564 88.7712C52.7564 88.9948 52.6479 89.2719 52.9846 89.3987C53.9153 89.7592 54.5643 89.3286 54.5627 88.3273C54.5627 88.132 54.5627 87.9384 54.5627 87.7431C54.5627 86.7151 54.5335 85.6837 54.5967 84.659C54.6485 83.8245 55.2441 83.2571 55.9303 83.2438C56.6166 83.2304 57.0487 83.676 57.1879 84.5922C57.2301 84.8946 57.2512 85.1997 57.2511 85.5051C57.2511 86.6166 57.2737 87.7298 57.2414 88.843C57.2284 89.2835 57.353 89.4621 57.7803 89.4204C57.9955 89.3969 58.2125 89.3969 58.4277 89.4204C58.9133 89.4755 59.093 89.3069 59.0752 88.7762C59.0379 87.3593 59.0832 85.939 59.0444 84.5238C59.012 83.3789 58.6511 82.3542 57.5456 81.8736C56.4402 81.3929 55.4189 81.715 54.5999 82.5895C54.2649 82.9484 54.1516 82.8382 53.8894 82.5128C53.1772 81.6232 52.062 81.423 51.0294 81.912C50.6183 82.0989 50.327 82.4577 49.9854 82.7581H49.9871ZM32.1378 40.0924C30.6811 40.0924 30.6811 40.0924 30.2717 41.4125L29.3879 44.273C28.7157 46.4437 28.0451 48.6133 27.3761 50.7818C27.3081 51.0038 27.0524 51.2925 27.58 51.3726C28.9542 51.5812 29.2358 51.4226 29.6437 50.0658C29.6744 49.959 29.7084 49.8539 29.7408 49.7471C30.2118 48.1549 30.2118 48.1549 31.8335 48.1533C33.6414 48.1533 33.6415 48.1533 34.1998 49.939C34.6547 51.3926 34.6547 51.3676 36.1065 51.3743C36.6811 51.3743 36.7911 51.2508 36.6018 50.6666C35.595 47.5558 34.5996 44.4399 33.6641 41.3057C33.389 40.3912 33.0523 39.782 32.1378 40.0924ZM50.2088 25.6079C48.6987 25.643 49.0192 25.3309 48.5336 26.8813C48.0869 28.3077 47.6396 29.7346 47.1918 31.1621C46.6577 32.8811 46.1414 34.6067 45.5911 36.319C45.4552 36.7429 45.4713 36.8965 45.9666 36.9131C47.4864 36.9615 47.4848 36.9832 47.9089 35.4629L47.9526 35.296C48.409 33.6988 48.409 33.6988 50.0389 33.6988C51.8856 33.6988 51.8856 33.6988 52.4472 35.5346C52.8697 36.9115 52.8713 36.8698 54.3021 36.9098C54.9495 36.9232 54.9916 36.7329 54.8071 36.1621C53.8036 33.053 52.8389 29.9304 51.8468 26.8162C51.3774 25.3476 51.7189 25.6513 50.2088 25.6079ZM75.8222 25.6213C75.3754 25.8066 74.6617 25.1924 74.3914 26.0552C73.307 29.5165 72.2339 32.9812 71.143 36.4392C71.0103 36.8631 71.1899 36.8881 71.5185 36.9081C73.0464 37.0033 73.0464 37.0116 73.4931 35.5046L73.5659 35.2659C74.0337 33.7055 74.0337 33.7055 75.5891 33.7055C77.4537 33.7055 77.4537 33.7055 78.0282 35.4996C78.4863 36.9282 78.4863 36.8998 79.9397 36.9148C80.5305 36.9148 80.6017 36.7713 80.4253 36.2105C79.4105 33.0763 78.3973 29.9404 77.4617 26.7812C77.185 25.865 76.8418 25.3359 75.8222 25.6213ZM19.6314 45.7417C19.6314 47.4106 19.6492 49.0795 19.6217 50.7484C19.6136 51.2591 19.7657 51.416 20.2691 51.416C22.0721 51.3876 23.8784 51.3759 25.6815 51.416C26.4098 51.4327 26.2771 50.9704 26.2771 50.5415C26.2771 50.1126 26.4114 49.6369 25.6847 49.667C24.5275 49.7154 23.3686 49.667 22.2097 49.6887C21.7986 49.6887 21.627 49.5601 21.6416 49.1179C21.6659 48.3969 21.6724 47.6726 21.6416 46.9483C21.6173 46.4376 21.8488 46.3475 22.2728 46.3575C23.2164 46.3792 24.1601 46.3358 25.1004 46.3759C25.6281 46.3976 25.7608 46.239 25.7834 45.6816C25.8158 44.9056 25.6362 44.5484 24.8301 44.6803C24.481 44.7078 24.1304 44.7078 23.7813 44.6803C21.5672 44.6803 21.585 44.6803 21.6384 42.3955C21.6497 41.8698 21.8245 41.728 22.302 41.7496C23.3508 41.7797 24.4061 41.7263 25.4533 41.7697C26.1994 41.8014 26.0036 41.2857 26.023 40.8785C26.0424 40.4713 26.1007 40.064 25.4452 40.0791C23.7214 40.1175 21.9977 40.1074 20.2739 40.0791C19.7787 40.0707 19.6265 40.2276 19.6265 40.7466C19.6492 42.4089 19.6314 44.0761 19.6314 45.7417ZM20.7546 16.8328C20.7546 18.445 20.7789 20.0588 20.7433 21.6727C20.7304 22.2668 20.8501 22.5071 21.4911 22.4938C23.2164 22.4487 24.9434 22.4404 26.6704 22.4938C27.3793 22.5155 27.3858 22.16 27.3631 21.6326C27.3437 21.1586 27.4554 20.6947 26.7012 20.7381C25.5989 20.8015 24.4919 20.7381 23.3864 20.7631C22.9478 20.7731 22.739 20.658 22.7697 20.1623C22.8037 19.4697 22.8021 18.7721 22.7697 18.0778C22.7487 17.6039 22.9105 17.4436 23.3702 17.4587C24.3413 17.487 25.3125 17.4286 26.2836 17.4804C27.02 17.5187 26.8646 17.0264 26.8695 16.6042C26.8743 16.1819 26.9909 15.703 26.2625 15.7464C25.2914 15.8064 24.3203 15.7464 23.3492 15.7681C22.9526 15.7681 22.7471 15.6746 22.7713 15.214C22.8021 14.6309 22.8021 14.0464 22.7713 13.4633C22.7438 12.9626 22.9575 12.8558 23.3929 12.8675C24.4174 12.8925 25.4452 12.8324 26.4681 12.8892C27.1155 12.9242 27.1754 12.6055 27.1382 12.0914C27.1058 11.6425 27.2806 11.1468 26.5005 11.1702C24.8042 11.2219 23.1015 11.2103 21.4053 11.1702C20.8242 11.1569 20.7466 11.4105 20.7579 11.9129C20.7692 13.5534 20.7563 15.1923 20.7546 16.8328V16.8328ZM63.8175 16.7811C63.8175 18.4216 63.8466 20.0622 63.8029 21.701C63.7867 22.3419 63.9907 22.5021 64.5863 22.4888C66.3116 22.4504 68.037 22.4404 69.7656 22.4888C70.4341 22.5088 70.4486 22.155 70.413 21.6727C70.3806 21.2404 70.5959 20.6713 69.798 20.7431C69.2867 20.7831 68.7732 20.7831 68.262 20.7431C67.4657 20.6947 66.3812 21.1186 65.9539 20.5595C65.5558 20.0371 65.8601 18.964 65.8018 18.1379C65.7597 17.5571 66.0041 17.437 66.5042 17.452C67.4479 17.4837 68.3915 17.4687 69.3351 17.452C69.5568 17.452 69.8206 17.5421 69.9258 17.185C70.2107 16.2454 69.8757 15.753 68.924 15.7514H67.8719C65.7678 15.7514 65.7872 15.7514 65.7986 13.5718C65.7986 13.0444 65.9151 12.8291 66.4703 12.8525C67.4932 12.8975 68.5209 12.8258 69.5455 12.8808C70.2155 12.9159 70.2107 12.5471 70.1929 12.0564C70.1751 11.5657 70.2803 11.1352 69.5309 11.1585C67.8606 11.2136 66.187 11.2019 64.5134 11.1585C63.9146 11.1435 63.7997 11.3772 63.8094 11.9312C63.8401 13.5567 63.8207 15.1689 63.8175 16.7811ZM96.0264 88.4124C96.2513 90.2599 95.3903 91.2495 93.7313 91.1627C93.2464 91.1349 92.7697 91.022 92.3215 90.8289C92.0755 90.7238 91.7696 90.5219 91.7308 90.9958C91.6984 91.3997 91.1109 91.8386 91.768 92.2275C94.4904 93.843 97.7873 92.0489 97.8925 88.8563C97.9654 86.665 97.9395 84.4704 97.9621 82.2775C97.9621 82.1106 97.9767 81.9537 97.8003 81.8586C97.2387 81.5665 96.3922 81.9437 96.206 82.6329C95.3579 81.7 94.3399 81.4246 93.1923 81.8218C91.7227 82.3225 91.0121 83.4908 90.8357 85.0078C90.6528 86.5899 90.9976 87.9985 92.3863 88.9431C92.7291 89.162 93.1174 89.2941 93.5193 89.3286C93.9782 89.3999 94.4472 89.3537 94.8847 89.1939C95.3222 89.0341 95.7149 88.7657 96.028 88.4124H96.0264ZM99.5305 31.2305C99.5305 32.8427 99.5564 34.4565 99.5176 36.0703C99.503 36.7012 99.6357 36.9432 100.306 36.9215C102.004 36.8698 103.705 36.8748 105.403 36.9215C106.021 36.9365 106.168 36.7396 106.171 36.1238C106.171 35.4562 106.047 35.1391 105.335 35.2309C104.878 35.2735 104.419 35.2768 103.962 35.2409C103.185 35.2109 102.182 35.5747 101.696 35.1057C101.17 34.5867 101.607 33.5219 101.508 32.7042C101.424 32.0015 101.732 31.8614 102.339 31.8914C103.253 31.9365 104.171 31.9064 105.09 31.9014C105.32 31.9014 105.566 31.9665 105.66 31.6077C105.911 30.6531 105.624 30.2358 104.676 30.2358H103.624C101.45 30.2358 101.465 30.2358 101.507 28.0062C101.515 27.5055 101.631 27.3152 102.143 27.3386C103.193 27.3753 104.247 27.3119 105.297 27.362C106.044 27.397 105.872 26.893 105.877 26.4808C105.882 26.0686 106.029 25.5862 105.292 25.6046C103.569 25.648 101.842 25.633 100.113 25.6046C99.6406 25.6046 99.5192 25.7715 99.5256 26.2321C99.5386 27.8944 99.5305 29.5616 99.5305 31.2305ZM24.9968 87.2592C24.822 87.2074 24.7945 87.0739 24.7654 86.9354C24.4978 85.6603 24.228 84.3847 23.9561 83.1086C23.6761 81.7734 23.6777 81.7985 22.3538 81.8202C21.8067 81.8302 21.8051 82.0271 21.9362 82.471C22.5642 84.5972 23.1857 86.7251 23.7684 88.8646C23.9059 89.3653 24.1811 89.4671 24.5922 89.402C25.0438 89.3319 25.641 89.6924 25.8514 88.893C26.2091 87.5278 26.6121 86.1744 26.9974 84.8159C27.0443 84.649 26.9974 84.4087 27.2838 84.387C27.5719 85.9174 28.0769 87.391 28.4557 88.893C28.5884 89.4171 28.9072 89.4655 29.3005 89.4054C29.7278 89.342 30.2846 89.6841 30.5047 88.9364C31.1521 86.7318 31.8416 84.5388 32.5069 82.3375C32.5489 82.1974 32.68 82.0388 32.5069 81.8869C32.1022 81.5331 30.7863 81.9504 30.6601 82.4844C30.2862 84.0715 29.9204 85.6553 29.5514 87.2558C29.3119 87.1557 29.3394 86.9371 29.2924 86.7551C28.9234 85.3349 28.5172 83.918 28.1983 82.4894C28.0575 81.8519 27.7127 81.8218 27.2094 81.8218C26.706 81.8218 26.4373 81.8919 26.2965 82.4727C25.9113 84.0782 25.4371 85.6653 24.9968 87.2592ZM38.7237 84.2852C39.1639 85.8723 39.588 87.3593 39.9829 88.853C40.0946 89.2735 40.2969 89.5005 40.7177 89.4004C41.1628 89.2952 41.7843 89.7442 42.0206 88.9681C42.6972 86.7429 43.3753 84.5177 44.0551 82.2925C44.1085 82.1156 44.2251 81.9453 43.9289 81.8385C43.0549 81.5231 42.3103 81.9203 42.0967 82.8532C41.7552 84.3202 41.4169 85.7888 41.0333 87.4544C40.5575 85.6787 40.0994 84.1166 39.7385 82.5261C39.5847 81.8586 39.2205 81.8369 38.6945 81.8202C38.1685 81.8035 37.9484 81.9871 37.8157 82.5228C37.4191 84.1183 36.9546 85.6937 36.4545 87.5095C36.0579 85.6854 35.6954 84.0982 35.3733 82.5028C35.2746 82.0154 35.1014 81.7534 34.5818 81.8352C34.3403 81.8627 34.0966 81.8627 33.8551 81.8352C33.3809 81.7935 33.3194 81.9804 33.4488 82.4227C34.0865 84.5739 34.6935 86.7351 35.315 88.8913C35.383 89.1233 35.4235 89.3503 35.7439 89.4171C36.8154 89.6373 37.2249 89.4087 37.5486 88.3172C37.9354 87.0005 38.3142 85.6837 38.7237 84.2852ZM13.4745 87.2558L13.3337 87.2475C13.0326 85.8439 12.7591 84.4337 12.4208 83.0401C12.0825 81.6466 12.4661 81.8719 10.9236 81.8235C10.3733 81.8052 10.2228 81.912 10.4057 82.5061C11.0289 84.5455 11.6148 86.5966 12.1861 88.6544C12.3285 89.1767 12.5098 89.4888 13.1071 89.4171C13.6444 89.3536 14.1882 89.5539 14.4019 88.6994C14.7628 87.2508 15.271 85.8422 15.6352 84.145C16.1208 85.8823 16.5448 87.3626 16.93 88.8546C17.0433 89.2835 17.2538 89.4955 17.6665 89.3987C18.11 89.2952 18.7282 89.7325 18.9613 88.9581C19.6362 86.7318 20.3209 84.5071 20.9974 82.2825C21.0427 82.1339 21.1447 81.9737 20.9424 81.8486C20.384 81.5031 19.2526 81.9654 19.1005 82.6096L17.9853 87.401C17.8688 87.0322 17.8154 86.8903 17.7782 86.7451C17.4027 85.3249 17.0077 83.908 16.6711 82.4811C16.5416 81.9286 16.2697 81.8001 15.7647 81.8135C15.2597 81.8269 14.9182 81.8385 14.7677 82.4677C14.3792 84.0782 13.9099 85.662 13.4809 87.2558H13.4745ZM32.8969 37.0834C33.5996 37.1068 34.3002 36.9935 34.9622 36.7496C36.4593 36.1938 37.2573 34.832 37.0501 33.2148C36.9012 32.0466 36.2036 31.3173 35.2422 30.82C34.4734 30.4228 33.6609 30.109 32.9018 29.6951C32.4033 29.4231 32.0569 28.9725 32.1799 28.3299C32.3029 27.6874 32.782 27.3469 33.3695 27.2318C34.1172 27.0776 34.8923 27.1536 35.5983 27.4504C35.998 27.6173 36.2845 27.664 36.3234 27.14C36.3574 26.6877 37.0647 26.112 36.1291 25.8049C35.0814 25.4231 33.9521 25.3457 32.8646 25.5812C31.335 25.9317 30.372 26.9164 30.181 28.3216C29.9965 29.6701 30.6552 30.8033 32.1119 31.5576C32.7124 31.8697 33.3582 32.085 33.9635 32.3921C34.666 32.7425 35.1645 33.2549 35.0075 34.1594C34.8877 34.842 34.2743 35.3177 33.3744 35.3944C32.5083 35.4602 31.6408 35.2874 30.8608 34.8938C30.55 34.7436 30.4011 34.7536 30.2781 35.1358C29.8735 36.3874 29.9544 36.5543 31.2201 36.8731C31.7684 37.0206 32.3335 37.0914 32.9002 37.0834H32.8969ZM13.8257 37.0834C14.4314 37.0872 15.0335 36.9851 15.6061 36.7813C17.1761 36.2389 17.9869 34.9455 17.8105 33.2482C17.6843 32.0383 16.9478 31.3039 15.9654 30.7933C15.2209 30.4061 14.4326 30.1057 13.6994 29.7118C13.1637 29.4264 12.8076 28.9575 12.9501 28.2832C13.0925 27.609 13.5813 27.3286 14.1704 27.2201C14.9193 27.0824 15.6906 27.1651 16.3959 27.4588C16.6856 27.5756 17.0158 27.7592 17.0433 27.2635C17.0692 26.7945 17.8429 26.1971 16.9915 25.8583C15.4458 25.2441 13.8694 25.1907 12.3852 26.0786C10.5579 27.1684 10.3976 29.6267 12.0243 30.9919C12.5161 31.3789 13.0617 31.6872 13.6428 31.9064C14.1191 32.0993 14.5834 32.3222 15.0331 32.574C15.5689 32.8827 15.8699 33.3767 15.7857 34.0243C15.6967 34.7052 15.2549 35.094 14.6317 35.2709C13.6476 35.553 12.7121 35.311 11.7831 34.9789C11.5338 34.8904 11.1211 34.4782 11.0758 35.099C11.0386 35.5997 10.2406 36.2456 11.2376 36.6278C12.0659 36.9466 12.945 37.1017 13.8289 37.085L13.8257 37.0834ZM14.8162 39.8938C14.4682 39.9239 14.1138 39.9205 13.7707 39.9856C11.7442 40.3778 10.5708 42.0067 10.9965 43.8425C11.2603 44.9756 12.0599 45.6115 13.018 46.0771C13.6266 46.3725 14.2659 46.6028 14.8664 46.9116C15.4669 47.2203 15.9185 47.746 15.7857 48.5087C15.6417 49.3432 15.0509 49.6987 14.287 49.7871C13.4247 49.8759 12.5544 49.7476 11.7507 49.4133C11.5371 49.3298 11.1551 48.8926 11.1033 49.485C11.0596 49.9857 10.2698 50.6533 11.202 51.0405C12.7866 51.6863 14.4181 51.7865 16.0059 51.0555C17.1906 50.5081 17.8138 49.5334 17.8348 48.1599C17.8575 46.758 17.1421 45.8618 16.0075 45.261C15.2419 44.8572 14.431 44.5434 13.6655 44.1379C13.154 43.8675 12.8271 43.4135 12.9371 42.776C13.0472 42.1385 13.4809 41.8515 14.0377 41.6946C14.7766 41.498 15.558 41.5608 16.2584 41.8731C16.7892 42.0934 16.9948 42.015 17.1485 41.4326C17.4318 40.3678 17.4723 40.3795 16.4234 40.0974C15.8994 39.9592 15.3603 39.8914 14.8195 39.8955L14.8162 39.8938ZM16.5465 11.005C14.8065 11.005 13.2527 11.5057 12.0372 12.8692C10.3232 14.7884 10.1516 18.4099 11.673 20.5461C13.0229 22.4454 16.5189 23.3032 18.6926 22.2818C18.9565 22.1583 19.0309 22.0315 18.9856 21.7144C18.8237 20.5612 18.8448 20.5829 17.7425 20.7865C16.124 21.0852 14.5945 20.9534 13.4955 19.4814C12.5131 18.1713 12.4661 15.8832 13.3337 14.4246C14.1429 13.0694 15.6336 12.4686 17.4302 12.7807C17.6718 12.8057 17.9094 12.8618 18.1375 12.9476C18.8156 13.2664 18.8156 12.7373 18.9467 12.3184C19.0843 11.8511 19.2704 11.4172 18.5567 11.2587C17.8973 11.1071 17.2251 11.0227 16.5497 11.0067L16.5465 11.005ZM51.256 16.8562C51.256 18.3026 51.256 19.749 51.256 21.1953C51.256 22.5205 51.256 22.4954 52.5816 22.4904C53.1173 22.4904 53.2743 22.3068 53.2549 21.7645C53.2177 20.6263 53.2646 19.4847 53.2355 18.3465C53.2209 17.8458 53.3617 17.6539 53.8699 17.679C54.786 17.7173 55.7054 17.6489 56.6215 17.704C57.2818 17.744 57.3077 17.3836 57.2689 16.8879C57.2397 16.4423 57.421 15.9066 56.6409 15.9533C55.7005 16.0101 54.7553 15.9717 53.8117 15.9984C53.4087 16.01 53.2144 15.8899 53.2338 15.4343C53.267 14.7955 53.267 14.1554 53.2338 13.5167C53.1999 12.9843 53.4119 12.8491 53.891 12.8725C54.9155 12.9042 55.9417 12.8425 56.9662 12.8959C57.6767 12.9342 57.5829 12.487 57.578 12.0414C57.5731 11.5958 57.6832 11.1585 56.9694 11.1786C55.2716 11.2236 53.5705 11.2103 51.8727 11.1786C51.358 11.1685 51.2398 11.3655 51.2479 11.8561C51.2738 13.52 51.2592 15.1889 51.2592 16.8579L51.256 16.8562ZM38.3336 45.7116C38.3336 47.1552 38.3174 48.5989 38.3336 50.0425C38.3546 51.5261 38.0099 51.3325 39.6835 51.3776C40.1787 51.3909 40.339 51.219 40.3309 50.71C40.2985 49.6553 40.3762 48.5972 40.305 47.5391C40.2467 46.7046 40.5478 46.491 41.3036 46.5511C42.1339 46.6179 42.9723 46.5695 43.8075 46.5661C44.0406 46.5661 44.2736 46.6095 44.3529 46.244C44.5731 45.226 44.3448 44.9089 43.3413 44.9089H42.6146C40.2014 44.9089 40.2127 44.9089 40.3098 42.3772C40.3276 41.9165 40.4539 41.738 40.9168 41.7496C41.9656 41.778 43.0209 41.7246 44.0665 41.7713C44.7139 41.7997 44.6783 41.4109 44.6491 40.9786C44.6232 40.5764 44.8401 40.0641 44.0875 40.0807C42.3637 40.1175 40.64 40.1058 38.9179 40.0807C38.4469 40.0807 38.3223 40.2476 38.3287 40.7133C38.3498 42.3805 38.3368 44.0477 38.3368 45.7133L38.3336 45.7116ZM40.9702 32.1451C40.9702 33.34 40.9621 34.535 40.9702 35.7299C40.9815 37.0901 40.7873 36.843 42.1404 36.9148C42.825 36.9515 42.9917 36.7195 42.9804 36.0353C42.94 33.4785 43.0079 30.9218 42.94 28.3583C42.9173 27.4704 43.1941 27.2451 43.9807 27.3386C44.5132 27.402 45.0586 27.3286 45.5992 27.357C46.3097 27.3953 46.1188 26.8563 46.1042 26.4992C46.0896 26.142 46.3583 25.6113 45.63 25.6146C43.2032 25.6313 40.7754 25.6313 38.3465 25.6146C37.6263 25.6146 37.8723 26.142 37.861 26.4941C37.8496 26.8463 37.6425 27.3887 38.3579 27.357C39.0312 27.3286 39.7061 27.377 40.3778 27.3419C40.8488 27.3186 40.975 27.5088 40.967 27.9711C40.9589 29.368 40.9734 30.7565 40.9734 32.1467L40.9702 32.1451ZM40.5251 17.694C40.5251 18.9991 40.5769 20.3075 40.5057 21.6092C40.4604 22.417 40.7873 22.5472 41.4412 22.4804C41.9963 22.4237 42.5952 22.694 42.5612 21.6276C42.477 18.9573 42.5483 16.2954 42.5224 13.6302C42.5224 13.0561 42.6648 12.8324 43.2426 12.8775C43.8593 12.9242 44.484 12.8475 45.0991 12.8959C45.7692 12.9459 45.6915 12.497 45.664 12.0881C45.6364 11.6792 45.8873 11.1652 45.1217 11.1735C42.7247 11.2019 40.3276 11.1836 37.9306 11.1852C37.7477 11.1852 37.5551 11.1502 37.445 11.3738C37.0873 12.0814 37.5195 12.8758 38.2656 12.8859C38.7771 12.8859 39.2918 12.9192 39.8 12.8758C40.3535 12.8308 40.5591 13.0127 40.5413 13.6118C40.5024 14.9703 40.5299 16.3355 40.5283 17.6957L40.5251 17.694ZM84.5072 85.647C84.5315 83.2571 83.0926 81.6683 80.8947 81.655C78.6044 81.6416 77.0555 83.2438 77.0409 85.637C77.028 87.9734 78.5251 89.5806 80.7231 89.594C82.9745 89.6073 84.4781 88.0352 84.5072 85.647ZM91.4961 31.2956C91.4961 32.9361 91.5074 34.5767 91.488 36.2172C91.488 36.6845 91.5576 36.9232 92.0982 36.9131C93.8786 36.8798 95.659 36.8731 97.4394 36.9131C98.1839 36.9298 97.9994 36.4375 98.0204 36.027C98.0431 35.568 98.0965 35.1458 97.3973 35.1925C96.3744 35.2492 95.3466 35.1691 94.3221 35.2209C93.6924 35.2526 93.4853 35.0723 93.4966 34.3948C93.5354 31.9198 93.5128 29.4448 93.5128 26.9698C93.5128 25.5846 93.5128 25.6196 92.1904 25.5979C91.5883 25.5879 91.4767 25.8299 91.4848 26.379C91.5123 28.0128 91.4945 29.6567 91.4961 31.2956V31.2956ZM62.8043 89.594C64.4228 89.594 65.5169 88.8913 65.7613 87.6947C66.0268 86.3963 65.4053 85.5135 63.7576 84.8392C63.5045 84.7455 63.2593 84.6305 63.0244 84.4954C62.7395 84.3185 62.5065 84.0682 62.5987 83.681C62.691 83.2938 62.9516 83.1403 63.2947 83.0735C63.7497 82.9979 64.2163 83.0617 64.6365 83.2571C64.944 83.3873 65.2272 83.4858 65.2742 83.0118C65.3098 82.6396 65.8002 82.1673 65.0864 81.922C64.2496 81.6349 63.4064 81.5398 62.5485 81.7968C61.5159 82.1089 60.8895 82.8399 60.8005 83.8446C60.7083 84.8826 61.2861 85.5035 62.0953 85.944C62.5437 86.191 63.0373 86.3513 63.4921 86.5883C63.8563 86.7785 64.0667 87.1023 63.9648 87.5462C63.8709 87.9534 63.5504 88.1053 63.1846 88.1604C62.5662 88.2444 61.9375 88.1351 61.38 87.8466C61.0562 87.6914 60.9332 87.7481 60.8199 88.1203C60.5367 89.0599 60.5513 89.135 61.4495 89.3954C61.889 89.5308 62.3456 89.5977 62.8043 89.594V89.594ZM71.1203 81.65C69.5536 81.65 68.3688 82.2124 67.6566 83.177C66.6629 84.5238 66.5933 86.6817 67.4948 88.0319C68.3963 89.382 70.1929 89.896 72.072 89.4204C72.7032 89.2535 72.7065 88.9564 72.6207 88.419C72.5236 87.8116 72.2711 87.8633 71.7985 87.9634C70.0343 88.3356 68.8285 87.416 68.7637 85.7171C68.6957 83.9147 70.0051 82.8465 71.8389 83.2888C72.3488 83.4123 72.4508 83.2738 72.5916 82.8199C72.7987 82.1523 72.6207 81.8268 71.9571 81.7568C71.6124 81.715 71.266 81.6683 71.1203 81.65V81.65ZM58.554 31.2288C58.554 29.7001 58.5054 28.1697 58.5734 26.6443C58.6106 25.8099 58.4116 25.5512 57.5699 25.5746C56.7898 25.5946 56.5082 25.7281 56.5276 26.6193C56.5907 29.5916 56.5519 32.5656 56.5502 35.5396C56.5502 36.9215 56.5502 36.8864 57.8645 36.9165C58.4666 36.9315 58.5766 36.7012 58.5653 36.1471C58.5346 34.5082 58.554 32.8677 58.554 31.2288ZM48.9917 16.8061C48.9917 15.1372 48.9771 13.4683 48.9998 11.7994C48.9998 11.3237 48.8557 11.1318 48.396 11.1852C48.1811 11.2137 47.9635 11.2137 47.7486 11.1852C47.0931 11.0818 46.9394 11.3721 46.9394 12.0197C46.9717 15.0504 46.9394 18.0812 46.9588 21.1119C46.9669 22.644 46.661 22.4353 48.2763 22.4888C48.8573 22.5088 49.0062 22.2968 48.9949 21.7244C48.9706 20.0839 48.9917 18.4416 48.9917 16.8061ZM59.5429 16.7978V21.0518C59.5429 22.5038 59.5429 22.4854 60.9591 22.4687C61.3719 22.4687 61.5321 22.3653 61.5289 21.913C61.5148 18.5218 61.5148 15.1283 61.5289 11.7326C61.5289 11.2737 61.3508 11.1435 60.9494 11.1802C60.7344 11.2062 60.5171 11.2062 60.302 11.1802C59.7015 11.0884 59.5105 11.3221 59.5267 11.9563C59.572 13.5684 59.5429 15.1806 59.5429 16.7928V16.7978ZM87.7055 83.0535C87.6606 82.8838 87.6319 82.7099 87.6197 82.5345C87.6974 81.5331 86.9723 81.922 86.5142 81.8486C85.9008 81.7501 85.9785 82.1823 85.9817 82.5762C85.9979 84.4637 85.9931 86.3513 86.0109 88.2388C86.0238 89.5389 85.7746 89.3787 87.1778 89.4321C87.7654 89.4554 87.9045 89.2318 87.8835 88.6694C87.8447 87.6163 87.8528 86.5582 87.8835 85.4985C87.9126 84.3803 88.4112 83.5475 89.2577 83.5341C90.1932 83.5208 90.1365 83.0335 90.1527 82.3542C90.1721 81.6216 89.829 81.5815 89.2997 81.7033C88.607 81.8586 88.1716 82.3809 87.7152 83.0401L87.7055 83.0535ZM74.9757 87.1507C74.822 87.1343 74.6667 87.1509 74.5195 87.1994C74.3724 87.248 74.2366 87.3275 74.1207 87.4328C74.0049 87.5382 73.9114 87.6672 73.8463 87.8116C73.7812 87.9561 73.7458 88.1129 73.7423 88.2722C73.7003 88.9865 74.1405 89.5489 74.7831 89.6073C74.9365 89.6203 75.0908 89.6009 75.2367 89.5503C75.3826 89.4998 75.517 89.4191 75.6317 89.3132C75.7463 89.2073 75.8388 89.0785 75.9036 88.9345C75.9684 88.7905 76.004 88.6344 76.0083 88.4758C76.0617 87.7348 75.6425 87.1891 74.9821 87.1373L74.9757 87.1507ZM46.7662 88.3406C46.7662 87.6096 46.3017 87.1306 45.6186 87.1373C44.9356 87.144 44.4954 87.648 44.5018 88.3773C44.5018 89.0816 45.0068 89.6106 45.6526 89.5923C46.2984 89.5739 46.7662 89.0582 46.7662 88.3406Z" fill="#3460AA"/>
<path d="M159.998 96.9923C154.409 96.9739 146.536 95.8808 139 92.82C133.497 90.5903 128.58 87.4611 124.694 82.7882C119.643 76.7134 117.626 69.6388 118.398 61.7265C119.17 53.8142 122.457 46.9083 126.934 40.5698C133.085 31.8731 140.897 25.0773 149.744 19.4915C161.133 12.2878 173.78 7.45321 186.971 5.26068C197.167 3.5367 207.375 3.42488 217.506 5.88652C223.551 7.3585 229.247 9.69664 234.169 13.692C242.988 20.8533 246.41 30.2142 244.472 41.5895C243.22 48.9577 239.885 55.3797 235.57 61.2826C229.158 70.0477 221.099 76.8919 211.991 82.4661C201.462 88.9135 189.888 93.343 177.829 95.5403C172.744 96.4916 167.621 96.9939 159.998 96.9923ZM149.223 84.7942C149.285 84.692 149.339 84.5848 149.385 84.4738C150.497 80.4217 152.033 76.5381 153.818 72.7564C160.991 57.5793 171.308 45.1821 184.768 35.5647C197.088 26.7295 210.774 21.2438 225.427 18.1814C226.759 17.9027 228.096 17.6406 229.43 17.3703C229.034 17.272 228.627 17.2343 228.221 17.2585C222.854 17.4068 217.506 17.9596 212.218 18.9124C201.142 20.915 190.565 24.4431 180.681 30.0406C173.54 34.0861 167.1 39.0794 161.466 45.1643C156.429 50.6017 152.189 56.7683 148.88 63.4689C148.597 64.038 148.394 64.2633 147.909 63.6508C147.562 63.2593 147.183 62.8996 146.776 62.576C142.911 59.1097 138.751 56.099 133.847 54.3566C131.536 53.5339 129.166 53.1884 126.745 53.4972C126.704 53.7108 126.821 53.7475 126.907 53.8059C131.159 56.8154 135.052 60.331 138.507 64.28C142.61 68.9646 145.994 74.1165 148.016 80.1346C148.515 81.6594 148.918 83.2158 149.223 84.7942V84.7942ZM162.115 76.3862C171.007 76.3111 179.826 75.5117 188.518 73.479C196.287 71.6599 203.732 68.9446 210.614 64.7156C218.778 59.6905 225.365 53.0883 229.661 44.2347C230.998 41.541 231.969 38.6702 232.547 35.7032C231.819 36.279 231.215 36.7697 230.605 37.2437C226.515 40.3895 222.172 43.0364 217.206 44.4567C214.474 45.2377 211.745 45.4697 209.02 44.43C206.42 43.4386 204.907 41.5695 204.685 38.6739C204.515 36.4326 205.04 34.3197 205.809 32.2486C205.922 31.9432 206.197 31.6311 205.937 31.2122C205.84 31.2576 205.748 31.3136 205.663 31.3791C203.745 33.2283 202.232 35.3494 201.358 37.9396C199.373 43.8192 203.462 49.0211 208.125 49.8322C209.617 50.0892 211.14 50.0892 212.632 49.8322C216.417 49.1964 219.846 47.6143 223.133 45.6499C223.295 45.5532 223.428 45.2961 223.732 45.5031C223.57 45.7901 223.409 46.0755 223.247 46.3559C221.549 49.2331 219.385 51.6964 216.934 53.9144C212.403 58.0232 207.239 61.1307 201.813 63.786C192.519 68.3371 182.757 71.4963 172.784 74.008C169.246 74.8959 165.69 75.6653 162.115 76.3862ZM217.666 32.7109C218.119 32.7191 218.569 32.6347 218.991 32.4627C219.412 32.2907 219.796 32.0344 220.121 31.7086C220.446 31.3828 220.705 30.994 220.883 30.5645C221.062 30.135 221.156 29.6734 221.16 29.2062C221.168 28.2633 220.813 27.3557 220.173 26.6818C219.534 26.0079 218.661 25.6224 217.747 25.6097C216.846 25.6086 215.981 25.9713 215.336 26.6201C214.691 27.269 214.319 28.1523 214.298 29.081C214.286 29.548 214.364 30.0127 214.528 30.4485C214.691 30.8842 214.936 31.2824 215.249 31.6201C215.562 31.9577 215.937 32.2282 216.352 32.416C216.766 32.6038 217.213 32.7051 217.666 32.7142V32.7109Z" fill="#3460AA"/>
<path d="M71.4888 45.7146C71.4888 44.6031 71.5066 43.4916 71.4775 42.3768C71.4645 41.9011 71.5891 41.6508 72.0828 41.6274C73.6706 41.5523 75.2422 41.6441 76.1421 43.2396C77.0695 44.8835 76.9514 46.6158 76.011 48.2297C75.2956 49.4563 73.1656 50.199 71.84 49.8368C71.4596 49.7317 71.4904 49.4847 71.4904 49.211C71.4893 48.0472 71.4888 46.8817 71.4888 45.7146Z" fill="#3460AA"/>
<path d="M84.158 33.7659C84.158 33.4471 84.158 33.2536 84.158 33.06C84.158 31.6097 84.158 31.6063 85.5969 31.7716C86.0825 31.8266 86.5519 31.9385 86.9549 32.2455C87.1572 32.4065 87.3216 32.6124 87.436 32.8479C87.5503 33.0835 87.6117 33.3426 87.6154 33.606C87.6192 33.8695 87.5652 34.1303 87.4575 34.3692C87.3499 34.6081 87.1914 34.8189 86.9937 34.9859C86.8899 35.0735 86.7764 35.148 86.6554 35.2078C85.9999 35.5133 85.2732 35.6701 84.6096 35.4749C83.577 35.1745 84.4817 34.2165 84.158 33.7659Z" fill="#3460AA"/>
<path d="M84.1546 28.7147C84.1514 28.687 84.1514 28.659 84.1546 28.6313C84.2938 28.1306 83.8309 27.4764 84.4476 27.1292C85.0302 26.8121 86.529 27.1543 86.9628 27.6116C87.6102 28.3008 87.403 29.4474 86.5339 29.923C85.8864 30.2785 85.1888 30.2368 84.4929 30.2301C84.1999 30.2301 84.1514 30.0265 84.153 29.7828C84.1546 29.4323 84.1546 29.0735 84.1546 28.7147Z" fill="#3460AA"/>
<path d="M74.1625 16.8192C74.1625 15.681 74.182 14.5428 74.1528 13.4046C74.1415 12.9323 74.3309 12.7554 74.7549 12.737C76.3103 12.6419 77.8496 12.737 78.7883 14.239C79.7756 15.8245 79.6656 17.5351 78.8385 19.1557C78.1296 20.5442 75.8474 21.3953 74.4458 20.9264C74.114 20.8162 74.1658 20.5675 74.1641 20.3272C74.1609 19.1523 74.1625 17.9857 74.1625 16.8192Z" fill="#3460AA"/>
<path d="M65.6056 45.8136C65.6056 46.8032 65.4292 47.7512 64.8886 48.594C63.8058 50.2813 61.6256 50.358 60.4424 48.7609C59.2593 47.1637 59.2949 44.1997 60.491 42.6376C60.7442 42.2921 61.0734 42.0136 61.4516 41.8251C61.8297 41.6366 62.2458 41.5435 62.6657 41.5535C63.0856 41.5634 63.4971 41.6761 63.8665 41.8823C64.2358 42.0885 64.5523 42.3823 64.7898 42.7394C65.4324 43.654 65.6282 44.7037 65.6056 45.8136Z" fill="#3460AA"/>
<path d="M54.2139 45.7846C54.1443 47.0179 53.9323 48.1811 53.0534 49.0907C52.7936 49.3655 52.4802 49.5803 52.134 49.7209C51.7877 49.8616 51.4164 49.9249 51.0447 49.9066C50.6729 49.8883 50.3091 49.7888 49.9774 49.6148C49.6457 49.4408 49.3536 49.1962 49.1204 48.8971C47.8482 47.3133 47.8385 44.1607 49.101 42.5702C49.3464 42.2542 49.6569 41.9984 50.0101 41.8214C50.3632 41.6444 50.7502 41.5507 51.1428 41.547C51.5355 41.5433 51.924 41.6298 52.2802 41.8001C52.6364 41.9705 52.9514 42.2204 53.2023 42.5319C53.9695 43.4748 54.1848 44.608 54.2139 45.7846Z" fill="#3460AA"/>
<path d="M31.1088 14.5873C31.0934 14.466 31.0934 14.3431 31.1088 14.2218C31.3062 13.7211 30.6054 12.8449 31.6397 12.6914C33.1805 12.4611 34.2115 12.9701 34.4381 13.9998C34.6485 14.9611 34.1711 15.8356 33.2339 16.1694C32.6092 16.3897 31.8565 16.5416 31.3435 16.2462C30.7559 15.9024 31.2609 15.0679 31.1088 14.5873Z" fill="#3460AA"/>
<path d="M31.8914 41.8477C32.3511 43.3931 32.7411 44.7399 33.162 46.0783C33.285 46.4722 33.2429 46.599 32.8043 46.6257C30.4881 46.7659 30.4946 46.7809 31.155 44.5613C31.4026 43.7268 31.6114 42.879 31.8914 41.8477Z" fill="#3460AA"/>
<path d="M50.0744 27.5527C50.5405 28.9796 50.9807 30.3899 51.4404 31.8018C51.5051 31.9987 51.4307 32.1222 51.2268 32.1506C51.1733 32.1506 51.1183 32.1506 51.0649 32.1506C48.7002 32.4226 48.6711 32.3809 49.3703 30.0811C49.626 29.25 49.8413 28.3972 50.0744 27.5527Z" fill="#3460AA"/>
<path d="M75.7225 27.4766C76.187 29.007 76.6079 30.3955 77.0303 31.7823C77.1306 32.1161 76.9461 32.1629 76.6936 32.1612C76.0721 32.1612 75.4522 32.1612 74.8323 32.1612C74.5329 32.1612 74.3662 32.0844 74.4746 31.7206C74.8841 30.3554 75.2807 28.9886 75.7225 27.4766Z" fill="#3460AA"/>
<path d="M96.0959 85.5216C96.0959 85.6885 96.0959 85.8554 96.0959 86.0223C96.0441 87.1588 95.4728 87.8698 94.5648 87.9348C93.6568 87.9999 92.875 87.2489 92.7342 86.1842C92.6468 85.5166 92.6614 84.849 92.9592 84.2249C93.3347 83.4271 94.0452 83.0133 94.7865 83.1601C95.489 83.3003 95.9891 83.9111 96.0814 84.7723C96.0951 85.0219 96.0951 85.272 96.0814 85.5216H96.0959Z" fill="#3460AA"/>
<path d="M82.5748 85.5818C82.6208 86.222 82.4641 86.8604 82.1281 87.4009C81.4678 88.4273 80.2005 88.4573 79.4883 87.466C78.7972 86.5047 78.7939 84.7323 79.4883 83.7694C79.6421 83.5398 79.8502 83.3544 80.0928 83.2307C80.3354 83.107 80.6046 83.0491 80.8749 83.0624C81.1453 83.0758 81.4079 83.16 81.6379 83.307C81.8679 83.4541 82.0578 83.6592 82.1896 83.9029C82.4791 84.4098 82.6133 84.9949 82.5748 85.5818V85.5818Z" fill="#3460AA"/>
</g>
<rect x="2.5" y="1.5" width="245" height="98" rx="4.5" stroke="white" stroke-width="5"/>
</g>
<rect x="0.5" y="0.5" width="255" height="101" rx="7.5" stroke="white"/>
<defs>
<clipPath id="clip0_4856_17252">
<rect x="1" y="1" width="254" height="100" rx="7" fill="white"/>
</clipPath>
<clipPath id="clip1_4856_17252">
<rect x="5" y="4" width="240" height="93" rx="2" fill="white"/>
</clipPath>
</defs>
</svg>
