<svg width="300" height="146" viewBox="0 0 300 146" fill="none" xmlns="http://www.w3.org/2000/svg">
<g clip-path="url(#clip0_6254_24811)">
<path d="M300 54.8867H161.45C157.384 54.9377 153.515 55.7984 149.997 57.3216C146.479 55.7984 142.611 54.9377 138.544 54.8924H0L12.8217 85.7243L0 114.337H138.55C142.616 114.286 146.485 113.425 150.003 111.902C153.521 113.425 157.389 114.286 161.456 114.331H300.006L287.184 83.499L300.006 54.8924L300 54.8867Z" fill="#E1251B"/>
<path d="M50.5312 84.6089C50.5312 106.885 57.3465 127.507 68.9408 144.37H231.454C243.043 127.507 249.864 106.885 249.864 84.6089C249.864 62.3329 243.049 41.7104 231.454 24.8477H68.9408C57.3521 41.7104 50.5312 62.3329 50.5312 84.6089Z" fill="#051C2C"/>
<path d="M82.1459 67.4912H78.1416C77.8022 66.6079 77.6325 65.7641 77.6325 64.9601C77.6325 64.3995 77.7796 63.9918 78.068 63.7427C78.3565 63.4935 78.792 63.3633 79.3745 63.3633H93.8816C101.664 63.3633 106.901 64.3032 109.588 66.1775C112.274 68.0574 113.62 71.1434 113.62 75.4412C113.62 79.739 111.997 83.329 108.745 85.8488C105.493 88.3685 100.267 89.6313 93.0672 89.6313H91.625C91.6476 94.835 91.6928 98.408 91.7777 100.356H96.7152C97.0545 101.081 97.2242 101.822 97.2242 102.587C97.2242 103.289 97.0941 103.782 96.8339 104.065C96.5738 104.348 96.1496 104.489 95.567 104.489H78.1133C77.7513 103.606 77.5703 102.751 77.5703 101.93C77.5703 101.386 77.723 100.99 78.0228 100.741C78.3225 100.492 78.7637 100.367 79.3462 100.367H82.1459C82.2477 97.7965 82.2986 91.0695 82.2986 80.1807C82.2986 74.2974 82.2477 70.0676 82.1459 67.4968V67.4912ZM94.2719 84.7276C97.3599 84.7276 99.6335 84.1784 101.087 83.0685C102.541 81.9643 103.27 80.0448 103.27 77.3155C103.27 74.7221 102.586 72.7176 101.212 71.2907C99.8372 69.8637 97.7049 69.1503 94.8148 69.1503C93.6101 69.1503 92.5978 69.2522 91.7777 69.4504C91.6759 70.7188 91.625 74.3031 91.625 80.2033V84.7219H94.2719V84.7276Z" fill="white"/>
<path d="M129.539 73.8203C133.713 73.8203 136.739 74.7716 138.628 76.6685C140.512 78.5654 141.456 81.5665 141.456 85.6605C141.456 87.6876 141.055 89.1372 140.252 89.9979C139.448 90.8642 137.695 91.2946 134.986 91.2946H123.793C123.855 93.9276 124.444 95.9887 125.569 97.4836C126.695 98.9785 128.668 99.7259 131.496 99.7259C134.324 99.7259 137.113 98.9219 140.042 97.3194C141.083 98.3443 141.609 99.4485 141.609 100.632C141.609 102.24 140.433 103.361 138.074 103.99C135.716 104.624 132.956 104.941 129.783 104.941C124.325 104.941 120.366 103.837 117.894 101.628C115.428 99.4201 114.195 95.7735 114.195 90.6943C114.195 85.6152 115.587 81.2777 118.364 78.2993C121.141 75.3152 124.868 73.826 129.545 73.826L129.539 73.8203ZM128.335 79.0354C126.853 79.0354 125.716 79.6413 124.936 80.8417C124.155 82.0478 123.754 84.1429 123.731 87.1383H125.326C127.554 87.1383 129.251 87.0761 130.427 86.9402C131.598 86.8099 132.288 86.5891 132.486 86.2777C132.684 85.9662 132.786 85.4509 132.786 84.7262C132.786 82.9198 132.396 81.5156 131.615 80.5246C130.835 79.528 129.737 79.0354 128.335 79.0354Z" fill="white"/>
<path d="M146.029 76.1732C146.029 75.4484 146.295 74.9784 146.827 74.7576C147.358 74.5367 150.672 74.3329 156.769 74.1517C156.871 74.9954 156.871 76.1618 156.769 77.6454C159.298 76.1618 161.583 75.1539 163.63 74.633C165.677 74.112 167.482 73.8516 169.048 73.8516C169.772 73.8516 170.253 73.9365 170.49 74.1064C170.734 74.2762 170.852 74.6726 170.852 75.2955C170.852 76.3997 170.688 77.5491 170.355 78.7439C170.021 79.9387 169.614 80.7088 169.122 81.0485C168.63 81.3883 167.855 81.6431 166.792 81.8016C165.728 81.9602 165.112 81.9998 164.942 81.9205C164.772 81.8412 164.207 81.1674 163.24 79.9047C161.758 79.9047 160.615 80.4426 159.824 81.5185C159.032 82.5944 158.636 85.3576 158.636 89.8196C158.636 93.8966 158.687 97.4129 158.789 100.363H163.511C163.873 101.026 164.054 101.767 164.054 102.594C164.054 103.296 163.907 103.789 163.619 104.072C163.325 104.355 162.759 104.497 161.916 104.497H146.566C146.204 103.653 146.023 102.86 146.023 102.118C146.023 101.496 146.165 101.048 146.442 100.776C146.719 100.505 147.177 100.369 147.799 100.369H149.994C150.096 97.4186 150.147 93.9928 150.147 90.0971C150.147 84.4743 149.881 81.1504 149.349 80.1255C148.817 79.1006 147.89 78.591 146.566 78.591C146.204 77.7869 146.023 76.9829 146.023 76.1788L146.029 76.1732Z" fill="white"/>
<path d="M177.743 89.9709C177.743 80.8544 177.704 75.1297 177.624 72.7968C177.545 70.4695 177.392 68.8784 177.172 68.0233C176.951 67.1683 176.567 66.619 176.012 66.3642C175.458 66.1151 174.746 65.9905 173.863 65.9905C173.501 65.1695 173.32 64.3428 173.32 63.5217C173.32 62.7006 173.637 62.1401 174.27 61.9079C174.904 61.6757 176.923 61.5625 180.333 61.5625C182.46 61.5625 183.914 61.6474 184.7 61.8173C185.48 61.9872 185.927 62.3043 186.04 62.7686C186.153 63.2329 186.204 63.8841 186.204 64.7278V87.8984C186.204 93.6458 186.255 97.802 186.357 100.373H190.208C190.548 101.035 190.718 101.777 190.718 102.604C190.718 103.306 190.57 103.799 190.282 104.082C189.988 104.365 189.422 104.506 188.58 104.506H173.863C173.501 103.663 173.32 102.87 173.32 102.128C173.32 101.505 173.462 101.058 173.744 100.786C174.027 100.514 174.474 100.378 175.096 100.378H177.562C177.681 97.8077 177.743 94.3423 177.743 89.9822V89.9709Z" fill="white"/>
<path d="M212.809 102.169C211.305 102.934 209.591 103.613 207.663 104.202C205.734 104.791 203.919 105.091 202.216 105.091C199.309 105.091 197.177 104.417 195.819 103.075C194.468 101.728 193.789 99.842 193.789 97.4128C193.789 94.021 194.954 91.4956 197.279 89.8478C199.603 88.2 203.279 87.379 208.29 87.379H211.571C211.39 84.2873 210.881 82.1752 210.038 81.0371C209.195 79.8989 207.929 79.3327 206.249 79.3327C205.327 79.3327 204.32 79.4516 203.24 79.6951C202.539 81.0201 202.12 81.7222 201.99 81.8072C201.86 81.8921 201.17 82.0676 199.914 82.3507C198.659 82.6339 197.771 82.5433 197.25 82.079C196.73 81.6203 196.204 80.8049 195.672 79.6384C195.141 78.472 194.875 77.4867 194.875 76.6883C194.875 76.1844 195.079 75.7937 195.491 75.5162C195.904 75.2387 197.42 74.933 200.05 74.6102C202.68 74.2874 205.48 74.1289 208.443 74.1289C211.972 74.1289 214.744 74.7348 216.752 75.9522C218.759 77.164 219.76 79.5195 219.76 83.0189V91.0029C219.76 95.4423 219.953 98.1716 220.332 99.1852C220.711 100.199 221.395 100.595 222.379 100.374C222.679 100.935 222.832 101.49 222.832 102.033C222.832 102.939 222.294 103.624 221.22 104.1C220.145 104.57 218.697 104.808 216.87 104.808C216.067 104.808 215.434 104.706 214.976 104.508C214.518 104.31 213.794 103.534 212.809 102.186V102.169ZM211.577 92.1694C210.134 91.8693 208.669 91.7164 207.182 91.7164C205.497 91.7164 204.292 91.9995 203.568 92.5601C202.844 93.1207 202.488 94.1852 202.488 95.7537C202.488 97.1184 202.844 98.1489 203.557 98.8397C204.269 99.5306 205.304 99.8816 206.673 99.8816C207.759 99.8816 208.715 99.6495 209.546 99.1908C210.377 98.7265 210.926 98.0697 211.186 97.2146C211.446 96.3596 211.577 95.2498 211.577 93.8851V92.1694Z" fill="white"/>
<path d="M82.9797 119.574H86.3449C87.7532 119.574 88.7995 119.755 89.4895 120.123C90.1795 120.492 90.5189 121.052 90.5189 121.8C90.5189 122.836 89.8741 123.617 88.5789 124.155C90.1908 124.455 90.9996 125.191 90.9996 126.363C90.9996 127.162 90.632 127.819 89.9024 128.334C89.1728 128.849 87.8889 129.11 86.0564 129.11H82.7026C82.6177 128.912 82.5781 128.713 82.5781 128.521C82.5781 128.396 82.6121 128.306 82.6856 128.243C82.7535 128.187 82.8553 128.158 82.991 128.158H83.5C83.5283 127.558 83.5396 126.233 83.5396 124.189C83.5396 122.343 83.5283 121.126 83.5 120.531H82.7026C82.6177 120.327 82.5781 120.129 82.5781 119.942C82.5781 119.812 82.6121 119.716 82.6856 119.659C82.7591 119.603 82.8553 119.574 82.991 119.574H82.9797ZM85.6888 123.549C85.9207 123.595 86.2035 123.617 86.5372 123.617C87.0971 123.617 87.4987 123.515 87.7419 123.306C87.9851 123.096 88.1095 122.773 88.1095 122.326C88.1095 121.839 87.9794 121.488 87.7192 121.256C87.4591 121.024 87.0632 120.916 86.5428 120.916C86.2657 120.916 85.9886 120.939 85.7001 120.984C85.7001 121.426 85.6945 122.281 85.6945 123.549H85.6888ZM85.6888 124.829V126.465C85.6888 127.003 85.751 127.354 85.8755 127.519C85.9999 127.683 86.3449 127.768 86.9105 127.768C87.476 127.768 87.9228 127.66 88.1887 127.445C88.4545 127.23 88.5902 126.873 88.5902 126.38C88.5902 125.848 88.4262 125.446 88.1038 125.174C87.7815 124.903 87.2837 124.761 86.6051 124.761C86.3053 124.761 85.9999 124.784 85.6832 124.829H85.6888Z" fill="white"/>
<path d="M97.6941 119.574H101.512C101.591 119.744 101.631 119.92 101.631 120.09C101.631 120.259 101.602 120.373 101.54 120.435C101.478 120.497 101.382 120.531 101.246 120.531H100.567C100.545 121.126 100.533 122.111 100.539 123.481C100.539 126.001 100.55 127.558 100.573 128.153H101.506C101.585 128.323 101.625 128.493 101.625 128.668C101.625 128.832 101.597 128.946 101.534 129.008C101.472 129.07 101.376 129.104 101.24 129.104H97.4057C97.3208 128.9 97.2812 128.702 97.2812 128.51C97.2812 128.385 97.3152 128.294 97.3887 128.232C97.4622 128.17 97.5584 128.147 97.6941 128.147H98.3445C98.3672 127.553 98.3785 125.99 98.3785 123.47C98.3785 122.105 98.3615 121.126 98.3389 120.531H97.4113C97.3265 120.327 97.2869 120.129 97.2869 119.942C97.2869 119.812 97.3208 119.716 97.3944 119.659C97.4679 119.603 97.564 119.574 97.6998 119.574H97.6941Z" fill="white"/>
<path d="M111.897 119.434C113.09 119.434 113.882 119.502 114.273 119.643C114.663 119.785 114.855 120.056 114.855 120.458C114.855 120.861 114.714 121.195 114.431 121.5C113.356 121.013 112.423 120.776 111.631 120.776C111.105 120.776 110.743 120.866 110.534 121.047C110.325 121.229 110.229 121.495 110.229 121.834C110.229 122.242 110.359 122.548 110.613 122.752C110.868 122.956 111.388 123.165 112.163 123.392C113.141 123.646 113.894 123.969 114.42 124.36C114.946 124.751 115.223 125.39 115.245 126.274C115.245 127.282 114.883 128.024 114.159 128.51C113.436 128.997 112.384 129.241 110.998 129.241C109.991 129.241 109.25 129.167 108.775 129.02C108.3 128.873 108.062 128.573 108.062 128.131C108.062 127.74 108.227 127.395 108.549 127.089C109.612 127.627 110.613 127.899 111.541 127.899C112.152 127.899 112.576 127.82 112.819 127.661C113.062 127.497 113.181 127.231 113.181 126.863C113.181 126.427 112.994 126.087 112.615 125.843C112.236 125.6 111.62 125.356 110.755 125.107C109.833 124.858 109.171 124.518 108.769 124.082C108.368 123.646 108.164 123.086 108.164 122.401C108.164 121.466 108.498 120.736 109.16 120.215C109.821 119.694 110.738 119.434 111.897 119.434Z" fill="white"/>
<path d="M122.155 119.574H128.507C128.806 119.574 129.016 119.62 129.146 119.71C129.276 119.801 129.338 119.988 129.338 120.271C129.338 120.616 129.225 120.967 128.999 121.335C128.02 120.939 126.77 120.741 125.243 120.741H124.909C124.881 121.199 124.87 122.128 124.87 123.527H128.388C128.467 123.776 128.507 124.031 128.507 124.297C128.507 124.455 128.478 124.563 128.422 124.614C128.365 124.67 128.258 124.693 128.099 124.693H124.87C124.87 126.488 124.887 127.57 124.909 127.943H125.486C127.053 127.943 128.297 127.762 129.213 127.394C129.417 127.7 129.519 128.034 129.519 128.391C129.519 128.645 129.423 128.832 129.23 128.94C129.038 129.047 128.654 129.11 128.071 129.11H121.867C121.782 128.912 121.742 128.713 121.742 128.521C121.742 128.396 121.776 128.306 121.85 128.243C121.918 128.187 122.019 128.158 122.155 128.158H122.664C122.692 127.558 122.704 125.995 122.704 123.47C122.704 122.105 122.692 121.126 122.664 120.531H121.867C121.782 120.327 121.742 120.129 121.742 119.942C121.742 119.812 121.776 119.716 121.85 119.659C121.923 119.603 122.019 119.574 122.155 119.574Z" fill="white"/>
<path d="M139.018 128.153H140.031C140.11 128.323 140.149 128.493 140.149 128.668C140.149 128.832 140.121 128.946 140.059 129.008C139.997 129.07 139.901 129.104 139.77 129.104H135.851C135.766 128.9 135.727 128.702 135.727 128.51C135.727 128.385 135.76 128.294 135.834 128.232C135.908 128.17 136.004 128.147 136.139 128.147H136.79C136.812 127.553 136.824 125.99 136.824 123.47C136.824 122.105 136.812 121.126 136.79 120.531H135.862C135.783 120.327 135.744 120.129 135.744 119.942C135.744 119.812 135.777 119.716 135.845 119.659C135.913 119.603 136.015 119.574 136.151 119.574H139.77C141.224 119.574 142.259 119.778 142.881 120.18C143.503 120.588 143.814 121.233 143.814 122.122C143.814 123.351 143.056 124.206 141.535 124.676C141.914 124.835 142.242 125.078 142.502 125.412C142.762 125.746 143.045 126.211 143.339 126.811C143.633 127.411 143.871 127.779 144.063 127.926C144.25 128.074 144.527 128.147 144.883 128.147C145.008 128.56 144.996 128.849 144.844 129.008C144.691 129.166 144.301 129.246 143.679 129.246C142.955 129.246 142.451 129.166 142.174 129.013C141.897 128.861 141.648 128.385 141.422 127.587C141.201 126.794 140.958 126.205 140.698 125.82C140.438 125.435 140.087 125.242 139.635 125.242C139.392 125.242 139.177 125.265 138.996 125.31C138.996 126.698 139.013 127.643 139.03 128.147L139.018 128.153ZM138.984 124.11H139.55C140.149 124.11 140.608 123.997 140.93 123.77C141.252 123.544 141.405 123.187 141.405 122.689C141.405 122.049 141.247 121.596 140.936 121.324C140.619 121.052 140.223 120.916 139.737 120.916C139.442 120.916 139.205 120.939 139.018 120.984C138.996 121.279 138.984 122.111 138.984 123.476V124.104V124.11Z" fill="white"/>
<path d="M159.993 119.576H163.793C164.008 120.476 164.24 121.371 164.483 122.265C164.732 123.16 164.97 124.083 165.202 125.034C165.433 125.985 165.569 126.461 165.603 126.461C165.637 126.461 165.88 125.555 166.327 123.749C166.774 121.942 167.096 120.55 167.289 119.576H170.942C171.021 119.745 171.061 119.921 171.061 120.091C171.061 120.261 171.033 120.374 170.97 120.436C170.908 120.499 170.812 120.533 170.682 120.533H170.15C170.15 121.32 170.196 122.639 170.28 124.485C170.365 126.331 170.433 127.554 170.478 128.154H171.14C171.219 128.324 171.259 128.494 171.259 128.669C171.259 128.834 171.231 128.947 171.168 129.009C171.106 129.071 171.01 129.105 170.874 129.105H167.69C167.611 128.902 167.571 128.703 167.571 128.511C167.571 128.386 167.605 128.296 167.673 128.233C167.741 128.171 167.843 128.149 167.979 128.149H168.239C168.267 127.248 168.222 125.062 168.109 121.591C167.752 123.126 167.402 124.457 167.068 125.589C166.729 126.722 166.474 127.441 166.293 127.746C166.112 128.052 165.784 128.205 165.303 128.205C164.585 128.205 164.189 128.177 164.11 128.126C164.031 128.075 163.81 127.503 163.448 126.404C163.086 125.306 162.622 123.681 162.063 121.523C162.046 125.04 162.046 127.248 162.068 128.143H162.606C162.685 128.313 162.724 128.483 162.724 128.658C162.724 128.822 162.696 128.936 162.634 128.998C162.572 129.06 162.475 129.094 162.34 129.094H159.421C159.336 128.89 159.297 128.692 159.297 128.5C159.297 128.375 159.331 128.284 159.404 128.222C159.478 128.16 159.574 128.137 159.71 128.137H160.162C160.207 127.543 160.275 126.32 160.36 124.468C160.445 122.616 160.485 121.303 160.485 120.516H159.698C159.619 120.312 159.58 120.114 159.58 119.927C159.58 119.796 159.614 119.7 159.687 119.644C159.761 119.587 159.857 119.559 159.993 119.559V119.576Z" fill="white"/>
<path d="M177.638 124.785C177.638 122.967 178.063 121.625 178.905 120.747C179.748 119.87 180.902 119.434 182.361 119.434C183.735 119.434 184.782 119.756 185.494 120.396C186.207 121.036 186.563 122.203 186.563 123.901C186.563 125.719 186.139 127.061 185.296 127.939C184.454 128.816 183.277 129.252 181.778 129.252C180.438 129.252 179.414 128.935 178.702 128.29C177.989 127.65 177.633 126.483 177.633 124.785H177.638ZM180.037 124.105C180.037 125.6 180.223 126.608 180.602 127.123C180.981 127.644 181.507 127.905 182.18 127.905C182.853 127.905 183.396 127.65 183.701 127.146C184.007 126.642 184.16 125.781 184.16 124.569C184.16 123.035 183.973 122.016 183.6 121.517C183.226 121.019 182.7 120.77 182.022 120.77C181.343 120.77 180.806 121.025 180.5 121.529C180.195 122.033 180.042 122.893 180.042 124.105H180.037Z" fill="white"/>
<path d="M196.393 128.153H197.406C197.485 128.323 197.524 128.493 197.524 128.668C197.524 128.832 197.496 128.946 197.434 129.008C197.372 129.07 197.276 129.104 197.145 129.104H193.226C193.141 128.9 193.102 128.702 193.102 128.51C193.102 128.385 193.135 128.294 193.209 128.232C193.283 128.17 193.379 128.147 193.514 128.147H194.165C194.187 127.553 194.199 125.99 194.199 123.47C194.199 122.105 194.187 121.126 194.165 120.531H193.237C193.158 120.327 193.119 120.129 193.119 119.942C193.119 119.812 193.152 119.716 193.22 119.659C193.288 119.603 193.39 119.574 193.526 119.574H197.145C198.599 119.574 199.634 119.778 200.256 120.18C200.878 120.582 201.189 121.233 201.189 122.122C201.189 123.351 200.431 124.206 198.91 124.676C199.289 124.835 199.617 125.078 199.877 125.412C200.137 125.746 200.42 126.211 200.714 126.811C201.008 127.411 201.246 127.779 201.438 127.926C201.625 128.074 201.902 128.147 202.258 128.147C202.383 128.56 202.371 128.849 202.219 129.008C202.066 129.166 201.676 129.246 201.054 129.246C200.33 129.246 199.826 129.166 199.549 129.013C199.272 128.861 199.023 128.385 198.797 127.587C198.576 126.794 198.333 126.205 198.073 125.82C197.813 125.435 197.462 125.242 197.01 125.242C196.767 125.242 196.552 125.265 196.371 125.31C196.371 126.698 196.388 127.643 196.405 128.147L196.393 128.153ZM196.359 124.11H196.925C197.524 124.11 197.983 123.997 198.305 123.77C198.627 123.544 198.78 123.187 198.78 122.689C198.78 122.049 198.622 121.596 198.311 121.324C197.994 121.052 197.598 120.916 197.112 120.916C196.817 120.916 196.58 120.939 196.393 120.984C196.371 121.279 196.359 122.111 196.359 123.476V124.104V124.11Z" fill="white"/>
<path d="M212.593 119.443C213.368 119.443 213.809 119.471 213.91 119.522C214.012 119.573 214.47 120.796 215.285 123.192C216.099 125.587 216.687 127.24 217.049 128.158H217.706C217.785 128.328 217.824 128.497 217.824 128.673C217.824 128.837 217.796 128.95 217.734 129.013C217.672 129.075 217.575 129.109 217.44 129.109H213.877C213.797 128.905 213.758 128.707 213.758 128.514C213.758 128.39 213.792 128.299 213.865 128.237C213.939 128.175 214.035 128.152 214.171 128.152H214.476C214.408 127.818 214.227 127.15 213.939 126.147H210.981C210.721 127.127 210.557 127.795 210.494 128.152H211.156C211.235 128.322 211.275 128.492 211.275 128.667C211.275 128.831 211.247 128.945 211.184 129.007C211.122 129.069 211.026 129.103 210.896 129.103H207.853C207.774 128.899 207.734 128.701 207.734 128.509C207.734 128.384 207.768 128.294 207.836 128.231C207.904 128.169 208.006 128.146 208.142 128.146H208.521C208.849 127.246 209.352 125.791 210.019 123.769C210.687 121.753 211.128 120.525 211.348 120.089C211.569 119.653 211.982 119.438 212.598 119.438L212.593 119.443ZM211.286 124.981H213.594C212.881 122.637 212.485 121.459 212.395 121.459C212.304 121.459 211.937 122.631 211.281 124.981H211.286Z" fill="white"/>
<path d="M181.712 22.8989C181.712 22.8989 181.683 22.8592 181.666 22.8366C181.649 22.8139 181.638 22.7969 181.621 22.7743C180.903 21.8343 180.184 21.0586 179.478 20.4301C179.059 18.6181 177.73 16.7042 175.219 14.745C175.219 14.745 175.179 14.7167 175.156 14.6997C175.134 14.6827 175.117 14.6714 175.1 14.6544C173.89 13.7484 172.764 13.0915 171.712 12.6612C171.164 10.2207 169.06 8.02367 164.767 6.42687C164.767 6.42687 164.716 6.40988 164.693 6.39856C164.665 6.38723 164.642 6.38157 164.62 6.37024C162.408 5.59449 160.536 5.30571 158.97 5.41329C157.544 3.39747 154.796 2.11776 150.294 2.07812C150.294 2.07812 150.237 2.07812 150.209 2.07812C150.181 2.07812 150.152 2.07812 150.124 2.07812C145.622 2.11776 142.873 3.39747 141.448 5.41329C139.881 5.30571 138.009 5.59449 135.798 6.37024C135.798 6.37024 135.747 6.38723 135.724 6.39856C135.696 6.40988 135.673 6.41554 135.651 6.42687C131.358 8.01801 129.254 10.2207 128.706 12.6612C127.654 13.0915 126.528 13.7427 125.318 14.6544C125.318 14.6544 125.278 14.6827 125.261 14.6997C125.239 14.7167 125.222 14.728 125.199 14.745C122.682 16.7042 121.359 18.6181 120.94 20.4301C120.233 21.0586 119.515 21.8343 118.797 22.7743C118.797 22.7743 118.768 22.8139 118.751 22.8309C118.734 22.8536 118.723 22.8706 118.706 22.8875C113.927 29.354 116.348 33.5386 121.381 35.6223C124.639 36.97 130.402 39.2463 136.041 41.4546C129.673 42.6607 125.51 44.6482 125.51 46.9076C125.51 50.5825 136.573 53.5666 150.22 53.5666C163.868 53.5666 174.93 50.5881 174.93 46.9076C174.93 44.6539 170.762 42.6607 164.399 41.4546C170.032 39.252 175.796 36.97 179.059 35.6223C184.093 33.5386 186.508 29.3597 181.734 22.8932L181.712 22.8989Z" fill="#051C2C"/>
<path d="M150.202 48.9913C154.051 48.9913 157.17 45.868 157.17 42.0152C157.17 38.1624 154.051 35.0391 150.202 35.0391C146.354 35.0391 143.234 38.1624 143.234 42.0152C143.234 45.868 146.354 48.9913 150.202 48.9913Z" fill="white"/>
<path d="M183.383 21.6588L183.372 21.6475L183.27 21.5116C182.654 20.7018 181.992 19.9601 181.308 19.3032C180.618 17.1458 179.011 15.0734 176.523 13.1312C176.483 13.0972 176.438 13.0632 176.393 13.0292C176.376 13.0179 176.359 13.0066 176.348 12.9896C175.369 12.2535 174.391 11.6363 173.429 11.1606C172.36 8.28413 169.691 6.03615 165.505 4.48464C165.46 4.46765 165.409 4.45067 165.364 4.43368C165.341 4.42236 165.319 4.41669 165.296 4.40537C163.362 3.72588 161.563 3.35782 159.923 3.31818C157.887 1.15514 154.652 0.039637 150.291 0C150.246 0 150.201 0 150.156 0C150.139 0 150.116 0 150.099 0C145.744 0.0339746 142.509 1.15514 140.467 3.32951C138.816 3.37481 136.978 3.74853 134.981 4.45633L134.896 4.4903C130.694 6.05313 128.03 8.30112 126.961 11.1776C125.983 11.6646 124.976 12.2988 123.941 13.0802L123.89 13.1198C121.385 15.0734 119.773 17.1572 119.083 19.3202C118.387 19.9884 117.708 20.7471 117.064 21.5965L117.007 21.6758C114.411 25.1978 113.5 28.4537 114.309 31.3529C115.05 34.0255 117.211 36.1716 120.57 37.5589C122.51 38.3629 125.457 39.5464 129.359 41.0866C125.406 42.5701 123.409 44.5237 123.409 46.9189C123.409 53.8214 140.252 55.6617 150.201 55.6617C160.149 55.6617 176.992 53.8214 176.992 46.9189C176.992 44.5237 174.996 42.5701 171.042 41.0866C174.968 39.5351 177.914 38.3573 179.832 37.5589C183.185 36.1716 185.346 34.0255 186.087 31.3529C186.896 28.448 185.985 25.1865 183.378 21.6588H183.383ZM183.525 30.6337C182.874 32.9723 180.606 34.3483 178.814 35.0844C174.142 37.0209 164.199 40.9054 156.948 43.7253C156.818 44.2405 156.631 44.7332 156.4 45.1918C158.82 44.2519 161.603 43.1703 164.425 42.0662C170.596 43.2609 174.328 45.1465 174.328 46.9075C174.328 49.7784 164.42 52.9833 150.201 52.9833C135.982 52.9833 126.073 49.784 126.073 46.9075C126.073 45.1465 129.812 43.2609 135.977 42.0662C138.804 43.1703 141.587 44.2575 144.002 45.1975C143.765 44.7332 143.578 44.2462 143.448 43.7309C136.22 40.9224 126.316 37.0493 121.583 35.0901C119.79 34.3483 117.522 32.9723 116.871 30.6394C116.294 28.5669 117.064 26.0811 119.151 23.2556L119.292 23.0631C119.592 22.6724 119.897 22.31 120.203 21.9702C120.293 24.1672 121.583 26.3133 123.964 28.1876C128.075 31.4151 137.017 38.1534 143.278 42.8532C143.244 42.5814 143.222 42.304 143.222 42.0209C143.222 41.8057 143.233 41.5905 143.256 41.3754C137.051 36.7152 128.63 30.3676 124.682 27.2702C123.161 26.0755 121.345 24.1389 121.345 21.7097C121.345 19.558 122.759 17.3723 125.53 15.2093L125.581 15.1696L125.638 15.1243C126.441 14.5185 127.216 14.0372 127.962 13.6521C127.86 15.583 128.556 17.6951 130.032 19.8638C132.951 24.1333 138.991 32.6382 143.759 39.3086C143.929 38.9065 144.138 38.5215 144.375 38.1648C139.664 31.568 133.839 23.3688 130.994 19.2069C129.806 17.4686 128.562 14.8639 129.359 12.3498C130.066 10.1301 132.221 8.33509 135.762 7.01008L135.937 6.9478L135.965 6.93647C137.617 6.35324 139.099 6.05313 140.416 6.00783C139.494 7.88776 139.37 10.283 140.083 13.0519C141.378 18.0801 144.194 28.1932 146.428 36.1546C146.762 35.9394 147.113 35.7469 147.486 35.594C145.263 27.6836 142.498 17.7347 141.214 12.7631C140.677 10.6737 140.377 7.73487 142.023 5.59448C143.482 3.6919 146.191 2.7123 150.184 2.67833H150.257C154.16 2.7123 156.875 3.6919 158.334 5.59448C159.98 7.74054 159.68 10.6793 159.143 12.7631C157.859 17.7404 155.11 27.627 152.87 35.594C153.238 35.7469 153.589 35.9394 153.928 36.1546C156.179 28.1423 158.973 18.0971 160.274 13.0576C160.986 10.2886 160.862 7.88776 159.94 6.0135C161.264 6.06446 162.757 6.37023 164.442 6.96478L164.578 7.01575C168.13 8.34075 170.29 10.1414 170.997 12.3611C171.8 14.8752 170.55 17.4799 169.363 19.2183C166.49 23.4255 160.647 31.653 155.987 38.1761C156.224 38.5385 156.434 38.9179 156.603 39.3199C161.32 32.7232 167.383 24.1899 170.33 19.8751C171.806 17.7121 172.502 15.6 172.4 13.6634C173.163 14.0598 173.961 14.5638 174.798 15.1866L174.815 15.198L174.837 15.2149C177.609 17.3723 179.023 19.5637 179.023 21.7154C179.028 24.1389 177.213 26.0755 175.692 27.2702C171.738 30.3733 163.322 36.7208 157.118 41.381C157.135 41.5905 157.152 41.8057 157.152 42.0265C157.152 42.3097 157.129 42.5871 157.095 42.8589C163.356 38.1648 172.292 31.4265 176.41 28.1932C178.791 26.3246 180.075 24.1842 180.171 21.9872C180.51 22.3609 180.85 22.7686 181.189 23.2103L181.212 23.2443V23.2556C183.31 26.0868 184.079 28.5726 183.502 30.6451L183.525 30.6337Z" fill="#8A6E4B"/>
<path d="M232.936 23.9679L232.421 23.2148H182.56L184.409 26.4707H230.498C242.03 43.5656 248.122 63.6446 248.122 84.6069C248.122 105.569 242.03 125.648 230.498 142.743H69.9134C58.3813 125.648 52.29 105.569 52.29 84.6069C52.29 63.6446 58.3813 43.5656 69.9134 26.4707H116.116L117.716 23.2148H67.9848L67.4701 23.9679C55.248 41.748 48.7891 62.7159 48.7891 84.6069C48.7891 106.498 55.248 127.46 67.4701 145.246L67.9848 145.999H232.416L232.93 145.246C245.152 127.466 251.611 106.498 251.611 84.6069C251.611 62.7159 245.152 41.748 232.93 23.9679H232.936Z" fill="#8A6E4B"/>
</g>
<defs>
<clipPath id="clip0_6254_24811">
<rect width="300" height="146" fill="white"/>
</clipPath>
</defs>
</svg>
