<svg width="675" height="569" viewBox="0 0 675 569" fill="none" xmlns="http://www.w3.org/2000/svg">
<g opacity="0.22">
<path d="M268.236 461.388C303.566 474.917 343.174 457.245 356.703 421.915C370.233 386.586 352.56 346.978 317.231 333.448C281.901 319.919 242.293 337.591 228.764 372.921C215.234 408.25 232.907 447.858 268.236 461.388Z" fill="#62799B"/>
<path d="M667.717 327.463L667.653 327.32L667.196 325.72C664.382 316.152 660.914 307.047 656.943 298.639C658.173 276.491 650.71 251.904 634.704 225.411C634.46 224.961 634.165 224.492 633.869 224.023C633.753 223.86 633.637 223.696 633.593 223.501C627.204 213.337 620.398 204.259 613.252 196.536C613.528 166.482 596.934 136.558 564.011 107.683C563.656 107.369 563.249 107.035 562.894 106.721C562.726 106.538 562.538 106.407 562.371 106.224C547.023 93.2221 531.829 83.5446 516.937 77.4259C505.851 50.5017 480.109 28.9481 440.285 13.2819C439.87 13.1231 439.455 12.9643 439.041 12.8055C438.885 12.7459 438.678 12.6666 438.522 12.607C398.492 -2.36628 364.918 -3.46847 338.593 9.24787C323.299 3.86608 305.145 0.832275 284.369 0.297461L283.473 0.310358C239.489 -0.147517 207.204 11.0585 187.335 33.6091C176.663 34.6279 165.216 36.8936 152.995 40.4063L152.389 40.5901C122.587 49.6595 100.518 63.056 86.6204 80.4128C77.9054 84.0809 69.0285 88.6369 60.1455 94.1405L59.3496 94.6669C23.2257 117.761 3.47979 144.336 0.740144 173.684C-1.82837 200.722 10.457 227.928 36.3878 252.403C51.3509 266.564 74.2118 287.726 104.583 315.505C63.1574 315.196 38.02 326.052 29.6329 347.953C5.46316 411.068 153.377 487.006 244.55 521.921C335.724 556.836 496.526 599.12 520.695 536.005C529.083 514.104 517.626 489.235 486.59 461.795C527.995 461.383 559.123 460.956 579.49 460.384C615.085 459.47 642.4 447.429 658.548 425.591C676.132 401.868 679.208 368.85 667.665 327.443L667.717 327.463ZM637.586 410.024C623.437 429.124 597.834 433.747 578.825 434.185C529.23 435.497 424.507 436.12 348.183 436.458C345.187 440.713 341.751 444.562 338.02 447.942C363.496 447.843 392.785 447.72 422.516 447.528C474.881 480.109 502.488 510.45 496.322 526.553C486.269 552.803 384.236 547.332 253.929 497.431C123.622 447.53 44.0134 383.501 54.0858 357.199C60.2522 341.096 101.116 336.975 161.797 347.686C183.847 367.707 205.542 387.414 224.383 404.484C223.832 399.405 223.827 394.297 224.439 389.129C168.031 338.081 90.8344 267.91 54.3107 233.382C40.4772 220.307 24.5104 199.766 26.7186 176.152C28.6885 155.177 44.4421 135.147 73.4623 116.635L75.4322 115.371C79.5475 112.851 83.6154 110.609 87.604 108.574C80.7402 128.981 85.0434 153.129 100.302 178.624C126.683 222.566 185.035 315.561 225.957 380.509C226.598 377.904 227.362 375.288 228.354 372.699C229.107 370.732 229.964 368.804 230.925 366.916C190.382 302.529 135.43 214.933 110.097 172.757C100.337 156.493 90.4803 132.414 98.9863 110.202C106.521 90.5271 127.132 75.5039 160.104 65.4517L160.71 65.2679L161.387 65.0522C170.868 62.3308 179.655 60.6492 187.845 59.7485C180.151 77.0468 179.131 98.8007 185.065 123.812C196.861 173.093 222.437 272.059 242.775 349.784C245.738 346.703 249.004 343.917 252.43 341.489C232.352 264.636 207.675 169.219 196.177 121.18C191.379 101.116 189.096 72.9326 205.208 52.7428C219.46 34.9279 245.493 26.0775 282.58 26.3876L284.405 26.4334L284.704 26.4291C301.881 26.8921 316.512 29.3485 328.748 33.5592C313.716 47.5134 304.189 68.9779 301.024 96.7973C295.287 147.32 285.688 249.676 278.284 330.314C282.096 329.517 285.983 328.988 289.94 328.9C297.268 248.768 306.759 148.092 312.402 98.1266C314.794 77.1356 322.338 49.2119 344.916 35.4168C364.951 23.1412 393.209 23.6918 429.921 37.3947L430.595 37.6528C466.241 51.6594 487.69 70.1443 494.401 92.6621C501.97 118.061 488.932 143.881 476.711 161.049C447.517 202.054 387.707 282.808 339.284 347.796C342.118 350.484 344.658 353.475 347.014 356.634C395.699 291.271 456.479 209.226 486.047 167.711C502.273 144.894 509.54 122.504 507.654 102.131C519.605 107.241 532.218 115.278 545.582 126.629L546.647 127.571C574.559 152.152 588.054 176.2 586.76 198.977C585.317 224.784 564.742 244.214 547.77 255.941C506.707 284.327 424.354 339.053 358.803 382.343C359.711 386.49 360.3 390.694 360.447 394.965C426.775 351.201 512.22 294.453 554.333 265.341C575.435 250.743 589.207 233.873 595.055 215.808C600.664 222.112 606.208 229.519 611.698 238.152L611.814 238.315L611.962 238.55C629.805 268.002 635.09 293.002 627.556 312.677C619.121 334.857 595.702 346.192 577.576 351.778C530.479 366.276 431.125 394.781 357.947 415.618C357.369 417.593 356.771 419.62 355.997 421.64C355.006 424.228 353.827 426.686 352.565 429.052C426.38 408.103 531.871 377.852 580.926 362.738C609.291 354.008 628.552 338.943 637.126 319.191C638.927 323.8 640.61 328.718 642.173 333.948L642.262 334.338L642.222 334.441C651.538 367.693 649.883 393.123 637.339 410.048L637.586 410.024Z" fill="#316A8B"/>
</g>
</svg>
