<svg width="99" height="48" viewBox="0 0 99 48" fill="none" xmlns="http://www.w3.org/2000/svg">
<g clip-path="url(#clip0_806_14240)">
<path d="M30.2901 32.9973C30.2639 32.3569 30.2471 31.1816 30.2397 29.4714H30.7175C33.0928 29.4714 34.8174 29.0568 35.8912 28.2278C36.965 27.3988 37.5013 26.2582 37.5 24.8061C37.5 23.3926 37.0564 22.3774 36.1693 21.7605C35.2821 21.1437 33.5538 20.8335 30.9844 20.8297H26.1989C26.0443 20.8189 25.8909 20.8631 25.7659 20.9545C25.7142 21.0067 25.6745 21.0696 25.6497 21.1387C25.6249 21.2079 25.6155 21.2816 25.6222 21.3547C25.6261 21.6402 25.6837 21.9225 25.792 22.1868H27.1116C27.1452 23.032 27.162 24.422 27.162 26.3569C27.162 29.9374 27.1452 32.1496 27.1116 32.9935H26.1896C26.0332 32.9825 25.878 33.0267 25.751 33.1183C25.6985 33.1682 25.6579 33.2292 25.6324 33.2969C25.6069 33.3646 25.597 33.4372 25.6035 33.5092C25.6107 33.7991 25.6741 34.0848 25.7902 34.3507H31.5462C31.6216 34.358 31.6978 34.3495 31.7698 34.3258C31.8418 34.3021 31.908 34.2636 31.9642 34.2129C32.0646 34.0718 32.1103 33.8992 32.093 33.727C32.0923 33.4731 32.035 33.2226 31.925 32.9935L30.2901 32.9973ZM30.2397 26.3718C30.2397 24.4295 30.2565 23.2505 30.2901 22.8347C30.6192 22.7632 30.9555 22.7301 31.2923 22.736C32.2467 22.736 32.9503 22.9706 33.4032 23.4397C33.8562 23.9088 34.0826 24.5691 34.0826 25.4205C34.0826 26.3178 33.8431 26.9482 33.364 27.3119C32.885 27.6755 32.1353 27.8573 31.115 27.8573H30.2397V26.3718Z" fill="#FF0000"/>
<path d="M46.7321 33.0842C46.7255 32.8771 46.6764 32.6737 46.5878 32.4863C46.4992 32.299 46.373 32.1318 46.217 31.9951C45.3594 32.4931 44.389 32.7654 43.3968 32.7863C42.4636 32.7863 41.8104 32.5424 41.4409 32.0416C41.0713 31.5409 40.8809 30.8707 40.8529 30.0069H44.5484C45.4424 30.0069 46.021 29.8635 46.2861 29.5806C46.5511 29.2976 46.6836 28.821 46.6836 28.1546C46.6836 26.8068 46.3725 25.8207 45.7504 25.1965C45.1283 24.5722 44.1291 24.2619 42.7529 24.2657C41.21 24.2657 39.9801 24.7559 39.063 25.7363C38.146 26.7168 37.6875 28.0752 37.6875 29.8114C37.6875 31.4832 38.095 32.682 38.91 33.4081C39.725 34.1341 41.0315 34.4971 42.8295 34.4971C43.7513 34.5119 44.6711 34.4068 45.5656 34.1844C46.3433 33.9771 46.7321 33.6091 46.7321 33.0804V33.0842ZM41.2318 26.5778C41.3485 26.3881 41.5138 26.2329 41.7106 26.1282C41.9075 26.0235 42.1287 25.9731 42.3517 25.9821C42.5581 25.9725 42.7638 26.0119 42.952 26.097C43.1402 26.1821 43.3054 26.3105 43.4342 26.4717C43.6917 26.7993 43.8205 27.2604 43.8205 27.8549C43.8347 28.0307 43.8005 28.2071 43.7216 28.3649C43.6563 28.4673 43.4286 28.5399 43.0422 28.5828C42.4837 28.6323 41.9231 28.6534 41.3625 28.6461H40.8361C40.8361 27.6631 40.9686 26.9737 41.2337 26.5778" fill="#FF0000"/>
<path d="M53.9955 34.2129C54.0504 34.1454 54.0914 34.0677 54.116 33.9843C54.1407 33.9009 54.1486 33.8135 54.1392 33.7271C54.1435 33.4715 54.0825 33.2191 53.9619 32.9936H52.4016C52.3705 32.0243 52.3543 30.8689 52.3531 29.5272C52.3531 28.0603 52.4837 27.1506 52.745 26.7981C52.873 26.6241 53.0424 26.4845 53.2378 26.3919C53.4333 26.2993 53.6487 26.2566 53.8649 26.2675C54.0272 26.5084 54.2149 26.7312 54.4248 26.9321C54.6296 26.9533 54.8365 26.9401 55.037 26.8931C55.3081 26.8663 55.5703 26.7819 55.8059 26.6455C55.9683 26.5319 56.1046 26.2731 56.2128 25.8878C56.3193 25.5185 56.3745 25.1364 56.377 24.7522C56.377 24.5474 56.3379 24.4171 56.2576 24.3612C56.1094 24.291 55.945 24.262 55.7817 24.2775C55.1773 24.2896 54.5768 24.3759 53.9936 24.5344C53.197 24.7594 52.4352 25.0927 51.7297 25.5248C51.7639 25.1426 51.7639 24.7583 51.7297 24.3761C49.7202 24.4357 48.6283 24.5009 48.4541 24.5716C48.366 24.6108 48.2929 24.6772 48.2455 24.761C48.1981 24.8448 48.179 24.9416 48.191 25.037C48.1955 25.3111 48.2592 25.5809 48.3776 25.8282C48.5637 25.8128 48.7502 25.8527 48.9136 25.9428C49.077 26.0329 49.21 26.1692 49.2959 26.3346C49.4713 26.6721 49.559 27.7649 49.559 29.6129C49.559 30.8937 49.5429 32.0193 49.5105 32.9899H48.7845C48.624 32.9752 48.4641 33.0232 48.3384 33.1239C48.2866 33.1843 48.2475 33.2545 48.2234 33.3303C48.1994 33.4061 48.1909 33.4859 48.1984 33.5651C48.2066 33.8357 48.2702 34.1017 48.3851 34.347H53.4505C53.6477 34.3703 53.8467 34.3213 54.0104 34.2092" fill="#FF0000"/>
<path d="M61.4999 32.996C61.4663 32.1508 61.4501 30.7856 61.4514 28.9004V21.2789C61.4572 21.0628 61.4384 20.8467 61.3954 20.6348C61.3599 20.4822 61.2087 20.3779 60.9549 20.3221C60.4781 20.2513 59.9959 20.2233 59.514 20.2383C58.3942 20.2383 57.7223 20.2774 57.5133 20.3519C57.409 20.3925 57.3215 20.4669 57.2646 20.5631C57.2078 20.6593 57.1849 20.7717 57.1997 20.8824C57.2039 21.1631 57.2675 21.4396 57.3863 21.6941C57.6296 21.6849 57.872 21.7274 58.0974 21.8188C58.1968 21.8754 58.2819 21.9538 58.3466 22.0479C58.4112 22.142 58.4537 22.2496 58.4707 22.3624C58.5699 22.8803 58.6199 23.4064 58.62 23.9336C58.6474 24.6981 58.6611 26.5802 58.6611 29.5799C58.6611 31.0121 58.6412 32.1508 58.6014 32.996H57.7858C57.6253 32.9817 57.4655 33.0297 57.3397 33.13C57.2878 33.1904 57.2487 33.2606 57.2247 33.3364C57.2006 33.4122 57.1921 33.4921 57.1997 33.5712C57.2079 33.8418 57.2714 34.1079 57.3863 34.3531H62.239C62.4362 34.3757 62.6349 34.3268 62.7989 34.2153C62.9091 34.0786 62.9607 33.904 62.9426 33.7295C62.9467 33.4748 62.8884 33.2231 62.7728 32.996H61.4999Z" fill="#FF0000"/>
<path d="M72.7103 32.6032C72.5859 32.2693 72.5237 31.3732 72.5237 29.915V27.2901C72.5237 26.1396 72.1927 25.3652 71.5307 24.9668C70.8688 24.5684 69.9555 24.3686 68.7909 24.3673C67.8646 24.3639 66.939 24.4168 66.0192 24.5256C65.1514 24.6317 64.6512 24.7304 64.5149 24.8234C64.4502 24.8644 64.3974 24.9215 64.3617 24.9891C64.326 25.0567 64.3087 25.1324 64.3115 25.2088C64.3305 25.5474 64.4202 25.8784 64.5746 26.1806C64.6943 26.4792 64.8712 26.7517 65.0954 26.9829C65.2683 27.1343 65.5613 27.1641 65.9744 27.0723C66.207 27.027 66.436 26.9648 66.6594 26.8861C66.8206 26.6695 66.9588 26.4368 67.0719 26.1917C67.3976 26.1167 67.7305 26.0767 68.0648 26.0726C68.3034 26.0565 68.5424 26.099 68.7607 26.1964C68.979 26.2937 69.1701 26.443 69.3172 26.6311C69.5959 27.0034 69.7645 27.6984 69.823 28.7161H68.7405C67.0856 28.7161 65.8743 28.9866 65.1066 29.5278C64.3388 30.0689 63.9544 30.8991 63.9531 32.0186C63.9531 32.8166 64.1765 33.4372 64.6232 33.8802C65.0699 34.3233 65.7729 34.5448 66.7322 34.5448C67.3425 34.5368 67.9483 34.4383 68.5296 34.2525C69.1134 34.0775 69.6815 33.8539 70.228 33.5842C70.5528 34.0254 70.7879 34.2805 70.9428 34.3456C71.1431 34.4201 71.3564 34.4536 71.5699 34.4443C72.0584 34.4642 72.5459 34.3856 73.0034 34.2135C73.358 34.0571 73.5353 33.8411 73.5353 33.534C73.5315 33.3426 73.4802 33.1552 73.386 32.9885C73.0612 33.0611 72.8372 32.9308 72.7103 32.5976V32.6032ZM69.8211 30.8588C69.8313 31.228 69.788 31.5967 69.6923 31.9534C69.65 32.0922 69.5802 32.2211 69.4873 32.3327C69.3944 32.4442 69.2801 32.5362 69.1511 32.6032C68.8596 32.7583 68.5332 32.8365 68.2029 32.8303C67.8285 32.8569 67.4586 32.7344 67.1745 32.4896C67.0497 32.354 66.9539 32.1944 66.8929 32.0206C66.8319 31.8468 66.8071 31.6624 66.8199 31.4787C66.8199 30.9637 66.9394 30.6137 67.1783 30.4288C67.4172 30.2439 67.8141 30.1514 68.369 30.1514C68.8563 30.1513 69.3422 30.2012 69.8193 30.3003L69.8211 30.8588Z" fill="#FF0000"/>
<path d="M29.2325 40.8175C29.6581 40.6425 29.8708 40.3838 29.8708 40.0449C29.8758 39.929 29.8464 39.8142 29.7863 39.7149C29.7262 39.6156 29.6381 39.5361 29.533 39.4865C29.2064 39.3446 28.851 39.2809 28.4953 39.3003H27.3848C27.349 39.2977 27.3133 39.3075 27.284 39.3282C27.272 39.3404 27.2629 39.3551 27.2571 39.3711C27.2513 39.3872 27.249 39.4043 27.2504 39.4213C27.2521 39.4854 27.266 39.5486 27.2915 39.6075H27.5528C27.5528 39.7936 27.5677 40.205 27.5677 40.8101C27.5677 41.4827 27.5627 41.9171 27.5528 42.1132H27.3848C27.349 42.1106 27.3133 42.1204 27.284 42.1411C27.2722 42.153 27.2631 42.1674 27.2573 42.1831C27.2515 42.1988 27.2491 42.2156 27.2504 42.2323C27.2509 42.2996 27.2649 42.366 27.2915 42.4278H28.3982C29.003 42.4278 29.426 42.3428 29.6674 42.1728C29.7801 42.1058 29.8736 42.011 29.939 41.8975C30.0043 41.7841 30.0394 41.6558 30.0407 41.5249C30.0407 41.1396 29.7738 40.8994 29.2419 40.7989L29.2325 40.8175ZM28.29 39.7564C28.382 39.7418 28.475 39.7343 28.5681 39.734C28.7073 39.7234 28.8458 39.7631 28.9582 39.8457C29.0041 39.8915 29.0394 39.9466 29.0617 40.0074C29.0839 40.0682 29.0926 40.1331 29.087 40.1976C29.0921 40.2569 29.0839 40.3166 29.0629 40.3724C29.042 40.4281 29.0087 40.4784 28.9656 40.5197C28.849 40.5987 28.7085 40.6349 28.5681 40.622C28.4743 40.6234 28.3805 40.6159 28.2881 40.5997C28.2881 40.1827 28.2881 39.9016 28.2881 39.7564H28.29ZM29.1112 41.8805C28.9862 41.9614 28.8379 41.9987 28.6894 41.9866C28.5028 41.9866 28.3889 41.9587 28.3479 41.9047C28.2956 41.7965 28.2743 41.6761 28.2863 41.5566V41.0204C28.3869 41.0043 28.4886 40.9962 28.5905 40.9962C28.7656 40.9823 28.9401 41.0304 29.0832 41.1321C29.138 41.1821 29.1808 41.2436 29.2086 41.3122C29.2364 41.3808 29.2484 41.4548 29.2437 41.5286C29.2498 41.5935 29.241 41.6588 29.2181 41.7198C29.1951 41.7807 29.1586 41.8357 29.1112 41.8805Z" fill="#FF0000"/>
<path d="M33.4104 39.6275C33.4279 39.6289 33.4454 39.6268 33.4621 39.6214C33.4788 39.616 33.4942 39.6073 33.5074 39.5959C33.5306 39.5628 33.5412 39.5225 33.5373 39.4823C33.5368 39.4237 33.5234 39.3659 33.4981 39.3129H32.2383C32.2025 39.3103 32.1668 39.3202 32.1375 39.3408C32.1249 39.3527 32.1151 39.3672 32.109 39.3833C32.1028 39.3994 32.1005 39.4167 32.102 39.4339C32.1045 39.4979 32.1184 39.561 32.1431 39.6201H32.4492C32.4492 39.8062 32.4622 40.1376 32.4641 40.5863C32.4641 41.4165 32.4641 41.9285 32.4529 42.1258H32.2383C32.2025 42.1232 32.1668 42.1331 32.1375 42.1537C32.125 42.1653 32.1154 42.1795 32.1092 42.1953C32.1031 42.2111 32.1006 42.2281 32.102 42.245C32.1046 42.309 32.1185 42.372 32.1431 42.4311H33.4104C33.4279 42.4325 33.4454 42.4304 33.4621 42.425C33.4788 42.4196 33.4942 42.4109 33.5074 42.3995C33.5294 42.3658 33.5399 42.326 33.5373 42.2859C33.5372 42.2272 33.5238 42.1693 33.4981 42.1165H33.1883C33.1808 41.9192 33.1771 41.4066 33.1771 40.5788C33.1771 40.1302 33.1771 39.8062 33.1864 39.6108L33.4104 39.6275Z" fill="#FF0000"/>
<path d="M37.7579 40.8867C37.5309 40.7356 37.2777 40.6277 37.0113 40.5684C36.8303 40.5264 36.6575 40.4546 36.5 40.3562C36.4565 40.3198 36.4224 40.2736 36.4003 40.2215C36.3783 40.1694 36.3689 40.1129 36.373 40.0564C36.3698 40.0083 36.3771 39.96 36.3945 39.915C36.412 39.87 36.439 39.8293 36.4738 39.7958C36.5807 39.7256 36.7085 39.6941 36.8359 39.7065C37.1602 39.7202 37.4781 39.8014 37.7691 39.9447C37.8586 39.8538 37.9088 39.7315 37.9091 39.6041C37.913 39.5447 37.8967 39.4857 37.8628 39.4368C37.8289 39.3878 37.7795 39.3516 37.7224 39.3341C37.4656 39.2754 37.2018 39.2522 36.9386 39.2653C36.612 39.2431 36.2877 39.3338 36.0203 39.5222C35.9121 39.6072 35.8258 39.7167 35.7687 39.8417C35.7115 39.9667 35.6852 40.1035 35.6918 40.2407C35.6825 40.4458 35.7542 40.6463 35.8915 40.7992C36.0742 40.9702 36.3011 41.0869 36.5466 41.1362C36.7611 41.1895 36.9676 41.2709 37.1607 41.3782C37.2193 41.4119 37.2677 41.4609 37.3005 41.5199C37.3334 41.579 37.3496 41.6458 37.3473 41.7133C37.3515 41.7636 37.3427 41.8141 37.3218 41.86C37.3009 41.906 37.2685 41.9458 37.2278 41.9758C37.0969 42.0396 36.9513 42.0672 36.806 42.0558C36.4603 42.0458 36.1219 41.9539 35.8187 41.7878C35.7686 41.8299 35.7282 41.8823 35.7002 41.9414C35.6722 42.0005 35.6572 42.0649 35.6563 42.1303C35.6547 42.1991 35.6776 42.2663 35.721 42.3198C35.7645 42.3734 35.8255 42.4098 35.8934 42.4226C36.1334 42.4802 36.3802 42.5046 36.6269 42.4952C36.9904 42.5179 37.3528 42.4351 37.6702 42.2569C37.7901 42.175 37.8864 42.0631 37.9493 41.9324C38.0122 41.8017 38.0395 41.6568 38.0285 41.5122C38.0357 41.3934 38.0148 41.2745 37.9675 41.1652C37.9202 41.0559 37.8477 40.9592 37.756 40.883" fill="#FF0000"/>
<path d="M41.4119 42.071H41.2253C41.2253 41.9482 41.2122 41.5926 41.2104 41.0025H42.2761C42.3135 41.0072 42.3514 40.9979 42.3825 40.9764C42.4051 40.9466 42.4151 40.9092 42.4105 40.8722C42.4107 40.7862 42.3974 40.7008 42.3713 40.619H41.2104C41.2104 40.1592 41.2104 39.8539 41.2253 39.7031H41.3354C41.7566 39.6893 42.1765 39.7556 42.5728 39.8985C42.6439 39.7953 42.6834 39.6737 42.6867 39.5485C42.692 39.5147 42.6889 39.4801 42.6779 39.4477C42.6668 39.4153 42.6481 39.386 42.6232 39.3624C42.5589 39.3271 42.4855 39.3116 42.4123 39.3177H40.3163C40.28 39.3154 40.2439 39.3252 40.2137 39.3456C40.2017 39.3578 40.1925 39.3725 40.1867 39.3885C40.181 39.4046 40.1787 39.4217 40.1801 39.4387C40.1818 39.5028 40.1957 39.566 40.2212 39.6249H40.4843C40.4937 39.811 40.4974 40.1424 40.4974 40.5911C40.4974 41.4213 40.493 41.9351 40.4843 42.1325H40.3163C40.28 42.1302 40.2439 42.14 40.2137 42.1604C40.2019 42.1723 40.1928 42.1866 40.187 42.2024C40.1812 42.2181 40.1788 42.2349 40.1801 42.2516C40.1806 42.3189 40.1945 42.3853 40.2212 42.4471H42.2742C42.4013 42.4566 42.5288 42.4376 42.6475 42.3912C42.6802 42.3733 42.7068 42.3459 42.7237 42.3127C42.7407 42.2796 42.7473 42.242 42.7427 42.2051C42.7429 42.0877 42.7078 41.9729 42.6419 41.8756C42.247 42.0129 41.8299 42.076 41.4119 42.0617" fill="#FF0000"/>
<path d="M47.5383 42.0586C47.4349 41.9513 47.3538 41.8248 47.2994 41.6862C47.2237 41.5238 47.1311 41.3696 47.0232 41.2264C46.9391 41.1193 46.8284 41.0359 46.7022 40.9844C47.1999 40.828 47.4487 40.5475 47.4487 40.1429C47.4582 40.0189 47.4348 39.8946 47.3807 39.7824C47.3266 39.6703 47.2439 39.5744 47.1408 39.5044C46.9355 39.3729 46.5933 39.3065 46.1143 39.3052H44.9198C44.8845 39.3022 44.8493 39.3121 44.8208 39.3331C44.8089 39.3453 44.7997 39.36 44.7939 39.376C44.7881 39.3921 44.7858 39.4092 44.7872 39.4262C44.7891 39.4901 44.8023 39.5532 44.8264 39.6124H45.1325C45.14 39.8072 45.1437 40.1293 45.1437 40.5786C45.1437 41.4088 45.1437 41.9208 45.1325 42.1181H44.9179C44.8821 42.1155 44.8464 42.1254 44.8171 42.146C44.8046 42.1576 44.795 42.1718 44.7888 42.1876C44.7827 42.2034 44.7802 42.2204 44.7816 42.2373C44.7842 42.3013 44.7981 42.3643 44.8227 42.4234H46.118C46.1349 42.4248 46.1519 42.4228 46.168 42.4173C46.184 42.4119 46.1988 42.4032 46.2113 42.3918C46.2348 42.3588 46.2454 42.3184 46.2412 42.2782C46.2411 42.2195 46.2277 42.1616 46.202 42.1088H45.8754C45.8754 41.9438 45.8716 41.6335 45.8642 41.178C45.934 41.1622 46.0054 41.1547 46.0769 41.1557C46.1466 41.1536 46.2156 41.1697 46.2771 41.2024C46.3386 41.235 46.3906 41.2831 46.4278 41.3418C46.5352 41.5229 46.6157 41.7185 46.6667 41.9227C46.7401 42.1858 46.8223 42.3421 46.9131 42.3918C47.0705 42.455 47.2404 42.4812 47.4095 42.4681C47.5426 42.4854 47.6777 42.4586 47.794 42.3918C47.8444 42.3397 47.8482 42.2447 47.8071 42.1088C47.7119 42.1152 47.6173 42.0897 47.5383 42.0362V42.0586ZM46.5062 40.6679C46.3693 40.7505 46.2105 40.7895 46.0508 40.7796H45.8642V40.5711C45.8642 40.1225 45.8642 39.8488 45.8754 39.752C45.9533 39.7355 46.0328 39.728 46.1124 39.7297C46.2564 39.7238 46.3974 39.7716 46.5081 39.8637C46.5653 39.9226 46.6089 39.9933 46.6357 40.0708C46.6624 40.1483 46.6718 40.2308 46.663 40.3124C46.6686 40.3799 46.6572 40.4479 46.6298 40.51C46.6024 40.572 46.5599 40.6263 46.5062 40.6679Z" fill="#FF0000"/>
<path d="M56.2625 42.1331C56.2457 41.9358 56.2251 41.5355 56.1953 40.9268C56.1654 40.318 56.1542 39.8861 56.1542 39.6236H56.3278C56.345 39.6249 56.3622 39.6227 56.3785 39.6173C56.3949 39.6118 56.41 39.6032 56.423 39.592C56.447 39.5593 56.4577 39.5187 56.4528 39.4784C56.4523 39.4198 56.4389 39.362 56.4136 39.309H55.2061C55.1445 39.6292 55.0381 40.0872 54.8906 40.681C54.7432 41.2749 54.6629 41.5727 54.6517 41.5727C54.5925 41.421 54.5481 41.2639 54.5192 41.1036C54.4427 40.7909 54.3625 40.4874 54.2822 40.1933C54.2019 39.8991 54.1236 39.605 54.0545 39.309H52.7984C52.7626 39.3064 52.7269 39.3163 52.6976 39.3369C52.685 39.3487 52.6753 39.3633 52.6691 39.3794C52.663 39.3955 52.6606 39.4128 52.6622 39.43C52.664 39.4939 52.6773 39.557 52.7013 39.6162H52.9626C52.9626 39.8749 52.9496 40.3087 52.9216 40.9193C52.8936 41.5299 52.8712 41.9283 52.8563 42.1256H52.7069C52.6711 42.123 52.6355 42.1329 52.6062 42.1536C52.5937 42.1651 52.584 42.1793 52.5779 42.1951C52.5717 42.2109 52.5693 42.2279 52.5707 42.2448C52.5724 42.3089 52.5863 42.3721 52.6118 42.431H53.5748C53.5923 42.4323 53.6099 42.4303 53.6265 42.4248C53.6432 42.4194 53.6586 42.4107 53.6719 42.3993C53.6939 42.3657 53.7043 42.3258 53.7017 42.2857C53.7017 42.2271 53.6883 42.1691 53.6625 42.1163H53.4852C53.4778 41.821 53.4778 41.0949 53.4852 39.9382C53.6719 40.6481 53.8249 41.183 53.9444 41.543C53.9961 41.7366 54.0694 41.924 54.1627 42.1014C54.2922 42.1281 54.4247 42.1369 54.5566 42.1275C54.6198 42.1344 54.6837 42.1237 54.7413 42.0968C54.7989 42.0699 54.848 42.0277 54.8832 41.9749C54.9892 41.7464 55.0748 41.5091 55.1389 41.2656C55.249 40.8933 55.3647 40.4558 55.4823 39.9624C55.5215 41.1036 55.5346 41.8241 55.5271 42.1182H55.4319C55.3961 42.1156 55.3604 42.1254 55.3311 42.1461C55.3193 42.1581 55.3102 42.1724 55.3044 42.1881C55.2986 42.2038 55.2963 42.2206 55.2975 42.2373C55.2994 42.3012 55.3127 42.3643 55.3367 42.4235H56.3875C56.405 42.4249 56.4226 42.4228 56.4392 42.4174C56.4559 42.4119 56.4713 42.4033 56.4846 42.3919C56.5065 42.3582 56.517 42.3184 56.5144 42.2783C56.5143 42.2196 56.5009 42.1617 56.4752 42.1089L56.2625 42.1331Z" fill="#FF0000"/>
<path d="M60.1756 39.2654C59.9659 39.2547 59.7563 39.2875 59.56 39.3619C59.3637 39.4362 59.185 39.5505 59.0353 39.6973C58.7572 39.9859 58.6172 40.4271 58.6172 41.0247C58.6172 41.5831 58.7348 41.9666 58.9699 42.177C59.2572 42.4045 59.6193 42.5167 59.9853 42.4916C60.1981 42.5039 60.4111 42.472 60.6109 42.398C60.8107 42.324 60.993 42.2094 61.1462 42.0616C61.4249 41.7724 61.5643 41.33 61.5643 40.7342C61.5643 40.1758 61.4467 39.7916 61.2115 39.5819C60.9174 39.3521 60.5483 39.2393 60.1756 39.2654ZM60.618 41.8028C60.5651 41.8862 60.4904 41.9535 60.4019 41.9975C60.3134 42.0415 60.2145 42.0604 60.1159 42.0523C60.0145 42.0562 59.9138 42.0347 59.8228 41.9898C59.7319 41.9449 59.6536 41.8781 59.5952 41.7954C59.472 41.6241 59.4086 41.2946 59.4086 40.8031C59.3872 40.5124 59.4398 40.2211 59.5616 39.9561C59.6145 39.8727 59.6892 39.8054 59.7777 39.7614C59.8662 39.7174 59.9651 39.6985 60.0637 39.7066C60.164 39.7018 60.264 39.7217 60.3548 39.7646C60.4456 39.8074 60.5245 39.8719 60.5844 39.9524C60.7088 40.1162 60.771 40.4507 60.771 40.9558C60.7926 41.2463 60.7406 41.5376 60.6199 41.8028" fill="#FF0000"/>
<path d="M66.474 42.0586C66.3726 41.9501 66.2923 41.8238 66.2369 41.6862C66.1612 41.5238 66.0686 41.3696 65.9607 41.2264C65.8766 41.1193 65.7659 41.0359 65.6397 40.9844C66.1374 40.828 66.3862 40.5475 66.3862 40.1429C66.3957 40.0189 66.3723 39.8946 66.3182 39.7824C66.2641 39.6703 66.1814 39.5744 66.0783 39.5044C65.873 39.3729 65.5308 39.3065 65.0518 39.3052H63.8573C63.822 39.3022 63.7868 39.3121 63.7583 39.3331C63.7464 39.3453 63.7372 39.36 63.7314 39.376C63.7256 39.3921 63.7233 39.4092 63.7247 39.4262C63.7266 39.4901 63.7398 39.5532 63.7639 39.6124H64.07C64.0775 39.8072 64.0812 40.1293 64.0812 40.5786C64.0812 41.4088 64.0812 41.9208 64.07 42.1181H63.8554C63.8196 42.1155 63.7839 42.1254 63.7546 42.146C63.7421 42.1576 63.7325 42.1718 63.7263 42.1876C63.7202 42.2034 63.7177 42.2204 63.7191 42.2373C63.7217 42.3013 63.7356 42.3643 63.7602 42.4234H65.0555C65.0724 42.4247 65.0894 42.4226 65.1054 42.4172C65.1214 42.4117 65.1362 42.4031 65.1488 42.3918C65.1723 42.3588 65.1829 42.3184 65.1787 42.2782C65.1786 42.2195 65.1652 42.1616 65.1395 42.1088H64.8054C64.8054 41.9438 64.8017 41.6335 64.7942 41.178C64.864 41.1622 64.9354 41.1547 65.007 41.1557C65.0766 41.1536 65.1456 41.1697 65.2071 41.2024C65.2687 41.235 65.3206 41.2831 65.3578 41.3418C65.4661 41.5223 65.546 41.7181 65.5949 41.9227C65.6695 42.1851 65.7517 42.3415 65.8431 42.3918C66.0005 42.455 66.1704 42.4812 66.3396 42.4681C66.4727 42.4854 66.6077 42.4586 66.7241 42.3918C66.7744 42.3397 66.78 42.2447 66.7371 42.1088C66.6414 42.1149 66.5463 42.0894 66.4665 42.0362L66.474 42.0586ZM65.4362 40.6679C65.2995 40.7507 65.1405 40.7897 64.9808 40.7796H64.7942V40.5711C64.7942 40.1225 64.7942 39.8488 64.8054 39.752C64.8833 39.7355 64.9628 39.728 65.0424 39.7297C65.1864 39.7238 65.3275 39.7716 65.4381 39.8637C65.4954 39.9226 65.5389 39.9933 65.5657 40.0708C65.5925 40.1483 65.6018 40.2308 65.593 40.3124C65.5986 40.3799 65.5872 40.4479 65.5598 40.51C65.5324 40.572 65.49 40.6263 65.4362 40.6679Z" fill="#FF0000"/>
<path d="M71.625 42.1323C71.5006 41.8307 71.3065 41.2865 71.0427 40.4996C70.7789 39.7128 70.6278 39.3107 70.5892 39.2933C70.4457 39.2683 70.2997 39.2602 70.1543 39.2691C70.072 39.2598 69.9888 39.2752 69.9153 39.3133C69.8418 39.3515 69.7814 39.4106 69.7418 39.4832C69.6697 39.6272 69.5235 40.0305 69.3032 40.6932C69.083 41.356 68.9188 41.8357 68.8105 42.1323H68.6817C68.6459 42.1297 68.6103 42.1395 68.5809 42.1602C68.5689 42.172 68.5597 42.1863 68.5539 42.2021C68.548 42.2178 68.5458 42.2347 68.5473 42.2514C68.5492 42.3153 68.5625 42.3784 68.5865 42.4376H69.5907C69.608 42.439 69.6254 42.4368 69.6419 42.431C69.6583 42.4252 69.6733 42.4161 69.6858 42.4041C69.7088 42.3716 69.7194 42.332 69.7157 42.2924C69.7156 42.2337 69.7022 42.1758 69.6765 42.123H69.4581C69.4787 42.0057 69.5328 41.7842 69.6187 41.464H70.5948C70.69 41.7916 70.7497 42.0131 70.7814 42.123H70.6806C70.6443 42.1207 70.6082 42.1305 70.578 42.1509C70.566 42.1627 70.5567 42.177 70.5509 42.1927C70.5451 42.2085 70.5429 42.2254 70.5444 42.2421C70.5463 42.306 70.5595 42.369 70.5836 42.4283H71.7594C71.7771 42.4299 71.7948 42.4277 71.8116 42.4219C71.8283 42.4161 71.8436 42.4069 71.8565 42.3948C71.8802 42.3626 71.8909 42.3227 71.8863 42.2831C71.8863 42.2244 71.8729 42.1665 71.8472 42.1137L71.625 42.1323ZM69.7232 41.0898C69.9397 40.3178 70.0641 39.9318 70.0965 39.9318C70.1288 39.9318 70.2607 40.3178 70.4921 41.0898H69.7232Z" fill="#FF0000"/>
<path d="M99 18.0452H81.6704C80.6327 14.4198 79.0108 10.9868 76.8681 7.88079L76.6964 7.63319H60.8618C60.7591 7.46378 60.6453 7.29251 60.5165 7.11938L60.4717 7.0747C60.2749 6.8164 60.0584 6.57366 59.824 6.34867C59.5963 5.64126 59.0663 4.95804 58.2469 4.31951L58.2021 4.286L58.1872 4.27297C57.8854 4.04401 57.563 3.84334 57.2241 3.67353C56.8714 2.72782 55.9904 1.99807 54.6112 1.47868C54.5964 1.47116 54.5807 1.46553 54.5645 1.46192H54.5421C53.9731 1.25226 53.375 1.13168 52.769 1.10449C52.0971 0.391489 51.0295 0.0247501 49.5961 0.0117188H49.5327C48.0955 0.0247501 47.0279 0.384043 46.3598 1.10635C45.7412 1.13601 45.131 1.26162 44.5512 1.47868H44.5232C43.1365 1.99248 42.2574 2.73155 41.9102 3.67725C41.5597 3.8552 41.2261 4.06456 40.9136 4.30275L40.8968 4.31392C40.0718 4.95618 39.538 5.64126 39.3103 6.3617C39.0692 6.59229 38.8464 6.84126 38.644 7.10635L38.6254 7.13241C38.4966 7.30368 38.3846 7.47309 38.2801 7.6425H22.4342L22.2644 7.88823C20.1204 10.9938 18.4978 14.4269 17.4603 18.0527H0L4.23115 28.1911L0 37.5904H17.4603C18.4978 41.2156 20.1204 44.6481 22.2644 47.753L22.4342 48.0006H76.6964L76.8681 47.753C79.0108 44.6476 80.6327 41.2152 81.6704 37.5904H99L94.7688 27.4501L99 18.0452ZM59.8054 7.62016V7.63133C60.4941 8.56214 60.7479 9.37939 60.5519 10.0607C60.3392 10.8296 59.5889 11.282 58.9991 11.5258C57.5228 12.1346 54.4525 13.3316 52.0934 14.2457C52.1162 14.1172 52.1287 13.9871 52.1307 13.8566C54.1856 12.3394 56.9255 10.2804 58.232 9.26769C59.0159 8.65336 59.4414 7.9478 59.4732 7.21991C59.5851 7.34278 59.6953 7.47495 59.8073 7.62016H59.8054ZM49.5663 16.3828C50.0914 16.3816 50.6037 16.2205 51.0346 15.9211C51.4655 15.6217 51.7945 15.1983 51.9777 14.7073L54.2584 13.8212C56.2947 14.2122 57.5284 14.8321 57.5284 15.4129C57.5284 16.3567 54.2584 17.4086 49.5663 17.4086C44.8741 17.4086 41.6042 16.3567 41.6042 15.4129C41.6042 14.8321 42.8378 14.2122 44.8722 13.8212L47.1549 14.7073C47.338 15.1983 47.667 15.6217 48.0979 15.9211C48.5288 16.2205 49.0411 16.3816 49.5663 16.3828ZM56.8994 4.48519C57.1762 4.63034 57.4403 4.79848 57.6889 4.98783C58.6053 5.69711 59.07 6.41755 59.0719 7.12497C59.0719 7.92174 58.4746 8.55842 57.9707 8.95122C56.7389 9.94346 54.1259 11.9019 52.1102 13.4042C52.0689 13.1451 51.9877 12.8939 51.8694 12.6596C53.3961 10.5299 55.2812 7.88823 56.2144 6.52553C56.7015 5.81439 56.9311 5.11814 56.8994 4.47775V4.48519ZM52.7933 1.9627C53.3037 1.99188 53.8069 2.09665 54.2864 2.27359L54.3312 2.29034C55.5033 2.72596 56.2163 3.31796 56.4496 4.04771C56.7127 4.87613 56.3021 5.72317 55.9102 6.30213C54.9975 7.63505 53.174 10.1929 51.666 12.2965C51.459 12.0133 51.1968 11.7746 50.8951 11.5947C51.623 9.00893 52.4965 5.87768 52.9109 4.27855C53.146 3.36822 53.0975 2.57889 52.8007 1.9627H52.7933ZM46.888 1.82494C47.3676 1.19943 48.2635 0.877372 49.5812 0.866202H49.6054C50.8933 0.877372 51.7892 1.19943 52.2707 1.82494C52.8138 2.53049 52.7149 3.50039 52.5376 4.18175C52.1288 5.76412 51.2684 8.84883 50.5443 11.4197C49.926 11.1665 49.2326 11.1665 48.6144 11.4197C47.894 8.86372 47.0279 5.7604 46.6192 4.18175C46.4326 3.49667 46.3448 2.53049 46.888 1.82494ZM42.696 4.05888C42.9293 3.32913 43.6404 2.73899 44.8088 2.30337L44.8666 2.28103H44.876C45.3467 2.1059 45.8413 2.00296 46.343 1.97573C46.0406 2.59192 45.9977 3.38125 46.2328 4.29158C46.6472 5.88699 47.5263 9.03871 48.2504 11.6077C47.9485 11.7872 47.6863 12.026 47.4796 12.3096C45.9566 10.1855 44.1387 7.63505 43.2354 6.31516C42.8434 5.74365 42.431 4.88916 42.696 4.06074V4.05888ZM41.4343 5.00086L41.453 4.98783L41.4716 4.97294C41.7131 4.79013 41.9697 4.6282 42.2387 4.48891C42.2051 5.12559 42.4347 5.81997 42.9218 6.5367C43.855 7.88637 45.7215 10.5206 47.2668 12.68C47.1491 12.9145 47.0685 13.1657 47.0279 13.4247C45.0085 11.9149 42.403 9.95463 41.1543 8.97728C40.6504 8.58448 40.0513 7.9478 40.0532 7.15103C40.0532 6.44362 40.5198 5.72317 41.4343 5.01389V5.00086ZM39.3271 7.65739L39.3738 7.59596C39.4746 7.46751 39.5735 7.34836 39.6743 7.23667C39.7041 7.96084 40.1297 8.66453 40.9154 9.28445C42.2089 10.2953 44.9506 12.3561 46.9943 13.8845C46.9979 14.015 47.011 14.145 47.0335 14.2736C44.6819 13.3633 41.6209 12.17 40.1278 11.5538C39.5362 11.3099 38.7877 10.8575 38.5731 10.0887C38.3865 9.40731 38.6366 8.59937 39.3197 7.66856L39.3271 7.65739ZM76.0599 46.9487H23.0707C19.279 41.2919 17.2551 34.6401 17.2551 27.8355C17.2551 21.0308 19.279 14.3791 23.0707 8.72224H37.7743C37.6014 9.24017 37.5832 9.79706 37.722 10.3251C37.9665 11.2038 38.6814 11.9093 39.7881 12.3729C40.4264 12.6372 41.4007 13.0263 42.6885 13.5327C41.382 14.0185 40.7251 14.6608 40.7251 15.4501C40.7251 17.6859 46.287 18.2966 49.5663 18.2966C52.8455 18.2966 58.4074 17.6859 58.4074 15.4241C58.4074 14.6347 57.7486 13.9925 56.444 13.5066C57.7374 12.9965 58.7117 12.6074 59.3444 12.3468C60.4512 11.8907 61.1641 11.1852 61.4086 10.299C61.547 9.77106 61.5295 9.21445 61.3582 8.69618H76.0618C79.8535 14.3531 81.8774 21.0048 81.8774 27.8094C81.8774 34.6141 79.8535 41.2658 76.0618 46.9227" fill="#FF0000"/>
</g>
<defs>
<clipPath id="clip0_806_14240">
<rect width="99" height="48" fill="white"/>
</clipPath>
</defs>
</svg>
