<svg width="277" height="134" viewBox="0 0 277 134" fill="none" xmlns="http://www.w3.org/2000/svg">
<path d="M46.6641 77.654C46.6641 98.0991 52.9568 117.027 63.6623 132.503H213.716C224.417 117.027 230.715 98.0991 230.715 77.654C230.715 57.209 224.422 38.2814 213.716 22.8047H63.6623C52.962 38.2814 46.6641 57.209 46.6641 77.654Z" fill="#051C2C"/>
<path d="M75.8497 61.9449H72.1524C71.8391 61.1341 71.6824 60.3598 71.6824 59.6218C71.6824 59.1073 71.8182 58.7331 72.0846 58.5044C72.3509 58.2758 72.753 58.1562 73.2909 58.1562H86.6858C93.8715 58.1562 98.7072 59.019 101.188 60.7392C103.668 62.4646 104.911 65.297 104.911 69.2415C104.911 73.186 103.412 76.4809 100.41 78.7936C97.4069 81.1063 92.5816 82.2652 85.9338 82.2652H84.6021C84.623 87.0413 84.6648 90.3206 84.7431 92.1084H89.3021C89.6154 92.7736 89.7721 93.4544 89.7721 94.156C89.7721 94.8004 89.652 95.2526 89.4117 95.5124C89.1715 95.7723 88.7799 95.9022 88.242 95.9022H72.1263C71.7921 95.0915 71.625 94.3067 71.625 93.5532C71.625 93.0542 71.766 92.6905 72.0428 92.4618C72.3196 92.2331 72.7269 92.1188 73.2648 92.1188H75.8497C75.9437 89.7593 75.9907 83.5853 75.9907 73.5914C75.9907 68.1917 75.9437 64.3095 75.8497 61.9501V61.9449ZM87.0461 77.7646C89.8974 77.7646 91.9967 77.2605 93.3388 76.2419C94.6809 75.2285 95.3546 73.4667 95.3546 70.9617C95.3546 68.5815 94.7227 66.7417 93.4537 65.4321C92.1847 64.1224 90.216 63.4676 87.5474 63.4676C86.4351 63.4676 85.5003 63.5612 84.7431 63.743C84.6491 64.9072 84.6021 68.1969 84.6021 73.6122V77.7594H87.0461V77.7646Z" fill="white"/>
<path d="M119.613 67.7539C123.467 67.7539 126.261 68.627 128.005 70.368C129.744 72.109 130.616 74.8634 130.616 78.6209C130.616 80.4814 130.245 81.8119 129.504 82.6018C128.762 83.3969 127.143 83.7919 124.642 83.7919H114.307C114.365 86.2085 114.908 88.1003 115.947 89.4723C116.986 90.8443 118.809 91.5303 121.42 91.5303C124.031 91.5303 126.606 90.7923 129.311 89.3215C130.272 90.2622 130.757 91.2756 130.757 92.3618C130.757 93.8378 129.671 94.8668 127.493 95.4436C125.316 96.0257 122.767 96.3167 119.838 96.3167C114.798 96.3167 111.143 95.3033 108.861 93.2765C106.584 91.2496 105.445 87.9028 105.445 83.241C105.445 78.5793 106.73 74.5984 109.294 71.8648C111.858 69.1259 115.3 67.7591 119.618 67.7591L119.613 67.7539ZM118.501 72.5404C117.133 72.5404 116.083 73.0964 115.362 74.1982C114.642 75.3052 114.271 77.2281 114.25 79.9773H115.723C117.78 79.9773 119.347 79.9201 120.433 79.7954C121.514 79.6759 122.151 79.4732 122.334 79.1874C122.517 78.9015 122.611 78.4286 122.611 77.7634C122.611 76.1055 122.25 74.8167 121.53 73.9072C120.809 72.9925 119.796 72.5404 118.501 72.5404Z" fill="white"/>
<path d="M134.833 69.912C134.833 69.2468 135.079 68.8155 135.57 68.6128C136.061 68.4101 139.121 68.223 144.75 68.0567C144.844 68.831 144.844 69.9016 144.75 71.2633C147.085 69.9016 149.194 68.9766 151.085 68.4984C152.975 68.0203 154.641 67.7812 156.088 67.7812C156.756 67.7812 157.2 67.8592 157.419 68.0151C157.644 68.171 157.753 68.5348 157.753 69.1065C157.753 70.1199 157.602 71.1749 157.294 72.2715C156.986 73.368 156.61 74.0748 156.156 74.3867C155.701 74.6985 154.986 74.9324 154.004 75.0779C153.022 75.2234 152.453 75.2598 152.296 75.187C152.14 75.1142 151.617 74.4958 150.724 73.3369C149.356 73.3369 148.301 73.8306 147.57 74.818C146.839 75.8055 146.474 78.3416 146.474 82.4369C146.474 86.1787 146.521 89.4061 146.615 92.1137H150.975C151.309 92.7218 151.476 93.4026 151.476 94.1613C151.476 94.8058 151.341 95.2579 151.074 95.5178C150.803 95.7776 150.281 95.9075 149.502 95.9075H135.329C134.995 95.1332 134.828 94.4056 134.828 93.7248C134.828 93.1531 134.959 92.7425 135.215 92.4931C135.47 92.2436 135.893 92.1189 136.468 92.1189H138.494C138.588 89.4113 138.635 86.2671 138.635 82.6915C138.635 77.5309 138.39 74.4802 137.899 73.5396C137.408 72.5989 136.551 72.1312 135.329 72.1312C134.995 71.3932 134.828 70.6552 134.828 69.9172L134.833 69.912Z" fill="white"/>
<path d="M164.123 82.5774C164.123 74.2102 164.086 68.956 164.013 66.8148C163.94 64.6788 163.799 63.2185 163.595 62.4337C163.392 61.649 163.037 61.1448 162.525 60.911C162.013 60.6823 161.355 60.568 160.54 60.568C160.206 59.8144 160.039 59.0556 160.039 58.3021C160.039 57.5485 160.332 57.034 160.916 56.8209C161.501 56.6078 163.366 56.5039 166.515 56.5039C168.478 56.5039 169.82 56.5819 170.546 56.7378C171.267 56.8937 171.679 57.1847 171.784 57.6109C171.888 58.037 171.935 58.6347 171.935 59.409V80.6752C171.935 85.9502 171.982 89.7648 172.076 92.1243H175.632C175.946 92.7323 176.102 93.4132 176.102 94.1719C176.102 94.8163 175.967 95.2685 175.7 95.5283C175.429 95.7882 174.907 95.9181 174.128 95.9181H160.54C160.206 95.1438 160.039 94.4162 160.039 93.7354C160.039 93.1637 160.17 92.7531 160.431 92.5037C160.692 92.2542 161.104 92.1295 161.679 92.1295H163.956C164.065 89.77 164.123 86.5895 164.123 82.5878V82.5774Z" fill="white"/>
<path d="M196.492 93.7708C195.103 94.4724 193.52 95.0961 191.74 95.6365C189.959 96.177 188.283 96.4525 186.711 96.4525C184.027 96.4525 182.058 95.834 180.804 94.6023C179.556 93.3654 178.93 91.6348 178.93 89.4053C178.93 86.2923 180.005 83.9744 182.152 82.4621C184.298 80.9498 187.692 80.1962 192.319 80.1962H195.348C195.181 77.3586 194.711 75.4201 193.933 74.3755C193.155 73.3309 191.985 72.8112 190.434 72.8112C189.583 72.8112 188.653 72.9204 187.656 73.1438C187.008 74.3599 186.622 75.0044 186.502 75.0823C186.382 75.1603 185.745 75.3214 184.585 75.5812C183.426 75.8411 182.606 75.7579 182.126 75.3318C181.645 74.9108 181.16 74.1624 180.669 73.0919C180.178 72.0213 179.932 71.117 179.932 70.3842C179.932 69.9217 180.12 69.5631 180.502 69.3084C180.883 69.0538 182.282 68.7731 184.711 68.4769C187.139 68.1807 189.724 68.0352 192.46 68.0352C195.719 68.0352 198.278 68.5912 200.132 69.7086C201.986 70.8208 202.91 72.9827 202.91 76.1945V83.5223C202.91 87.5968 203.087 90.1017 203.437 91.032C203.787 91.9623 204.419 92.326 205.328 92.1234C205.605 92.6379 205.746 93.1472 205.746 93.6461C205.746 94.4776 205.249 95.1064 204.257 95.543C203.265 95.9743 201.928 96.1926 200.241 96.1926C199.5 96.1926 198.915 96.0991 198.492 95.9172C198.069 95.7353 197.401 95.0233 196.492 93.7864V93.7708ZM195.353 84.5929C194.022 84.3174 192.669 84.1771 191.296 84.1771C189.74 84.1771 188.627 84.437 187.959 84.9515C187.29 85.466 186.961 86.443 186.961 87.8826C186.961 89.1351 187.29 90.0809 187.948 90.715C188.606 91.349 189.562 91.6712 190.826 91.6712C191.828 91.6712 192.711 91.4581 193.479 91.0372C194.246 90.611 194.753 90.0082 194.993 89.2234C195.233 88.4387 195.353 87.4201 195.353 86.1676V84.5929Z" fill="white"/>
<path d="M76.6208 109.746H79.728C81.0283 109.746 81.9944 109.912 82.6315 110.25C83.2686 110.588 83.5819 111.103 83.5819 111.789C83.5819 112.74 82.9866 113.457 81.7907 113.95C83.2791 114.226 84.0258 114.902 84.0258 115.977C84.0258 116.71 83.6864 117.313 83.0127 117.786C82.3391 118.259 81.1536 118.498 79.4616 118.498H76.3649C76.2866 118.316 76.25 118.134 76.25 117.957C76.25 117.843 76.2813 117.76 76.3492 117.703C76.4119 117.651 76.5059 117.625 76.6312 117.625H77.1012C77.1273 117.074 77.1378 115.858 77.1378 113.982C77.1378 112.287 77.1273 111.17 77.1012 110.624H76.3649C76.2866 110.437 76.25 110.255 76.25 110.084C76.25 109.964 76.2813 109.876 76.3492 109.824C76.4171 109.772 76.5059 109.746 76.6312 109.746H76.6208ZM79.1222 113.394C79.3363 113.436 79.5974 113.457 79.9055 113.457C80.4225 113.457 80.7933 113.363 81.0179 113.171C81.2424 112.979 81.3573 112.682 81.3573 112.272C81.3573 111.825 81.2372 111.503 80.997 111.29C80.7567 111.077 80.3912 110.978 79.9108 110.978C79.6549 110.978 79.399 110.999 79.1326 111.04C79.1326 111.446 79.1274 112.23 79.1274 113.394H79.1222ZM79.1222 114.569V116.071C79.1222 116.565 79.1796 116.887 79.2945 117.038C79.4094 117.188 79.728 117.266 80.2502 117.266C80.7724 117.266 81.185 117.167 81.4304 116.97C81.6758 116.772 81.8012 116.445 81.8012 115.993C81.8012 115.504 81.6497 115.135 81.3521 114.886C81.0544 114.636 80.5949 114.507 79.9682 114.507C79.6914 114.507 79.4094 114.527 79.117 114.569H79.1222Z" fill="white"/>
<path d="M90.2015 109.746H93.7265C93.7996 109.902 93.8362 110.063 93.8362 110.219C93.8362 110.375 93.8101 110.479 93.7526 110.536C93.6952 110.593 93.6064 110.624 93.4811 110.624H92.8544C92.8335 111.17 92.8231 112.074 92.8283 113.332C92.8283 115.645 92.8388 117.074 92.8596 117.62H93.7213C93.7944 117.775 93.831 117.931 93.831 118.093C93.831 118.243 93.8049 118.347 93.7474 118.404C93.69 118.462 93.6012 118.493 93.4759 118.493H89.9352C89.8569 118.306 89.8203 118.124 89.8203 117.947C89.8203 117.833 89.8516 117.75 89.9195 117.692C89.9874 117.635 90.0762 117.614 90.2015 117.614H90.8021C90.823 117.069 90.8334 115.634 90.8334 113.322C90.8334 112.069 90.8178 111.17 90.7969 110.624H89.9404C89.8621 110.437 89.8255 110.255 89.8255 110.084C89.8255 109.964 89.8569 109.876 89.9248 109.824C89.9926 109.772 90.0814 109.746 90.2068 109.746H90.2015Z" fill="white"/>
<path d="M103.322 109.617C104.424 109.617 105.155 109.68 105.515 109.809C105.876 109.939 106.053 110.189 106.053 110.558C106.053 110.927 105.923 111.233 105.661 111.514C104.669 111.067 103.808 110.849 103.076 110.849C102.591 110.849 102.257 110.932 102.063 111.098C101.87 111.265 101.781 111.509 101.781 111.821C101.781 112.195 101.901 112.476 102.136 112.663C102.371 112.85 102.852 113.042 103.567 113.25C104.471 113.484 105.165 113.78 105.651 114.139C106.137 114.497 106.393 115.084 106.413 115.895C106.413 116.82 106.079 117.501 105.411 117.948C104.742 118.395 103.771 118.618 102.492 118.618C101.562 118.618 100.878 118.551 100.439 118.416C100.001 118.281 99.7812 118.005 99.7812 117.6C99.7812 117.241 99.9327 116.924 100.23 116.644C101.212 117.137 102.136 117.387 102.993 117.387C103.557 117.387 103.949 117.314 104.173 117.168C104.398 117.018 104.507 116.773 104.507 116.436C104.507 116.036 104.335 115.724 103.985 115.5C103.635 115.277 103.066 115.053 102.267 114.825C101.416 114.596 100.805 114.284 100.434 113.884C100.063 113.484 99.8752 112.969 99.8752 112.34C99.8752 111.483 100.183 110.813 100.794 110.334C101.405 109.856 102.251 109.617 103.322 109.617Z" fill="white"/>
<path d="M112.795 109.746H118.66C118.937 109.746 119.13 109.788 119.25 109.871C119.37 109.954 119.427 110.125 119.427 110.385C119.427 110.702 119.323 111.025 119.114 111.362C118.211 110.999 117.057 110.817 115.647 110.817H115.338C115.312 111.238 115.302 112.09 115.302 113.374H118.55C118.623 113.602 118.66 113.836 118.66 114.08C118.66 114.226 118.634 114.325 118.581 114.371C118.529 114.423 118.43 114.444 118.284 114.444H115.302C115.302 116.092 115.318 117.084 115.338 117.427H115.871C117.318 117.427 118.467 117.261 119.313 116.923C119.501 117.204 119.595 117.51 119.595 117.838C119.595 118.072 119.506 118.243 119.328 118.342C119.151 118.441 118.796 118.498 118.258 118.498H112.529C112.451 118.316 112.414 118.134 112.414 117.957C112.414 117.843 112.445 117.76 112.513 117.703C112.576 117.651 112.67 117.625 112.795 117.625H113.265C113.291 117.074 113.302 115.64 113.302 113.322C113.302 112.069 113.291 111.17 113.265 110.624H112.529C112.451 110.437 112.414 110.255 112.414 110.084C112.414 109.964 112.445 109.876 112.513 109.824C112.581 109.772 112.67 109.746 112.795 109.746Z" fill="white"/>
<path d="M128.36 117.62H129.294C129.368 117.776 129.404 117.931 129.404 118.093C129.404 118.243 129.378 118.347 129.321 118.404C129.263 118.462 129.174 118.493 129.054 118.493H125.435C125.357 118.306 125.32 118.124 125.32 117.947C125.32 117.833 125.352 117.75 125.42 117.692C125.487 117.635 125.576 117.614 125.702 117.614H126.302C126.323 117.069 126.333 115.634 126.333 113.322C126.333 112.069 126.323 111.17 126.302 110.624H125.446C125.373 110.437 125.336 110.255 125.336 110.084C125.336 109.964 125.367 109.876 125.43 109.824C125.493 109.772 125.587 109.746 125.712 109.746H129.054C130.396 109.746 131.352 109.933 131.926 110.302C132.501 110.676 132.788 111.269 132.788 112.085C132.788 113.213 132.088 113.997 130.683 114.429C131.033 114.574 131.336 114.798 131.576 115.104C131.817 115.411 132.078 115.837 132.349 116.388C132.621 116.939 132.84 117.277 133.018 117.412C133.19 117.547 133.446 117.614 133.775 117.614C133.89 117.994 133.879 118.259 133.738 118.404C133.597 118.55 133.237 118.623 132.663 118.623C131.994 118.623 131.529 118.55 131.274 118.41C131.018 118.269 130.788 117.833 130.579 117.1C130.375 116.372 130.151 115.832 129.911 115.478C129.67 115.125 129.347 114.948 128.929 114.948C128.704 114.948 128.506 114.969 128.339 115.011C128.339 116.284 128.354 117.152 128.37 117.614L128.36 117.62ZM128.328 113.909H128.851C129.404 113.909 129.827 113.805 130.125 113.597C130.422 113.389 130.563 113.062 130.563 112.604C130.563 112.017 130.417 111.601 130.13 111.352C129.838 111.103 129.472 110.978 129.023 110.978C128.751 110.978 128.532 110.999 128.36 111.04C128.339 111.31 128.328 112.074 128.328 113.327V113.904V113.909Z" fill="white"/>
<path d="M147.728 109.746H151.238C151.436 110.572 151.65 111.394 151.875 112.215C152.104 113.036 152.324 113.883 152.538 114.756C152.752 115.629 152.877 116.066 152.909 116.066C152.94 116.066 153.165 115.234 153.577 113.576C153.99 111.918 154.287 110.64 154.465 109.746H157.838C157.912 109.902 157.948 110.063 157.948 110.219C157.948 110.375 157.922 110.479 157.865 110.536C157.807 110.593 157.718 110.624 157.598 110.624H157.107C157.107 111.347 157.149 112.558 157.227 114.252C157.306 115.946 157.368 117.069 157.41 117.62H158.021C158.094 117.775 158.131 117.931 158.131 118.092C158.131 118.243 158.105 118.347 158.047 118.404C157.99 118.461 157.901 118.493 157.776 118.493H154.836C154.763 118.306 154.726 118.124 154.726 117.947C154.726 117.833 154.757 117.749 154.82 117.692C154.883 117.635 154.977 117.614 155.102 117.614H155.342C155.368 116.788 155.327 114.782 155.222 111.596C154.893 113.005 154.569 114.226 154.261 115.265C153.948 116.305 153.713 116.965 153.546 117.245C153.379 117.526 153.076 117.666 152.632 117.666C151.969 117.666 151.603 117.64 151.53 117.594C151.457 117.547 151.253 117.022 150.919 116.014C150.585 115.005 150.157 113.514 149.64 111.534C149.624 114.761 149.624 116.788 149.645 117.609H150.141C150.214 117.765 150.251 117.921 150.251 118.082C150.251 118.233 150.224 118.337 150.167 118.394C150.11 118.451 150.021 118.482 149.895 118.482H147.201C147.122 118.295 147.086 118.113 147.086 117.937C147.086 117.822 147.117 117.739 147.185 117.682C147.253 117.625 147.342 117.604 147.467 117.604H147.885C147.927 117.058 147.989 115.936 148.068 114.236C148.146 112.537 148.183 111.331 148.183 110.609H147.457C147.384 110.422 147.347 110.24 147.347 110.068C147.347 109.949 147.378 109.86 147.446 109.808C147.514 109.756 147.603 109.73 147.728 109.73V109.746Z" fill="white"/>
<path d="M164.021 114.528C164.021 112.86 164.413 111.628 165.191 110.823C165.969 110.017 167.034 109.617 168.381 109.617C169.65 109.617 170.616 109.913 171.274 110.501C171.932 111.088 172.261 112.159 172.261 113.718C172.261 115.386 171.87 116.618 171.092 117.423C170.314 118.229 169.227 118.629 167.843 118.629C166.606 118.629 165.661 118.338 165.003 117.745C164.345 117.158 164.016 116.087 164.016 114.528H164.021ZM166.235 113.905C166.235 115.277 166.407 116.202 166.757 116.675C167.107 117.153 167.593 117.392 168.214 117.392C168.836 117.392 169.337 117.158 169.619 116.696C169.901 116.233 170.042 115.443 170.042 114.331C170.042 112.923 169.87 111.987 169.525 111.53C169.18 111.072 168.695 110.844 168.068 110.844C167.441 110.844 166.945 111.078 166.663 111.54C166.381 112.003 166.24 112.793 166.24 113.905H166.235Z" fill="white"/>
<path d="M181.344 117.62H182.279C182.352 117.776 182.388 117.931 182.388 118.093C182.388 118.243 182.362 118.347 182.305 118.404C182.247 118.462 182.159 118.493 182.039 118.493H178.42C178.341 118.306 178.305 118.124 178.305 117.947C178.305 117.833 178.336 117.75 178.404 117.692C178.472 117.635 178.561 117.614 178.686 117.614H179.286C179.307 117.069 179.318 115.634 179.318 113.322C179.318 112.069 179.307 111.17 179.286 110.624H178.43C178.357 110.437 178.32 110.255 178.32 110.084C178.32 109.964 178.352 109.876 178.414 109.824C178.477 109.772 178.571 109.746 178.696 109.746H182.039C183.381 109.746 184.336 109.933 184.911 110.302C185.485 110.671 185.772 111.269 185.772 112.085C185.772 113.213 185.073 113.997 183.668 114.429C184.018 114.574 184.321 114.798 184.561 115.104C184.801 115.411 185.062 115.837 185.334 116.388C185.605 116.939 185.825 117.277 186.002 117.412C186.174 117.547 186.43 117.614 186.759 117.614C186.874 117.994 186.864 118.259 186.723 118.404C186.582 118.55 186.221 118.623 185.647 118.623C184.979 118.623 184.514 118.55 184.258 118.41C184.002 118.269 183.772 117.833 183.563 117.1C183.36 116.372 183.135 115.832 182.895 115.478C182.655 115.125 182.331 114.948 181.913 114.948C181.689 114.948 181.49 114.969 181.323 115.011C181.323 116.284 181.339 117.152 181.354 117.614L181.344 117.62ZM181.313 113.909H181.835C182.388 113.909 182.811 113.805 183.109 113.597C183.407 113.389 183.548 113.062 183.548 112.604C183.548 112.017 183.402 111.601 183.114 111.352C182.822 111.103 182.456 110.978 182.007 110.978C181.736 110.978 181.516 110.999 181.344 111.04C181.323 111.31 181.313 112.074 181.313 113.327V113.904V113.909Z" fill="white"/>
<path d="M196.298 109.626C197.014 109.626 197.421 109.652 197.515 109.699C197.609 109.746 198.032 110.868 198.784 113.067C199.536 115.265 200.079 116.783 200.413 117.625H201.019C201.092 117.78 201.129 117.936 201.129 118.097C201.129 118.248 201.103 118.352 201.045 118.409C200.988 118.466 200.899 118.498 200.774 118.498H197.484C197.411 118.311 197.374 118.129 197.374 117.952C197.374 117.838 197.405 117.754 197.473 117.697C197.541 117.64 197.63 117.619 197.755 117.619H198.037C197.975 117.313 197.808 116.699 197.541 115.78H194.81C194.57 116.679 194.418 117.292 194.361 117.619H194.972C195.045 117.775 195.082 117.931 195.082 118.092C195.082 118.243 195.055 118.347 194.998 118.404C194.941 118.461 194.852 118.492 194.732 118.492H191.922C191.849 118.305 191.812 118.123 191.812 117.947C191.812 117.832 191.844 117.749 191.907 117.692C191.969 117.635 192.063 117.614 192.188 117.614H192.538C192.841 116.788 193.306 115.452 193.922 113.597C194.538 111.747 194.946 110.619 195.149 110.219C195.353 109.819 195.734 109.621 196.304 109.621L196.298 109.626ZM195.092 114.709H197.223C196.565 112.557 196.199 111.476 196.116 111.476C196.032 111.476 195.693 112.552 195.087 114.709H195.092Z" fill="white"/>
<path d="M167.777 21.0157C167.777 21.0157 167.751 20.9793 167.735 20.9585C167.72 20.9377 167.709 20.9222 167.693 20.9014C167.03 20.0387 166.367 19.3267 165.714 18.7498C165.328 17.0868 164.101 15.3302 161.782 13.532C161.782 13.532 161.745 13.506 161.725 13.4904C161.704 13.4748 161.688 13.4644 161.672 13.4488C160.555 12.6173 159.516 12.0145 158.544 11.6195C158.038 9.37957 156.095 7.36312 152.131 5.89756C152.131 5.89756 152.084 5.88197 152.063 5.87158C152.037 5.86118 152.016 5.85599 151.996 5.84559C149.954 5.1336 148.225 4.86855 146.779 4.9673C145.463 3.11716 142.925 1.94263 138.768 1.90625C138.768 1.90625 138.716 1.90625 138.689 1.90625C138.663 1.90625 138.637 1.90625 138.611 1.90625C134.454 1.94263 131.916 3.11716 130.6 4.9673C129.154 4.86855 127.425 5.1336 125.383 5.84559C125.383 5.84559 125.336 5.86118 125.315 5.87158C125.289 5.88197 125.268 5.88717 125.248 5.89756C121.284 7.35793 119.341 9.37957 118.835 11.6195C117.863 12.0145 116.824 12.6121 115.707 13.4488C115.707 13.4488 115.67 13.4748 115.654 13.4904C115.634 13.506 115.618 13.5164 115.597 13.532C113.273 15.3302 112.051 17.0868 111.665 18.7498C111.012 19.3267 110.349 20.0387 109.685 20.9014C109.685 20.9014 109.659 20.9377 109.644 20.9533C109.628 20.9741 109.618 20.9897 109.602 21.0053C105.189 26.9403 107.424 30.7809 112.072 32.6934C115.08 33.9303 120.401 36.0195 125.608 38.0463C119.728 39.1533 115.884 40.9775 115.884 43.0511C115.884 46.4239 126.099 49.1628 138.7 49.1628C151.301 49.1628 161.516 46.4291 161.516 43.0511C161.516 40.9827 157.667 39.1533 151.792 38.0463C156.993 36.0247 162.315 33.9303 165.328 32.6934C169.976 30.7809 172.205 26.9455 167.798 21.0105L167.777 21.0157Z" fill="#051C2C"/>
<path d="M138.684 44.9656C142.237 44.9656 145.117 42.099 145.117 38.5629C145.117 35.0268 142.237 32.1602 138.684 32.1602C135.13 32.1602 132.25 35.0268 132.25 38.5629C132.25 42.099 135.13 44.9656 138.684 44.9656Z" fill="white"/>
<path d="M169.324 19.8786L169.313 19.8682L169.219 19.7435C168.65 19.0003 168.039 18.3195 167.407 17.7166C166.77 15.7366 165.287 13.8345 162.989 12.0519C162.953 12.0207 162.911 11.9895 162.869 11.9583C162.853 11.948 162.838 11.9376 162.827 11.922C161.924 11.2464 161.02 10.6799 160.133 10.2433C159.146 7.60324 156.681 5.54002 152.816 4.11604C152.775 4.10045 152.728 4.08486 152.686 4.06927C152.665 4.05887 152.644 4.05368 152.623 4.04328C150.837 3.41964 149.176 3.08183 147.662 3.04545C145.782 1.06019 142.795 0.0363792 138.769 0C138.727 0 138.685 0 138.643 0C138.628 0 138.607 0 138.591 0C134.57 0.0311821 131.583 1.06019 129.698 3.05585C128.173 3.09742 126.476 3.44043 124.632 4.09006L124.554 4.12124C120.674 5.55562 118.214 7.61883 117.227 10.2589C116.324 10.7059 115.394 11.2879 114.438 12.0051L114.391 12.0415C112.078 13.8345 110.59 15.747 109.953 17.7322C109.31 18.3455 108.684 19.0419 108.088 19.8214L108.036 19.8942C105.639 23.1267 104.798 26.115 105.545 28.7759C106.229 31.2289 108.224 33.1986 111.326 34.4718C113.117 35.2098 115.838 36.296 119.441 37.7096C115.791 39.0712 113.948 40.8642 113.948 43.0625C113.948 49.3977 129.499 51.0867 138.685 51.0867C147.871 51.0867 163.423 49.3977 163.423 43.0625C163.423 40.8642 161.579 39.0712 157.929 37.7096C161.553 36.2856 164.274 35.2046 166.044 34.4718C169.141 33.1986 171.136 31.2289 171.82 28.7759C172.567 26.1098 171.726 23.1164 169.318 19.8786H169.324ZM169.454 28.1159C168.854 30.2623 166.76 31.5251 165.104 32.2007C160.791 33.9781 151.61 37.5433 144.915 40.1314C144.795 40.6043 144.623 41.0565 144.409 41.4774C146.644 40.6147 149.213 39.6221 151.819 38.6087C157.516 39.7052 160.963 41.4358 160.963 43.0521C160.963 45.687 151.814 48.6285 138.685 48.6285C125.557 48.6285 116.407 45.6922 116.407 43.0521C116.407 41.4358 119.859 39.7052 125.551 38.6087C128.162 39.6221 130.732 40.6199 132.962 41.4826C132.742 41.0565 132.57 40.6095 132.45 40.1366C125.776 37.5589 116.632 34.0041 112.261 32.2059C110.605 31.5251 108.511 30.2623 107.911 28.1211C107.378 26.219 108.088 23.9375 110.015 21.3442L110.146 21.1675C110.423 20.8089 110.705 20.4763 110.987 20.1644C111.07 22.1809 112.261 24.1506 114.459 25.8708C118.256 28.8331 126.512 35.0175 132.293 39.3311C132.262 39.0816 132.241 38.8269 132.241 38.5671C132.241 38.3696 132.251 38.1721 132.272 37.9746C126.543 33.6975 118.768 27.8716 115.123 25.0289C113.718 23.9323 112.042 22.1549 112.042 19.9254C112.042 17.9505 113.347 15.9445 115.906 13.9592L115.953 13.9228L116.005 13.8812C116.747 13.3252 117.462 12.8834 118.151 12.53C118.057 14.3022 118.7 16.2407 120.063 18.2312C122.757 22.1497 128.335 29.9556 132.737 36.0777C132.894 35.7087 133.087 35.3553 133.306 35.0279C128.956 28.9734 123.577 21.4481 120.951 17.6283C119.854 16.0328 118.705 13.6422 119.441 11.3347C120.094 9.29747 122.084 7.65002 125.353 6.43391L125.515 6.37675L125.541 6.36635C127.066 5.83106 128.434 5.55562 129.651 5.51404C128.799 7.23945 128.685 9.43779 129.343 11.9791C130.538 16.5941 133.139 25.876 135.202 33.183C135.51 32.9855 135.834 32.8088 136.178 32.6685C134.126 25.4082 131.572 16.2771 130.387 11.7141C129.891 9.79639 129.614 7.09913 131.134 5.13466C132.481 3.38846 134.983 2.48937 138.669 2.45819H138.737C142.341 2.48937 144.847 3.38846 146.195 5.13466C147.714 7.10433 147.437 9.80158 146.941 11.7141C145.756 16.2823 143.218 25.3563 141.15 32.6685C141.489 32.8088 141.813 32.9855 142.126 33.183C144.205 25.8292 146.785 16.6097 147.986 11.9843C148.644 9.44299 148.529 7.23945 147.678 5.51924C148.9 5.56601 150.278 5.84665 151.835 6.39234L151.96 6.43911C155.239 7.65521 157.234 9.30787 157.887 11.3451C158.629 13.6526 157.474 16.0432 156.378 17.6387C153.725 21.5001 148.33 29.0513 144.027 35.0383C144.247 35.3709 144.44 35.7191 144.597 36.0881C148.952 30.0336 154.55 22.2017 157.271 18.2415C158.634 16.2563 159.276 14.3178 159.182 12.5404C159.887 12.9042 160.623 13.3667 161.396 13.9384L161.412 13.9488L161.433 13.9644C163.992 15.9445 165.297 17.9557 165.297 19.9306C165.303 22.1549 163.626 23.9323 162.221 25.0289C158.571 27.8768 150.801 33.7027 145.072 37.9798C145.087 38.1721 145.103 38.3696 145.103 38.5723C145.103 38.8321 145.082 39.0868 145.051 39.3363C150.832 35.0279 159.083 28.8435 162.885 25.876C165.083 24.161 166.269 22.1965 166.357 20.18C166.671 20.523 166.984 20.8972 167.297 21.3026L167.318 21.3338V21.3442C169.256 23.9427 169.966 26.2242 169.433 28.1263L169.454 28.1159Z" fill="#8A6E4B"/>
<path d="M215.076 21.9998L214.601 21.3086H168.562L170.269 24.2969H212.825C223.473 39.9867 229.097 58.4153 229.097 77.6547C229.097 96.8941 223.473 115.323 212.825 131.013H64.5517C53.9037 115.323 48.2794 96.8941 48.2794 77.6547C48.2794 58.4153 53.9037 39.9867 64.5517 24.2969H107.212L108.69 21.3086H62.7709L62.2957 21.9998C51.0106 38.3184 45.0469 57.563 45.0469 77.6547C45.0469 97.7464 51.0106 116.986 62.2957 133.31L62.7709 134.001H214.595L215.071 133.31C226.356 116.991 232.319 97.7464 232.319 77.6547C232.319 57.563 226.356 38.3184 215.071 21.9998H215.076Z" fill="#8A6E4B"/>
</svg>
