<svg width="15" height="14" viewBox="0 0 15 14" fill="none" xmlns="http://www.w3.org/2000/svg">
<path d="M0.15625 7C0.15625 3.13992 3.29617 -4.74709e-07 7.15625 -3.0598e-07C11.0163 -1.3725e-07 14.1562 3.13992 14.1562 7C14.1562 10.8601 11.0163 14 7.15625 14C3.29617 14 0.15625 10.8595 0.15625 7ZM13.0362 7C13.0362 3.7576 10.3986 1.12 7.15625 1.12C3.91385 1.12 1.27625 3.7576 1.27625 7C1.27625 10.2424 3.91385 12.88 7.15625 12.88C10.3986 12.88 13.0362 10.2418 13.0362 7ZM6.64105 6.9552L6.64105 3.36C6.64105 3.21148 6.70005 3.06904 6.80507 2.96402C6.91009 2.859 7.05253 2.8 7.20105 2.8C7.34957 2.8 7.49201 2.859 7.59703 2.96402C7.70205 3.06904 7.76105 3.21148 7.76105 3.36L7.76105 6.3952L11.9162 6.3952C12.0648 6.3952 12.2072 6.4542 12.3122 6.55922C12.4172 6.66424 12.4762 6.80668 12.4762 6.9552C12.4762 7.10372 12.4172 7.24616 12.3122 7.35118C12.2072 7.4562 12.0648 7.5152 11.9162 7.5152L7.20105 7.5152C7.05253 7.5152 6.91009 7.4562 6.80507 7.35118C6.70005 7.24616 6.64105 7.10372 6.64105 6.9552Z" fill="#F5FAFF"/>
</svg>
