<svg width="15" height="11" viewBox="0 0 15 11" fill="none" xmlns="http://www.w3.org/2000/svg">
<path d="M14.3882 0.840666L11.0526 2.99198V2.34067C11.0526 1.47224 10.3421 0.761719 9.47368 0.761719H1.57895C0.710526 0.761719 0 1.47224 0 2.34067V8.65645C0 9.52488 0.710526 10.2354 1.57895 10.2354H9.47368C10.3421 10.2354 11.0526 9.52488 11.0526 8.65645V8.00514L14.3882 10.1565C14.7632 10.3538 15 10.0183 15 9.82093V1.15646C15 0.959087 14.7829 0.603824 14.3882 0.840666ZM10.2632 8.65645C10.2632 9.09066 9.9079 9.44593 9.47368 9.44593H1.57895C1.14474 9.44593 0.789474 9.09066 0.789474 8.65645V2.34067C0.789474 1.90646 1.14474 1.55119 1.57895 1.55119H9.47368C9.9079 1.55119 10.2632 1.90646 10.2632 2.34067V8.65645ZM14.2105 9.1104L11.0526 7.07751V3.91961L14.2105 1.88672V9.1104Z" fill="#F5FAFF"/>
</svg>
