<svg width="127" height="100" viewBox="0 0 127 100" fill="none" xmlns="http://www.w3.org/2000/svg">
<g clip-path="url(#clip0_4856_17250)">
<path d="M108.494 29.4874C105.344 18.4793 95.2486 10.7267 83.617 10.7267C82.7138 10.7267 81.8106 10.7764 80.9129 10.8702C74.4583 3.92871 65.4923 0 55.9095 0C39.2552 0 25.0131 12.2441 22.1879 28.4059C9.41629 33.4382 0.742188 45.9637 0.742188 59.8742C0.742188 78.5135 15.8764 93.6766 34.4803 93.6766C37.3992 93.6766 40.5384 93.3013 43.5344 92.6116C49.5485 97.3956 56.9889 100 64.7653 100C72.5417 100 79.5636 97.5335 85.4895 93.0034C88.3203 93.7317 90.6885 93.9911 92.0047 94.0794C92.7042 94.129 93.4201 94.1511 94.1251 94.1511C103.036 94.1511 111.385 90.41 117.647 83.612C123.617 77.1285 126.91 68.6972 126.91 59.8797C126.91 47.0121 119.756 35.3363 108.494 29.4929V29.4874Z" fill="white"/>
<path d="M72.3061 69.431C72.218 69.3317 72.1133 69.2489 71.9756 69.1938C71.8379 69.1331 71.6617 69.1055 71.4414 69.1055H71.1055V71.5609H71.4469C71.6617 71.5609 71.8269 71.5388 71.9646 71.4892C72.0968 71.4395 72.2069 71.3678 72.2951 71.2685C72.3832 71.1636 72.4548 71.0367 72.4933 70.8877C72.5429 70.7277 72.5649 70.5291 72.5649 70.3028C72.5649 70.1263 72.5429 69.9607 72.4988 69.8062C72.4603 69.6683 72.3942 69.5414 72.3061 69.431Z" fill="#80BC00"/>
<path d="M70.4185 55.791C70.3414 56.1552 70.2643 56.409 70.1706 56.7456L69.2344 59.9294H71.6081L70.6663 56.7456C70.5727 56.4035 70.479 56.1331 70.4185 55.791Z" fill="#80BC00"/>
<path d="M59.8489 54.6758H58.8906V57.4182H59.8654C60.9944 57.4182 61.4405 56.905 61.4405 56.0608C61.4405 55.1172 60.8457 54.6758 59.8489 54.6758Z" fill="#80BC00"/>
<path d="M50.2599 55.6361C49.5715 55.0623 48.8005 54.8691 47.2529 54.8691H47.1758V61.6064H47.2529C48.6462 61.6064 49.5109 61.3968 50.1993 60.856C50.9649 60.2601 51.4109 59.2834 51.4109 58.2461C51.4109 57.2087 50.9704 56.2541 50.2599 55.6416V55.6361Z" fill="#80BC00"/>
<path d="M38.0932 69.1272C38.0546 69.1162 38.0161 69.1106 37.9665 69.1051C37.9115 69.1051 37.8399 69.0996 37.7572 69.0996H37.5039V69.999H37.8178C37.9335 69.999 38.0216 69.988 38.0932 69.9604C38.1648 69.9383 38.2254 69.9052 38.2694 69.8666C38.3135 69.828 38.3465 69.7838 38.3631 69.7342C38.3906 69.6735 38.4016 69.6128 38.4016 69.5466C38.4016 69.4362 38.3796 69.3424 38.33 69.2707C38.286 69.21 38.2089 69.1548 38.0987 69.1272H38.0932Z" fill="#80BC00"/>
<path d="M90.8593 54.6758C88.7885 54.6758 87.5273 56.0221 87.5273 58.3065C87.5273 60.5909 88.75 61.9318 90.8593 61.9318C92.9686 61.9318 94.1912 60.5854 94.1912 58.3065C94.1912 56.0277 92.9466 54.6758 90.8593 54.6758Z" fill="#80BC00"/>
<path d="M67.7197 71.5124C67.8299 71.5731 67.9841 71.6007 68.1713 71.6007C68.3586 71.6007 68.5018 71.5676 68.6174 71.5069C68.7331 71.4407 68.8322 71.3524 68.9038 71.2476C68.9809 71.1262 69.036 70.9937 69.069 70.8448C69.1021 70.6847 69.1186 70.5137 69.1186 70.3316C69.1186 70.1495 69.1021 69.9564 69.069 69.8019C69.036 69.6474 68.9864 69.515 68.9093 69.4046C68.8432 69.2998 68.7496 69.217 68.6339 69.1563C68.5183 69.0956 68.3641 69.0625 68.1879 69.0625C68.0116 69.0625 67.8629 69.0956 67.7473 69.1618C67.6261 69.228 67.5325 69.3108 67.4609 69.4267C67.3838 69.537 67.3287 69.6695 67.2957 69.8184C67.2626 69.9785 67.2461 70.1495 67.2461 70.3206C67.2461 70.5192 67.2626 70.7068 67.2957 70.8668C67.3287 71.0269 67.3783 71.1593 67.4499 71.2641C67.516 71.369 67.6096 71.4517 67.7252 71.5124H67.7197Z" fill="#80BC00"/>
<path d="M78.9492 70.6515H79.7753L79.3623 69.4707L78.9492 70.6515Z" fill="#80BC00"/>
<path d="M43.793 70.6515H44.6136L44.2005 69.4707L43.793 70.6515Z" fill="#80BC00"/>
<path d="M61.4688 70.6515H62.2893L61.8763 69.4707L61.4688 70.6515Z" fill="#80BC00"/>
<path d="M61.4531 76.048H62.2737L61.8607 74.8672L61.4531 76.048Z" fill="#80BC00"/>
<path d="M96.589 69.3987C96.5174 69.2884 96.4293 69.2111 96.3136 69.1504C96.198 69.0897 96.0493 69.0566 95.8675 69.0566C95.6858 69.0566 95.5426 69.0897 95.4214 69.156C95.3058 69.2222 95.2122 69.3105 95.1406 69.4153C95.0635 69.5257 95.0084 69.6581 94.9754 69.8071C94.9423 69.9671 94.9258 70.1381 94.9258 70.3147C94.9258 70.5078 94.9423 70.6954 94.9754 70.861C95.0084 71.021 95.058 71.1479 95.1296 71.2583C95.1956 71.3686 95.2893 71.4459 95.3994 71.5066C95.5151 71.5673 95.6638 71.5948 95.851 71.5948C96.0383 71.5948 96.1815 71.5617 96.3026 71.4955C96.4183 71.4293 96.5119 71.3465 96.589 71.2362C96.6606 71.1203 96.7157 70.9879 96.7487 70.8334C96.7818 70.6734 96.7983 70.5023 96.7983 70.3202C96.7983 70.1271 96.7818 69.9505 96.7487 69.7905C96.7157 69.6305 96.6606 69.4981 96.589 69.3932V69.3987Z" fill="#80BC00"/>
<path d="M56.099 74.8272C56.0164 74.7223 55.9063 74.6451 55.7686 74.5844C55.6309 74.5237 55.4492 74.4961 55.2289 74.4961H54.8984V76.9571H55.2344C55.4437 76.9571 55.6199 76.9295 55.7576 76.8798C55.8898 76.8302 55.9999 76.7584 56.0825 76.6591C56.1761 76.5598 56.2422 76.4329 56.2863 76.2728C56.3303 76.1128 56.3579 75.9142 56.3579 75.6935C56.3579 75.5114 56.3359 75.3514 56.2918 75.1969C56.2477 75.0534 56.1872 74.9265 56.099 74.8217V74.8272Z" fill="#80BC00"/>
<path d="M58.9135 74.5237C58.8805 74.5126 58.8364 74.5071 58.7868 74.5016C58.7318 74.5016 58.6657 74.4961 58.5776 74.4961H58.3242V75.401H58.6381C58.7483 75.401 58.8364 75.39 58.9135 75.3624C58.9906 75.3348 59.0457 75.3072 59.0842 75.2686C59.1283 75.23 59.1613 75.1858 59.1834 75.1307C59.2054 75.07 59.2164 75.0093 59.2164 74.943C59.2164 74.8327 59.1944 74.7444 59.1448 74.6672C59.1063 74.6009 59.0237 74.5568 58.9135 74.5237Z" fill="#80BC00"/>
<path d="M98.5545 37.3284C98.5655 37.1022 98.571 36.8815 98.571 36.6553C98.571 28.3785 91.874 21.6743 83.6185 21.6743C81.0631 21.6743 78.6508 22.3199 76.547 23.4566C72.6478 16.024 64.8714 10.9531 55.9109 10.9531C43.0402 10.9531 32.6093 21.4094 32.6093 34.3047C32.6093 35.2482 32.6699 36.1752 32.78 37.0912C20.9777 37.963 11.6758 47.8289 11.6758 59.8744C11.6758 71.9198 21.8864 82.7293 34.4873 82.7293C38.3535 82.7293 43.222 81.7637 46.4107 80.0642C50.6734 85.5324 57.3098 89.0473 64.7723 89.0473C72.2348 89.0473 78.6453 85.6483 82.9191 80.3401C86.2125 82.1279 90.0015 82.9611 92.7552 83.1487C105.56 84.015 115.991 72.7255 115.991 59.8689C115.991 49.0208 108.583 39.9053 98.5655 37.3229L98.5545 37.3284ZM26.9257 60.5255C26.7439 60.7572 26.0941 60.8124 25.8793 60.6138C25.8683 60.4648 25.8572 60.3158 25.8407 60.1668C26.1546 59.8468 26.9147 59.9958 26.9257 60.5255ZM26.2207 50.323C26.061 50.9906 25.8738 50.1906 25.3285 50.3947C25.3175 50.2457 25.3065 50.0968 25.29 49.9423C25.7306 49.9202 25.6645 50.483 26.2207 50.3175V50.323ZM25.5158 45.4011C25.7306 45.5721 25.7746 46.0908 25.5929 46.3005C24.9926 46.4053 24.6016 45.2852 25.5158 45.4011ZM18.7032 50.494C18.7748 50.9631 19.2374 50.9631 19.2429 51.5093C18.6756 51.2445 17.9872 51.1231 17.2492 51.0734C17.3208 50.5327 18.2351 50.6982 18.7087 50.494H18.7032ZM18.4829 55.0407C17.789 55.0628 17.7449 54.9414 17.1336 55.1566C16.9573 54.6876 18.571 54.5552 18.4829 55.0407ZM18.6701 64.537C17.855 64.4818 17.4695 64.9398 16.8747 64.6915C16.8637 64.537 16.8527 64.388 16.8362 64.239C17.6568 64.1231 18.1965 63.9686 18.6701 64.537ZM15.6851 48.64C15.6466 48.8387 15.4428 48.8994 15.4263 49.1146C15.2225 49.0815 15.173 48.8718 14.9527 48.8497C14.9361 48.4635 15.4759 48.4469 15.6851 48.64ZM15.0022 51.261C14.815 50.7313 15.575 51.0072 15.8724 50.8858C16.0596 51.4155 15.3051 51.1396 15.0022 51.261ZM18.1359 67.1469C17.6623 66.9869 17.095 66.9483 16.5994 66.8269C17.4034 66.2972 18.5435 66.2641 19.7275 66.413C19.4687 67.031 18.4498 66.4241 18.1359 67.1524V67.1469ZM19.32 50.5989C19.2539 50.3616 19.4357 50.3285 19.4302 50.1354C19.8157 50.1243 20.0305 50.3064 20.08 50.6816C19.7386 50.7589 19.5017 50.7037 19.32 50.5989ZM20.6473 66.4848C20.4655 66.6779 20.4105 66.562 20.1957 66.5234C20.3499 66.242 21.4348 65.5798 21.4183 66.722C20.9502 66.8931 20.9392 66.5289 20.6473 66.4848ZM22.2279 67.4062C22.1288 66.8986 23.043 66.7 22.9714 67.3456C22.7236 67.3676 22.4757 67.3897 22.2279 67.4062ZM23.9737 63.0361C23.803 62.4678 24.6401 62.396 24.5685 62.9865C24.3647 63.003 24.172 63.0196 23.9737 63.0361ZM25.4662 46.6095C25.6094 46.7695 25.692 46.9902 25.681 47.3489C25.4717 47.1557 24.9651 47.3158 24.7558 47.1226C24.8329 46.8192 25.1193 46.6867 25.4662 46.6095ZM24.8329 62.5064C25.3946 62.5505 26.386 62.0926 26.3639 62.832C25.9509 62.9478 25.4056 63.1465 24.8714 62.9589C24.8604 62.8044 24.8439 62.6554 24.8329 62.5064ZM25.0697 76.2183C25.268 76.1962 25.4662 76.1851 25.6645 76.1686C25.681 76.3672 25.6975 76.5659 25.7141 76.77C25.2514 76.8749 25.0311 76.6983 25.0697 76.2183ZM26.1051 77.7908C26.028 77.3991 26.2703 77.2832 26.6613 77.2942C26.6723 77.4487 26.6889 77.5977 26.6999 77.7467C26.5016 77.7633 26.3033 77.7798 26.1051 77.7964V77.7908ZM25.8022 61.5187C25.9178 60.8897 26.4631 61.4304 26.9863 61.2704C27.135 62.3353 26.1657 61.6898 25.8022 61.5187ZM30.2631 43.8726C30.0759 43.3429 30.8359 43.6133 31.1333 43.4974C31.1884 44.2037 30.7313 43.8174 30.2631 43.8726ZM30.522 41.5827C30.5495 40.7826 31.9759 40.7109 32.3009 41.2847C32.0696 41.9083 30.9901 41.8421 30.522 41.5827ZM97.1501 50.6044C97.2437 50.6044 97.3318 50.5934 97.3153 50.4664C97.4144 50.4775 97.5136 50.483 97.6127 50.4885C97.6127 50.5823 97.6182 50.6651 97.7449 50.6541C97.7394 50.7534 97.7284 50.8527 97.7173 50.952C97.6237 50.952 97.5411 50.9575 97.5576 51.09C97.453 51.0789 97.3594 51.0734 97.2547 51.0679C97.2547 50.9741 97.2492 50.8858 97.117 50.9079C97.1225 50.8086 97.1336 50.7092 97.1391 50.6099L97.1501 50.6044ZM96.0156 40.6999C96.0046 40.8488 95.9935 40.9978 95.977 41.1468C95.2721 40.9868 94.3193 41.1634 94.0329 40.9868C94.3578 40.2419 95.2611 40.446 96.0156 40.6999ZM94.7929 48.1434C94.2312 48.2428 94.2587 47.3599 94.7048 47.382C94.8205 47.5696 94.87 47.8013 94.7929 48.1434ZM93.339 38.5148C93.2949 38.9176 92.9369 39.21 92.7056 38.9121C92.6891 38.5148 92.948 38.4375 93.339 38.5148ZM87.8261 35.9711H91.4279V48.7725H87.8261V35.9711ZM78.4856 35.9711H87.4076V39.0224H84.731V48.7725H81.1677V39.0224H78.4856V35.9711ZM70.2686 35.9711H78.045V38.9838H73.8264V40.8433H76.9986V43.7843H73.8264V45.7597H78.0616V48.7725H70.2686V35.9711ZM73.1765 64.6528L72.4496 62.5616H68.3851L67.6581 64.6528H61.9525L59.3255 60.5862C59.1548 60.3379 59.0391 60.1282 58.8464 59.7806C58.8849 60.1116 58.8849 60.2993 58.8849 60.5696V64.6528H55.3437V51.8569H60.0139C63.098 51.8569 64.7833 53.4626 64.7833 56.0174C64.7833 57.7224 63.9186 58.7046 62.5033 59.2233L64.6676 62.6885L68.5173 51.8128H72.3504L76.8499 64.6473H73.1765V64.6528ZM73.3418 70.2755C73.3418 70.5956 73.2977 70.8825 73.2151 71.1253C73.1325 71.3736 73.0058 71.5833 72.8406 71.7433C72.6809 71.9088 72.4771 72.0357 72.2348 72.113C71.9979 72.1902 71.7226 72.2344 71.4087 72.2344H70.6652C70.5936 72.2344 70.522 72.2123 70.4614 72.1626C70.4118 72.124 70.3512 72.0468 70.3512 71.9033V68.7581C70.3512 68.6422 70.3898 68.554 70.4669 68.4933C70.533 68.4436 70.5991 68.4215 70.6707 68.4215H71.4692C71.7887 68.4215 72.064 68.4657 72.2898 68.5484C72.5212 68.6367 72.7139 68.7636 72.8736 68.9237C73.0278 69.0837 73.149 69.2823 73.2261 69.5141C73.3032 69.7403 73.3473 69.9996 73.3473 70.2755H73.3418ZM66.4906 68.6533C66.4906 68.6919 66.4741 68.7361 66.452 68.7857L65.3065 72.0578C65.2955 72.0964 65.2735 72.1295 65.2404 72.1626C65.2129 72.1902 65.1743 72.2123 65.1303 72.2288C65.0917 72.2399 65.0587 72.2454 65.0091 72.2509C64.965 72.2509 64.921 72.2509 64.8604 72.2509C64.7723 72.2509 64.7062 72.2509 64.6566 72.2399C64.6291 72.2399 64.6016 72.2288 64.5795 72.2233C64.552 72.2178 64.5245 72.2013 64.5024 72.1847C64.4749 72.1626 64.4474 72.1406 64.4308 72.1075C64.4253 72.0964 64.4088 72.0744 64.4033 72.0468L63.2523 68.7692C63.2302 68.714 63.2192 68.6643 63.2192 68.6257C63.2192 68.5595 63.2467 68.4933 63.3018 68.4546C63.3294 68.427 63.3789 68.4105 63.4505 68.3995C63.5386 68.3995 63.6763 68.3995 63.7479 68.3995C63.792 68.3995 63.8305 68.4105 63.8581 68.4271C63.8966 68.4436 63.9242 68.4657 63.9517 68.4988C63.9737 68.5319 63.9902 68.5595 63.9957 68.5816L64.8714 71.1584L65.7251 68.5981C65.7251 68.5981 65.7416 68.5484 65.7471 68.5319C65.7746 68.4822 65.8132 68.4546 65.8627 68.4326C65.9013 68.4215 65.9398 68.4105 65.9839 68.405C66.0555 68.405 66.2042 68.405 66.2758 68.405C66.3419 68.416 66.3915 68.4381 66.4245 68.4712C66.4686 68.5098 66.4851 68.5705 66.4796 68.6422L66.4906 68.6533ZM54.8866 68.6367C54.8866 68.5926 54.8976 68.554 54.9251 68.5153C54.9416 68.4877 54.9802 68.4491 55.0463 68.4326C55.0628 68.427 55.0958 68.416 55.1399 68.4105C55.2115 68.3995 55.3382 68.3995 55.4043 68.4105C55.4428 68.4105 55.4759 68.4215 55.5034 68.4326C55.5419 68.4436 55.5805 68.4767 55.608 68.5098C55.6356 68.554 55.6466 68.5871 55.6466 68.6312V72.0192C55.6466 72.0578 55.6356 72.1019 55.6135 72.135C55.586 72.1737 55.553 72.2013 55.5034 72.2178C55.4703 72.2289 55.4373 72.2344 55.3988 72.2399C55.3657 72.2399 55.3216 72.2509 55.2666 72.2509C55.2115 72.2509 55.173 72.2509 55.1344 72.2399C55.0903 72.2344 55.0573 72.2289 55.0353 72.2178C54.9857 72.1957 54.9471 72.1682 54.9251 72.1295C54.9086 72.1075 54.8921 72.0633 54.8921 72.0192V68.6312L54.8866 68.6367ZM48.0464 64.6528H43.5855V51.8569H48.0464C52.199 51.8569 54.9471 54.3676 54.9471 58.2411C54.9471 61.2759 52.7828 64.6528 48.0464 64.6528ZM65.5378 44.7224V35.9711H69.1176V45.4728C69.1176 46.8688 68.8863 47.6965 68.3135 48.2317C67.7573 48.7725 66.8375 49.0539 65.692 49.0539C64.4253 49.0539 63.3514 48.767 62.4317 48.171L63.7699 45.4673C64.2326 45.7928 64.5024 45.8866 64.8439 45.8866C65.3451 45.8866 65.5323 45.5666 65.5323 44.7169L65.5378 44.7224ZM57.3924 35.9711L58.8298 41.8089C58.962 42.3276 59.0391 42.6697 59.1383 43.2657C59.2319 42.6918 59.309 42.3442 59.4412 41.8089L60.8786 35.9711H64.4253L60.8621 48.7725H57.4144L53.8512 35.9711H57.3979H57.3924ZM49.8253 35.9711H53.4271V48.7725H49.8253V35.9711ZM48.4595 27.9867C50.0236 32.9252 44.3895 34.6302 44.3895 34.6302C44.3895 34.6302 44.3234 28.0529 48.4595 27.9867ZM41.2558 30.089C44.4336 30.8615 44.015 34.6357 44.015 34.6357C40.292 33.775 40.6665 32.0203 41.2558 30.089ZM39.4109 38.9286L39.6807 35.9711H49.258L44.4281 45.7763H49.0598L48.7954 48.7725H39.0639L43.9104 38.9286H39.4054H39.4109ZM33.4354 54.809L33.7052 51.8569H43.277L38.4526 61.6677H43.0898L42.8254 64.6528H33.0939L37.9459 54.809H33.4409H33.4354ZM36.0954 72.0247C36.0954 72.0743 36.0789 72.124 36.0459 72.1571C36.0293 72.1792 35.9963 72.2068 35.9522 72.2233C35.9192 72.2344 35.8862 72.2399 35.8531 72.2454C35.8201 72.2454 35.7705 72.2564 35.7209 72.2564C35.6659 72.2564 35.6218 72.2564 35.5833 72.2454C35.5447 72.2399 35.5117 72.2344 35.4841 72.2233C35.429 72.2013 35.396 72.1737 35.374 72.135C35.3519 72.1075 35.3409 72.0633 35.3409 72.0247V70.6011H34.0247V72.0247C34.0247 72.0633 34.0137 72.1075 33.9916 72.1406C33.9641 72.1792 33.931 72.2068 33.8815 72.2233C33.8484 72.2344 33.8154 72.2399 33.7823 72.2454C33.7163 72.2564 33.6006 72.2564 33.518 72.2454C33.4849 72.2454 33.4519 72.2344 33.4189 72.2233C33.3748 72.2068 33.3362 72.1792 33.3087 72.1461C33.2867 72.113 33.2702 72.0688 33.2702 72.0247V68.6367C33.2702 68.5981 33.2812 68.5595 33.3032 68.5264C33.3307 68.4933 33.3638 68.4546 33.4244 68.4381C33.4409 68.4326 33.4739 68.4215 33.5125 68.416C33.5951 68.405 33.7107 68.405 33.7823 68.416C33.8209 68.4215 33.8539 68.4271 33.8815 68.4381C33.92 68.4491 33.9586 68.4822 33.9861 68.5153C34.0137 68.5595 34.0247 68.5926 34.0247 68.6367V69.9058H35.3409V68.6367C35.3409 68.5981 35.3519 68.5595 35.374 68.5264C35.4015 68.4877 35.4401 68.4546 35.4951 68.4381C35.5172 68.4271 35.5447 68.4215 35.5888 68.416C35.6604 68.4105 35.7815 68.405 35.8586 68.416C35.9027 68.4215 35.9357 68.4271 35.9578 68.4381C35.9963 68.4491 36.0349 68.4822 36.0624 68.5153C36.0844 68.5429 36.1009 68.5871 36.1009 68.6367V72.0247H36.0954ZM39.3503 72.135C39.3338 72.1737 39.2897 72.2068 39.2401 72.2288C39.2126 72.2399 39.1741 72.2509 39.1355 72.2509C39.0914 72.2509 39.0474 72.2509 38.9868 72.2509C38.9317 72.2509 38.8877 72.2509 38.8546 72.2509C38.8051 72.2454 38.772 72.2344 38.7445 72.2233C38.6949 72.2013 38.6564 72.1682 38.6343 72.1295C38.6178 72.1075 38.6013 72.0743 38.5903 72.0412L38.2708 71.2191C38.2378 71.1308 38.1993 71.048 38.1607 70.9763C38.1277 70.9101 38.0891 70.8549 38.0395 70.8052C38.001 70.7666 37.9514 70.7335 37.8908 70.7059C37.8358 70.6838 37.7587 70.6728 37.6705 70.6728H37.4998V72.0302C37.4998 72.0743 37.4833 72.1185 37.4558 72.1571C37.4337 72.1847 37.4007 72.2123 37.3566 72.2288C37.3291 72.2399 37.296 72.2454 37.2575 72.2509C37.1859 72.262 37.0647 72.262 36.9876 72.2509C36.9491 72.2454 36.9215 72.2399 36.8885 72.2288C36.8444 72.2123 36.8059 72.1847 36.7839 72.1516C36.7673 72.135 36.7508 72.0909 36.7508 72.0302V68.7636C36.7508 68.6478 36.7894 68.5595 36.861 68.4988C36.9271 68.4491 36.9931 68.4271 37.0647 68.4271H37.8137C37.9074 68.4271 37.9845 68.4271 38.0506 68.4271L38.2103 68.4436C38.37 68.4712 38.5077 68.5098 38.6178 68.5705C38.739 68.6312 38.8436 68.7029 38.9262 68.7967C39.0088 68.8905 39.0749 68.9954 39.1135 69.1113C39.152 69.2271 39.1741 69.354 39.1741 69.492C39.1741 69.6299 39.1575 69.7513 39.119 69.8562C39.0749 69.972 39.0254 70.0714 38.9538 70.1486C38.8877 70.2259 38.8106 70.2976 38.7059 70.3583C38.6839 70.3749 38.6619 70.3859 38.6398 70.3969C38.6784 70.4356 38.7169 70.4742 38.75 70.5238C38.794 70.5845 38.8381 70.6507 38.8767 70.7335C38.9152 70.8052 38.9538 70.8935 38.9923 70.9818L39.3062 71.7598C39.3338 71.8316 39.3503 71.8812 39.3613 71.9143C39.3723 71.953 39.3778 71.9861 39.3778 72.0136C39.3778 72.0412 39.3778 72.0799 39.3503 72.124V72.135ZM41.5147 72.1626C41.4871 72.1902 41.4541 72.2123 41.41 72.2288C41.3715 72.2399 41.3385 72.2454 41.2889 72.2509C41.2448 72.2509 41.1953 72.2509 41.1402 72.2509C41.0466 72.2509 40.986 72.2509 40.9364 72.2399C40.9089 72.2399 40.8868 72.2288 40.8648 72.2233C40.8318 72.2123 40.8097 72.2013 40.7932 72.1902C40.7602 72.1682 40.7381 72.1461 40.7216 72.1185C40.7051 72.0964 40.6996 72.0743 40.6941 72.0578L39.543 68.7692C39.5265 68.714 39.5155 68.6754 39.51 68.6312C39.51 68.5595 39.5375 68.4933 39.5926 68.4546C39.6202 68.427 39.6697 68.4105 39.7358 68.3995C39.8184 68.3995 39.9561 68.3995 40.0332 68.3995C40.0718 68.3995 40.1103 68.4105 40.1434 68.4215C40.1819 68.4381 40.2205 68.4602 40.2425 68.4988C40.259 68.5264 40.27 68.5484 40.281 68.5705L41.1567 71.1529L42.0048 68.5871C42.0048 68.5871 42.0214 68.5374 42.0379 68.5098C42.0654 68.4546 42.126 68.4271 42.148 68.4215C42.1866 68.4105 42.2251 68.3995 42.2692 68.3939C42.3408 68.3939 42.4895 68.3939 42.5611 68.3939C42.6327 68.405 42.6822 68.427 42.7153 68.4712C42.7483 68.4988 42.7704 68.565 42.7593 68.6367C42.7593 68.6698 42.7428 68.7085 42.7263 68.7581L41.5753 72.0357C41.5587 72.0744 41.5422 72.1075 41.5092 72.1406L41.5147 72.1626ZM45.8049 72.1847C45.7498 72.2289 45.6948 72.2399 45.6562 72.2454C45.6122 72.2454 45.5626 72.2454 45.502 72.2454C45.4414 72.2454 45.3919 72.2454 45.3533 72.2454C45.3038 72.2454 45.2707 72.2344 45.2432 72.2233C45.1936 72.2068 45.1551 72.1792 45.1275 72.1406C45.1165 72.124 45.1 72.1019 45.0945 72.0743L44.8246 71.3018H43.5634L43.3101 72.0523C43.3101 72.0523 43.2881 72.1075 43.2715 72.135C43.244 72.1626 43.2165 72.1902 43.1779 72.2068C43.1504 72.2178 43.1118 72.2289 43.0623 72.2344C42.9796 72.2454 42.8475 72.2344 42.7704 72.2344C42.7043 72.2289 42.6547 72.2068 42.6217 72.1737C42.5831 72.135 42.5556 72.0854 42.5556 72.0026C42.5556 71.9695 42.5666 71.9254 42.5831 71.8702L43.7617 68.5926C43.7782 68.554 43.7947 68.5264 43.8168 68.4988C43.8608 68.4546 43.8994 68.4381 43.9324 68.4271C43.9765 68.416 44.015 68.4105 44.0591 68.405C44.1362 68.405 44.2794 68.405 44.3565 68.405C44.4005 68.405 44.4446 68.416 44.4832 68.4215C44.5272 68.4381 44.5658 68.4602 44.5988 68.4933C44.6263 68.5264 44.6429 68.554 44.6539 68.5816L45.838 71.8702C45.86 71.9309 45.871 71.975 45.871 72.0136C45.871 72.0633 45.8545 72.1295 45.8049 72.1737V72.1847ZM48.6357 68.874C48.6302 68.9181 48.6192 68.9512 48.6027 68.9844C48.5861 69.0119 48.5641 69.0451 48.5201 69.0726C48.487 69.0947 48.4485 69.1057 48.4044 69.1057H47.5563V72.0247C47.5563 72.0633 47.5452 72.1075 47.5232 72.1406C47.4957 72.1792 47.4626 72.2068 47.4131 72.2233C47.3855 72.2344 47.3525 72.2399 47.3139 72.2454C47.2754 72.2454 47.2313 72.2564 47.1818 72.2564C47.1322 72.2564 47.0881 72.2564 47.0496 72.2454C47.0055 72.2399 46.9725 72.2344 46.9505 72.2233C46.9009 72.2068 46.8678 72.1792 46.8403 72.1461C46.8183 72.113 46.8073 72.0688 46.8073 72.0247V69.1057H45.9591C45.9206 69.1057 45.882 69.0947 45.8435 69.0782C45.7994 69.0451 45.7719 69.0119 45.7609 68.9733C45.7498 68.9623 45.7388 68.9237 45.7333 68.8905C45.7223 68.8464 45.7223 68.8078 45.7223 68.7692C45.7223 68.725 45.7223 68.6864 45.7333 68.6533C45.7443 68.6147 45.7498 68.5816 45.7664 68.5484C45.7774 68.5264 45.7994 68.4933 45.8325 68.4712C45.882 68.4381 45.9206 68.4271 45.9591 68.4271H48.4099C48.454 68.4271 48.487 68.4381 48.5201 68.4546C48.5641 68.4822 48.5916 68.5209 48.6027 68.5429C48.6247 68.5871 48.6302 68.6202 48.6357 68.6588C48.6357 68.6919 48.6412 68.725 48.6412 68.7692C48.6412 68.8078 48.6412 68.8409 48.6357 68.8795V68.874ZM50.4421 72.2123C50.2769 72.262 50.1062 72.284 49.9244 72.284C49.7978 72.284 49.6766 72.273 49.5665 72.2454C49.4673 72.2288 49.3682 72.2013 49.2746 72.1681C49.192 72.1406 49.1148 72.1019 49.0543 72.0688C48.9882 72.0302 48.9386 71.9971 48.9111 71.964C48.878 71.9309 48.8505 71.8867 48.834 71.826C48.823 71.7819 48.8119 71.7267 48.8119 71.6495C48.8119 71.5998 48.8119 71.5612 48.8119 71.5336C48.8175 71.495 48.823 71.4674 48.8395 71.4288C48.8615 71.3736 48.9001 71.3405 48.9276 71.3239C48.9772 71.2908 49.0873 71.2798 49.2195 71.3625C49.2635 71.3901 49.3186 71.4232 49.3847 71.4563C49.4508 71.4895 49.5279 71.5226 49.6215 71.5502C49.7757 71.5998 50.0015 71.6109 50.1723 71.5612C50.2383 71.5391 50.2989 71.506 50.343 71.4674C50.3815 71.4343 50.4201 71.3901 50.4421 71.335C50.4697 71.2853 50.4752 71.2191 50.4752 71.1474C50.4752 71.0756 50.4586 71.0149 50.4311 70.9708C50.3926 70.9101 50.3485 70.8604 50.2879 70.8163C50.2163 70.7666 50.1392 70.7225 50.0566 70.6839L49.7592 70.5459C49.6601 70.5018 49.5554 70.4466 49.4563 70.3859C49.3517 70.3197 49.2525 70.2479 49.1754 70.1652C49.0873 70.0714 49.0212 69.972 48.9661 69.8562C48.9111 69.7348 48.8835 69.5968 48.8835 69.4258C48.8835 69.2547 48.9111 69.1057 48.9772 68.9733C49.0433 68.8409 49.1314 68.725 49.2415 68.6312C49.3517 68.5429 49.4838 68.4712 49.6325 68.4271C49.8473 68.3608 50.1062 68.3443 50.3595 68.3829C50.4476 68.3995 50.5247 68.416 50.6073 68.4436C50.6844 68.4657 50.7505 68.4933 50.8166 68.5264C50.8827 68.5595 50.9268 68.5871 50.9543 68.6147C50.9874 68.6478 51.0039 68.6698 51.0149 68.6974C51.0259 68.714 51.0314 68.7305 51.0369 68.7636C51.0424 68.7912 51.0479 68.8133 51.0479 68.8409C51.0479 68.863 51.0479 68.8961 51.0479 68.9402C51.0479 68.9733 51.0479 69.0064 51.0479 69.0395C51.0369 69.0947 51.0369 69.1168 51.0259 69.1389C51.0094 69.1885 50.9818 69.2271 50.9378 69.2547C50.9213 69.2768 50.8056 69.3154 50.6624 69.2271C50.6239 69.2051 50.5743 69.1775 50.5247 69.1499C50.4586 69.1168 50.3926 69.0892 50.3155 69.0671C50.1888 69.0285 49.985 69.023 49.8694 69.0671C49.8143 69.0892 49.7702 69.1113 49.7372 69.1444C49.7041 69.1775 49.6821 69.2106 49.6656 69.2492C49.6491 69.2934 49.638 69.3375 49.638 69.3872C49.638 69.4534 49.6546 69.5141 49.6821 69.5637C49.7152 69.6189 49.7702 69.6686 49.8308 69.7127C49.8969 69.7624 49.974 69.8065 50.0676 69.8507L50.3595 69.9886C50.4586 70.0327 50.5633 70.0879 50.6624 70.1486C50.7726 70.2093 50.8662 70.2866 50.9488 70.3693C51.0314 70.4521 51.103 70.5569 51.1581 70.6783C51.2132 70.7997 51.2407 70.9377 51.2407 71.0977C51.2407 71.2853 51.2021 71.4563 51.1361 71.5998C51.0645 71.7433 50.9708 71.8702 50.8442 71.975C50.7285 72.0744 50.5798 72.1516 50.4146 72.2068L50.4421 72.2123ZM53.708 77.3991C53.708 77.4322 53.697 77.4653 53.6805 77.4984C53.6529 77.5481 53.6254 77.5812 53.5923 77.6032C53.5648 77.6198 53.5262 77.6363 53.4767 77.6363H51.3949C51.3123 77.6363 51.2352 77.6088 51.1801 77.5536C51.1416 77.515 51.092 77.4377 51.092 77.3108V77.2059C51.092 77.1784 51.092 77.1508 51.092 77.1232C51.092 77.0956 51.103 77.0625 51.1195 77.0183C51.1305 76.9908 51.1471 76.9632 51.1636 76.9301L51.2297 76.8197L52.7112 74.4967H51.3674C51.3233 74.4967 51.2847 74.4857 51.2517 74.4691C51.2132 74.4415 51.1911 74.4194 51.1691 74.3918C51.1471 74.3532 51.1361 74.3146 51.1305 74.2705C51.1305 74.2374 51.125 74.2042 51.125 74.1656C51.125 74.127 51.125 74.0829 51.1305 74.0553C51.1305 74.0056 51.1471 73.9725 51.1636 73.9394C51.1801 73.9063 51.2076 73.8732 51.2407 73.8511C51.2792 73.829 51.3233 73.818 51.3619 73.818H53.317C53.4326 73.818 53.4987 73.8677 53.5373 73.9063C53.5868 73.9615 53.6199 74.0387 53.6199 74.1325V74.2429C53.6199 74.2815 53.6199 74.3146 53.6144 74.3422C53.6089 74.3808 53.5978 74.4139 53.5868 74.4415C53.5758 74.4691 53.5648 74.5022 53.5428 74.5353C53.5318 74.5629 53.5042 74.6015 53.4712 74.6457L52.0007 76.9521H53.4602C53.5428 76.9521 53.6199 77.0018 53.6584 77.079C53.686 77.1232 53.697 77.1949 53.697 77.2887C53.697 77.3329 53.697 77.3715 53.686 77.3991H53.708ZM53.9613 72.2509C53.8897 72.2509 53.8292 72.2509 53.7851 72.2399C53.741 72.2399 53.6749 72.2233 53.6254 72.1792C53.5923 72.1571 53.5703 72.1295 53.5483 72.0964L52.5129 70.6894V72.0192C52.5129 72.0578 52.5019 72.0964 52.4799 72.1295C52.4578 72.1682 52.4193 72.1957 52.3697 72.2178C52.3367 72.2289 52.3036 72.2344 52.2651 72.2399C52.2045 72.2509 52.0778 72.2509 52.0007 72.2399C51.9566 72.2344 51.9236 72.2289 51.9016 72.2178C51.8575 72.2013 51.819 72.1737 51.7969 72.1406C51.7694 72.0964 51.7584 72.0578 51.7584 72.0192V68.6312C51.7584 68.5926 51.7694 68.554 51.7859 68.5209C51.819 68.4767 51.8575 68.4491 51.9016 68.4326C51.9236 68.4215 51.9511 68.416 51.9952 68.4105C52.0778 68.3995 52.1935 68.405 52.2596 68.4105C52.2981 68.4105 52.3312 68.4215 52.3587 68.4326C52.4027 68.4491 52.4468 68.4767 52.4688 68.5209C52.4909 68.5595 52.5019 68.5926 52.5019 68.6312V69.79L53.4932 68.5429C53.4932 68.5429 53.5318 68.4988 53.5593 68.4767C53.5813 68.4602 53.6144 68.4381 53.6474 68.4271C53.686 68.416 53.7135 68.4105 53.752 68.405C53.8402 68.3995 53.9558 68.405 54.0219 68.405C54.055 68.405 54.088 68.416 54.121 68.4271C54.1706 68.4491 54.2037 68.4767 54.2312 68.5153C54.2532 68.5595 54.2587 68.5926 54.2587 68.6257C54.2587 68.6698 54.2477 68.714 54.2257 68.7581C54.2037 68.7967 54.1816 68.8354 54.1431 68.885L53.0416 70.1983L54.2312 71.7819C54.2808 71.8591 54.3028 71.8923 54.3083 71.9254C54.3193 71.9474 54.3248 71.9805 54.3248 72.0136C54.3248 72.0523 54.3138 72.0854 54.2973 72.1185C54.2863 72.1461 54.2532 72.1847 54.1871 72.2123C54.1596 72.2233 54.1265 72.2289 54.0825 72.2344C54.0494 72.2344 53.9999 72.2454 53.9448 72.2454L53.9613 72.2509ZM56.9959 76.5162C56.9078 76.7645 56.7811 76.9742 56.6214 77.1397C56.4617 77.2998 56.2524 77.4267 56.0156 77.5094C55.7843 77.5867 55.5034 77.6253 55.1895 77.6253H54.446C54.3744 77.6253 54.3083 77.6032 54.2422 77.5591C54.1871 77.5149 54.1265 77.4377 54.1265 77.2942V74.1491C54.1265 74.0056 54.1871 73.9283 54.2367 73.8897C54.3028 73.8401 54.3689 73.818 54.446 73.818H55.2445C55.564 73.818 55.8393 73.8621 56.0651 73.9449C56.2965 74.0332 56.4892 74.1601 56.6489 74.3201C56.8031 74.4857 56.9243 74.6843 57.0014 74.9105C57.0785 75.1368 57.1171 75.3961 57.1171 75.672C57.1171 75.992 57.073 76.2734 56.9959 76.5162ZM60.1736 77.5094C60.1406 77.5701 60.102 77.6032 60.0525 77.6198C60.0304 77.6308 59.9919 77.6363 59.9533 77.6419C59.9038 77.6419 59.8542 77.6474 59.7991 77.6474C59.7496 77.6474 59.7055 77.6474 59.6725 77.6474C59.6119 77.6363 59.5788 77.6253 59.5458 77.6143C59.5072 77.6032 59.4687 77.5646 59.4467 77.526C59.4356 77.5039 59.4191 77.4763 59.4081 77.4432L59.0887 76.6211C59.0501 76.5328 59.0171 76.4445 58.9785 76.3728C58.9455 76.3065 58.9014 76.2514 58.8574 76.2017C58.8133 76.1576 58.7638 76.1245 58.7087 76.0969C58.6481 76.0748 58.5765 76.0638 58.4884 76.0638H58.3177V77.4211C58.3177 77.4598 58.3066 77.4984 58.2846 77.5315C58.2406 77.5867 58.2075 77.6032 58.1745 77.6143C58.1414 77.6253 58.1084 77.6308 58.0698 77.6363C58.0037 77.6474 57.8716 77.6529 57.7945 77.6363C57.7614 77.6308 57.7284 77.6253 57.6953 77.6087C57.6733 77.6032 57.6237 77.5812 57.5962 77.537C57.5742 77.4929 57.5631 77.4598 57.5631 77.4156V74.1491C57.5631 74.0332 57.6017 73.9449 57.6788 73.8842C57.7394 73.8401 57.8055 73.8125 57.8826 73.8125H58.6316C58.7252 73.8125 58.8023 73.8125 58.8629 73.818C58.9235 73.818 58.984 73.829 59.0281 73.8345C59.1823 73.8621 59.3145 73.9008 59.4301 73.9614C59.5568 74.0221 59.6615 74.0994 59.7386 74.1932C59.8212 74.276 59.8817 74.3808 59.9258 74.5022C59.9644 74.6181 59.9864 74.745 59.9864 74.8829C59.9864 75.0209 59.9699 75.1368 59.9313 75.2471C59.8928 75.3575 59.8377 75.4568 59.7661 75.5451C59.7 75.6278 59.6174 75.6996 59.5183 75.7603C59.4962 75.7713 59.4742 75.7879 59.4522 75.7934C59.4907 75.832 59.5293 75.8706 59.5623 75.9203C59.6064 75.9755 59.6449 76.0417 59.689 76.13C59.7275 76.2017 59.7661 76.29 59.8046 76.3838L60.1186 77.1618C60.1461 77.228 60.1626 77.2777 60.1736 77.3108C60.1847 77.3494 60.1902 77.3825 60.1902 77.4156C60.1902 77.4487 60.1847 77.4818 60.1736 77.5039V77.5094ZM63.456 77.5867C63.412 77.6253 63.3624 77.6363 63.3183 77.6419C63.2688 77.6419 63.2192 77.6474 63.1586 77.6474C63.098 77.6474 63.0485 77.6474 63.0154 77.6474C62.9659 77.6474 62.9328 77.6363 62.9053 77.6253C62.8557 77.6032 62.8227 77.5812 62.7951 77.5425C62.7841 77.537 62.7676 77.5094 62.7566 77.4763L62.4867 76.7038H61.2255L60.9722 77.4543C60.9612 77.4874 60.9447 77.5149 60.9226 77.5425C60.8951 77.5756 60.8621 77.6032 60.8235 77.6143C60.807 77.6253 60.7684 77.6308 60.7244 77.6419C60.6197 77.6529 60.4986 77.6529 60.427 77.6419C60.3884 77.6419 60.3223 77.6253 60.2783 77.5756C60.2397 77.537 60.2177 77.4818 60.2177 77.4156C60.2177 77.366 60.2342 77.3163 60.2452 77.2722L61.4293 73.9946C61.4403 73.9615 61.4624 73.9283 61.4844 73.9008C61.5064 73.8732 61.545 73.8456 61.6 73.829C61.6386 73.8125 61.6827 73.8069 61.7267 73.8069C61.7983 73.8069 61.9415 73.8069 62.0186 73.8069C62.0627 73.8069 62.1067 73.8125 62.1398 73.8235C62.1948 73.8401 62.2334 73.8676 62.2609 73.9008C62.283 73.9228 62.305 73.9615 62.316 74.0001L63.4946 77.2722C63.5166 77.3273 63.5276 77.3715 63.5276 77.4101C63.5276 77.4818 63.5056 77.5425 63.456 77.5812V77.5867ZM63.4781 72.1847C63.4395 72.2178 63.3899 72.2344 63.3294 72.2454C63.2853 72.2454 63.2357 72.2454 63.1752 72.2454C63.1146 72.2454 63.065 72.2454 63.032 72.2454C62.9824 72.2454 62.9493 72.2344 62.9218 72.2233C62.8667 72.2068 62.8337 72.1737 62.8062 72.1406C62.7951 72.124 62.7841 72.1019 62.7731 72.0743L62.5033 71.3018H61.2421L60.9887 72.0523C60.9887 72.0523 60.9667 72.1075 60.9502 72.135C60.9226 72.1626 60.8951 72.1902 60.8566 72.2068C60.818 72.2233 60.785 72.2288 60.7409 72.2399C60.6583 72.2509 60.5261 72.2509 60.449 72.2399C60.3829 72.2344 60.3389 72.2178 60.3058 72.1847C60.2838 72.1626 60.2838 72.124 60.2728 72.0964V72.1075C60.2507 72.1516 60.2232 72.1792 60.1902 72.2013C60.1571 72.2233 60.1186 72.2344 60.0745 72.2344H57.9982C57.9156 72.2344 57.844 72.2068 57.7834 72.1516C57.7229 72.0909 57.6953 72.0081 57.6953 71.9088V71.804C57.6953 71.7764 57.6953 71.7433 57.6953 71.7212C57.6953 71.6936 57.7063 71.6605 57.7229 71.6219C57.7339 71.5998 57.7449 71.5667 57.7669 71.5281L57.7889 71.4895C57.7889 71.4895 57.8165 71.4453 57.833 71.4177L59.32 69.0947H57.9707C57.9321 69.0947 57.8936 69.0837 57.855 69.0671C57.811 69.045 57.7889 69.0119 57.7724 68.9844C57.7504 68.9512 57.7394 68.9126 57.7339 68.8685C57.7339 68.8409 57.7284 68.8023 57.7284 68.7636C57.7284 68.7195 57.7284 68.6809 57.7339 68.6478C57.7394 68.6036 57.7504 68.5705 57.7669 68.5374C57.7889 68.4988 57.811 68.4767 57.8385 68.4491C57.8881 68.4215 57.9266 68.416 57.9707 68.416H59.9313C60.0139 68.416 60.091 68.4436 60.1461 68.4933C60.2067 68.554 60.2342 68.6312 60.2342 68.725V68.8354C60.2342 68.874 60.2342 68.9016 60.2287 68.9347C60.2232 68.9733 60.2122 69.0009 60.2012 69.034C60.1902 69.0616 60.1736 69.1002 60.1516 69.1333C60.1351 69.1609 60.1131 69.1996 60.0855 69.2382L58.6151 71.5502H60.0745C60.1626 71.5502 60.2342 71.5943 60.2728 71.6771C60.2893 71.7047 60.2893 71.7543 60.2948 71.7985L61.4513 68.5926C61.4679 68.554 61.4844 68.5264 61.5009 68.4988C61.545 68.4546 61.5835 68.4381 61.6166 68.4271C61.6606 68.416 61.6992 68.4105 61.7432 68.405C61.8258 68.405 61.9635 68.405 62.0406 68.405C62.0847 68.405 62.1343 68.416 62.1673 68.4271C62.2169 68.4436 62.2554 68.4657 62.283 68.4933C62.3105 68.5209 62.327 68.554 62.3435 68.5871L63.5276 71.8702C63.5441 71.9198 63.5552 71.9695 63.5552 72.0081C63.5552 72.0743 63.5331 72.135 63.4891 72.1737L63.4781 72.1847ZM66.7715 74.1766L65.6204 77.4543C65.5984 77.4984 65.5819 77.526 65.5598 77.5536C65.5213 77.5922 65.4882 77.6143 65.4442 77.6253C65.4111 77.6363 65.3726 77.6419 65.3285 77.6474C65.2845 77.6474 65.2404 77.6474 65.1853 77.6474C65.1413 77.6474 65.1027 77.6474 65.0697 77.6474C65.0532 77.6474 65.0036 77.6474 64.9761 77.6419C64.9485 77.6363 64.9265 77.6308 64.9045 77.6198C64.8879 77.6198 64.8659 77.6087 64.8384 77.5922C64.7998 77.5646 64.7833 77.5481 64.7668 77.5205C64.7613 77.5094 64.7503 77.4874 64.7392 77.4653L63.5827 74.1766C63.5662 74.1215 63.5552 74.0773 63.5552 74.0387C63.5552 73.9725 63.5772 73.9118 63.6268 73.8676C63.6763 73.8345 63.7259 73.818 63.7865 73.8125C63.8636 73.807 64.0068 73.807 64.0784 73.8125C64.1169 73.8125 64.15 73.8235 64.1885 73.8345C64.2381 73.8621 64.2711 73.8842 64.2931 73.9173C64.3097 73.9394 64.3207 73.9615 64.3317 73.9835L65.2129 76.5659L66.061 74.0056C66.061 74.0056 66.0775 73.9559 66.0885 73.9339C66.1106 73.8952 66.1436 73.8621 66.1932 73.8401C66.2372 73.8235 66.2813 73.818 66.3199 73.818C66.3859 73.8125 66.5346 73.8125 66.6062 73.818C66.6778 73.829 66.7274 73.8511 66.766 73.8897C66.81 73.9339 66.8265 73.9946 66.8155 74.0608C66.8155 74.0884 66.8045 74.127 66.788 74.1822L66.7715 74.1766ZM66.5512 71.1584C66.4851 70.9211 66.452 70.6452 66.452 70.3473C66.452 70.0493 66.4851 69.7955 66.5567 69.5472C66.6283 69.3044 66.7384 69.0892 66.8871 68.9181C67.0358 68.7416 67.2231 68.6036 67.4434 68.5098C67.8674 68.3277 68.5063 68.3222 68.9359 68.4933C69.1451 68.576 69.3269 68.7085 69.4701 68.8795C69.6133 69.0451 69.7179 69.2492 69.784 69.4865C69.8501 69.7237 69.8831 69.9941 69.8831 70.2866C69.8831 70.579 69.8446 70.8549 69.7785 71.0977C69.7069 71.346 69.5967 71.5612 69.448 71.7378C69.2993 71.9143 69.1176 72.0523 68.8918 72.1516C68.6715 72.2454 68.4237 72.2951 68.1318 72.2951C67.8399 72.2951 67.6031 72.2509 67.3938 72.1626C67.1845 72.0799 67.0028 71.9474 66.8596 71.7819C66.7164 71.6164 66.6117 71.4067 66.5512 71.1639V71.1584ZM69.2663 77.0018C69.1947 77.1563 69.1011 77.2777 68.9744 77.3825C68.8532 77.4818 68.7045 77.5591 68.5448 77.6143C68.3906 77.6639 68.2199 77.686 68.0326 77.686C67.9005 77.686 67.7848 77.675 67.6747 77.6529C67.5755 77.6363 67.4819 77.6087 67.3828 77.5756C67.2947 77.5425 67.2231 77.5094 67.1625 77.4763C67.1019 77.4377 67.0578 77.4101 67.0248 77.377C66.9807 77.3273 66.9587 77.2832 66.9422 77.2335C66.9257 77.1784 66.9202 77.1177 66.9202 77.057C66.9202 77.0073 66.9202 76.9632 66.9312 76.9356C66.9312 76.9025 66.9477 76.8638 66.9532 76.8418C66.9807 76.7921 67.0028 76.7645 67.0358 76.7425C67.157 76.6818 67.212 76.6983 67.3387 76.7811C67.3828 76.8087 67.4379 76.8418 67.5039 76.8749C67.57 76.908 67.6526 76.9411 67.7463 76.9687C67.9005 77.0183 68.1318 77.0294 68.2915 76.9797C68.3631 76.9576 68.4182 76.9301 68.4622 76.8914C68.5063 76.8528 68.5393 76.8142 68.5669 76.759C68.5889 76.7093 68.5999 76.6431 68.5999 76.5714C68.5999 76.4997 68.5834 76.439 68.5558 76.3948C68.5228 76.3396 68.4732 76.29 68.4127 76.2458C68.3521 76.2017 68.275 76.1576 68.1813 76.1134L67.8895 75.9755C67.7848 75.9313 67.6857 75.8761 67.5866 75.8154C67.4819 75.7492 67.3883 75.6775 67.3057 75.5947C67.2176 75.5009 67.146 75.4016 67.0964 75.2857C67.0413 75.1643 67.0138 75.0209 67.0138 74.8553C67.0138 74.6898 67.0468 74.5353 67.1074 74.4029C67.168 74.2705 67.2561 74.1546 67.3663 74.0608C67.4764 73.9725 67.6086 73.9008 67.7518 73.8566C67.9776 73.7904 68.2254 73.7683 68.4787 73.8125C68.5669 73.829 68.644 73.8456 68.7266 73.8732C68.7982 73.8952 68.8698 73.9283 68.9303 73.9559C69.0075 73.9946 69.0515 74.0222 69.079 74.0608C69.0901 74.0718 69.1121 74.0939 69.1286 74.116C69.1451 74.1491 69.1562 74.1711 69.1617 74.1987C69.1617 74.2263 69.1727 74.2484 69.1727 74.2815C69.1727 74.3036 69.1727 74.3367 69.1727 74.3753C69.1727 74.4194 69.1727 74.4525 69.1727 74.4801C69.1727 74.5077 69.1617 74.5463 69.1562 74.5739C69.1506 74.6015 69.1286 74.6402 69.1011 74.6677C68.9909 74.7505 68.9303 74.7395 68.7982 74.6677C68.7541 74.6402 68.7045 74.6126 68.6495 74.585C68.5944 74.5574 68.5283 74.5298 68.4512 74.5077C68.319 74.4636 68.1263 74.4581 68.0051 74.5077C67.9445 74.5298 67.906 74.5519 67.8729 74.585C67.8454 74.6126 67.8179 74.6512 67.8013 74.6843C67.7848 74.7284 67.7793 74.7726 67.7793 74.8222C67.7793 74.894 67.7958 74.9492 67.8234 74.9988C67.8564 75.054 67.906 75.1037 67.9666 75.1478C68.0326 75.1975 68.1097 75.2416 68.2034 75.2857C68.3025 75.3354 68.3961 75.3795 68.5008 75.4237C68.5999 75.4678 68.7045 75.523 68.8037 75.5837C68.9028 75.6389 69.0019 75.7161 69.0901 75.7989C69.1782 75.8872 69.2498 75.992 69.3048 76.1079C69.3599 76.2293 69.3875 76.3672 69.3875 76.5328C69.3875 76.7204 69.3544 76.8859 69.2828 77.0349L69.2663 77.0018ZM72.3504 74.2705C72.3394 74.3201 72.3339 74.3477 72.3229 74.3698C72.2898 74.425 72.2623 74.4525 72.2348 74.4691C72.1962 74.4912 72.1577 74.5022 72.1246 74.5022H71.2765V77.4211C71.2765 77.4653 71.2655 77.5039 71.2379 77.5425C71.2104 77.5922 71.1553 77.6087 71.1333 77.6198C71.1058 77.6308 71.0727 77.6363 71.0287 77.6419C71.0011 77.6474 70.9515 77.6529 70.8965 77.6529C70.8414 77.6529 70.7973 77.6529 70.7588 77.6419C70.7257 77.6419 70.6872 77.6308 70.6542 77.6143C70.6266 77.6032 70.5826 77.5867 70.5495 77.5315C70.533 77.5094 70.5165 77.4708 70.5165 77.4211V74.5022H69.6683C69.6298 74.5022 69.5912 74.4912 69.5582 74.4691C69.5251 74.4525 69.4976 74.4194 69.4756 74.3753C69.4591 74.3367 69.448 74.3091 69.448 74.276C69.4425 74.2429 69.437 74.2042 69.437 74.1601C69.437 74.1215 69.437 74.0773 69.448 74.0442C69.448 74.0111 69.4646 73.9725 69.4756 73.9449C69.4976 73.8952 69.5251 73.8677 69.5582 73.8401C69.5967 73.818 69.6353 73.8069 69.6738 73.8069H72.1246C72.1632 73.8069 72.1962 73.818 72.2348 73.8345C72.2733 73.8621 72.3009 73.8897 72.3174 73.9228C72.3339 73.9615 72.3394 73.989 72.3504 74.0221C72.3559 74.0718 72.3614 74.1104 72.3614 74.1491C72.3614 74.1932 72.3614 74.2263 72.3559 74.2594L72.3504 74.2705ZM75.765 74.1766L74.6195 77.4543C74.6084 77.4929 74.5864 77.526 74.5534 77.5591C74.5148 77.5922 74.4818 77.6143 74.4487 77.6253C74.4102 77.6363 74.3716 77.6419 74.3276 77.6474C74.2835 77.6474 74.2394 77.6474 74.1789 77.6474C74.1348 77.6474 74.0963 77.6474 74.0632 77.6474C74.0302 77.6363 73.9971 77.6474 73.9696 77.6363C73.9476 77.6363 73.9145 77.6253 73.8925 77.6198C73.8815 77.6198 73.8484 77.6088 73.8154 77.5812C73.7933 77.5646 73.7713 77.5481 73.7548 77.5149C73.7493 77.5039 73.7383 77.4818 73.7273 77.4598L72.5707 74.1711C72.5487 74.116 72.5377 74.0663 72.5377 74.0277C72.5377 73.9449 72.5762 73.8897 72.6093 73.8621C72.6588 73.829 72.7084 73.8125 72.769 73.8069C72.8516 73.8069 72.9948 73.8014 73.0609 73.8069C73.0994 73.8069 73.138 73.818 73.1765 73.829C73.2206 73.8456 73.2426 73.8732 73.2536 73.8842C73.2922 73.9339 73.3032 73.9615 73.3142 73.9835L74.1899 76.5604L75.038 74.0001C75.038 74.0001 75.0545 73.9504 75.0656 73.9283C75.0931 73.8842 75.1261 73.8566 75.1757 73.8345C75.2142 73.818 75.2583 73.8125 75.3024 73.8125C75.363 73.807 75.5172 73.8014 75.5832 73.8125C75.6493 73.8235 75.6989 73.8401 75.7374 73.8787C75.7705 73.9173 75.798 73.9725 75.7925 74.0497C75.7925 74.0828 75.7815 74.127 75.7595 74.1822L75.765 74.1766ZM79.3172 76.4941C79.2456 76.7369 79.1355 76.9521 78.9923 77.1287C78.8491 77.3053 78.6619 77.4432 78.4361 77.5425C78.2158 77.6363 77.9624 77.6805 77.676 77.6805C77.3897 77.6805 77.1473 77.6363 76.9325 77.548C76.7178 77.4653 76.5415 77.3329 76.3983 77.1618C76.2607 76.9963 76.156 76.7866 76.0899 76.5438C76.0238 76.3121 75.9908 76.0472 75.9908 75.7327C75.9908 75.4182 76.0238 75.1699 76.0954 74.9326C76.167 74.6898 76.2772 74.4801 76.4259 74.3036C76.5746 74.127 76.7618 73.989 76.9821 73.8952C77.2024 73.8014 77.4502 73.7518 77.7421 73.7518C78.012 73.7518 78.2598 73.7959 78.4691 73.8787C78.6839 73.967 78.8656 74.0994 79.0033 74.2649C79.1465 74.4305 79.2511 74.6291 79.3172 74.8719C79.3833 75.1037 79.4164 75.363 79.4164 75.672C79.4164 75.981 79.3778 76.2458 79.3062 76.4831L79.3172 76.4941ZM80.9694 72.1792C80.9254 72.2178 80.8758 72.2344 80.8152 72.2454C80.7712 72.2454 80.7271 72.2454 80.661 72.2454C80.6005 72.2454 80.5564 72.2454 80.5178 72.2454C80.4683 72.2454 80.4352 72.2344 80.4077 72.2233C80.3471 72.2013 80.3141 72.1737 80.292 72.1406C80.2865 72.1295 80.27 72.1075 80.2645 72.0909L79.9891 71.3074H78.728L78.4746 72.0578C78.4581 72.0909 78.4471 72.113 78.4361 72.1295C78.4085 72.1682 78.3755 72.1902 78.3424 72.2068C78.3039 72.2233 78.2708 72.2344 78.2213 72.2399C78.1387 72.2509 78.0065 72.2399 77.9294 72.2399C77.8688 72.2344 77.8192 72.2178 77.7862 72.1847C77.7642 72.1626 77.7531 72.1406 77.7421 72.1185C77.7201 72.1516 77.6981 72.1847 77.665 72.2068C77.6375 72.2289 77.5989 72.2399 77.5494 72.2399H75.4676C75.385 72.2399 75.3079 72.2123 75.2528 72.1571C75.1922 72.0909 75.1702 72.0137 75.1702 71.9143V71.8095C75.1702 71.7819 75.1702 71.7488 75.1702 71.7267C75.1702 71.6881 75.1867 71.655 75.1977 71.6274C75.2087 71.5998 75.2253 71.5612 75.2473 71.5281C75.2583 71.506 75.2803 71.4674 75.3024 71.4288L76.7894 69.1002H75.4456C75.396 69.1002 75.3629 69.0892 75.3409 69.0782C75.2914 69.0506 75.2638 69.0175 75.2473 68.9899C75.2253 68.9457 75.2143 68.9126 75.2087 68.874C75.2087 68.8464 75.2032 68.8078 75.2032 68.7692C75.2032 68.725 75.2032 68.6864 75.2087 68.6533C75.2087 68.6091 75.2253 68.5816 75.2363 68.554C75.2638 68.5043 75.2858 68.4767 75.3134 68.4546C75.374 68.427 75.407 68.4215 75.4456 68.4215H77.4062C77.4888 68.4215 77.5659 68.4491 77.621 68.4988C77.6815 68.565 77.7091 68.6367 77.7091 68.7305V68.8409C77.7091 68.8795 77.7091 68.9071 77.7036 68.9402C77.7036 68.9678 77.6871 69.0009 77.676 69.0395C77.665 69.0616 77.654 69.0892 77.643 69.1168C77.61 69.172 77.5879 69.2051 77.5659 69.2437L76.0954 71.5557H77.5549C77.6375 71.5557 77.7091 71.5998 77.7531 71.6771C77.7697 71.7102 77.7697 71.7598 77.7752 71.8095L78.9317 68.5981C78.9427 68.565 78.9593 68.5319 78.9813 68.5043C79.0253 68.4602 79.0694 68.4436 79.0969 68.4326C79.1355 68.4215 79.174 68.416 79.2181 68.4105C79.3007 68.4105 79.4384 68.4105 79.5155 68.4105C79.5596 68.4105 79.6036 68.4215 79.6367 68.4271C79.6862 68.4436 79.7248 68.4657 79.7578 68.5043C79.7799 68.5319 79.8019 68.565 79.8184 68.6036L80.997 71.8812C81.019 71.9364 81.03 71.9805 81.03 72.0192C81.03 72.1019 80.997 72.1516 80.9694 72.1847V72.1792ZM77.8908 64.6473L74.3276 51.8514H77.8743L79.3117 57.6838C79.4439 58.197 79.521 58.5446 79.6146 59.1405C79.7083 58.5667 79.7909 58.2245 79.923 57.6838L81.3605 51.8514H84.9017L81.3384 64.6473H77.8908ZM84.1472 71.2025C84.1472 71.3515 84.1362 71.4895 84.1031 71.6164C84.0701 71.7543 84.0205 71.8757 83.9434 71.9695C83.8663 72.0743 83.7672 72.1516 83.646 72.2013C83.5304 72.2509 83.3872 72.2785 83.2164 72.2785C83.1559 72.2785 83.1008 72.2785 83.0402 72.262C82.9851 72.2509 82.9356 72.2399 82.886 72.2288C82.8364 72.2123 82.7924 72.1957 82.7593 72.1792C82.7043 72.1516 82.6712 72.1295 82.6492 72.1019C82.6437 72.1019 82.6272 72.0744 82.6106 72.0523C82.5996 72.0412 82.5886 72.0137 82.5831 71.9805C82.5776 71.9585 82.5721 71.9309 82.5666 71.8978C82.5666 71.8702 82.5666 71.8426 82.5666 71.804C82.5666 71.7598 82.5666 71.7212 82.5666 71.6936C82.5721 71.644 82.5776 71.6108 82.5941 71.5833C82.6217 71.5336 82.6437 71.506 82.6767 71.4839C82.7373 71.4453 82.864 71.4619 82.9191 71.495L82.9741 71.5281C83.0127 71.5446 83.0457 71.5612 83.0788 71.5722C83.1393 71.5943 83.2385 71.5888 83.2935 71.5722C83.3101 71.5722 83.3211 71.5557 83.3321 71.5391C83.3431 71.5226 83.3596 71.4895 83.3762 71.4177C83.3872 71.357 83.3927 71.2687 83.3927 71.1639V68.6422C83.3927 68.6036 83.4037 68.565 83.4257 68.5319C83.4533 68.4933 83.4918 68.4657 83.5359 68.4436C83.5634 68.4326 83.5965 68.427 83.6405 68.416C83.7231 68.416 83.8278 68.416 83.8939 68.416C83.9489 68.4215 83.982 68.4326 84.015 68.4436C84.0591 68.4602 84.0921 68.4877 84.1197 68.5264C84.1362 68.5484 84.1527 68.5926 84.1527 68.6367V71.208L84.1472 71.2025ZM87.5563 72.1847C87.5012 72.2289 87.4461 72.2399 87.4076 72.2454C87.3635 72.2454 87.3139 72.2454 87.2533 72.2454C87.1928 72.2454 87.1432 72.2454 87.1102 72.2454C87.0606 72.2454 87.0275 72.2344 87 72.2233C86.9449 72.2068 86.9119 72.1792 86.8899 72.1461C86.8678 72.113 86.8568 72.0964 86.8513 72.0743L86.5815 71.3018H85.3203L85.0669 72.0523C85.0559 72.0854 85.0394 72.113 85.0229 72.135C85.0008 72.1626 84.9678 72.1902 84.9347 72.2068C84.8962 72.2233 84.8631 72.2344 84.8136 72.2399C84.731 72.2509 84.6043 72.2509 84.5217 72.2399C84.4556 72.2344 84.4116 72.2123 84.373 72.1792C84.34 72.1406 84.3069 72.0909 84.3069 72.0081C84.3069 71.975 84.3179 71.9309 84.3344 71.8757L85.5185 68.5981C85.535 68.5595 85.5516 68.5319 85.5736 68.5043C85.6122 68.4657 85.6452 68.4491 85.6893 68.4326C85.7333 68.4215 85.7719 68.416 85.8159 68.4105C85.8985 68.4105 86.0362 68.4105 86.1133 68.4105C86.1574 68.4105 86.2014 68.4215 86.24 68.4271C86.284 68.4436 86.3226 68.4657 86.3501 68.4933C86.3777 68.5264 86.3997 68.554 86.4162 68.5926L87.6003 71.8757C87.6168 71.9254 87.6278 71.975 87.6278 72.0136C87.6278 72.0799 87.6058 72.1406 87.5618 72.1792L87.5563 72.1847ZM89.3627 78.933C89.0598 78.911 88.7624 78.8834 88.465 78.8613C88.487 78.0226 88.7899 78.4751 89.4067 78.4861C89.3957 78.6351 89.3792 78.784 89.3682 78.9386L89.3627 78.933ZM90.5302 68.7692L89.3792 72.0578C89.3682 72.0964 89.3461 72.135 89.3131 72.1626C89.2856 72.1902 89.247 72.2123 89.2029 72.2288C89.1699 72.2399 89.1314 72.2454 89.0818 72.2509C89.0377 72.2509 88.9937 72.2509 88.9386 72.2509C88.8505 72.2509 88.7844 72.2509 88.7348 72.2399C88.7073 72.2399 88.6742 72.2288 88.6577 72.2233C88.6302 72.2233 88.6082 72.2013 88.5916 72.1957C88.5586 72.1682 88.5366 72.1516 88.52 72.124C88.509 72.1075 88.498 72.0854 88.487 72.0633L87.336 68.7802C87.3139 68.725 87.3084 68.6809 87.3084 68.6367C87.3029 68.576 87.3305 68.5098 87.3855 68.4657C87.4186 68.4381 87.4681 68.416 87.5342 68.4105C87.6223 68.4105 87.76 68.4105 87.8316 68.4105C87.8757 68.4105 87.9142 68.4215 87.9473 68.4381C87.9858 68.4546 88.0134 68.4767 88.0409 68.5098L88.0629 68.5429C88.0629 68.5429 88.0795 68.576 88.085 68.5926L88.9606 71.1694L89.8088 68.6091C89.8088 68.6091 89.8253 68.5595 89.8363 68.5429C89.8638 68.4933 89.8969 68.4657 89.9464 68.4436C89.985 68.4271 90.0291 68.4215 90.0731 68.416C90.1502 68.416 90.2934 68.416 90.365 68.416C90.4366 68.427 90.4862 68.4491 90.5192 68.4933C90.5467 68.5153 90.5743 68.5816 90.5688 68.6533C90.5688 68.6919 90.5523 68.7305 90.5412 68.7692H90.5302ZM90.7065 79.0434C90.723 78.8392 90.7395 78.6406 90.756 78.4419C91.2297 78.4088 91.3508 78.6792 91.4665 78.9496C91.2847 79.0655 91.0479 79.1151 90.7065 79.0434ZM93.7025 79.2917C93.1517 79.2476 92.601 79.2034 92.0558 79.1537C92.0117 78.4199 93.8236 78.6902 93.7025 79.2917ZM93.7906 71.8978C93.7906 71.953 93.7796 71.9971 93.7575 72.0468C93.7355 72.0909 93.708 72.124 93.6749 72.1571C93.6364 72.1902 93.5978 72.2123 93.5538 72.2233C93.5152 72.2344 93.4767 72.2399 93.4381 72.2399H93.2839C93.2178 72.2399 93.1627 72.2344 93.1187 72.2233C93.0636 72.2068 93.014 72.1792 92.9645 72.1406C92.9259 72.113 92.8819 72.0688 92.8378 72.0026C92.7993 71.953 92.7662 71.8923 92.7222 71.8095L91.6482 69.8065C91.6317 69.7734 91.6097 69.7403 91.5932 69.7017V72.0192C91.5932 72.0633 91.5821 72.1019 91.5601 72.1406C91.5326 72.1737 91.4995 72.2013 91.4555 72.2178C91.4224 72.2289 91.3894 72.2344 91.3508 72.2399C91.3178 72.2399 91.2737 72.2509 91.2187 72.2509C91.1636 72.2509 91.114 72.2509 91.081 72.2399C91.0424 72.2399 91.0094 72.2289 90.9818 72.2178C90.9433 72.2013 90.9102 72.1792 90.8827 72.1461C90.8497 72.0964 90.8386 72.0578 90.8386 72.0192V68.7636C90.8386 68.6147 90.9047 68.5319 90.9598 68.4933C91.0204 68.4436 91.0975 68.4215 91.1801 68.4215H91.4114C91.483 68.4215 91.5381 68.4215 91.5876 68.4436C91.6427 68.4546 91.6923 68.4767 91.7363 68.5098C91.7804 68.5429 91.8134 68.5816 91.852 68.6257C91.885 68.6643 91.9181 68.7195 91.9511 68.7857L93.0471 70.8384V68.6367C93.0471 68.5926 93.0581 68.554 93.0801 68.5209C93.1077 68.4767 93.1462 68.4546 93.1738 68.4436C93.2068 68.4271 93.2398 68.4215 93.2894 68.416C93.361 68.405 93.4767 68.405 93.5483 68.416C93.6033 68.4215 93.6364 68.4326 93.6639 68.4436C93.697 68.4602 93.73 68.4822 93.7575 68.5209C93.7796 68.5595 93.7961 68.5981 93.7961 68.6367V71.8923L93.7906 71.8978ZM97.453 71.0977C97.3869 71.3405 97.2767 71.5502 97.1281 71.7322C96.9793 71.9143 96.7921 72.0523 96.5718 72.1461C96.357 72.2399 96.0982 72.2895 95.8118 72.2895C95.5254 72.2895 95.2776 72.2454 95.0683 72.1626C94.859 72.0799 94.6773 71.9474 94.5341 71.7764C94.3964 71.6053 94.2918 71.3957 94.2257 71.1584C94.1596 70.9211 94.1265 70.6507 94.1265 70.3473C94.1265 70.0438 94.1596 69.79 94.2312 69.5472C94.3028 69.2989 94.4129 69.0892 94.5616 68.9181C94.7103 68.7416 94.8976 68.6036 95.1179 68.5098C95.3382 68.416 95.5915 68.3664 95.8834 68.3664C96.1588 68.3664 96.4011 68.4105 96.6104 68.4933C96.8251 68.5816 97.0069 68.7085 97.1446 68.8795C97.2878 69.0451 97.3924 69.2492 97.4585 69.4865C97.5246 69.7182 97.5576 69.9886 97.5576 70.2866C97.5576 70.5845 97.5246 70.8604 97.4475 71.0977H97.453ZM90.8497 65.1329C87.0331 65.1329 83.9544 62.1367 83.9544 58.3956C83.9544 54.6545 86.9394 51.4707 90.8717 51.4707C94.8039 51.4707 97.7449 54.4834 97.7449 58.3018C97.7449 62.1202 94.6993 65.1329 90.8497 65.1329ZM98.1414 38.6141C97.9927 38.6031 97.844 38.5865 97.6898 38.5755C97.6237 38.0016 98.1249 38.1009 98.3562 37.8747C98.3837 38.2444 98.0533 38.1782 98.1414 38.6141ZM110.907 51.7576C111.453 53.0212 111.932 50.9575 110.907 51.7576V51.7576ZM109.189 45.2742C109.536 45.2576 109.751 45.3569 109.762 45.6218C109.558 45.6549 109.459 45.8149 109.151 45.7211C109.162 45.5721 109.178 45.4231 109.189 45.2742ZM98.5765 40.6116C98.5655 40.3246 98.7692 40.2971 98.7747 40.0267C99.1493 40.0377 99.5017 40.0543 99.4962 40.3853C99.2208 40.5012 99.0832 40.7771 98.571 40.6171L98.5765 40.6116ZM101.325 79.9318C100.967 79.7552 100.383 80.3897 100.443 79.7C100.466 79.4793 101.578 79.4683 101.325 79.9318ZM100.895 47.1447C101.016 46.9461 102.145 46.5984 102.09 47.244C101.699 47.1282 101.121 47.6082 100.895 47.1447ZM102.85 59.8413C102.454 59.8468 102.096 59.8247 102.288 59.3336C102.569 59.4219 102.927 59.444 102.85 59.8413ZM103.797 48.4469C103.324 48.48 103.203 48.2152 103.087 47.9393C103.517 47.9448 103.902 47.9889 103.797 48.4469ZM105.863 76.0858C105.411 76.0031 104.69 76.152 104.69 75.683C105.235 75.8155 105.912 75.2747 105.863 76.0858ZM104.971 48.8442C104.706 48.6014 104.337 48.4524 104.447 47.8951C104.618 47.8786 104.695 47.7462 104.772 47.6192C105.439 47.702 105.94 47.9227 105.896 48.618C105.428 48.5076 105.516 49.0484 104.976 48.8442H104.971ZM107.432 77.1232C107.344 77.1232 107.256 77.1342 107.273 77.2611C106.876 77.2722 106.799 77.0128 106.871 76.6266C107.267 76.6155 107.509 76.7369 107.432 77.1287V77.1232ZM107.796 63.7203C107.768 63.5162 107.609 63.4168 107.697 63.1078C107.845 63.1189 107.994 63.1299 108.143 63.1465C108.154 63.4886 108.06 63.7038 107.796 63.7203ZM109.867 67.8201C109.608 67.7097 108.969 67.9249 108.98 67.5939C109.272 67.5552 109.288 67.1911 109.756 67.3566C109.745 67.5497 109.933 67.5828 109.867 67.8201ZM109.867 47.9006C110.357 47.9338 110.472 47.5199 111.089 47.702C110.693 48.4524 111.172 48.5683 111.1 49.3629C110.819 49.3077 110.753 49.5063 110.489 49.4622C110.302 48.9215 109.745 48.7063 109.872 47.9006H109.867ZM111.508 73.3931C111.111 73.4041 110.753 73.3766 110.946 72.891C111.144 72.9075 111.343 72.9241 111.546 72.9407C111.535 73.0952 111.519 73.2386 111.508 73.3931ZM111.122 63.5493C111.321 63.2899 111.91 63.4941 112.196 63.3341C112.477 64.0514 111.04 64.1286 111.122 63.5493ZM112.334 63.4941C112.686 63.5272 112.797 63.2734 113.243 63.4168C113.402 64.1121 112.158 64.1893 112.334 63.4941ZM112.422 62.4457C112.901 62.4733 113.358 62.2305 113.446 62.832C113.16 63.0582 112.334 62.9533 112.422 62.4457ZM114.069 60.7738C114.08 60.6193 114.091 60.4703 114.107 60.3213C114.372 60.382 114.873 60.233 114.68 60.6745C114.476 60.7021 114.377 60.8676 114.069 60.7793V60.7738Z" fill="#80BC00"/>
<path d="M78.4468 74.7956C78.3752 74.6907 78.2816 74.608 78.1714 74.5528C78.0558 74.4921 77.9071 74.459 77.7253 74.459C77.5436 74.459 77.3949 74.4921 77.2847 74.5583C77.1636 74.6245 77.0699 74.7128 76.9983 74.8176C76.9212 74.928 76.8662 75.0604 76.8386 75.2094C76.8056 75.3639 76.7891 75.535 76.7891 75.7171C76.7891 75.9212 76.8056 76.0978 76.8386 76.2633C76.8662 76.4178 76.9212 76.5558 76.9928 76.6606C77.0589 76.771 77.1525 76.8482 77.2682 76.9089C77.4995 77.0248 77.9236 77.0303 78.1659 76.8979C78.2816 76.8317 78.3752 76.7434 78.4523 76.633C78.5239 76.5171 78.579 76.3792 78.612 76.2302C78.645 76.0702 78.6616 75.8991 78.6616 75.7226C78.6616 75.5294 78.645 75.3529 78.612 75.1929C78.579 75.0384 78.5294 74.9004 78.4578 74.7956H78.4468Z" fill="#80BC00"/>
<path d="M85.5469 70.6515H86.3675L85.9544 69.4707L85.5469 70.6515Z" fill="#80BC00"/>
</g>
<defs>
<clipPath id="clip0_4856_17250">
<rect width="126.168" height="100" fill="white" transform="translate(0.742188)"/>
</clipPath>
</defs>
</svg>
