<svg width="31" height="31" viewBox="0 0 31 31" fill="none" xmlns="http://www.w3.org/2000/svg">
<g clip-path="url(#clip0_5390_24964)">
<path d="M3.875 0C2.84729 0 1.86166 0.408258 1.13496 1.13496C0.408258 1.86166 0 2.84729 0 3.875L0 27.125C0 28.1527 0.408258 29.1383 1.13496 29.865C1.86166 30.5917 2.84729 31 3.875 31H27.125C28.1527 31 29.1383 30.5917 29.865 29.865C30.5917 29.1383 31 28.1527 31 27.125V3.875C31 2.84729 30.5917 1.86166 29.865 1.13496C29.1383 0.408258 28.1527 0 27.125 0L3.875 0ZM16.4688 8.71875V19.9427L20.6266 15.7829C20.7167 15.6928 20.8236 15.6214 20.9413 15.5726C21.059 15.5239 21.1851 15.4988 21.3125 15.4988C21.4399 15.4988 21.566 15.5239 21.6837 15.5726C21.8014 15.6214 21.9083 15.6928 21.9984 15.7829C22.0884 15.8729 22.1599 15.9799 22.2086 16.0976C22.2574 16.2152 22.2825 16.3414 22.2825 16.4688C22.2825 16.5961 22.2574 16.7223 22.2086 16.8399C22.1599 16.9576 22.0884 17.0646 21.9984 17.1546L16.1859 22.9671C16.0959 23.0573 15.989 23.1289 15.8713 23.1778C15.7536 23.2266 15.6274 23.2517 15.5 23.2517C15.3726 23.2517 15.2464 23.2266 15.1287 23.1778C15.011 23.1289 14.9041 23.0573 14.8141 22.9671L9.00163 17.1546C8.91155 17.0646 8.84011 16.9576 8.79136 16.8399C8.74261 16.7223 8.71753 16.5961 8.71753 16.4688C8.71753 16.3414 8.74261 16.2152 8.79136 16.0976C8.84011 15.9799 8.91155 15.8729 9.00163 15.7829C9.18353 15.601 9.43025 15.4988 9.6875 15.4988C9.81488 15.4988 9.94101 15.5239 10.0587 15.5726C10.1764 15.6214 10.2833 15.6928 10.3734 15.7829L14.5312 19.9427V8.71875C14.5312 8.46182 14.6333 8.21542 14.815 8.03374C14.9967 7.85206 15.2431 7.75 15.5 7.75C15.7569 7.75 16.0033 7.85206 16.185 8.03374C16.3667 8.21542 16.4688 8.46182 16.4688 8.71875Z" fill="#1C2640"/>
</g>
<defs>
<clipPath id="clip0_5390_24964">
<rect width="31" height="31" fill="white"/>
</clipPath>
</defs>
</svg>
