<svg width="74" height="47" viewBox="0 0 74 47" fill="none" xmlns="http://www.w3.org/2000/svg">
<g clip-path="url(#clip0_4854_17819)">
<path d="M29.5933 0.00418718C37.0301 0.00418718 44.465 0.00418718 51.898 0.00418718C52.4141 -0.00357575 52.9197 0.149718 53.3441 0.442621C53.7524 0.732706 54.0476 1.15455 54.1799 1.63676C54.2859 2.04656 54.3384 2.46827 54.3361 2.89147C54.3621 3.46835 54.3361 4.04523 54.3361 4.6221C54.3361 4.8442 54.4287 4.91054 54.6253 4.91054C54.9377 4.91054 55.25 4.91054 55.5653 4.91054C58.1394 4.91054 60.7134 4.89324 63.2875 4.91054C64.3417 4.91245 65.3532 5.32671 66.1045 6.0643C66.4288 6.35048 66.7287 6.66307 67.0011 6.99884C67.3919 7.58487 67.655 8.24623 67.7733 8.94007C67.876 9.5478 67.9157 10.1645 67.8919 10.7803C67.9178 11.0175 67.8775 11.2573 67.7754 11.4731C67.6733 11.6889 67.5135 11.8724 67.3134 12.0033C66.9693 12.1994 67.004 12.4475 67.0589 12.7215C67.1341 13.108 67.244 13.4916 67.3481 13.8753C67.8225 15.7299 68.3055 17.5817 68.7624 19.4392C68.8145 19.6469 68.8926 19.6815 69.0719 19.7277C69.5907 19.8746 70.0981 20.0587 70.5903 20.2786C72.4413 21.1439 73.4623 22.6496 73.9539 24.5706C73.9743 24.7373 73.9743 24.9058 73.9539 25.0725C73.9539 29.4144 73.9539 33.7545 73.9539 38.0926C73.9686 38.252 73.948 38.4126 73.8934 38.5631C73.8389 38.7135 73.7518 38.8502 73.6383 38.9633C73.5249 39.0765 73.3878 39.1633 73.237 39.2177C73.0861 39.2721 72.925 39.2927 72.7652 39.2781C71.6575 39.2781 70.5498 39.2781 69.445 39.2781C69.0603 39.2781 69.0632 39.2781 69.0459 39.679C68.984 41.4633 68.2497 43.1587 66.9895 44.4267C65.9072 45.5298 64.5178 46.2834 63.0011 46.59C62.547 46.6421 62.0889 46.6509 61.6331 46.616C60.108 46.6633 58.6114 46.1969 57.3845 45.292C56.0893 44.3914 55.1253 43.0927 54.6398 41.5943C54.4316 40.9626 54.2146 40.2848 54.3159 39.5752C54.3448 39.3762 54.2696 39.255 54.0267 39.2694C53.882 39.2694 53.7374 39.2694 53.5928 39.2694H28.7632C28.3352 39.2694 28.3381 39.2694 28.3236 39.6992C28.2759 40.6147 28.0469 41.5117 27.6497 42.3384C27.2653 43.2358 26.6923 44.0404 25.9694 44.6979C24.9999 45.6016 23.7988 46.2205 22.4987 46.4862C21.6039 46.6413 20.6917 46.6704 19.7887 46.5727C18.8494 46.4571 17.9486 46.1306 17.1539 45.618C16.1984 45.0298 15.376 44.2499 14.7389 43.3278C14.2775 42.6203 13.9392 41.8401 13.7382 41.0203C13.6248 40.5356 13.5781 40.0378 13.5994 39.5406C13.5994 39.3646 13.5329 39.2781 13.3478 39.281C13.1077 39.281 12.8677 39.281 12.6276 39.281C10.846 39.281 9.06442 39.2406 7.28571 39.281C6.12883 39.3156 4.85914 38.1042 4.93145 36.9389C4.97483 36.2235 4.93145 35.4967 4.93145 34.7813C4.93145 34.3862 4.93142 34.3775 4.54097 34.3775C3.45929 34.3775 2.37472 34.3775 1.29303 34.3775C1.07761 34.3871 0.863278 34.3421 0.669964 34.2468C0.476651 34.1515 0.310663 34.009 0.187412 33.8326C0.0641617 33.6561 -0.0123284 33.4514 -0.0349404 33.2376C-0.0575524 33.0237 -0.0255822 32.8076 0.0580537 32.6094C0.143219 32.4232 0.275955 32.2626 0.442952 32.1436C0.609948 32.0246 0.805356 31.9515 1.0096 31.9316C1.15408 31.9229 1.29895 31.9229 1.44343 31.9316C4.97771 31.9316 8.51393 31.9316 12.0521 31.9316C12.2881 31.9195 12.5243 31.9507 12.7491 32.0238C13.368 32.269 13.5878 32.7565 13.4519 33.466C13.3918 33.7344 13.2375 33.9726 13.0169 34.1376C12.7963 34.3026 12.5239 34.3836 12.2487 34.366C10.7824 34.366 9.31313 34.366 7.84678 34.366C7.40427 34.366 7.39851 34.366 7.39272 34.7813C7.39272 35.3332 7.39272 35.8841 7.39272 36.4341C7.39272 36.7918 7.39271 36.8004 7.74846 36.8033C8.56406 36.8033 9.38255 36.8033 10.201 36.8033C11.3579 36.8033 12.5148 36.8033 13.6717 36.8033C13.8857 36.8033 13.9609 36.7427 14.0592 36.5149C14.6926 34.9934 15.8106 33.7223 17.2407 32.8978C18.5089 32.1435 19.977 31.7912 21.4505 31.8875C22.924 31.9838 24.3335 32.5242 25.4921 33.4372C26.4429 34.1523 27.1896 35.1029 27.6584 36.1947C27.7161 36.3933 27.8432 36.5647 28.0167 36.678C28.1902 36.7912 28.3986 36.8387 28.6042 36.812C36.1355 36.7927 43.6658 36.7927 51.1952 36.812C51.9356 36.812 51.8604 36.91 51.8604 36.1745C51.8604 33.5112 51.8604 30.8499 51.8604 28.1905C51.8394 28.0499 51.8515 27.9063 51.8956 27.7712C51.9398 27.636 52.0149 27.513 52.1149 27.4117C52.3336 27.1736 52.6358 27.0285 52.9589 27.0064C53.2819 26.9844 53.6011 27.0872 53.8502 27.2935C54.232 27.5617 54.2088 27.9771 54.3274 28.3405C54.3493 28.4829 54.3493 28.6278 54.3274 28.7703V35.9639C54.3274 36.1312 54.3274 36.2985 54.3274 36.4658C54.3274 36.6331 54.2812 36.7543 54.4923 36.8062C54.7034 36.8581 54.7266 36.7139 54.7815 36.5812C55.122 35.9075 55.5085 35.2579 55.9384 34.6371C56.4857 33.9526 57.1567 33.3764 57.9167 32.9382C58.7507 32.3978 59.6992 32.0582 60.6874 31.946C61.9428 31.7677 63.2232 31.9321 64.3923 32.4219C65.4125 32.8225 66.3325 33.4407 67.0878 34.2333C67.6315 34.7923 68.0591 35.453 68.346 36.1774C68.3778 36.2639 68.4269 36.3476 68.4674 36.4341C68.4995 36.5582 68.5761 36.6664 68.6826 36.7381C68.7892 36.8099 68.9184 36.8402 69.0459 36.8235C69.74 36.7831 70.4399 36.8062 71.1369 36.8235C71.3712 36.8235 71.484 36.7744 71.484 36.5062C71.4724 35.089 71.4724 33.6747 71.484 32.2633C71.484 32.0152 71.4088 31.9142 71.1543 31.9287C70.3957 32.0118 69.6282 31.9129 68.9157 31.6402C68.3511 31.4204 67.8518 31.0609 67.4648 30.5957C67.0777 30.1305 66.8157 29.5748 66.7032 28.9808C66.4863 27.9367 66.5672 26.8896 66.5904 25.8484C66.5904 25.1042 67.0387 24.536 67.8832 24.5821C68.9157 24.6369 69.9511 24.5994 70.9866 24.5821C71.3539 24.5821 71.3886 24.5302 71.215 24.236C70.6742 23.3187 70.0235 22.5054 68.9215 22.2458C68.4705 22.1142 68.0055 22.0357 67.5361 22.0121C63.3251 21.9948 59.1169 22.0121 54.9059 22.0121C54.232 22.0121 54.3072 21.9371 54.3043 22.6381C54.3496 23.0893 54.2664 23.5442 54.0643 23.9504C54.0066 24.0651 53.9252 24.1662 53.8255 24.2473C53.7258 24.3283 53.61 24.3874 53.4858 24.4206C52.9681 24.5129 52.4417 24.5504 52.057 24.0312C51.9183 23.8711 51.8432 23.6659 51.8459 23.4543C51.8459 23.287 51.8459 23.1197 51.8459 22.9524V3.09628C51.8459 2.35788 51.9269 2.44441 51.1952 2.44441H8.30663C8.13599 2.44441 7.96824 2.44441 7.8005 2.44441C7.45632 2.44441 7.45633 2.44442 7.44476 2.81362C7.44476 2.98091 7.44476 3.14821 7.44476 3.3155C7.44476 9.84 7.44476 16.3626 7.44476 22.8832C7.45078 23.2614 7.36231 23.6351 7.18735 23.9706C7.13242 24.0749 7.05741 24.1673 6.96659 24.2425C6.87576 24.3177 6.77091 24.3743 6.65809 24.4091C6.37678 24.5086 6.07044 24.5127 5.78651 24.4209C5.50258 24.3292 5.25691 24.1466 5.0876 23.9014C5.03024 23.8005 4.9957 23.6882 4.98638 23.5726C4.9777 23.4285 4.9777 23.284 4.98638 23.1399C4.98638 16.2347 4.98638 9.32944 4.98638 2.4242C4.98638 1.27044 5.56483 0.555111 6.54239 0.116683C6.7619 0.0335403 6.99619 -0.00376711 7.23074 0.00707439C9.37387 0.00707439 11.5141 0.00707439 13.6543 0.00707439L29.5933 0.00418718ZM60.349 19.5748H63.3771C64.2651 19.5748 65.1558 19.5748 66.0438 19.5748C66.3041 19.5748 66.3156 19.4998 66.2057 19.2864C66.1652 19.2085 66.2057 19.0931 66.1826 18.9979C65.66 16.8827 65.1327 14.779 64.6005 12.6869C64.5022 12.2946 64.4183 12.2225 64.0221 12.2196H54.7931C54.365 12.2196 54.3564 12.2196 54.3564 12.6523C54.3564 14.8098 54.3564 16.9664 54.3564 19.122C54.3564 19.5431 54.3563 19.5517 54.7931 19.5517C56.6528 19.5777 58.498 19.5748 60.349 19.5748ZM16.0983 39.2925C15.8813 41.9289 18.4641 44.196 20.8154 44.196C22.1369 44.2239 23.4159 43.7295 24.3733 42.8206C25.3307 41.9118 25.8888 40.6621 25.926 39.3444C26.007 36.7485 23.5428 34.3544 21.0439 34.3631C18.4062 34.389 15.9189 36.6158 16.104 39.2925H16.0983ZM61.6736 44.1758C64.3142 44.4296 66.6222 41.8193 66.6511 39.4368C66.6573 38.1302 66.1538 36.8725 65.2471 35.9294C64.3403 34.9864 63.1014 34.4319 61.7922 34.3833C59.0793 34.3371 56.8523 36.6908 56.7771 39.2118C56.7077 41.8568 59.1835 44.4037 61.6794 44.1758H61.6736ZM59.9123 9.79095H64.8811C65.526 9.79095 65.5029 9.79095 65.3352 9.18235C65.1801 8.63483 64.8453 8.15502 64.3844 7.81979C63.9234 7.48457 63.363 7.31332 62.7929 7.33344C60.4155 7.39113 58.0381 7.35076 55.6607 7.35076C55.3252 7.35076 54.9868 7.35076 54.6513 7.35076C54.4402 7.35076 54.3621 7.42576 54.3621 7.6392C54.3621 8.21608 54.3621 8.79296 54.3621 9.36984C54.3621 9.79096 54.3621 9.79961 54.7989 9.79961L59.9123 9.79095ZM70.3242 27.0367V27.0598H70.1102L69.1269 27.129C69.0836 27.4802 69.072 27.8344 69.0922 28.1876C69.104 28.4228 69.1772 28.6508 69.3046 28.8491C69.4319 29.0474 69.6089 29.2091 69.8181 29.3183C70.3242 29.5779 70.8419 29.4798 71.3567 29.4827C71.4146 29.4827 71.5158 29.3241 71.5216 29.2347C71.5419 28.903 71.539 28.5654 71.5216 28.2337C71.5216 27.8559 71.4782 27.4838 71.4551 27.1089L70.3242 27.0367Z" fill="#2F2A32"/>
<path d="M28.3637 24.462C28.0022 24.5514 27.7534 24.3697 27.496 24.113C25.4657 22.0709 23.4277 20.0364 21.3819 18.0096C21.1545 17.8006 21.0166 17.5124 20.9966 17.2046C20.9767 16.8969 21.0764 16.5933 21.2749 16.3569C21.5051 16.1311 21.8072 15.9928 22.1289 15.966C22.4506 15.9391 22.7716 16.0253 23.0363 16.2098C23.1635 16.3179 23.2834 16.4345 23.3949 16.5588L27.8836 21.0325C27.9957 21.1564 28.1176 21.2712 28.248 21.3757C28.2864 21.3957 28.3291 21.4061 28.3724 21.4061C28.4157 21.4061 28.4584 21.3957 28.4967 21.3757C28.6112 21.2903 28.7168 21.1936 28.812 21.0873C29.4743 20.4268 30.1308 19.7605 30.8018 19.1086C31.0216 18.8952 31.2761 18.7163 31.5133 18.5317C31.5721 18.4903 31.6247 18.4408 31.6695 18.3846C32.1756 17.6001 33.078 17.1934 33.5668 16.3828C33.7259 16.1146 34.0816 15.9733 34.3188 15.7425C35.118 15.0141 35.8777 14.2439 36.5949 13.435C37.1734 12.7168 38.0063 12.2466 38.5269 11.4621C38.8161 11.0121 39.7503 10.9544 40.2304 11.2458C40.5543 11.439 40.7597 12.0765 40.6787 12.4658C40.5872 12.8368 40.3856 13.1715 40.1003 13.4263C36.5776 16.928 33.0587 20.4344 29.5437 23.9457C29.2285 24.2688 28.8872 24.5457 28.3637 24.462Z" fill="#2F2A32"/>
<path d="M39.4846 31.9455C42.2958 31.9455 45.108 31.9455 47.9212 31.9455C48.1344 31.9316 48.3484 31.953 48.5545 32.009C49.1677 32.2196 49.4222 32.6984 49.3065 33.4339C49.2642 33.7069 49.1233 33.955 48.9101 34.1314C48.697 34.3079 48.4265 34.4004 48.1496 34.3915H31.2765C30.9682 34.4121 30.6591 34.3688 30.3683 34.2646C29.8101 34.0309 29.5585 33.5925 29.6627 32.8887C29.7042 32.642 29.8262 32.4158 30.0097 32.2453C30.1933 32.0748 30.4281 31.9694 30.6778 31.9455C30.8455 31.9455 31.0162 31.9455 31.1839 31.9455H39.4846Z" fill="#2F2A32"/>
<path d="M11.0943 27.0547H18.4434C19.0912 27.0547 19.6002 27.372 19.6986 27.8912C19.8692 28.7882 19.4354 29.3333 18.5417 29.5006C18.4215 29.5122 18.3004 29.5122 18.1802 29.5006C13.4755 29.5006 8.76895 29.5006 4.06044 29.5006C3.7049 29.5024 3.35435 29.4173 3.03948 29.2526C2.88868 29.1843 2.76063 29.0745 2.67043 28.9359C2.58023 28.7974 2.53165 28.6361 2.53045 28.4709C2.50731 28.0469 2.47549 27.6373 2.88908 27.3172C3.10785 27.1366 3.38636 27.044 3.66999 27.0576L11.0943 27.0547Z" fill="#2F2A32"/>
<path d="M21.0064 41.7351C19.7251 41.8851 18.5017 40.5381 18.5278 39.3007C18.5308 38.9776 18.5976 38.6583 18.7244 38.3609C18.8512 38.0636 19.0355 37.794 19.2667 37.5677C19.4979 37.3414 19.7716 37.1627 20.0721 37.0418C20.3726 36.921 20.694 36.8604 21.0179 36.8634C21.3419 36.8664 21.6621 36.9331 21.9603 37.0595C22.2584 37.186 22.5287 37.3697 22.7556 37.6003C22.9826 37.8309 23.1617 38.1039 23.2829 38.4035C23.4041 38.7032 23.4649 39.0237 23.4618 39.3469C23.4647 40.5295 22.4496 41.8073 21.0064 41.7351Z" fill="#2F2A32"/>
<path d="M61.7028 41.7338C60.3 41.8232 59.2675 40.6204 59.2647 39.2792C59.2642 38.9563 59.3281 38.6365 59.4525 38.3384C59.5769 38.0403 59.7594 37.7698 59.9894 37.5426C60.2194 37.3153 60.4924 37.1359 60.7925 37.0146C61.0925 36.8933 61.4137 36.8326 61.7375 36.8361C62.0666 36.8417 62.3914 36.9122 62.6931 37.0437C62.9947 37.1751 63.2673 37.3649 63.4951 37.6019C63.7228 37.839 63.9012 38.1187 64.02 38.4249C64.1388 38.731 64.1956 39.0577 64.1872 39.3859C64.1727 40.5396 63.065 41.8838 61.7028 41.7338Z" fill="#2F2A32"/>
</g>
<defs>
<clipPath id="clip0_4854_17819">
<rect width="74" height="46.6522" fill="white"/>
</clipPath>
</defs>
</svg>
