<svg width="229" height="90" viewBox="0 0 229 90" fill="none" xmlns="http://www.w3.org/2000/svg">
<g clip-path="url(#clip0_4864_19695)">
<path fill-rule="evenodd" clip-rule="evenodd" d="M85.0696 34.56C71.9296 29.19 59.4896 16.56 51.3896 0C48.9896 4.2 48.0996 9.08 48.8296 16.47C40.9196 15.76 34.9796 15.04 18.8096 10.87C23.7896 15.69 35.1996 24.63 52.2296 29.86C62.1596 32.38 76.4596 33.92 85.0696 34.57V34.56Z" fill="white"/>
<path fill-rule="evenodd" clip-rule="evenodd" d="M151.95 17.8186C160.09 11.8386 167.49 5.6386 177.49 3.0786C191.98 0.288601 205.22 8.7686 190.56 25.4886C179.15 37.1686 156.18 48.7386 123.57 48.7386H123.51C103.93 48.7286 80.8903 44.5486 54.7803 33.7386C91.8803 42.4186 122.15 42.4086 151.95 17.8286V17.8186Z" fill="white"/>
<path d="M23.91 61.6819L16.45 77.9919C16.42 78.0719 16.38 78.1619 16.33 78.2619C16.28 78.3819 16.21 78.5319 16.14 78.6919C15.66 79.7119 15.3 80.5919 15.05 81.2919C14.74 80.5019 14.48 79.8319 14.26 79.2919L14.2 79.1519C13.99 78.6319 13.84 78.2419 13.72 78.0219L6.19 61.9019L6.09 61.6919L0 88.6119H3.97L6.72 75.9719C6.88 75.3319 6.99 74.7119 7.06 74.1219C7.11 73.7119 7.15 73.2919 7.18 72.8919C7.3 73.2719 7.43 73.6519 7.58 74.0419C7.79 74.5919 8.03 75.1319 8.3 75.7019L14.99 89.5819L15.06 89.7219L21.81 75.9819C22.12 75.3419 22.36 74.7519 22.54 74.1819C22.68 73.7519 22.81 73.3119 22.9 72.8819C22.96 73.3219 23.02 73.8119 23.08 74.2819C23.19 75.2119 23.26 75.7419 23.31 75.9319L26.14 88.5419V88.6019H30.16L23.97 61.8919L23.92 61.6719L23.91 61.6819Z" fill="white"/>
<path d="M43.9102 61.8008L31.4602 88.5008L31.4102 88.6108H35.9402L38.9102 82.0308H48.9202L51.8002 88.5608L51.8202 88.6108H56.3702L43.9802 61.9608L43.9102 61.8008ZM43.0902 72.7108C43.2602 72.2808 43.4202 71.8408 43.5702 71.3708C43.6902 70.9908 43.8202 70.5708 43.9402 70.0808C44.0702 70.5508 44.2102 71.0008 44.3502 71.4208C44.4902 71.8208 44.6602 72.3008 44.8302 72.7108L47.3902 78.4208H40.5102L43.0802 72.7108H43.0902Z" fill="white"/>
<path d="M70.6198 74.8836C71.6098 73.7236 72.1098 72.0936 72.1098 70.0336C72.1098 68.8436 71.8898 67.7436 71.4598 66.7936C71.0298 65.8136 70.4098 65.0036 69.6098 64.3736C68.9298 63.8536 68.1098 63.4736 67.1798 63.2636C66.2598 63.0436 64.9698 62.9336 63.2098 62.9336H57.3398V88.6236H61.3798V77.1936H61.7398L70.1998 88.5936L70.2198 88.6236H75.1098L66.3098 76.9936C68.2198 76.7336 69.6198 76.0436 70.6098 74.8936L70.6198 74.8836ZM61.6498 66.6436H62.3298C64.3898 66.6436 65.8198 66.9336 66.5798 67.4936C67.3398 68.0536 67.7098 69.0136 67.7098 70.4036C67.7098 71.6736 67.3498 72.5636 66.6598 73.0536C65.9498 73.5536 64.4898 73.8036 62.3298 73.8036H61.6498V66.6336V66.6436Z" fill="white"/>
<path d="M80.9203 62.9336H76.6104V88.6236H80.9203V62.9336Z" fill="white"/>
<path d="M102.8 63.0597L102.92 62.9297H97.6395L88.5695 73.3597V62.9297H84.2695V88.6097H88.5695V75.7197L98.5295 88.5797L98.5495 88.6097H104.11L92.7395 74.3597L102.8 63.0597Z" fill="white"/>
<path d="M125.82 66.2498C124.52 64.9898 123.03 64.0098 121.37 63.3398C119.72 62.6798 117.95 62.3398 116.12 62.3398C114.29 62.3398 112.49 62.6798 110.85 63.3398C109.19 64.0098 107.68 64.9898 106.39 66.2498C105.08 67.5398 104.08 69.0098 103.41 70.6198C102.73 72.2398 102.39 73.9898 102.39 75.8098C102.39 77.6298 102.72 79.3598 103.41 80.9998C104.08 82.5998 105.08 84.0498 106.39 85.3298C107.68 86.5898 109.18 87.5698 110.84 88.2398C112.51 88.9198 114.29 89.2698 116.13 89.2698C117.97 89.2698 119.73 88.9198 121.35 88.2498C123 87.5898 124.5 86.5998 125.82 85.3298C127.11 84.0598 128.12 82.5998 128.81 80.9798C129.49 79.3498 129.83 77.6098 129.83 75.7998C129.83 73.9898 129.49 72.2498 128.8 70.6298C128.11 68.9898 127.14 67.5498 125.81 66.2298L125.82 66.2498ZM116.12 85.2798C114.86 85.2798 113.66 85.0398 112.55 84.5598C111.44 84.0998 110.43 83.4098 109.56 82.5098C108.69 81.6198 108.02 80.5898 107.55 79.4498C107.09 78.2998 106.85 77.0798 106.85 75.8198C106.85 74.5598 107.08 73.3098 107.55 72.1498C108.01 71.0098 108.68 69.9698 109.56 69.0798C110.42 68.1998 111.43 67.5098 112.57 67.0298C113.68 66.5598 114.88 66.3198 116.12 66.3198C117.36 66.3198 118.57 66.5598 119.67 67.0398C120.79 67.5198 121.79 68.1998 122.64 69.0798C123.53 69.9998 124.19 71.0098 124.66 72.1798C125.12 73.3298 125.36 74.5598 125.36 75.8198C125.36 77.0798 125.12 78.2898 124.66 79.4398C124.19 80.5898 123.51 81.6198 122.64 82.5098C121.75 83.4098 120.74 84.0998 119.64 84.5598C118.54 85.0398 117.36 85.2798 116.13 85.2798H116.12Z" fill="white"/>
<path d="M153.83 61.6802L146.38 77.9902L146.28 78.2102C146.22 78.3402 146.15 78.5002 146.07 78.6802C145.58 79.7302 145.23 80.5802 144.98 81.2802C144.65 80.4402 144.4 79.8102 144.19 79.2802L144.11 79.0802C143.91 78.5802 143.77 78.2202 143.66 78.0102L136.03 61.6802L129.92 88.6102H133.9L136.65 75.9702C136.81 75.3302 136.92 74.7102 136.99 74.1202C137.04 73.7402 137.08 73.3402 137.11 72.8802C137.23 73.2602 137.36 73.6502 137.51 74.0402C137.73 74.6002 137.96 75.1402 138.24 75.7002L144.92 89.5802L144.99 89.7202L151.74 75.9802C152.05 75.3302 152.28 74.7402 152.46 74.1802C152.61 73.7202 152.73 73.3002 152.82 72.8802C152.88 73.3402 152.94 73.8002 153 74.2702C153.12 75.2402 153.19 75.7302 153.24 75.9202L156.06 88.5302V88.5902H160.08L153.88 61.8802L153.83 61.6602V61.6802Z" fill="white"/>
<path d="M161.989 88.6097H176.389V84.7397H166.299V76.6397H176.389V72.8397H166.299V66.5997H176.389V62.9297H161.989V88.6097Z" fill="white"/>
<path d="M192.219 74.8797C193.219 73.7197 193.719 72.0897 193.719 70.0297C193.719 68.8497 193.499 67.7597 193.069 66.7897C192.619 65.7997 191.999 64.9897 191.209 64.3697C190.539 63.8497 189.719 63.4797 188.779 63.2597C187.869 63.0397 186.569 62.9297 184.809 62.9297H178.949V88.6197H182.989V77.1897H183.339L191.809 88.5897L191.829 88.6197H196.719L187.919 76.9897C189.799 76.7297 191.239 76.0197 192.209 74.8897L192.219 74.8797ZM183.259 66.6297H183.929C185.999 66.6297 187.429 66.9197 188.179 67.4797C188.939 68.0397 189.309 68.9997 189.309 70.3897C189.309 71.6597 188.949 72.5497 188.259 73.0397C187.549 73.5397 186.089 73.7897 183.919 73.7897H183.249V66.6197L183.259 66.6297Z" fill="white"/>
<path d="M217.339 64.9486C216.069 64.0786 214.729 63.4086 213.359 62.9686C212.009 62.5286 210.559 62.3086 209.049 62.3086C207.149 62.3086 205.349 62.6386 203.699 63.2886C202.059 63.9286 200.579 64.8886 199.309 66.1486C198.029 67.4086 197.039 68.8786 196.379 70.5186C195.709 72.1686 195.369 73.9486 195.369 75.8186C195.369 77.6886 195.709 79.4686 196.379 81.1386C197.049 82.8086 198.019 84.2586 199.269 85.4686C200.529 86.7286 202.009 87.6886 203.659 88.3186C205.319 88.9586 207.149 89.2886 209.109 89.2886C210.669 89.2886 212.109 89.0886 213.399 88.6886C214.709 88.2986 215.939 87.6886 217.069 86.8886L217.099 86.8686V81.9686L216.969 82.0786C215.709 83.1586 214.399 83.9686 213.059 84.4886C211.699 85.0186 210.259 85.2886 208.769 85.2886C206.219 85.2886 204.069 84.3886 202.379 82.6286C200.699 80.8586 199.849 78.5886 199.849 75.8786C199.849 73.0186 200.699 70.7586 202.449 68.9586C204.179 67.1886 206.449 66.2986 209.209 66.2986C210.629 66.2986 211.999 66.5486 213.299 67.0486C214.579 67.5286 215.829 68.2886 216.999 69.2786L217.119 69.3886L217.349 65.0486V65.0086L217.319 64.9786L217.339 64.9486Z" fill="white"/>
<path fill-rule="evenodd" clip-rule="evenodd" d="M224.88 69.8597C226.81 69.8597 228.35 68.3097 228.35 66.3897C228.35 64.4697 226.81 62.9297 224.88 62.9297C222.95 62.9297 221.41 64.4697 221.41 66.3897C221.41 68.3097 222.95 69.8597 224.88 69.8597ZM224.88 68.9497C223.37 68.9497 222.31 67.9297 222.31 66.3797C222.31 64.8297 223.37 63.8197 224.88 63.8197C226.39 63.8197 227.45 64.8297 227.45 66.3797C227.45 67.9297 226.37 68.9497 224.88 68.9497ZM225.62 66.6597C226.08 66.6097 226.44 66.2997 226.44 65.6697C226.44 64.8197 225.98 64.5597 225.21 64.5597H223.45V68.1897H224.21V66.6497H224.8L225.61 68.1897H226.51L225.63 66.6497L225.62 66.6597ZM224.21 65.9697V65.2597H225.04C225.42 65.2597 225.75 65.2597 225.75 65.5797C225.75 65.9697 225.42 65.9697 225.04 65.9697H224.21Z" fill="white"/>
</g>
<defs>
<clipPath id="clip0_4864_19695">
<rect width="228.35" height="89.73" fill="white"/>
</clipPath>
</defs>
</svg>
