<svg width="253" height="27" viewBox="0 0 253 27" fill="none" xmlns="http://www.w3.org/2000/svg">
<path fill-rule="evenodd" clip-rule="evenodd" d="M36.3811 19.1454C29.1664 16.1706 22.336 9.17384 17.8886 0C16.5708 2.3267 16.0822 5.0301 16.483 9.12398C12.1399 8.73066 8.8784 8.33179 0 6.02172C2.73435 8.69188 8.9992 13.6444 18.3498 16.5417C23.802 17.9377 31.6537 18.7909 36.3811 19.1509V19.1454Z" fill="white"/>
<path fill-rule="evenodd" clip-rule="evenodd" d="M73.1028 9.8699C77.5722 6.55712 81.6353 3.12248 87.1259 1.7043C95.0819 0.158706 102.352 4.85642 94.3022 14.1189C88.0374 20.5893 75.4253 26.9988 57.5203 26.9988H57.4873C46.7366 26.9933 34.0861 24.6777 19.75 18.6892C40.1204 23.4977 56.7406 23.4922 73.1028 9.87544V9.8699Z" fill="white"/>
<path d="M128.101 2.78386L123.284 13.4089C123.265 13.4611 123.239 13.5197 123.207 13.5848C123.175 13.663 123.129 13.7607 123.084 13.865C122.774 14.5294 122.542 15.1027 122.38 15.5587C122.18 15.0441 122.012 14.6076 121.87 14.2558L121.832 14.1646C121.696 13.8259 121.599 13.5718 121.522 13.4285L116.66 2.92718L116.595 2.79037L112.663 20.3273H115.226L117.002 12.093C117.105 11.6761 117.176 11.2722 117.222 10.8878C117.254 10.6208 117.28 10.3471 117.299 10.0866C117.376 10.3341 117.46 10.5817 117.557 10.8357C117.693 11.194 117.848 11.5458 118.022 11.9171L122.342 20.9592L122.387 21.0504L126.745 12.0995C126.945 11.6826 127.1 11.2983 127.217 10.9269C127.307 10.6468 127.391 10.3602 127.449 10.0801C127.488 10.3667 127.526 10.6859 127.565 10.9921C127.636 11.5979 127.681 11.9432 127.714 12.067L129.541 20.2817V20.3208H132.137L128.14 2.92066L128.108 2.77734L128.101 2.78386Z" fill="white"/>
<path d="M141.014 2.85938L132.976 20.253L132.943 20.3246H135.868L137.786 16.0381H144.249L146.109 20.2921L146.122 20.3246H149.059L141.059 2.96361L141.014 2.85938V2.85938ZM140.485 9.96665C140.595 9.68653 140.698 9.39989 140.795 9.09371C140.872 8.84616 140.956 8.57256 141.034 8.25335C141.118 8.55953 141.208 8.85268 141.298 9.12628C141.389 9.38686 141.499 9.69956 141.608 9.96665L143.261 13.6864H138.819L140.478 9.96665H140.485Z" fill="white"/>
<path d="M158.26 11.3824C158.899 10.6268 159.222 9.5649 159.222 8.22292C159.222 7.4477 159.08 6.73111 158.802 6.11224C158.525 5.47382 158.124 4.94615 157.608 4.53574C157.169 4.19699 156.639 3.94944 156.039 3.81263C155.445 3.66931 154.612 3.59766 153.476 3.59766H149.686V20.3333H152.294V12.8873H152.527L157.989 20.3138L158.002 20.3333H161.159L155.477 12.757C156.71 12.5876 157.614 12.1381 158.254 11.3889L158.26 11.3824ZM152.468 6.01452H152.907C154.238 6.01452 155.161 6.20344 155.652 6.56825C156.142 6.93306 156.381 7.55845 156.381 8.46396C156.381 9.29129 156.149 9.87108 155.703 10.1903C155.245 10.516 154.302 10.6789 152.907 10.6789H152.468V6.008V6.01452Z" fill="white"/>
<path d="M164.911 3.59766H162.128V20.3333H164.911V3.59766Z" fill="white"/>
<path d="M179.039 3.68234L179.116 3.59766H175.707L169.851 10.3922V3.59766H167.074V20.3268H169.851V11.9296L176.282 20.3072L176.294 20.3268H179.884L172.543 11.0437L179.039 3.68234Z" fill="white"/>
<path d="M193.902 5.75809C193.062 4.93727 192.1 4.29885 191.028 3.86238C189.963 3.43243 188.82 3.21094 187.639 3.21094C186.457 3.21094 185.295 3.43243 184.236 3.86238C183.164 4.29885 182.189 4.93727 181.356 5.75809C180.51 6.59846 179.865 7.55608 179.432 8.60491C178.993 9.66025 178.773 10.8003 178.773 11.9859C178.773 13.1715 178.987 14.2985 179.432 15.3669C179.865 16.4092 180.51 17.3538 181.356 18.1877C182.189 19.0085 183.158 19.6469 184.229 20.0834C185.308 20.5264 186.457 20.7544 187.645 20.7544C188.833 20.7544 189.969 20.5264 191.015 20.0899C192.081 19.6599 193.049 19.015 193.902 18.1877C194.734 17.3603 195.387 16.4092 195.832 15.3539C196.271 14.292 196.491 13.1585 196.491 11.9794C196.491 10.8003 196.271 9.66676 195.826 8.61142C195.38 7.54305 194.754 6.60497 193.895 5.74506L193.902 5.75809ZM187.639 18.1551C186.825 18.1551 186.05 17.9988 185.333 17.6861C184.617 17.3864 183.965 16.9369 183.403 16.3506C182.841 15.7708 182.409 15.0998 182.105 14.3572C181.808 13.608 181.653 12.8132 181.653 11.9924C181.653 11.1716 181.802 10.3573 182.105 9.60162C182.402 8.85897 182.835 8.18147 183.403 7.60168C183.958 7.02841 184.61 6.57891 185.346 6.26622C186.063 5.96004 186.838 5.80369 187.639 5.80369C188.439 5.80369 189.22 5.96004 189.931 6.27273C190.654 6.58543 191.299 7.02841 191.848 7.60168C192.423 8.20101 192.849 8.85897 193.153 9.62116C193.45 10.3703 193.605 11.1716 193.605 11.9924C193.605 12.8132 193.45 13.6015 193.153 14.3507C192.849 15.0998 192.41 15.7708 191.848 16.3506C191.274 16.9369 190.622 17.3864 189.911 17.6861C189.201 17.9988 188.439 18.1551 187.645 18.1551H187.639Z" fill="white"/>
<path d="M211.987 2.78256L207.177 13.4076L207.112 13.551C207.073 13.6356 207.028 13.7399 206.976 13.8571C206.66 14.5412 206.434 15.0949 206.273 15.5509C206.06 15.0037 205.898 14.5933 205.763 14.248L205.711 14.1177C205.582 13.792 205.491 13.5575 205.42 13.4207L200.494 2.78256L196.549 20.326H199.119L200.894 12.0917C200.998 11.6748 201.069 11.2709 201.114 10.8865C201.146 10.639 201.172 10.3784 201.191 10.0788C201.269 10.3263 201.353 10.5804 201.449 10.8344C201.592 11.1992 201.74 11.551 201.921 11.9158L206.234 20.9579L206.279 21.0491L210.637 12.0982C210.838 11.6748 210.986 11.2904 211.102 10.9256C211.199 10.626 211.277 10.3524 211.335 10.0788C211.373 10.3784 211.412 10.6781 211.451 10.9843C211.528 11.6162 211.574 11.9354 211.606 12.0591L213.427 20.2739V20.313H216.022L212.019 2.91285L211.987 2.76953V2.78256Z" fill="white"/>
<path d="M217.256 20.3268H226.554V17.8057H220.039V12.529H226.554V10.0535H220.039V5.98846H226.554V3.59766H217.256V20.3268Z" fill="white"/>
<path d="M236.775 11.3824C237.421 10.6268 237.744 9.5649 237.744 8.22292C237.744 7.45421 237.602 6.74414 237.324 6.11224C237.033 5.46731 236.633 4.93964 236.123 4.53574C235.69 4.19699 235.161 3.95595 234.554 3.81263C233.966 3.66931 233.127 3.59766 231.991 3.59766H228.207V20.3333H230.816V12.8873H231.042L236.51 20.3138L236.523 20.3333H239.681L233.999 12.757C235.213 12.5876 236.142 12.1251 236.769 11.3889L236.775 11.3824ZM230.99 6.008H231.422C232.759 6.008 233.682 6.19693 234.167 6.56174C234.657 6.92655 234.896 7.55193 234.896 8.45744C234.896 9.28478 234.664 9.86457 234.218 10.1838C233.76 10.5095 232.817 10.6724 231.416 10.6724H230.983V6.00149L230.99 6.008Z" fill="white"/>
<path d="M252.994 4.91122C252.174 4.34446 251.309 3.908 250.424 3.62136C249.553 3.33472 248.616 3.19141 247.641 3.19141C246.415 3.19141 245.252 3.40638 244.187 3.82982C243.128 4.24675 242.173 4.87214 241.353 5.69296C240.526 6.51378 239.887 7.4714 239.461 8.53977C239.028 9.61466 238.809 10.7742 238.809 11.9924C238.809 13.2106 239.028 14.3702 239.461 15.4581C239.893 16.546 240.52 17.4906 241.327 18.2789C242.14 19.0997 243.096 19.7251 244.161 20.1355C245.233 20.5524 246.415 20.7674 247.68 20.7674C248.687 20.7674 249.617 20.6371 250.45 20.3765C251.296 20.1225 252.09 19.7251 252.82 19.2039L252.839 19.1909V15.9988L252.755 16.0705C251.942 16.7741 251.096 17.3017 250.231 17.6405C249.352 17.9857 248.423 18.1616 247.461 18.1616C245.814 18.1616 244.426 17.5753 243.335 16.4288C242.25 15.2757 241.701 13.7969 241.701 12.0315C241.701 10.1684 242.25 8.69612 243.38 7.52352C244.497 6.37046 245.963 5.79068 247.745 5.79068C248.662 5.79068 249.546 5.95354 250.385 6.27926C251.212 6.59195 252.019 7.08705 252.774 7.73198L252.852 7.80364L253 4.97637V4.95031L252.981 4.93077L252.994 4.91122Z" fill="white"/>
</svg>
