<svg width="327" height="140" viewBox="0 0 327 140" fill="none" xmlns="http://www.w3.org/2000/svg">
<g clip-path="url(#clip0_5365_20898)">
<path d="M156.35 90.9214C154.866 89.4887 153.031 88.3943 150.88 87.6671C148.779 86.9616 146.22 86.6016 143.251 86.6016H135.078C134.24 86.6016 133.487 86.8752 132.892 87.3935C132.239 87.9623 131.902 88.8119 131.902 89.9135V117.798C131.902 118.9 132.232 119.749 132.892 120.318C133.487 120.837 134.24 121.11 135.078 121.11H142.685C145.617 121.11 148.191 120.779 150.349 120.131C152.565 119.461 154.486 118.389 156.042 116.949C157.612 115.502 158.831 113.615 159.655 111.354C160.465 109.137 160.874 106.459 160.874 103.391C160.874 100.713 160.494 98.3156 159.741 96.2565C158.974 94.1541 157.834 92.3614 156.343 90.9286L156.35 90.9214ZM142.986 113.45H140.864V94.2117H142.886C144.685 94.2117 146.141 94.4493 147.195 94.9101C148.227 95.3637 149.08 95.9973 149.733 96.7893C150.392 97.6028 150.887 98.582 151.195 99.7052C151.518 100.893 151.683 102.204 151.683 103.6C151.683 105.321 151.496 106.833 151.131 108.093C150.779 109.295 150.256 110.303 149.568 111.088C148.887 111.866 148.055 112.442 147.03 112.83C145.962 113.234 144.607 113.442 142.993 113.442L142.986 113.45Z" fill="white"/>
<path d="M171.147 86.7876C170.817 86.6796 170.416 86.5932 169.914 86.5356C169.455 86.478 168.889 86.4492 168.186 86.4492C167.483 86.4492 166.946 86.478 166.487 86.5356C165.992 86.5932 165.591 86.6796 165.254 86.7876C164.759 86.946 164.386 87.1836 164.121 87.5148C163.834 87.8748 163.684 88.2996 163.684 88.7532V118.963C163.684 119.417 163.834 119.849 164.121 120.202C164.379 120.526 164.752 120.771 165.225 120.929C165.555 121.037 165.963 121.123 166.472 121.181C166.946 121.239 167.505 121.267 168.186 121.267C168.867 121.267 169.448 121.239 169.907 121.181C170.408 121.123 170.81 121.037 171.14 120.929C171.613 120.771 171.986 120.526 172.244 120.209C172.531 119.856 172.681 119.424 172.681 118.971V88.7604C172.681 88.3068 172.531 87.882 172.237 87.5148C171.979 87.198 171.606 86.9532 171.133 86.7948L171.147 86.7876Z" fill="white"/>
<path d="M227.199 87.6815C226.855 87.3143 226.425 87.0336 225.916 86.8464C225.457 86.6808 224.934 86.6016 224.353 86.6016H219.994C219.277 86.6016 218.632 86.6808 218.065 86.832C217.42 87.0048 216.846 87.3071 216.373 87.7319C215.922 88.1279 215.534 88.6391 215.205 89.2511C214.918 89.7911 214.653 90.4391 214.423 91.195L208.444 107.121L202.673 91.1662C202.45 90.4031 202.185 89.7407 201.884 89.1935C201.533 88.5671 201.081 88.0487 200.543 87.6599C200.013 87.2711 199.389 86.9904 198.679 86.832C198.048 86.688 197.303 86.616 196.457 86.616H192.22C191.159 86.616 190.234 86.976 189.56 87.6527C188.871 88.3367 188.527 89.2871 188.527 90.4751V118.979C188.527 119.397 188.649 119.8 188.886 120.138C189.13 120.498 189.51 120.765 190.004 120.937C190.327 121.053 190.721 121.132 191.209 121.197C191.66 121.254 192.191 121.283 192.843 121.283C193.496 121.283 194.055 121.254 194.492 121.197C194.965 121.132 195.353 121.053 195.675 120.945C196.184 120.772 196.564 120.505 196.815 120.138C197.045 119.8 197.166 119.397 197.166 118.979V100.332L203.676 119.332C203.791 119.728 204.02 120.081 204.336 120.361C204.608 120.606 204.938 120.793 205.354 120.937C205.705 121.06 206.114 121.146 206.616 121.204C207.053 121.247 207.576 121.276 208.171 121.276C208.767 121.276 209.261 121.261 209.677 121.233C210.179 121.204 210.595 121.132 210.953 121.017C211.383 120.88 211.749 120.671 212.029 120.397C212.337 120.109 212.559 119.742 212.667 119.375L219.513 100.087V118.979C219.513 119.418 219.65 119.836 219.915 120.181C220.166 120.513 220.524 120.765 220.983 120.93C221.299 121.045 221.693 121.132 222.188 121.197C222.639 121.254 223.17 121.283 223.822 121.283C224.475 121.283 225.034 121.254 225.478 121.197C225.966 121.132 226.36 121.053 226.676 120.937C227.17 120.765 227.55 120.498 227.794 120.138C228.024 119.8 228.145 119.397 228.145 118.979V90.4751C228.145 89.9279 228.067 89.4239 227.923 88.9775C227.758 88.4879 227.514 88.0631 227.185 87.7031L227.199 87.6815Z" fill="white"/>
<path d="M261.129 117.005L251.292 88.6884C251.149 88.2276 250.963 87.8604 250.733 87.5508C250.425 87.1548 249.973 86.8668 249.393 86.7012C248.97 86.586 248.439 86.514 247.765 86.4852C247.17 86.4564 246.374 86.4492 245.399 86.4492C244.553 86.4492 243.851 86.4636 243.32 86.4852C242.704 86.514 242.209 86.5932 241.815 86.7156C241.277 86.8884 240.861 87.162 240.567 87.5508C240.352 87.8316 240.18 88.1628 240.037 88.5804L230.214 116.962C229.992 117.617 229.849 118.143 229.791 118.582C229.662 119.482 229.978 120.058 230.258 120.389C230.63 120.821 231.204 121.087 231.942 121.174C232.423 121.231 233.046 121.26 233.857 121.26C234.581 121.26 235.19 121.239 235.663 121.21C236.222 121.167 236.667 121.08 237.018 120.943C237.499 120.763 237.871 120.475 238.122 120.108C238.302 119.842 238.452 119.525 238.538 119.201L240.273 113.816H250.425L252.275 119.352C252.382 119.712 252.526 120.007 252.719 120.259C252.984 120.612 253.372 120.864 253.881 121.015C254.225 121.116 254.676 121.181 255.25 121.217C255.745 121.246 256.419 121.253 257.272 121.253C258.125 121.253 258.777 121.231 259.279 121.188C260.039 121.116 260.598 120.9 260.993 120.526C261.265 120.259 261.71 119.669 261.566 118.661C261.509 118.236 261.365 117.704 261.143 117.012L261.129 117.005ZM248.088 106.299H242.532L245.313 97.9113L248.095 106.299H248.088Z" fill="white"/>
<path d="M288.567 116.458L285.885 110.166C285.555 109.367 285.211 108.64 284.867 107.999C284.509 107.336 284.114 106.739 283.706 106.22C283.419 105.853 283.111 105.522 282.788 105.22C283.039 105.076 283.283 104.932 283.519 104.773C284.408 104.183 285.161 103.484 285.77 102.678C286.38 101.872 286.853 100.943 287.169 99.9278C287.477 98.927 287.627 97.8182 287.627 96.6303C287.627 95.2119 287.405 93.9231 286.975 92.8C286.538 91.6624 285.892 90.6544 285.054 89.8193C284.229 88.9913 283.218 88.3145 282.057 87.8105C280.931 87.3209 279.662 86.9753 278.243 86.7737C277.784 86.7233 277.268 86.6801 276.701 86.6441C276.135 86.6081 275.411 86.5938 274.558 86.5938H266.313C265.474 86.5938 264.721 86.8673 264.126 87.3857C263.474 87.9545 263.137 88.8041 263.137 89.9057V118.957C263.137 119.396 263.273 119.814 263.531 120.152C263.782 120.49 264.162 120.75 264.657 120.915C264.986 121.023 265.395 121.11 265.904 121.167C266.377 121.225 266.936 121.254 267.618 121.254C268.299 121.254 268.879 121.225 269.338 121.167C269.84 121.11 270.242 121.023 270.571 120.915C271.045 120.757 271.417 120.512 271.675 120.195C271.962 119.842 272.113 119.41 272.113 118.957V108.028H272.88C273.403 108.028 273.855 108.107 274.228 108.258C274.593 108.409 274.909 108.625 275.188 108.913C275.504 109.244 275.805 109.676 276.077 110.195C276.393 110.792 276.716 111.483 277.031 112.232L279.877 119.346C279.978 119.641 280.114 119.914 280.272 120.138C280.515 120.49 280.881 120.757 281.361 120.937C281.713 121.074 282.143 121.153 282.68 121.203C283.125 121.239 283.713 121.254 284.43 121.254C285.269 121.254 285.95 121.232 286.466 121.203C287.061 121.16 287.505 121.088 287.857 120.966C288.416 120.778 288.81 120.469 289.033 120.051C289.197 119.742 289.276 119.389 289.276 119.007C289.276 118.719 289.219 118.395 289.104 117.978C289.011 117.646 288.839 117.157 288.559 116.458H288.567ZM278.429 97.2998C278.429 97.8254 278.343 98.2934 278.178 98.6966C278.02 99.0782 277.791 99.4022 277.475 99.6758C277.146 99.9638 276.716 100.194 276.192 100.367C275.633 100.547 274.952 100.641 274.163 100.641H272.12V94.0887H273.769C274.457 94.0887 274.988 94.1103 275.361 94.1535C275.719 94.1967 276.049 94.2543 276.3 94.3119C277.088 94.5279 277.619 94.8591 277.92 95.3199C278.264 95.8383 278.429 96.4863 278.429 97.2998Z" fill="white"/>
<path d="M298.991 86.7876C298.661 86.6796 298.259 86.5932 297.758 86.5356C297.299 86.478 296.732 86.4492 296.03 86.4492C295.327 86.4492 294.789 86.478 294.331 86.5356C293.836 86.5932 293.434 86.6796 293.097 86.7876C292.603 86.946 292.23 87.1836 291.965 87.5148C291.678 87.8748 291.527 88.2996 291.527 88.7532V118.963C291.527 119.417 291.678 119.849 291.965 120.202C292.223 120.526 292.596 120.771 293.069 120.929C293.399 121.037 293.807 121.123 294.316 121.181C294.789 121.239 295.349 121.267 296.03 121.267C296.711 121.267 297.292 121.239 297.75 121.181C298.252 121.123 298.654 121.037 298.984 120.929C299.457 120.771 299.83 120.526 300.088 120.209C300.374 119.856 300.525 119.424 300.525 118.971V88.7604C300.525 88.3068 300.374 87.882 300.08 87.5148C299.822 87.198 299.45 86.9532 298.976 86.7948L298.991 86.7876Z" fill="white"/>
<path d="M325.668 106.421C325.217 105.341 324.621 104.384 323.883 103.585C323.166 102.8 322.342 102.116 321.424 101.554C320.564 101.029 319.675 100.554 318.786 100.136C317.918 99.7328 317.072 99.3584 316.24 98.9984C315.481 98.6672 314.792 98.3144 314.204 97.9472C313.695 97.6304 313.287 97.2704 313 96.8817C312.778 96.5865 312.67 96.2265 312.67 95.7945C312.67 95.4777 312.727 95.1897 312.835 94.9089C312.935 94.6641 313.079 94.4625 313.28 94.2897C313.509 94.0953 313.803 93.9369 314.169 93.8146C314.563 93.685 315.058 93.6202 315.624 93.6202C316.405 93.6202 317.122 93.7137 317.76 93.9009C318.449 94.1025 319.065 94.3329 319.574 94.5705C320.112 94.8225 320.571 95.0601 320.929 95.2689C321.539 95.6289 322.005 95.7873 322.42 95.7873C323.051 95.7873 323.46 95.5281 323.704 95.3049C323.983 95.0457 324.184 94.6857 324.306 94.2393C324.385 93.9441 324.435 93.5985 324.471 93.1882C324.5 92.8282 324.514 92.4034 324.514 91.885C324.514 91.4314 324.507 91.0498 324.485 90.7402C324.464 90.3946 324.428 90.0851 324.371 89.8259C324.306 89.5307 324.227 89.2859 324.12 89.0771C323.998 88.8395 323.819 88.6019 323.553 88.3283C323.281 88.0547 322.865 87.7883 322.205 87.4715C321.639 87.1979 320.987 86.9459 320.27 86.7299C319.567 86.5212 318.793 86.3484 317.983 86.226C315.581 85.8588 313.179 86.0316 311.028 86.658C309.573 87.0827 308.282 87.7379 307.2 88.6019C306.096 89.4803 305.207 90.6034 304.562 91.9282C303.916 93.2602 303.587 94.8009 303.587 96.5217C303.587 98.0192 303.816 99.3368 304.275 100.438C304.719 101.526 305.314 102.483 306.046 103.289C306.755 104.074 307.566 104.758 308.469 105.32C309.308 105.845 310.19 106.321 311.093 106.738C311.953 107.134 312.792 107.516 313.602 107.876C314.341 108.2 315.007 108.553 315.588 108.92C316.09 109.244 316.506 109.611 316.807 110.007C317.029 110.302 317.144 110.669 317.144 111.116C317.144 111.562 317.065 111.951 316.907 112.304C316.757 112.628 316.556 112.894 316.276 113.117C315.968 113.362 315.574 113.564 315.108 113.7C314.606 113.852 314.018 113.931 313.351 113.931C312.283 113.931 311.337 113.808 310.548 113.578C309.716 113.326 308.992 113.052 308.404 112.757C307.795 112.448 307.293 112.174 306.913 111.922C305.709 111.137 304.812 111.159 304.088 111.692C303.759 111.936 303.508 112.289 303.35 112.75C303.242 113.067 303.171 113.434 303.128 113.88C303.092 114.269 303.07 114.73 303.07 115.284C303.07 116.148 303.128 116.811 303.235 117.3C303.379 117.941 303.644 118.459 304.031 118.841C304.325 119.136 304.755 119.446 305.336 119.784C305.888 120.101 306.562 120.403 307.358 120.684C308.132 120.958 309.035 121.195 310.039 121.39C311.057 121.584 312.168 121.685 313.337 121.685C315.072 121.685 316.735 121.447 318.277 120.987C319.854 120.511 321.252 119.799 322.442 118.848C323.654 117.883 324.621 116.674 325.324 115.241C326.034 113.801 326.392 112.131 326.392 110.259C326.392 108.812 326.163 107.523 325.704 106.421H325.668Z" fill="white"/>
<path d="M63.1464 40.2893C65.6843 40.2893 67.7348 38.2302 67.7348 35.6815C67.7348 33.1327 65.6772 31.0664 63.1464 31.0664C60.6156 31.0664 58.5508 33.1399 58.5508 35.6815C58.5508 38.223 60.6084 40.2893 63.1464 40.2893Z" fill="white"/>
<path d="M57.0898 1.59835C56.0861 0.583183 54.6523 0 53.1682 0C51.6841 0 50.2574 0.583183 49.2537 1.59115L21.63 29.332L0 7.61018V23.3561L13.7939 37.2085L0 51.0609V66.7997L21.6229 45.0707L49.2465 72.8115C50.2718 73.8483 51.7056 74.4459 53.1682 74.4459C54.6307 74.4459 56.0574 73.8555 57.0827 72.8187L84.1184 45.6683V28.7488L57.0898 1.59835ZM53.1754 61.0111L29.4662 37.2085L53.1754 13.3988L76.8774 37.2085L53.1754 61.0111Z" fill="white"/>
<path d="M154.865 40.2893C157.403 40.2893 159.454 38.2302 159.454 35.6815C159.454 33.1327 157.396 31.0664 154.865 31.0664C152.334 31.0664 150.27 33.1399 150.27 35.6815C150.27 38.223 152.327 40.2893 154.865 40.2893Z" fill="white"/>
<path d="M148.809 1.59835C147.805 0.583183 146.371 0 144.887 0C143.403 0 141.976 0.583183 140.972 1.59115L113.349 29.332L91.7188 7.61018V23.3561L105.513 37.2085L91.7188 51.0609V66.7997L113.342 45.0707L140.965 72.8115C141.991 73.8483 143.424 74.4459 144.887 74.4459C146.349 74.4459 147.776 73.8555 148.801 72.8187L175.837 45.6683V28.7488L148.809 1.59835ZM144.894 61.0111L121.185 37.2085L144.894 13.3988L168.596 37.2085L144.894 61.0111Z" fill="white"/>
<path d="M92.6971 105.852C95.2351 105.852 97.2855 103.793 97.2855 101.244C97.2855 98.6952 95.2279 96.6289 92.6971 96.6289C90.1663 96.6289 88.1016 98.7024 88.1016 101.244C88.1016 103.785 90.1592 105.852 92.6971 105.852Z" fill="white"/>
<path d="M86.6406 67.153C85.6369 66.1379 84.203 65.5547 82.719 65.5547C81.2349 65.5547 79.8082 66.1379 78.8045 67.1458L51.1808 94.8866L29.5508 73.1649V88.9108L43.3447 102.763L29.5508 116.616V132.354L51.1737 110.625L78.7973 138.366C79.8225 139.403 81.2564 140.001 82.719 140.001C84.1815 140.001 85.6082 139.41 86.6334 138.373L113.669 111.223V94.3035L86.6334 67.1602L86.6406 67.153ZM82.7261 126.566L59.017 102.763L82.7261 78.9535L106.428 102.763L82.7261 126.566Z" fill="white"/>
</g>
<defs>
<clipPath id="clip0_5365_20898">
<rect width="326.358" height="140" fill="white"/>
</clipPath>
</defs>
</svg>
