<svg width="307" height="120" viewBox="0 0 307 120" fill="none" xmlns="http://www.w3.org/2000/svg">
<g clip-path="url(#clip0_5785_18576)">
<path fill-rule="evenodd" clip-rule="evenodd" d="M114.176 46.2187C96.5404 39.0371 79.8444 22.1464 68.9731 0C65.7654 5.61685 64.5575 12.1431 65.5373 22.0261C54.921 21.0766 46.9488 20.1003 25.2734 14.5369C31.9841 20.9696 47.2709 32.9254 70.1274 39.9465C83.4413 43.2899 102.62 45.3494 114.176 46.2187Z" fill="white"/>
<path fill-rule="evenodd" clip-rule="evenodd" d="M204.005 23.8311C214.93 15.807 224.862 7.54223 238.283 4.11862C257.69 0.38743 275.433 11.7281 255.771 34.0885C240.457 49.6953 209.629 65.1818 165.848 65.1818H165.768C139.489 65.1818 108.566 59.5783 73.5234 45.1216C123.303 56.7164 163.929 56.7164 203.938 23.8311H204.005Z" fill="white"/>
<path d="M32.0903 82.4883L22.078 104.314C22.0306 104.437 21.9768 104.557 21.9169 104.675L21.6619 105.237C21.0311 106.574 20.5346 107.777 20.2124 108.714L19.1522 106.039L19.0716 105.852C18.7898 105.156 18.5885 104.635 18.4274 104.341L8.32119 82.7691L8.2004 82.4883L0 118.503H5.36851L9.0191 101.639C9.22534 100.825 9.3822 99.9983 9.48884 99.165C9.48884 98.6167 9.60963 98.055 9.6499 97.52C9.79753 98.0282 9.98543 98.5498 10.1733 99.058C10.4552 99.7935 10.7773 100.516 11.1397 101.278L20.1319 119.814L20.2259 120.001L29.2718 101.639C29.6564 100.866 29.9839 100.066 30.2516 99.2452C30.4395 98.6702 30.6005 98.0817 30.7347 97.4933C30.8018 98.0817 30.8958 98.737 30.9763 99.3656C31.1239 100.623 31.2179 101.318 31.285 101.572L35.0698 118.436V118.516H40.4383L32.2111 82.7825L32.0903 82.4883Z" fill="white"/>
<path d="M58.9328 82.6484L42.2234 118.369L42.1562 118.503H48.3166L52.343 109.716H65.7643L69.6296 118.436H75.7229L59.0536 82.9159L58.9328 82.6484ZM57.8323 97.2389C58.0605 96.6638 58.2752 96.0754 58.4765 95.4468C58.6778 94.8183 58.8121 94.377 58.9731 93.7217C59.161 94.3502 59.3355 94.952 59.5234 95.5137C59.7113 96.0754 59.9394 96.6906 60.1676 97.2389L63.6169 104.875H54.3696L57.8323 97.2389Z" fill="white"/>
<path d="M94.7827 100.141C96.2213 98.2787 96.9362 95.961 96.7959 93.6149C96.8173 92.1252 96.5199 90.6481 95.9235 89.2819C95.3823 88.0122 94.5283 86.899 93.4406 86.0456C92.4724 85.3241 91.3603 84.8179 90.1792 84.5611C88.4118 84.215 86.6111 84.067 84.8107 84.1198H76.9727V118.503H82.3412V103.23H82.8109L94.1787 118.463H100.742L89.025 102.976C91.2355 102.793 93.2934 101.779 94.7827 100.141ZM82.7035 89.1081H83.6028C86.381 89.1081 88.3002 89.4959 89.3068 90.2582C89.8619 90.7326 90.2917 91.3355 90.5585 92.0141C90.8252 92.6926 90.9208 93.426 90.8368 94.1499C90.9137 94.8118 90.8239 95.4825 90.5756 96.1012C90.3272 96.72 89.928 97.2673 89.4142 97.6938C88.4613 98.3625 86.5152 98.6968 83.6028 98.6968H82.7035V89.1081Z" fill="white"/>
<path d="M108.605 84.1602H102.82V118.517H108.605V84.1602Z" fill="white"/>
<path d="M137.971 84.334L138.132 84.1602H131.046L118.873 98.1087V84.1602H113.102V118.503H118.873V101.265L132.24 118.463L132.281 118.503H139.729L124.469 99.446L137.971 84.334Z" fill="white"/>
<path d="M168.865 88.6009C165.364 85.2382 160.69 83.3594 155.827 83.3594C150.963 83.3594 146.29 85.2382 142.788 88.6009C141.07 90.2611 139.709 92.2514 138.786 94.4513C137.863 96.6513 137.398 99.015 137.419 101.399C137.39 103.78 137.847 106.141 138.761 108.34C139.7 110.524 141.069 112.498 142.788 114.144C144.504 115.819 146.533 117.141 148.76 118.036C151.018 118.935 153.429 119.389 155.86 119.373C158.261 119.391 160.642 118.936 162.866 118.036C165.099 117.13 167.136 115.804 168.865 114.131C170.586 112.481 171.956 110.503 172.892 108.313C174.282 105.002 174.641 101.351 173.923 97.8334C173.206 94.316 171.443 91.0947 168.865 88.5876V88.6009ZM155.86 114.011C154.218 114.015 152.592 113.689 151.079 113.052C149.566 112.416 148.198 111.482 147.056 110.306C145.897 109.133 144.985 107.742 144.372 106.214C143.744 104.672 143.425 103.023 143.432 101.359C143.422 99.6779 143.741 98.0107 144.372 96.4512C144.986 94.9198 145.898 93.5245 147.056 92.3455C148.201 91.1742 149.57 90.244 151.082 89.61C152.595 88.9759 154.219 88.651 155.86 88.6544C157.498 88.6454 159.12 88.9732 160.625 89.6173C162.134 90.2291 163.504 91.139 164.651 92.292C165.812 93.4784 166.725 94.8832 167.335 96.4244C168.588 99.5451 168.588 103.026 167.335 106.147C166.087 109.218 163.677 111.678 160.625 112.994C159.129 113.676 157.505 114.036 155.86 114.051V114.011Z" fill="white"/>
<path d="M206.459 82.4883L196.46 104.314L196.326 104.608L196.044 105.237C195.497 106.37 195.008 107.53 194.581 108.714L193.521 106.039L193.413 105.771C193.145 105.103 192.943 104.621 192.809 104.34L182.529 82.4883L174.328 118.503H179.697L183.401 101.639C183.603 100.824 183.755 99.9981 183.857 99.165C183.938 98.6568 183.978 98.1219 184.018 97.5067C184.179 98.0282 184.354 98.5498 184.555 99.058C184.85 99.8069 185.159 100.529 185.521 101.278L194.487 119.84L194.581 120.028L203.64 101.639C204.02 100.864 204.348 100.064 204.62 99.2452C204.811 98.6745 204.973 98.0942 205.103 97.5067C205.184 98.1219 205.264 98.737 205.331 99.3656C205.492 100.703 205.586 101.318 205.653 101.572L209.438 118.436V118.516H214.807L206.486 82.7959L206.459 82.4883Z" fill="white"/>
<path d="M217.41 118.503H236.75V113.328H223.181V102.495H236.75V97.4132H223.181V89.0682H236.75V84.1602H217.41V118.503Z" fill="white"/>
<path d="M257.985 100.141C259.436 98.2848 260.157 95.964 260.012 93.6152C260.031 92.1244 259.729 90.6468 259.126 89.2822C258.63 88.0864 257.847 87.0303 256.845 86.2071C255.844 85.3838 254.654 84.8187 253.382 84.5614C251.614 84.2145 249.814 84.0664 248.013 84.1201H240.242V118.503H245.611V103.231H246.08L257.448 118.463H264.011L252.241 102.977C254.444 102.779 256.493 101.768 257.985 100.141ZM245.906 89.1084H246.805C249.57 89.1084 251.489 89.4962 252.509 90.2585C253.062 90.7343 253.489 91.3378 253.754 92.0163C254.018 92.6947 254.111 93.4274 254.026 94.1502C254.104 94.811 254.017 95.4809 253.771 96.0996C253.525 96.7182 253.128 97.2662 252.617 97.6941C251.664 98.3628 249.718 98.6972 246.805 98.6972H245.906V89.1084Z" fill="white"/>
<path d="M291.7 86.9286C290.046 85.7885 288.239 84.888 286.331 84.2539C284.456 83.6633 282.5 83.3656 280.533 83.3713C278.081 83.3612 275.649 83.815 273.366 84.7086C271.162 85.5719 269.157 86.8732 267.474 88.5334C265.773 90.1901 264.434 92.18 263.542 94.3776C262.638 96.6312 262.182 99.0386 262.2 101.466C262.186 103.901 262.641 106.316 263.542 108.58C264.43 110.761 265.756 112.737 267.438 114.388C269.121 116.04 271.124 117.331 273.326 118.182C275.655 119.075 278.131 119.529 280.627 119.52C282.58 119.541 284.526 119.271 286.398 118.717C288.161 118.192 289.822 117.374 291.31 116.297V109.663L291.136 109.811C289.577 111.173 287.799 112.263 285.875 113.034C284.044 113.746 282.096 114.109 280.131 114.103C278.531 114.141 276.941 113.843 275.464 113.231C273.987 112.618 272.655 111.703 271.554 110.546C269.365 107.993 268.177 104.735 268.212 101.377C268.246 98.0185 269.5 94.7861 271.742 92.278C272.922 91.087 274.339 90.1543 275.901 89.5394C277.463 88.9246 279.137 88.6412 280.815 88.7073C282.691 88.7022 284.552 89.0423 286.304 89.7103C288.118 90.4143 289.798 91.423 291.27 92.6926L291.431 92.8397L291.753 87.0222L291.7 86.9286Z" fill="white"/>
<path fill-rule="evenodd" clip-rule="evenodd" d="M301.817 93.4257C302.739 93.4257 303.639 93.1535 304.405 92.6436C305.171 92.1337 305.768 91.4089 306.12 90.561C306.473 89.713 306.565 88.78 306.385 87.8798C306.205 86.9796 305.762 86.1527 305.111 85.5037C304.459 84.8547 303.629 84.4128 302.726 84.2337C301.823 84.0546 300.886 84.1465 300.035 84.4978C299.184 84.849 298.457 85.4438 297.945 86.2069C297.433 86.9701 297.16 87.8673 297.16 88.7851C297.157 89.3955 297.275 90.0006 297.507 90.5652C297.74 91.1298 298.083 91.6428 298.516 92.0744C298.95 92.506 299.464 92.8477 300.031 93.0797C300.598 93.3116 301.205 93.4292 301.817 93.4257ZM301.817 92.2221C301.135 92.2221 300.468 92.0205 299.901 91.6429C299.334 91.2652 298.892 90.7284 298.631 90.1004C298.37 89.4724 298.301 88.7813 298.434 88.1146C298.568 87.4479 298.896 86.8355 299.378 86.3548C299.861 85.8741 300.475 85.5468 301.144 85.4142C301.814 85.2816 302.507 85.3496 303.137 85.6098C303.768 85.8699 304.306 86.3104 304.685 86.8756C305.064 87.4408 305.267 88.1053 305.267 88.7851C305.298 89.2469 305.23 89.7099 305.068 90.1438C304.907 90.5777 304.655 90.9725 304.329 91.3023C304.003 91.632 303.611 91.8893 303.178 92.057C302.745 92.2248 302.281 92.2993 301.817 92.2756V92.2221ZM302.811 89.1596C302.971 89.1464 303.128 89.1009 303.271 89.0258C303.413 88.9507 303.539 88.8475 303.641 88.7225C303.743 88.5975 303.818 88.4533 303.862 88.2985C303.906 88.1438 303.918 87.9818 303.898 87.8222C303.898 86.6855 303.28 86.3378 302.247 86.3378H299.885V91.2057H300.905V89.1596H301.697L302.784 91.2057H303.978L302.811 89.1596ZM300.905 88.2636V87.314H301.978C302.488 87.314 302.931 87.314 302.931 87.742C302.931 88.1699 302.488 88.2636 301.978 88.2636H300.905Z" fill="white"/>
</g>
<defs>
<clipPath id="clip0_5785_18576">
<rect width="306.475" height="120" fill="white"/>
</clipPath>
</defs>
</svg>
