<svg width="289" height="112" viewBox="0 0 289 112" fill="none" xmlns="http://www.w3.org/2000/svg">
<g clip-path="url(#clip0_5785_18928)">
<path d="M200.523 83.5959H164.532C162.968 83.5959 162.975 83.5039 163.249 81.9835C163.654 79.763 163.91 77.5143 164.24 75.2655C164.624 72.6808 165.026 70.0997 165.407 67.515C165.729 65.3346 166.044 63.153 166.352 60.9703C166.793 57.8906 167.216 54.8074 167.671 51.7312C168.382 46.965 169.126 42.2058 169.826 37.4395C170.48 32.9986 171.074 28.5435 171.735 24.1025C172.379 19.7464 173.079 15.3974 173.751 11.0448C174.174 8.29041 174.608 5.53249 174.999 2.77103C175.098 2.06387 175.447 1.8199 176.119 1.82344H196.459C197.092 1.82344 197.458 1.99316 197.326 2.77103C196.939 5.08698 196.615 7.41353 196.26 9.74009C195.904 12.2399 195.549 14.7432 195.193 17.2431C194.941 19.0463 194.703 20.8531 194.436 22.6528C194.134 24.7142 193.803 26.772 193.494 28.8334C193.227 30.6013 192.982 32.3692 192.712 34.1371C192.193 37.5598 191.645 40.9789 191.137 44.3909C190.614 47.9267 190.148 51.4873 189.633 55.0301C189.202 57.9648 188.755 60.896 188.264 63.8201C188.129 64.6051 188.331 64.7465 189.107 64.743C193.337 64.7218 197.568 64.7854 201.799 64.7925C211.896 64.7925 221.992 64.7925 232.087 64.7925C232.766 64.7925 233.452 64.8349 234.128 64.7677C235.678 64.6121 236.616 63.5408 237.281 62.321C239.166 58.916 238.142 56.0697 234.437 54.6058C230.569 53.0819 226.651 51.6888 222.733 50.2922C219.494 49.1395 216.333 47.8171 213.514 45.8477C209.959 43.3408 207.26 40.1904 205.909 35.9474C204.967 32.9986 204.818 30.0356 205.063 26.9877C205.412 22.5945 206.838 18.3533 209.216 14.6348C211.594 10.9162 214.852 7.83356 218.705 5.65624C223.176 3.10331 228.148 1.53575 233.282 1.0597C238.297 0.559275 243.362 0.930167 248.25 2.1558C253.853 3.53476 258.642 6.32097 262.201 10.9599C262.72 11.6388 262.691 12.0808 262.044 12.6571C257.65 16.5984 253.274 20.5561 248.918 24.5303C248.207 25.1597 247.784 24.8521 247.304 24.3005C245.768 22.5326 244.004 21.0299 241.761 20.3086C237.601 18.9721 233.413 18.4947 229.438 20.9274C227.547 22.0871 226.85 23.9116 226.949 26.0649C227.056 28.0697 228.439 29.1127 230.089 29.7386C233.701 31.114 237.363 32.3551 241.007 33.6279C245.757 35.311 250.411 37.1637 254.329 40.452C258.393 43.8641 260.626 48.1778 260.704 53.4956C260.857 63.958 256.679 72.4298 248.516 78.9321C244.467 82.1603 239.766 83.6418 234.515 83.6029C223.174 83.5181 211.836 83.5782 200.494 83.5782L200.523 83.5959Z" fill="white"/>
<path d="M145.956 83.6062H136.097C134.795 83.6062 134.674 83.3976 134.895 82.1601C135.322 79.6426 135.656 77.1074 136.04 74.5829C136.395 72.2033 136.797 69.8308 137.149 67.4512C137.501 65.0716 137.81 62.6177 138.166 60.2063C138.521 57.7949 138.912 55.4542 139.257 53.0746C139.524 51.2431 139.748 49.408 139.968 47.5729C139.972 47.3769 139.953 47.1811 139.911 46.9895C139.704 47.061 139.507 47.1584 139.325 47.2794C137.014 49.2489 134.703 51.2325 132.41 53.209C127.416 57.4826 122.418 61.755 117.417 66.0262C116.386 66.9031 116.279 66.8748 115.312 65.7469C110.967 60.6624 106.624 55.5803 102.282 50.5005C95.0099 42.0264 87.7381 33.5605 80.4662 25.1029C80.2286 24.8647 80.0513 24.5738 79.9487 24.2542C79.8461 23.9346 79.8212 23.5953 79.876 23.2643C80.2671 20.8552 80.6392 18.445 80.9924 16.0336C81.227 14.4354 81.3941 12.8266 81.6359 11.2284C81.9914 8.84885 82.4039 6.47986 82.7772 4.10381C82.9372 3.0855 83.0154 2.05658 83.2145 1.05241C83.2927 0.667011 83.57 0.0659251 83.8118 0.0234955C84.0294 0.0216324 84.2451 0.0646582 84.4452 0.149858C84.6453 0.235057 84.8255 0.360581 84.9744 0.518507C87.1076 2.81678 89.1626 5.15394 91.2424 7.48403C95.8786 12.6699 100.512 17.8557 105.144 23.0415C109.247 27.6357 113.353 32.2252 117.463 36.8099C118.288 37.7292 119.131 38.6379 119.92 39.5891C120.425 40.1972 120.812 40.2291 121.438 39.6916C126.216 35.5972 131.016 31.5416 135.816 27.4719L167.487 0.550329C167.631 0.403683 167.801 0.283937 167.988 0.19675C168.301 0.101283 168.699 -0.0472204 168.955 0.0623893C169.147 0.147248 169.311 0.613974 169.261 0.889766C169.097 2.43491 168.884 3.97652 168.663 5.51459C168.277 8.2018 167.875 10.9008 167.458 13.6116C166.95 16.9741 166.392 20.3296 165.912 23.6992C165.556 26.199 165.254 28.7094 164.888 31.2092C164.425 34.3915 163.917 37.5348 163.441 40.6958C163.039 43.3406 162.669 45.9995 162.271 48.6301C161.738 52.1659 161.176 55.7017 160.65 59.2375C160.294 61.6772 159.981 64.124 159.626 66.5637C159.302 68.77 158.936 70.9693 158.609 73.1756C158.236 75.6754 157.898 78.1788 157.517 80.6786C157.449 81.4661 157.298 82.2446 157.07 83.0016C156.963 83.288 156.358 83.5567 155.982 83.5603C152.636 83.6062 149.29 83.585 145.945 83.585L145.956 83.6062Z" fill="white"/>
<path d="M44.6017 41.2561C34.2912 41.2561 23.9807 41.2561 13.6916 41.2561C12.6645 41.2747 11.6616 40.9456 10.8473 40.3227C7.67597 38.0103 4.44773 35.765 1.24792 33.495C1.0711 33.387 0.906591 33.2601 0.757287 33.1167C0.490636 32.848 0.252429 32.5298 0 32.2292C0.384482 32.0739 0.786988 31.967 1.19815 31.911C11.53 31.8792 21.8653 31.8792 32.1971 31.8438C44.0079 31.8061 55.8188 31.7531 67.6296 31.6847C70.974 31.6659 74.3184 31.6234 77.6628 31.5574C78.0298 31.5396 78.3959 31.6092 78.7305 31.7605C79.065 31.9118 79.3584 32.1404 79.5862 32.4272C84.585 38.1199 89.5897 43.8031 94.6004 49.4769C98.6108 54.0333 102.615 58.5969 106.614 63.1675C106.969 63.5847 107.407 63.9595 107.741 64.405C107.861 64.6571 107.934 64.9293 107.954 65.2077C107.685 65.2264 107.414 65.2049 107.151 65.144C100.922 62.6902 94.707 60.1939 88.4745 57.7507C84.5637 56.202 80.6066 54.6957 76.685 53.1541C76.0131 52.8854 75.8282 53.0233 75.7535 53.734C75.5971 55.2827 75.3198 56.8172 75.1385 58.3659C75.0389 59.2109 74.6265 59.4867 73.7874 59.4832C66.1506 59.4667 58.5125 59.4667 50.8733 59.4832C46.7598 59.4832 42.6427 59.5009 38.5292 59.4832C37.9803 59.4873 37.4416 59.3365 36.9755 59.0483C34.1312 57.0576 31.3083 55.0104 28.496 52.9632C28.2256 52.715 27.9868 52.4347 27.785 52.1287C28.1272 51.9925 28.4857 51.901 28.8516 51.8565C44.0399 51.8423 59.2283 51.8423 74.4167 51.8565C74.9536 51.8565 75.59 52.0262 75.7429 51.2023C75.8353 50.7321 75.7109 50.4492 75.1918 50.4351C74.8967 50.4351 74.6016 50.4351 74.303 50.4351C58.1973 50.4351 42.0916 50.4245 25.9859 50.4033C25.2596 50.3802 24.5552 50.1508 23.9559 49.7421C21.1614 47.8186 18.4202 45.8173 15.6755 43.8196C15.4635 43.6008 15.2893 43.3488 15.16 43.0735C15.4422 42.9488 15.7399 42.862 16.0452 42.8154C22.1391 42.8013 28.2341 42.8013 34.3303 42.8154H57.0845C63.3276 42.8154 69.572 42.8154 75.8175 42.8154C76.4646 42.8154 76.9944 42.7518 77.1401 41.9845C77.229 41.5284 77.0904 41.3056 76.6139 41.3056C76.0202 41.3056 75.43 41.3056 74.8363 41.3056L44.6017 41.2561Z" fill="white"/>
<path d="M57.4692 60.8828H73.4327C74.4993 60.8828 74.6841 61.1268 74.5277 62.1416C74.2433 63.966 73.9731 65.794 73.7349 67.6256C73.6353 68.4035 73.2336 68.6403 72.4834 68.6368C65.4083 68.6191 58.3367 68.6368 51.2652 68.605C50.6523 68.5931 50.0559 68.4053 49.5479 68.064C46.6646 66.0628 43.8238 64.0049 40.9867 61.9436C40.7663 61.7809 40.6809 61.4309 40.5352 61.1692C40.7837 61.039 41.0512 60.9483 41.328 60.9005C44.638 60.9005 47.948 60.9323 51.258 60.9465C53.3272 60.9465 55.3965 60.9465 57.4692 60.9465V60.8828Z" fill="white"/>
<path d="M63.1652 70.0286H72.0535C73.1877 70.0286 73.3548 70.2301 73.1983 71.3368C72.6982 74.8514 72.1981 78.366 71.698 81.8806C71.4669 83.5106 71.2358 83.6273 69.8741 82.6549C64.6454 78.9211 59.4309 75.1755 54.2306 71.4181C53.8552 71.0911 53.5113 70.7301 53.2031 70.3397C53.6826 70.19 54.1755 70.087 54.675 70.0321C57.5193 70.0038 60.3636 70.0321 63.2078 70.0321L63.1652 70.0286Z" fill="white"/>
<path d="M115.194 73.4492C115.059 74.3013 114.963 74.9979 114.838 75.6874C114.405 77.9574 113.971 80.2309 113.509 82.4973C113.473 82.6812 113.249 82.8262 113.11 82.9888C112.943 82.8403 112.694 82.7201 112.623 82.5362C112.45 82.0997 112.325 81.6456 112.25 81.182C112.115 80.3865 111.578 80.0187 110.895 79.7147C107.937 78.3923 104.986 77.0546 102.043 75.7015C101.41 75.4116 101.3 74.9944 101.812 74.464C104.13 72.0785 106.448 69.6907 108.766 67.3005C109.21 66.8373 109.615 66.7029 110.092 67.258C111.646 69.0648 113.217 70.8575 114.764 72.6713C114.937 72.913 115.081 73.1741 115.194 73.4492Z" fill="white"/>
<path d="M200.52 103.951C200.395 103.966 200.268 103.966 200.143 103.951C199.475 103.873 199.016 104.146 198.917 104.8C198.803 105.581 199.453 105.751 199.983 105.797C201.075 105.889 202.173 105.857 203.268 105.885C204.602 105.924 205.547 106.525 205.842 107.512C206.244 108.83 205.903 110.075 204.776 110.793C202.643 112.154 200.335 112.412 198.021 111.422C196.335 110.715 196.005 109.082 197.1 107.625C197.487 107.109 197.743 106.737 197.402 106.016C197.231 105.65 197.177 105.241 197.245 104.843C197.314 104.445 197.502 104.077 197.786 103.788C198.12 103.435 198.141 103.145 197.821 102.728C196.584 101.027 196.755 99.747 197.715 98.3433C198.675 96.9396 200.783 96.5224 202.436 97.035C203.261 97.2932 204.214 97.18 205.106 97.2012C205.611 97.2012 206.173 97.0775 206.223 97.8377C206.273 98.5095 205.956 98.7888 205.281 98.8171C205.11 98.8171 204.783 99.2237 204.822 99.3687C205.547 102.088 203.538 104.199 200.52 103.951ZM200.993 102.516C202.415 102.516 203.19 101.769 203.183 100.44C203.202 100.153 203.16 99.8649 203.058 99.5955C202.956 99.3261 202.798 99.0815 202.593 98.8781C202.388 98.6748 202.142 98.5174 201.871 98.4166C201.6 98.3158 201.31 98.274 201.021 98.2938C199.652 98.2938 198.853 99.0893 198.863 100.415C198.86 101.83 199.549 102.508 200.975 102.498L200.993 102.516ZM201.398 107.391V107.459C200.779 107.422 200.157 107.428 199.539 107.476C198.657 107.596 198.337 108.208 198.344 109.06C198.351 109.912 198.899 110.199 199.599 110.248C200.392 110.335 201.193 110.328 201.985 110.227C202.644 110.103 203.268 109.834 203.809 109.439C203.959 109.293 204.072 109.112 204.138 108.914C204.204 108.715 204.22 108.503 204.186 108.297C204.096 108.108 203.966 107.942 203.804 107.809C203.643 107.676 203.454 107.581 203.25 107.529C202.633 107.419 202.007 107.367 201.38 107.374L201.398 107.391Z" fill="white"/>
<path d="M241.241 102.129C241.241 100.81 241.194 99.4839 241.269 98.1686C241.288 97.9538 241.354 97.7457 241.461 97.5583C241.568 97.371 241.715 97.2089 241.891 97.0831C242.314 96.8533 242.738 97.122 242.862 97.6807C243.066 97.7319 243.281 97.7132 243.473 97.6276C243.826 97.31 244.247 97.076 244.704 96.9431C245.161 96.8103 245.642 96.782 246.111 96.8604C246.757 97.018 247.351 97.3382 247.836 97.7903C248.255 98.1651 248.454 98.1898 248.828 97.7903C249.695 96.878 250.805 96.6588 252.006 96.8639C252.704 96.9739 253.339 97.3291 253.795 97.8651C254.252 98.401 254.5 99.082 254.495 99.7845C254.573 101.959 254.538 104.137 254.541 106.312C254.541 106.856 254.278 107.333 253.72 107.196C253.523 107.114 253.35 106.985 253.215 106.821C253.08 106.657 252.987 106.463 252.945 106.255C252.86 104.674 252.924 103.073 252.888 101.496C252.856 100.911 252.78 100.33 252.66 99.7562C252.621 99.4148 252.463 99.0977 252.214 98.8596C251.965 98.6215 251.64 98.4772 251.295 98.4515C250.927 98.377 250.545 98.4204 250.203 98.5754C249.861 98.7304 249.578 98.989 249.393 99.3142C249.091 99.8468 248.912 100.44 248.87 101.05C248.799 102.723 248.831 104.402 248.838 106.078C248.838 106.697 248.739 107.234 247.964 107.231C247.189 107.227 247.075 106.683 247.071 106.075C247.071 104.25 247.093 102.426 247.043 100.605C247.004 99.1905 246.471 98.4232 245.564 98.3171C244.657 98.211 243.477 99.1445 243.296 100.315C243.075 101.729 243.047 103.175 242.94 104.607C242.905 105.194 242.94 105.785 242.912 106.375C242.883 106.909 242.645 107.291 242.03 107.241C241.415 107.192 241.241 106.81 241.244 106.269C241.244 104.887 241.244 103.508 241.244 102.125L241.241 102.129Z" fill="white"/>
<path d="M274.905 14.7549C274.069 14.7591 273.24 14.5982 272.467 14.2815C271.693 13.9647 270.991 13.4985 270.4 12.9097C269.81 12.321 269.342 11.6215 269.026 10.8518C268.709 10.082 268.549 9.25746 268.555 8.4258C268.519 4.72382 271.182 1.96943 274.869 1.90225C275.721 1.87281 276.57 2.01429 277.366 2.31826C278.161 2.62223 278.887 3.08246 279.5 3.67148C280.113 4.26051 280.6 4.96627 280.933 5.74665C281.265 6.52703 281.437 7.36605 281.436 8.21365C281.475 11.9369 278.716 14.7018 274.905 14.7549ZM275.132 3.54639C272.32 3.42618 270.397 5.2259 270.276 8.09343C270.155 10.961 272.014 13.2168 274.798 13.2274C277.379 13.2274 279.534 11.8661 279.687 8.54602C279.804 5.6997 278.055 3.53579 275.132 3.53579V3.54639Z" fill="white"/>
<path d="M169.945 104.332C169.945 102.303 169.92 100.273 169.945 98.2472C169.945 97.8653 170.13 97.3066 170.403 97.1617C170.677 97.0167 171.114 97.4233 171.502 97.5152C171.716 97.599 171.953 97.599 172.167 97.5152C172.838 97.0426 173.634 96.7771 174.456 96.752C175.278 96.7268 176.09 96.9431 176.789 97.3738C178.211 98.18 178.826 99.6226 178.794 101.263C178.829 102.11 178.737 102.957 178.52 103.777C177.631 106.433 175.775 107.596 172.97 107.415C171.694 107.331 171.694 107.331 171.694 108.607C171.694 109.342 171.694 110.078 171.694 110.813C171.694 111.429 171.338 111.701 170.727 111.704C170.115 111.708 169.945 111.323 169.945 110.778C169.945 108.635 169.945 106.489 169.945 104.343V104.332ZM176.963 101.857C176.963 101.475 176.938 101.093 176.906 100.715C176.785 99.3008 175.875 98.4275 174.488 98.4133C173.006 98.3957 171.829 99.3468 171.751 100.736C171.673 102.126 171.676 103.501 171.733 104.877C171.733 105.199 172.113 105.743 172.355 105.768C173.168 105.894 173.997 105.856 174.794 105.655C176.437 105.089 176.991 103.975 176.952 101.847L176.963 101.857Z" fill="white"/>
<path d="M212.565 104.305C212.565 102.219 212.544 100.137 212.565 98.0506C212.565 97.7289 212.786 97.195 212.999 97.1419C213.312 97.0677 213.71 97.3612 214.066 97.4566C214.293 97.5203 214.613 97.6158 214.777 97.5132C217.01 96.0246 220.565 96.7778 221.262 100.151C221.877 103.135 220.931 106.229 218.019 107.109C217.077 107.336 216.107 107.42 215.139 107.36C214.485 107.36 214.233 107.47 214.279 108.174C214.34 109.051 214.279 109.942 214.244 110.811C214.244 111.356 213.991 111.692 213.383 111.702C212.775 111.713 212.551 111.384 212.555 110.825C212.555 109.736 212.555 108.651 212.555 107.565V104.305H212.565ZM214.119 102.866H214.222C214.176 103.51 214.186 104.155 214.251 104.797C214.318 105.151 214.645 105.709 214.933 105.762C216.512 106.045 218.432 105.985 219.157 103.994C219.513 102.994 219.513 101.823 219.513 100.731C219.527 100.164 219.326 99.6123 218.95 99.1863C218.574 98.7603 218.05 98.4911 217.482 98.4325C216.114 98.2451 214.795 98.9381 214.467 100.172C214.29 101.058 214.173 101.954 214.119 102.856V102.866Z" fill="white"/>
<path d="M153.384 102.537C152.555 102.537 151.723 102.537 150.895 102.537C150.209 102.519 150.02 102.837 150.109 103.47C150.179 104.059 150.443 104.608 150.86 105.032C151.277 105.456 151.823 105.731 152.413 105.814C153.292 105.852 154.172 105.79 155.037 105.631C155.524 105.56 156.004 105.369 156.217 105.984C156.431 106.599 156.1 107.02 155.506 107.165C151.531 108.123 148.061 106.716 148.203 101.953C148.267 99.8 148.915 97.8624 151.261 97.0598C151.937 96.7955 152.671 96.7097 153.391 96.8106C154.11 96.9116 154.791 97.196 155.367 97.6361C156.719 98.6544 157.028 100.154 157.021 101.731C157.021 102.307 156.598 102.526 156.047 102.526C155.161 102.537 154.272 102.537 153.384 102.537ZM152.705 101.087C153.234 101.087 153.771 101.087 154.297 101.087C155.143 101.066 155.346 100.779 155.083 99.9874C154.92 99.4942 154.596 99.0694 154.163 98.7804C153.729 98.4915 153.211 98.355 152.69 98.3927C151.425 98.4599 150.44 99.2237 150.226 100.299C150.127 100.801 150.266 101.101 150.842 101.091C151.417 101.08 152.082 101.076 152.705 101.076V101.087Z" fill="white"/>
<path d="M164.004 102.535C163.143 102.535 162.286 102.535 161.426 102.535C160.647 102.535 160.445 102.839 160.679 103.596C161.366 105.763 163.051 106.241 165.5 105.717C165.8 105.616 166.118 105.582 166.432 105.618C166.548 105.67 166.65 105.749 166.727 105.85C166.804 105.951 166.854 106.069 166.873 106.195C166.849 106.501 166.705 106.786 166.471 106.987C164.26 108.539 159.833 107.011 159.108 104.406C158.617 102.638 158.592 100.852 159.442 99.1584C159.875 98.293 160.588 97.5976 161.466 97.1839C162.344 96.7703 163.337 96.6625 164.284 96.8778C166.187 97.2774 167.424 98.8119 167.513 100.88C167.58 102.507 167.555 102.532 165.956 102.539C165.305 102.539 164.654 102.539 164.004 102.539V102.535ZM163.271 101.075V101.093H165.134C165.668 101.093 165.888 100.891 165.756 100.329C165.486 99.1655 164.466 98.2921 163.378 98.3452C162.038 98.4124 160.971 99.2822 160.839 100.488C160.865 100.615 160.923 100.733 161.007 100.832C161.092 100.93 161.201 101.005 161.323 101.05C161.972 101.086 162.622 101.088 163.271 101.057V101.075Z" fill="white"/>
<path d="M275.894 102.539C275.065 102.539 274.237 102.539 273.405 102.539C272.715 102.539 272.434 102.762 272.601 103.497C272.957 105.06 273.888 105.887 275.52 105.87C276.278 105.87 277.031 105.654 277.792 105.633C278.131 105.691 278.457 105.811 278.752 105.986C278.613 106.322 278.571 106.828 278.318 106.973C275.119 108.822 270.962 106.57 270.792 102.938C270.71 101.171 270.792 99.4486 272.129 98.0838C272.665 97.5265 273.345 97.127 274.094 96.9292C274.844 96.7315 275.634 96.7432 276.377 96.9629C277.167 97.1281 277.883 97.5407 278.42 98.1401C278.957 98.7396 279.286 99.4943 279.36 100.294C279.68 102.475 279.605 102.553 277.398 102.535H275.894V102.539ZM275.087 101.096C275.798 101.127 276.51 101.116 277.22 101.064C277.355 101.007 277.473 100.916 277.563 100.8C277.652 100.685 277.711 100.548 277.732 100.403C277.636 99.3425 276.438 98.3631 275.318 98.349C274.08 98.349 272.85 99.293 272.751 100.428C272.772 100.57 272.829 100.703 272.918 100.816C273.006 100.929 273.123 101.017 273.256 101.072C273.87 101.116 274.486 101.119 275.101 101.079L275.087 101.096Z" fill="white"/>
<path d="M239.004 102.112C238.865 104.283 238.222 106.086 236.131 107.062C233.642 108.24 230.574 106.663 229.948 103.986C229.53 102.415 229.667 100.749 230.336 99.2658C231.196 97.3741 232.775 96.7058 234.734 96.8261C235.555 96.8508 236.348 97.1259 237.006 97.6142C237.664 98.1025 238.156 98.7803 238.414 99.5557C238.671 100.393 238.868 101.247 239.004 102.112ZM231.417 101.858C231.432 102.273 231.47 102.687 231.53 103.099C231.619 103.47 231.731 103.836 231.865 104.195C232.302 105.436 233.159 105.963 234.624 105.867C235.669 105.807 236.757 104.994 236.867 103.937C237.005 102.775 237.02 101.601 236.913 100.436C236.799 99.2481 235.669 98.3853 234.424 98.3146C233.859 98.2711 233.296 98.4209 232.828 98.7391C232.36 99.0574 232.015 99.5251 231.85 100.065C231.637 100.733 231.516 101.426 231.417 101.858Z" fill="white"/>
<path d="M186.471 102.099C186.471 100.749 186.425 99.3945 186.5 98.0438C186.532 97.8479 186.609 97.6617 186.724 97.4995C186.839 97.3372 186.99 97.203 187.164 97.1068C187.346 97.0255 187.908 97.3862 188.05 97.669C188.32 98.2065 188.491 97.9413 188.761 97.7256C190.023 96.725 191.402 96.4916 192.896 97.1599C194.389 97.8281 194.673 99.1823 194.744 100.533C194.858 102.407 194.776 104.295 194.769 106.19C194.769 106.823 194.56 107.297 193.802 107.251C193.045 107.205 193.002 106.696 193.002 106.13C193.002 104.985 193.002 103.835 193.002 102.69C193.002 102.131 193.002 101.573 193.002 101.014C192.956 99.3733 192.401 98.5565 191.278 98.461C190.607 98.4264 189.948 98.6376 189.423 99.0547C188.899 99.4719 188.547 100.066 188.434 100.724C188.228 102.492 188.206 104.288 188.149 106.074C188.128 106.639 188.167 107.198 187.438 107.237C186.628 107.279 186.485 106.738 186.496 106.067C186.517 104.744 186.496 103.422 186.496 102.096L186.471 102.099Z" fill="white"/>
<path d="M98.38 75.3848C95.4184 74.9711 92.6133 74.5751 89.8081 74.1968C88.1407 73.974 86.4661 73.7973 84.8022 73.5674C84.488 73.4813 84.1868 73.3541 83.9062 73.1891C84.2227 73.03 84.5284 72.7577 84.8555 72.7365C86.3879 72.6304 87.9273 72.5951 89.4775 72.535C93.3137 72.3829 97.1534 72.2238 100.993 72.0859C101.265 72.113 101.531 72.176 101.786 72.2733C101.719 72.5408 101.612 72.797 101.47 73.0335C100.986 73.6205 100.424 74.1508 99.9443 74.7448C99.4644 75.3388 98.9417 75.5475 98.38 75.3848Z" fill="white"/>
<path d="M266.045 96.7148C266.731 96.8446 267.408 97.0182 268.071 97.2346C268.2 97.3236 268.304 97.4443 268.372 97.585C268.439 97.7257 268.47 97.8815 268.459 98.0372C268.394 98.181 268.296 98.3073 268.172 98.4057C268.048 98.5041 267.903 98.5717 267.748 98.603C267.261 98.6348 266.759 98.4191 266.261 98.405C265.768 98.3558 265.271 98.4211 264.807 98.5959C264.614 98.6995 264.446 98.8457 264.318 99.0234C264.19 99.2012 264.104 99.4056 264.068 99.6213C264.112 99.8382 264.203 100.043 264.333 100.223C264.464 100.402 264.632 100.551 264.825 100.661C265.435 100.954 266.066 101.203 266.713 101.403C268.469 102.11 269.038 102.977 268.889 104.688C268.782 105.883 267.687 107.071 266.222 107.269C265.107 107.369 263.985 107.353 262.873 107.22C262.308 107.177 261.974 106.82 262.162 106.159C262.351 105.498 262.763 105.452 263.325 105.639C264.37 105.972 265.412 106.053 266.4 105.452C266.614 105.335 266.793 105.164 266.92 104.956C267.046 104.748 267.116 104.511 267.121 104.268C267.126 104.026 267.068 103.786 266.95 103.573C266.833 103.36 266.662 103.181 266.453 103.055C265.856 102.732 265.229 102.468 264.58 102.266C262.959 101.686 262.052 100.583 262.233 99.3632C262.454 97.8817 263.773 96.8633 265.504 96.8315C265.682 96.8315 265.86 96.8315 266.038 96.8315L266.045 96.7148Z" fill="white"/>
<path d="M285.367 96.7188C286.001 96.813 286.625 96.9597 287.234 97.1572C287.515 97.2739 287.653 97.7158 287.856 98.0129C287.501 98.2038 287.17 98.5362 286.811 98.5609C286.295 98.5998 285.744 98.3311 285.243 98.3488C284.715 98.3568 284.197 98.4863 283.728 98.7271C282.982 99.1479 283.088 100.141 283.931 100.566C284.663 100.937 285.453 101.188 286.221 101.489C287.486 101.987 288.212 102.945 288.212 104.13C288.217 104.75 288.034 105.357 287.686 105.872C287.339 106.387 286.843 106.786 286.263 107.015C284.887 107.634 283.483 107.429 282.079 107.213C281.552 107.132 281.208 106.778 281.368 106.202C281.388 106.077 281.438 105.958 281.513 105.856C281.588 105.753 281.686 105.67 281.8 105.612C281.913 105.554 282.038 105.523 282.166 105.522C282.293 105.52 282.419 105.549 282.534 105.604C283.6 105.958 284.667 106.085 285.684 105.445C286.701 104.805 286.75 103.677 285.684 103.044C285.062 102.71 284.408 102.438 283.732 102.231C281.986 101.605 281.4 100.739 281.631 99.0736C281.801 97.8325 282.964 96.9274 284.521 96.8284C284.788 96.8107 285.054 96.8284 285.321 96.8284L285.367 96.7188Z" fill="white"/>
<path d="M107.206 66.1514C107.034 66.4238 106.841 66.6827 106.63 66.9258C106.058 67.4774 105.421 67.9688 104.881 68.5487C104.34 69.1286 103.814 69.1392 103.195 68.6407C101.329 67.1026 99.4517 65.5787 97.5745 64.0441C96.8207 63.4289 96.0528 62.8313 95.3204 62.1949C95.1653 61.9998 95.0451 61.7798 94.9648 61.5443C95.2297 61.4714 95.5063 61.451 95.779 61.4842C99.3604 62.8419 102.936 64.2174 106.505 65.6105C106.761 65.761 106.996 65.9428 107.206 66.1514Z" fill="white"/>
<path d="M141.147 99.9992V106.074C141.147 106.671 141.068 107.24 140.283 107.24C139.497 107.24 139.426 106.654 139.426 106.067C139.426 102.043 139.426 98.0215 139.426 94.0025C139.426 93.854 139.447 93.709 139.458 93.5605C139.508 92.9842 139.877 92.6377 140.396 92.7897C140.576 92.8664 140.734 92.9848 140.858 93.1349C140.981 93.2851 141.067 93.4625 141.107 93.6524C141.168 95.7739 141.139 97.8954 141.139 99.9956L141.147 99.9992Z" fill="white"/>
<path d="M223.817 102.121C223.817 100.798 223.777 99.4724 223.841 98.1536C223.852 97.9517 223.906 97.7545 224 97.5752C224.094 97.3958 224.225 97.2386 224.385 97.1141C224.848 96.8772 225.292 97.1141 225.452 97.7151C225.452 97.7682 225.843 97.7823 226.024 97.7151C226.661 97.5171 227.276 97.1848 227.923 97.1035C228.214 97.0681 228.563 97.503 228.886 97.7222C228.648 98.0334 228.463 98.5355 228.175 98.6203C226.145 99.1931 225.708 99.6209 225.562 101.778C225.463 103.27 225.495 104.773 225.466 106.268C225.466 106.77 225.395 107.248 224.723 107.237C224.051 107.226 223.845 106.83 223.845 106.251C223.813 104.886 223.817 103.503 223.817 102.121Z" fill="white"/>
<path d="M146.454 107.414C146.015 107.181 145.608 106.895 145.241 106.562C144.175 105.321 143.154 104.016 142.095 102.757C141.704 102.294 141.565 101.891 141.974 101.343C142.898 100.13 143.783 98.8679 144.697 97.6622C144.832 97.4783 145.028 97.2485 145.223 97.2167C145.665 97.1759 146.11 97.1688 146.553 97.1954C146.501 97.5693 146.392 97.933 146.23 98.2739C145.536 99.2603 144.807 100.229 144.039 101.152C143.599 101.672 143.666 102.029 144.082 102.513C145.113 103.723 146.102 104.964 147.076 106.215C147.157 106.325 147.216 106.451 147.246 106.584C147.277 106.717 147.279 106.855 147.253 106.99C147.189 107.163 146.834 107.23 146.454 107.414Z" fill="white"/>
<path d="M183.585 102.183C183.585 103.449 183.585 104.711 183.585 105.977C183.585 106.606 183.564 107.215 182.732 107.243C181.9 107.271 181.84 106.652 181.84 106.023C181.84 103.902 181.84 101.78 181.84 99.6585C181.84 99.1246 181.786 98.7145 181.157 98.4953C181.006 98.4081 180.88 98.2834 180.792 98.1335C180.703 97.9836 180.655 97.8134 180.652 97.6396C180.706 97.385 181.161 97.1976 181.467 97.0244C181.577 96.9607 181.758 97.0244 181.904 97.0244C183.561 97.0562 183.568 97.0633 183.571 98.7322C183.571 99.8825 183.571 101.029 183.571 102.173L183.585 102.183Z" fill="white"/>
<path d="M259.668 102.238C259.668 103.529 259.668 104.819 259.668 106.128C259.668 106.761 259.508 107.259 258.758 107.256C258.008 107.252 257.876 106.722 257.876 106.106C257.876 103.985 257.876 101.863 257.876 99.7632C257.876 99.1692 257.855 98.6777 257.129 98.4691C257.001 98.3932 256.893 98.2857 256.818 98.157C256.743 98.0283 256.702 97.8825 256.699 97.7337C256.749 97.5919 256.831 97.4638 256.94 97.36C257.049 97.2561 257.181 97.1793 257.325 97.1361C257.759 97.0531 258.203 97.0305 258.644 97.0689C259.312 97.0689 259.668 97.4048 259.657 98.112C259.654 99.4768 259.664 100.859 259.668 102.238Z" fill="white"/>
<path d="M183.237 94.1214C183.309 94.8851 182.882 95.1361 182.171 95.1185C181.46 95.1008 181.158 94.7861 181.168 94.086C181.179 93.386 181.442 92.9404 182.267 92.9617C183.092 92.9829 183.277 93.4178 183.237 94.1214Z" fill="white"/>
<path d="M259.314 94.0891C259.396 94.8387 259.04 95.1498 258.29 95.1286C257.54 95.1074 257.316 94.6866 257.313 94.0007C257.309 93.3147 257.618 92.94 258.379 92.9576C259.183 92.9612 259.375 93.3996 259.314 94.0891Z" fill="white"/>
<path d="M272.647 8.18913C272.647 7.39711 272.647 6.60509 272.647 5.81307C272.647 5.10591 273.003 4.68869 273.714 4.72051C274.532 4.70493 275.349 4.79285 276.146 4.98216C277.61 5.44535 278.094 6.96574 277.148 8.16438C276.618 8.83265 276.714 9.28876 277.184 9.85096C277.4 10.0914 277.579 10.3632 277.713 10.6571C277.809 10.894 277.891 11.2723 277.77 11.4209C277.671 11.5163 277.549 11.5849 277.416 11.6202C277.283 11.6554 277.143 11.6562 277.009 11.6224C276.508 11.3022 276.052 10.9157 275.655 10.4733C275.27 10.0044 274.914 9.51328 274.588 9.00236C274.521 9.56809 274.446 10.1303 274.396 10.696C274.346 11.2617 274.126 11.7002 273.5 11.6719C272.875 11.6436 272.619 11.2759 272.629 10.6677C272.629 9.84742 272.629 9.02358 272.629 8.19267L272.647 8.18913Z" fill="white"/>
</g>
<defs>
<clipPath id="clip0_5785_18928">
<rect width="288.213" height="112" fill="white"/>
</clipPath>
</defs>
</svg>
