<svg width="46" height="46" viewBox="0 0 46 46" fill="none" xmlns="http://www.w3.org/2000/svg">
<g clip-path="url(#clip0_1211_12049)">
<path d="M-2.95931e-07 5.75C-1.62612e-07 4.22501 0.605804 2.76247 1.68414 1.68414C2.76247 0.605804 4.22501 1.62611e-07 5.75 2.9593e-07L40.25 3.31202e-06C41.775 3.44534e-06 43.2375 0.605808 44.3159 1.68414C45.3942 2.76247 46 4.22501 46 5.75L46 40.25C46 41.775 45.3942 43.2375 44.3159 44.3159C43.2375 45.3942 41.775 46 40.25 46L5.75 46C4.225 46 2.76247 45.3942 1.68413 44.3159C0.605801 43.2375 -3.44534e-06 41.775 -3.31202e-06 40.25L-2.95931e-07 5.75ZM12.9375 24.4375L29.5924 24.4375L23.4197 30.6072C23.1498 30.8772 22.9982 31.2433 22.9982 31.625C22.9982 32.0067 23.1498 32.3728 23.4197 32.6427C23.6897 32.9127 24.0558 33.0643 24.4375 33.0643C24.8192 33.0643 25.1853 32.9127 25.4552 32.6427L34.0803 24.0178C34.2141 23.8842 34.3203 23.7256 34.3928 23.5509C34.4653 23.3763 34.5026 23.1891 34.5026 23C34.5026 22.8109 34.4653 22.6237 34.3928 22.4491C34.3203 22.2744 34.2141 22.1158 34.0803 21.9823L25.4553 13.3573C25.1853 13.0873 24.8192 12.9357 24.4375 12.9357C24.0558 12.9357 23.6897 13.0873 23.4198 13.3573C23.1498 13.6272 22.9982 13.9933 22.9982 14.375C22.9982 14.7567 23.1498 15.1228 23.4198 15.3928L29.5924 21.5625L12.9375 21.5625C12.5562 21.5625 12.1906 21.7139 11.921 21.9835C11.6514 22.2531 11.5 22.6188 11.5 23C11.5 23.3812 11.6514 23.7469 11.921 24.0165C12.1906 24.286 12.5562 24.4375 12.9375 24.4375Z" fill="white" fill-opacity="0.22"/>
</g>
<defs>
<clipPath id="clip0_1211_12049">
<rect width="46" height="46" fill="white" transform="translate(46 46) rotate(-180)"/>
</clipPath>
</defs>
</svg>
